<svg id="All_Logos_outlined_copy" data-name="All Logos outlined copy" xmlns="http://www.w3.org/2000/svg" xmlns:xlink="http://www.w3.org/1999/xlink" viewBox="0 0 545 205.12">
  <defs>
    <linearGradient id="linear-gradient" x1="94.05" y1="5.88" x2="94.05" y2="164.23" gradientTransform="matrix(1, 0, 0, -1, 0, 204.69)" gradientUnits="userSpaceOnUse">
      <stop offset="0" stop-color="#dccfdd"/>
      <stop offset="1" stop-color="#773079"/>
    </linearGradient>
    <linearGradient id="linear-gradient-2" x1="140.97" y1="149.48" x2="67.26" y2="75.77" gradientTransform="matrix(1, 0, 0, -1, 0, 204.69)" gradientUnits="userSpaceOnUse">
      <stop offset="0" stop-color="#662861"/>
      <stop offset="0.24" stop-color="#793f7c"/>
      <stop offset="0.5" stop-color="#875090"/>
      <stop offset="0.75" stop-color="#905a9d"/>
      <stop offset="1" stop-color="#935ea1"/>
    </linearGradient>
    <radialGradient id="radial-gradient" cx="10.24" cy="71.63" r="152.35" gradientTransform="matrix(1, 0, 0, -1, 0, 204.92)" gradientUnits="userSpaceOnUse">
      <stop offset="0" stop-color="#fff"/>
      <stop offset="1" stop-color="#773079"/>
    </radialGradient>
    <radialGradient id="radial-gradient-2" cx="53.15" cy="86.41" r="89.57" gradientTransform="matrix(1, 0, 0, -1, 0, 204.92)" gradientUnits="userSpaceOnUse">
      <stop offset="0.42" stop-color="#fff"/>
      <stop offset="1" stop-color="#773079"/>
    </radialGradient>
    <linearGradient id="linear-gradient-3" x1="124.59" y1="113.58" x2="174.03" y2="163.02" gradientTransform="matrix(1, 0, 0, -1, 0, 204.69)" gradientUnits="userSpaceOnUse">
      <stop offset="0" stop-color="#67296a"/>
      <stop offset="0.17" stop-color="#793f7c"/>
      <stop offset="0.51" stop-color="#a677a9"/>
      <stop offset="1" stop-color="#edd0f1"/>
    </linearGradient>
    <linearGradient id="linear-gradient-4" x1="46.55" y1="79.3" x2="16.95" y2="57.2" gradientTransform="matrix(1, 0, 0, -1, 0, 204.69)" gradientUnits="userSpaceOnUse">
      <stop offset="0" stop-color="#ae78b7"/>
      <stop offset="0.04" stop-color="#b17dba"/>
      <stop offset="0.7" stop-color="#e9daeb"/>
      <stop offset="1" stop-color="#fff"/>
    </linearGradient>
  </defs>
  <title>classbiz-horizontal-r</title>
  <g>
    <path d="M30.65,189.63c-8.6,0-15.6-7.37-15.6-16.42V31.06c0-9.06,7-16.43,15.6-16.43h126.8c8.6,0,15.6,7.37,15.6,16.43V173.21c0,9-7,16.42-15.6,16.42Z" fill="url(#linear-gradient)"/>
    <path d="M168,31.06c0-6.28-4.73-11.38-10.56-11.38H30.65c-5.83,0-10.56,5.1-10.56,11.38V173.21c0,6.28,4.73,11.37,10.56,11.37h126.8c5.83,0,10.56-5.09,10.56-11.37Z" fill="url(#linear-gradient-2)"/>
    <path d="M157.45,184.58H30.65c-5.83,0-10.56-5.09-10.56-11.37V154.42c19.54-38.35,63.27-65.06,114.08-65.06A141,141,0,0,1,168,93.44v79.77C168,179.49,163.28,184.58,157.45,184.58Z" opacity="0.55" fill="url(#radial-gradient)"/>
    <path d="M33.27,98.86a61.89,61.89,0,1,0,61.89-62A62,62,0,0,0,33.27,98.86Z" opacity="0.24" fill="url(#radial-gradient-2)"/>
    <path d="M160.42,177.63V39.53c0-6.28-4.81-11.38-10.74-11.38H65.36a9.72,9.72,0,0,1,7.77-4H154c5.52,0,10,4.82,10,10.76V169.36A11.12,11.12,0,0,1,160.42,177.63Z" opacity="0.25" fill="url(#linear-gradient-3)"/>
    <path d="M26.9,27.15V165.24c0,6.29,4.81,11.38,10.74,11.38h90.83a9.73,9.73,0,0,1-7.78,4H33.3c-5.52,0-10-4.82-10-10.76V35.41A11.06,11.06,0,0,1,26.9,27.15Z" opacity="0.25" fill="url(#linear-gradient-4)"/>
  </g>
  <path d="M142.2,110.69c-3.39-6.19-3.37-7.14-3.09-8.57a2.78,2.78,0,0,0-1-2.9c-.72-.61-3.83-3.44-3.83-3.44a16.78,16.78,0,0,1-.53-3.24c0-1.08.25-4.9.57-7.89a12.3,12.3,0,0,0-.23-3.59l.06,0c-.1-1.8-.19-3.54-.28-5.05l0-.21h0c0-.13,0-.28,0-.41-.36-6.19.73-7.66.26-9.43a58.73,58.73,0,0,1-1.61-8,7,7,0,0,1,1.25-3.77,5.83,5.83,0,0,0,0-2.89l-.67-.24-.06-.58s1.24-.88,2.48-1.57,1.72-2,3.34-2.67a2.07,2.07,0,0,0-.91-3.91c-2.55-.17-4.74.07-5.61,1.16a4.26,4.26,0,0,1-3.86,1.67c-1.77-.12-1.74,2.2-1.48,4.14a10.65,10.65,0,0,1-.89,1.48,2.75,2.75,0,0,0-.41,3.06c.69,1.4.29,7.15.19,11.38-.07,2.83-.14,7-.32,10.58-.32,2.32-1.36,7.44-1.4,8.78a22.26,22.26,0,0,1-1.71,5.22,27.12,27.12,0,0,1-.6-5c0-4-1.49-10.13-1.65-13s-.18-6.92-1-9.19-.62-6.89-.92-8.22.51-1.72.67-2.89a2,2,0,0,0-.67-1.78l-1-1a4.32,4.32,0,0,1,1-2.63c1-1.41,2.57-6.31-1.06-6.68s-7.21.2-6.29,4.39S110.5,49,110.5,49s-1,2.36-.07,2.69.37,2.49-.13,5.6A84.43,84.43,0,0,0,110,71.39a19.73,19.73,0,0,0,.35,2.75l.11,10.64c.11,3.59.6,3.68-1.5,11.2a54.52,54.52,0,0,1-5.26-7.49c0-1.43-.71-3.61-.94-5.3a17,17,0,0,1,.6-3.89A9.11,9.11,0,0,0,104,76c0-.07,0-.14,0-.21H104a2.3,2.3,0,0,0-.17-.48,2.38,2.38,0,0,1,.23-2.7c.67-1-.45-1,.67-3.26s2.93-8.85,3.15-15.19.08-4.37.31-5.33-.67-1,.45-1.92,1.12-1.73.45-2.69-.45-.77.22-1.73.84-1.11.17-2.65-4.58-1.49-8.65-4.55c-2.16-1.62-7.6-.43-6.32.82,2,2,5.71,5.4,5.49,6.17a4.71,4.71,0,0,0-.22,1.3,4.44,4.44,0,0,1-.22,2.89,27.31,27.31,0,0,0-1.8,8.27,19.42,19.42,0,0,1-2.25,8.65,43.47,43.47,0,0,0,.9-7.31c0-3.07-.45-2.88.45-4.8s.67-2.31,0-2.89-1.12-1.54-.23-1.73.23-3.65-.22-4.23-2.7,0-5.4-.38-5.62-2.12-8.54-1.73c-1.32.17-3.46.08-3.38,1.5s2.46,2.12,3.6,2.53c1.58.58,4.5,2.89,5.17,3.27s-.22.77-.22,1.73,2.25,1.16,1.12,2.89-.9,6-2.47,10.38,0,6.15-1.13,8.65c-.79,1.76-1.58,3-2.22,4.52h-.05l-.06.28A14.33,14.33,0,0,0,82.2,78c-.23,1-.49,2-.82,3a39.29,39.29,0,0,1-.9,4.34c-1.12,3.16-1.5,9.32-1.12,10.9s-.19,5.8-.19,5.8a54.52,54.52,0,0,0,.4,5.61c-.71-1.63-1.64-3.31-2.28-4.52-1.08-2,.18-3.19-.29-4.15-1.48-3-2.82-3.54-2.82-3.54s.15.78-.74-3.5,1.08-13.48,1.08-13.48c-1.7-.49-4.85-1.89-4.85-1.89a10.53,10.53,0,0,1,.59-2.12A86,86,0,0,0,74,61.37c.59-2.88,1.38-4.23,1.18-7.69s-.19-7.5-.19-7.5l-.79-.38a18.53,18.53,0,0,0,1-3.65c0-1-.19-.2-1.77-2.12A7.4,7.4,0,0,0,67.9,37c-2,0-4.33.76-2.17,3.46s3,4.22,3,5.38-.4,2.69-.4,5.38.59,3.08-.59,6.34a74.22,74.22,0,0,0-2.17,7.89S67.11,57.52,67.11,55a23.78,23.78,0,0,1,.2-4.42,16.78,16.78,0,0,0-.2-3.66,6.38,6.38,0,0,0-1.77-.19c-1.18,0-3-2.88-5.91-3.46s-5.31.39-3.15,2.5,4.92,4.61,4.92,4.61a4.8,4.8,0,0,0-.59,2.31c0,1.35.4,1,.4,2.31s-.59,1.53-1.19,3.84-.19,3.85-1.77,7.88-1.37,5.38-1.18,6.73-.12,1.49-.47,2.65a33.23,33.23,0,0,1-4.33.85,75.78,75.78,0,0,0-1,10.72l-5-1.54s-.18-.62-1.61-1.14-2,.79-2.51,2.1-.89,2-.89,2c-1.17,3.5-2.24,4.37-1.61,8.92s2.5,5.86,3.85,11.45,3.85,8.75,4.56,11.9,1.17,4.54,1.17,6.64a33.75,33.75,0,0,0,1.25,7.43,3,3,0,0,0,.37.79c.8,2,1.81,1.84,3,3.41s1.11.92,1.59,4a41.1,41.1,0,0,0,2.46,9.88c1.79,5,5.39,3.78,5.39,3.78,3.68,2.13,7.18-2.21,7-4.8s.57-4.8-.47-7.38-1.61-3.51-.94-4.71c.45-.83.82-1.4,1-1.67a41.44,41.44,0,0,1,5-2,4.17,4.17,0,0,0,1.6-.9c.49,2.13,1.75,2.67,3.91,3.69a13.46,13.46,0,0,1,4.31,3.34s0,2.81-.94,2.81-1.68.71-3,2.11-1.5,3.34-1.87,4.4S78,156,77.57,156.42c-.73.72-.2,5.46,3.07,7,4.73,2.22,7.16.14,7.16.14a5.42,5.42,0,0,0,2.78-2c1.12-1.58.75-5.9.75-5.9.94.18.94-.88.56-2.63s-1.31-1.59-1.31-1.59l.19-2.11c.19-2.11.75-3.34,2.8-3.34,1.68,0,7.57-1,7.86-1.05,3.91-.35,3.74-2.28,7.07-7.86.09,1,1,1.53,2.08,2.6a30.91,30.91,0,0,0,5.6,3.71,3.51,3.51,0,0,0,.14.55,1.45,1.45,0,0,0,1.46,1s.07,1.92,0,2.88a8.16,8.16,0,0,1-.8,2.49c-1.24.33-1.53,2.35-1.53,2.35-.77,1.18-.94,3.09-.15,5.86s6.06,3.82,8.27,3.88,2.6-1.38,2.6-1.38l1.24-.56-.1-.72c-.1-.73-.83-1.1-.32-1.81a3.31,3.31,0,0,0,.53-1.66s0-1.2.05-2,.4-1.19.18-2.27-.32-1.92-.53-3-.6-.62-.59-1.21a1.76,1.76,0,0,1,.52-1.07,2.15,2.15,0,0,0,1.62-1l1.15-1.76s1.6-.64,3.3-1.36c1.24-.53,3.76-1.44,4.51-2.28,1.56-1.76,2.45-4.73,3.61-7.21s2.35-5.57,2.35-5.57l-.48-.49c.93-2.85,1.41-5.27,2-6.73C145.53,119.62,145.6,116.87,142.2,110.69Zm-66.62,1.7a30.3,30.3,0,0,1-.44,4c-.36,1.84-2,6.82-2,8.31a16,16,0,0,0-1.08-3.15c-.89-2.1-1.43-5.51-.89-7.08s2.77-5.6,2.5-10.67c0,0,.72.09,1.08,2.8S74.87,110,75.58,112.39Zm4.9,3-.07,0c0-.22,0-.43,0-.64C80.48,115.15,80.48,115.39,80.48,115.39Zm25.44,7.92c.56.88.75.53-2.8,5.8a9.43,9.43,0,0,0,.18-4.57,30.6,30.6,0,0,1-.56-5.8S105.36,122.43,105.92,123.31Zm1.7-10.15a17.75,17.75,0,0,0-.08,2.19c-1.73-1.36-3.3-2.42-3.3-2.42l.37-.88c.33-.94.84-2,1.36-3.16C106.81,110.4,107.81,111,107.62,113.16ZM139,120.54a27.44,27.44,0,0,0-2.06,4l-.62.42a48.81,48.81,0,0,0-2.33,4.65,12.86,12.86,0,0,0-.37-4.68,19.78,19.78,0,0,1-.3-7.54c.31-2.39.25-4.78.92-7.28a19.12,19.12,0,0,0,.16-6.21s1-.1,1.79,2.07.89,7.28,1.43,9.53C138.59,119.49,139.77,119.6,139,120.54Z" fill="#fff"/>
  <path d="M137.4,108.26s28.83-12.54,22.83-45-39-48.64-39-48.64a27.59,27.59,0,0,0-28.81,0s42.31,11.64,58.81,35.64,5,45-15.47,51.9Z" fill="#fff"/>
  <path d="M49.08,96.44s-28.83,12.54-22.83,45,39,48.63,39,48.63a27.57,27.57,0,0,0,28.8,0s-42.3-11.63-58.8-35.63-5-45,15.46-51.9Z" fill="#fff"/>
</svg>
