<svg id="All_Logos_outlined" data-name="All Logos outlined" xmlns="http://www.w3.org/2000/svg" xmlns:xlink="http://www.w3.org/1999/xlink" viewBox="0 0 545 205.12">
  <defs>
    <linearGradient id="linear-gradient" x1="94.05" y1="5.88" x2="94.05" y2="164.23" gradientUnits="userSpaceOnUse">
      <stop offset="0" stop-color="#dccfdd"/>
      <stop offset="1" stop-color="#773079"/>
    </linearGradient>
    <linearGradient id="linear-gradient-2" x1="140.97" y1="149.48" x2="67.26" y2="75.77" gradientUnits="userSpaceOnUse">
      <stop offset="0" stop-color="#662861"/>
      <stop offset="0.24" stop-color="#793f7c"/>
      <stop offset="0.5" stop-color="#875090"/>
      <stop offset="0.75" stop-color="#905a9d"/>
      <stop offset="1" stop-color="#935ea1"/>
    </linearGradient>
    <radialGradient id="radial-gradient" cx="10.24" cy="71.63" r="152.35" gradientTransform="translate(0 -0.22)" gradientUnits="userSpaceOnUse">
      <stop offset="0" stop-color="#fff"/>
      <stop offset="1" stop-color="#773079"/>
    </radialGradient>
    <radialGradient id="radial-gradient-2" cx="53.15" cy="86.41" r="89.57" gradientTransform="translate(0 -0.22)" gradientUnits="userSpaceOnUse">
      <stop offset="0.42" stop-color="#fff"/>
      <stop offset="1" stop-color="#773079"/>
    </radialGradient>
    <linearGradient id="linear-gradient-3" x1="124.59" y1="113.58" x2="174.03" y2="163.02" gradientUnits="userSpaceOnUse">
      <stop offset="0" stop-color="#67296a"/>
      <stop offset="0.17" stop-color="#793f7c"/>
      <stop offset="0.51" stop-color="#a677a9"/>
      <stop offset="1" stop-color="#edd0f1"/>
    </linearGradient>
    <linearGradient id="linear-gradient-4" x1="46.55" y1="79.3" x2="16.95" y2="57.2" gradientUnits="userSpaceOnUse">
      <stop offset="0" stop-color="#ae78b7"/>
      <stop offset="0.04" stop-color="#b17dba"/>
      <stop offset="0.7" stop-color="#e9daeb"/>
      <stop offset="1" stop-color="#fff"/>
    </linearGradient>
  </defs>
  <title>classbiz-horizontal</title>
  <g>
    <path d="M30.65,15.06c-8.6,0-15.6,7.37-15.6,16.42V173.64c0,9.05,7,16.42,15.6,16.42h126.8c8.6,0,15.6-7.37,15.6-16.42V31.48c0-9-7-16.42-15.6-16.42Z" fill="url(#linear-gradient)"/>
    <path d="M168,173.64c0,6.28-4.73,11.37-10.56,11.37H30.65c-5.83,0-10.56-5.09-10.56-11.37V31.48c0-6.27,4.73-11.37,10.56-11.37h126.8c5.83,0,10.56,5.1,10.56,11.37Z" fill="url(#linear-gradient-2)"/>
    <path d="M157.45,20.11H30.65c-5.83,0-10.56,5.1-10.56,11.37v18.8c19.54,38.35,63.27,65.06,114.08,65.06A141,141,0,0,0,168,111.25V31.48C168,25.21,163.28,20.11,157.45,20.11Z" opacity="0.55" fill="url(#radial-gradient)"/>
    <path d="M33.27,105.83a61.89,61.89,0,1,1,61.89,62A62,62,0,0,1,33.27,105.83Z" opacity="0.24" fill="url(#radial-gradient-2)"/>
    <path d="M160.42,27.07V165.16c0,6.28-4.81,11.38-10.74,11.38H65.36a9.72,9.72,0,0,0,7.77,4H154c5.52,0,10-4.82,10-10.76V35.33A11.09,11.09,0,0,0,160.42,27.07Z" opacity="0.25" fill="url(#linear-gradient-3)"/>
    <path d="M26.9,177.54V39.45c0-6.28,4.81-11.38,10.74-11.38h90.83a9.76,9.76,0,0,0-7.78-4H33.3c-5.52,0-10,4.82-10,10.76V169.28A11.06,11.06,0,0,0,26.9,177.54Z" opacity="0.25" fill="url(#linear-gradient-4)"/>
  </g>
  <path d="M145.27,84.44c-.6-1.46-1.08-3.88-2-6.73l.48-.49s-1.18-3.08-2.35-5.56-2-5.46-3.61-7.21c-.75-.85-3.27-1.76-4.51-2.28-1.7-.73-3.3-1.36-3.3-1.36L128.82,59a2.15,2.15,0,0,0-1.62-1,1.72,1.72,0,0,1-.52-1.06c0-.6.37-.13.59-1.21s.31-1.92.53-3-.16-1.43-.18-2.27-.05-2-.05-2a3.34,3.34,0,0,0-.53-1.66c-.51-.71.22-1.08.32-1.8l.1-.72-1.24-.57s-.4-1.43-2.6-1.37-7.48,1.1-8.27,3.87-.62,4.68.15,5.86c0,0,.29,2,1.53,2.35a8.15,8.15,0,0,1,.8,2.5c0,.95,0,2.87,0,2.87a1.45,1.45,0,0,0-1.46,1,3.23,3.23,0,0,0-.14.54,31.45,31.45,0,0,0-5.6,3.71c-1.12,1.07-2,1.63-2.08,2.6-3.33-5.58-3.16-7.5-7.07-7.86-.29,0-6.18-1-7.86-1-2,0-2.61-1.23-2.8-3.34l-.19-2.11s.94.18,1.31-1.58.38-2.82-.56-2.64c0,0,.37-4.31-.75-5.9a5.37,5.37,0,0,0-2.78-2s-2.43-2.08-7.16.14c-3.27,1.53-3.8,6.28-3.07,7,.4.4.85,3.22,1.23,4.27s.56,3,1.87,4.4,2.06,2.11,3,2.11.94,2.82.94,2.82a13.46,13.46,0,0,1-4.31,3.34c-2.16,1-3.42,1.55-3.91,3.68a4,4,0,0,0-1.6-.89,39.88,39.88,0,0,1-5-2c-.18-.27-.55-.83-1-1.66-.67-1.2-.1-2.13.94-4.71s.28-4.8.47-7.39-3.31-6.92-7-4.8c0,0-3.6-1.2-5.39,3.79a41,41,0,0,0-2.46,9.87c-.48,3-.36,2.4-1.59,4s-2.23,1.4-3,3.41a3,3,0,0,0-.37.79,33.75,33.75,0,0,0-1.25,7.43c0,2.1-.45,3.5-1.17,6.65s-3.22,6.29-4.56,11.89-3.23,6.91-3.85,11.45.44,5.43,1.61,8.92c0,0,.36.7.89,2s1.08,2.63,2.51,2.1,1.61-1.13,1.61-1.13l5-1.55a75.78,75.78,0,0,0,1,10.72,33.46,33.46,0,0,1,4.33.86c.35,1.15.65,1.44.47,2.64s-.39,2.69,1.18,6.73,1.18,5.58,1.77,7.88,1.19,2.5,1.19,3.85-.4,1-.4,2.3a4.8,4.8,0,0,0,.59,2.31s-2.75,2.5-4.92,4.62.2,3.07,3.15,2.49,4.73-3.46,5.91-3.46a6.38,6.38,0,0,0,1.77-.19,16.72,16.72,0,0,0,.2-3.65,23.78,23.78,0,0,1-.2-4.42c0-2.5-1.58-10.38-1.58-10.38a74.34,74.34,0,0,0,2.17,7.88c1.18,3.27.59,3.65.59,6.34s.4,4.23.4,5.39-.79,2.68-3,5.38.2,3.46,2.17,3.46a7.42,7.42,0,0,0,5.51-3.08c1.58-1.92,1.77-1.15,1.77-2.11a18.32,18.32,0,0,0-1-3.65l.79-.39s0-4,.19-7.5-.59-4.8-1.18-7.69a86,86,0,0,0-3.74-13.07,10.53,10.53,0,0,1-.59-2.12,50.61,50.61,0,0,1,4.85-1.88s-2-9.2-1.08-13.49.74-3.49.74-3.49,1.34-.53,2.82-3.54c.47-1-.79-2.15.29-4.16.64-1.21,1.57-2.89,2.28-4.51a54.19,54.19,0,0,0-.4,5.6s.56,4.22.19,5.8,0,7.74,1.12,10.91a38.82,38.82,0,0,1,.9,4.34c.33,1,.59,2,.82,3a15.29,15.29,0,0,0,.59,1.93l.06.27h.05c.64,1.56,1.43,2.76,2.22,4.52,1.13,2.5-.45,4.23,1.13,8.66s1.35,8.65,2.47,10.38-1.12,1.92-1.12,2.88.9,1.35.22,1.73-3.59,2.69-5.17,3.27c-1.14.42-3.52,1-3.6,2.53s2.06,1.33,3.38,1.51c2.92.38,5.84-1.35,8.54-1.73s5,.19,5.4-.39,1.12-4,.22-4.23-.45-1.15.23-1.73.9-1,0-2.88-.45-1.73-.45-4.81a43.46,43.46,0,0,0-.9-7.3A19.35,19.35,0,0,1,97.72,150a27.16,27.16,0,0,0,1.8,8.26,4.44,4.44,0,0,1,.22,2.89,4.75,4.75,0,0,0,.22,1.31c.22.76-3.49,4.22-5.49,6.17-1.28,1.25,4.16,2.43,6.32.81,4.07-3.06,8-3,8.65-4.55s.51-1.68-.17-2.65-.89-.77-.22-1.73.67-1.73-.45-2.69-.22-1-.45-1.92-.09,1-.31-5.33-2-12.88-3.15-15.18,0-2.31-.67-3.27a2.37,2.37,0,0,1-.23-2.69,2.6,2.6,0,0,0,.17-.49h.09c0-.07,0-.14,0-.2a9.15,9.15,0,0,0-.66-3.35,16.92,16.92,0,0,1-.6-3.88c.23-1.69.94-3.88.94-5.31a55.16,55.16,0,0,1,5.26-7.49c2.1,7.52,1.61,7.61,1.5,11.2l-.11,10.64a19.93,19.93,0,0,0-.35,2.75,84.56,84.56,0,0,0,.32,14.08c.5,3.1,1,5.25.13,5.59s.07,2.7.07,2.7,1.29,1,.37,5.22,2.66,4.76,6.29,4.39,2.11-5.28,1.06-6.69a4.32,4.32,0,0,1-1-2.63l1-1a2,2,0,0,0,.67-1.79c-.16-1.17-1-1.55-.67-2.88s.12-6,.92-8.23.82-6.31,1-9.19,1.64-9,1.65-13a27.12,27.12,0,0,1,.6-5,22.18,22.18,0,0,1,1.71,5.23c0,1.33,1.08,6.45,1.4,8.77.18,3.63.25,7.75.32,10.58.1,4.23.5,10-.19,11.38a2.75,2.75,0,0,0,.41,3.06,10.65,10.65,0,0,1,.89,1.48c-.26,1.95-.29,4.26,1.48,4.14a4.26,4.26,0,0,1,3.86,1.67c.87,1.1,3.06,1.34,5.61,1.17a2.07,2.07,0,0,0,.91-3.92c-1.62-.66-2.11-2-3.34-2.67s-2.48-1.56-2.48-1.56l.06-.58.67-.24a5.83,5.83,0,0,0,0-2.89,7,7,0,0,1-1.25-3.77,59.17,59.17,0,0,1,1.61-8c.47-1.77-.62-3.23-.26-9.43,0-.13,0-.27,0-.41h0l0-.21c.09-1.5.18-3.24.28-5l-.06,0a12.37,12.37,0,0,0,.23-3.6c-.32-3-.54-6.81-.57-7.88a16.77,16.77,0,0,1,.53-3.25s3.11-2.82,3.83-3.44a2.77,2.77,0,0,0,1-2.89c-.28-1.43-.3-2.39,3.09-8.57S145.53,85.07,145.27,84.44ZM74.78,98.08c-.36,2.71-1.08,2.79-1.08,2.79.27-5.07-2-9.09-2.5-10.67s0-5,.89-7.08A16,16,0,0,0,73.17,80c0,1.49,1.61,6.48,2,8.31a30.46,30.46,0,0,1,.44,4C74.87,94.66,75.14,95.36,74.78,98.08ZM80.46,90c0-.21,0-.43,0-.65l.07,0S80.48,89.55,80.46,90Zm22.28-4a30.68,30.68,0,0,1,.56-5.81,9.43,9.43,0,0,0-.18-4.57c3.55,5.28,3.36,4.93,2.8,5.81S102.74,86,102.74,86ZM106,95.8c-.52-1.14-1-2.22-1.36-3.16l-.37-.88s1.57-1.06,3.3-2.42a17.85,17.85,0,0,0,.08,2.2C107.81,93.66,106.81,94.29,106,95.8Zm31.66-6.63c-.54,2.25-.63,7.36-1.43,9.53s-1.79,2.08-1.79,2.08a19.18,19.18,0,0,0-.16-6.22c-.67-2.5-.61-4.89-.92-7.28a19.79,19.79,0,0,1,.3-7.54,12.86,12.86,0,0,0,.37-4.68,47.65,47.65,0,0,0,2.33,4.65l.62.43a27,27,0,0,0,2.06,4C139.77,85.09,138.59,85.2,137.63,89.17Z" fill="#fff"/>
  <path d="M137.4,96.44s28.83,12.54,22.83,45-39,48.63-39,48.63a27.59,27.59,0,0,1-28.81,0s42.31-11.63,58.81-35.63,5-45-15.47-51.9Z" fill="#fff"/>
  <path d="M49.08,108.26s-28.83-12.54-22.83-45,39-48.64,39-48.64a27.57,27.57,0,0,1,28.8,0s-42.3,11.64-58.8,35.64-5,45,15.46,51.9Z" fill="#fff"/>
  <g>
    <path d="M239.43,108.12l.09.26a18.37,18.37,0,0,1-6.05,14.4q-6.21,5.79-16.42,5.8a21.56,21.56,0,0,1-16.9-7.35q-6.53-7.35-6.53-18.65V91.71q0-11.29,6.53-18.67a21.54,21.54,0,0,1,16.9-7.37q10.38,0,16.51,5.52t6,14.64l-.09.25H231.5q0-6.42-3.78-10.16t-10.67-3.74a13,13,0,0,0-11,5.59q-4.12,5.58-4.12,13.85v11q0,8.36,4.12,13.94a13,13,0,0,0,11,5.59q6.88,0,10.67-3.72t3.78-10.27Z" fill="#773079"/>
    <path d="M258.08,127.69h-8.27V62.19h8.27Z" fill="#773079"/>
    <path d="M298.73,127.69c-.28-1.37-.5-2.58-.65-3.63a25.92,25.92,0,0,1-.28-3.17,19.29,19.29,0,0,1-6,5.48,15.44,15.44,0,0,1-8,2.21q-7.09,0-10.81-3.64t-3.72-10a11.77,11.77,0,0,1,5.27-10.19q5.26-3.67,14.3-3.67h9V96.58a8.34,8.34,0,0,0-2.43-6.32c-1.63-1.56-3.92-2.33-6.89-2.33a10,10,0,0,0-6.51,2,6.06,6.06,0,0,0-2.47,4.83l-7.86.09-.08-.26q-.3-4.95,4.64-9.07t12.74-4.11q7.72,0,12.43,3.92t4.71,11.32v21.88a42.07,42.07,0,0,0,.25,4.7,24.09,24.09,0,0,0,.92,4.45Zm-13.73-6a14.73,14.73,0,0,0,8.1-2.31,11,11,0,0,0,4.7-5.29v-7.39h-9.28a12.06,12.06,0,0,0-8,2.52,7.53,7.53,0,0,0-3,5.92,6.21,6.21,0,0,0,1.89,4.78A7.9,7.9,0,0,0,285,121.65Z" fill="#773079"/>
    <path d="M344.5,115.47a5.5,5.5,0,0,0-2.08-4.45c-1.39-1.15-4-2.15-7.87-3q-8-1.73-12.33-4.83a9.74,9.74,0,0,1-4.3-8.31,12,12,0,0,1,4.72-9.49q4.73-4,12.24-4,7.72,0,12.52,4.2T352,95.4l-.08.25H344a7.19,7.19,0,0,0-2.59-5.33,9.21,9.21,0,0,0-6.53-2.39c-2.91,0-5.08.66-6.53,2a6.16,6.16,0,0,0-2.16,4.7,5,5,0,0,0,1.87,4.16c1.25,1,3.81,1.88,7.7,2.69,5.58,1.17,9.8,2.84,12.69,5a10.06,10.06,0,0,1,4.32,8.44,11.94,11.94,0,0,1-4.89,9.86q-4.89,3.82-12.79,3.83-8.68,0-13.69-4.41t-4.74-10.29l.08-.25h7.9c.14,2.94,1.23,5.08,3.27,6.44a12.68,12.68,0,0,0,7.18,2,11.28,11.28,0,0,0,6.91-1.87A5.71,5.71,0,0,0,344.5,115.47Z" fill="#773079"/>
    <path d="M389.47,115.47a5.5,5.5,0,0,0-2.08-4.45c-1.38-1.15-4-2.15-7.87-3q-8-1.73-12.32-4.83a9.75,9.75,0,0,1-4.31-8.31,12,12,0,0,1,4.73-9.49q4.72-4,12.24-4,7.72,0,12.51,4.2T397,95.4l-.09.25H389a7.17,7.17,0,0,0-2.58-5.33,9.23,9.23,0,0,0-6.53-2.39c-2.92,0-5.09.66-6.53,2a6.17,6.17,0,0,0-2.17,4.7A5,5,0,0,0,373,98.76q1.88,1.47,7.71,2.69,8.36,1.76,12.68,5a10.07,10.07,0,0,1,4.33,8.44,12,12,0,0,1-4.9,9.86q-4.89,3.82-12.78,3.83-8.7,0-13.69-4.41t-4.75-10.29l.09-.25h7.89c.14,2.94,1.23,5.08,3.28,6.44a12.63,12.63,0,0,0,7.18,2,11.25,11.25,0,0,0,6.9-1.87A5.71,5.71,0,0,0,389.47,115.47Z" fill="#773079"/>
  </g>
  <g>
    <path d="M406.4,127.69V66.55h20.66q10.79,0,16.84,4.2t6,12.56a13.25,13.25,0,0,1-2.24,7.58,13.64,13.64,0,0,1-6.53,5,12.93,12.93,0,0,1,8.25,5,15,15,0,0,1,2.75,8.94q0,8.77-5.79,13.29T430,127.69Zm12.26-35.52h8.82q4.9,0,7.56-2a6.94,6.94,0,0,0,2.64-5.88c0-2.82-.89-4.91-2.66-6.25s-4.43-2-8-2h-8.4Zm0,8.48v17.6H430q4.86,0,7.43-2.12a7.65,7.65,0,0,0,2.56-6.26q0-4.49-2.18-6.85t-6.89-2.37Z" fill="#773079"/>
    <path d="M473.46,71.38H461.2V62.19h12.26Zm0,56.31H461.2V82.26h12.26Z" fill="#773079"/>
    <path d="M497.23,118.25h22.51v9.44H482v-7.25l21.63-28.73H482.66V82.26H519v7Z" fill="#773079"/>
  </g>
</svg>
