<svg id="All_Logos_outlined" data-name="All Logos outlined" xmlns="http://www.w3.org/2000/svg" xmlns:xlink="http://www.w3.org/1999/xlink" viewBox="0 0 400 320">
  <defs>
    <linearGradient id="linear-gradient" x1="200" y1="16.18" x2="200" y2="174.18" gradientUnits="userSpaceOnUse">
      <stop offset="0" stop-color="#dccfdd"/>
      <stop offset="1" stop-color="#773079"/>
    </linearGradient>
    <linearGradient id="linear-gradient-2" x1="246.86" y1="159.51" x2="173.24" y2="85.89" gradientUnits="userSpaceOnUse">
      <stop offset="0" stop-color="#662861"/>
      <stop offset="0.24" stop-color="#793f7c"/>
      <stop offset="0.5" stop-color="#875090"/>
      <stop offset="0.75" stop-color="#905a9d"/>
      <stop offset="1" stop-color="#935ea1"/>
    </linearGradient>
    <radialGradient id="radial-gradient" cx="116.19" cy="81.72" r="152.35" gradientUnits="userSpaceOnUse">
      <stop offset="0" stop-color="#fff"/>
      <stop offset="1" stop-color="#773079"/>
    </radialGradient>
    <radialGradient id="radial-gradient-2" cx="159.1" cy="96.49" r="89.57" gradientUnits="userSpaceOnUse">
      <stop offset="0.42" stop-color="#fff"/>
      <stop offset="1" stop-color="#773079"/>
    </radialGradient>
    <linearGradient id="linear-gradient-3" x1="230.57" y1="123.69" x2="279.9" y2="173.02" gradientUnits="userSpaceOnUse">
      <stop offset="0" stop-color="#67296a"/>
      <stop offset="0.17" stop-color="#793f7c"/>
      <stop offset="0.51" stop-color="#a677a9"/>
      <stop offset="1" stop-color="#edd0f1"/>
    </linearGradient>
    <linearGradient id="linear-gradient-4" x1="152.49" y1="89.38" x2="122.96" y2="67.33" gradientUnits="userSpaceOnUse">
      <stop offset="0" stop-color="#ae78b7"/>
      <stop offset="0.04" stop-color="#b17dba"/>
      <stop offset="0.7" stop-color="#e9daeb"/>
      <stop offset="1" stop-color="#fff"/>
    </linearGradient>
  </defs>
  <title>classbiz-vertical</title>
  <g>
    <g>
      <path d="M136.6,25.33c-8.6,0-15.6,7.35-15.6,16.39V183.57c0,9,7,16.39,15.6,16.39H263.4c8.6,0,15.6-7.36,15.6-16.39V41.72c0-9-7-16.39-15.6-16.39Z" fill="url(#linear-gradient)"/>
      <path d="M274,183.57c0,6.26-4.73,11.34-10.56,11.34H136.6c-5.83,0-10.56-5.08-10.56-11.34V41.72c0-6.27,4.73-11.35,10.56-11.35H263.4c5.83,0,10.56,5.08,10.56,11.35Z" fill="url(#linear-gradient-2)"/>
      <path d="M263.4,30.37H136.6c-5.83,0-10.56,5.08-10.56,11.35V60.47c19.54,38.27,63.27,64.92,114.08,64.92A141.46,141.46,0,0,0,274,121.32V41.72C274,35.45,269.23,30.37,263.4,30.37Z" opacity="0.55" fill="url(#radial-gradient)"/>
      <path d="M139.22,115.9a61.89,61.89,0,1,1,61.89,61.89A61.88,61.88,0,0,1,139.22,115.9Z" opacity="0.24" fill="url(#radial-gradient-2)"/>
      <path d="M266.37,37.31v137.8c0,6.27-4.81,11.35-10.74,11.35H171.31a9.71,9.71,0,0,0,7.77,4H260c5.52,0,10-4.8,10-10.73V45.56A11.06,11.06,0,0,0,266.37,37.31Z" opacity="0.25" fill="url(#linear-gradient-3)"/>
      <path d="M132.85,187.46V49.67c0-6.27,4.81-11.36,10.74-11.36h90.83a9.77,9.77,0,0,0-7.78-4H139.25c-5.52,0-10,4.81-10,10.74V179.22A11,11,0,0,0,132.85,187.46Z" opacity="0.25" fill="url(#linear-gradient-4)"/>
    </g>
    <path d="M251.22,94.44c-.6-1.46-1.08-3.88-2-6.73l.48-.49s-1.18-3.08-2.35-5.56-2.05-5.46-3.61-7.21c-.75-.85-3.27-1.76-4.51-2.28-1.7-.73-3.3-1.36-3.3-1.36L234.77,69a2.15,2.15,0,0,0-1.62-1,1.72,1.72,0,0,1-.52-1.06c0-.6.37-.13.59-1.21s.31-1.92.53-3-.16-1.43-.18-2.27,0-2,0-2a3.34,3.34,0,0,0-.53-1.66c-.51-.71.22-1.08.32-1.8l.1-.72-1.24-.57s-.4-1.43-2.61-1.37-7.47,1.1-8.26,3.87-.62,4.68.15,5.86c0,0,.29,2,1.53,2.35a8.15,8.15,0,0,1,.8,2.5c0,1-.05,2.87-.05,2.87a1.45,1.45,0,0,0-1.46,1,3.23,3.23,0,0,0-.14.54,31.45,31.45,0,0,0-5.6,3.71c-1.13,1.07-2,1.63-2.08,2.6-3.33-5.58-3.16-7.5-7.07-7.86-.29,0-6.18-1-7.86-1-2.05,0-2.61-1.23-2.8-3.34l-.19-2.11s.94.18,1.31-1.58.38-2.82-.56-2.64c0,0,.37-4.31-.75-5.9a5.37,5.37,0,0,0-2.78-2s-2.43-2.08-7.16.14c-3.27,1.53-3.8,6.28-3.07,7,.4.4.85,3.22,1.23,4.27s.56,3,1.87,4.4,2.06,2.11,3,2.11.94,2.82.94,2.82a13.46,13.46,0,0,1-4.31,3.34c-2.16,1-3.42,1.55-3.91,3.68a4,4,0,0,0-1.6-.89,39.88,39.88,0,0,1-5-2c-.18-.27-.55-.83-1-1.66-.66-1.2-.09-2.13.95-4.71s.28-4.8.47-7.39-3.31-6.92-7-4.8c0,0-3.59-1.2-5.38,3.79a41,41,0,0,0-2.46,9.87c-.48,3-.36,2.4-1.59,4s-2.23,1.4-3,3.41a3,3,0,0,0-.37.79A33.75,33.75,0,0,0,155,86.65c0,2.1-.45,3.5-1.17,6.65s-3.22,6.29-4.56,11.89-3.23,6.91-3.85,11.45.44,5.43,1.61,8.92c0,0,.36.7.89,2s1.08,2.63,2.51,2.1,1.61-1.13,1.61-1.13l5-1.55a75.78,75.78,0,0,0,1,10.72,33.46,33.46,0,0,1,4.33.86c.35,1.15.65,1.44.47,2.64s-.39,2.69,1.18,6.73,1.18,5.58,1.77,7.88,1.19,2.5,1.19,3.85-.4,1-.4,2.3a4.8,4.8,0,0,0,.59,2.31s-2.75,2.5-4.92,4.62.2,3.07,3.15,2.49,4.73-3.46,5.91-3.46a6.38,6.38,0,0,0,1.77-.19,16.72,16.72,0,0,0,.2-3.65,23.78,23.78,0,0,1-.2-4.42c0-2.5-1.58-10.38-1.58-10.38a74.34,74.34,0,0,0,2.17,7.88c1.18,3.27.59,3.65.59,6.34s.39,4.23.39,5.39-.78,2.68-2.95,5.38.2,3.46,2.17,3.46a7.42,7.42,0,0,0,5.51-3.08c1.58-1.92,1.77-1.15,1.77-2.11a18.32,18.32,0,0,0-1-3.65l.79-.39s0-4,.19-7.5-.59-4.8-1.18-7.69a86,86,0,0,0-3.74-13.07,10.53,10.53,0,0,1-.59-2.12,50.61,50.61,0,0,1,4.85-1.88s-2-9.2-1.08-13.49.74-3.49.74-3.49,1.34-.53,2.82-3.54c.47-1-.79-2.15.29-4.16.64-1.21,1.57-2.89,2.28-4.51a54.19,54.19,0,0,0-.4,5.6s.56,4.22.19,5.8,0,7.74,1.12,10.91a38.82,38.82,0,0,1,.9,4.34c.32,1,.59,2,.82,3a15.29,15.29,0,0,0,.59,1.93l.06.27h0c.64,1.56,1.43,2.76,2.22,4.52,1.13,2.5-.45,4.23,1.13,8.66s1.35,8.65,2.47,10.38-1.12,1.92-1.12,2.88.9,1.35.22,1.73-3.59,2.69-5.17,3.27c-1.14.42-3.52,1-3.6,2.53s2.05,1.33,3.38,1.51c2.92.38,5.84-1.35,8.54-1.73s5,.19,5.4-.39,1.12-4,.22-4.23-.45-1.15.23-1.73.9-1,0-2.88-.45-1.73-.45-4.81a43.46,43.46,0,0,0-.9-7.3,19.35,19.35,0,0,1,2.25,8.65,27.16,27.16,0,0,0,1.8,8.26,4.44,4.44,0,0,1,.22,2.89,4.75,4.75,0,0,0,.22,1.31c.22.76-3.49,4.22-5.49,6.17-1.28,1.25,4.16,2.43,6.32.81,4.07-3.06,8-3,8.65-4.55s.51-1.68-.17-2.65-.9-.77-.22-1.73.67-1.73-.45-2.69-.23-1-.45-1.92-.09,1-.31-5.33-2-12.88-3.15-15.18,0-2.31-.67-3.27a2.37,2.37,0,0,1-.23-2.69,2.6,2.6,0,0,0,.17-.49H210c0-.07,0-.14-.05-.2a9.15,9.15,0,0,0-.66-3.35,16.92,16.92,0,0,1-.6-3.88c.23-1.69.94-3.88.94-5.31a55.16,55.16,0,0,1,5.26-7.49c2.1,7.52,1.61,7.61,1.5,11.2l-.11,10.64a19.93,19.93,0,0,0-.35,2.75,84.56,84.56,0,0,0,.32,14.08c.5,3.1,1.05,5.25.13,5.59s.07,2.7.07,2.7,1.29,1,.37,5.22,2.66,4.76,6.29,4.39,2.11-5.28,1.06-6.69a4.32,4.32,0,0,1-1-2.63l1-1a2,2,0,0,0,.67-1.79c-.16-1.17-1-1.55-.67-2.88s.12-6,.92-8.23.82-6.31,1-9.19,1.65-9,1.66-13a27.12,27.12,0,0,1,.6-5,22.18,22.18,0,0,1,1.71,5.23c0,1.33,1.08,6.45,1.4,8.77.18,3.63.25,7.75.32,10.58.1,4.23.5,10-.19,11.38A2.75,2.75,0,0,0,232,164a10.65,10.65,0,0,1,.89,1.48c-.26,1.95-.29,4.26,1.48,4.14a4.26,4.26,0,0,1,3.86,1.67c.87,1.1,3.06,1.34,5.61,1.17a2.07,2.07,0,0,0,.91-3.92c-1.62-.66-2.11-2-3.34-2.67s-2.48-1.56-2.48-1.56l.06-.58.67-.24a5.83,5.83,0,0,0,0-2.89,7,7,0,0,1-1.25-3.77,59.17,59.17,0,0,1,1.61-8c.47-1.77-.62-3.23-.26-9.43,0-.13,0-.27,0-.41h0l0-.21c.09-1.5.18-3.24.28-5l-.06-.05a12.37,12.37,0,0,0,.23-3.6c-.32-3-.54-6.81-.57-7.88a16.77,16.77,0,0,1,.53-3.25s3.11-2.82,3.83-3.44a2.77,2.77,0,0,0,1-2.89c-.28-1.43-.3-2.39,3.09-8.57S251.48,95.07,251.22,94.44Zm-70.49,13.64c-.36,2.71-1.08,2.79-1.08,2.79.27-5.07-2-9.09-2.5-10.67s0-5,.89-7.08A16,16,0,0,0,179.12,90c0,1.49,1.61,6.48,2,8.31a32.51,32.51,0,0,1,.44,4C180.82,104.66,181.09,105.36,180.73,108.08Zm5.68-8.1c0-.21,0-.43,0-.65l.07,0S186.43,99.55,186.41,100Zm22.28-4a30.68,30.68,0,0,1,.56-5.81,9.36,9.36,0,0,0-.19-4.57c3.56,5.28,3.37,4.93,2.81,5.81S208.69,96,208.69,96Zm3.23,9.84c-.52-1.14-1-2.22-1.36-3.16l-.37-.88s1.57-1.06,3.3-2.42a17.85,17.85,0,0,0,.08,2.2C213.76,103.66,212.76,104.29,211.92,105.8Zm31.66-6.63c-.54,2.25-.63,7.36-1.43,9.53s-1.79,2.08-1.79,2.08a19.18,19.18,0,0,0-.16-6.22c-.67-2.5-.61-4.89-.92-7.28a19.79,19.79,0,0,1,.3-7.54,12.86,12.86,0,0,0,.37-4.68,45.48,45.48,0,0,0,2.33,4.65l.62.43a27,27,0,0,0,2.06,4C245.72,95.09,244.54,95.2,243.58,99.17Z" fill="#fff"/>
    <path d="M243.35,106.44s28.83,12.54,22.83,45-39,48.63-39,48.63a27.59,27.59,0,0,1-28.81,0s42.31-11.63,58.81-35.63,5-45-15.47-51.9Z" fill="#fff"/>
    <path d="M155,119.26s-28.83-12.54-22.83-45,39-48.64,39-48.64a27.57,27.57,0,0,1,28.8,0s-42.3,11.64-58.8,35.64-5,45,15.46,51.9Z" fill="#fff"/>
  </g>
  <g>
    <g>
      <path d="M83.09,276.59l.09.25q-.81,9.2-6.56,14.47t-15.41,5.27a20.55,20.55,0,0,1-16.46-7.37q-6.26-7.38-6.25-19.09v-9.95q0-11.67,6.25-19.09a20.49,20.49,0,0,1,16.46-7.41q9.75,0,15.46,5.17t6.51,14.53l-.09.25h-4.7q-1-7.6-5.23-11.63t-11.95-4a15.54,15.54,0,0,0-12.87,6.21q-4.85,6.22-4.85,15.91v10q0,9.81,4.85,16a15.54,15.54,0,0,0,12.87,6.19q7.73,0,12-3.93t5.21-11.77Z" fill="#773079"/>
      <path d="M100.35,295.69h-5v-65.5h5Z" fill="#773079"/>
      <path d="M143,295.69c-.33-1.54-.57-2.87-.71-4a27.23,27.23,0,0,1-.21-3.4,20,20,0,0,1-6.72,5.92,19,19,0,0,1-9.45,2.36q-6.63,0-10.3-3.53a12.49,12.49,0,0,1-3.68-9.45,11.7,11.7,0,0,1,5.44-10.08q5.43-3.78,14.67-3.78h10v-5.62a9.69,9.69,0,0,0-3.13-7.65c-2.08-1.84-5-2.77-8.75-2.77a13.92,13.92,0,0,0-8.72,2.65,7.88,7.88,0,0,0-3.46,6.46l-4.62,0-.08-.25q-.26-5.08,4.64-9.09t12.45-4q7.52,0,12.09,3.82t4.58,11v22.34a39.31,39.31,0,0,0,.27,4.66,29,29,0,0,0,.9,4.49Zm-16.5-3.57a18,18,0,0,0,9.58-2.54,15,15,0,0,0,6-6.48v-9.49H132q-6.84,0-10.94,2.91t-4.09,7.25a7.77,7.77,0,0,0,2.54,6A10,10,0,0,0,126.51,292.12Z" fill="#773079"/>
      <path d="M187.69,284.12a7.31,7.31,0,0,0-2.62-5.57q-2.62-2.39-9.47-3.89-8.15-1.77-12-4.67a9.6,9.6,0,0,1-3.88-8.18,11,11,0,0,1,4.38-8.8q4.4-3.58,11.61-3.59,7.69,0,12.18,3.8a11.34,11.34,0,0,1,4.29,9.51l-.09.25H187.4a8.43,8.43,0,0,0-3.17-6.51,12.56,12.56,0,0,0-8.55-2.77q-5.49,0-8.25,2.36a7.13,7.13,0,0,0-2.75,5.54,6.53,6.53,0,0,0,2.38,5.18q2.37,2,9.46,3.59,8.11,1.81,12.14,4.95a10.24,10.24,0,0,1,4,8.53,11.06,11.06,0,0,1-4.6,9.21q-4.59,3.51-12.15,3.52-8.28,0-13-3.95t-4.47-9.41l.08-.25h4.62a8.29,8.29,0,0,0,4,7.11,16.86,16.86,0,0,0,8.76,2.21c3.64,0,6.51-.79,8.6-2.39A7.05,7.05,0,0,0,187.69,284.12Z" fill="#773079"/>
      <path d="M231.49,284.12a7.31,7.31,0,0,0-2.62-5.57q-2.62-2.39-9.47-3.89-8.15-1.77-12-4.67a9.61,9.61,0,0,1-3.89-8.18,11,11,0,0,1,4.39-8.8q4.4-3.58,11.61-3.59c5.13,0,9.18,1.26,12.18,3.8a11.33,11.33,0,0,1,4.28,9.51l-.08.25H231.2a8.43,8.43,0,0,0-3.17-6.51,12.58,12.58,0,0,0-8.55-2.77q-5.5,0-8.25,2.36a7.13,7.13,0,0,0-2.75,5.54,6.56,6.56,0,0,0,2.37,5.18q2.37,2,9.47,3.59,8.1,1.81,12.14,4.95a10.24,10.24,0,0,1,4,8.53,11.06,11.06,0,0,1-4.6,9.21q-4.59,3.51-12.16,3.52-8.26,0-13-3.95t-4.47-9.41l.08-.25H207a8.27,8.27,0,0,0,4,7.11,16.83,16.83,0,0,0,8.75,2.21c3.64,0,6.51-.79,8.61-2.39A7.05,7.05,0,0,0,231.49,284.12Z" fill="#773079"/>
    </g>
    <g>
      <path d="M250.69,295.69V234.55h20.66q10.78,0,16.84,4.2t6,12.56a13.32,13.32,0,0,1-2.24,7.58,13.64,13.64,0,0,1-6.53,5,13,13,0,0,1,8.25,5,15.07,15.07,0,0,1,2.75,8.95q0,8.78-5.8,13.29t-16.42,4.51ZM263,260.17h8.82q4.91,0,7.56-2a6.94,6.94,0,0,0,2.64-5.88c0-2.82-.89-4.91-2.67-6.25s-4.43-2-7.95-2H263Zm0,8.48v17.6h11.29q4.88,0,7.44-2.12a7.68,7.68,0,0,0,2.56-6.26q0-4.49-2.19-6.85c-1.45-1.58-3.75-2.37-6.88-2.37Z" fill="#773079"/>
      <path d="M317.75,239.38H305.49v-9.19h12.26Zm0,56.31H305.49V250.26h12.26Z" fill="#773079"/>
      <path d="M341.52,286.25H364v9.44H326.27v-7.25l21.63-28.73h-21v-9.45h36.37v7Z" fill="#773079"/>
    </g>
  </g>
</svg>
