<svg id="All_Logos_outlined" data-name="All Logos outlined" xmlns="http://www.w3.org/2000/svg" xmlns:xlink="http://www.w3.org/1999/xlink" viewBox="0 0 400 350">
  <defs>
    <linearGradient id="linear-gradient" x1="200.76" y1="32.5" x2="200.76" y2="190.5" gradientUnits="userSpaceOnUse">
      <stop offset="0.01" stop-color="#e7cee1"/>
      <stop offset="1" stop-color="#ab1380"/>
    </linearGradient>
    <linearGradient id="linear-gradient-2" x1="247.62" y1="175.83" x2="174" y2="102.21" gradientUnits="userSpaceOnUse">
      <stop offset="0" stop-color="#bc1a8c"/>
      <stop offset="0.12" stop-color="#c23798"/>
      <stop offset="0.3" stop-color="#ca5ca6"/>
      <stop offset="0.48" stop-color="#d179b2"/>
      <stop offset="0.66" stop-color="#d58dba"/>
      <stop offset="0.83" stop-color="#d89abf"/>
      <stop offset="1" stop-color="#d99ec1"/>
    </linearGradient>
    <radialGradient id="radial-gradient" cx="116.95" cy="97.62" r="152.26" gradientUnits="userSpaceOnUse">
      <stop offset="0" stop-color="#fff"/>
      <stop offset="1" stop-color="#b62489"/>
    </radialGradient>
    <radialGradient id="radial-gradient-2" cx="159.85" cy="112.82" r="89.58" gradientTransform="translate(10.38 -14.63) rotate(4.26)" gradientUnits="userSpaceOnUse">
      <stop offset="0.42" stop-color="#fff"/>
      <stop offset="1" stop-color="#bc1a8c"/>
    </radialGradient>
    <linearGradient id="linear-gradient-3" x1="231.33" y1="140.01" x2="280.66" y2="189.35" gradientUnits="userSpaceOnUse">
      <stop offset="0.01" stop-color="#bc1a8c"/>
      <stop offset="1" stop-color="#f7bdd6"/>
    </linearGradient>
    <linearGradient id="linear-gradient-4" x1="153.25" y1="105.71" x2="123.72" y2="83.66" gradientUnits="userSpaceOnUse">
      <stop offset="0" stop-color="#d365a5"/>
      <stop offset="0.16" stop-color="#df8fbe"/>
      <stop offset="0.34" stop-color="#eab7d5"/>
      <stop offset="0.52" stop-color="#f3d6e7"/>
      <stop offset="0.69" stop-color="#faedf4"/>
      <stop offset="0.85" stop-color="#fefafc"/>
      <stop offset="1" stop-color="#fff"/>
    </linearGradient>
  </defs>
  <title>dancebiz-vertical</title>
  <g>
    <path d="M137.36,41.66c-8.6,0-15.6,7.35-15.6,16.39V199.89c0,9,7,16.39,15.6,16.39H264.15c8.61,0,15.61-7.35,15.61-16.39V58.05c0-9-7-16.39-15.61-16.39Z" fill="url(#linear-gradient)"/>
    <path d="M274.72,199.89c0,6.27-4.73,11.35-10.57,11.35H137.36c-5.83,0-10.56-5.08-10.56-11.35V58.05c0-6.27,4.73-11.35,10.56-11.35H264.15c5.84,0,10.57,5.08,10.57,11.35Z" fill="url(#linear-gradient-2)"/>
    <path d="M264.15,46.7H137.36c-5.83,0-10.56,5.08-10.56,11.35V78.19c15.74,27.63,45.91,50.16,83.77,58.95a139.25,139.25,0,0,0,64.15.1V58.05C274.72,51.78,270,46.7,264.15,46.7Z" fill="url(#radial-gradient)"/>
    <circle cx="201.87" cy="132.23" r="61.89" transform="translate(-9.27 15.36) rotate(-4.26)" opacity="0.24" fill="url(#radial-gradient-2)"/>
    <path d="M267.12,53.64v137.8c0,6.27-4.8,11.35-10.73,11.35H172.06a9.75,9.75,0,0,0,7.78,4h80.88c5.53,0,10-4.8,10-10.73V61.88A11,11,0,0,0,267.12,53.64Z" opacity="0.25" fill="url(#linear-gradient-3)"/>
    <path d="M133.61,203.79V66c0-6.27,4.8-11.36,10.74-11.36h90.83a9.75,9.75,0,0,0-7.78-4H140c-5.52,0-10,4.81-10,10.74V195.55A11,11,0,0,0,133.61,203.79Z" opacity="0.25" fill="url(#linear-gradient-4)"/>
    <path d="M121.27,179.55S120.8,152.73,141.6,142c27.06-14,70.94-9.24,96.43-42.43,19.86-25.84,6.13-58,6.13-58s-3.62-3.5-8.87,0c0,0,9,14,7.47,37-.94,14.63-14.34,41.84-60.51,47.79-41.6,5.37-57.67,15.12-61.45,27.8C120.8,154.19,116.07,163.46,121.27,179.55Z" fill="#fff"/>
    <g>
      <path d="M160.47,130.94c.33.06.37,2.19.75,2.25-6,8.25-2.25,12.75-9.84,35.4-3.77,11.24-12,34.66-15.66,47.85a4.28,4.28,0,0,0,5.92-.16s5.16-9.77,7.4-11.66c6-5.05,1.21-11.85,2.34-14.91,4.6-12.42,5.23-12.62,10.46-21.53a62.27,62.27,0,0,0,7.65-19.68,62.48,62.48,0,0,1,3.58-11.11c.39,0,.77-.08,1.15-.12C170,135.28,166.37,130.22,160.47,130.94Z" fill="#fff"/>
      <path d="M223.18,55.11a1.23,1.23,0,0,1,.24-.28Zm-1.06,1.33a1.35,1.35,0,0,1,.18-.33S222.22,56.24,222.12,56.44Zm43,107.63a74.29,74.29,0,0,1-8.7-1.83c-8.71-2.91-15.37-10.14-23.19-14.69-8-4.65-8.72-3.57-12.64-6.41a100,100,0,0,1-7.93-7.11,4.71,4.71,0,0,1,3.92-.37s-11.12-11.59-16.14-16.22c-6.25-5.75-12.2-7.5-14.47-8.62-3-1.48-1.14-5.46,1.28-8.78l.86-.59c3.94-2.65,7.13-5.38,8.82-7.77,1.59-1.26,3.09-2.89,5.32-4.54.4-.29.78-.55,1.16-.79.29,5,8.33,8,8.33,8-6.64-5-4.14-8.33-4.14-8.33,5.93,13.82,23.64,10.14,23.64,10.14-16.78,2.16-19.63-6.65-17.83-10.29a23.53,23.53,0,0,1,1.45-2.43l.67-.07c-2.54,3.94.2,6.68.2,6.68-2.27-3.28,1.09-6.23,1.09-6.23-2.48,9.24,6.56,10,6.56,10-8.14-2.2-5.26-8.22-4.44-9.66,0,.1,0,.2,0,.31a4,4,0,0,0,.76,3.11c2,4.42,9.14,5.26,9.14,5.26-5.7-1.12-7.27-4.27-7.7-5.87.32-2.69,3.25-4.87,3.88-5.31,4.21-1.16,6.93-2.44,11-2.81A68,68,0,0,0,255.74,74c7.57-3.07,11.39-4.4,13.45-4.67s1.5.23,2,2.47,2.55,3,4.3,5.74c1.27,2,3.44,2.28,2.69,1.33S276,74.92,277,74.37s2.87,2.7,2.74,5.95c2.25-2.88,1.69-8.67-.39-10.45-4.24-3.64-7.89-5.9-10.93-5.09s-18.51,2.8-25.94,3.76c-6.42.83-9.1,2.74-13.67,2.94a12.21,12.21,0,0,0,.05-7.2A8.85,8.85,0,0,0,225.22,59c-.88-.71-2.86-2.52-2.07-3.8a2.64,2.64,0,0,0-.57,2.45l.07.18-.41-.14a1.33,1.33,0,0,1-.14-1.16,3.55,3.55,0,0,0-.33,1l-.25-.08s-1.83.44-2.76-.28-2.61-1.27-3.44-2.28-1.06.42-1.61.49a5.58,5.58,0,0,1-1.41-.1s-.78-.6-1.12,0-.24.31-.59-.21-.67.23-1.22.3a2,2,0,0,1-1.43-.24c-.74-.32-1.61.49-1.83,2.06-.17,1.21-1,2.83-3.29,4.22-.72.29-1.53.66-2.38,1.1l-.07,0c-2.29,1.18-4.83,2.73-6.66,3.89a38.42,38.42,0,0,0-8-3.76c-5.92-2-11.43-5.66-13.37-7.71s-5.69-5.14-13-9.45c-3.63-2.15-6-3.68-7.5-4.68-3.89-2.21-9.79-4.37-17.53,1.14,2.15-.4,10.06-.21,10.06-.21,1.65-.07,2.83.7,8.32,5.87s11.43,12.16,20.73,17.67a39.28,39.28,0,0,1,8.74,6.63c-1.74,1.22-5.23,1.21-7.44,1.8-3,.81-6.06,1.83-6.25,5.21-.16,2.7.36,6-2.25,11.82a53.46,53.46,0,0,0-3.71,14.56c-.17.71-.37,1.48-.6,2.35-1.37,5.15-1.18,14.1-5.31,20.3A52.14,52.14,0,0,0,150,141.28c3.33-2,5.88-.81,10.73-1,6.91-.22,13.41,5.44,20.41,6.49a38,38,0,0,0,10.54.3c1.81-.23,8.91-3.62,9.95-3.22,3.82,1.49,10.71,6.38,14.26,7.58,6.75,2.26,12.71,5.69,19.36,8a182.57,182.57,0,0,1,27.6,11.76,79,79,0,0,0,17,7.18,9.21,9.21,0,0,0,0-9.43A54.22,54.22,0,0,0,265.15,164.07Z" fill="#fff"/>
    </g>
  </g>
  <g>
    <g>
      <path d="M27,310.69V249.55H44.74q11.2,0,18.52,7.48t7.3,19.19v7.85q0,11.76-7.3,19.19t-18.52,7.43Zm5-56.85v52.57H44.74a19.4,19.4,0,0,0,14.92-6.34q5.87-6.33,5.86-16v-8a22.49,22.49,0,0,0-5.88-15.9,19.45,19.45,0,0,0-14.9-6.33Z" fill="#bd1a8d"/>
      <path d="M107.35,310.69c-.34-1.54-.57-2.87-.71-4a27.23,27.23,0,0,1-.21-3.4,20,20,0,0,1-6.72,5.92,19,19,0,0,1-9.45,2.36q-6.63,0-10.31-3.53a12.48,12.48,0,0,1-3.67-9.45,11.71,11.71,0,0,1,5.43-10.08q5.45-3.78,14.68-3.78h10v-5.62a9.72,9.72,0,0,0-3.13-7.65c-2.09-1.84-5-2.77-8.76-2.77a13.89,13.89,0,0,0-8.71,2.65,7.9,7.9,0,0,0-3.47,6.46l-4.61,0-.09-.25q-.25-5.08,4.64-9.09t12.45-4q7.52,0,12.1,3.82t4.57,11v22.34a37.39,37.39,0,0,0,.28,4.66,29,29,0,0,0,.9,4.49Zm-16.5-3.57a17.92,17.92,0,0,0,9.57-2.54,15.1,15.1,0,0,0,6-6.48v-9.49H96.31q-6.86,0-10.94,2.91c-2.73,2-4.1,4.36-4.1,7.25a7.8,7.8,0,0,0,2.54,6A10,10,0,0,0,90.85,307.12Z" fill="#bd1a8d"/>
      <path d="M129.27,265.26l.46,7.93a16.2,16.2,0,0,1,5.9-6.48,16.41,16.41,0,0,1,8.8-2.29q7.4,0,11.25,4.51T159.55,283v27.67h-5V283q0-7.83-2.92-11.07t-8.29-3.24a12.94,12.94,0,0,0-8.63,2.8,15.56,15.56,0,0,0-4.81,7.43v31.76h-5V265.26Z" fill="#bd1a8d"/>
      <path d="M189.53,307.29a14.42,14.42,0,0,0,8.82-2.84,9.32,9.32,0,0,0,3.82-7.91h4.45l.08.25a12.45,12.45,0,0,1-5,10.54,18.73,18.73,0,0,1-12.13,4.25q-9.28,0-14.34-6.37t-5.06-16.35v-1.77q0-9.9,5.08-16.29t14.28-6.38a18.09,18.09,0,0,1,12.45,4.41,14.29,14.29,0,0,1,4.81,11.59l-.09.25h-4.49a11.06,11.06,0,0,0-3.68-8.71,13.09,13.09,0,0,0-9-3.26q-7.31,0-10.82,5.22t-3.5,13.15v1.77q0,8.06,3.48,13.25T189.53,307.29Z" fill="#bd1a8d"/>
      <path d="M234.29,311.58a18.24,18.24,0,0,1-14.17-6.3q-5.66-6.3-5.65-16V287q0-9.74,5.61-16.17a17.4,17.4,0,0,1,13.58-6.42q8.35,0,13.15,5.29t4.78,14.11v4.28H219.51v1.22a20.07,20.07,0,0,0,4.07,12.82,13,13,0,0,0,10.71,5.15,21.92,21.92,0,0,0,8-1.3,15.77,15.77,0,0,0,5.67-3.74l2.14,3.45a18,18,0,0,1-6.48,4.28A24.69,24.69,0,0,1,234.29,311.58Zm-.63-42.88A12,12,0,0,0,224.3,273a18.28,18.28,0,0,0-4.41,10.66l.08.21H246.6v-1.26a14.48,14.48,0,0,0-3.49-9.88A11.92,11.92,0,0,0,233.66,268.7Z" fill="#bd1a8d"/>
    </g>
    <g>
      <path d="M264.69,310.69V249.55h20.66q10.78,0,16.83,4.2t6.05,12.56a13.32,13.32,0,0,1-2.24,7.58,13.64,13.64,0,0,1-6.53,5,13,13,0,0,1,8.25,5,15.07,15.07,0,0,1,2.75,8.95q0,8.78-5.8,13.29t-16.42,4.51ZM277,275.17h8.82q4.91,0,7.56-2a6.94,6.94,0,0,0,2.64-5.88c0-2.82-.89-4.91-2.67-6.25s-4.43-2-7.95-2H277Zm0,8.48v17.6h11.29q4.88,0,7.44-2.12a7.68,7.68,0,0,0,2.56-6.26q0-4.49-2.19-6.85c-1.45-1.58-3.75-2.37-6.88-2.37Z" fill="#bd1a8d"/>
      <path d="M331.75,254.38H319.49v-9.19h12.26Zm0,56.31H319.49V265.26h12.26Z" fill="#bd1a8d"/>
      <path d="M355.51,301.25H378v9.44H340.27v-7.25l21.63-28.73h-21v-9.45h36.37v7Z" fill="#bd1a8d"/>
    </g>
  </g>
</svg>
