<svg id="All_Logos_outlined_copy" data-name="All Logos outlined copy" xmlns="http://www.w3.org/2000/svg" xmlns:xlink="http://www.w3.org/1999/xlink" viewBox="0 0 570 205.12">
  <defs>
    <linearGradient id="linear-gradient" x1="94" y1="5.88" x2="94" y2="164.23" gradientTransform="matrix(1, 0, 0, -1, 0, 203.07)" gradientUnits="userSpaceOnUse">
      <stop offset="0.01" stop-color="#e7cee1"/>
      <stop offset="1" stop-color="#ab1380"/>
    </linearGradient>
    <linearGradient id="linear-gradient-2" x1="140.92" y1="149.48" x2="67.22" y2="75.77" gradientTransform="matrix(1, 0, 0, -1, 0, 203.07)" gradientUnits="userSpaceOnUse">
      <stop offset="0" stop-color="#bc1a8c"/>
      <stop offset="0.12" stop-color="#c23798"/>
      <stop offset="0.3" stop-color="#ca5ca6"/>
      <stop offset="0.48" stop-color="#d179b2"/>
      <stop offset="0.66" stop-color="#d58dba"/>
      <stop offset="0.83" stop-color="#d89abf"/>
      <stop offset="1" stop-color="#d99ec1"/>
    </linearGradient>
    <radialGradient id="radial-gradient" cx="10.19" cy="71.21" r="152.26" gradientTransform="matrix(1, 0, 0, -1, 0, 203.29)" gradientUnits="userSpaceOnUse">
      <stop offset="0" stop-color="#fff"/>
      <stop offset="1" stop-color="#b62489"/>
    </radialGradient>
    <radialGradient id="radial-gradient-2" cx="53.1" cy="86.41" r="89.58" gradientTransform="matrix(1, 0, 0, -1, 0, 203.29)" gradientUnits="userSpaceOnUse">
      <stop offset="0.42" stop-color="#fff"/>
      <stop offset="1" stop-color="#bc1a8c"/>
    </radialGradient>
    <linearGradient id="linear-gradient-3" x1="124.55" y1="113.58" x2="173.99" y2="163.02" gradientTransform="matrix(1, 0, 0, -1, 0, 203.07)" gradientUnits="userSpaceOnUse">
      <stop offset="0.01" stop-color="#bc1a8c"/>
      <stop offset="1" stop-color="#f7bdd6"/>
    </linearGradient>
    <linearGradient id="linear-gradient-4" x1="46.5" y1="79.3" x2="16.9" y2="57.2" gradientTransform="matrix(1, 0, 0, -1, 0, 203.07)" gradientUnits="userSpaceOnUse">
      <stop offset="0" stop-color="#d365a5"/>
      <stop offset="0.16" stop-color="#df8fbe"/>
      <stop offset="0.34" stop-color="#eab7d5"/>
      <stop offset="0.52" stop-color="#f3d6e7"/>
      <stop offset="0.69" stop-color="#faedf4"/>
      <stop offset="0.85" stop-color="#fefafc"/>
      <stop offset="1" stop-color="#fff"/>
    </linearGradient>
  </defs>
  <title>dancebiz-horizontal-r</title>
  <g>
    <path d="M30.61,188C22,188,15,180.64,15,171.58V29.43C15,20.38,22,13,30.61,13H157.4C166,13,173,20.38,173,29.43V171.58c0,9.06-7,16.43-15.61,16.43Z" fill="url(#linear-gradient)"/>
    <path d="M168,29.43c0-6.28-4.72-11.37-10.56-11.37H30.61C24.77,18.06,20,23.15,20,29.43V171.58C20,177.86,24.77,183,30.61,183H157.4c5.84,0,10.56-5.1,10.56-11.38Z" fill="url(#linear-gradient-2)"/>
    <path d="M157.4,183H30.61C24.77,183,20,177.86,20,171.58V151.4C35.78,123.71,66,101.13,103.81,92.32a139,139,0,0,1,64.15-.1v79.36C168,177.86,163.24,183,157.4,183Z" fill="url(#radial-gradient)"/>
    <ellipse cx="95.11" cy="97.24" rx="61.89" ry="62.02" opacity="0.24" fill="url(#radial-gradient-2)"/>
    <path d="M160.37,176V37.91c0-6.29-4.81-11.38-10.74-11.38H65.31a9.7,9.7,0,0,1,7.78-4H154c5.52,0,10,4.81,10,10.76V167.74A11,11,0,0,1,160.37,176Z" opacity="0.25" fill="url(#linear-gradient-3)"/>
    <path d="M26.85,25.52v138.1c0,6.28,4.81,11.38,10.74,11.38h90.83a9.73,9.73,0,0,1-7.78,4H33.25c-5.52,0-10-4.82-10-10.76V33.78A11.1,11.1,0,0,1,26.85,25.52Z" opacity="0.25" fill="url(#linear-gradient-4)"/>
  </g>
  <path d="M14.52,50S14,76.83,34.84,87.56c27.07,14,70.94,9.23,96.44,42.43,19.85,25.84,6.13,58,6.13,58s-3.63,3.5-8.88,0c0,0,9-14,7.48-37-.95-14.63-14.35-41.84-60.51-47.8C33.9,97.8,17.83,88.05,14,75.37,14,75.37,9.32,66.1,14.52,50Z" fill="#fff"/>
  <g>
    <path d="M53.72,98.61c.32-.06.36-2.18.75-2.25-6-8.25-2.25-12.75-9.84-35.39C40.86,49.72,32.59,26.31,29,13.11a4.27,4.27,0,0,1,5.91.17S40,23.05,42.29,24.93c6,5.06,1.2,11.86,2.34,14.92,4.6,12.42,5.23,12.62,10.45,21.52a62.67,62.67,0,0,1,7.66,19.69,61.94,61.94,0,0,0,3.58,11.11c.38,0,.76.08,1.14.12C63.27,94.28,59.62,99.34,53.72,98.61Z" fill="#fff"/>
    <path d="M116.66,174.73a1.55,1.55,0,0,1-.24-.28Zm-1.12-1.29a1.45,1.45,0,0,1-.18-.32A3.27,3.27,0,0,0,115.54,173.44ZM173.09,60.6a9.19,9.19,0,0,0,0-9.43,79,79,0,0,0-17,7.18,182.68,182.68,0,0,1-27.61,11.76c-6.65,2.29-12.6,5.72-19.35,8-3.55,1.19-10.45,6.09-14.27,7.57-1,.41-8.14-3-9.94-3.21a38.45,38.45,0,0,0-10.55.29c-7,1.06-13.5,6.71-20.41,6.5-4.85-.16-7.39,1-10.72-1a52.22,52.22,0,0,0,6.66,13.33c4.14,6.21,3.94,15.16,5.31,20.31.24.87.43,1.64.6,2.35a54.19,54.19,0,0,0,3.71,14.56c2.61,5.78,2.1,9.12,2.25,11.82C62,154,65,155.05,68,155.86c2.21.59,5.7.58,7.45,1.8a39.85,39.85,0,0,1-8.74,6.63C57.4,169.8,51.46,176.8,46,182s-6.67,5.93-8.33,5.87c0,0-7.9.19-10.06-.22,7.75,5.52,13.64,3.35,17.54,1.14,1.48-1,3.86-2.52,7.49-4.67,7.27-4.31,11-7.39,13-9.45S73,168.88,79,166.92a38.43,38.43,0,0,0,8-3.76c1.83,1.16,4.38,2.71,6.67,3.89a.09.09,0,0,0,.06,0c.86.44,1.66.82,2.38,1.11,2.33,1.39,3.13,3,3.3,4.22.21,1.57,1.09,2.38,1.83,2.06a2,2,0,0,1,1.43-.24c.55.07.87.81,1.22.3s.24-.81.58-.21,1.12,0,1.12,0a5.64,5.64,0,0,1,1.41-.1c.55.07.78,1.5,1.61.49s2.51-1.57,3.45-2.29,2.76-.27,2.76-.27l.24-.08a4,4,0,0,0,.33,1,1.4,1.4,0,0,1,.14-1.16l.42-.14-.08.18a2.67,2.67,0,0,0,.57,2.45c-.78-1.28,1.2-3.09,2.07-3.8a8.85,8.85,0,0,0,3.62-5.34,12,12,0,0,0,0-7.19c4.58.2,7.26,2.11,13.67,2.94,7.43.95,22.9,2.95,25.94,3.76s6.69-1.45,10.94-5.1c2.07-1.78,2.64-7.57.39-10.44.12,3.25-1.79,6.48-2.75,5.95s.45-3.51,1.2-4.46-1.42-.64-2.69,1.33c-1.74,2.71-3.8,3.49-4.3,5.74s.07,2.73-2,2.47-5.88-1.6-13.45-4.67a67.82,67.82,0,0,0-19.72-4.85c-4-.37-6.76-1.65-11-2.81-.64-.45-3.56-2.62-3.89-5.31.44-1.6,2-4.76,7.71-5.87,0,0-7.11.84-9.15,5.26a4.06,4.06,0,0,0-.76,3.11c0,.11,0,.21,0,.31-.82-1.44-3.69-7.46,4.45-9.67,0,0-9,.76-6.57,10,0,0-3.36-2.95-1.08-6.22,0,0-2.74,2.74-.2,6.68l-.67-.07a21.88,21.88,0,0,1-1.45-2.43c-1.8-3.64,1-12.45,17.82-10.29,0,0-17.7-3.68-23.63,10.14,0,0-2.51-3.32,4.13-8.33,0,0-8,3-8.32,8-.38-.24-.77-.49-1.16-.78-2.24-1.65-3.73-3.28-5.33-4.55-1.69-2.38-4.87-5.11-8.81-7.76-.3-.2-.59-.39-.87-.59-2.42-3.32-4.28-7.3-1.28-8.79,2.27-1.12,8.23-2.87,14.48-8.62,5-4.62,16.14-16.21,16.14-16.21a4.81,4.81,0,0,1-3.93-.37,103.71,103.71,0,0,1,7.93-7.11c3.93-2.84,4.66-1.77,12.65-6.41,7.82-4.55,14.47-11.78,23.19-14.69a73.82,73.82,0,0,1,8.7-1.83A54.07,54.07,0,0,0,173.09,60.6Z" fill="#fff"/>
  </g>
</svg>
