<?xml version="1.0" encoding="utf-8"?>
<!-- Generator: Adobe Illustrator 22.0.1, SVG Export Plug-In . SVG Version: 6.00 Build 0)  -->
<svg version="1.1" id="All_Logos_outlined" xmlns="http://www.w3.org/2000/svg" xmlns:xlink="http://www.w3.org/1999/xlink" x="0px"
	 y="0px" viewBox="0 0 400 320" style="enable-background:new 0 0 400 320;" xml:space="preserve">
<style type="text/css">
	.st0{fill:url(#SVGID_1_);}
	.st1{fill:url(#SVGID_2_);}
	.st2{fill:url(#SVGID_3_);}
	.st3{opacity:0.24;fill:url(#SVGID_4_);enable-background:new    ;}
	.st4{opacity:0.25;fill:url(#SVGID_5_);enable-background:new    ;}
	.st5{opacity:0.25;fill:url(#SVGID_6_);enable-background:new    ;}
	.st6{fill:#FFFFFF;}
	.st7{fill:#BD1A8D;}
</style>
<title>dancebiz-vertical</title>
<g>
	
		<linearGradient id="SVGID_1_" gradientUnits="userSpaceOnUse" x1="200.76" y1="304.5" x2="200.76" y2="146.5" gradientTransform="matrix(1 0 0 -1 0 322)">
		<stop  offset="1.000000e-02" style="stop-color:#E7CEE1"/>
		<stop  offset="1" style="stop-color:#AB1380"/>
	</linearGradient>
	<path class="st0" d="M137.4,26.7c-8.6,0-15.6,7.3-15.6,16.4v141.8c0,9,7,16.4,15.6,16.4h126.8c8.6,0,15.6-7.4,15.6-16.4V43
		c0-9-7-16.4-15.6-16.4H137.4z"/>
	
		<linearGradient id="SVGID_2_" gradientUnits="userSpaceOnUse" x1="247.6196" y1="161.1696" x2="173.9996" y2="234.7896" gradientTransform="matrix(1 0 0 -1 0 322)">
		<stop  offset="0" style="stop-color:#BC1A8C"/>
		<stop  offset="0.12" style="stop-color:#C23798"/>
		<stop  offset="0.3" style="stop-color:#CA5CA6"/>
		<stop  offset="0.48" style="stop-color:#D179B2"/>
		<stop  offset="0.66" style="stop-color:#D58DBA"/>
		<stop  offset="0.83" style="stop-color:#D89ABF"/>
		<stop  offset="1" style="stop-color:#D99EC1"/>
	</linearGradient>
	<path class="st1" d="M274.7,184.9c0,6.3-4.7,11.4-10.6,11.4H137.4c-5.8,0-10.6-5.1-10.6-11.4V43c0-6.3,4.7-11.4,10.6-11.4h126.8
		c5.8,0,10.6,5.1,10.6,11.3V184.9z"/>
	
		<radialGradient id="SVGID_3_" cx="116.95" cy="239.38" r="152.26" gradientTransform="matrix(1 0 0 -1 0 322)" gradientUnits="userSpaceOnUse">
		<stop  offset="0" style="stop-color:#FFFFFF"/>
		<stop  offset="1" style="stop-color:#B62489"/>
	</radialGradient>
	<path class="st2" d="M264.1,31.7H137.4c-5.8,0-10.6,5.1-10.6,11.4v20.1c15.7,27.6,45.9,50.2,83.8,58.9c21.1,5,43.1,5.1,64.1,0.1V43
		C274.7,36.8,270,31.7,264.1,31.7z"/>
	
		<radialGradient id="SVGID_4_" cx="159.85" cy="224.18" r="89.58" gradientTransform="matrix(1 0 0 -1 -5.431856e-03 321.9994)" gradientUnits="userSpaceOnUse">
		<stop  offset="0.42" style="stop-color:#FFFFFF"/>
		<stop  offset="1" style="stop-color:#BC1A8C"/>
	</radialGradient>
	<circle class="st3" cx="201.9" cy="117.2" r="61.9"/>
	
		<linearGradient id="SVGID_5_" gradientUnits="userSpaceOnUse" x1="231.3196" y1="196.9796" x2="280.6496" y2="147.6396" gradientTransform="matrix(1 0 0 -1 0 322)">
		<stop  offset="1.000000e-02" style="stop-color:#BC1A8C"/>
		<stop  offset="1" style="stop-color:#F7BDD6"/>
	</linearGradient>
	<path class="st4" d="M267.1,38.6v137.8c0,6.3-4.8,11.4-10.7,11.4h-84.3c1.8,2.5,4.7,4,7.8,4h80.9c5.5,0,10-4.8,10-10.7V46.9
		C270.7,43.7,269.4,40.7,267.1,38.6z"/>
	
		<linearGradient id="SVGID_6_" gradientUnits="userSpaceOnUse" x1="153.2598" y1="231.3031" x2="123.7298" y2="253.3531" gradientTransform="matrix(1 0 0 -1 0 322)">
		<stop  offset="0" style="stop-color:#D365A5"/>
		<stop  offset="0.16" style="stop-color:#DF8FBE"/>
		<stop  offset="0.34" style="stop-color:#EAB7D5"/>
		<stop  offset="0.52" style="stop-color:#F3D6E7"/>
		<stop  offset="0.69" style="stop-color:#FAEDF4"/>
		<stop  offset="0.85" style="stop-color:#FEFAFC"/>
		<stop  offset="1" style="stop-color:#FFFFFF"/>
	</linearGradient>
	<path class="st5" d="M133.6,188.8V51c0-6.3,4.8-11.4,10.7-11.4h90.8c-1.8-2.5-4.7-4-7.8-4H140c-5.5,0-10,4.8-10,10.7v134.2
		C130,183.7,131.3,186.7,133.6,188.8z"/>
	<path class="st6" d="M121.3,164.6c0,0-0.5-26.8,20.3-37.6c27.1-14,70.9-9.2,96.4-42.4c19.9-25.8,6.1-58,6.1-58s-3.6-3.5-8.9,0
		c0,0,9,14,7.5,37c-0.9,14.6-14.3,41.8-60.5,47.8c-41.6,5.4-57.7,15.1-61.4,27.8C120.8,139.2,116.1,148.5,121.3,164.6z"/>
	<g>
		<path class="st6" d="M160.5,115.9c0.3,0.1,0.4,2.2,0.8,2.3c-6,8.3-2.3,12.8-9.8,35.4c-3.8,11.2-12,34.7-15.7,47.9
			c1.7,1.5,4.3,1.5,5.9-0.2c0,0,5.2-9.8,7.4-11.7c6-5.1,1.2-11.9,2.3-14.9c4.6-12.4,5.2-12.6,10.5-21.5c3.7-6.1,6.2-12.7,7.6-19.7
			c0.8-3.8,2-7.5,3.6-11.1c0.4,0,0.8-0.1,1.1-0.1C170,120.3,166.4,115.2,160.5,115.9z"/>
		<path class="st6" d="M223.2,40.1c0.1-0.1,0.1-0.2,0.2-0.3L223.2,40.1z M222.1,41.4c0-0.1,0.1-0.2,0.2-0.3
			C222.3,41.1,222.2,41.2,222.1,41.4z M265.1,149.1c-2.9-0.4-5.8-1-8.7-1.8c-8.7-2.9-15.4-10.1-23.2-14.7c-8-4.6-8.7-3.6-12.6-6.4
			c-2.8-2.2-5.4-4.6-7.9-7.1c1.2-0.7,2.6-0.8,3.9-0.4c0,0-11.1-11.6-16.1-16.2c-6.3-5.8-12.2-7.5-14.5-8.6c-3-1.5-1.1-5.5,1.3-8.8
			l0.9-0.6c3.9-2.7,7.1-5.4,8.8-7.8c1.6-1.3,3.1-2.9,5.3-4.5c0.4-0.3,0.8-0.6,1.2-0.8c0.3,5,8.3,8,8.3,8c-6.6-5-4.1-8.3-4.1-8.3
			c5.9,13.8,23.6,10.1,23.6,10.1c-16.8,2.2-19.6-6.7-17.8-10.3c0.4-0.8,0.9-1.6,1.4-2.4l0.7-0.1c-2.5,3.9,0.2,6.7,0.2,6.7
			c-2.3-3.3,1.1-6.2,1.1-6.2c-2.5,9.2,6.6,10,6.6,10c-8.1-2.2-5.3-8.2-4.4-9.7c0,0.1,0,0.2,0,0.3c-0.2,1.1,0.1,2.2,0.8,3.1
			c2,4.4,9.1,5.3,9.1,5.3c-5.7-1.1-7.3-4.3-7.7-5.9c0.3-2.7,3.3-4.9,3.9-5.3c4.2-1.2,6.9-2.4,11-2.8c6.8-0.6,13.4-2.3,19.7-4.9
			c7.6-3.1,11.4-4.4,13.4-4.7s1.5,0.2,2,2.5s2.5,3,4.3,5.7c1.3,2,3.4,2.3,2.7,1.3s-2.2-4-1.2-4.5s2.9,2.7,2.7,5.9
			c2.3-2.9,1.7-8.7-0.4-10.4c-4.2-3.6-7.9-5.9-10.9-5.1s-18.5,2.8-25.9,3.8c-6.4,0.8-9.1,2.7-13.7,2.9c0.7-2.3,0.8-4.8,0.1-7.2
			c-0.5-2.2-1.8-4-3.6-5.3c-0.9-0.7-2.9-2.5-2.1-3.8c-0.6,0.7-0.8,1.6-0.6,2.5l0.1,0.2l-0.4-0.1c-0.2-0.3-0.3-0.8-0.1-1.2
			c-0.2,0.3-0.3,0.7-0.3,1l-0.3-0.1c0,0-1.8,0.4-2.8-0.3s-2.6-1.3-3.4-2.3s-1.1,0.4-1.6,0.5c-0.5,0-0.9,0-1.4-0.1c0,0-0.8-0.6-1.1,0
			s-0.2,0.3-0.6-0.2s-0.7,0.2-1.2,0.3c-0.5,0.1-1,0-1.4-0.2c-0.7-0.3-1.6,0.5-1.8,2.1c-0.2,1.2-1,2.8-3.3,4.2
			c-0.7,0.3-1.5,0.7-2.4,1.1h-0.1c-2.3,1.2-4.8,2.7-6.7,3.9c-2.5-1.6-5.2-2.8-8-3.8c-5.9-2-11.4-5.7-13.4-7.7s-5.7-5.1-13-9.5
			c-3.6-2.2-6-3.7-7.5-4.7c-3.9-2.2-9.8-4.4-17.5,1.1c2.1-0.4,10.1-0.2,10.1-0.2c1.6-0.1,2.8,0.7,8.3,5.9s11.4,12.2,20.7,17.7
			c3.2,1.8,6.2,4,8.7,6.6c-1.7,1.2-5.2,1.2-7.4,1.8c-3,0.8-6.1,1.8-6.3,5.2c-0.2,2.7,0.4,6-2.3,11.8c-1.9,4.7-3.2,9.6-3.7,14.6
			c-0.2,0.7-0.4,1.5-0.6,2.3c-1.4,5.2-1.2,14.1-5.3,20.3c-2.8,4.1-5,8.6-6.6,13.3c3.3-2,5.9-0.8,10.7-1c6.9-0.2,13.4,5.4,20.4,6.5
			c3.5,0.6,7,0.7,10.5,0.3c1.8-0.2,8.9-3.6,9.9-3.2c3.8,1.5,10.7,6.4,14.3,7.6c6.8,2.3,12.7,5.7,19.4,8c9.5,3.2,18.7,7.1,27.6,11.8
			c5.4,3,11.1,5.5,17,7.2c1.7-2.9,1.7-6.5,0-9.4C275.2,151.6,270.3,150,265.1,149.1L265.1,149.1z"/>
	</g>
</g>
<g>
	<g>
		<path class="st7" d="M27,295.7v-61.1h17.7c7.5,0,13.6,2.5,18.5,7.5c4.9,5,7.3,11.4,7.3,19.2v7.9c0,7.8-2.4,14.2-7.3,19.2
			s-11,7.4-18.5,7.4H27z M32,238.8v52.6h12.7c5.7,0.2,11.1-2.2,14.9-6.3c3.9-4.2,5.9-9.6,5.9-16v-8c0.2-5.9-1.9-11.6-5.9-15.9
			c-3.8-4.2-9.2-6.5-14.9-6.3L32,238.8z"/>
		<path class="st7" d="M107.3,295.7c-0.3-1.5-0.6-2.9-0.7-4c-0.1-1.1-0.2-2.3-0.2-3.4c-1.8,2.5-4.1,4.5-6.7,5.9
			c-2.9,1.6-6.1,2.4-9.4,2.4c-4.4,0-7.9-1.2-10.3-3.5c-2.5-2.5-3.8-5.9-3.7-9.5c-0.1-4.1,2-7.9,5.4-10.1c3.6-2.5,8.5-3.8,14.7-3.8
			h10v-5.6c0.1-2.9-1-5.7-3.1-7.6c-2.1-1.8-5-2.8-8.8-2.8c-3.1-0.1-6.2,0.8-8.7,2.6c-2.1,1.5-3.4,3.9-3.5,6.5h-4.6l-0.1-0.3
			c-0.2-3.4,1.4-6.4,4.6-9.1s7.4-4,12.4-4c5,0,9,1.3,12.1,3.8c3.1,2.5,4.6,6.2,4.6,11v22.3c0,1.6,0.1,3.1,0.3,4.7
			c0.2,1.5,0.5,3,0.9,4.5L107.3,295.7z M90.8,292.1c3.4,0.1,6.7-0.8,9.6-2.5c2.6-1.5,4.7-3.8,6-6.5v-9.5H96.3c-4.6,0-8.2,1-10.9,2.9
			c-2.7,2-4.1,4.4-4.1,7.3c-0.1,2.3,0.9,4.5,2.5,6C85.8,291.4,88.3,292.3,90.8,292.1z"/>
		<path class="st7" d="M129.3,250.3l0.5,7.9c1.3-2.7,3.4-4.9,5.9-6.5c2.7-1.6,5.7-2.4,8.8-2.3c4.9,0,8.7,1.5,11.3,4.5
			c2.6,3,3.9,7.7,3.9,14.1v27.7h-5V268c0-5.2-1-8.9-2.9-11.1s-4.7-3.2-8.3-3.2c-3.1-0.1-6.2,0.9-8.6,2.8c-2.3,2-4,4.5-4.8,7.4v31.8
			h-5v-45.4H129.3z"/>
		<path class="st7" d="M189.5,292.3c3.2,0,6.3-0.9,8.8-2.8c2.5-1.8,3.9-4.8,3.8-7.9h4.4l0.1,0.3c0.2,4.1-1.7,8.1-5,10.5
			c-3.4,2.8-7.7,4.3-12.1,4.3c-6.2,0-11-2.1-14.3-6.4c-3.4-4.2-5.1-9.7-5.1-16.4v-1.8c0-6.6,1.7-12,5.1-16.3
			c3.4-4.3,8.1-6.4,14.3-6.4c4.6-0.2,9,1.4,12.4,4.4c3.3,2.9,5.1,7.2,4.8,11.6l-0.1,0.3h-4.5c0.1-3.3-1.2-6.5-3.7-8.7
			c-2.5-2.2-5.7-3.3-9-3.3c-4.9,0-8.5,1.7-10.8,5.2c-2.3,3.5-3.5,7.9-3.5,13.1v1.8c0,5.4,1.2,9.8,3.5,13.3
			C181,290.6,184.6,292.3,189.5,292.3z"/>
		<path class="st7" d="M234.3,296.6c-5.4,0.1-10.6-2.2-14.2-6.3c-3.8-4.2-5.7-9.5-5.6-16V272c0-6.5,1.9-11.9,5.6-16.2
			c3.3-4.1,8.3-6.4,13.6-6.4c5.6,0,9.9,1.8,13.1,5.3s4.8,8.2,4.8,14.1v4.3h-32.1v1.2c-0.2,4.6,1.3,9.1,4.1,12.8
			c2.5,3.3,6.5,5.3,10.7,5.1c2.7,0.1,5.4-0.4,8-1.3c2.1-0.8,4.1-2.1,5.7-3.7l2.1,3.5c-1.8,1.9-4,3.3-6.5,4.3
			C240.6,296.1,237.5,296.7,234.3,296.6z M233.7,253.7c-3.6,0-7,1.5-9.4,4.3c-2.6,3-4.1,6.7-4.4,10.7l0.1,0.2h26.6v-1.3
			c0.1-3.6-1.1-7.1-3.5-9.9C240.7,255,237.3,253.5,233.7,253.7L233.7,253.7z"/>
	</g>
	<g>
		<path class="st7" d="M264.7,295.7v-61.1h20.7c7.2,0,12.8,1.4,16.8,4.2c4,2.8,6,7,6,12.6c0,2.7-0.7,5.3-2.2,7.6
			c-1.6,2.3-3.9,4-6.5,5c3.3,0.5,6.2,2.3,8.3,5c1.8,2.6,2.8,5.8,2.8,9c0,5.9-1.9,10.3-5.8,13.3c-3.9,3-9.3,4.5-16.4,4.5L264.7,295.7
			z M277,260.2h8.8c3.3,0,5.8-0.7,7.6-2c1.8-1.4,2.8-3.6,2.6-5.9c0-2.8-0.9-4.9-2.7-6.3s-4.4-2-8-2H277V260.2z M277,268.7v17.6h11.3
			c3.3,0,5.7-0.7,7.4-2.1c1.8-1.6,2.7-3.9,2.6-6.3c0-3-0.7-5.3-2.2-6.9c-1.5-1.6-3.8-2.4-6.9-2.4H277z"/>
		<path class="st7" d="M331.8,239.4h-12.3v-9.2h12.3V239.4z M331.8,295.7h-12.3v-45.4h12.3V295.7z"/>
		<path class="st7" d="M355.5,286.3H378v9.4h-37.7v-7.3l21.6-28.7h-21v-9.5h36.4v7L355.5,286.3z"/>
	</g>
</g>
</svg>
