<svg id="All_Logos_outlined" data-name="All Logos outlined" xmlns="http://www.w3.org/2000/svg" xmlns:xlink="http://www.w3.org/1999/xlink" viewBox="0 0 570 205.12">
  <defs>
    <linearGradient id="linear-gradient" x1="94" y1="5.88" x2="94" y2="164.23" gradientUnits="userSpaceOnUse">
      <stop offset="0.01" stop-color="#e7cee1"/>
      <stop offset="1" stop-color="#ab1380"/>
    </linearGradient>
    <linearGradient id="linear-gradient-2" x1="140.92" y1="149.48" x2="67.22" y2="75.77" gradientUnits="userSpaceOnUse">
      <stop offset="0" stop-color="#bc1a8c"/>
      <stop offset="0.12" stop-color="#c23798"/>
      <stop offset="0.3" stop-color="#ca5ca6"/>
      <stop offset="0.48" stop-color="#d179b2"/>
      <stop offset="0.66" stop-color="#d58dba"/>
      <stop offset="0.83" stop-color="#d89abf"/>
      <stop offset="1" stop-color="#d99ec1"/>
    </linearGradient>
    <radialGradient id="radial-gradient" cx="10.19" cy="71.21" r="152.26" gradientTransform="translate(0 -0.22)" gradientUnits="userSpaceOnUse">
      <stop offset="0" stop-color="#fff"/>
      <stop offset="1" stop-color="#b62489"/>
    </radialGradient>
    <radialGradient id="radial-gradient-2" cx="53.1" cy="86.41" r="89.58" gradientTransform="translate(0 -0.22)" gradientUnits="userSpaceOnUse">
      <stop offset="0.42" stop-color="#fff"/>
      <stop offset="1" stop-color="#bc1a8c"/>
    </radialGradient>
    <linearGradient id="linear-gradient-3" x1="124.55" y1="113.58" x2="173.99" y2="163.02" gradientUnits="userSpaceOnUse">
      <stop offset="0.01" stop-color="#bc1a8c"/>
      <stop offset="1" stop-color="#f7bdd6"/>
    </linearGradient>
    <linearGradient id="linear-gradient-4" x1="46.5" y1="79.3" x2="16.9" y2="57.2" gradientUnits="userSpaceOnUse">
      <stop offset="0" stop-color="#d365a5"/>
      <stop offset="0.16" stop-color="#df8fbe"/>
      <stop offset="0.34" stop-color="#eab7d5"/>
      <stop offset="0.52" stop-color="#f3d6e7"/>
      <stop offset="0.69" stop-color="#faedf4"/>
      <stop offset="0.85" stop-color="#fefafc"/>
      <stop offset="1" stop-color="#fff"/>
    </linearGradient>
  </defs>
  <title>dancebiz-horizontal</title>
  <g>
    <path d="M30.61,15.06C22,15.06,15,22.43,15,31.49V173.64c0,9.05,7,16.42,15.61,16.42H157.4c8.6,0,15.61-7.37,15.61-16.42V31.49c0-9.06-7-16.43-15.61-16.43Z" fill="url(#linear-gradient)"/>
    <path d="M168,173.64c0,6.28-4.72,11.37-10.56,11.37H30.61C24.77,185,20,179.92,20,173.64V31.49c0-6.29,4.73-11.38,10.57-11.38H157.4c5.84,0,10.56,5.09,10.56,11.38Z" fill="url(#linear-gradient-2)"/>
    <path d="M157.4,20.11H30.61C24.77,20.11,20,25.2,20,31.49V51.67C35.78,79.36,66,101.94,103.81,110.75a139,139,0,0,0,64.15.1V31.49C168,25.2,163.24,20.11,157.4,20.11Z" fill="url(#radial-gradient)"/>
    <ellipse cx="95.11" cy="105.83" rx="61.89" ry="62.02" opacity="0.24" fill="url(#radial-gradient-2)"/>
    <path d="M160.37,27.07V165.16c0,6.28-4.81,11.38-10.74,11.38H65.31a9.73,9.73,0,0,0,7.78,4H154c5.52,0,10-4.82,10-10.76V35.33A11,11,0,0,0,160.37,27.07Z" opacity="0.25" fill="url(#linear-gradient-3)"/>
    <path d="M26.85,177.54V39.45c0-6.28,4.81-11.38,10.74-11.38h90.83a9.73,9.73,0,0,0-7.78-4H33.25c-5.52,0-10,4.82-10,10.76V169.28A11.09,11.09,0,0,0,26.85,177.54Z" opacity="0.25" fill="url(#linear-gradient-4)"/>
  </g>
  <path d="M14.52,153.06S14,126.24,34.84,115.51c27.07-14,70.94-9.24,96.44-42.43,19.85-25.84,6.13-58,6.13-58s-3.63-3.5-8.88,0c0,0,9,14.05,7.48,37C135.06,66.74,121.66,94,75.5,99.9,33.9,105.27,17.83,115,14,127.7,14,127.7,9.32,137,14.52,153.06Z" fill="#fff"/>
  <g>
    <path d="M53.72,104.46c.32.05.36,2.18.75,2.25-6,8.25-2.25,12.75-9.84,35.39C40.86,153.34,32.59,176.76,29,190a4.27,4.27,0,0,0,5.91-.17S40,180,42.29,178.13c6-5,1.2-11.85,2.34-14.91,4.6-12.42,5.23-12.62,10.45-21.53A62.53,62.53,0,0,0,62.74,122a61.94,61.94,0,0,1,3.58-11.11c.38,0,.76-.08,1.14-.12C63.27,108.79,59.62,103.73,53.72,104.46Z" fill="#fff"/>
    <path d="M116.42,28.62a1.55,1.55,0,0,1,.24-.28ZM115.36,30a1.45,1.45,0,0,1,.18-.32A3.27,3.27,0,0,0,115.36,30Zm43,107.63a73.82,73.82,0,0,1-8.7-1.83c-8.72-2.91-15.37-10.14-23.19-14.69-8-4.65-8.72-3.57-12.65-6.41a103.71,103.71,0,0,1-7.93-7.11,4.74,4.74,0,0,1,3.93-.37S98.74,95.58,93.72,91c-6.25-5.75-12.21-7.51-14.48-8.63-3-1.48-1.14-5.46,1.28-8.78.28-.2.57-.39.87-.59,3.94-2.65,7.12-5.38,8.81-7.77,1.6-1.26,3.09-2.89,5.33-4.54.39-.29.78-.55,1.16-.78.29,5,8.32,8,8.32,8-6.64-5-4.13-8.33-4.13-8.33,5.93,13.82,23.63,10.14,23.63,10.14C107.73,71.8,104.89,63,106.69,59.35a21.88,21.88,0,0,1,1.45-2.43l.67-.07c-2.54,3.94.2,6.68.2,6.68-2.28-3.27,1.08-6.22,1.08-6.22-2.48,9.23,6.57,10,6.57,10-8.14-2.21-5.27-8.23-4.45-9.67,0,.1,0,.2,0,.31a4.06,4.06,0,0,0,.76,3.11c2,4.42,9.15,5.26,9.15,5.26-5.71-1.12-7.27-4.27-7.71-5.87.33-2.69,3.25-4.87,3.89-5.31,4.2-1.16,6.93-2.44,11-2.81A68.15,68.15,0,0,0,149,47.47c7.57-3.07,11.38-4.4,13.45-4.67s1.49.23,2,2.47,2.56,3,4.3,5.74c1.27,2,3.44,2.28,2.69,1.33s-2.18-3.91-1.2-4.46,2.87,2.7,2.75,5.95c2.25-2.87,1.68-8.66-.39-10.45-4.25-3.64-7.89-5.9-10.94-5.09s-18.51,2.8-25.94,3.76c-6.41.83-9.09,2.74-13.67,2.94a12.05,12.05,0,0,0,0-7.2,8.85,8.85,0,0,0-3.62-5.33c-.87-.71-2.85-2.52-2.07-3.8a2.67,2.67,0,0,0-.57,2.45l.08.18-.42-.14a1.4,1.4,0,0,1-.14-1.16,3.9,3.9,0,0,0-.33,1l-.24-.08s-1.83.44-2.76-.28-2.62-1.27-3.45-2.28-1.06.42-1.61.49a5.64,5.64,0,0,1-1.41-.1s-.78-.6-1.12,0-.24.31-.58-.21-.67.23-1.22.3a2,2,0,0,1-1.43-.24c-.74-.32-1.62.49-1.83,2.06-.17,1.21-1,2.83-3.3,4.22-.72.29-1.52.66-2.38,1.1l-.06,0c-2.29,1.18-4.84,2.73-6.67,3.89a37.92,37.92,0,0,0-8-3.76c-5.91-2-11.42-5.66-13.37-7.71s-5.69-5.14-13-9.45c-3.63-2.15-6-3.68-7.49-4.68-3.9-2.21-9.79-4.37-17.54,1.15,2.16-.41,10.06-.22,10.06-.22,1.66-.07,2.84.7,8.33,5.87S57.4,33.27,66.71,38.78a39.53,39.53,0,0,1,8.74,6.63c-1.75,1.22-5.24,1.21-7.45,1.8C65,48,62,49,61.75,52.42c-.15,2.7.36,6-2.25,11.82A54.19,54.19,0,0,0,55.79,78.8c-.17.71-.36,1.48-.6,2.35-1.37,5.15-1.17,14.1-5.31,20.31a52.05,52.05,0,0,0-6.66,13.33c3.33-2,5.87-.81,10.72-1,6.91-.21,13.41,5.44,20.41,6.49a38.07,38.07,0,0,0,10.55.3c1.8-.23,8.9-3.62,9.94-3.22,3.82,1.49,10.72,6.39,14.27,7.58,6.75,2.26,12.7,5.69,19.35,8a182.68,182.68,0,0,1,27.61,11.76,79,79,0,0,0,17,7.18,9.19,9.19,0,0,0,0-9.43A54.07,54.07,0,0,0,158.4,137.58Z" fill="#fff"/>
  </g>
  <g>
    <path d="M195.81,127.69V66.55H215q12,0,19.25,7.37t7.29,19v8.35q0,11.72-7.29,19T215,127.69Zm8.27-54.63v48.17h11q8.47,0,13.37-5.59t4.89-14.32V92.88q0-8.66-4.89-14.23T215,73.06Z" fill="#bd1a8d"/>
    <path d="M277.4,127.69c-.28-1.37-.5-2.58-.65-3.63a25.92,25.92,0,0,1-.28-3.17,19.29,19.29,0,0,1-6,5.48,15.4,15.4,0,0,1-8,2.2q-7.09,0-10.81-3.63t-3.72-10a11.75,11.75,0,0,1,5.27-10.19q5.26-3.67,14.3-3.67h9V96.58A8.34,8.34,0,0,0,274,90.26c-1.62-1.56-3.92-2.33-6.89-2.33a10,10,0,0,0-6.51,2,6.06,6.06,0,0,0-2.47,4.83l-7.86.09-.08-.26q-.3-4.95,4.64-9.07t12.74-4.11q7.72,0,12.43,3.92t4.71,11.32v21.88a42.07,42.07,0,0,0,.25,4.7,24.09,24.09,0,0,0,.92,4.45Zm-13.73-6a14.73,14.73,0,0,0,8.1-2.31,11,11,0,0,0,4.7-5.29v-7.39h-9.28a12,12,0,0,0-8,2.51,7.53,7.53,0,0,0-3,5.93,6.21,6.21,0,0,0,1.89,4.78A7.9,7.9,0,0,0,263.67,121.65Z" fill="#bd1a8d"/>
    <path d="M304.15,82.26l.59,6.76a16.41,16.41,0,0,1,5.69-5.61,15.15,15.15,0,0,1,7.79-2q7.33,0,11.38,4.3t4,13.29v28.68h-8.28V99.18q0-6-2.37-8.52c-1.58-1.68-4-2.52-7.24-2.52a12.85,12.85,0,0,0-6.49,1.53A11.11,11.11,0,0,0,305,94v33.72h-8.27V82.26Z" fill="#bd1a8d"/>
    <path d="M363.69,122.11a9.74,9.74,0,0,0,6.68-2.54,8,8,0,0,0,2.85-6.24h7.48l.13.25q.17,5.88-5,10.44a17.82,17.82,0,0,1-12.1,4.55q-9.57,0-14.78-6.5t-5.21-16.21v-1.77q0-9.61,5.23-16.14t14.76-6.53a17.15,17.15,0,0,1,12.45,4.7,14.92,14.92,0,0,1,4.69,11.55l-.09.25h-7.52a10,10,0,0,0-2.7-7.07,8.91,8.91,0,0,0-6.83-2.92q-6.09,0-8.88,4.72A22.12,22.12,0,0,0,352,104.09v1.77a22.6,22.6,0,0,0,2.75,11.55Q357.52,122.11,363.69,122.11Z" fill="#bd1a8d"/>
    <path d="M409.46,128.57q-9.78,0-15.26-6.25t-5.48-16.46V104q0-9.78,5.65-16.19a17.69,17.69,0,0,1,13.79-6.4q9.12,0,13.67,5.67t4.56,15.07v4.37H397.33l-.13.21q0,6.84,3,11.11t9.23,4.26a20.75,20.75,0,0,0,7.37-1.2,16.25,16.25,0,0,0,5.44-3.3l3.24,5.38a20,20,0,0,1-6.43,4A25.55,25.55,0,0,1,409.46,128.57Zm-1.3-40.64A9,9,0,0,0,401,91.27a15.76,15.76,0,0,0-3.46,8.54l.08.21h20.49v-.67a13.27,13.27,0,0,0-2.43-8.19C414.06,89,411.55,87.93,408.16,87.93Z" fill="#bd1a8d"/>
  </g>
  <g>
    <path d="M432.4,127.69V66.55h20.66q10.79,0,16.84,4.2t6,12.56a13.25,13.25,0,0,1-2.24,7.58,13.64,13.64,0,0,1-6.53,5,13,13,0,0,1,8.25,5,15.07,15.07,0,0,1,2.75,9q0,8.77-5.79,13.29T456,127.69Zm12.26-35.52h8.82q4.9,0,7.56-2a6.94,6.94,0,0,0,2.64-5.88c0-2.82-.89-4.91-2.66-6.25s-4.43-2-8-2h-8.4Zm0,8.48v17.59H456q4.86,0,7.43-2.11a7.65,7.65,0,0,0,2.56-6.26q0-4.49-2.18-6.85t-6.89-2.37Z" fill="#bd1a8d"/>
    <path d="M499.46,71.38H487.2V62.19h12.26Zm0,56.31H487.2V82.26h12.26Z" fill="#bd1a8d"/>
    <path d="M523.23,118.24h22.51v9.45H508v-7.25l21.63-28.73H508.66V82.26H545v7Z" fill="#bd1a8d"/>
  </g>
</svg>
