<svg id="All_Logos_outlined" data-name="All Logos outlined" xmlns="http://www.w3.org/2000/svg" xmlns:xlink="http://www.w3.org/1999/xlink" viewBox="0 0 600 320">
  <defs>
    <linearGradient id="linear-gradient" x1="793.67" y1="45.99" x2="793.67" y2="-50.64" gradientTransform="translate(-497 114.81)" gradientUnits="userSpaceOnUse">
      <stop offset="0" stop-color="#ce5822"/>
      <stop offset="1" stop-color="#fdd0a3"/>
    </linearGradient>
    <linearGradient id="linear-gradient-2" x1="870.16" y1="96.96" x2="753.39" y2="-54.43" gradientTransform="translate(-497 114.81)" gradientUnits="userSpaceOnUse">
      <stop offset="0" stop-color="#dc713d"/>
      <stop offset="0.38" stop-color="#e27f1c"/>
      <stop offset="1" stop-color="#ffd59a"/>
    </linearGradient>
    <radialGradient id="radial-gradient" cx="717.44" cy="-45.81" r="194.21" gradientTransform="translate(-497 114.81)" gradientUnits="userSpaceOnUse">
      <stop offset="0" stop-color="#fff1e5"/>
      <stop offset="0.09" stop-color="#feead7"/>
      <stop offset="0.25" stop-color="#fdd8b1"/>
      <stop offset="0.47" stop-color="#fabb74"/>
      <stop offset="0.75" stop-color="#f69320"/>
      <stop offset="0.75" stop-color="#f6921e"/>
      <stop offset="1" stop-color="#d7603e"/>
    </radialGradient>
    <linearGradient id="linear-gradient-3" x1="324.61" y1="125.02" x2="360.8" y2="151.17" gradientUnits="userSpaceOnUse">
      <stop offset="0.19" stop-color="#f6921e"/>
      <stop offset="0.51" stop-color="#fac07d"/>
      <stop offset="0.85" stop-color="#feedda"/>
      <stop offset="1" stop-color="#fff"/>
    </linearGradient>
    <linearGradient id="linear-gradient-4" x1="742.27" y1="-26.62" x2="716.27" y2="-51.61" gradientTransform="translate(-497 114.81)" gradientUnits="userSpaceOnUse">
      <stop offset="0" stop-color="#fab77d"/>
      <stop offset="0.69" stop-color="#fff"/>
    </linearGradient>
    <radialGradient id="radial-gradient-2" cx="741.59" cy="-57.89" r="206.51" gradientTransform="translate(-497 114.81)" gradientUnits="userSpaceOnUse">
      <stop offset="0.41" stop-color="#fff"/>
      <stop offset="0.75" stop-color="#f6921e"/>
      <stop offset="1" stop-color="#f37d48"/>
    </radialGradient>
  </defs>
  <title>gymnasticsbiz-vertical</title>
  <g>
    <path d="M233.29,25.31a15.13,15.13,0,0,0-11.06,4.83,16.72,16.72,0,0,0-4.54,11.55V183.52c0,9,7,16.39,15.6,16.39H360.06c8.61,0,15.61-7.35,15.61-16.39V41.69a16.73,16.73,0,0,0-4.55-11.55,15.11,15.11,0,0,0-11.06-4.83Z" fill="url(#linear-gradient)"/>
    <path d="M370.63,183.52c0,6.27-4.73,11.35-10.57,11.35H233.29c-5.84,0-10.57-5.08-10.57-11.35V41.69c0-6.26,4.73-11.34,10.57-11.34H360.06c5.84,0,10.57,5.08,10.57,11.34Z" fill="url(#linear-gradient-2)"/>
    <path d="M360.06,30.35H233.29c-5.84,0-10.57,5.08-10.57,11.34V61.83c15.74,27.63,45.91,50.16,83.77,59a139.2,139.2,0,0,0,64.14.09V41.69C370.63,35.43,365.9,30.35,360.06,30.35Z" fill="url(#radial-gradient)"/>
    <path d="M362,38.29V176.07c0,6.27-4.8,11.35-10.73,11.35h-97a9.72,9.72,0,0,0,7.78,4h93.54c5.52,0,10-4.81,10-10.73V46.53A11,11,0,0,0,362,38.29Z" opacity="0.25" fill="url(#linear-gradient-3)"/>
    <path d="M229.54,187.09V49.31c0-6.27,4.8-11.36,10.73-11.36h71.16a9.76,9.76,0,0,0-7.78-4H235.93c-5.52,0-10,4.81-10,10.74V178.84A11,11,0,0,0,229.54,187.09Z" opacity="0.5" fill="url(#linear-gradient-4)"/>
    <path d="M236.41,116.54a61.89,61.89,0,1,1,61.88,61.88A61.89,61.89,0,0,1,236.41,116.54Z" opacity="0.28" fill="url(#radial-gradient-2)"/>
    <path d="M383.18,62.5s-2.1-.19-5.75,1.89-7.56,3.16-10.6,2.86-3.33,1.92-3.23,3.64-.09,4.63-5.08,9S344.11,91.62,344,97.28a3,3,0,0,1-3.53.34c-2-1.13-18.67-9.72-31-10.67a157.65,157.65,0,0,0-15.2-18.7c-8.93-9.36-10.74-9.93-13.12-10.55s-3.38-1.18-7.55-4-16-10.07-20.14-13.11-8.08-8.08-12.18-11.25-5-3.63-6.55-6.08-1.9-2.29-3.46-1.87-1.18,5.23.63,7.65a22.38,22.38,0,0,1,4.5,9c.69,3.61,1.75,4.62,3.75,4.94s4.1-1.33,8.94,4,10.12,14.16,16.33,16.71,9.05,3.92,10.58,5.11a21,21,0,0,1,6.09,7c2.24,4,8.93,11.2,10.44,16.66s0,7.73,2,11.16,6,6.5,7.87,8.34-.08,8.32-3.55,12.8-7.86,8.85-8.87,9.1.1-.13-.76-3.25A7.1,7.1,0,0,0,286,126.3s1-1.86,2.57-.67l1.92,1.48s-2.13-4.92-6.15-4.75c0,0,.21-1.06,2.55-1.71,0,0-2.85-1.6-5.11,2.38a2.14,2.14,0,0,0-2.54.91c-1,1.5-3.8,1-5.51,4.74s-2.4,2.85-4,5.48-1.52,7-1.52,7-2.53,2.75-2.64,5.53a4.51,4.51,0,0,0,2,4,4.14,4.14,0,0,1-.59-4.54s-.2,2.91,2.12,3.89l2.31,1s-4.19-3-2.61-5.09a14.59,14.59,0,0,0,2.43,1.88c1.77,1.16,3,2.5,4.68,3.21a9.42,9.42,0,0,1,.7,1.22l.42.87a28.73,28.73,0,0,1-4.68,4.29c-2.2,1.43-8.07,6-9.95,7.58s-3.21.8-4.79-.15-3.67-3.18-5.47-3.49-7.09.3-6,1,.28.89,1.05,1.2c1.2.49,2.56.63,3.82,1,.87.26,2.69,2.47,1.91,2.41s-2.6-.47-3-.13,1.68,1.5,3.41,2a15,15,0,0,1,4.11,1.87c1.58.95,3.27.35,5.41-1a70.81,70.81,0,0,1,8.31-4.76c2.91-1.29,10.12-5.68,12.76-9.09a5.23,5.23,0,0,0,1.55.11c1,0,1.52-2,1.87-2.78s.92-2.43,1.95-2.18a2.85,2.85,0,0,1-.29,1.27.41.41,0,0,0,.31.66s-2.7,4.72-4.26,6.93-4.5,6.34-5.67,6.8-8.49,7.26-13.27,10.47c-4,2.66-7.14,5.47-7.72,5.18-2.14-1.11-3.59-2.64-5.2-3.48-.85-.46-1.61-.87-6-.22a23.79,23.79,0,0,0-3,.34c-.48.21-.28.85,1.12,1a16,16,0,0,0,2.81.05c1.75.06.92.09-2.9.49-.76.08-1.52.32-.12.75a14.85,14.85,0,0,0,2.32.27c.73.1,3.24.15,2.64.2s-1.77.18-2.84.3-1.5.36-.67.7a8.78,8.78,0,0,0,3.21.24c.8-.06,1.95.41,1.47.4a16.45,16.45,0,0,0-2.51,0c-.54.11-.37.37.11.73,1,.41,3.15.69,4.61,1.38s4.73,3.16,6.3,2.49c1.82-.77,1.17-1.68,8.28-5.6,4.23-2.32,13-7.58,14.19-8.12s3.77-2.95,6.61-6.62,9.05-14,11.33-16.61a17,17,0,0,1,8.93-5.37,10.09,10.09,0,0,0,7-5.9c.94-2.28,4.18-7.54,4.94-12.4s-1.17-18.78-2-21.59c0,0,0-.69,1.92,0a121.62,121.62,0,0,0,19.26,3.84c6.29.5,8.37-.07,10.41-2.18a9.45,9.45,0,0,0,2.79-4.67c.88-2.73,4.12-7.3,5.53-9.63,3.94-6.5,6-10.62,8.46-13.78s4.46-4.18,6.5-6.29,5.06-5,6.2-6.26,2-1,3-2.31S384.82,62.67,383.18,62.5Z" fill="#fff"/>
    <path d="M353,153.49c-12.58-21.3-38.38-51.39-79.82-45.28-27.24,4-45.12,17.58-55.44,30.41,0,0-2.14,1.43-1.82,12A141.65,141.65,0,0,0,217.69,169c8.67-18.82,26.84-48.76,55.44-52.43,46.81-6,58.95,10.78,72.43,45.1,6.69,17.05,14.56,28.64,21.6,36.44a17.92,17.92,0,0,0,3.15-2.22,16.7,16.7,0,0,0,5.36-12.34v-1.24A132.17,132.17,0,0,1,353,153.49Z" fill="#fff"/>
  </g>
  <g>
    <g>
      <path d="M62.61,288.43q-2.05,3-7.5,5.56T41.4,296.58q-10.66,0-17.49-7.27T17.09,270.5V259.29q0-11.34,6.49-18.48t16.82-7.14q9.85,0,15.43,4.94a19.3,19.3,0,0,1,6.44,12.82l-.08.26H57.53a17.32,17.32,0,0,0-5.17-9.94q-4.06-3.8-12-3.8a16.47,16.47,0,0,0-13.25,6q-5,6-5,15.28v11.28q0,9.57,5.33,15.7a17.61,17.61,0,0,0,13.94,6.12,28,28,0,0,0,10.35-1.69c2.85-1.14,4.78-2.37,5.82-3.71V271H41.32v-4.28H62.61Z" fill="#dd713d"/>
      <path d="M89.32,283.39l1.59,5.42h.25l13.74-38.55h5.62L90.79,303a26.15,26.15,0,0,1-4.58,7.85C84.33,313,81.59,314,78,314a15.48,15.48,0,0,1-2.14-.18,11.07,11.07,0,0,1-1.85-.4l.59-4.2c.33.05.87.12,1.61.19s1.28.1,1.62.1a6.56,6.56,0,0,0,5.25-2.33,20.18,20.18,0,0,0,3.36-6l2.39-6.13L71.26,250.26h5.58Z" fill="#dd713d"/>
      <path d="M122.74,250.26l.46,7.51A16.11,16.11,0,0,1,129,251.6a16.56,16.56,0,0,1,8.67-2.18,14.57,14.57,0,0,1,8.72,2.52,13.85,13.85,0,0,1,5,7.68,17.35,17.35,0,0,1,5.86-7.49,15.5,15.5,0,0,1,9.26-2.71q7.26,0,11.21,4.83t3.95,14.95v26.49h-5V269.06q0-8.42-3-11.89a10.26,10.26,0,0,0-8.25-3.47q-5.83,0-9,3.66a17.4,17.4,0,0,0-3.95,9.39c0,.19,0,.47,0,.84s0,.63,0,.8v27.3h-5.08V269.06q0-8.25-3-11.8a10.22,10.22,0,0,0-8.25-3.56q-5.34,0-8.46,2.72a14.4,14.4,0,0,0-4.39,7.3v32h-5.08V250.26Z" fill="#dd713d"/>
      <path d="M199.17,250.26l.46,7.93a16.2,16.2,0,0,1,5.9-6.48,16.41,16.41,0,0,1,8.8-2.29c4.92,0,8.68,1.5,11.25,4.51s3.86,7.71,3.86,14.09v27.67h-5V268q0-7.83-2.92-11.07c-2-2.16-4.71-3.24-8.3-3.24a13,13,0,0,0-8.63,2.8,15.62,15.62,0,0,0-4.8,7.43v31.76h-5V250.26Z" fill="#dd713d"/>
      <path d="M271.35,295.69c-.33-1.54-.57-2.87-.71-4a27.23,27.23,0,0,1-.21-3.4,20,20,0,0,1-6.72,5.92,19,19,0,0,1-9.45,2.36q-6.63,0-10.31-3.53a12.48,12.48,0,0,1-3.67-9.45,11.7,11.7,0,0,1,5.44-10.08q5.43-3.78,14.67-3.78h10v-5.62a9.69,9.69,0,0,0-3.13-7.65c-2.08-1.84-5-2.77-8.75-2.77a13.92,13.92,0,0,0-8.72,2.65,7.88,7.88,0,0,0-3.46,6.46l-4.62,0-.09-.25q-.24-5.08,4.64-9.09t12.46-4q7.51,0,12.09,3.82t4.58,11v22.34a39.31,39.31,0,0,0,.27,4.66,29,29,0,0,0,.9,4.49Zm-16.5-3.57a17.92,17.92,0,0,0,9.57-2.54,15,15,0,0,0,6-6.48v-9.49H260.31q-6.84,0-10.94,2.91t-4.09,7.25a7.77,7.77,0,0,0,2.54,6A10,10,0,0,0,254.85,292.12Z" fill="#dd713d"/>
      <path d="M316,284.12a7.31,7.31,0,0,0-2.62-5.57q-2.62-2.39-9.47-3.89-8.15-1.77-12-4.67a9.61,9.61,0,0,1-3.89-8.18,11,11,0,0,1,4.39-8.8q4.39-3.58,11.61-3.59c5.13,0,9.18,1.26,12.18,3.8a11.33,11.33,0,0,1,4.28,9.51l-.08.25h-4.66a8.43,8.43,0,0,0-3.17-6.51A12.58,12.58,0,0,0,304,253.7q-5.5,0-8.25,2.36A7.13,7.13,0,0,0,293,261.6a6.56,6.56,0,0,0,2.37,5.18q2.37,2,9.47,3.59,8.1,1.81,12.14,4.95a10.24,10.24,0,0,1,4,8.53,11.06,11.06,0,0,1-4.6,9.21q-4.59,3.51-12.16,3.52-8.26,0-13-3.95t-4.47-9.41l.08-.25h4.62a8.27,8.27,0,0,0,4,7.11,16.85,16.85,0,0,0,8.75,2.21c3.64,0,6.51-.79,8.61-2.39A7.05,7.05,0,0,0,316,284.12Z" fill="#dd713d"/>
      <path d="M340.51,238.63v11.63h10v4.11h-10V284c0,3,.54,5.07,1.62,6.32a5.42,5.42,0,0,0,4.3,1.87c.82,0,1.61,0,2.38-.11s1.66-.19,2.66-.36l.76,3.74a12.43,12.43,0,0,1-3.07.84,21.89,21.89,0,0,1-3.61.3,9.4,9.4,0,0,1-7.45-3q-2.67-3-2.67-9.57V254.37h-7.85v-4.11h7.85V238.63Z" fill="#dd713d"/>
      <path d="M366.8,237.24h-5v-7.05h5Zm0,58.45h-5V250.26h5Z" fill="#dd713d"/>
      <path d="M397.54,292.29a14.42,14.42,0,0,0,8.82-2.84,9.32,9.32,0,0,0,3.82-7.91h4.45l.08.25a12.45,12.45,0,0,1-5,10.54,18.73,18.73,0,0,1-12.13,4.25q-9.29,0-14.34-6.37t-5.06-16.35v-1.77q0-9.9,5.08-16.29t14.28-6.38A18.09,18.09,0,0,1,410,253.83a14.29,14.29,0,0,1,4.81,11.59l-.09.25h-4.49a11.08,11.08,0,0,0-3.67-8.71,13.14,13.14,0,0,0-9-3.26q-7.31,0-10.82,5.22t-3.5,13.15v1.77q0,8.06,3.48,13.25T397.54,292.29Z" fill="#dd713d"/>
      <path d="M452.47,284.12a7.32,7.32,0,0,0-2.63-5.57q-2.62-2.39-9.47-3.89-8.14-1.77-12-4.67a9.6,9.6,0,0,1-3.88-8.18,11,11,0,0,1,4.38-8.8q4.4-3.58,11.62-3.59,7.68,0,12.17,3.8a11.34,11.34,0,0,1,4.29,9.51l-.09.25h-4.66a8.43,8.43,0,0,0-3.17-6.51,12.55,12.55,0,0,0-8.54-2.77q-5.5,0-8.26,2.36a7.13,7.13,0,0,0-2.75,5.54,6.53,6.53,0,0,0,2.38,5.18q2.37,2,9.47,3.59,8.1,1.81,12.13,4.95a10.24,10.24,0,0,1,4,8.53,11.06,11.06,0,0,1-4.6,9.21q-4.59,3.51-12.15,3.52-8.28,0-13-3.95t-4.47-9.41l.08-.25h4.62a8.29,8.29,0,0,0,4,7.11,16.86,16.86,0,0,0,8.76,2.21c3.64,0,6.51-.79,8.61-2.39A7.05,7.05,0,0,0,452.47,284.12Z" fill="#dd713d"/>
    </g>
    <g>
      <path d="M472.68,295.69V234.55h20.66q10.8,0,16.84,4.2t6.05,12.56a13.25,13.25,0,0,1-2.25,7.58,13.6,13.6,0,0,1-6.53,5,13,13,0,0,1,8.25,5,15,15,0,0,1,2.75,8.95q0,8.78-5.79,13.29t-16.42,4.51Zm12.26-35.52h8.82q4.92,0,7.56-2a6.94,6.94,0,0,0,2.65-5.88c0-2.82-.89-4.91-2.67-6.25s-4.43-2-8-2h-8.4Zm0,8.48v17.6h11.3c3.25,0,5.72-.71,7.43-2.12a7.65,7.65,0,0,0,2.56-6.26q0-4.49-2.18-6.85c-1.46-1.58-3.75-2.37-6.89-2.37Z" fill="#dd713d"/>
      <path d="M539.74,239.38H527.48v-9.19h12.26Zm0,56.31H527.48V250.26h12.26Z" fill="#dd713d"/>
      <path d="M563.51,286.25H586v9.44H548.27v-7.25l21.62-28.73H548.94v-9.45H585.3v7Z" fill="#dd713d"/>
    </g>
  </g>
</svg>
