<svg id="All_Logos_outlined" data-name="All Logos outlined" xmlns="http://www.w3.org/2000/svg" xmlns:xlink="http://www.w3.org/1999/xlink" viewBox="0 0 795 205.12">
  <defs>
    <linearGradient id="linear-gradient" x1="591.05" y1="36.05" x2="591.05" y2="-60.8" gradientTransform="translate(-497 114.81)" gradientUnits="userSpaceOnUse">
      <stop offset="0" stop-color="#ce5822"/>
      <stop offset="1" stop-color="#fdd0a3"/>
    </linearGradient>
    <linearGradient id="linear-gradient-2" x1="667.64" y1="87.06" x2="550.71" y2="-64.55" gradientTransform="translate(-497 114.81)" gradientUnits="userSpaceOnUse">
      <stop offset="0" stop-color="#dc713d"/>
      <stop offset="0.38" stop-color="#e27f1c"/>
      <stop offset="1" stop-color="#ffd59a"/>
    </linearGradient>
    <radialGradient id="radial-gradient" cx="514.81" cy="-55.86" r="194.21" gradientTransform="translate(-497.05 114.84)" gradientUnits="userSpaceOnUse">
      <stop offset="0" stop-color="#fff1e5"/>
      <stop offset="0.09" stop-color="#feead7"/>
      <stop offset="0.25" stop-color="#fdd8b1"/>
      <stop offset="0.47" stop-color="#fabb74"/>
      <stop offset="0.75" stop-color="#f69320"/>
      <stop offset="0.75" stop-color="#f6921e"/>
      <stop offset="1" stop-color="#d7603e"/>
    </radialGradient>
    <linearGradient id="linear-gradient-3" x1="121.95" y1="114.94" x2="158.22" y2="141.16" gradientUnits="userSpaceOnUse">
      <stop offset="0.19" stop-color="#f6921e"/>
      <stop offset="0.51" stop-color="#fac07d"/>
      <stop offset="0.85" stop-color="#feedda"/>
      <stop offset="1" stop-color="#fff"/>
    </linearGradient>
    <linearGradient id="linear-gradient-4" x1="539.63" y1="-36.68" x2="513.58" y2="-61.73" gradientTransform="translate(-497 114.81)" gradientUnits="userSpaceOnUse">
      <stop offset="0" stop-color="#fab77d"/>
      <stop offset="0.69" stop-color="#fff"/>
    </linearGradient>
    <radialGradient id="radial-gradient-2" cx="538.97" cy="-67.94" r="206.51" gradientTransform="translate(-497.05 114.84)" gradientUnits="userSpaceOnUse">
      <stop offset="0.41" stop-color="#fff"/>
      <stop offset="0.75" stop-color="#f6921e"/>
      <stop offset="1" stop-color="#f37d48"/>
    </radialGradient>
  </defs>
  <title>gymnasticsbiz-horizontal</title>
  <g>
    <path d="M30.66,15.06A15.14,15.14,0,0,0,19.6,19.9a16.81,16.81,0,0,0-4.55,11.59V173.64c0,9.05,7,16.42,15.61,16.42H157.45c8.6,0,15.6-7.37,15.6-16.42V31.49A16.76,16.76,0,0,0,168.5,19.9a15.1,15.1,0,0,0-11.05-4.84Z" fill="url(#linear-gradient)"/>
    <path d="M168,173.64c0,6.28-4.72,11.37-10.56,11.37H30.66c-5.84,0-10.57-5.09-10.57-11.37V31.49c0-6.29,4.73-11.38,10.57-11.38H157.45c5.84,0,10.56,5.09,10.56,11.38Z" fill="url(#linear-gradient-2)"/>
    <path d="M157.45,20.11H30.66c-5.84,0-10.57,5.09-10.57,11.38V51.67C35.84,79.36,66,101.94,103.86,110.75a139,139,0,0,0,64.15.1V31.49C168,25.2,163.29,20.11,157.45,20.11Z" fill="url(#radial-gradient)"/>
    <path d="M159.42,28.07v138.1c0,6.28-4.81,11.38-10.74,11.38h-97a9.75,9.75,0,0,0,7.78,4H153c5.52,0,10-4.81,10-10.75V36.33A11,11,0,0,0,159.42,28.07Z" opacity="0.25" fill="url(#linear-gradient-3)"/>
    <path d="M26.91,177.21V39.12c0-6.29,4.8-11.39,10.73-11.39H108.8a9.69,9.69,0,0,0-7.77-4H33.31c-5.53,0-10,4.82-10,10.76V169A11.06,11.06,0,0,0,26.91,177.21Z" opacity="0.5" fill="url(#linear-gradient-4)"/>
    <path d="M33.79,106.5a61.89,61.89,0,1,1,61.88,62A62,62,0,0,1,33.79,106.5Z" opacity="0.28" fill="url(#radial-gradient-2)"/>
  </g>
  <path d="M180.56,52.5s-2.1-.19-5.76,1.89-7.55,3.16-10.59,2.86-3.33,1.92-3.23,3.64-.1,4.63-5.08,9-14.41,11.77-14.49,17.43a3,3,0,0,1-3.54.34c-2-1.13-18.67-9.72-31-10.67a157.65,157.65,0,0,0-15.2-18.7c-8.93-9.36-10.74-9.93-13.13-10.55s-3.38-1.18-7.54-4S55,33.64,50.83,30.6s-8.07-8.08-12.17-11.25-5-3.63-6.55-6.08S30.2,11,28.64,11.4s-1.17,5.23.64,7.65a22.38,22.38,0,0,1,4.5,9c.69,3.61,1.74,4.62,3.75,4.94s4.09-1.33,8.94,4S56.59,51.2,62.8,53.75s9,3.92,10.58,5.11a20.92,20.92,0,0,1,6.08,7c2.24,4,8.94,11.2,10.45,16.66s0,7.73,2,11.16,6,6.5,7.88,8.34-.08,8.32-3.55,12.8-7.86,8.85-8.87,9.1.1-.13-.76-3.25a7.1,7.1,0,0,0-3.21-4.32s1-1.86,2.57-.67l1.92,1.48s-2.13-4.92-6.15-4.75c0,0,.21-1.06,2.55-1.71,0,0-2.86-1.6-5.12,2.38a2.13,2.13,0,0,0-2.53.91c-1,1.5-3.8,1-5.51,4.74s-2.41,2.85-4,5.48-1.52,7-1.52,7-2.54,2.75-2.64,5.53a4.51,4.51,0,0,0,2,4,4.13,4.13,0,0,1-.58-4.54s-.2,2.91,2.11,3.89l2.32,1s-4.2-3-2.61-5.09a14.59,14.59,0,0,0,2.43,1.88c1.76,1.16,3,2.5,4.68,3.21a11,11,0,0,1,.7,1.22l.41.87a28.27,28.27,0,0,1-4.68,4.29c-2.2,1.43-8.07,6-10,7.58s-3.2.8-4.78-.15-3.67-3.18-5.48-3.49-7.08.3-6,1,.28.89,1.05,1.2c1.2.49,2.56.63,3.82,1,.86.26,2.69,2.47,1.91,2.41s-2.6-.47-3-.13,1.68,1.5,3.41,2a15,15,0,0,1,4.11,1.87c1.58.95,3.27.35,5.4-1a71.83,71.83,0,0,1,8.32-4.76c2.91-1.29,10.11-5.68,12.75-9.09a5.28,5.28,0,0,0,1.56.11c1,0,1.51-2,1.87-2.78s.92-2.43,2-2.18a3,3,0,0,1-.3,1.27.41.41,0,0,0,.32.66s-2.7,4.72-4.27,6.93-4.49,6.34-5.66,6.8-8.49,7.26-13.27,10.47c-4,2.66-7.14,5.47-7.72,5.18-2.14-1.11-3.6-2.64-5.2-3.48-.86-.46-1.61-.87-6-.22a23.53,23.53,0,0,0-3,.34c-.49.21-.28.85,1.12,1a16,16,0,0,0,2.81.05c1.75.06.92.09-2.9.49-.76.08-1.52.32-.12.75a14.85,14.85,0,0,0,2.32.27c.73.1,3.24.15,2.64.2s-1.77.18-2.85.3-1.49.36-.67.7a8.83,8.83,0,0,0,3.22.24c.79-.06,2,.41,1.47.4a16.58,16.58,0,0,0-2.52,0c-.53.11-.36.37.12.73,1.05.41,3.15.69,4.61,1.38s4.72,3.16,6.29,2.49c1.83-.77,1.17-1.68,8.29-5.6,4.23-2.32,13-7.58,14.18-8.12s3.78-2.95,6.61-6.62,9.06-14,11.34-16.61a17,17,0,0,1,8.92-5.37,10,10,0,0,0,7-5.9c.94-2.28,4.19-7.54,5-12.4s-1.17-18.78-2-21.59c0,0,0-.69,1.93,0a121.69,121.69,0,0,0,19.25,3.84c6.3.5,8.38-.07,10.42-2.18a9.44,9.44,0,0,0,2.78-4.67c.88-2.73,4.13-7.3,5.54-9.63,3.93-6.5,6-10.62,8.46-13.78s4.46-4.18,6.5-6.29,5.06-5,6.19-6.26,2-1,3-2.31S182.2,52.67,180.56,52.5Z" fill="#fff"/>
  <path d="M150.32,143.49C137.75,122.19,112,92.1,70.51,98.21c-27.24,4-45.12,17.58-55.44,30.41,0,0-2.14,1.43-1.82,12A142.75,142.75,0,0,0,15.06,159c8.68-18.82,26.85-48.76,55.45-52.43,46.81-6,59,10.78,72.43,45.1,6.69,17.05,14.56,28.64,21.6,36.44a17.83,17.83,0,0,0,3.14-2.22,16.71,16.71,0,0,0,5.37-12.34v-1.24A132.47,132.47,0,0,1,150.32,143.49Z" fill="#fff" stroke="#fff" stroke-miterlimit="10" stroke-width="0.5"/>
  <g>
    <path d="M239.77,119.46q-2.19,3.41-7.58,6.26t-14,2.86a23.56,23.56,0,0,1-17.51-7q-6.93-7-6.93-18.14V90.82q0-11.11,6.67-18.14t17.22-7q10.2,0,16.13,5.44A17.49,17.49,0,0,1,239.52,85l-.09.25H231.5a12.83,12.83,0,0,0-3.61-9.3q-3.62-3.72-10.25-3.72a13.85,13.85,0,0,0-11.29,5.25q-4.29,5.25-4.29,13.31v12.68q0,8.14,4.54,13.42a14.6,14.6,0,0,0,11.59,5.27,21.47,21.47,0,0,0,8.58-1.41,12.37,12.37,0,0,0,4.73-3.34V103.59H217.64V97.12h22.13Z" fill="#dd713d"/>
    <path d="M266.81,110.86l1.47,5.71h.26l11.17-34.31h9.19l-19.1,52.4a23.48,23.48,0,0,1-4.94,8,11.34,11.34,0,0,1-8.67,3.4,17.14,17.14,0,0,1-2.56-.23c-1-.15-1.84-.3-2.4-.44l.84-6.51a13.91,13.91,0,0,1,1.5.09c1.16.08,1.89.12,2.2.12a5.13,5.13,0,0,0,4.33-2.35,25.14,25.14,0,0,0,2.81-5.2l2-4.75L248,82.26h9.24Z" fill="#dd713d"/>
    <path d="M303.56,82.26l.58,6a15.56,15.56,0,0,1,5.65-5,17,17,0,0,1,8-1.78,14.07,14.07,0,0,1,7.79,2.1,12.69,12.69,0,0,1,4.89,6.3,17,17,0,0,1,5.69-6.16,15,15,0,0,1,8.21-2.24,13.62,13.62,0,0,1,11,4.76q4,4.77,4,14.35v27.16h-8.27V100.44q0-6.72-2.31-9.51t-6.89-2.79A8.77,8.77,0,0,0,335,91.08a12.79,12.79,0,0,0-3.09,7.43v29.18h-8.31V100.44c0-4.25-.79-7.37-2.38-9.34a8.2,8.2,0,0,0-6.82-3,11.39,11.39,0,0,0-6.21,1.55,10,10,0,0,0-3.74,4.37v33.63h-8.27V82.26Z" fill="#dd713d"/>
    <path d="M378.72,82.26l.59,6.76A16.49,16.49,0,0,1,385,83.41a15.18,15.18,0,0,1,7.79-2q7.35,0,11.38,4.3t4,13.29v28.68h-8.27V99.18q0-6-2.37-8.52c-1.59-1.68-4-2.52-7.25-2.52a12.79,12.79,0,0,0-6.48,1.53A11.21,11.21,0,0,0,379.6,94v33.72h-8.27V82.26Z" fill="#dd713d"/>
    <path d="M448.14,127.69c-.28-1.37-.5-2.58-.65-3.63a25.74,25.74,0,0,1-.28-3.17,19.4,19.4,0,0,1-6,5.48,15.44,15.44,0,0,1-8,2.21q-7.1,0-10.82-3.64t-3.71-10a11.74,11.74,0,0,1,5.27-10.19q5.26-3.66,14.3-3.67h9V96.58a8.34,8.34,0,0,0-2.43-6.32c-1.63-1.56-3.92-2.33-6.89-2.33a10,10,0,0,0-6.51,2,6.07,6.07,0,0,0-2.48,4.83l-7.85.09L421,94.6q-.3-4.95,4.64-9.07t12.74-4.11q7.72,0,12.43,3.92t4.7,11.32v21.88a42,42,0,0,0,.26,4.7,23.3,23.3,0,0,0,.92,4.45Zm-13.74-6a14.73,14.73,0,0,0,8.11-2.31,11,11,0,0,0,4.7-5.29v-7.39h-9.28a12,12,0,0,0-8,2.52,7.53,7.53,0,0,0-3,5.92,6.21,6.21,0,0,0,1.89,4.78A7.89,7.89,0,0,0,434.4,121.65Z" fill="#dd713d"/>
    <path d="M493.91,115.47a5.54,5.54,0,0,0-2.08-4.45q-2.08-1.71-7.87-3-8-1.73-12.33-4.83a9.74,9.74,0,0,1-4.3-8.31,12,12,0,0,1,4.72-9.49q4.72-3.95,12.24-4,7.72,0,12.52,4.2t4.57,9.78l-.08.25h-7.9a7.17,7.17,0,0,0-2.58-5.33,9.25,9.25,0,0,0-6.53-2.39q-4.37,0-6.53,2a6.16,6.16,0,0,0-2.16,4.7,5,5,0,0,0,1.87,4.16q1.86,1.47,7.7,2.69,8.35,1.76,12.68,5a10,10,0,0,1,4.33,8.44,11.94,11.94,0,0,1-4.89,9.86q-4.89,3.82-12.79,3.83-8.69,0-13.69-4.41t-4.74-10.29l.08-.25h7.9a7.62,7.62,0,0,0,3.27,6.44,12.66,12.66,0,0,0,7.18,2,11.3,11.3,0,0,0,6.91-1.87A5.73,5.73,0,0,0,493.91,115.47Z" fill="#dd713d"/>
    <path d="M524,71.3v11h8.61v6.13H524V116c0,2.13.44,3.62,1.33,4.49a4.76,4.76,0,0,0,3.5,1.3,7.45,7.45,0,0,0,1.6-.19,10.84,10.84,0,0,0,1.47-.39l1.13,5.66a7.1,7.1,0,0,1-2.73,1.24,13.83,13.83,0,0,1-3.57.49,10.72,10.72,0,0,1-8-3.05q-3-3-3-9.55V88.39h-7.22V82.26h7.22v-11Z" fill="#dd713d"/>
    <path d="M550.39,70.63h-8.28V62.19h8.28Zm0,57.06h-8.28V82.26h8.28Z" fill="#dd713d"/>
    <path d="M581.17,122.11a9.74,9.74,0,0,0,6.67-2.54,8,8,0,0,0,2.86-6.24h7.47l.13.25q.16,5.88-5,10.44a17.79,17.79,0,0,1-12.09,4.56q-9.58,0-14.78-6.51t-5.21-16.21v-1.77q0-9.61,5.23-16.14t14.76-6.53a17.17,17.17,0,0,1,12.45,4.7,15,15,0,0,1,4.68,11.55l-.08.25H590.7A10,10,0,0,0,588,90.85a8.89,8.89,0,0,0-6.82-2.92q-6.09,0-8.88,4.72a22,22,0,0,0-2.8,11.44v1.77a22.6,22.6,0,0,0,2.75,11.55Q575,122.11,581.17,122.11Z" fill="#dd713d"/>
    <path d="M634.54,115.47a5.52,5.52,0,0,0-2.08-4.45q-2.09-1.71-7.87-3-8-1.73-12.33-4.83a9.74,9.74,0,0,1-4.3-8.31,12,12,0,0,1,4.72-9.49q4.73-3.95,12.24-4,7.73,0,12.52,4.2T642,95.4l-.08.25H634a7.19,7.19,0,0,0-2.59-5.33,9.25,9.25,0,0,0-6.53-2.39c-2.91,0-5.08.66-6.53,2a6.16,6.16,0,0,0-2.16,4.7,5,5,0,0,0,1.87,4.16c1.25,1,3.81,1.88,7.71,2.69q8.36,1.76,12.68,5a10.06,10.06,0,0,1,4.32,8.44,11.94,11.94,0,0,1-4.89,9.86q-4.89,3.82-12.79,3.83-8.68,0-13.69-4.41t-4.74-10.29l.08-.25h7.9c.14,2.94,1.23,5.08,3.27,6.44a12.68,12.68,0,0,0,7.18,2,11.28,11.28,0,0,0,6.91-1.87A5.71,5.71,0,0,0,634.54,115.47Z" fill="#dd713d"/>
  </g>
  <g>
    <path d="M649.39,127.69V66.55h20.66q10.79,0,16.84,4.2t6,12.56a13.25,13.25,0,0,1-2.24,7.58,13.64,13.64,0,0,1-6.53,5,12.93,12.93,0,0,1,8.25,5,15,15,0,0,1,2.75,8.94q0,8.77-5.79,13.29T673,127.69Zm12.26-35.52h8.82q4.9,0,7.56-2a6.94,6.94,0,0,0,2.64-5.88c0-2.82-.89-4.91-2.66-6.25s-4.43-2-8-2h-8.4Zm0,8.48v17.6H673q4.86,0,7.43-2.12a7.65,7.65,0,0,0,2.56-6.26q0-4.49-2.18-6.85c-1.46-1.58-3.75-2.37-6.89-2.37Z" fill="#dd713d"/>
    <path d="M716.45,71.38H704.19V62.19h12.26Zm0,56.31H704.19V82.26h12.26Z" fill="#dd713d"/>
    <path d="M740.22,118.25h22.51v9.44H725v-7.25L746.6,91.71h-21V82.26H762v7Z" fill="#dd713d"/>
  </g>
</svg>
