<svg id="All_Logos_outlined" data-name="All Logos outlined" xmlns="http://www.w3.org/2000/svg" xmlns:xlink="http://www.w3.org/1999/xlink" viewBox="0 0 400 320">
  <defs>
    <linearGradient id="linear-gradient" x1="312.64" y1="-431.14" x2="312.64" y2="-343.47" gradientTransform="translate(-112.64 498.04)" gradientUnits="userSpaceOnUse">
      <stop offset="0.01" stop-color="#e9e0af"/>
      <stop offset="0.15" stop-color="#e0d2a1"/>
      <stop offset="0.43" stop-color="#c8af7c"/>
      <stop offset="0.82" stop-color="#a27540"/>
      <stop offset="0.98" stop-color="#905a24"/>
    </linearGradient>
    <linearGradient id="linear-gradient-2" x1="351.83" y1="-321.66" x2="265.02" y2="-462.62" gradientTransform="translate(-112.64 498.04)" gradientUnits="userSpaceOnUse">
      <stop offset="0" stop-color="#b27d2b"/>
      <stop offset="0.23" stop-color="#c09744"/>
      <stop offset="0.53" stop-color="#ceb15d"/>
      <stop offset="0.79" stop-color="#d7c06d"/>
      <stop offset="1" stop-color="#dac672"/>
    </linearGradient>
    <linearGradient id="linear-gradient-3" x1="381.44" y1="-450.85" x2="264.55" y2="-399.28" gradientTransform="translate(-112.64 498.04)" gradientUnits="userSpaceOnUse">
      <stop offset="0.01" stop-color="#c2812a"/>
      <stop offset="0.9" stop-color="#e7ddbe"/>
      <stop offset="1" stop-color="#eeeadd"/>
    </linearGradient>
    <linearGradient id="linear-gradient-4" x1="210.42" y1="112.45" x2="273.96" y2="159.32" gradientUnits="userSpaceOnUse">
      <stop offset="0.01" stop-color="#b0882f"/>
      <stop offset="1" stop-color="#fff"/>
    </linearGradient>
    <linearGradient id="linear-gradient-5" x1="261.12" y1="-409.76" x2="235.06" y2="-434.82" gradientTransform="translate(-112.64 498.04)" gradientUnits="userSpaceOnUse">
      <stop offset="0" stop-color="#d5ad62"/>
      <stop offset="1" stop-color="#fff"/>
    </linearGradient>
    <radialGradient id="radial-gradient" cx="268.41" cy="-457.17" r="161.67" gradientTransform="translate(-290.25 164.13) rotate(45)" gradientUnits="userSpaceOnUse">
      <stop offset="0.48" stop-color="#fff"/>
      <stop offset="0.58" stop-color="#e8ddc3"/>
      <stop offset="0.69" stop-color="#d5c08f"/>
      <stop offset="0.78" stop-color="#c7ab6a"/>
      <stop offset="0.85" stop-color="#be9e53"/>
      <stop offset="0.9" stop-color="#bb994b"/>
      <stop offset="1" stop-color="#c09f55"/>
    </radialGradient>
  </defs>
  <title>musicbiz-vertical</title>
  <g>
    <g>
      <path d="M136.47,25.25a15.17,15.17,0,0,0-11.08,4.84,16.77,16.77,0,0,0-4.56,11.58V183.82c0,9.06,7,16.43,15.64,16.43H263.53c8.63,0,15.64-7.37,15.64-16.43V41.67a16.77,16.77,0,0,0-4.56-11.58,15.17,15.17,0,0,0-11.08-4.84Z" fill="url(#linear-gradient)"/>
      <path d="M274.12,183.82c0,6.28-4.74,11.38-10.59,11.38H136.47c-5.85,0-10.59-5.1-10.59-11.38V41.67c0-6.28,4.74-11.37,10.59-11.37H263.53c5.85,0,10.59,5.09,10.59,11.37Z" fill="url(#linear-gradient-2)"/>
      <path d="M263.53,30.3H136.47c-5.85,0-10.59,5.09-10.59,11.37V61.86c15.77,27.69,46,50.27,84,59.07a139.44,139.44,0,0,0,64.29.1V41.67C274.12,35.39,269.38,30.3,263.53,30.3Z" opacity="0.73" fill="url(#linear-gradient-3)"/>
      <path d="M265.51,38.26V176.35c0,6.28-4.82,11.38-10.77,11.38H157.55a9.75,9.75,0,0,0,7.79,4h93.75c5.54,0,10-4.82,10-10.76V46.52A11.06,11.06,0,0,0,265.51,38.26Z" opacity="0.25" fill="url(#linear-gradient-4)"/>
      <path d="M132.71,187.4V49.31c0-6.29,4.81-11.39,10.76-11.39h71.31a9.74,9.74,0,0,0-7.79-4H139.12c-5.53,0-10,4.81-10,10.75V179.13A11.05,11.05,0,0,0,132.71,187.4Z" opacity="0.5" fill="url(#linear-gradient-5)"/>
      <circle cx="201.62" cy="116.69" r="62.02" transform="translate(-23.46 176.74) rotate(-45)" opacity="0.24" fill="url(#radial-gradient)"/>
    </g>
    <path d="M153.51,182.88c3.57,6.32,17.13,26.5,31.67,17.37,0,0-67.94-52.94-12.39-103.25C172.79,97,125,132.36,153.51,182.88Z" fill="#fff"/>
    <path d="M236.7,34c-3.59-4.15-22.06-19.59-29.64-8.78,0,0,83.94,55.39,19.44,118.16C226.5,143.41,290,95.87,236.7,34Z" fill="#fff"/>
    <path d="M195.49,92.8q2.26,7.88,4.5,15.78c7-1.52,12.5-.28,16.42,2.63a21.39,21.39,0,0,1,8.25,13.15A23,23,0,0,1,222.24,141c-2.38,4.57-6.12,7.66-10.55,10.28,1.24,5.08,2.75,10.07,4,15.15a40.82,40.82,0,0,1,1.25,8.25,11.88,11.88,0,0,1-1.79,6.61,15.69,15.69,0,0,1-10.06,8,21.34,21.34,0,0,1-14.57-1.46c-3.74-1.81-6.92-5.32-6.58-11.46a10.58,10.58,0,0,1,2.33-6.17,8.45,8.45,0,0,1,6.22-3,8.75,8.75,0,0,1,9.17,8.51c.07,5.34-3.87,7.58-8.17,9.53-.08.23.23.39.35.5,2.29,2.12,7.64,2.66,11.76,1.12a15.3,15.3,0,0,0,8.23-7.66c1.71-3.54.73-9.4-.48-13.8s-2.48-8.85-3.63-13.26c-3.93,1.41-14.32,2.58-22.23-.87-5.94-2.58-11.07-6-14.71-11.3a36.65,36.65,0,0,1-5.08-13.4,32,32,0,0,1,.78-15,44.76,44.76,0,0,1,5.12-11.71c4.46-7.27,10.64-12.6,16.35-18.57a95.58,95.58,0,0,1-3-13.63,53.94,53.94,0,0,1-.53-14.19,35.41,35.41,0,0,1,3.51-11.13,34.58,34.58,0,0,1,2.68-4.84c.93-1.38,2.37-3.34,4.17-3.76a2.68,2.68,0,0,1,2.11.41c2,1.18,3.48,3.86,4.71,6,2.64,4.59,5.13,9.49,5.89,16.37A37.12,37.12,0,0,1,207.63,74a53.41,53.41,0,0,1-5,10.22c-.66,1.06-1.31,2.16-2,3.13A71,71,0,0,1,195.49,92.8Zm6.59-26.67a30.13,30.13,0,0,0,3.36-8.06c.71-3.14.23-7.36-1.53-9.84a4.26,4.26,0,0,0-4.64-1.81c-3,.58-4.7,3-5.82,5.33-3.34,6.89-4,17.5-1.66,27.5A54.32,54.32,0,0,0,202.08,66.13Zm-15.71,35.61c-4.54,5-8.52,10.35-10.84,17.17-1.15,3.41-2.29,7-1.79,11.49A20,20,0,0,0,178.2,141a26.65,26.65,0,0,0,18,9.86A31.3,31.3,0,0,0,209,149.31q-4.1-14.46-8.08-29a12.52,12.52,0,0,0-7.14,3.25,10.21,10.21,0,0,0-3,6.59,11.26,11.26,0,0,0,2.38,7.78,12.56,12.56,0,0,0,5.42,4.43,10.9,10.9,0,0,0-.77,1,17.77,17.77,0,0,1-8.69-5.9A17.18,17.18,0,0,1,185.19,126a18.35,18.35,0,0,1,4-10.25,18.88,18.88,0,0,1,8.71-6.49c-1.41-4.91-2.74-9.92-4.19-14.77A62.14,62.14,0,0,0,186.37,101.74Zm32.31,37.78c1.1-4.19,1-9-1.08-12.72A14.14,14.14,0,0,0,203,119.89c2.67,9.47,5.19,19.12,7.92,28.52A13.56,13.56,0,0,0,218.68,139.52Z" fill="#fff" fill-rule="evenodd"/>
  </g>
  <g>
    <g>
      <path d="M37.07,234.55l22.46,53.84h.25l22.55-53.84H89v61.14H84v-27l.42-26.75-.25-.08L61.42,295.69H57.94L35.26,242.11l-.25,0,.46,26.54v27h-5V234.55Z" fill="#b27d2b"/>
      <path d="M133.4,288.26a15.7,15.7,0,0,1-5.88,6.15,17,17,0,0,1-8.74,2.17c-4.78,0-8.54-1.63-11.25-4.88s-4.07-8.28-4.07-15.11V250.26h5v26.46q0,8.34,2.83,11.95a9.6,9.6,0,0,0,8,3.62q5.72,0,9.11-2.56a13.4,13.4,0,0,0,4.75-7.07v-32.4h5v45.43h-4.45Z" fill="#b27d2b"/>
      <path d="M178.71,284.12a7.32,7.32,0,0,0-2.63-5.57q-2.62-2.39-9.47-3.89-8.15-1.77-12-4.67a9.6,9.6,0,0,1-3.88-8.18,11,11,0,0,1,4.39-8.8q4.38-3.58,11.61-3.59,7.68,0,12.17,3.8a11.34,11.34,0,0,1,4.29,9.51l-.09.25h-4.66a8.39,8.39,0,0,0-3.17-6.51,12.55,12.55,0,0,0-8.54-2.77q-5.5,0-8.26,2.36a7.13,7.13,0,0,0-2.75,5.54,6.56,6.56,0,0,0,2.38,5.18q2.37,2,9.47,3.59,8.1,1.81,12.13,4.95a10.24,10.24,0,0,1,4,8.53,11.06,11.06,0,0,1-4.6,9.21q-4.59,3.51-12.15,3.52-8.28,0-13-3.95t-4.47-9.41l.08-.25h4.62a8.31,8.31,0,0,0,4,7.11,16.86,16.86,0,0,0,8.76,2.21c3.64,0,6.51-.79,8.61-2.39A7.05,7.05,0,0,0,178.71,284.12Z" fill="#b27d2b"/>
      <path d="M200.92,237.24h-5v-7.05h5Zm0,58.45h-5V250.26h5Z" fill="#b27d2b"/>
      <path d="M231.66,292.29a14.42,14.42,0,0,0,8.82-2.84,9.32,9.32,0,0,0,3.82-7.91h4.45l.08.25a12.45,12.45,0,0,1-5,10.54,18.73,18.73,0,0,1-12.13,4.25q-9.28,0-14.34-6.37t-5.06-16.35v-1.77q0-9.9,5.08-16.29t14.28-6.38a18.09,18.09,0,0,1,12.45,4.41,14.29,14.29,0,0,1,4.81,11.59l-.09.25H244.3a11.06,11.06,0,0,0-3.68-8.71,13.09,13.09,0,0,0-9-3.26q-7.31,0-10.82,5.22t-3.5,13.15v1.77q0,8.06,3.48,13.25T231.66,292.29Z" fill="#b27d2b"/>
    </g>
    <g>
      <path d="M261.19,295.69V234.55h20.66q10.78,0,16.83,4.2t6.05,12.56a13.25,13.25,0,0,1-2.25,7.58,13.57,13.57,0,0,1-6.52,5,13,13,0,0,1,8.25,5,15.07,15.07,0,0,1,2.75,8.95q0,8.78-5.8,13.29t-16.42,4.51Zm12.26-35.52h8.82q4.91,0,7.55-2a6.92,6.92,0,0,0,2.65-5.88c0-2.82-.89-4.91-2.67-6.25s-4.43-2-7.95-2h-8.4Zm0,8.48v17.6h11.29q4.88,0,7.44-2.12a7.68,7.68,0,0,0,2.56-6.26q0-4.49-2.19-6.85c-1.45-1.58-3.75-2.37-6.88-2.37Z" fill="#b27d2b"/>
      <path d="M328.25,239.38H316v-9.19h12.26Zm0,56.31H316V250.26h12.26Z" fill="#b27d2b"/>
      <path d="M352,286.25h22.5v9.44H336.77v-7.25l21.63-28.73h-21v-9.45h36.37v7Z" fill="#b27d2b"/>
    </g>
  </g>
</svg>
