<svg id="All_Logos_outlined" data-name="All Logos outlined" xmlns="http://www.w3.org/2000/svg" xmlns:xlink="http://www.w3.org/1999/xlink" viewBox="0 0 580 205.12">
  <defs>
    <linearGradient id="linear-gradient" x1="206.66" y1="-441.14" x2="206.66" y2="-353.47" gradientTransform="translate(-112.64 498.04)" gradientUnits="userSpaceOnUse">
      <stop offset="0.01" stop-color="#e9e0af"/>
      <stop offset="0.15" stop-color="#e0d2a1"/>
      <stop offset="0.43" stop-color="#c8af7c"/>
      <stop offset="0.82" stop-color="#a27540"/>
      <stop offset="0.98" stop-color="#905a24"/>
    </linearGradient>
    <linearGradient id="linear-gradient-2" x1="245.82" y1="-331.7" x2="159.07" y2="-472.56" gradientTransform="translate(-112.64 498.04)" gradientUnits="userSpaceOnUse">
      <stop offset="0" stop-color="#b27d2b"/>
      <stop offset="0.23" stop-color="#c09744"/>
      <stop offset="0.53" stop-color="#ceb15d"/>
      <stop offset="0.79" stop-color="#d7c06d"/>
      <stop offset="1" stop-color="#dac672"/>
    </linearGradient>
    <linearGradient id="linear-gradient-3" x1="275.35" y1="-460.81" x2="158.69" y2="-409.34" gradientTransform="translate(-112.64 498.04)" gradientUnits="userSpaceOnUse">
      <stop offset="0.01" stop-color="#c2812a"/>
      <stop offset="0.9" stop-color="#e7ddbe"/>
      <stop offset="1" stop-color="#eeeadd"/>
    </linearGradient>
    <linearGradient id="linear-gradient-4" x1="104.34" y1="102.4" x2="167.88" y2="149.27" gradientUnits="userSpaceOnUse">
      <stop offset="0.01" stop-color="#b0882f"/>
      <stop offset="1" stop-color="#fff"/>
    </linearGradient>
    <linearGradient id="linear-gradient-5" x1="155.24" y1="-419.72" x2="129.19" y2="-444.77" gradientTransform="translate(-112.64 498.04)" gradientUnits="userSpaceOnUse">
      <stop offset="0" stop-color="#d5ad62"/>
      <stop offset="1" stop-color="#fff"/>
    </linearGradient>
    <radialGradient id="radial-gradient" cx="162.43" cy="-467.17" r="161.67" gradientTransform="translate(-112.19 498.04)" gradientUnits="userSpaceOnUse">
      <stop offset="0.48" stop-color="#fff"/>
      <stop offset="0.58" stop-color="#e8ddc3"/>
      <stop offset="0.69" stop-color="#d5c08f"/>
      <stop offset="0.78" stop-color="#c7ab6a"/>
      <stop offset="0.85" stop-color="#be9e53"/>
      <stop offset="0.9" stop-color="#bb994b"/>
      <stop offset="1" stop-color="#c09f55"/>
    </radialGradient>
  </defs>
  <title>musicbiz-horizontal</title>
  <g>
    <path d="M30.63,15.25a15.12,15.12,0,0,0-11.06,4.84A16.8,16.8,0,0,0,15,31.67V173.82c0,9.06,7,16.43,15.61,16.43H157.41c8.61,0,15.61-7.37,15.61-16.43V31.67a16.76,16.76,0,0,0-4.55-11.58,15.12,15.12,0,0,0-11.06-4.84Z" fill="url(#linear-gradient)"/>
    <path d="M168,173.82c0,6.28-4.73,11.38-10.57,11.38H30.63c-5.84,0-10.57-5.1-10.57-11.38V31.67c0-6.28,4.73-11.37,10.57-11.37H157.41c5.84,0,10.57,5.09,10.57,11.37Z" fill="url(#linear-gradient-2)"/>
    <path d="M157.41,20.3H30.63c-5.84,0-10.57,5.09-10.57,11.37V51.86C35.8,79.55,66,102.13,103.83,110.93A138.84,138.84,0,0,0,168,111V31.67C168,25.39,163.25,20.3,157.41,20.3Z" opacity="0.73" fill="url(#linear-gradient-3)"/>
    <path d="M159.39,28.26V166.35c0,6.28-4.81,11.38-10.74,11.38h-97a9.74,9.74,0,0,0,7.78,4H153c5.52,0,10-4.82,10-10.76V36.52A11.09,11.09,0,0,0,159.39,28.26Z" opacity="0.25" fill="url(#linear-gradient-4)"/>
    <path d="M26.87,177.4V39.31c0-6.29,4.81-11.39,10.74-11.39h71.16a9.72,9.72,0,0,0-7.78-4H33.27c-5.52,0-10,4.81-10,10.75V169.13A11.11,11.11,0,0,0,26.87,177.4Z" opacity="0.5" fill="url(#linear-gradient-5)"/>
    <ellipse cx="95.64" cy="106.69" rx="61.89" ry="62.02" opacity="0.24" fill="url(#radial-gradient)"/>
  </g>
  <path d="M47.53,172.88c3.57,6.32,17.13,26.5,31.67,17.37,0,0-67.94-52.94-12.39-103.25C66.81,87,19,122.36,47.53,172.88Z" fill="#fff"/>
  <path d="M130.72,24c-3.59-4.15-22.06-19.59-29.63-8.78,0,0,83.93,55.39,19.44,118.16C120.53,133.41,184.06,85.87,130.72,24Z" fill="#fff"/>
  <path d="M89.52,82.8Q91.79,90.68,94,98.58c7-1.52,12.5-.28,16.42,2.63a21.39,21.39,0,0,1,8.25,13.15A23,23,0,0,1,116.26,131c-2.38,4.57-6.12,7.66-10.55,10.28,1.24,5.08,2.75,10.07,4,15.15a40.82,40.82,0,0,1,1.25,8.25,11.88,11.88,0,0,1-1.79,6.61,15.69,15.69,0,0,1-10.06,8,21.3,21.3,0,0,1-14.56-1.46c-3.75-1.81-6.93-5.32-6.59-11.46a10.58,10.58,0,0,1,2.33-6.17,8.45,8.45,0,0,1,6.22-3,8.75,8.75,0,0,1,9.17,8.51c.07,5.34-3.87,7.58-8.17,9.53-.08.23.23.39.35.5,2.29,2.12,7.64,2.66,11.76,1.12a15.3,15.3,0,0,0,8.23-7.66c1.71-3.54.73-9.4-.48-13.8s-2.48-8.85-3.62-13.26c-3.94,1.41-14.33,2.58-22.24-.87-5.93-2.58-11.07-6-14.71-11.3a36.46,36.46,0,0,1-5.07-13.4,31.87,31.87,0,0,1,.77-15A44.76,44.76,0,0,1,67.6,89.8C72.07,82.53,78.24,77.2,84,71.23a97,97,0,0,1-3-13.63,53.94,53.94,0,0,1-.53-14.19,35.41,35.41,0,0,1,3.51-11.13,34.58,34.58,0,0,1,2.68-4.84c.93-1.38,2.37-3.34,4.17-3.76a2.72,2.72,0,0,1,2.12.41c1.94,1.18,3.47,3.86,4.7,6,2.64,4.59,5.13,9.49,5.89,16.37A37,37,0,0,1,101.65,64a53.41,53.41,0,0,1-5,10.22c-.66,1.06-1.3,2.16-2,3.13A72.93,72.93,0,0,1,89.52,82.8ZM96.1,56.13a29.81,29.81,0,0,0,3.36-8.06c.72-3.14.23-7.36-1.53-9.84a4.26,4.26,0,0,0-4.64-1.81c-3,.58-4.7,3-5.82,5.33-3.34,6.89-4,17.5-1.66,27.5A54.32,54.32,0,0,0,96.1,56.13ZM80.39,91.74c-4.54,5-8.52,10.35-10.83,17.17-1.16,3.41-2.3,7-1.8,11.49A20,20,0,0,0,72.22,131a26.64,26.64,0,0,0,18,9.86,31.27,31.27,0,0,0,12.8-1.51q-4.1-14.46-8.07-29a12.52,12.52,0,0,0-7.15,3.25,10.21,10.21,0,0,0-3,6.59,11.26,11.26,0,0,0,2.38,7.78,12.59,12.59,0,0,0,5.43,4.43,11,11,0,0,0-.78,1,17.81,17.81,0,0,1-8.69-5.9A17.23,17.23,0,0,1,79.21,116a18.35,18.35,0,0,1,4-10.25,18.88,18.88,0,0,1,8.71-6.49c-1.41-4.91-2.74-9.92-4.19-14.77A62.14,62.14,0,0,0,80.39,91.74Zm32.31,37.78c1.11-4.19,1-9-1.08-12.72A14.12,14.12,0,0,0,97,109.89c2.67,9.47,5.2,19.12,7.92,28.52A13.56,13.56,0,0,0,112.7,129.52Z" fill="#fff" fill-rule="evenodd"/>
  <g>
    <path d="M226.12,116.23h.26L245.9,66.55h10.29v61.14h-8.27V81.88l-.25,0-18.52,45.85h-5.76L204.33,80.33l-.25,0v47.32h-8.27V66.55h10.87Z" fill="#b27d2b"/>
    <path d="M298.22,121a15.26,15.26,0,0,1-5.5,5.63,15,15,0,0,1-7.77,2q-7.43,0-11.59-4.75t-4.15-14.78V82.26h8.27v26.87q0,7.28,2.14,10c1.43,1.82,3.65,2.73,6.68,2.73a13.56,13.56,0,0,0,7.28-1.79,11.13,11.13,0,0,0,4.35-5.06V82.26h8.27v45.43h-7.43Z" fill="#b27d2b"/>
    <path d="M344.67,115.47a5.53,5.53,0,0,0-2.08-4.45c-1.39-1.15-4-2.15-7.87-3q-8-1.73-12.33-4.83a9.74,9.74,0,0,1-4.3-8.31,12,12,0,0,1,4.72-9.49q4.72-4,12.24-4,7.72,0,12.51,4.2t4.58,9.78l-.08.25h-7.9a7.17,7.17,0,0,0-2.58-5.33,9.21,9.21,0,0,0-6.53-2.39q-4.37,0-6.53,2a6.16,6.16,0,0,0-2.16,4.7,5,5,0,0,0,1.87,4.16q1.86,1.47,7.7,2.69,8.35,1.76,12.68,5a10,10,0,0,1,4.33,8.44,11.94,11.94,0,0,1-4.89,9.86q-4.89,3.82-12.79,3.83-8.68,0-13.69-4.41t-4.74-10.29l.08-.25h7.9a7.62,7.62,0,0,0,3.27,6.44,12.66,12.66,0,0,0,7.18,2,11.3,11.3,0,0,0,6.91-1.87A5.73,5.73,0,0,0,344.67,115.47Z" fill="#b27d2b"/>
    <path d="M372.17,70.63H363.9V62.19h8.27Zm0,57.06H363.9V82.26h8.27Z" fill="#b27d2b"/>
    <path d="M403,122.11a9.76,9.76,0,0,0,6.68-2.54,8,8,0,0,0,2.85-6.24H420l.13.25q.17,5.88-5,10.44a17.83,17.83,0,0,1-12.1,4.56q-9.57,0-14.78-6.51T383,105.86v-1.77q0-9.61,5.23-16.14T403,81.42a17.15,17.15,0,0,1,12.45,4.7,14.92,14.92,0,0,1,4.69,11.55l-.09.25h-7.52a10,10,0,0,0-2.7-7.07A8.91,8.91,0,0,0,403,87.93q-6.09,0-8.88,4.72a22.14,22.14,0,0,0-2.79,11.44v1.77A22.6,22.6,0,0,0,394,117.41Q396.78,122.11,403,122.11Z" fill="#b27d2b"/>
  </g>
  <g>
    <path d="M427.4,127.69V66.55h20.66q10.79,0,16.84,4.2t6,12.56a13.25,13.25,0,0,1-2.24,7.58,13.64,13.64,0,0,1-6.53,5,12.93,12.93,0,0,1,8.25,5,15,15,0,0,1,2.75,8.94q0,8.77-5.79,13.29T451,127.69Zm12.26-35.52h8.82q4.9,0,7.56-2a6.94,6.94,0,0,0,2.64-5.88c0-2.82-.89-4.91-2.66-6.25s-4.43-2-8-2h-8.4Zm0,8.48v17.6H451q4.86,0,7.43-2.12a7.65,7.65,0,0,0,2.56-6.26q0-4.49-2.18-6.85t-6.89-2.37Z" fill="#b27d2b"/>
    <path d="M494.46,71.38H482.2V62.19h12.26Zm0,56.31H482.2V82.26h12.26Z" fill="#b27d2b"/>
    <path d="M518.23,118.25h22.51v9.44H503v-7.25l21.63-28.73H503.66V82.26H540v7Z" fill="#b27d2b"/>
  </g>
</svg>
