<svg id="All_Logos_outlined" data-name="All Logos outlined" xmlns="http://www.w3.org/2000/svg" xmlns:xlink="http://www.w3.org/1999/xlink" viewBox="0 0 600 205.12">
  <defs>
    <linearGradient id="linear-gradient" x1="94.09" y1="129.75" x2="94.09" y2="20.02" gradientUnits="userSpaceOnUse">
      <stop offset="0" stop-color="#b01117"/>
      <stop offset="0.08" stop-color="#b8262a"/>
      <stop offset="0.32" stop-color="#cb5e5b"/>
      <stop offset="0.53" stop-color="#db8a82"/>
      <stop offset="0.73" stop-color="#e6aa9e"/>
      <stop offset="0.89" stop-color="#edbdaf"/>
      <stop offset="1" stop-color="#efc4b5"/>
    </linearGradient>
    <linearGradient id="linear-gradient-2" x1="171.4" y1="170.21" x2="75.3" y2="86.12" gradientUnits="userSpaceOnUse">
      <stop offset="0" stop-color="#640000"/>
      <stop offset="0.09" stop-color="#720506"/>
      <stop offset="0.34" stop-color="#921114"/>
      <stop offset="0.58" stop-color="#a9191e"/>
      <stop offset="0.8" stop-color="#b71e24"/>
      <stop offset="1" stop-color="#bc2026"/>
    </linearGradient>
    <linearGradient id="linear-gradient-3" x1="176.89" y1="77.58" x2="18.63" y2="35.5" gradientUnits="userSpaceOnUse">
      <stop offset="0" stop-color="#98090d"/>
      <stop offset="1" stop-color="#fff0e9"/>
    </linearGradient>
    <linearGradient id="linear-gradient-4" x1="137.59" y1="144.29" x2="150.62" y2="161.32" gradientUnits="userSpaceOnUse">
      <stop offset="0" stop-color="#98090d"/>
      <stop offset="0.44" stop-color="#c87c7e"/>
      <stop offset="0.83" stop-color="#f0dadb"/>
      <stop offset="1" stop-color="#fff"/>
    </linearGradient>
    <linearGradient id="linear-gradient-5" x1="68.86" y1="107.86" x2="24.77" y2="74.79" gradientUnits="userSpaceOnUse">
      <stop offset="0" stop-color="#b01117"/>
      <stop offset="0.43" stop-color="#d47c80"/>
      <stop offset="0.82" stop-color="#f3dadb"/>
      <stop offset="1" stop-color="#fff"/>
    </linearGradient>
    <radialGradient id="radial-gradient" cx="47.85" cy="72.96" r="111.69" gradientTransform="translate(0 -0.22)" gradientUnits="userSpaceOnUse">
      <stop offset="0.01" stop-color="#fff"/>
      <stop offset="0.28" stop-color="#fff"/>
      <stop offset="0.35" stop-color="#fcf9f9"/>
      <stop offset="0.44" stop-color="#f3e8e8"/>
      <stop offset="0.56" stop-color="#e5cbcc"/>
      <stop offset="0.68" stop-color="#d2a4a5"/>
      <stop offset="0.81" stop-color="#b97173"/>
      <stop offset="0.94" stop-color="#9b3536"/>
      <stop offset="1" stop-color="#8d191b"/>
    </radialGradient>
  </defs>
  <title>sportsbiz-horizontal</title>
  <g>
    <path d="M30.69,15.06A15.16,15.16,0,0,0,19.63,19.9a16.79,16.79,0,0,0-4.54,11.58V173.64a16.77,16.77,0,0,0,4.54,11.58,15.16,15.16,0,0,0,11.06,4.84H157.48c8.61,0,15.61-7.37,15.61-16.42V31.48a16.76,16.76,0,0,0-4.55-11.58,15.12,15.12,0,0,0-11.06-4.84Z" fill="url(#linear-gradient)"/>
    <path d="M168.05,173.64c0,6.28-4.73,11.37-10.57,11.37H30.69c-5.83,0-10.56-5.09-10.56-11.37V31.48c0-6.28,4.73-11.37,10.56-11.37H157.48c5.84,0,10.57,5.09,10.57,11.37Z" fill="url(#linear-gradient-2)"/>
    <path d="M157.48,20.11H30.69c-5.83,0-10.56,5.09-10.56,11.37V51.67C35.87,79.36,66,101.94,103.9,110.75a139,139,0,0,0,64.15.1V31.48C168.05,25.2,163.32,20.11,157.48,20.11Z" fill="url(#linear-gradient-3)"/>
    <path d="M159.7,28.18V166.27c0,6.29-4.8,11.39-10.73,11.39H52a9.71,9.71,0,0,0,7.77,4H153.3c5.53,0,10-4.81,10-10.76V36.44A11.06,11.06,0,0,0,159.7,28.18Z" opacity="0.2" fill="url(#linear-gradient-4)"/>
    <path d="M27.19,177.32V39.23c0-6.29,4.8-11.39,10.74-11.39H95.75a9.71,9.71,0,0,0-7.77-4H33.59c-5.53,0-10,4.82-10,10.76V169.06A11.06,11.06,0,0,0,27.19,177.32Z" opacity="0.47" fill="url(#linear-gradient-5)"/>
    <path d="M33.56,107.77a61.89,61.89,0,1,1,61.89,62A62,62,0,0,1,33.56,107.77Z" opacity="0.24" fill="url(#radial-gradient)"/>
  </g>
  <path d="M14.93,177.81s143.83-47.54,157.83-65.54-54.84-23.33-54.84-23.33,60.23,8.61,48.84,20c-15.34,15.33-151.33,51.12-151.33,51.12S6.09,167.81,14.93,177.81Z" fill="#fff"/>
  <path d="M129.35,48.54A50.19,50.19,0,0,0,126,43.59c-2.61-3.66-1.82,1,0,4.17s0,7.73-.52,5.91A26.08,26.08,0,0,0,125,50.8c-.09-.29-.29-.85-.44-1.22-1-2.6-.72-.76-1.22,3.39-.78,6.52.82,5.23.26,7.83-.78,3.65-.78,4.43-2.08,7.3l-2.61,5.74c-.52-2.61-2.44-6.09-2.35-9.22a11.61,11.61,0,0,0-4.34-9.21h0a4.62,4.62,0,0,0-2.32-1.19c-2-.41-4.55-.18-5.51-.87s-1.45-.59-.91-2.91a11.11,11.11,0,0,0,3.82,0c1.37-.41.82-1,1.1-1.55a11.19,11.19,0,0,0,1.23-4.23l1.22-.82s-.13-2-.13-2.73.13-1.36.54-1.5-.13-2.18-.13-2.18-.14-2.59-.14-3.28-.41-2.18-2.73-3.54-5.19-1.51-8.87-1.09-4.64,3-5.87,5.18-.41,5.32-.14,7.23a10.87,10.87,0,0,1-1.16,6.51,5.47,5.47,0,0,0-2.79-.91c-1.5,0-2.73.27-4.1.14s-3.68-1.5-6.55-1.5-3.68,1-5.32,1a45.13,45.13,0,0,0-8,.68c-2.32.55-5.59.21-7.09,1.16s-6.66,6.54-9.39,10.09-5.91,9.5-7,11.27-3.49,3.46-5,6.46-.6,6.64-.6,8.14,1.5-.54,2.59-2.86a16.19,16.19,0,0,1,3.22-4.76c.69-.54-.37,3,.18,4s1.51-2.25,2.74-3.75,2.05-3.27,1.78-4.36-.41-2.6,1.77-4.51,8.95-7.58,10.28-9.32c1.19-1.55,2.55-3.46,3.23-3.51a11.71,11.71,0,0,1,5,.55c2.36.64,5,.44,7.31,1.26s2.24.51,2.24,3.52-1.22,7-1.22,11.19-1.23,6.14-1.78,9-.27,4.51-1.23,4.65-3.82,1.5-5.87,5.73-3,8.87-2.18,11.73a18.42,18.42,0,0,0,3.28,5.74,10,10,0,0,1-2.32,2.45c-1.37,1-4.1,5-4.78,6.83a12.73,12.73,0,0,1-2.73,4.64l-.27.68a43.79,43.79,0,0,0-3.41,4.09c-1.23,1.78-.82,2.46-3.69,1.78s-8.32-1.23-10.51.82-2.32,1.36-6.41,1.91-3.69.54-3.82-.28a6,6,0,0,0-4.1-3.82c-2.59-.68-3.55,2.32-4.23,3.41s-2.32,4.78-4.91,5.46-3.55,2.87-4.23,5.46-.14,4.1,1.23,4.51a4.54,4.54,0,0,0,4.36-1.64c1.23-1.37,2.19-3.69,4-3.69s2.6.14,2.87-.27.82-.54,1.91-.13,1.36-.14.82-.41-2.6-.42-3-.82,1.36-.41,3.68-.69,8.46-.41,13.51-.41a68.14,68.14,0,0,1,9.28.69c1.64.13,4,1.09,5.87.13a6.28,6.28,0,0,0,2.73-2.73,38.8,38.8,0,0,1,5.32-4.09l1-.14a70,70,0,0,0,15.83-16l3.27,2.18s-.41-.55,1,.14,3.55,1.77,3.68,3-2.45,5.87-2.73,8.87,1.64,11.87,2.73,19,1.09,10.78,0,12.14a10.24,10.24,0,0,0-1.91,6c.14,1.91,0,3.68,1.37,4.23s4.09,0,5.87,1.77,5,2.87,10.78,2.32,7.09-2.86,6.82-4.5-3.28-1.23-4.23-1.23-2.59-1.22-3.82-2.18-1.91-1.37-1.91-2.46a3.21,3.21,0,0,0-1.23-2.73c-1-.82-.82-2.32-1.64-2.32h-.82a21.5,21.5,0,0,1-.95-5.59c-.27-3.83.95-19.38,1.23-25a26,26,0,0,1,2.18-10c.68-1.64,1.37-4.91-.27-7a73.48,73.48,0,0,0-6.14-6s.54-.27-3-3.54l-.54-.41s.54-1.91.82-3.28S93.94,93,96.4,90s4.36-8.32,6.82-12.83,3.55-8.05,4.09-9a4.86,4.86,0,0,1,1.37-1.5s0,3.95,1.09,6a89.59,89.59,0,0,1,4,8,17,17,0,0,0,2.57,4.6c1.46,2,3.16,3.28,4.71,2.36,2.6-1.57,5.21-7.3,5.73-13.3s1.05-10.43,2.09-14.08S132.22,53,129.35,48.54Z" fill="#fff"/>
  <g>
    <path d="M228.39,112.28a9.2,9.2,0,0,0-3-7q-3-2.81-10.5-4.78-9.32-2.31-14.55-6.81a14.28,14.28,0,0,1-5.23-11.29,15.08,15.08,0,0,1,5.63-12q5.63-4.78,14.61-4.79,9.66,0,15.39,5.48a16.63,16.63,0,0,1,5.57,12.79l-.13.25h-7.89a11.27,11.27,0,0,0-3.64-8.61,13,13,0,0,0-9.3-3.4q-5.79,0-8.88,2.81a9.44,9.44,0,0,0-3.08,7.31A8.15,8.15,0,0,0,206.79,89q3.38,2.66,11,4.68,9.24,2.39,14.06,7a15.37,15.37,0,0,1,4.83,11.51,14.28,14.28,0,0,1-5.81,11.88q-5.82,4.5-15.18,4.5a25.83,25.83,0,0,1-15.64-5,15.09,15.09,0,0,1-6.58-13.27l.09-.25h7.89A10.27,10.27,0,0,0,205.8,119a16.5,16.5,0,0,0,9.87,3.13q5.88,0,9.3-2.65A8.58,8.58,0,0,0,228.39,112.28Z" fill="#b01117"/>
    <path d="M286,106.7q0,9.83-4.7,15.85t-13,6a18,18,0,0,1-7.37-1.41,14.15,14.15,0,0,1-5.39-4.22v22.21h-8.27V82.26h6.34l1.3,5.88a15,15,0,0,1,5.54-5,16.53,16.53,0,0,1,7.73-1.72,15.09,15.09,0,0,1,13.12,6.7q4.68,6.69,4.68,17.7Zm-8.27-.88q0-7.72-3.05-12.71a9.85,9.85,0,0,0-9-5,11.1,11.1,0,0,0-6.09,1.61,12.09,12.09,0,0,0-4.07,4.43v22a11.64,11.64,0,0,0,4.07,4.38,11.43,11.43,0,0,0,6.17,1.58q5.88,0,8.91-4.3t3-11.11Z" fill="#b01117"/>
    <path d="M294.19,104.56q0-10.08,5.46-16.61t14.82-6.53q9.45,0,14.93,6.51t5.48,16.63v.92q0,10.17-5.46,16.63t-14.86,6.47q-9.4,0-14.89-6.49t-5.48-16.61Zm8.28.92q0,7.23,3,11.93a11,11,0,0,0,18,0q3.06-4.71,3.06-11.93v-.92a21.39,21.39,0,0,0-3.09-11.89,10.11,10.11,0,0,0-9-4.74,10,10,0,0,0-9,4.74,21.63,21.63,0,0,0-3,11.89Z" fill="#b01117"/>
    <path d="M366.5,89.57l-4.24-.26a9.45,9.45,0,0,0-5.52,1.56,9.91,9.91,0,0,0-3.46,4.36v32.46H345V82.26h7.39l.8,6.63a15.85,15.85,0,0,1,4.77-5.5,11.17,11.17,0,0,1,6.53-2,10,10,0,0,1,1.76.15,11,11,0,0,1,1.39.31Z" fill="#b01117"/>
    <path d="M387.33,71.3v11h8.61v6.13h-8.61V116c0,2.13.44,3.62,1.32,4.49a4.79,4.79,0,0,0,3.51,1.3,7.45,7.45,0,0,0,1.6-.19,11.7,11.7,0,0,0,1.47-.39l1.13,5.66a7.25,7.25,0,0,1-2.73,1.24,13.83,13.83,0,0,1-3.57.49,10.72,10.72,0,0,1-8-3.05q-3-3-3-9.55V88.39h-7.22V82.26h7.22v-11Z" fill="#b01117"/>
    <path d="M431.21,115.47a5.54,5.54,0,0,0-2.07-4.45q-2.08-1.71-7.88-3-8-1.73-12.32-4.83a9.75,9.75,0,0,1-4.31-8.31,12,12,0,0,1,4.73-9.49q4.72-3.95,12.24-4,7.72,0,12.51,4.2t4.58,9.78l-.09.25h-7.89a7.17,7.17,0,0,0-2.58-5.33,9.27,9.27,0,0,0-6.53-2.39c-2.92,0-5.09.66-6.53,2a6.17,6.17,0,0,0-2.17,4.7,5,5,0,0,0,1.87,4.16q1.88,1.47,7.71,2.69,8.36,1.76,12.68,5a10.07,10.07,0,0,1,4.33,8.44,12,12,0,0,1-4.9,9.86q-4.89,3.82-12.78,3.83-8.7,0-13.69-4.41t-4.75-10.29l.09-.25h7.89c.14,2.94,1.23,5.08,3.28,6.44a12.63,12.63,0,0,0,7.18,2,11.3,11.3,0,0,0,6.91-1.87A5.72,5.72,0,0,0,431.21,115.47Z" fill="#b01117"/>
  </g>
  <g>
    <path d="M446.4,127.69V66.55h20.66q10.79,0,16.84,4.2T490,83.31a13.25,13.25,0,0,1-2.25,7.58,13.64,13.64,0,0,1-6.53,5,12.93,12.93,0,0,1,8.25,5,15,15,0,0,1,2.75,8.94q0,8.77-5.79,13.29T470,127.69Zm12.26-35.52h8.82c3.28,0,5.79-.67,7.56-2a6.94,6.94,0,0,0,2.64-5.88c0-2.82-.88-4.91-2.66-6.25s-4.43-2-8-2h-8.4Zm0,8.48v17.6H470q4.86,0,7.43-2.12a7.65,7.65,0,0,0,2.56-6.26q0-4.49-2.18-6.85c-1.46-1.58-3.75-2.37-6.89-2.37Z" fill="#b01117"/>
    <path d="M513.46,71.38H501.2V62.19h12.26Zm0,56.31H501.2V82.26h12.26Z" fill="#b01117"/>
    <path d="M537.23,118.25h22.51v9.44H522v-7.25l21.62-28.73h-21V82.26H559v7Z" fill="#b01117"/>
  </g>
</svg>
