<svg id="All_Logos_outlined" data-name="All Logos outlined" xmlns="http://www.w3.org/2000/svg" xmlns:xlink="http://www.w3.org/1999/xlink" viewBox="0 0 400 320">
  <defs>
    <linearGradient id="linear-gradient" x1="201.21" y1="139.74" x2="201.21" y2="30.24" gradientUnits="userSpaceOnUse">
      <stop offset="0" stop-color="#b01117"/>
      <stop offset="0.08" stop-color="#b8262a"/>
      <stop offset="0.32" stop-color="#cb5e5b"/>
      <stop offset="0.53" stop-color="#db8a82"/>
      <stop offset="0.73" stop-color="#e6aa9e"/>
      <stop offset="0.89" stop-color="#edbdaf"/>
      <stop offset="1" stop-color="#efc4b5"/>
    </linearGradient>
    <linearGradient id="linear-gradient-2" x1="278.44" y1="180.18" x2="182.44" y2="96.19" gradientUnits="userSpaceOnUse">
      <stop offset="0" stop-color="#640000"/>
      <stop offset="0.09" stop-color="#720506"/>
      <stop offset="0.34" stop-color="#921114"/>
      <stop offset="0.58" stop-color="#a9191e"/>
      <stop offset="0.8" stop-color="#b71e24"/>
      <stop offset="1" stop-color="#bc2026"/>
    </linearGradient>
    <linearGradient id="linear-gradient-3" x1="283.99" y1="87.7" x2="125.77" y2="45.63" gradientUnits="userSpaceOnUse">
      <stop offset="0" stop-color="#98090d"/>
      <stop offset="1" stop-color="#fff0e9"/>
    </linearGradient>
    <linearGradient id="linear-gradient-4" x1="244.68" y1="154.3" x2="257.68" y2="171.3" gradientUnits="userSpaceOnUse">
      <stop offset="0" stop-color="#98090d"/>
      <stop offset="0.44" stop-color="#c87c7e"/>
      <stop offset="0.83" stop-color="#f0dadb"/>
      <stop offset="1" stop-color="#fff"/>
    </linearGradient>
    <linearGradient id="linear-gradient-5" x1="175.92" y1="117.86" x2="131.91" y2="84.86" gradientUnits="userSpaceOnUse">
      <stop offset="0" stop-color="#b01117"/>
      <stop offset="0.43" stop-color="#d47c80"/>
      <stop offset="0.82" stop-color="#f3dadb"/>
      <stop offset="1" stop-color="#fff"/>
    </linearGradient>
    <radialGradient id="radial-gradient" cx="154.97" cy="83" r="111.69" gradientUnits="userSpaceOnUse">
      <stop offset="0.01" stop-color="#fff"/>
      <stop offset="0.28" stop-color="#fff"/>
      <stop offset="0.35" stop-color="#fcf9f9"/>
      <stop offset="0.44" stop-color="#f3e8e8"/>
      <stop offset="0.56" stop-color="#e5cbcc"/>
      <stop offset="0.68" stop-color="#d2a4a5"/>
      <stop offset="0.81" stop-color="#b97173"/>
      <stop offset="0.94" stop-color="#9b3536"/>
      <stop offset="1" stop-color="#8d191b"/>
    </radialGradient>
  </defs>
  <title>sportsbiz-vertical</title>
  <g>
    <g>
      <path d="M137.81,25.3a15.13,15.13,0,0,0-11.06,4.83,16.71,16.71,0,0,0-4.55,11.55V183.53a16.73,16.73,0,0,0,4.55,11.56,15.17,15.17,0,0,0,11.06,4.83H264.6c8.61,0,15.61-7.35,15.61-16.39V41.68a16.71,16.71,0,0,0-4.55-11.55A15.11,15.11,0,0,0,264.6,25.3Z" fill="url(#linear-gradient)"/>
      <path d="M275.17,183.53c0,6.26-4.73,11.35-10.57,11.35H137.81c-5.83,0-10.57-5.09-10.57-11.35V41.68c0-6.26,4.74-11.35,10.57-11.35H264.6c5.84,0,10.57,5.09,10.57,11.35Z" fill="url(#linear-gradient-2)"/>
      <path d="M264.6,30.33H137.81c-5.83,0-10.57,5.09-10.57,11.35V61.83C143,89.46,173.16,112,211,120.78a139.38,139.38,0,0,0,64.15.09V41.68C275.17,35.42,270.44,30.33,264.6,30.33Z" fill="url(#linear-gradient-3)"/>
      <path d="M266.82,38.39V176.18c0,6.27-4.8,11.36-10.74,11.36h-97a9.71,9.71,0,0,0,7.77,4h93.55c5.53,0,10-4.81,10-10.74V46.63A11,11,0,0,0,266.82,38.39Z" opacity="0.2" fill="url(#linear-gradient-4)"/>
      <path d="M134.31,187.2V49.41c0-6.27,4.8-11.36,10.74-11.36h57.82a9.71,9.71,0,0,0-7.77-4H140.71c-5.53,0-10,4.81-10,10.74V179A11,11,0,0,0,134.31,187.2Z" opacity="0.47" fill="url(#linear-gradient-5)"/>
      <path d="M140.68,117.8a61.89,61.89,0,1,1,61.89,61.89A61.89,61.89,0,0,1,140.68,117.8Z" opacity="0.24" fill="url(#radial-gradient)"/>
    </g>
    <path d="M122,187.81s143.84-47.54,157.84-65.54S225,98.94,225,98.94s60.23,8.61,48.84,20c-15.34,15.33-151.34,51.12-151.34,51.12S113.21,177.81,122,187.81Z" fill="#fff"/>
    <path d="M236.47,58.54a50.19,50.19,0,0,0-3.39-4.95c-2.61-3.66-1.82,1,0,4.17s0,7.73-.52,5.91a24.37,24.37,0,0,0-.44-2.87c-.08-.29-.28-.85-.43-1.22-1-2.6-.72-.76-1.22,3.39-.78,6.52.82,5.23.26,7.83-.78,3.65-.78,4.43-2.08,7.3L226,83.84c-.52-2.61-2.44-6.09-2.35-9.22a11.61,11.61,0,0,0-4.34-9.21h0A4.62,4.62,0,0,0,217,64.23c-2.05-.41-4.55-.18-5.51-.87s-1.45-.59-.91-2.91a11.11,11.11,0,0,0,3.82,0c1.37-.41.82-1,1.1-1.55a11.19,11.19,0,0,0,1.23-4.23l1.22-.82s-.13-2-.13-2.73.13-1.36.54-1.5-.13-2.18-.13-2.18-.14-2.59-.14-3.28-.41-2.18-2.73-3.54-5.19-1.51-8.87-1.09-4.64,3-5.87,5.18-.41,5.32-.14,7.23a10.87,10.87,0,0,1-1.16,6.51,5.47,5.47,0,0,0-2.79-.91c-1.51,0-2.73.27-4.1.14s-3.68-1.5-6.55-1.5-3.68,1-5.32,1a45.13,45.13,0,0,0-8.05.68c-2.32.55-5.59.21-7.09,1.16s-6.66,6.54-9.39,10.09-5.91,9.5-7,11.27-3.49,3.46-5,6.46-.6,6.64-.6,8.14,1.5-.54,2.59-2.86a16.19,16.19,0,0,1,3.22-4.76c.68-.54-.37,3,.18,4s1.51-2.25,2.74-3.75,2.05-3.27,1.78-4.36-.41-2.6,1.77-4.51,8.95-7.58,10.28-9.32c1.18-1.55,2.55-3.46,3.23-3.51a11.71,11.71,0,0,1,5.05.55c2.36.64,5,.44,7.31,1.26s2.24.51,2.24,3.52-1.22,7-1.22,11.19-1.23,6.14-1.78,9-.27,4.51-1.23,4.65-3.82,1.5-5.87,5.73-3,8.87-2.18,11.73a18.42,18.42,0,0,0,3.28,5.74,10,10,0,0,1-2.32,2.45c-1.37,1-4.1,5-4.78,6.83a12.73,12.73,0,0,1-2.73,4.64l-.27.68a43.79,43.79,0,0,0-3.41,4.09c-1.23,1.78-.82,2.46-3.69,1.78s-8.32-1.23-10.51.82-2.32,1.36-6.41,1.91-3.69.54-3.82-.28a6,6,0,0,0-4.1-3.82c-2.59-.68-3.55,2.32-4.23,3.41s-2.32,4.78-4.91,5.46-3.55,2.87-4.23,5.46-.14,4.1,1.23,4.51a4.54,4.54,0,0,0,4.36-1.64c1.23-1.37,2.19-3.69,4-3.69s2.59.14,2.87-.27.82-.54,1.91-.13,1.36-.14.82-.41-2.6-.42-3-.82,1.37-.41,3.69-.69,8.46-.41,13.51-.41a68.14,68.14,0,0,1,9.28.69c1.64.13,4,1.09,5.87.13a6.28,6.28,0,0,0,2.73-2.73,38.17,38.17,0,0,1,5.32-4.09l1-.14a70,70,0,0,0,15.83-16l3.27,2.18s-.41-.55,1,.14,3.55,1.77,3.68,3-2.45,5.87-2.73,8.87,1.64,11.87,2.73,19,1.09,10.78,0,12.14a10.24,10.24,0,0,0-1.91,6c.14,1.91,0,3.68,1.37,4.23s4.09,0,5.87,1.77,5,2.87,10.78,2.32,7.09-2.86,6.82-4.5-3.28-1.23-4.23-1.23-2.59-1.22-3.82-2.18-1.91-1.37-1.91-2.46a3.24,3.24,0,0,0-1.23-2.73c-1-.82-.82-2.32-1.64-2.32H206a21.5,21.5,0,0,1-.95-5.59c-.28-3.83.95-19.38,1.23-25a26,26,0,0,1,2.18-10c.68-1.64,1.36-4.91-.27-7a73.48,73.48,0,0,0-6.14-6s.54-.27-3-3.54l-.54-.41s.54-1.91.82-3.28,1.77-7.51,4.23-10.51,4.36-8.32,6.82-12.83,3.55-8.05,4.09-9a4.86,4.86,0,0,1,1.37-1.5s0,3.95,1.09,6a89.59,89.59,0,0,1,4,8,17.2,17.2,0,0,0,2.56,4.6c1.47,2,3.17,3.28,4.72,2.36,2.6-1.57,5.21-7.3,5.73-13.3s1-10.43,2.09-14.08S239.34,63,236.47,58.54Z" fill="#fff"/>
  </g>
  <g>
    <g>
      <path d="M56,280.68a10.18,10.18,0,0,0-3.73-8.15q-3.75-3.16-13-5.6-10-2.52-15.2-6.55a13.06,13.06,0,0,1-5.17-10.88,13.76,13.76,0,0,1,5.77-11.42q5.77-4.41,14.85-4.41,9.45,0,15.24,5.25a16.11,16.11,0,0,1,5.63,12.81l-.13.25H55.57a13,13,0,0,0-4.34-10.08q-4.35-3.94-11.78-4T28,241.23a10,10,0,0,0-4.13,8.15,9.51,9.51,0,0,0,3.82,7.7q3.83,3.09,13.19,5.44,9.85,2.52,15,6.8A14,14,0,0,1,61,280.62a13.62,13.62,0,0,1-6,11.63q-6,4.32-15.27,4.33a28,28,0,0,1-16-4.6q-6.81-4.61-6.61-13.42l.09-.25h4.61q0,7.11,5.34,10.55a22.65,22.65,0,0,0,12.55,3.43q7.27,0,11.74-3.18A9.89,9.89,0,0,0,56,280.68Z" fill="#b01117"/>
      <path d="M107.85,274.24q0,10.2-4.61,16.27a15.14,15.14,0,0,1-12.73,6.07,18.5,18.5,0,0,1-8.38-1.81,15.17,15.17,0,0,1-5.85-5.17v23.56h-5v-62.9h4.24l.63,7.05A16.05,16.05,0,0,1,82,251.48a16.62,16.62,0,0,1,8.46-2.06A14.81,14.81,0,0,1,103.24,256q4.61,6.53,4.61,17.4Zm-5-.95q0-8.66-3.45-14.12a11.16,11.16,0,0,0-10.08-5.47A13.27,13.27,0,0,0,81,256.12a14.87,14.87,0,0,0-4.76,6.28v21.86a13.68,13.68,0,0,0,5,5.89,14.47,14.47,0,0,0,8.13,2.14q6.59,0,10-5t3.43-13.16Z" fill="#b01117"/>
      <path d="M116.34,272.3q0-10,5.5-16.46a18.24,18.24,0,0,1,14.57-6.42q9.1,0,14.61,6.42t5.5,16.46v1.39q0,10.08-5.48,16.48t-14.55,6.41q-9.15,0-14.65-6.41t-5.5-16.48Zm5,1.37a21.58,21.58,0,0,0,4,13.25,14.11,14.11,0,0,0,22.15,0,21.53,21.53,0,0,0,4-13.25v-1.39a21.48,21.48,0,0,0-4-13.17,13.1,13.1,0,0,0-11.09-5.41,13,13,0,0,0-11,5.41,21.59,21.59,0,0,0-4,13.17Z" fill="#b01117"/>
      <path d="M187.93,254.58l-3.73-.25a11.37,11.37,0,0,0-7.79,2.67,14.73,14.73,0,0,0-4.35,7.33v31.36h-5V250.26h4.41l.63,7.56v.5a16.38,16.38,0,0,1,5.29-6.55,13.27,13.27,0,0,1,7.9-2.35,12.76,12.76,0,0,1,1.87.14,14.83,14.83,0,0,1,1.49.32Z" fill="#b01117"/>
      <path d="M205.53,238.63v11.63h10v4.11h-10V284c0,3,.54,5.07,1.62,6.32a5.41,5.41,0,0,0,4.3,1.87c.81,0,1.6,0,2.37-.11s1.66-.19,2.67-.36l.75,3.74a12.93,12.93,0,0,1-3.06.84,22.07,22.07,0,0,1-3.61.3,9.43,9.43,0,0,1-7.46-3c-1.77-2-2.66-5.21-2.66-9.57V254.37h-7.86v-4.11h7.86V238.63Z" fill="#b01117"/>
      <path d="M253.4,284.12a7.32,7.32,0,0,0-2.63-5.57q-2.61-2.39-9.46-3.89-8.16-1.77-12-4.67a9.63,9.63,0,0,1-3.88-8.18,11,11,0,0,1,4.39-8.8q4.38-3.58,11.61-3.59,7.68,0,12.18,3.8a11.36,11.36,0,0,1,4.28,9.51l-.08.25h-4.66a8.41,8.41,0,0,0-3.18-6.51,12.55,12.55,0,0,0-8.54-2.77q-5.5,0-8.25,2.36a7.1,7.1,0,0,0-2.75,5.54,6.56,6.56,0,0,0,2.37,5.18q2.37,2,9.47,3.59,8.1,1.81,12.14,4.95a10.27,10.27,0,0,1,4,8.53,11.08,11.08,0,0,1-4.6,9.21q-4.61,3.51-12.16,3.52c-5.51,0-9.85-1.32-13-3.95s-4.64-5.77-4.48-9.41l.09-.25h4.62a8.27,8.27,0,0,0,4,7.11,16.8,16.8,0,0,0,8.75,2.21c3.64,0,6.51-.79,8.61-2.39A7.05,7.05,0,0,0,253.4,284.12Z" fill="#b01117"/>
    </g>
    <g>
      <path d="M270.69,295.69V234.55h20.66q10.78,0,16.84,4.2t6,12.56a13.25,13.25,0,0,1-2.25,7.58,13.57,13.57,0,0,1-6.52,5,13,13,0,0,1,8.25,5,15.07,15.07,0,0,1,2.75,8.95q0,8.78-5.8,13.29t-16.42,4.51ZM283,260.17h8.82q4.91,0,7.55-2a6.92,6.92,0,0,0,2.65-5.88c0-2.82-.89-4.91-2.67-6.25s-4.43-2-7.95-2H283Zm0,8.48v17.6h11.29q4.88,0,7.44-2.12a7.68,7.68,0,0,0,2.56-6.26q0-4.49-2.19-6.85c-1.45-1.58-3.75-2.37-6.88-2.37Z" fill="#b01117"/>
      <path d="M337.75,239.38H325.49v-9.19h12.26Zm0,56.31H325.49V250.26h12.26Z" fill="#b01117"/>
      <path d="M361.52,286.25H384v9.44H346.27v-7.25l21.63-28.73h-21v-9.45h36.37v7Z" fill="#b01117"/>
    </g>
  </g>
</svg>
