<svg id="All_Logos_outlined" data-name="All Logos outlined" xmlns="http://www.w3.org/2000/svg" xmlns:xlink="http://www.w3.org/1999/xlink" viewBox="0 0 550 205.12">
  <defs>
    <linearGradient id="linear-gradient" x1="94.02" y1="140.32" x2="94.02" y2="15.55" gradientUnits="userSpaceOnUse">
      <stop offset="0" stop-color="#006ba2"/>
      <stop offset="0.35" stop-color="#378ebe"/>
      <stop offset="0.79" stop-color="#78b6de"/>
      <stop offset="1" stop-color="#91c6eb"/>
    </linearGradient>
    <linearGradient id="linear-gradient-2" x1="196.5" y1="180.39" x2="71.88" y2="85.8" gradientUnits="userSpaceOnUse">
      <stop offset="0" stop-color="#1f2171"/>
      <stop offset="0.09" stop-color="#1c2c7b"/>
      <stop offset="1" stop-color="#009ade"/>
    </linearGradient>
    <linearGradient id="linear-gradient-3" x1="176.83" y1="77.63" x2="18.56" y2="35.54" gradientUnits="userSpaceOnUse">
      <stop offset="0" stop-color="#006ba2"/>
      <stop offset="0.1" stop-color="#0971a6"/>
      <stop offset="0.27" stop-color="#2281b1"/>
      <stop offset="0.49" stop-color="#4a9ac3"/>
      <stop offset="0.74" stop-color="#82bedc"/>
      <stop offset="1" stop-color="#c4e8fa"/>
    </linearGradient>
    <linearGradient id="linear-gradient-4" x1="137.92" y1="145.08" x2="150.95" y2="162.11" gradientUnits="userSpaceOnUse">
      <stop offset="0" stop-color="#007fc5"/>
      <stop offset="0.46" stop-color="#7cbde1"/>
      <stop offset="0.83" stop-color="#daecf7"/>
      <stop offset="1" stop-color="#fff"/>
    </linearGradient>
    <linearGradient id="linear-gradient-5" x1="46.83" y1="84.58" x2="26.78" y2="64.54" gradientUnits="userSpaceOnUse">
      <stop offset="0" stop-color="#008fd0"/>
      <stop offset="0.46" stop-color="#7cc6e7"/>
      <stop offset="0.83" stop-color="#daeff8"/>
      <stop offset="1" stop-color="#fff"/>
    </linearGradient>
    <radialGradient id="radial-gradient" cx="48.18" cy="74.75" r="111.69" gradientTransform="translate(0 -0.22)" gradientUnits="userSpaceOnUse">
      <stop offset="0.01" stop-color="#fff"/>
      <stop offset="0.28" stop-color="#fff"/>
      <stop offset="1" stop-color="#24588d"/>
    </radialGradient>
  </defs>
  <title>swimbiz-horizontal</title>
  <path d="M30.62,15.11C22,15.11,15,22.47,15,31.53V173.68a16.72,16.72,0,0,0,4.55,11.58,15.09,15.09,0,0,0,11.05,4.85h126.8c8.6,0,15.6-7.37,15.6-16.43V31.53c0-9.06-7-16.42-15.6-16.42Z" fill="url(#linear-gradient)"/>
  <path d="M168,173.68c0,6.28-4.73,11.37-10.56,11.37H30.62c-5.83,0-10.56-5.09-10.56-11.37V31.53c0-6.28,4.73-11.37,10.56-11.37h126.8c5.83,0,10.56,5.09,10.56,11.37Z" fill="url(#linear-gradient-2)"/>
  <path d="M157.42,20.16H30.62c-5.83,0-10.56,5.09-10.56,11.37V51.72C35.8,79.41,66,102,103.83,110.79a139,139,0,0,0,64.15.1V31.53C168,25.25,163.25,20.16,157.42,20.16Z" fill="url(#linear-gradient-3)"/>
  <path d="M160,29V167.06c0,6.29-4.8,11.38-10.74,11.38h-97a9.69,9.69,0,0,0,7.77,4h93.55c5.53,0,10-4.82,10-10.76V37.23A11.06,11.06,0,0,0,160,29Z" opacity="0.2" fill="url(#linear-gradient-4)"/>
  <path d="M27.52,178.11V40c0-6.29,4.8-11.38,10.74-11.38h65.32a9.69,9.69,0,0,0-7.77-4H33.92c-5.53,0-10,4.81-10,10.75V169.85A11.06,11.06,0,0,0,27.52,178.11Z" opacity="0.47" fill="url(#linear-gradient-5)"/>
  <path d="M33.89,109.56a61.89,61.89,0,1,1,61.89,62A62,62,0,0,1,33.89,109.56Z" opacity="0.24" fill="url(#radial-gradient)"/>
  <g>
    <path d="M89.91,128s12.23.57,19.14-4.29,15-16.66,23.82-16.81,9.28,3.84,15.32,3.45,4.64-5.37,13.29-7.13S169.33,92,174.76,91.1a39.44,39.44,0,0,0,.3-4.68c0-2.46-2.84-5.7-4.73-7.68s-10.13-6.53-15.5-5.12-7.16,2.7-10.86,9.11c0,0-2-.33-3.82,2.88s-3.52,5.57-3.52,5.57-5.91-3.45-10.86-5.64-5.13-4.84-13-6.38c-10.29-2-22-1.49-28.8-.68-8.37,1-14.58-2.5-19.88,1.35S44.32,93.66,34.94,108.61,14.4,118,13.34,125.74s-4.88,20.19,3,16.33,10.93-6.12,14-13.28,4.85-6,10.29-11.78,13-9.89,20-14.21,8.37-6.65,10.59-6.62,8.49,1.8,14.07,2.28,9.56,1.41,9.65,2.22S89.49,107,82.72,110.75s-22.54,3.62-38.62,16c-15.14,11.68-11.38,8,2.13,2.15S70.6,123.79,89.91,128Z" fill="#fff"/>
    <path d="M9,157.37a66.3,66.3,0,0,1,29.4-20.43c16.16-5.37,36.17-4,47.26-2.06s25.82,1.18,36.51-8c0,0-9.17,11.36-29.67,11.64-17.38.24-69.09-9.56-76.61,29.91C15.89,168.4,10.78,168.3,9,157.37Z" fill="#fff"/>
  </g>
  <g>
    <path d="M228.39,112.28a9.2,9.2,0,0,0-3-7q-3-2.81-10.5-4.78-9.32-2.31-14.55-6.81a14.28,14.28,0,0,1-5.23-11.29,15.08,15.08,0,0,1,5.63-12q5.63-4.78,14.61-4.79,9.66,0,15.39,5.48a16.63,16.63,0,0,1,5.57,12.79l-.13.25h-7.89a11.27,11.27,0,0,0-3.64-8.61,13,13,0,0,0-9.3-3.4q-5.79,0-8.88,2.81a9.44,9.44,0,0,0-3.08,7.31A8.15,8.15,0,0,0,206.79,89q3.38,2.66,11,4.68,9.24,2.39,14.06,7a15.37,15.37,0,0,1,4.83,11.51,14.28,14.28,0,0,1-5.81,11.88q-5.82,4.5-15.18,4.5a25.83,25.83,0,0,1-15.64-5,15.09,15.09,0,0,1-6.58-13.27l.09-.25h7.89A10.27,10.27,0,0,0,205.8,119a16.5,16.5,0,0,0,9.87,3.13q5.88,0,9.3-2.65A8.58,8.58,0,0,0,228.39,112.28Z" fill="#20508f"/>
    <path d="M258.88,111.15l1.05,5.84h.25l1.09-5.84,9.07-28.89H277l9.11,28.89,1.17,6.51h.26l1.34-6.51,6.72-28.89h8.65L291,127.69h-6.67l-9-27.67-1.72-7.22h-.25l-1.6,7.22L263,127.69h-6.67L243.13,82.26h8.61Z" fill="#20508f"/>
    <path d="M321.28,70.63H313V62.19h8.27Zm0,57.06H313V82.26h8.27Z" fill="#20508f"/>
    <path d="M341.39,82.26l.59,6a15.48,15.48,0,0,1,5.65-5,17,17,0,0,1,8-1.78,14.07,14.07,0,0,1,7.79,2.1,12.74,12.74,0,0,1,4.89,6.3A16.92,16.92,0,0,1,374,83.66a14.92,14.92,0,0,1,8.21-2.24,13.62,13.62,0,0,1,11,4.76q4,4.77,4,14.35v27.16h-8.27V100.44c0-4.48-.78-7.65-2.31-9.51s-3.84-2.79-6.89-2.79a8.77,8.77,0,0,0-6.87,2.94,12.72,12.72,0,0,0-3.08,7.43v29.18h-8.32V100.44c0-4.25-.79-7.37-2.37-9.34a8.22,8.22,0,0,0-6.82-3A11.42,11.42,0,0,0,346,89.69a10.09,10.09,0,0,0-3.74,4.37v33.63H334V82.26Z" fill="#20508f"/>
  </g>
  <g>
    <path d="M407.4,127.69V66.55h20.66q10.79,0,16.84,4.2t6,12.56a13.25,13.25,0,0,1-2.24,7.58,13.64,13.64,0,0,1-6.53,5,12.93,12.93,0,0,1,8.25,5,15,15,0,0,1,2.75,8.94q0,8.77-5.79,13.29T431,127.69Zm12.26-35.52h8.82q4.9,0,7.56-2a6.94,6.94,0,0,0,2.64-5.88c0-2.82-.89-4.91-2.66-6.25s-4.43-2-8-2h-8.4Zm0,8.48v17.6H431q4.86,0,7.43-2.12a7.65,7.65,0,0,0,2.56-6.26q0-4.49-2.18-6.85t-6.89-2.37Z" fill="#20508f"/>
    <path d="M474.46,71.38H462.2V62.19h12.26Zm0,56.31H462.2V82.26h12.26Z" fill="#20508f"/>
    <path d="M498.23,118.25h22.51v9.44H483v-7.25l21.63-28.73H483.66V82.26H520v7Z" fill="#20508f"/>
  </g>
</svg>
