<svg id="All_Logos_outlined" data-name="All Logos outlined" xmlns="http://www.w3.org/2000/svg" xmlns:xlink="http://www.w3.org/1999/xlink" viewBox="0 0 400 320">
  <defs>
    <linearGradient id="linear-gradient" x1="201.99" y1="150.24" x2="201.99" y2="25.74" gradientUnits="userSpaceOnUse">
      <stop offset="0" stop-color="#006ba2"/>
      <stop offset="0.35" stop-color="#378ebe"/>
      <stop offset="0.79" stop-color="#78b6de"/>
      <stop offset="1" stop-color="#91c6eb"/>
    </linearGradient>
    <linearGradient id="linear-gradient-2" x1="304.36" y1="190.31" x2="179.87" y2="95.82" gradientUnits="userSpaceOnUse">
      <stop offset="0" stop-color="#1f2171"/>
      <stop offset="0.09" stop-color="#1c2c7b"/>
      <stop offset="1" stop-color="#009ade"/>
    </linearGradient>
    <linearGradient id="linear-gradient-3" x1="284.77" y1="87.7" x2="126.55" y2="45.63" gradientUnits="userSpaceOnUse">
      <stop offset="0" stop-color="#006ba2"/>
      <stop offset="0.1" stop-color="#0971a6"/>
      <stop offset="0.27" stop-color="#2281b1"/>
      <stop offset="0.49" stop-color="#4a9ac3"/>
      <stop offset="0.74" stop-color="#82bedc"/>
      <stop offset="1" stop-color="#c4e8fa"/>
    </linearGradient>
    <linearGradient id="linear-gradient-4" x1="245.86" y1="155.04" x2="258.86" y2="172.04" gradientUnits="userSpaceOnUse">
      <stop offset="0" stop-color="#007fc5"/>
      <stop offset="0.46" stop-color="#7cbde1"/>
      <stop offset="0.83" stop-color="#daecf7"/>
      <stop offset="1" stop-color="#fff"/>
    </linearGradient>
    <linearGradient id="linear-gradient-5" x1="154.79" y1="94.58" x2="134.79" y2="74.58" gradientUnits="userSpaceOnUse">
      <stop offset="0" stop-color="#008fd0"/>
      <stop offset="0.46" stop-color="#7cc6e7"/>
      <stop offset="0.83" stop-color="#daeff8"/>
      <stop offset="1" stop-color="#fff"/>
    </linearGradient>
    <radialGradient id="radial-gradient" cx="156.15" cy="84.75" r="111.69" gradientUnits="userSpaceOnUse">
      <stop offset="0.01" stop-color="#fff"/>
      <stop offset="0.28" stop-color="#fff"/>
      <stop offset="1" stop-color="#24588d"/>
    </radialGradient>
  </defs>
  <title>swimbiz-vertical</title>
  <g>
    <path d="M138.59,25.3c-8.6,0-15.6,7.35-15.6,16.38V183.53a16.65,16.65,0,0,0,4.55,11.55,15.12,15.12,0,0,0,11,4.84H265.38c8.61,0,15.61-7.35,15.61-16.39V41.68c0-9-7-16.38-15.61-16.38Z" fill="url(#linear-gradient)"/>
    <path d="M276,183.53c0,6.26-4.73,11.35-10.57,11.35H138.59c-5.83,0-10.56-5.09-10.56-11.35V41.68c0-6.26,4.73-11.34,10.56-11.34H265.38c5.84,0,10.57,5.08,10.57,11.34Z" fill="url(#linear-gradient-2)"/>
    <path d="M265.38,30.34H138.59c-5.83,0-10.56,5.08-10.56,11.34V61.83c15.74,27.63,45.91,50.16,83.77,59a139.38,139.38,0,0,0,64.15.09V41.68C276,35.42,271.22,30.34,265.38,30.34Z" fill="url(#linear-gradient-3)"/>
    <path d="M268,39.13V176.92c0,6.27-4.81,11.36-10.74,11.36h-97a9.75,9.75,0,0,0,7.78,4H261.6c5.52,0,10-4.81,10-10.74V47.37A11,11,0,0,0,268,39.13Z" opacity="0.2" fill="url(#linear-gradient-4)"/>
    <path d="M135.48,188V50.15c0-6.27,4.81-11.35,10.74-11.35h65.33a9.72,9.72,0,0,0-7.78-4H141.88c-5.52,0-10,4.8-10,10.73V179.7A11.06,11.06,0,0,0,135.48,188Z" opacity="0.47" fill="url(#linear-gradient-5)"/>
    <path d="M141.86,119.54a61.89,61.89,0,1,1,61.89,61.89A61.89,61.89,0,0,1,141.86,119.54Z" opacity="0.24" fill="url(#radial-gradient)"/>
    <g>
      <path d="M197.88,139s12.22.57,19.14-4.29,15-16.66,23.82-16.81,9.28,3.84,15.32,3.45,4.63-5.37,13.28-7.13S277.3,103,282.73,102.1a39.44,39.44,0,0,0,.3-4.68c0-2.46-2.85-5.7-4.73-7.68s-10.13-6.53-15.5-5.12-7.16,2.7-10.86,9.11c0,0-2-.33-3.82,2.88s-3.52,5.57-3.52,5.57-5.92-3.45-10.86-5.64-5.14-4.84-13-6.38c-10.28-2-22-1.49-28.79-.68-8.37,1-14.59-2.5-19.88,1.35s-19.81,13.83-29.19,28.78-20.54,9.36-21.6,17.13-4.89,20.19,3,16.33,10.92-6.12,14-13.28,4.85-6,10.28-11.78,13-9.89,20-14.21,8.37-6.65,10.58-6.62,8.5,1.8,14.08,2.28,9.56,1.41,9.65,2.22-5.38,6.32-12.14,10.07-22.54,3.62-38.63,16.05c-15.13,11.68-11.37,8,2.14,2.15S178.57,134.79,197.88,139Z" fill="#fff"/>
      <path d="M117,168.37a66.3,66.3,0,0,1,29.4-20.43c16.16-5.37,36.17-4,47.25-2.06s25.82,1.18,36.52-8c0,0-9.18,11.36-29.67,11.64-17.38.24-69.09-9.56-76.62,29.91C123.85,179.4,118.75,179.3,117,168.37Z" fill="#fff"/>
    </g>
  </g>
  <g>
    <g>
      <path d="M75.45,280.68a10.18,10.18,0,0,0-3.73-8.15q-3.75-3.16-13-5.6-10-2.52-15.2-6.55a13.06,13.06,0,0,1-5.17-10.88,13.74,13.74,0,0,1,5.78-11.42q5.78-4.41,14.84-4.41,9.45,0,15.24,5.25a16.11,16.11,0,0,1,5.63,12.81l-.12.25H75.08a13,13,0,0,0-4.35-10.08Q66.38,238,59,238t-11.48,3.28a10,10,0,0,0-4.14,8.15,9.51,9.51,0,0,0,3.82,7.7q3.83,3.09,13.19,5.44,9.87,2.52,15,6.8a14,14,0,0,1,5.14,11.3,13.62,13.62,0,0,1-6,11.63q-6,4.32-15.26,4.33a27.94,27.94,0,0,1-16-4.6q-6.83-4.61-6.62-13.42l.09-.25h4.62q0,7.11,5.33,10.55a22.66,22.66,0,0,0,12.56,3.43q7.26,0,11.73-3.18A9.89,9.89,0,0,0,75.45,280.68Z" fill="#009ade"/>
      <path d="M100.57,281l1.72,8.11h.25l2.14-8.11,9.66-30.69h4.32L128.32,281l2.19,8.32h.25l1.89-8.32,8.27-30.69h5.21L132.9,295.69h-4.28l-10.08-31.07-2-7.85h-.25l-2,7.85-9.91,31.07h-4.33L86.88,250.26h5.2Z" fill="#009ade"/>
      <path d="M161.5,237.24h-5v-7.05h5Zm0,58.45h-5V250.26h5Z" fill="#009ade"/>
      <path d="M179.64,250.26l.46,7.51a16,16,0,0,1,5.82-6.17,16.56,16.56,0,0,1,8.67-2.18,14.54,14.54,0,0,1,8.71,2.52,13.86,13.86,0,0,1,5,7.68,17.33,17.33,0,0,1,5.85-7.49,15.52,15.52,0,0,1,9.26-2.71c4.85,0,8.58,1.61,11.22,4.83s3.94,8.2,3.94,14.95v26.49h-5V269.06q0-8.42-3-11.89a10.26,10.26,0,0,0-8.25-3.47q-5.84,0-9,3.66a17.39,17.39,0,0,0-3.94,9.39c0,.19,0,.47,0,.84s0,.63,0,.8v27.3h-5.08V269.06q0-8.25-3-11.8a10.26,10.26,0,0,0-8.26-3.56,12.48,12.48,0,0,0-8.46,2.72,14.47,14.47,0,0,0-4.39,7.3v32h-5.08V250.26Z" fill="#009ade"/>
    </g>
    <g>
      <path d="M251.19,295.69V234.55h20.66q10.78,0,16.83,4.2t6.05,12.56a13.25,13.25,0,0,1-2.25,7.58,13.57,13.57,0,0,1-6.52,5,13,13,0,0,1,8.25,5,15.07,15.07,0,0,1,2.75,8.95q0,8.78-5.8,13.29t-16.42,4.51Zm12.26-35.52h8.82q4.91,0,7.55-2a6.92,6.92,0,0,0,2.65-5.88c0-2.82-.89-4.91-2.67-6.25s-4.43-2-7.95-2h-8.4Zm0,8.48v17.6h11.29q4.88,0,7.44-2.12a7.68,7.68,0,0,0,2.56-6.26q0-4.49-2.19-6.85c-1.45-1.58-3.75-2.37-6.88-2.37Z" fill="#009ade"/>
      <path d="M318.25,239.38H306v-9.19h12.26Zm0,56.31H306V250.26h12.26Z" fill="#009ade"/>
      <path d="M342,286.25h22.51v9.44H326.77v-7.25l21.63-28.73h-21v-9.45h36.37v7Z" fill="#009ade"/>
    </g>
  </g>
</svg>
