<svg id="All_Logos_outlined" data-name="All Logos outlined" xmlns="http://www.w3.org/2000/svg" xmlns:xlink="http://www.w3.org/1999/xlink" viewBox="0 0 600 205.12">
  <defs>
    <linearGradient id="linear-gradient" x1="94.04" y1="-0.13" x2="94.04" y2="154.21" gradientUnits="userSpaceOnUse">
      <stop offset="0" stop-color="#b4dbb8"/>
      <stop offset="0.28" stop-color="#b2d9b6"/>
      <stop offset="0.43" stop-color="#aad4b1"/>
      <stop offset="0.55" stop-color="#9ccca7"/>
      <stop offset="0.66" stop-color="#88bf99"/>
      <stop offset="0.75" stop-color="#6faf87"/>
      <stop offset="0.84" stop-color="#509b70"/>
      <stop offset="0.92" stop-color="#2c8456"/>
      <stop offset="1" stop-color="#026938"/>
      <stop offset="1" stop-color="#006837"/>
    </linearGradient>
    <linearGradient id="linear-gradient-2" x1="151.01" y1="127.66" x2="38.94" y2="78.29" gradientUnits="userSpaceOnUse">
      <stop offset="0" stop-color="#007244"/>
      <stop offset="0.01" stop-color="#017345"/>
      <stop offset="0.28" stop-color="#149252"/>
      <stop offset="0.53" stop-color="#22a95b"/>
      <stop offset="0.78" stop-color="#2ab661"/>
      <stop offset="1" stop-color="#2dbb63"/>
    </linearGradient>
    <linearGradient id="linear-gradient-3" x1="20.07" y1="67.33" x2="168" y2="67.33" gradientUnits="userSpaceOnUse">
      <stop offset="0" stop-color="#d6f2e0"/>
      <stop offset="0.51" stop-color="#7dc36e"/>
      <stop offset="1" stop-color="#007244"/>
    </linearGradient>
    <linearGradient id="linear-gradient-4" x1="86.82" y1="79.24" x2="170" y2="183.47" gradientUnits="userSpaceOnUse">
      <stop offset="0" stop-color="#006f3b"/>
      <stop offset="0.29" stop-color="#399468"/>
      <stop offset="0.78" stop-color="#96d1b0"/>
      <stop offset="1" stop-color="#bbe9cd"/>
    </linearGradient>
    <linearGradient id="linear-gradient-5" x1="42.62" y1="78.13" x2="16.56" y2="53.08" gradientUnits="userSpaceOnUse">
      <stop offset="0" stop-color="#2dbb63"/>
      <stop offset="0.36" stop-color="#7ed59f"/>
      <stop offset="0.8" stop-color="#daf3e4"/>
      <stop offset="1" stop-color="#fff"/>
    </linearGradient>
    <radialGradient id="radial-gradient" cx="52.29" cy="79.76" r="57.51" gradientTransform="translate(0 -0.22)" gradientUnits="userSpaceOnUse">
      <stop offset="0.42" stop-color="#fff"/>
      <stop offset="1" stop-color="#268f3b"/>
    </radialGradient>
  </defs>
  <title>tennisbiz-horizontal</title>
  <g>
    <path d="M30.64,15.06A15.12,15.12,0,0,0,19.58,19.9,16.8,16.8,0,0,0,15,31.48V173.64c0,9.05,7,16.42,15.61,16.42H157.43c8.61,0,15.61-7.37,15.61-16.42V31.48a16.8,16.8,0,0,0-4.55-11.58,15.14,15.14,0,0,0-11.06-4.84Z" fill="url(#linear-gradient)"/>
    <path d="M168,173.64c0,6.28-4.73,11.37-10.57,11.37H30.64c-5.84,0-10.57-5.09-10.57-11.37V31.48c0-6.28,4.73-11.37,10.57-11.37H157.43c5.84,0,10.57,5.09,10.57,11.37Z" fill="url(#linear-gradient-2)"/>
    <path d="M157.43,20.11H30.64c-5.84,0-10.57,5.09-10.57,11.37V51.67C35.81,79.36,66,101.94,103.84,110.75a138.88,138.88,0,0,0,64.16.09V31.48C168,25.2,163.27,20.11,157.43,20.11Z" fill="url(#linear-gradient-3)"/>
    <path d="M159.4,28.07V166.16c0,6.29-4.8,11.38-10.74,11.38h-97a9.73,9.73,0,0,0,7.78,4H153c5.52,0,10-4.81,10-10.76V36.33A11.06,11.06,0,0,0,159.4,28.07Z" opacity="0.25" fill="url(#linear-gradient-4)"/>
    <path d="M26.89,177.21V39.12c0-6.29,4.8-11.38,10.73-11.38h71.16a9.69,9.69,0,0,0-7.77-4H33.28c-5.52,0-10,4.82-10,10.76V169A11.06,11.06,0,0,0,26.89,177.21Z" opacity="0.5" fill="url(#linear-gradient-5)"/>
    <ellipse cx="95.65" cy="106.5" rx="61.89" ry="62.02" opacity="0.24" fill="url(#radial-gradient)"/>
  </g>
  <g>
    <path d="M172.12,154.37a35.86,35.86,0,0,1-5.22-10.71c-.82-2.47-2.47-2.47-4.12-1.92s-6.31,2.47-8,4.94-9.6,4.67-11.53,5.21-3.29,3-10.15,2.48a11.21,11.21,0,0,0-8.86,2.84l.08-.1c1.09-1.37.54-5.76,1.64-5.76s1.65.27.55-2.47-.82-8,.28-10.44,3.84-7.68,2.47-11.52-4.94-6.87-4.94-8-1.92-5.22-3.85-7.69-.82-3.57.28-6,.82-4.94-1.65-7.69-2.47-1.64.27-3,4.4-3.84,6.59-3.29a45.64,45.64,0,0,0,7.14,1.1c1.1,0,2.74,1.92,4.94,3s4.39-1.65,4.94-3.85a9.49,9.49,0,0,0-1.37-6.86c-1.1-1.37-.55-1.1-.55-3.29s-2.47,2.19-3.29,3.84-2.2,1.37-1.1-1.1-1.37-1.92-1.37-1.92.27,1.65-.83,2.2-1.37,0-3.84-.83-4.94,0-6.86-.82-2.2.82-5.49,1.37a14,14,0,0,1-7.69-.82c-2.47-.82-3.29-.82-6-.27s-1.92.27-3.84-1.38-2.75,2.75-4.94,1.1-4.39,0-3.3-1.65-.27.83.28-5.49-3.84-11-8.24-11.8-8.23,3.84-8.23,3.84l-1.92,1.1c-4.39,1.65.82,4.39.82,4.39s1.1,3.3.55,4.94,1.92,6.87,1.92,6.87c-3.57-.55-8,.55-11.53.55-3.93,0-8,1.09-7.68-.55s-2.2-10.43,1.09-9.06,3-3,5.22-4.12.27-2.2.27-2.2a7.7,7.7,0,0,0-.38-2.74l4.78-8.51c1.64-1.65,11.8-9.06,11.8-9.06,8-3.29,13.83-8.36,15.65-17.57,1.78-9-3.57-18.39-14-16.19S69.43,27.54,68.63,31.66c-1.37,7.14-1.23,22.92-1.78,24.85-.35,1.21-2.7,5-4.4,7.59-2.39-1-5.15,2.52-6.44,4.07a30.77,30.77,0,0,0-3.57,6.32c-.28.82-3,8.78-3,12.62s2.19,4.67,7.41,6.32,8,2.47,8,2.47L64.52,97s4.11.54,6.86,1.09S75,100.84,78.79,105s3.57,5.21,7.41,8.5,1.65,3.3,6.59,6,4.12,2.2,5.21,5,2.75,2.19,2.2,4.11-6.31,6-9.61,8.24-3.57,3-3.57,3-6.31,3.84-10.43,6.58-4.94,6.32-6.31,9.61a28.55,28.55,0,0,1-5.49,8.79c-3,3.56-13.45,12.62-15.37,14.82s-3.57,1.92-6,3.84-8.24,2.75-11,2.75-7.41-.28-4.94,3.57,9.33,6,14.82,5.21,12.08.27,13.18-.55,0-5.76,0-7.14,0-4.94,10.7-10.43S79.34,167.82,81,163.42s.54-7.41,6-8.51,11.53-3,11.53-3l4.94,2.2,3-1.92,1.1,3.29,1.37-.27s.28,11.53,4.4,15.37,9.06.82,16.19-2.74,14.82-7.42,17-8,9.33-.55,12.08-.55,4.67-.28,7.41,1.92,3,8.23,5.49,6.86S175.69,159.58,172.12,154.37ZM74.4,22.61a13.62,13.62,0,0,1,14.82-4.94c7.14,3.7,7.41,10.15,4.94,18.11S79.34,50.33,73.85,45.12,68.08,30.57,74.4,22.61ZM69.46,52c0-2.47-.28-11.53-.28-11.53,3.3,9.06,11.53,8,11.53,8s-5.21,2.47-7.14,4.12-4.7,3.09-5.49,4.66C67,59.39,69.46,54.45,69.46,52Z" fill="#fff"/>
    <path d="M58.48,37a5.55,5.55,0,1,1-5.55-5.55A5.55,5.55,0,0,1,58.48,37Z" fill="#fff"/>
    <path d="M25.66,83.63c-5.93-14.4,14.54-31.4,22.42-37.27a8.2,8.2,0,0,1-5.26-7.65,7.34,7.34,0,0,1,.08-1.06c-9.5,7.56-36.26,31-27.24,48.65C30.33,115,111,124.3,111,124.3S35.52,107.58,25.66,83.63Z" fill="#fff"/>
    <path d="M115,123s46.67,4,44,24l10.67,5.33S169,121.63,115,123Z" fill="#fff"/>
  </g>
  <g>
    <path d="M238.55,73.06H218.4v54.63h-8.28V73.06h-19.9V66.55h48.33Z" fill="#007244"/>
    <path d="M260.77,128.58q-9.79,0-15.27-6.26T240,105.86V104q0-9.78,5.65-16.19a17.71,17.71,0,0,1,13.8-6.4q9.11,0,13.66,5.67t4.56,15.07v4.37H248.63l-.12.21q0,6.84,3,11.11t9.24,4.26a20.78,20.78,0,0,0,7.37-1.2,16.45,16.45,0,0,0,5.43-3.29l3.24,5.37a20,20,0,0,1-6.43,4A25.52,25.52,0,0,1,260.77,128.58Zm-1.3-40.65a9,9,0,0,0-7.16,3.34,15.77,15.77,0,0,0-3.47,8.54l.09.21h20.49v-.67A13.28,13.28,0,0,0,267,91.16C265.36,89,262.85,87.93,259.47,87.93Z" fill="#007244"/>
    <path d="M294.36,82.26,295,89a16.49,16.49,0,0,1,5.69-5.61,15.18,15.18,0,0,1,7.79-2q7.35,0,11.38,4.3t4,13.29v28.68h-8.27V99.18q0-6-2.38-8.52T306,88.14a12.85,12.85,0,0,0-6.49,1.53,11.18,11.18,0,0,0-4.22,4.3v33.72H287V82.26Z" fill="#007244"/>
    <path d="M343.24,82.26l.59,6.76a16.49,16.49,0,0,1,5.69-5.61,15.15,15.15,0,0,1,7.79-2q7.35,0,11.38,4.3t4,13.29v28.68h-8.27V99.18c0-4-.8-6.84-2.38-8.52s-4-2.52-7.24-2.52a12.85,12.85,0,0,0-6.49,1.53,11.18,11.18,0,0,0-4.22,4.3v33.72h-8.27V82.26Z" fill="#007244"/>
    <path d="M393.67,70.63H385.4V62.19h8.27Zm0,57.06H385.4V82.26h8.27Z" fill="#007244"/>
    <path d="M432.81,115.47a5.52,5.52,0,0,0-2.08-4.45q-2.09-1.71-7.87-3-8-1.73-12.33-4.83a9.74,9.74,0,0,1-4.3-8.31A12,12,0,0,1,411,85.37q4.73-3.95,12.24-4,7.72,0,12.52,4.2t4.57,9.78l-.08.25h-7.89a7.19,7.19,0,0,0-2.59-5.33,9.25,9.25,0,0,0-6.53-2.39q-4.37,0-6.53,2a6.16,6.16,0,0,0-2.16,4.7,5,5,0,0,0,1.87,4.16q1.86,1.47,7.7,2.69,8.35,1.76,12.69,5a10.06,10.06,0,0,1,4.32,8.44,11.94,11.94,0,0,1-4.89,9.86q-4.89,3.82-12.79,3.83-8.68,0-13.69-4.41T405,113.88l.08-.25H413c.14,2.94,1.23,5.08,3.27,6.44a12.66,12.66,0,0,0,7.18,2,11.3,11.3,0,0,0,6.91-1.87A5.71,5.71,0,0,0,432.81,115.47Z" fill="#007244"/>
  </g>
  <g>
    <path d="M447.4,127.69V66.55h20.66q10.79,0,16.84,4.2T491,83.31a13.25,13.25,0,0,1-2.25,7.58,13.64,13.64,0,0,1-6.53,5,12.93,12.93,0,0,1,8.25,5,15,15,0,0,1,2.75,8.94q0,8.77-5.79,13.29T471,127.69Zm12.26-35.52h8.82c3.28,0,5.79-.67,7.56-2a6.94,6.94,0,0,0,2.64-5.88c0-2.82-.88-4.91-2.66-6.25s-4.43-2-8-2h-8.4Zm0,8.48v17.6H471q4.86,0,7.43-2.12a7.65,7.65,0,0,0,2.56-6.26q0-4.49-2.18-6.85c-1.46-1.58-3.75-2.37-6.89-2.37Z" fill="#007244"/>
    <path d="M514.46,71.38H502.2V62.19h12.26Zm0,56.31H502.2V82.26h12.26Z" fill="#007244"/>
    <path d="M538.23,118.25h22.51v9.44H523v-7.25l21.62-28.73h-21V82.26H560v7Z" fill="#007244"/>
  </g>
</svg>
