<svg id="All_Logos_outlined" data-name="All Logos outlined" xmlns="http://www.w3.org/2000/svg" xmlns:xlink="http://www.w3.org/1999/xlink" viewBox="0 0 400 320">
  <defs>
    <linearGradient id="linear-gradient" x1="200.03" y1="10.14" x2="200.03" y2="164.14" gradientUnits="userSpaceOnUse">
      <stop offset="0" stop-color="#b4dbb8"/>
      <stop offset="0.28" stop-color="#b2d9b6"/>
      <stop offset="0.43" stop-color="#aad4b1"/>
      <stop offset="0.55" stop-color="#9ccca7"/>
      <stop offset="0.66" stop-color="#88bf99"/>
      <stop offset="0.75" stop-color="#6faf87"/>
      <stop offset="0.84" stop-color="#509b70"/>
      <stop offset="0.92" stop-color="#2c8456"/>
      <stop offset="1" stop-color="#026938"/>
      <stop offset="1" stop-color="#006837"/>
    </linearGradient>
    <linearGradient id="linear-gradient-2" x1="256.97" y1="137.69" x2="144.97" y2="88.35" gradientUnits="userSpaceOnUse">
      <stop offset="0" stop-color="#007244"/>
      <stop offset="0.01" stop-color="#017345"/>
      <stop offset="0.28" stop-color="#149252"/>
      <stop offset="0.53" stop-color="#22a95b"/>
      <stop offset="0.78" stop-color="#2ab661"/>
      <stop offset="1" stop-color="#2dbb63"/>
    </linearGradient>
    <linearGradient id="linear-gradient-3" x1="126.07" y1="77.45" x2="273.99" y2="77.45" gradientUnits="userSpaceOnUse">
      <stop offset="0" stop-color="#d6f2e0"/>
      <stop offset="0.51" stop-color="#7dc36e"/>
      <stop offset="1" stop-color="#007244"/>
    </linearGradient>
    <linearGradient id="linear-gradient-4" x1="192.9" y1="89.39" x2="275.9" y2="193.39" gradientUnits="userSpaceOnUse">
      <stop offset="0" stop-color="#006f3b"/>
      <stop offset="0.29" stop-color="#399468"/>
      <stop offset="0.78" stop-color="#96d1b0"/>
      <stop offset="1" stop-color="#bbe9cd"/>
    </linearGradient>
    <linearGradient id="linear-gradient-5" x1="148.62" y1="88.19" x2="122.62" y2="63.19" gradientUnits="userSpaceOnUse">
      <stop offset="0" stop-color="#2dbb63"/>
      <stop offset="0.36" stop-color="#7ed59f"/>
      <stop offset="0.8" stop-color="#daf3e4"/>
      <stop offset="1" stop-color="#fff"/>
    </linearGradient>
    <radialGradient id="radial-gradient" cx="158.29" cy="89.81" r="57.51" gradientTransform="translate(270.1 -106.08) rotate(77.07)" gradientUnits="userSpaceOnUse">
      <stop offset="0.42" stop-color="#fff"/>
      <stop offset="1" stop-color="#268f3b"/>
    </radialGradient>
  </defs>
  <title>tennisbiz-vertical</title>
  <g>
    <g>
      <path d="M136.63,25.3a15.11,15.11,0,0,0-11,4.83A16.67,16.67,0,0,0,121,41.68V183.53c0,9,7,16.39,15.6,16.39H263.42c8.61,0,15.61-7.35,15.61-16.39V41.68a16.67,16.67,0,0,0-4.55-11.55,15.11,15.11,0,0,0-11.06-4.83Z" fill="url(#linear-gradient)"/>
      <path d="M274,183.53c0,6.27-4.73,11.35-10.57,11.35H136.63c-5.83,0-10.56-5.08-10.56-11.35V41.68c0-6.26,4.73-11.34,10.56-11.34H263.42c5.84,0,10.57,5.08,10.57,11.34Z" fill="url(#linear-gradient-2)"/>
      <path d="M263.42,30.34H136.63c-5.83,0-10.56,5.08-10.56,11.34V61.83c15.74,27.63,45.91,50.16,83.77,59a139.38,139.38,0,0,0,64.15.09V41.68C274,35.42,269.26,30.34,263.42,30.34Z" fill="url(#linear-gradient-3)"/>
      <path d="M265.4,38.28V176.07c0,6.27-4.81,11.36-10.74,11.36h-97a9.72,9.72,0,0,0,7.78,4H259c5.52,0,10-4.81,10-10.74V46.52A11.06,11.06,0,0,0,265.4,38.28Z" opacity="0.25" fill="url(#linear-gradient-4)"/>
      <path d="M132.88,187.1V49.3c0-6.27,4.81-11.36,10.74-11.36h71.16a9.75,9.75,0,0,0-7.78-4H139.28c-5.52,0-10,4.81-10,10.74V178.85A11,11,0,0,0,132.88,187.1Z" opacity="0.5" fill="url(#linear-gradient-5)"/>
      <circle cx="201.65" cy="116.53" r="61.89" transform="translate(42.94 286.99) rotate(-77.07)" opacity="0.24" fill="url(#radial-gradient)"/>
    </g>
    <g>
      <path d="M278.11,165.37a35.76,35.76,0,0,1-5.21-10.71c-.83-2.47-2.47-2.47-4.12-1.92s-6.31,2.47-8,4.94-9.61,4.67-11.53,5.21-3.29,3-10.15,2.48a11.22,11.22,0,0,0-8.87,2.84l.08-.1c1.1-1.37.55-5.76,1.65-5.76s1.65.27.55-2.47-.83-8,.27-10.44,3.84-7.68,2.47-11.52-4.94-6.87-4.94-8-1.92-5.22-3.84-7.69-.83-3.57.27-6,.82-4.94-1.64-7.69-2.48-1.64.27-3,4.39-3.84,6.59-3.29a45.47,45.47,0,0,0,7.14,1.1c1.09,0,2.74,1.92,4.93,3s4.4-1.65,5-3.85a9.54,9.54,0,0,0-1.37-6.86c-1.1-1.37-.56-1.1-.56-3.29s-2.47,2.19-3.29,3.84-2.2,1.37-1.1-1.1-1.37-1.92-1.37-1.92.27,1.65-.82,2.2-1.37,0-3.85-.83-4.94,0-6.86-.82-2.2.82-5.49,1.37a13.94,13.94,0,0,1-7.68-.82c-2.47-.82-3.3-.82-6-.27s-1.93.27-3.85-1.38-2.74,2.75-4.94,1.1-4.39,0-3.29-1.65-.27.83.27-5.49-3.84-11-8.23-11.8-8.24,3.84-8.24,3.84l-1.92,1.1c-4.39,1.65.83,4.39.83,4.39s1.09,3.3.54,4.94,1.93,6.87,1.93,6.87c-3.57-.55-8,.55-11.53.55-3.93,0-8,1.09-7.69-.55s-2.19-10.43,1.1-9.06,3-3,5.21-4.12.28-2.2.28-2.2a7.7,7.7,0,0,0-.38-2.74l4.77-8.51c1.65-1.65,11.8-9.06,11.8-9.06,8-3.29,13.84-8.36,15.65-17.57,1.78-9-3.57-18.39-14-16.19s-13.48,12.07-14.27,16.19c-1.37,7.14-1.24,22.92-1.79,24.85-.34,1.21-2.7,5-4.4,7.59-2.38-1-5.14,2.52-6.44,4.07a31.75,31.75,0,0,0-3.57,6.32c-.27.82-3,8.78-3,12.62s2.2,4.67,7.41,6.32,8,2.47,8,2.47l-.27,1.1s4.12.54,6.86,1.09,3.57,2.75,7.41,6.87,3.57,5.21,7.42,8.5,1.64,3.3,6.58,6,4.12,2.2,5.22,4.95,2.74,2.19,2.19,4.11-6.31,6-9.6,8.24-3.57,3-3.57,3-6.31,3.84-10.43,6.58-4.94,6.32-6.31,9.61a28.79,28.79,0,0,1-5.5,8.79c-3,3.56-13.44,12.62-15.37,14.82s-3.57,1.92-6,3.84-8.23,2.75-11,2.75-7.42-.28-5,3.57,9.34,6,14.83,5.21,12.07.27,13.17-.55,0-5.76,0-7.14,0-4.94,10.71-10.43,13.17-9.05,14.82-13.45.55-7.41,6-8.51,11.53-3,11.53-3l4.94,2.2,3-1.92,1.1,3.29,1.37-.27s.27,11.53,4.39,15.37,9.06.82,16.2-2.74,14.82-7.42,17-8,9.34-.55,12.08-.55,4.67-.28,7.41,1.92,3,8.23,5.49,6.86S281.68,170.58,278.11,165.37ZM180.39,33.61a13.62,13.62,0,0,1,14.82-4.94c7.14,3.7,7.42,10.15,4.95,18.11s-14.83,14.55-20.32,9.34S174.08,41.57,180.39,33.61ZM175.45,63c0-2.47-.27-11.53-.27-11.53,3.29,9.06,11.53,8,11.53,8s-5.22,2.47-7.14,4.12-4.71,3.09-5.49,4.66C173,70.39,175.45,65.45,175.45,63Z" fill="#fff"/>
      <path d="M164.47,48a5.55,5.55,0,1,1-5.54-5.55A5.54,5.54,0,0,1,164.47,48Z" fill="#fff"/>
      <path d="M131.66,94.63c-5.93-14.4,14.54-31.4,22.41-37.27a8.2,8.2,0,0,1-5.25-7.65,9.13,9.13,0,0,1,.07-1.06c-9.49,7.56-36.26,31-27.23,48.65,14.66,28.67,95.33,38,95.33,38S141.52,118.58,131.66,94.63Z" fill="#fff"/>
      <path d="M221,134s46.67,4,44,24l10.67,5.33S275,132.63,221,134Z" fill="#fff"/>
    </g>
  </g>
  <g>
    <g>
      <path d="M61.46,238.84h-21v56.85h-5V238.84h-21v-4.29H61.46Z" fill="#007244"/>
      <path d="M82.92,296.58a18.25,18.25,0,0,1-14.18-6.3q-5.64-6.3-5.64-16V272q0-9.74,5.6-16.17a17.41,17.41,0,0,1,13.59-6.42q8.35,0,13.14,5.29t4.79,14.11v4.28H68.14v1.22a20,20,0,0,0,4.07,12.82,13,13,0,0,0,10.71,5.15,22,22,0,0,0,8-1.3,15.77,15.77,0,0,0,5.67-3.74l2.14,3.45A18.07,18.07,0,0,1,92.26,295,24.63,24.63,0,0,1,82.92,296.58Zm-.63-42.88A12,12,0,0,0,72.92,258a18.28,18.28,0,0,0-4.41,10.66l.09.21H95.22v-1.26a14.43,14.43,0,0,0-3.49-9.88A11.91,11.91,0,0,0,82.29,253.7Z" fill="#007244"/>
      <path d="M114.62,250.26l.46,7.93a15.67,15.67,0,0,1,14.7-8.77q7.4,0,11.25,4.51T144.9,268v27.67h-5V268q0-7.83-2.92-11.07t-8.29-3.24a12.94,12.94,0,0,0-8.63,2.8,15.56,15.56,0,0,0-4.81,7.43v31.76h-5V250.26Z" fill="#007244"/>
      <path d="M162.49,250.26l.46,7.93a15.67,15.67,0,0,1,14.7-8.77q7.4,0,11.25,4.51T192.77,268v27.67h-5V268q0-7.83-2.92-11.07t-8.29-3.24a12.94,12.94,0,0,0-8.63,2.8,15.56,15.56,0,0,0-4.81,7.43v31.76h-5V250.26Z" fill="#007244"/>
      <path d="M211.54,237.24h-5v-7.05h5Zm0,58.45h-5V250.26h5Z" fill="#007244"/>
      <path d="M252.65,284.12a7.32,7.32,0,0,0-2.63-5.57q-2.62-2.39-9.46-3.89-8.16-1.77-12-4.67a9.6,9.6,0,0,1-3.88-8.18A11,11,0,0,1,229,253q4.38-3.58,11.61-3.59,7.68,0,12.18,3.8a11.36,11.36,0,0,1,4.28,9.51L257,263h-4.67a8.39,8.39,0,0,0-3.17-6.51,12.55,12.55,0,0,0-8.54-2.77q-5.5,0-8.25,2.36a7.1,7.1,0,0,0-2.75,5.54,6.56,6.56,0,0,0,2.37,5.18q2.37,2,9.47,3.59,8.1,1.81,12.13,4.95a10.25,10.25,0,0,1,4,8.53,11.08,11.08,0,0,1-4.6,9.21q-4.61,3.51-12.16,3.52-8.26,0-13-3.95t-4.47-9.41l.09-.25h4.62a8.27,8.27,0,0,0,4,7.11,16.8,16.8,0,0,0,8.75,2.21c3.64,0,6.51-.79,8.61-2.39A7.05,7.05,0,0,0,252.65,284.12Z" fill="#007244"/>
    </g>
    <g>
      <path d="M271.19,295.69V234.55h20.66q10.78,0,16.83,4.2t6.05,12.56a13.25,13.25,0,0,1-2.25,7.58,13.57,13.57,0,0,1-6.52,5,13,13,0,0,1,8.25,5,15.07,15.07,0,0,1,2.75,8.95q0,8.78-5.8,13.29t-16.42,4.51Zm12.26-35.52h8.82q4.91,0,7.55-2a6.92,6.92,0,0,0,2.65-5.88c0-2.82-.89-4.91-2.67-6.25s-4.43-2-7.95-2h-8.4Zm0,8.48v17.6h11.29q4.88,0,7.44-2.12a7.68,7.68,0,0,0,2.56-6.26q0-4.49-2.19-6.85c-1.45-1.58-3.75-2.37-6.88-2.37Z" fill="#007244"/>
      <path d="M338.25,239.38H326v-9.19h12.26Zm0,56.31H326V250.26h12.26Z" fill="#007244"/>
      <path d="M362,286.25h22.5v9.44H346.77v-7.25l21.63-28.73h-21v-9.45h36.37v7Z" fill="#007244"/>
    </g>
  </g>
</svg>
