<svg xmlns="http://www.w3.org/2000/svg" xmlns:xlink="http://www.w3.org/1999/xlink" viewBox="0 0 83.34 89">
  <defs>
    <linearGradient id="linear-gradient" x1="42.28" y1="58.33" x2="42.28" y2="2.52" gradientUnits="userSpaceOnUse">
      <stop offset="0" stop-color="#b01117"/>
      <stop offset="0.08" stop-color="#b8262a"/>
      <stop offset="0.32" stop-color="#cb5e5b"/>
      <stop offset="0.53" stop-color="#db8a82"/>
      <stop offset="0.73" stop-color="#e6aa9e"/>
      <stop offset="0.89" stop-color="#edbdaf"/>
      <stop offset="1" stop-color="#efc4b5"/>
    </linearGradient>
    <linearGradient id="linear-gradient-2" x1="81.65" y1="78.94" x2="32.72" y2="36.13" gradientUnits="userSpaceOnUse">
      <stop offset="0" stop-color="#640000"/>
      <stop offset="0.09" stop-color="#720506"/>
      <stop offset="0.34" stop-color="#921114"/>
      <stop offset="0.58" stop-color="#a9191e"/>
      <stop offset="0.8" stop-color="#b71e24"/>
      <stop offset="1" stop-color="#bc2026"/>
    </linearGradient>
    <linearGradient id="linear-gradient-3" x1="84.48" y1="31.81" x2="3.84" y2="10.36" gradientUnits="userSpaceOnUse">
      <stop offset="0" stop-color="#98090d"/>
      <stop offset="1" stop-color="#fff0e9"/>
    </linearGradient>
    <linearGradient id="linear-gradient-4" x1="64.44" y1="65.75" x2="71.07" y2="74.41" gradientUnits="userSpaceOnUse">
      <stop offset="0" stop-color="#98090d"/>
      <stop offset="0.44" stop-color="#c87c7e"/>
      <stop offset="0.83" stop-color="#f0dadb"/>
      <stop offset="1" stop-color="#fff"/>
    </linearGradient>
    <linearGradient id="linear-gradient-5" x1="29.39" y1="47.18" x2="6.97" y2="30.36" gradientUnits="userSpaceOnUse">
      <stop offset="0" stop-color="#b01117"/>
      <stop offset="0.43" stop-color="#d47c80"/>
      <stop offset="0.82" stop-color="#f3dadb"/>
      <stop offset="1" stop-color="#fff"/>
    </linearGradient>
    <radialGradient id="radial-gradient" cx="18.72" cy="29.41" r="56.93" gradientUnits="userSpaceOnUse">
      <stop offset="0.01" stop-color="#fff"/>
      <stop offset="0.28" stop-color="#fff"/>
      <stop offset="0.35" stop-color="#fcf9f9"/>
      <stop offset="0.44" stop-color="#f3e8e8"/>
      <stop offset="0.56" stop-color="#e5cbcc"/>
      <stop offset="0.68" stop-color="#d2a4a5"/>
      <stop offset="0.81" stop-color="#b97173"/>
      <stop offset="0.94" stop-color="#9b3536"/>
      <stop offset="1" stop-color="#8d191b"/>
    </radialGradient>
  </defs>
  <title>sportsbizlogo-icon</title>
  <g id="Layer_2" data-name="Layer 2">
    <g id="Layer_1-2" data-name="Layer 1">
      <g>
        <g>
          <path d="M10,0A7.72,7.72,0,0,0,4.34,2.46,8.5,8.5,0,0,0,2,8.35v72.3a8.5,8.5,0,0,0,2.32,5.89A7.72,7.72,0,0,0,10,89H74.59a8.17,8.17,0,0,0,8-8.35V8.35a8.5,8.5,0,0,0-2.32-5.89A7.74,7.74,0,0,0,74.59,0Z" fill="url(#linear-gradient)"/>
          <path d="M80,80.65a5.59,5.59,0,0,1-5.39,5.78H10a5.59,5.59,0,0,1-5.38-5.78V8.35A5.59,5.59,0,0,1,10,2.57H74.59A5.59,5.59,0,0,1,80,8.35Z" fill="url(#linear-gradient-2)"/>
          <path d="M74.59,2.57H10A5.59,5.59,0,0,0,4.59,8.35V18.62c8,14.08,23.4,25.56,42.69,30a70.94,70.94,0,0,0,32.7.05V8.35A5.59,5.59,0,0,0,74.59,2.57Z" fill="url(#linear-gradient-3)"/>
          <path d="M75.73,6.67V76.9a5.64,5.64,0,0,1-5.48,5.79H20.82a5,5,0,0,0,4,2H72.46a5.29,5.29,0,0,0,5.1-5.47V10.87A5.61,5.61,0,0,0,75.73,6.67Z" opacity="0.2" fill="url(#linear-gradient-4)"/>
          <path d="M8.19,82.52V12.29A5.64,5.64,0,0,1,13.66,6.5H43.13a5,5,0,0,0-4-2H11.45a5.29,5.29,0,0,0-5.1,5.47V78.32A5.62,5.62,0,0,0,8.19,82.52Z" opacity="0.47" fill="url(#linear-gradient-5)"/>
          <path d="M11.43,47.15A31.55,31.55,0,1,1,43,78.69,31.56,31.56,0,0,1,11.43,47.15Z" opacity="0.24" fill="url(#radial-gradient)"/>
        </g>
        <path d="M1.94,82.83s73.3-24.23,80.44-33.4S54.43,37.54,54.43,37.54s30.7,4.38,24.89,10.19C71.51,55.54,2.19,73.78,2.19,73.78S-2.57,77.73,1.94,82.83Z" fill="#fff"/>
        <path d="M60.26,16.94a26.11,26.11,0,0,0-1.73-2.52c-1.33-1.86-.93.53,0,2.13s0,3.94-.27,3A12.41,12.41,0,0,0,58,18.1c0-.15-.15-.44-.22-.62-.53-1.33-.37-.39-.62,1.72-.4,3.33.42,2.67.13,4a13.88,13.88,0,0,1-1.06,3.72l-1.33,2.93c-.27-1.33-1.24-3.11-1.2-4.7a6,6,0,0,0-2.21-4.7h0a2.36,2.36,0,0,0-1.18-.61c-1.05-.21-2.32-.09-2.81-.44s-.74-.3-.46-1.48a5.64,5.64,0,0,0,2,0c.69-.21.41-.51.55-.79A5.68,5.68,0,0,0,50.21,15l.62-.41s-.07-1.05-.07-1.4.07-.69.28-.76S51,11.29,51,11.29,50.9,10,50.9,9.62s-.21-1.12-1.39-1.81A7.11,7.11,0,0,0,45,7.25c-1.88.21-2.36,1.53-3,2.65s-.21,2.71-.07,3.68a5.61,5.61,0,0,1-.59,3.32,2.78,2.78,0,0,0-1.43-.47c-.76,0-1.39.14-2.08.07a16.14,16.14,0,0,0-3.34-.76c-1.46,0-1.88.48-2.71.48a23.56,23.56,0,0,0-4.11.35c-1.18.28-2.85.11-3.61.6a36.54,36.54,0,0,0-4.79,5.13,63.69,63.69,0,0,0-3.56,5.75c-.56.9-1.78,1.76-2.55,3.29s-.3,3.39-.3,4.15.76-.28,1.32-1.46a8.06,8.06,0,0,1,1.64-2.42c.35-.28-.19,1.55.09,2s.77-1.15,1.4-1.91a3.13,3.13,0,0,0,.9-2.23,2.07,2.07,0,0,1,.91-2.29c1.11-1,4.55-3.87,5.24-4.76S25.65,20.7,26,20.68a5.8,5.8,0,0,1,2.58.27c1.2.33,2.54.23,3.72.65s1.14.26,1.14,1.79-.62,3.55-.62,5.7-.63,3.13-.91,4.59-.13,2.3-.62,2.37-1.95.76-3,2.92-1.53,4.52-1.12,6a9.42,9.42,0,0,0,1.67,2.92,4.94,4.94,0,0,1-1.18,1.26,11.43,11.43,0,0,0-2.43,3.47A6.58,6.58,0,0,1,23.85,55l-.14.35A21.9,21.9,0,0,0,22,57.4c-.63.91-.42,1.25-1.88.91s-4.24-.63-5.36.41-1.18.7-3.27,1-1.87.28-1.94-.14a3,3,0,0,0-2.09-2c-1.32-.35-1.81,1.18-2.16,1.74s-1.18,2.44-2.5,2.78S1,63.59.61,64.92.54,67,1.24,67.21a2.31,2.31,0,0,0,2.22-.83c.63-.7,1.12-1.88,2-1.88s1.32.07,1.46-.14.42-.28,1-.07.69-.07.41-.21S7,63.87,6.8,63.66s.7-.21,1.88-.34,4.31-.21,6.89-.21a37.79,37.79,0,0,1,4.73.34c.83.07,2,.56,3,.07a3.18,3.18,0,0,0,1.39-1.39,20.38,20.38,0,0,1,2.71-2.08l.49-.07A35.72,35.72,0,0,0,36,51.84L37.62,53s-.21-.28.48.07,1.81.91,1.88,1.53-1.25,3-1.39,4.52.84,6.05,1.39,9.67.56,5.5,0,6.19A5.23,5.23,0,0,0,39,78c.07,1,0,1.88.69,2.16s2.09,0,3,.9,2.57,1.46,5.49,1.18,3.62-1.46,3.48-2.29-1.67-.63-2.16-.63a4.77,4.77,0,0,1-1.95-1.11c-.62-.49-1-.69-1-1.25A1.62,1.62,0,0,0,46,75.56c-.48-.42-.41-1.19-.83-1.19h-.42a10.67,10.67,0,0,1-.48-2.85c-.14-2,.48-9.87.62-12.73A13.34,13.34,0,0,1,46,53.72c.35-.84.7-2.51-.13-3.55a38.74,38.74,0,0,0-3.13-3.06S43,47,41.17,45.3l-.28-.21s.28-1,.42-1.67a15,15,0,0,1,2.15-5.35c1.25-1.53,2.23-4.25,3.48-6.54s1.81-4.11,2.09-4.59a2.42,2.42,0,0,1,.69-.77,8.3,8.3,0,0,0,.56,3.06,44.61,44.61,0,0,1,2,4.11,8.88,8.88,0,0,0,1.31,2.34c.75,1,1.62,1.67,2.4,1.2,1.33-.8,2.66-3.72,2.93-6.78A39.23,39.23,0,0,1,60,22.93C60.52,21.06,61.72,19.2,60.26,16.94Z" fill="#fff"/>
      </g>
    </g>
  </g>
</svg>
