<svg xmlns="http://www.w3.org/2000/svg" viewBox="0 0 1280 720">
  <title>placeholder-template</title>
  <g id="Art">
    <rect width="1280" height="720" fill="#f2f2f2"/>
  </g>
  <g id="Text_live_more_symbols_outlined" data-name="Text live more symbols outlined">
    <g>
      <path d="M342.66,499.39a23.22,23.22,0,0,1-17.88,7.8c-15.59,0-23.27-12.84-23.27-35.4,0-23.88,9.12-43,20.63-43h2.52c6,0,7.08,3.6,13,6,4.8,1.92,6,8.4,6,14.52,0,4.56.12,10-6.48,10.68-4.56,0-6.12-3.84-6.12-7.56,0-2,.48-5.28.48-8.28,0-4-.84-7.56-4.56-7.56-11.75.12-14.63,18.6-14.63,33.84s.84,25.92,11.63,30.6a9.35,9.35,0,0,0,3.72.72c7.92,0,14.88-7.92,14.88-16.32,0-4.2,1.44-7.92,4.92-7.92,2.52,0,3.12,1.92,3.12,4a22.17,22.17,0,0,1-.6,4.56A32.81,32.81,0,0,1,342.66,499.39Z" fill="#adb5bd"/>
      <path d="M394.5,468.43c.84,0,1.08,1.32,1.08,1.92-.36,9.84-9.24,16.2-9.24,16.2a24.93,24.93,0,0,1-.36,4.08c-.6,4.8-5.28,16.32-13.8,16.32a26.23,26.23,0,0,1-10.32-3c-8.28-4.56-9.6-12.48-9.6-19.32,0-11.16,5-25,9.36-29.64a10,10,0,0,1,7-3c5.16,0,10.32,5.52,14.4,10.32,3,3.48,3.24,17.76,3.24,17.76,4.92-3.84,5.4-8.76,6.6-10.8A1.81,1.81,0,0,1,394.5,468.43Zm-24,22.92c-4.32,0-6.12-.48-8.76-2.4l-.12,2.16v.36c0,3.6,1.56,8.16,7.32,8.16,7,0,9.6-6.24,9.72-10.2C376.86,490.63,372.66,491.35,370.5,491.35Zm1.68-31.92c-4.68,0-9.36,8.52-9.36,16,0,6.36,2.28,9.24,8.52,9.24,4.56,0,7.92-1.92,7.92-2.76v-2.28C379.26,477.55,379.14,459.43,372.18,459.43Z" fill="#adb5bd"/>
      <path d="M410.7,477.43c-4.68,6.84-5.76,16.8-7.44,24.84-.24,1-3.36,1.2-4.2,1.2-5.88,0-6.72-.72-7.32-9.12l1.56-35.64c0-1.2.48-1.56,1.68-1.56,1.44,0,6.84,1.08,6.84,2.88v24.36a8.27,8.27,0,0,0,.36-1c2.16-5.88,6.6-18.36,11-18.36,5.64,0,5.88,6.24,5.88,10.44,0,1.56-.48,4.92-.48,12.24,0,4.08.6,8.16,3,8.16,3.6,0,6.12-7.2,6.6-11.88.12-1.44.72-2.28,1.8-2.28,1.44,0,1.8,1.08,1.8,2.4v.24c-.36,6.36-3.84,17.28-13,17.28-7.2,0-8.4-5.28-8.4-15.48Z" fill="#adb5bd"/>
      <path d="M427.14,481.87c.12-7.92.6-17,.84-24.24.12-2.52-12.48-1-12.48-5.76,0-2,4.32-2,12.36-2,1.68,0,.24-19.68,2.4-19.68,1.56,0,9.6,1.32,9.6,3.24L438.54,449c0,3.24,17.4-1.2,17.4,5.28,0,.36-.36,1.32-.84,1.32a4.61,4.61,0,0,0-2.88-.72c-1.44,0-13.08.6-13.8,1.8-.36.6-1.08,14.76-1.08,30.72,0,6,1.08,12.24,4.08,12.24,4.32,0,7-7.8,8.64-16,.48-2.4,1-3.36,2.28-3.36,1.08,0,2.16.48,2.16,3a7.38,7.38,0,0,1-.12,1.56c-1.08,5.64-5.16,22.56-14.28,22.56-8.64,0-13-10.68-13-24.48Z" fill="#adb5bd"/>
      <path d="M486.42,485.11c0,8.16-5.64,21.12-18.72,21.12-12.48,0-17.16-9.6-17.16-21.24,0-11.28,4.92-28.92,16.68-28.92,5.88,0,10.32,5.16,10.68,10.56l.12,1.68c0,7.68-5.16,19.56-14.16,19.56a11.15,11.15,0,0,1-3.24-.48v3.48c0,2.28,2.64,9.24,9.24,9.24,9.12,0,11.52-8.16,12.84-15,.36-2.16.84-2.88,1.92-2.88a1.84,1.84,0,0,1,1.8,2Zm-14.16-18.6c0-1.2-.6-3.12-2.52-3.12-5.76,0-8.28,14.52-8.28,16.68v.36c0,1.44,0,2.4,1.44,2.4h.6c6.36,0,8.76-11,8.76-15.6Z" fill="#adb5bd"/>
      <path d="M501.9,477.43c-4.68,6.84-5.76,16.8-7.44,24.84-.24,1-3.36,1.2-4.2,1.2-5.88,0-6.72-.72-7.32-9.12l1.56-35.64c0-1.2.48-1.56,1.68-1.56,1.44,0,6.84,1.08,6.84,2.88v24.36a8.27,8.27,0,0,0,.36-1c2.16-5.88,6.6-18.36,11-18.36,5.64,0,5.88,6.24,5.88,10.44,0,1.56-.48,4.92-.48,12.24,0,4.08.6,8.16,3,8.16,3.6,0,6.12-7.2,6.6-11.88.12-1.44.72-2.28,1.8-2.28,1.44,0,1.8,1.08,1.8,2.4v.24c-.36,6.36-3.84,17.28-13,17.28-7.2,0-8.4-5.28-8.4-15.48Z" fill="#adb5bd"/>
      <path d="M518.34,481.87c.12-7.92.6-17,.84-24.24.12-2.52-12.48-1-12.48-5.76,0-2,4.32-2,12.36-2,1.68,0,.24-19.68,2.4-19.68,1.56,0,9.6,1.32,9.6,3.24L529.74,449c0,3.24,17.4-1.2,17.4,5.28,0,.36-.36,1.32-.84,1.32a4.61,4.61,0,0,0-2.88-.72c-1.44,0-13.08.6-13.8,1.8-.36.6-1.08,14.76-1.08,30.72,0,6,1.08,12.24,4.08,12.24,4.32,0,7-7.8,8.64-16,.48-2.4,1-3.36,2.28-3.36,1.08,0,2.16.48,2.16,3a7.38,7.38,0,0,1-.12,1.56c-1.08,5.64-5.16,22.56-14.28,22.56-8.64,0-13-10.68-13-24.48Z" fill="#adb5bd"/>
      <path d="M601.38,486.31c-1.92,0-3.84-1.2-5.88-2.52l-.6-.36c-.36,3.84-.84,9.72-.84,16.2,0,2.4.12,2.64.12,4.8,0,1.8,1.32,4,1.32,4.2,0,1.44-2.76,1.44-3.24,1.44-8.28,0-8.64-3.48-8.64-29.88,0-22.08,2.16-41.76,3.24-47.76-5.64,1.08-24.12,8.4-24.12,14.76l2,6.72c0,1.32-.12,4-2.4,4a9.42,9.42,0,0,1-9.36-9c0-14.76,33.72-24.24,48.36-24.24,5.52,0,11.16.36,16.56,3.12,11.52,5.88,11.52,22.68,11.52,24.12C629.46,469.39,616.62,486.31,601.38,486.31ZM596.58,431a53.84,53.84,0,0,0-7,.84c5.28,1.2,7.32,4,7.2,5.64l-1.32,34c0,5.64.24,8.28,4.8,8.28,8.64,0,20.76-21.48,20.76-33C621.06,431.59,605.46,431,596.58,431Z" fill="#adb5bd"/>
      <path d="M646.86,506.23c-2.76,0-6.48-.48-8.64-2.16-5.28-4.2-6.24-18.84-6.24-35.88a246.12,246.12,0,0,1,1.92-26.52c.84-6,2.52-14.88,4.68-17,1.32-1.32,3.72-1.56,5.52-1.56,7.32,0,8.52,8.28,8.52,17.76,0,14.88-1.44,35.16-10.68,48.6.36,4.56,1.32,12.6,5.4,12.6s3.84-4.32,6.84-4.32c1.56,0,2,1.2,2,2.4C656.22,503.83,649.86,506.23,646.86,506.23Zm-2.16-72.6c-2.76,0-3.84,16.2-3.84,33.6,0,3.24,0,9.36.24,13.08,5.28-12.6,6.12-24.12,6.12-36.6C647.22,440.59,646.86,433.63,644.7,433.63Z" fill="#adb5bd"/>
      <path d="M691.74,503.83c-4.8,0-8.88-4.08-9.6-10.56-1.8,5.4-5.16,14.28-11.76,14.28-1.8-.12-1.8-.72-4.32-.84-7.8,0-10.32-11.28-10.32-19.32,0-19.08,4-36,15-36,6.36,0,5.64,2.4,11.88,3.48,6.84,3.72,4.32,11,5.28,17.28.12.48,3.6.84,3.6,3.12v.48c-1.56,4.2-1.68,6.72-1.68,11.28s.6,11.4,4.2,11.4c3.84,0,6-8.88,6.48-11.4.12-1,.72-1.44,1.2-1.44.84,0,1.68.84,1.68,3a11,11,0,0,1-.12,1.92C702.54,495,698,503.83,691.74,503.83Zm-10.68-32.76c0-3.6-.84-10.2-6.12-10.2-9.12,0-10.68,18.72-10.68,25.68,0,5.4.72,15.48,4.56,15.48,9,0,9.24-16.32,10.32-26.52a4.42,4.42,0,0,1,1.92-3.36Z" fill="#adb5bd"/>
      <path d="M717.3,505.75a15.3,15.3,0,0,1-2.28-.12c-8.16-.72-14.88-8.16-15-21.6,0-6.36,1.32-13.92,6.36-19.68,4.44-5,10.8-8.4,17-8.4,3,0,6,1.08,6.24,2.28a66.69,66.69,0,0,1,.36,8.52c0,3.72-.48,5.4-2.16,5.4-3.72-.36-2.28-8.64-7.92-9-8.4,0-10.32,14.88-10.32,19.56,0,9.12,2.52,16.8,9.6,17.4l1.32.12c10,0,11.28-11.88,13.44-11.88h.36c1.08.12,1.56.84,1.56,2a7,7,0,0,1-.6,2.4C731.46,501.67,725.22,505.75,717.3,505.75Z" fill="#adb5bd"/>
      <path d="M771.17,485.11c0,8.16-5.64,21.12-18.71,21.12-12.48,0-17.16-9.6-17.16-21.24,0-11.28,4.91-28.92,16.67-28.92,5.88,0,10.32,5.16,10.68,10.56l.12,1.68c0,7.68-5.16,19.56-14.15,19.56a11.15,11.15,0,0,1-3.24-.48v3.48c0,2.28,2.63,9.24,9.24,9.24,9.11,0,11.51-8.16,12.83-15,.36-2.16.84-2.88,1.92-2.88a1.84,1.84,0,0,1,1.8,2ZM757,466.51c0-1.2-.59-3.12-2.51-3.12-5.76,0-8.29,14.52-8.29,16.68v.36c0,1.44,0,2.4,1.45,2.4h.59c6.37,0,8.76-11,8.76-15.6Z" fill="#adb5bd"/>
      <path d="M815.21,486.55c-.36,4.56-4.56,18.12-14.64,18.12s-11-12-11-28.68c0-1.44,0-4,.12-5.52-4,7.08-7.8,22.32-8.16,33.48a22.92,22.92,0,0,1-5.76,1c-1.8,0-5.88-.36-5.88-3.36a8.88,8.88,0,0,0,.84-4.44v-69c0-2.28-.84-2.64-.84-3.72,0-1.32,5-1.56,6.84-1.56a15.13,15.13,0,0,1,6.36,1.32c-1.68,8.64-3.12,30.84-3.12,38.64,0,.84,0,1-.36,23.76.12-.6,6.48-28.92,11.4-28.92,1.68,0,6,.72,6.6,2.4,1.32,3.72,3,2.76,3,4.8a104.57,104.57,0,0,0-2.52,21.48c0,6.36,1,11.76,4.08,11.76,6.12,0,8.16-8.76,9-14,.24-1.56,1-2.52,1.8-2.52,1.8,0,2.4,1.44,2.4,3.48Z" fill="#adb5bd"/>
      <path d="M851.33,468.43c.84,0,1.08,1.32,1.08,1.92-.36,9.84-9.24,16.2-9.24,16.2a24.93,24.93,0,0,1-.36,4.08c-.6,4.8-5.28,16.32-13.8,16.32a26.23,26.23,0,0,1-10.32-3c-8.28-4.56-9.6-12.48-9.6-19.32,0-11.16,5-25,9.36-29.64a10,10,0,0,1,7-3c5.16,0,10.32,5.52,14.4,10.32,3,3.48,3.24,17.76,3.24,17.76,4.92-3.84,5.4-8.76,6.6-10.8A1.81,1.81,0,0,1,851.33,468.43Zm-24,22.92c-4.32,0-6.12-.48-8.76-2.4l-.12,2.16v.36c0,3.6,1.56,8.16,7.32,8.16,7,0,9.6-6.24,9.72-10.2C833.69,490.63,829.49,491.35,827.33,491.35ZM829,459.43c-4.68,0-9.36,8.52-9.36,16,0,6.36,2.28,9.24,8.52,9.24,4.56,0,7.92-1.92,7.92-2.76v-2.28C836.09,477.55,836,459.43,829,459.43Z" fill="#adb5bd"/>
      <path d="M863.93,506.23c-2.76,0-6.48-.48-8.64-2.16-5.28-4.2-6.24-18.84-6.24-35.88A246.12,246.12,0,0,1,851,441.67c.84-6,2.52-14.88,4.68-17,1.32-1.32,3.72-1.56,5.52-1.56,7.32,0,8.52,8.28,8.52,17.76,0,14.88-1.44,35.16-10.68,48.6.36,4.56,1.32,12.6,5.4,12.6s3.84-4.32,6.84-4.32c1.56,0,2,1.2,2,2.4C873.29,503.83,866.93,506.23,863.93,506.23Zm-2.16-72.6c-2.76,0-3.84,16.2-3.84,33.6,0,3.24,0,9.36.24,13.08,5.28-12.6,6.12-24.12,6.12-36.6C864.29,440.59,863.93,433.63,861.77,433.63Z" fill="#adb5bd"/>
      <path d="M922.13,483.07c-.6,7-3.84,19.44-13.2,19.44-6.84,0-9.36-3.36-11.4-9.84l-.12.6c-1.32,5.28-3.12,12.72-10.08,12.72-2.4,0-4.68-1-7.2-2.28-7.44-3.84-7.56-13.8-7.56-17.28v-2c0-3,4.2-28.44,14.64-28.44,3.84,0,7.92,1.8,9.48,2.4.36-5.88.36-17.52.36-21.12,0-8.4-.84-11.28-2-13.32a26.27,26.27,0,0,1,7.68-1.08c3.6,0,5.76.36,5.76,2.52,0,1.8-2.16,19.68-2.16,41.76v12.12c0,9,.24,16.92,4.32,16.92,4.56,0,6.6-5.28,8-16.68.12-1.32.48-2.4,2-2.4s1.56,2.4,1.56,4.08Zm-25.32-17.4c0-.84-3.24-3-4.92-3-6.48,0-9.84,17.88-9.84,28.2,0,3.84.48,11,4.32,11,6.12,0,9.72-24,10.32-31.92Z" fill="#adb5bd"/>
      <path d="M953.45,485.11c0,8.16-5.64,21.12-18.72,21.12-12.48,0-17.16-9.6-17.16-21.24,0-11.28,4.92-28.92,16.68-28.92,5.88,0,10.32,5.16,10.68,10.56l.12,1.68c0,7.68-5.16,19.56-14.16,19.56a11.15,11.15,0,0,1-3.24-.48v3.48c0,2.28,2.64,9.24,9.24,9.24,9.12,0,11.52-8.16,12.84-15,.36-2.16.84-2.88,1.92-2.88a1.84,1.84,0,0,1,1.8,2Zm-14.16-18.6c0-1.2-.6-3.12-2.52-3.12-5.76,0-8.28,14.52-8.28,16.68v.36c0,1.44,0,2.4,1.44,2.4h.6c6.36,0,8.76-11,8.76-15.6Z" fill="#adb5bd"/>
      <path d="M971.93,506.47c-10.2,0-11.52-16.56-11.52-24,0-4.2.72-8.52.84-12.6,0-1.32-1.68-1.44-2.76-1.44-1.92,0-2.16.6-2.28,1.2l-.48,3.84c-1.32,10.2-2.52,19.56-5.88,19.56h-.12c-.6,0-1.32-.24-1.32-1.44a6,6,0,0,1,.24-1.44,55,55,0,0,0,1.56-11.88v-.84c0-.72.12-1.92.12-3.48,0-2.28,0-5.28-.24-9l-.36-7.08c-.12-1.92,3.84-3.36,6.12-3.36,1.68,0,2.16,1.56,2,3.24l-.12,2.64c-.12,1.8.12,1.92,1.8,2.16h.36c2.64.36,12.84.12,12.84,4.08,0,1.44-1.56,5.16-1.68,5.76a68.87,68.87,0,0,0-2.16,17.28c0,1.92.48,11.76,3.48,11.76,4.92,0,7.68-13.8,8.4-17.76.36-1.8,1.2-1.92,1.8-1.92,1,0,1.68.6,1.68,2.16a25.81,25.81,0,0,1-.24,2.76C984.05,489,981.53,506.47,971.93,506.47Z" fill="#adb5bd"/>
    </g>
    <g>
      <path d="M501.39,317.48A15.75,15.75,0,0,1,504.78,307q3.38-4.05,9.47-4.06t9.5,4.06a15.76,15.76,0,0,1,3.4,10.44v3.93a15.67,15.67,0,0,1-3.4,10.46q-3.4,4-9.47,4t-9.5-4q-3.39-4-3.39-10.46Zm8.29,3.92a13.29,13.29,0,0,0,1,5.75,4,4,0,0,0,7.07,0,13,13,0,0,0,1-5.74v-3.93a13,13,0,0,0-1-5.71,4,4,0,0,0-7.06,0,13.22,13.22,0,0,0-1,5.7Z" fill="#c7d0d8"/>
      <path d="M546.51,311.16l-3.13-.09a3.58,3.58,0,0,0-2.19.64,4.14,4.14,0,0,0-1.33,1.82v21.74h-8.32v-31.7h7.76l.33,4.25.14.06a8.62,8.62,0,0,1,2.13-3.59,4.42,4.42,0,0,1,3.17-1.31,7.22,7.22,0,0,1,1.19.11,8,8,0,0,1,1.1.24Z" fill="#c7d0d8"/>
    </g>
    <g>
      <path d="M715.22,317.48A15.75,15.75,0,0,1,718.61,307Q722,303,728.08,303t9.5,4.06A15.75,15.75,0,0,1,741,317.48v3.93q0,6.45-3.39,10.46t-9.47,4q-6.12,0-9.5-4t-3.39-10.46Zm8.29,3.92a13.15,13.15,0,0,0,1,5.75,4,4,0,0,0,7.07,0,13,13,0,0,0,1-5.74v-3.93a13,13,0,0,0-1-5.71,4,4,0,0,0-7.06,0,13.22,13.22,0,0,0-1,5.7Z" fill="#c7d0d8"/>
      <path d="M760.34,311.16l-3.14-.09a3.56,3.56,0,0,0-2.18.64,4.14,4.14,0,0,0-1.33,1.82v21.74h-8.32v-31.7h7.76l.32,4.25.15.06a8.72,8.72,0,0,1,2.12-3.59A4.46,4.46,0,0,1,758.9,303a7.32,7.32,0,0,1,1.19.11,8,8,0,0,1,1.1.24Z" fill="#c7d0d8"/>
    </g>
    <g>
      <path d="M477.16,318a51.44,51.44,0,1,1-51.43-51.43A51.45,51.45,0,0,1,477.16,318Zm-23.57,0a4.17,4.17,0,0,0-2.15-3.68L415,292.9a4.28,4.28,0,0,0-4.28-.07,4.37,4.37,0,0,0-2.15,3.75v42.86a4.36,4.36,0,0,0,2.15,3.75,4.75,4.75,0,0,0,2.14.54,4.15,4.15,0,0,0,2.14-.6l36.43-21.43A4.19,4.19,0,0,0,453.59,318Z" fill="#adb5bd"/>
      <path d="M695.73,292.3v60a17.18,17.18,0,0,1-17.15,17.15H584.29a17.19,17.19,0,0,1-17.15-17.15v-60a17.18,17.18,0,0,1,17.15-17.15h15l3.42-9.11a13.37,13.37,0,0,1,11.58-8h34.29a13.4,13.4,0,0,1,11.59,8l3.41,9.11h15A17.18,17.18,0,0,1,695.73,292.3Zm-34.29,30a30,30,0,1,0-30,30A30,30,0,0,0,661.44,322.3Zm-10.72,0A19.29,19.29,0,1,1,631.44,303,19.29,19.29,0,0,1,650.72,322.3Z" fill="#adb5bd"/>
      <path d="M871.43,279.44a4.31,4.31,0,0,1-4.29,4.28H790a4.31,4.31,0,0,1-4.28-4.28v-8.57a4.31,4.31,0,0,1,4.28-4.29h77.15a4.31,4.31,0,0,1,4.29,4.29Zm25.72,25.71a4.31,4.31,0,0,1-4.29,4.29H790a4.31,4.31,0,0,1-4.28-4.29v-8.57A4.31,4.31,0,0,1,790,292.3H892.86a4.31,4.31,0,0,1,4.29,4.28ZM880,330.87a4.32,4.32,0,0,1-4.28,4.29H790a4.32,4.32,0,0,1-4.28-4.29V322.3A4.32,4.32,0,0,1,790,318h85.73A4.32,4.32,0,0,1,880,322.3Zm25.72,25.72a4.31,4.31,0,0,1-4.29,4.28H790a4.31,4.31,0,0,1-4.28-4.28V348a4.31,4.31,0,0,1,4.28-4.29H901.43a4.31,4.31,0,0,1,4.29,4.29Z" fill="#adb5bd"/>
    </g>
    <rect x="47.53" y="46.52" width="1184.94" height="626.97" rx="20" ry="20" fill="none" stroke="#adb5bd" stroke-miterlimit="10" stroke-width="2"/>
  </g>
</svg>
