<svg xmlns="http://www.w3.org/2000/svg" viewBox="0 0 455.88 226.33">
  <title>gymnasticsbiz-main-headline</title>
  <g id="Layer_2" data-name="Layer 2">
    <g id="outlined">
      <g>
        <g>
          <path d="M131.85,48.91h25.31V57.7H120.44V.82h11.41Z" fill="#fff"/>
          <path d="M211.8,34.38q0,10.45-6.62,17.3T188,58.52q-10.5,0-17.07-6.84t-6.56-17.3V24.14q0-10.42,6.54-17.28T187.94,0q10.58,0,17.22,6.86t6.64,17.28ZM200.4,24.09a17.3,17.3,0,0,0-3.32-10.92,11,11,0,0,0-9.14-4.26,10.65,10.65,0,0,0-9,4.24q-3.19,4.24-3.2,10.94V34.42q0,6.78,3.24,11a10.68,10.68,0,0,0,9,4.27,10.88,10.88,0,0,0,9.15-4.27q3.27-4.26,3.28-11Z" fill="#fff"/>
          <path d="M243.67,42.58l.7,3.08h.24l.66-3L257.65.82h12L250.35,57.7H238.63L219.33.82h12Z" fill="#fff"/>
          <path d="M314.87,32.7H291.32V48.91h27.54V57.7H279.91V.82h38.87V9.61H291.32v14.3h23.55Z" fill="#fff"/>
        </g>
        <g>
          <path d="M138.18,207.31H122.46l-3,9.66h-9.07l15.41-44.79H135L150.3,217h-9.08Zm-13.51-7H136l-5.54-17.6h-.18Z" fill="#fff"/>
          <path d="M157,217V172.18h15.38a18.48,18.48,0,0,1,13.54,5.25,18.09,18.09,0,0,1,5.32,13.45v7.42a18.06,18.06,0,0,1-5.32,13.46A18.57,18.57,0,0,1,172.38,217Zm9-37.87v31h5.94a9.37,9.37,0,0,0,7.57-3.26,12.81,12.81,0,0,0,2.73-8.51v-7.47a12.71,12.71,0,0,0-2.73-8.45,9.37,9.37,0,0,0-7.57-3.26Z" fill="#fff"/>
          <path d="M212.52,172.18l11.41,33h.19l11.5-33h11.76V217h-9V203.62l.86-19.78-.18,0-12,33.16h-6l-11.93-33-.19,0,.86,19.66V217h-9V172.18Z" fill="#fff"/>
          <path d="M267.83,217h-9V172.18h9Z" fill="#fff"/>
          <path d="M315.51,217h-8.95l-18.09-30.61-.19,0V217h-9V172.18h9l18.09,30.58.19,0V172.18h8.95Z" fill="#fff"/>
        </g>
        <g>
          <path d="M5.37,81.79v3.8h3v2.12h-3v9.57a2.11,2.11,0,0,0,.46,1.55A1.63,1.63,0,0,0,7,99.29a3.05,3.05,0,0,0,.56-.07,3.63,3.63,0,0,0,.51-.14l.39,2a2.56,2.56,0,0,1-1,.43,4.78,4.78,0,0,1-1.23.16,3.72,3.72,0,0,1-2.78-1,4.58,4.58,0,0,1-1-3.31V87.71H0V85.59H2.5v-3.8Z" fill="#fff"/>
          <path d="M18.1,101.64a6.65,6.65,0,0,1-5.29-2.16,8.34,8.34,0,0,1-1.9-5.71v-.64a8.19,8.19,0,0,1,1.95-5.61,6.15,6.15,0,0,1,4.79-2.22,5.7,5.7,0,0,1,4.73,2A8.07,8.07,0,0,1,24,92.49V94H13.89l0,.08a6.53,6.53,0,0,0,1,3.84A3.66,3.66,0,0,0,18.1,99.4,7.33,7.33,0,0,0,20.65,99a5.81,5.81,0,0,0,1.89-1.15l1.12,1.87a7,7,0,0,1-2.23,1.37A8.72,8.72,0,0,1,18.1,101.64Zm-.45-14.09a3.15,3.15,0,0,0-2.49,1.16,5.55,5.55,0,0,0-1.2,3l0,.08h7.1v-.24a4.62,4.62,0,0,0-.84-2.84A3.06,3.06,0,0,0,17.65,87.55Z" fill="#fff"/>
          <path d="M37,101.34c-.1-.48-.17-.9-.23-1.26a10,10,0,0,1-.09-1.1,6.72,6.72,0,0,1-2.09,1.9,5.32,5.32,0,0,1-2.77.76,5.15,5.15,0,0,1-3.75-1.26,4.6,4.6,0,0,1-1.29-3.47,4.07,4.07,0,0,1,1.83-3.53,8.58,8.58,0,0,1,4.95-1.27h3.12V90.55a2.87,2.87,0,0,0-.85-2.19,3.3,3.3,0,0,0-2.38-.81,3.49,3.49,0,0,0-2.26.7,2.12,2.12,0,0,0-.86,1.68l-2.72,0,0-.09a3.78,3.78,0,0,1,1.61-3.15,6.66,6.66,0,0,1,4.42-1.42,6.51,6.51,0,0,1,4.31,1.36,4.84,4.84,0,0,1,1.63,3.92v7.59a14.47,14.47,0,0,0,.08,1.63,9.16,9.16,0,0,0,.32,1.54Zm-4.76-2.1a5.06,5.06,0,0,0,2.81-.8,3.79,3.79,0,0,0,1.63-1.83V94.05H33.47a4.18,4.18,0,0,0-2.77.87,2.59,2.59,0,0,0-1,2,2.18,2.18,0,0,0,.65,1.66A2.74,2.74,0,0,0,32.25,99.24Z" fill="#fff"/>
          <path d="M50.13,99.4a3.35,3.35,0,0,0,2.31-.88,2.79,2.79,0,0,0,1-2.16H56l0,.09a4.53,4.53,0,0,1-1.74,3.62A6.7,6.7,0,0,1,45,99.39a8.74,8.74,0,0,1-1.8-5.62v-.61A8.67,8.67,0,0,1,45,87.56a6.17,6.17,0,0,1,5.12-2.26,5.92,5.92,0,0,1,4.31,1.63,5.17,5.17,0,0,1,1.62,4L56,91H53.43a3.45,3.45,0,0,0-.94-2.45,3.06,3.06,0,0,0-2.36-1,3.31,3.31,0,0,0-3.08,1.64,7.64,7.64,0,0,0-1,4v.61a7.84,7.84,0,0,0,1,4A3.31,3.31,0,0,0,50.13,99.4Z" fill="#fff"/>
          <path d="M62.49,87.7a5.74,5.74,0,0,1,2-1.77,5.52,5.52,0,0,1,2.63-.63A5.09,5.09,0,0,1,71,86.81a6.64,6.64,0,0,1,1.4,4.66v9.87H69.58v-9.9a4.2,4.2,0,0,0-.84-2.88,3.19,3.19,0,0,0-2.5-.93,4.6,4.6,0,0,0-2.22.5,4,4,0,0,0-1.53,1.4v11.81H59.62V78.63h2.87Z" fill="#fff"/>
          <path d="M79.81,81.56H77V78.63h2.86Zm0,19.78H77V85.59h2.86Z" fill="#fff"/>
          <path d="M86.93,85.59l.21,2.34a5.71,5.71,0,0,1,2-1.94,5.27,5.27,0,0,1,2.7-.69,5.18,5.18,0,0,1,4,1.49,6.57,6.57,0,0,1,1.39,4.61v9.94H94.29V91.46a4.26,4.26,0,0,0-.83-3A3.3,3.3,0,0,0,91,87.63a4.41,4.41,0,0,0-2.25.53,3.87,3.87,0,0,0-1.46,1.49v11.69H84.37V85.59Z" fill="#fff"/>
          <path d="M101,93.75a10.5,10.5,0,0,1,1.62-6.12,5.19,5.19,0,0,1,4.53-2.33,5.59,5.59,0,0,1,2.64.6,5.25,5.25,0,0,1,1.9,1.74l.35-2h2.29v15.84a6,6,0,0,1-1.76,4.65,7.26,7.26,0,0,1-5.08,1.62,10.61,10.61,0,0,1-2.46-.31,10.18,10.18,0,0,1-2.32-.85l.44-2.23a8.32,8.32,0,0,0,2,.7,10.25,10.25,0,0,0,2.31.27,4.22,4.22,0,0,0,3-1,4,4,0,0,0,1-2.9V99.64a5,5,0,0,1-1.85,1.49,5.77,5.77,0,0,1-2.49.51,5.37,5.37,0,0,1-4.5-2.08,8.75,8.75,0,0,1-1.62-5.5Zm2.86.31a6.68,6.68,0,0,0,1,3.81,3.39,3.39,0,0,0,3,1.45,3.82,3.82,0,0,0,2.17-.59,4.56,4.56,0,0,0,1.44-1.67V89.81A4.43,4.43,0,0,0,110,88.22a3.73,3.73,0,0,0-2.14-.59,3.27,3.27,0,0,0-3,1.7,8.85,8.85,0,0,0-1,4.42Z" fill="#fff"/>
        </g>
        <g>
          <path d="M73,186.17v3.28h2.42v2.25H73v7.48a1.63,1.63,0,0,0,.36,1.19,1.3,1.3,0,0,0,1,.36,2.63,2.63,0,0,0,.49,0,2.12,2.12,0,0,0,.45-.11l.33,2.22a3.67,3.67,0,0,1-.92.33,5.1,5.1,0,0,1-1.11.12,3.52,3.52,0,0,1-2.63-1,4.27,4.27,0,0,1-1-3.08V191.7H67.9v-2.25H70v-3.28Z" fill="#fff"/>
          <path d="M81,191.2a4.88,4.88,0,0,1,1.64-1.47,4.44,4.44,0,0,1,2.15-.52,4.25,4.25,0,0,1,3.35,1.35,6.12,6.12,0,0,1,1.21,4.18V203h-3v-8.26a3.47,3.47,0,0,0-.62-2.31,2.28,2.28,0,0,0-1.84-.72,3.86,3.86,0,0,0-1.69.35A3,3,0,0,0,81,193v10H78v-19.5h3Z" fill="#fff"/>
          <path d="M98.35,203.24a5.89,5.89,0,0,1-4.63-1.87,7,7,0,0,1-1.67-4.84V196a7.27,7.27,0,0,1,1.67-4.91A5.42,5.42,0,0,1,98,189.21a5,5,0,0,1,4.12,1.68,6.74,6.74,0,0,1,1.4,4.49V197H95.19l0,.06a4.4,4.4,0,0,0,.87,2.7,3,3,0,0,0,2.49,1,6.82,6.82,0,0,0,2.14-.3,5.84,5.84,0,0,0,1.68-.87l1,2a6.51,6.51,0,0,1-2,1.14A8.56,8.56,0,0,1,98.35,203.24ZM98,191.64a2.35,2.35,0,0,0-1.9.86,4.21,4.21,0,0,0-.89,2.23l0,.06h5.28v-.24a3.44,3.44,0,0,0-.6-2.1A2.26,2.26,0,0,0,98,191.64Z" fill="#fff"/>
        </g>
        <g>
          <path d="M147.75,153.57v-22H155a9.54,9.54,0,0,1,5.71,1.51,5.21,5.21,0,0,1,2.06,4.5,4.44,4.44,0,0,1-.83,2.62,5.06,5.06,0,0,1-2.29,1.77,4.93,4.93,0,0,1,3.26,1.83,5.56,5.56,0,0,1,1.14,3.49,5.64,5.64,0,0,1-2,4.71,8.72,8.72,0,0,1-5.6,1.61Zm3.68-12.76h3.93a4.17,4.17,0,0,0,2.71-.81,2.79,2.79,0,0,0,1-2.29,2.85,2.85,0,0,0-1.05-2.43,4.94,4.94,0,0,0-3-.8h-3.54Zm0,2.74v7.09h5a4.43,4.43,0,0,0,2.94-.87,3.12,3.12,0,0,0,1-2.52,3.52,3.52,0,0,0-1-2.65,4.13,4.13,0,0,0-2.85-1h-5.07Z" fill="#fff"/>
          <path d="M184.48,131.53v14.52a7.21,7.21,0,0,1-2.42,5.76,9.18,9.18,0,0,1-6.23,2.08,8.88,8.88,0,0,1-6.11-2.08,7.27,7.27,0,0,1-2.36-5.76V131.53H171v14.52a4.49,4.49,0,0,0,4.8,4.9,5,5,0,0,0,3.61-1.28,4.75,4.75,0,0,0,1.36-3.62V131.53Z" fill="#fff"/>
          <path d="M204.32,134.48h-6.81v19.09h-3.68V134.48h-6.7v-2.95h17.19Z" fill="#fff"/>
        </g>
        <g>
          <path d="M230.31,153.57h-3.68v-9.4h-9.85v9.4H213.1v-22h3.68v9.69h9.85v-9.69h3.68Z" fill="#fff"/>
          <path d="M248.24,148.43h-7.81l-1.69,5.14h-3.8l7.69-22h3.49l7.6,22h-3.8Zm-6.79-3.08h5.79l-2.83-8.69h-.09Z" fill="#fff"/>
          <path d="M272,134.48h-6.81v19.09h-3.68V134.48h-6.7v-2.95H272Z" fill="#fff"/>
          <path d="M288.7,143.66h-8.63v7h10.17v2.93H276.39v-22h13.75v2.95H280.07v6.23h8.63Z" fill="#fff"/>
        </g>
        <g>
          <path d="M158.22,105.17a13.33,13.33,0,0,1-4.94,3.74,19.37,19.37,0,0,1-8.48,1.63,14.56,14.56,0,0,1-10.65-4.05A14.09,14.09,0,0,1,130,96V88.54A14.44,14.44,0,0,1,134,78,13.66,13.66,0,0,1,144.21,74q6.49,0,9.95,3.16a11,11,0,0,1,3.53,8.31l-.05.15h-6.72a6.86,6.86,0,0,0-1.8-4.48,6.31,6.31,0,0,0-4.71-1.65A6.4,6.4,0,0,0,139.13,82a10.16,10.16,0,0,0-2,6.5V96a10,10,0,0,0,2.08,6.57,6.83,6.83,0,0,0,5.59,2.53,12.84,12.84,0,0,0,4-.51,6.2,6.2,0,0,0,2.3-1.27V96.7h-6.3V91.77h13.42Z" fill="#fff"/>
          <path d="M178.48,90.86h.15l7.76-16.38h7.81l-12.2,23V110h-7.11V97.16l-12-22.68h7.82Z" fill="#fff"/>
          <path d="M208.7,74.48l9.05,26.2h.15L227,74.48h9.33V110h-7.13V99.43l.68-15.7-.14,0L220.24,110h-4.78L206,83.81l-.15,0,.68,15.6V110h-7.13V74.48Z" fill="#fff"/>
          <path d="M273.51,110H266.4L252.05,85.74l-.15,0V110h-7.13V74.48h7.13l14.36,24.27.14,0V74.48h7.11Z" fill="#fff"/>
          <path d="M301,102.36H288.52L286.1,110h-7.2l12.23-35.55h7.3L310.61,110h-7.2Zm-10.72-5.59h9l-4.39-14h-.15Z" fill="#fff"/>
          <path d="M334.87,100.75a4.13,4.13,0,0,0-1.45-3.29,14.7,14.7,0,0,0-5.09-2.35,29.11,29.11,0,0,1-9.6-4.34,8.27,8.27,0,0,1-3.25-6.89,8.55,8.55,0,0,1,3.73-7.14A15.48,15.48,0,0,1,328.72,74a14.31,14.31,0,0,1,9.54,3.11,9.33,9.33,0,0,1,3.57,7.68l-.05.15h-6.91a5.16,5.16,0,0,0-1.65-4,6.55,6.55,0,0,0-4.63-1.53,6.79,6.79,0,0,0-4.41,1.27,4,4,0,0,0-1.57,3.25,3.47,3.47,0,0,0,1.68,3,23.06,23.06,0,0,0,5.77,2.46A22.43,22.43,0,0,1,339,93.65a9,9,0,0,1,3,7,8.43,8.43,0,0,1-3.6,7.2q-3.6,2.64-9.51,2.64a17.36,17.36,0,0,1-10.13-3,9.32,9.32,0,0,1-4.2-8.39l.05-.14h6.93a5.49,5.49,0,0,0,1.94,4.65,8.79,8.79,0,0,0,5.41,1.48,7.09,7.09,0,0,0,4.44-1.2A3.83,3.83,0,0,0,334.87,100.75Z" fill="#fff"/>
          <path d="M373.71,80H363.65V110h-7.13V80h-10V74.48h27.2Z" fill="#fff"/>
          <path d="M387,110h-7.13V74.48H387Z" fill="#fff"/>
          <path d="M422.69,97.92l.05.15a11.59,11.59,0,0,1-3.51,9.1q-3.6,3.38-10,3.37a13.89,13.89,0,0,1-10.43-4.12,14.61,14.61,0,0,1-4-10.63V88.74a14.9,14.9,0,0,1,3.9-10.62A13.31,13.31,0,0,1,408.87,74q6.58,0,10.3,3.38t3.62,9.22l-.05.14H415.8a7.79,7.79,0,0,0-1.68-5.38q-1.68-1.87-5.25-1.87a6,6,0,0,0-5.08,2.6,11,11,0,0,0-1.88,6.62v7.1a10.68,10.68,0,0,0,2,6.67,6.38,6.38,0,0,0,5.35,2.6,6.28,6.28,0,0,0,4.94-1.8,7.75,7.75,0,0,0,1.6-5.33Z" fill="#fff"/>
          <path d="M448.75,100.75a4.1,4.1,0,0,0-1.45-3.29,14.61,14.61,0,0,0-5.09-2.35,29,29,0,0,1-9.59-4.34,8.24,8.24,0,0,1-3.25-6.89,8.54,8.54,0,0,1,3.72-7.14A15.48,15.48,0,0,1,442.6,74a14.32,14.32,0,0,1,9.55,3.11,9.35,9.35,0,0,1,3.56,7.68l0,.15h-6.91a5.15,5.15,0,0,0-1.64-4,6.56,6.56,0,0,0-4.63-1.53,6.82,6.82,0,0,0-4.42,1.27,4,4,0,0,0-1.56,3.25,3.49,3.49,0,0,0,1.67,3,23.23,23.23,0,0,0,5.77,2.46,22.41,22.41,0,0,1,8.92,4.32,9,9,0,0,1,3,7,8.43,8.43,0,0,1-3.6,7.2q-3.6,2.64-9.51,2.64a17.39,17.39,0,0,1-10.13-3,9.34,9.34,0,0,1-4.2-8.39l.05-.14h6.93a5.47,5.47,0,0,0,1.95,4.65,8.75,8.75,0,0,0,5.4,1.48,7.13,7.13,0,0,0,4.45-1.2A3.85,3.85,0,0,0,448.75,100.75Z" fill="#fff"/>
        </g>
        <path d="M334.14,202.47q.06-8.06,2.39-11.81t9.3-9.1a30.66,30.66,0,0,0,6.55-7.2,15.85,15.85,0,0,0,2.44-8.65q0-5.29-2.79-8.29t-8-3a10.76,10.76,0,0,0-7.23,2.54c-2,1.69-3,4.16-3,7.43H317.43l-.12-.35q-.17-11.06,7.29-16.94t19.45-5.87q12.9,0,20.25,6.54t7.35,17.77a23.37,23.37,0,0,1-4.29,13.54,38.43,38.43,0,0,1-10.75,10.43A13.8,13.8,0,0,0,352,195a20.88,20.88,0,0,0-1.09,7.52ZM351,226.33H334.08V211.92H351Z" fill="#fff"/>
      </g>
    </g>
  </g>
</svg>
