<svg xmlns="http://www.w3.org/2000/svg" xmlns:xlink="http://www.w3.org/1999/xlink" viewBox="0 0 83.81 89">
  <defs>
    <linearGradient id="linear-gradient" x1="537.24" y1="-45.28" x2="537.24" y2="-93.39" gradientTransform="translate(-497 114.81)" gradientUnits="userSpaceOnUse">
      <stop offset="0" stop-color="#ce5822"/>
      <stop offset="1" stop-color="#fdd0a3"/>
    </linearGradient>
    <linearGradient id="linear-gradient-2" x1="575.32" y1="-19.9" x2="517.19" y2="-95.28" gradientTransform="translate(-497 114.81)" gradientUnits="userSpaceOnUse">
      <stop offset="0" stop-color="#dc713d"/>
      <stop offset="0.38" stop-color="#e27f1c"/>
      <stop offset="1" stop-color="#ffd59a"/>
    </linearGradient>
    <radialGradient id="radial-gradient" cx="499.29" cy="-90.99" r="96.69" gradientTransform="translate(-497 114.81)" gradientUnits="userSpaceOnUse">
      <stop offset="0" stop-color="#fff1e5"/>
      <stop offset="0.09" stop-color="#feead7"/>
      <stop offset="0.25" stop-color="#fdd8b1"/>
      <stop offset="0.47" stop-color="#fabb74"/>
      <stop offset="0.75" stop-color="#f69320"/>
      <stop offset="0.75" stop-color="#f6921e"/>
      <stop offset="1" stop-color="#d7603e"/>
    </radialGradient>
    <linearGradient id="linear-gradient-3" x1="54.16" y1="51.71" x2="72.17" y2="64.73" gradientUnits="userSpaceOnUse">
      <stop offset="0.19" stop-color="#f6921e"/>
      <stop offset="0.51" stop-color="#fac07d"/>
      <stop offset="0.85" stop-color="#feedda"/>
      <stop offset="1" stop-color="#fff"/>
    </linearGradient>
    <linearGradient id="linear-gradient-4" x1="511.65" y1="-81.43" x2="498.71" y2="-93.88" gradientTransform="translate(-497 114.81)" gradientUnits="userSpaceOnUse">
      <stop offset="0" stop-color="#fab77d"/>
      <stop offset="0.69" stop-color="#fff"/>
    </linearGradient>
    <radialGradient id="radial-gradient-2" cx="511.31" cy="-97" r="102.82" gradientTransform="translate(-497 114.81)" gradientUnits="userSpaceOnUse">
      <stop offset="0.41" stop-color="#fff"/>
      <stop offset="0.75" stop-color="#f6921e"/>
      <stop offset="1" stop-color="#f37d48"/>
    </radialGradient>
  </defs>
  <title>gymnasticsbizlogo-icon</title>
  <g id="Layer_2" data-name="Layer 2">
    <g id="Layer_1-2" data-name="Layer 1">
      <g>
        <path d="M8.69,2.07a7.54,7.54,0,0,0-5.51,2.4A8.35,8.35,0,0,0,.92,10.23V80.84A8,8,0,0,0,8.69,89H71.81a8,8,0,0,0,7.77-8.16V10.23a8.35,8.35,0,0,0-2.27-5.76,7.52,7.52,0,0,0-5.5-2.4Z" fill="url(#linear-gradient)"/>
        <path d="M77.07,80.84a5.47,5.47,0,0,1-5.26,5.65H8.69a5.46,5.46,0,0,1-5.26-5.65V10.23A5.46,5.46,0,0,1,8.69,4.58H71.81a5.47,5.47,0,0,1,5.26,5.65Z" fill="url(#linear-gradient-2)"/>
        <path d="M71.81,4.58H8.69a5.46,5.46,0,0,0-5.26,5.65v10c7.83,13.76,22.86,25,41.7,29.35a69.32,69.32,0,0,0,31.94,0V10.23A5.47,5.47,0,0,0,71.81,4.58Z" fill="url(#radial-gradient)"/>
        <path d="M72.79,8.53v68.6a5.5,5.5,0,0,1-5.35,5.65H19.16a4.83,4.83,0,0,0,3.87,2H69.6a5.17,5.17,0,0,0,5-5.34V12.64A5.52,5.52,0,0,0,72.79,8.53Z" opacity="0.25" fill="url(#linear-gradient-3)"/>
        <path d="M6.82,82.62V14a5.51,5.51,0,0,1,5.35-5.66H47.59a4.84,4.84,0,0,0-3.87-2H10a5.18,5.18,0,0,0-5,5.35V78.51A5.52,5.52,0,0,0,6.82,82.62Z" opacity="0.5" fill="url(#linear-gradient-4)"/>
        <path d="M10.24,47.49A30.81,30.81,0,1,1,41.05,78.3,30.81,30.81,0,0,1,10.24,47.49Z" opacity="0.28" fill="url(#radial-gradient-2)"/>
        <path d="M83.32,20.58a5.56,5.56,0,0,0-2.87,1A9.52,9.52,0,0,1,75.18,23c-1.52-.15-1.66,1-1.61,1.81s0,2.31-2.53,4.47-7.17,5.86-7.22,8.68a1.48,1.48,0,0,1-1.75.16c-1-.56-9.3-4.84-15.45-5.31a77.72,77.72,0,0,0-7.57-9.31c-4.45-4.66-5.35-4.95-6.53-5.25s-1.69-.59-3.76-2-7.94-5-10-6.53-4-4-6.06-5.6-2.47-1.81-3.26-3S8.46-.09,7.68.13s-.59,2.6.32,3.8a11.23,11.23,0,0,1,2.24,4.49c.34,1.79.87,2.3,1.86,2.45s2-.66,4.46,2,5,7.05,8.13,8.32A25.78,25.78,0,0,1,30,23.75a10.36,10.36,0,0,1,3,3.46c1.12,2,4.45,5.58,5.2,8.3s0,3.85,1,5.56a23.76,23.76,0,0,0,3.92,4.15c.93.91,0,4.14-1.76,6.37S37.42,56,36.92,56.12s0-.06-.38-1.62a3.55,3.55,0,0,0-1.6-2.15s.52-.93,1.28-.33l1,.73s-1.06-2.44-3.06-2.36c0,0,.1-.53,1.27-.85,0,0-1.43-.8-2.55,1.19a1,1,0,0,0-1.26.45c-.48.75-1.9.47-2.75,2.36s-1.19,1.41-2,2.73a7.61,7.61,0,0,0-.76,3.48,5.22,5.22,0,0,0-1.31,2.75,2.23,2.23,0,0,0,1,2,2.05,2.05,0,0,1-.29-2.26,2,2,0,0,0,1.05,1.93l1.15.49s-2.08-1.51-1.3-2.54a7.54,7.54,0,0,0,1.22.94,15,15,0,0,0,2.33,1.6,5,5,0,0,1,.34.6l.21.44a13.84,13.84,0,0,1-2.33,2.13c-1.1.72-4,3-4.95,3.78s-1.6.4-2.39-.08S19,70,18.08,69.8s-3.53.15-3,.48.14.44.53.6c.59.24,1.27.31,1.9.5.43.13,1.34,1.23.95,1.2s-1.3-.23-1.51-.07.84.75,1.7,1a7.63,7.63,0,0,1,2,.93c.79.48,1.63.18,2.69-.49a33.16,33.16,0,0,1,4.14-2.37c1.45-.65,5-2.83,6.35-4.53a2.51,2.51,0,0,0,.77,0c.5,0,.76-1,.94-1.38s.45-1.21,1-1.08a1.56,1.56,0,0,1-.15.63.2.2,0,0,0,.16.32S35.24,68,34.46,69.05s-2.23,3.16-2.82,3.39S27.41,76.06,25,77.65c-2,1.33-3.55,2.73-3.84,2.58-1.06-.55-1.79-1.31-2.59-1.73-.42-.23-.8-.43-3-.11a11.9,11.9,0,0,0-1.48.17c-.24.1-.14.42.56.51a8.5,8.5,0,0,0,1.4,0c.87,0,.46,0-1.44.24-.38,0-.76.16-.07.38a7.49,7.49,0,0,0,1.16.13c.36.05,1.61.08,1.32.1s-.89.09-1.42.15-.75.18-.34.35a4.6,4.6,0,0,0,1.6.12c.4,0,1,.2.74.2a7.7,7.7,0,0,0-1.26,0c-.26,0-.18.18.06.36a22.19,22.19,0,0,1,2.3.69c.68.32,2.35,1.57,3.13,1.24s.58-.84,4.12-2.79c2.11-1.16,6.45-3.78,7.07-4.05A12.57,12.57,0,0,0,36.34,73c1.41-1.83,4.51-7,5.64-8.27A8.48,8.48,0,0,1,46.43,62a5,5,0,0,0,3.49-2.93c.46-1.14,2.08-3.75,2.46-6.18s-.58-9.34-1-10.75c0,0,0-.34,1,0a61.88,61.88,0,0,0,9.59,1.91c3.14.25,4.17,0,5.19-1.09a4.62,4.62,0,0,0,1.38-2.32,31.49,31.49,0,0,1,2.76-4.8c2-3.24,3-5.28,4.21-6.86a28.62,28.62,0,0,1,3.24-3.13c1-1.05,2.52-2.47,3.08-3.12s1-.51,1.5-1.15S84.13,20.67,83.32,20.58Z" fill="#fff"/>
        <path d="M68.26,65.89C62,55.28,49.16,40.3,28.52,43.34,15,45.34,6.06,52.1.92,58.48c0,0-1.06.72-.9,6a71,71,0,0,0,.9,9.15c4.32-9.36,13.37-24.27,27.6-26.1,23.31-3,29.36,5.37,36.07,22.46A58.85,58.85,0,0,0,75.34,88.09a8.1,8.1,0,0,0,4.24-7.25v-.62A65.61,65.61,0,0,1,68.26,65.89Z" fill="#fff"/>
      </g>
    </g>
  </g>
</svg>
