<svg xmlns="http://www.w3.org/2000/svg" xmlns:xlink="http://www.w3.org/1999/xlink" viewBox="0 0 78.25 90">
  <defs>
    <linearGradient id="linear-gradient" x1="39.14" y1="-7.78" x2="39.14" y2="71.26" gradientUnits="userSpaceOnUse">
      <stop offset="0" stop-color="#b4dbb8"/>
      <stop offset="0.28" stop-color="#b2d9b6"/>
      <stop offset="0.43" stop-color="#aad4b1"/>
      <stop offset="0.55" stop-color="#9ccca7"/>
      <stop offset="0.66" stop-color="#88bf99"/>
      <stop offset="0.75" stop-color="#6faf87"/>
      <stop offset="0.84" stop-color="#509b70"/>
      <stop offset="0.92" stop-color="#2c8456"/>
      <stop offset="1" stop-color="#026938"/>
      <stop offset="1" stop-color="#006837"/>
    </linearGradient>
    <linearGradient id="linear-gradient-2" x1="67.35" y1="57.24" x2="11.86" y2="32.79" gradientUnits="userSpaceOnUse">
      <stop offset="0" stop-color="#007244"/>
      <stop offset="0.01" stop-color="#017345"/>
      <stop offset="0.28" stop-color="#149252"/>
      <stop offset="0.53" stop-color="#22a95b"/>
      <stop offset="0.78" stop-color="#2ab661"/>
      <stop offset="1" stop-color="#2dbb63"/>
    </linearGradient>
    <linearGradient id="linear-gradient-3" x1="3.1" y1="26.77" x2="75.18" y2="26.77" gradientUnits="userSpaceOnUse">
      <stop offset="0" stop-color="#d6f2e0"/>
      <stop offset="0.51" stop-color="#7dc36e"/>
      <stop offset="1" stop-color="#007244"/>
    </linearGradient>
    <linearGradient id="linear-gradient-4" x1="34.63" y1="32.22" x2="77.23" y2="85.61" gradientUnits="userSpaceOnUse">
      <stop offset="0" stop-color="#006f3b"/>
      <stop offset="0.29" stop-color="#399468"/>
      <stop offset="0.78" stop-color="#96d1b0"/>
      <stop offset="1" stop-color="#bbe9cd"/>
    </linearGradient>
    <linearGradient id="linear-gradient-5" x1="14" y1="32.8" x2="0.65" y2="19.97" gradientUnits="userSpaceOnUse">
      <stop offset="0" stop-color="#2dbb63"/>
      <stop offset="0.36" stop-color="#7ed59f"/>
      <stop offset="0.8" stop-color="#daf3e4"/>
      <stop offset="1" stop-color="#fff"/>
    </linearGradient>
    <radialGradient id="radial-gradient" cx="250.19" cy="-369.64" r="57.51" gradientTransform="translate(-103.12 222.81) scale(0.49 0.51)" gradientUnits="userSpaceOnUse">
      <stop offset="0.42" stop-color="#fff"/>
      <stop offset="1" stop-color="#268f3b"/>
    </radialGradient>
  </defs>
  <title>Asset 16logo-icon</title>
  <g id="Layer_2" data-name="Layer 2">
    <g id="Layer_1-2" data-name="Layer 1">
      <g>
        <g>
          <path d="M8.24,0A7.2,7.2,0,0,0,2.86,2.48,8.82,8.82,0,0,0,.64,8.41v72.8c0,4.64,3.41,8.41,7.6,8.41H70c4.2,0,7.61-3.77,7.61-8.41V8.41a8.82,8.82,0,0,0-2.22-5.93A7.2,7.2,0,0,0,70,0Z" fill="url(#linear-gradient)"/>
          <path d="M75.18,81.21c0,3.21-2.3,5.82-5.15,5.82H8.24C5.4,87,3.1,84.42,3.1,81.21V8.41c0-3.22,2.3-5.82,5.14-5.82H70c2.85,0,5.15,2.6,5.15,5.82Z" fill="url(#linear-gradient-2)"/>
          <path d="M70,2.59H8.24C5.4,2.59,3.1,5.19,3.1,8.41V18.75C10.77,32.93,25.47,44.49,43.92,49a64.55,64.55,0,0,0,31.26,0V8.41C75.18,5.19,72.88,2.59,70,2.59Z" fill="url(#linear-gradient-3)"/>
          <path d="M71,6.66V77.38c0,3.22-2.34,5.83-5.23,5.83H18.5a4.66,4.66,0,0,0,3.79,2.05H67.88c2.69,0,4.87-2.47,4.87-5.51V10.89A5.81,5.81,0,0,0,71,6.66Z" opacity="0.25" fill="url(#linear-gradient-4)"/>
          <path d="M6.42,83V12.32c0-3.22,2.34-5.83,5.23-5.83H46.33a4.69,4.69,0,0,0-3.79-2h-33C6.84,4.44,4.66,6.91,4.66,10V78.81A5.81,5.81,0,0,0,6.42,83Z" opacity="0.5" fill="url(#linear-gradient-5)"/>
          <ellipse cx="39.93" cy="46.82" rx="30.16" ry="31.76" opacity="0.24" fill="url(#radial-gradient)"/>
        </g>
        <g>
          <path d="M77.26,69.61a18,18,0,0,1-2.5-5.34,1.33,1.33,0,0,0-2-1c-.79.27-3,1.23-3.82,2.46s-4.6,2.34-5.53,2.61-1.58,1.51-4.87,1.23A5.27,5.27,0,0,0,54.31,71l0-.05c.52-.69.26-2.88.79-2.88s.79.13.26-1.24a8.79,8.79,0,0,1,.13-5.21c.53-1.24,1.85-3.84,1.19-5.76s-2.37-3.43-2.37-4a10.91,10.91,0,0,0-1.85-3.84c-.92-1.23-.39-1.78.14-3a3.42,3.42,0,0,0-.79-3.84c-1.19-1.37-1.19-.82.13-1.51s2.1-1.92,3.16-1.64a21.46,21.46,0,0,0,3.42.55c.53,0,1.32,1,2.37,1.51S63,39.3,63.3,38.2a4.83,4.83,0,0,0-.66-3.42c-.52-.69-.26-.55-.26-1.65s-1.19,1.1-1.58,1.92-1,.69-.53-.55-.65-1-.65-1,.13.82-.4,1.1-.66,0-1.84-.41-2.37,0-3.3-.41-1,.41-2.63.68a6.42,6.42,0,0,1-3.69-.41A4.2,4.2,0,0,0,44.87,34c-1.32.28-.93.14-1.85-.68s-1.31,1.37-2.37.55-2.1,0-1.58-.83-.13.41.13-2.74a5.41,5.41,0,0,0-4-5.9c-2.1-.41-3.95,1.92-3.95,1.92l-.92.55c-2.11.82.4,2.19.4,2.19A5.7,5.7,0,0,1,31,31.48c-.26.83.92,3.43.92,3.43-1.71-.27-3.82.28-5.53.28-1.88,0-3.82.55-3.69-.28s-1-5.21.53-4.52,1.45-1.51,2.5-2.06.13-1.1.13-1.1a4,4,0,0,0-.18-1.37L28,21.61c.79-.82,5.66-4.53,5.66-4.53,3.82-1.64,6.64-4.18,7.51-8.78S39.47-.89,34.46.21,28,6.24,27.62,8.3c-.66,3.57-.6,11.46-.86,12.42a28.61,28.61,0,0,1-2.11,3.79c-1.15-.49-2.47,1.26-3.09,2a15.64,15.64,0,0,0-1.71,3.15A28.71,28.71,0,0,0,18.4,36c0,1.92,1.05,2.33,3.55,3.16s3.82,1.23,3.82,1.23l-.13.55s2,.27,3.29.55,1.71,1.37,3.56,3.43,1.71,2.6,3.55,4.25.79,1.64,3.16,3,2,1.09,2.51,2.46,1.31,1.1,1,2.06-3,3-4.61,4.12-1.71,1.5-1.71,1.5-3,1.93-5,3.3-2.37,3.15-3,4.8a14.61,14.61,0,0,1-2.64,4.39c-1.45,1.78-6.45,6.31-7.37,7.4s-1.71,1-2.9,1.92-3.95,1.38-5.27,1.38-3.55-.14-2.37,1.78,4.48,3,7.11,2.6,5.8.14,6.32-.27,0-2.88,0-3.57,0-2.47,5.14-5.21,6.32-4.52,7.11-6.72.26-3.7,2.9-4.25S42,68.38,42,68.38l2.37,1.1,1.45-1,.52,1.64L47,70s.13,5.76,2.11,7.68,4.35.41,7.77-1.37a79.56,79.56,0,0,1,8.16-4,38.48,38.48,0,0,1,5.8-.28c1.31,0,2.24-.13,3.55,1s1.45,4.12,2.64,3.43S79,72.22,77.26,69.61ZM30.38,3.78a6.36,6.36,0,0,1,7.11-2.47c3.43,1.85,3.56,5.07,2.37,9S32.75,17.63,30.12,15,27.35,7.76,30.38,3.78ZM28,18.45c0-1.23-.13-5.76-.13-5.76,1.58,4.53,5.53,4,5.53,4A21.36,21.36,0,0,0,30,18.73c-.93.82-2.26,1.54-2.64,2.33C26.83,22.16,28,19.69,28,18.45Z" fill="#fff"/>
          <path d="M21.79,11.17a2.71,2.71,0,1,1-2.71-2.82A2.76,2.76,0,0,1,21.79,11.17Z" fill="#fff"/>
          <path d="M5.77,34.86c-2.89-7.32,7.1-16,10.94-18.94A4.18,4.18,0,0,1,14.15,12a4.63,4.63,0,0,1,0-.54C9.55,15.33-3.51,27.25.89,36.22,8.05,50.79,47.42,55.53,47.42,55.53S10.59,47,5.77,34.86Z" fill="#fff"/>
          <path d="M49.37,54.85s22.77,2,21.47,12.2l5.21,2.71S75.72,54.18,49.37,54.85Z" fill="#fff"/>
        </g>
      </g>
    </g>
  </g>
</svg>
