<svg xmlns="http://www.w3.org/2000/svg" xmlns:xlink="http://www.w3.org/1999/xlink" viewBox="0 0 77.81 89">
  <defs>
    <linearGradient id="linear-gradient" x1="151.55" y1="-475.72" x2="151.55" y2="-432.63" gradientTransform="translate(-112.64 498.04)" gradientUnits="userSpaceOnUse">
      <stop offset="0.01" stop-color="#e9e0af"/>
      <stop offset="0.15" stop-color="#e0d2a1"/>
      <stop offset="0.43" stop-color="#c8af7c"/>
      <stop offset="0.82" stop-color="#a27540"/>
      <stop offset="0.98" stop-color="#905a24"/>
    </linearGradient>
    <linearGradient id="linear-gradient-2" x1="170.8" y1="-421.91" x2="128.14" y2="-491.19" gradientTransform="translate(-112.64 498.04)" gradientUnits="userSpaceOnUse">
      <stop offset="0" stop-color="#b27d2b"/>
      <stop offset="0.23" stop-color="#c09744"/>
      <stop offset="0.53" stop-color="#ceb15d"/>
      <stop offset="0.79" stop-color="#d7c06d"/>
      <stop offset="1" stop-color="#dac672"/>
    </linearGradient>
    <linearGradient id="linear-gradient-3" x1="185.36" y1="-485.41" x2="127.91" y2="-460.06" gradientTransform="translate(-112.64 498.04)" gradientUnits="userSpaceOnUse">
      <stop offset="0.01" stop-color="#c2812a"/>
      <stop offset="0.9" stop-color="#e7ddbe"/>
      <stop offset="1" stop-color="#eeeadd"/>
    </linearGradient>
    <linearGradient id="linear-gradient-4" x1="44.03" y1="44.71" x2="75.26" y2="67.74" gradientUnits="userSpaceOnUse">
      <stop offset="0.01" stop-color="#b0882f"/>
      <stop offset="1" stop-color="#fff"/>
    </linearGradient>
    <linearGradient id="linear-gradient-5" x1="126.23" y1="-465.21" x2="113.42" y2="-477.53" gradientTransform="translate(-112.64 498.04)" gradientUnits="userSpaceOnUse">
      <stop offset="0" stop-color="#d5ad62"/>
      <stop offset="1" stop-color="#fff"/>
    </linearGradient>
    <radialGradient id="radial-gradient" cx="129.81" cy="-488.51" r="79.45" gradientTransform="translate(-397.67 235.3) rotate(48.03)" gradientUnits="userSpaceOnUse">
      <stop offset="0.48" stop-color="#fff"/>
      <stop offset="0.58" stop-color="#e8ddc3"/>
      <stop offset="0.69" stop-color="#d5c08f"/>
      <stop offset="0.78" stop-color="#c7ab6a"/>
      <stop offset="0.85" stop-color="#be9e53"/>
      <stop offset="0.9" stop-color="#bb994b"/>
      <stop offset="1" stop-color="#c09f55"/>
    </radialGradient>
  </defs>
  <title>musicbizlogo-icon</title>
  <g id="Layer_2" data-name="Layer 2">
    <g id="Layer_1-2" data-name="Layer 1">
      <g>
        <g>
          <path d="M7.69,1.85A7.47,7.47,0,0,0,2.24,4.23,8.27,8.27,0,0,0,0,9.93V79.78a7.9,7.9,0,0,0,7.69,8.07H70.13a7.89,7.89,0,0,0,7.68-8.07V9.93a8.23,8.23,0,0,0-2.24-5.7,7.46,7.46,0,0,0-5.44-2.38Z" fill="url(#linear-gradient)"/>
          <path d="M75.33,79.78a5.41,5.41,0,0,1-5.2,5.59H7.69a5.41,5.41,0,0,1-5.21-5.59V9.93A5.41,5.41,0,0,1,7.69,4.34H70.13a5.41,5.41,0,0,1,5.2,5.59Z" fill="url(#linear-gradient-2)"/>
          <path d="M70.13,4.34H7.69A5.41,5.41,0,0,0,2.48,9.93v9.92c7.75,13.6,22.61,24.7,41.26,29a68.63,68.63,0,0,0,31.59,0v-39A5.41,5.41,0,0,0,70.13,4.34Z" opacity="0.73" fill="url(#linear-gradient-3)"/>
          <path d="M71.1,8.25V76.11a5.45,5.45,0,0,1-5.29,5.59H18.05a4.79,4.79,0,0,0,3.83,2H68a5.11,5.11,0,0,0,4.92-5.29V12.31A5.43,5.43,0,0,0,71.1,8.25Z" opacity="0.25" fill="url(#linear-gradient-4)"/>
          <path d="M5.84,81.54V13.68a5.45,5.45,0,0,1,5.29-5.6h35a4.79,4.79,0,0,0-3.83-2H9A5.11,5.11,0,0,0,4.07,11.4V77.48A5.41,5.41,0,0,0,5.84,81.54Z" opacity="0.5" fill="url(#linear-gradient-5)"/>
          <circle cx="39.7" cy="46.79" r="30.48" transform="translate(-21.63 45.02) rotate(-48.03)" opacity="0.24" fill="url(#radial-gradient)"/>
        </g>
        <path d="M16.06,79.32c1.76,3.1,8.42,13,15.56,8.53,0,0-33.38-26-6.08-50.74C25.54,37.11,2.06,54.49,16.06,79.32Z" fill="#fff"/>
        <path d="M56.94,6.17c-1.76-2-10.84-9.63-14.56-4.32,0,0,41.25,27.23,9.55,58.07C51.93,59.92,83.15,36.56,56.94,6.17Z" fill="#fff"/>
        <path d="M36.69,35.05q1.13,3.87,2.21,7.75c3.42-.74,6.14-.13,8.07,1.3A10.52,10.52,0,0,1,51,50.56a11.34,11.34,0,0,1-1.19,8.15,12.9,12.9,0,0,1-5.19,5.06c.61,2.49,1.35,4.94,2,7.44a20.07,20.07,0,0,1,.61,4.05,5.87,5.87,0,0,1-.88,3.25,7.7,7.7,0,0,1-4.94,3.94,10.49,10.49,0,0,1-7.16-.72A5.52,5.52,0,0,1,31,76.1a5.21,5.21,0,0,1,1.15-3,4.15,4.15,0,0,1,3.06-1.5,4.3,4.3,0,0,1,4.5,4.18c0,2.63-1.9,3.73-4,4.68,0,.12.11.19.17.25,1.13,1,3.75,1.31,5.78.55a7.5,7.5,0,0,0,4-3.76c.84-1.74.36-4.62-.23-6.79s-1.22-4.34-1.78-6.52a17.28,17.28,0,0,1-10.93-.42,16.07,16.07,0,0,1-7.23-5.55A17.92,17.92,0,0,1,23,51.6a15.75,15.75,0,0,1,.37-7.36,22.41,22.41,0,0,1,2.52-5.75c2.2-3.57,5.23-6.19,8-9.13a46.69,46.69,0,0,1-1.49-6.69,27.18,27.18,0,0,1-.26-7,17.62,17.62,0,0,1,1.73-5.47,16.79,16.79,0,0,1,1.31-2.37A4.11,4.11,0,0,1,37.3,6a1.3,1.3,0,0,1,1,.2,8.23,8.23,0,0,1,2.31,2.94,19.61,19.61,0,0,1,2.9,8.05,18.16,18.16,0,0,1-.89,8.62,26.46,26.46,0,0,1-2.48,5c-.33.52-.64,1.06-1,1.54A35.21,35.21,0,0,1,36.69,35.05ZM39.93,22a15,15,0,0,0,1.65-4,6.63,6.63,0,0,0-.75-4.83,2.09,2.09,0,0,0-2.28-.89,4.24,4.24,0,0,0-2.86,2.61c-1.65,3.39-2,8.61-.82,13.52A26.84,26.84,0,0,0,39.93,22ZM32.21,39.44a24.13,24.13,0,0,0-5.33,8.44A12.47,12.47,0,0,0,26,53.53a9.92,9.92,0,0,0,2.19,5.19A13.08,13.08,0,0,0,37,63.56a15.2,15.2,0,0,0,6.29-.74c-1.34-4.74-2.67-9.48-4-14.27a6.09,6.09,0,0,0-3.51,1.6,5,5,0,0,0-1.46,3.24,5.5,5.5,0,0,0,1.17,3.82,6.26,6.26,0,0,0,2.67,2.18,3.66,3.66,0,0,0-.38.5A8.85,8.85,0,0,1,33.55,57a8.48,8.48,0,0,1-1.92-5.63,9,9,0,0,1,2-5,9.29,9.29,0,0,1,4.28-3.18c-.69-2.42-1.34-4.88-2.06-7.27A31.94,31.94,0,0,0,32.21,39.44ZM48.09,58a8.53,8.53,0,0,0-.54-6.25,6.94,6.94,0,0,0-7.16-3.4c1.31,4.66,2.55,9.4,3.89,14A6.68,6.68,0,0,0,48.09,58Z" fill="#fff" fill-rule="evenodd"/>
      </g>
    </g>
  </g>
</svg>
