<svg xmlns="http://www.w3.org/2000/svg" viewBox="0 0 398.5 226.33">
  <title>swimbiz-main-headline</title>
  <g id="Layer_2" data-name="Layer 2">
    <g id="outlined">
      <g>
        <g>
          <path d="M103.5,48.91h25.32V57.7H92.1V.82h11.4Z" fill="#fff"/>
          <path d="M183.46,34.38q0,10.45-6.62,17.3t-17.21,6.84q-10.51,0-17.07-6.84T136,34.38V24.14q0-10.42,6.54-17.28T159.59,0q10.59,0,17.23,6.86t6.64,17.28ZM172.05,24.09a17.3,17.3,0,0,0-3.32-10.92,11,11,0,0,0-9.14-4.26,10.63,10.63,0,0,0-9,4.24q-3.21,4.24-3.21,10.94V34.42q0,6.78,3.24,11a10.7,10.7,0,0,0,9,4.27,10.88,10.88,0,0,0,9.14-4.27q3.28-4.26,3.28-11Z" fill="#fff"/>
          <path d="M215.32,42.58l.71,3.08h.23l.66-3L229.31.82h12L222,57.7H210.28L191,.82h12Z" fill="#fff"/>
          <path d="M286.53,32.7H263V48.91h27.54V57.7H251.56V.82h38.87V9.61H263v14.3h23.56Z" fill="#fff"/>
        </g>
        <g>
          <path d="M109.83,207.31H94.11l-3,9.66H82L97.4,172.18h9.2L122,217h-9.07Zm-13.5-7h11.28l-5.53-17.6h-.19Z" fill="#fff"/>
          <path d="M128.65,217V172.18H144a18.48,18.48,0,0,1,13.54,5.25,18,18,0,0,1,5.32,13.45v7.42a18,18,0,0,1-5.32,13.46A18.57,18.57,0,0,1,144,217Zm9-37.87v31h5.93a9.37,9.37,0,0,0,7.57-3.26,12.76,12.76,0,0,0,2.74-8.51v-7.47a12.66,12.66,0,0,0-2.74-8.45,9.37,9.37,0,0,0-7.57-3.26Z" fill="#fff"/>
          <path d="M184.18,172.18l11.41,33h.18l11.51-33H219V217h-9V203.62l.86-19.78-.19,0-12,33.16h-6l-11.94-33-.18,0,.86,19.66V217h-9V172.18Z" fill="#fff"/>
          <path d="M239.48,217h-9V172.18h9Z" fill="#fff"/>
          <path d="M287.16,217h-9l-18.09-30.61-.18,0V217h-9V172.18h9L278,202.76l.18,0V172.18h9Z" fill="#fff"/>
        </g>
        <g>
          <path d="M5.37,81.79v3.8h3v2.12h-3v9.57a2.11,2.11,0,0,0,.46,1.55A1.63,1.63,0,0,0,7,99.29a3.05,3.05,0,0,0,.56-.07,3.63,3.63,0,0,0,.51-.14l.39,2a2.56,2.56,0,0,1-1,.43,4.78,4.78,0,0,1-1.23.16,3.72,3.72,0,0,1-2.78-1,4.58,4.58,0,0,1-1-3.31V87.71H0V85.59H2.5v-3.8Z" fill="#fff"/>
          <path d="M18.1,101.64a6.65,6.65,0,0,1-5.29-2.16,8.34,8.34,0,0,1-1.9-5.71v-.64a8.19,8.19,0,0,1,1.95-5.61,6.15,6.15,0,0,1,4.79-2.22,5.7,5.7,0,0,1,4.73,2A8.07,8.07,0,0,1,24,92.49V94H13.89l0,.08a6.53,6.53,0,0,0,1,3.84A3.66,3.66,0,0,0,18.1,99.4,7.33,7.33,0,0,0,20.65,99a5.81,5.81,0,0,0,1.89-1.15l1.12,1.87a7,7,0,0,1-2.23,1.37A8.72,8.72,0,0,1,18.1,101.64Zm-.45-14.09a3.15,3.15,0,0,0-2.49,1.16,5.55,5.55,0,0,0-1.2,3l0,.08h7.1v-.24a4.62,4.62,0,0,0-.84-2.84A3.06,3.06,0,0,0,17.65,87.55Z" fill="#fff"/>
          <path d="M37,101.34c-.1-.48-.17-.9-.23-1.26a10,10,0,0,1-.09-1.1,6.72,6.72,0,0,1-2.09,1.9,5.32,5.32,0,0,1-2.77.76,5.15,5.15,0,0,1-3.75-1.26,4.6,4.6,0,0,1-1.29-3.47,4.07,4.07,0,0,1,1.83-3.53,8.58,8.58,0,0,1,4.95-1.27h3.12V90.55a2.87,2.87,0,0,0-.85-2.19,3.3,3.3,0,0,0-2.38-.81,3.49,3.49,0,0,0-2.26.7,2.12,2.12,0,0,0-.86,1.68l-2.72,0,0-.09a3.78,3.78,0,0,1,1.61-3.15,6.66,6.66,0,0,1,4.42-1.42,6.51,6.51,0,0,1,4.31,1.36,4.84,4.84,0,0,1,1.63,3.92v7.59a14.47,14.47,0,0,0,.08,1.63,9.16,9.16,0,0,0,.32,1.54Zm-4.76-2.1a5.06,5.06,0,0,0,2.81-.8,3.79,3.79,0,0,0,1.63-1.83V94.05H33.47a4.18,4.18,0,0,0-2.77.87,2.59,2.59,0,0,0-1,2,2.18,2.18,0,0,0,.65,1.66A2.74,2.74,0,0,0,32.25,99.24Z" fill="#fff"/>
          <path d="M50.13,99.4a3.35,3.35,0,0,0,2.31-.88,2.79,2.79,0,0,0,1-2.16H56l0,.09a4.53,4.53,0,0,1-1.74,3.62A6.7,6.7,0,0,1,45,99.39a8.74,8.74,0,0,1-1.8-5.62v-.61A8.67,8.67,0,0,1,45,87.56a6.17,6.17,0,0,1,5.12-2.26,5.92,5.92,0,0,1,4.31,1.63,5.17,5.17,0,0,1,1.62,4L56,91H53.43a3.45,3.45,0,0,0-.94-2.45,3.06,3.06,0,0,0-2.36-1,3.31,3.31,0,0,0-3.08,1.64,7.64,7.64,0,0,0-1,4v.61a7.84,7.84,0,0,0,1,4A3.31,3.31,0,0,0,50.13,99.4Z" fill="#fff"/>
          <path d="M62.49,87.7a5.74,5.74,0,0,1,2-1.77,5.52,5.52,0,0,1,2.63-.63A5.09,5.09,0,0,1,71,86.81a6.64,6.64,0,0,1,1.4,4.66v9.87H69.58v-9.9a4.2,4.2,0,0,0-.84-2.88,3.19,3.19,0,0,0-2.5-.93,4.6,4.6,0,0,0-2.22.5,4,4,0,0,0-1.53,1.4v11.81H59.62V78.63h2.87Z" fill="#fff"/>
          <path d="M79.81,81.56H77V78.63h2.86Zm0,19.78H77V85.59h2.86Z" fill="#fff"/>
          <path d="M86.93,85.59l.21,2.34a5.71,5.71,0,0,1,2-1.94,5.27,5.27,0,0,1,2.7-.69,5.18,5.18,0,0,1,4,1.49,6.57,6.57,0,0,1,1.39,4.61v9.94H94.29V91.46a4.26,4.26,0,0,0-.83-3A3.3,3.3,0,0,0,91,87.63a4.41,4.41,0,0,0-2.25.53,3.87,3.87,0,0,0-1.46,1.49v11.69H84.37V85.59Z" fill="#fff"/>
          <path d="M101,93.75a10.5,10.5,0,0,1,1.62-6.12,5.19,5.19,0,0,1,4.53-2.33,5.59,5.59,0,0,1,2.64.6,5.25,5.25,0,0,1,1.9,1.74l.35-2h2.29v15.84a6,6,0,0,1-1.76,4.65,7.26,7.26,0,0,1-5.08,1.62,10.61,10.61,0,0,1-2.46-.31,10.18,10.18,0,0,1-2.32-.85l.44-2.23a8.32,8.32,0,0,0,2,.7,10.25,10.25,0,0,0,2.31.27,4.22,4.22,0,0,0,3-1,4,4,0,0,0,1-2.9V99.64a5,5,0,0,1-1.85,1.49,5.77,5.77,0,0,1-2.49.51,5.37,5.37,0,0,1-4.5-2.08,8.75,8.75,0,0,1-1.62-5.5Zm2.86.31a6.68,6.68,0,0,0,1,3.81,3.39,3.39,0,0,0,3,1.45,3.82,3.82,0,0,0,2.17-.59,4.56,4.56,0,0,0,1.44-1.67V89.81A4.43,4.43,0,0,0,110,88.22a3.73,3.73,0,0,0-2.14-.59,3.27,3.27,0,0,0-3,1.7,8.85,8.85,0,0,0-1,4.42Z" fill="#fff"/>
        </g>
        <g>
          <path d="M44.64,186.17v3.28h2.43v2.25H44.64v7.48a1.63,1.63,0,0,0,.36,1.19,1.34,1.34,0,0,0,1,.36,2.52,2.52,0,0,0,.48,0,2.12,2.12,0,0,0,.45-.11l.33,2.22a3.67,3.67,0,0,1-.92.33,5,5,0,0,1-1.11.12,3.53,3.53,0,0,1-2.63-1,4.32,4.32,0,0,1-1-3.08V191.7H39.56v-2.25h2.06v-3.28Z" fill="#fff"/>
          <path d="M52.64,191.2a4.82,4.82,0,0,1,1.65-1.47,4.4,4.4,0,0,1,2.14-.52,4.29,4.29,0,0,1,3.36,1.35,6.17,6.17,0,0,1,1.2,4.18V203H58v-8.26a3.53,3.53,0,0,0-.62-2.31,2.32,2.32,0,0,0-1.85-.72,3.79,3.79,0,0,0-1.68.35,3,3,0,0,0-1.17,1v10h-3v-19.5h3Z" fill="#fff"/>
          <path d="M70,203.24a5.86,5.86,0,0,1-4.63-1.87,7,7,0,0,1-1.67-4.84V196a7.22,7.22,0,0,1,1.67-4.91,5.38,5.38,0,0,1,4.3-1.91,5,5,0,0,1,4.13,1.68,6.8,6.8,0,0,1,1.4,4.49V197H66.84l0,.06a4.4,4.4,0,0,0,.87,2.7,3,3,0,0,0,2.49,1,6.89,6.89,0,0,0,2.15-.3,6.1,6.1,0,0,0,1.68-.87l1,2a6.4,6.4,0,0,1-2,1.14A8.54,8.54,0,0,1,70,203.24Zm-.33-11.6a2.36,2.36,0,0,0-1.9.86,4.21,4.21,0,0,0-.88,2.23l0,.06h5.29v-.24a3.44,3.44,0,0,0-.61-2.1A2.23,2.23,0,0,0,69.68,191.64Z" fill="#fff"/>
        </g>
        <g>
          <path d="M119.4,153.57v-22h7.23a9.51,9.51,0,0,1,5.7,1.51,5.21,5.21,0,0,1,2.06,4.5,4.43,4.43,0,0,1-.82,2.62,5.09,5.09,0,0,1-2.3,1.77,4.93,4.93,0,0,1,3.26,1.83,5.51,5.51,0,0,1,1.15,3.49,5.67,5.67,0,0,1-2,4.71,8.74,8.74,0,0,1-5.6,1.61Zm3.68-12.76H127a4.14,4.14,0,0,0,2.7-.81,2.79,2.79,0,0,0,1-2.29,2.87,2.87,0,0,0-1-2.43,5,5,0,0,0-3-.8h-3.55Zm0,2.74v7.09h5a4.4,4.4,0,0,0,2.93-.87,3.12,3.12,0,0,0,1-2.52,3.48,3.48,0,0,0-1-2.65,4.13,4.13,0,0,0-2.85-1h-5.07Z" fill="#fff"/>
          <path d="M156.13,131.53v14.52a7.2,7.2,0,0,1-2.41,5.76,9.2,9.2,0,0,1-6.23,2.08,8.9,8.9,0,0,1-6.12-2.08,7.3,7.3,0,0,1-2.36-5.76V131.53h3.68v14.52a4.8,4.8,0,0,0,1.32,3.62,4.73,4.73,0,0,0,3.48,1.28,5,5,0,0,0,3.6-1.28,4.71,4.71,0,0,0,1.36-3.62V131.53Z" fill="#fff"/>
          <path d="M176,134.48h-6.81v19.09h-3.68V134.48h-6.71v-2.95H176Z" fill="#fff"/>
        </g>
        <g>
          <path d="M202,153.57h-3.68v-9.4h-9.86v9.4h-3.67v-22h3.67v9.69h9.86v-9.69H202Z" fill="#fff"/>
          <path d="M219.89,148.43h-7.81l-1.69,5.14h-3.8l7.69-22h3.5l7.6,22h-3.8Zm-6.79-3.08h5.8l-2.83-8.69H216Z" fill="#fff"/>
          <path d="M243.7,134.48h-6.82v19.09h-3.67V134.48H226.5v-2.95h17.2Z" fill="#fff"/>
          <path d="M260.35,143.66h-8.63v7H261.9v2.93H248.05v-22h13.74v2.95H251.72v6.23h8.63Z" fill="#fff"/>
        </g>
        <g>
          <path d="M150.12,100.75a4.13,4.13,0,0,0-1.45-3.29,14.7,14.7,0,0,0-5.09-2.35,29.11,29.11,0,0,1-9.6-4.34,8.27,8.27,0,0,1-3.25-6.89,8.52,8.52,0,0,1,3.73-7.14A15.48,15.48,0,0,1,144,74a14.31,14.31,0,0,1,9.54,3.11,9.33,9.33,0,0,1,3.57,7.68l-.05.15h-6.91a5.16,5.16,0,0,0-1.65-4,6.55,6.55,0,0,0-4.63-1.53,6.79,6.79,0,0,0-4.41,1.27,4,4,0,0,0-1.57,3.25,3.47,3.47,0,0,0,1.68,3,22.89,22.89,0,0,0,5.77,2.46,22.43,22.43,0,0,1,8.91,4.32,9,9,0,0,1,3,7,8.43,8.43,0,0,1-3.6,7.2q-3.6,2.64-9.51,2.64a17.36,17.36,0,0,1-10.13-3,9.3,9.3,0,0,1-4.2-8.39l0-.14h6.94a5.49,5.49,0,0,0,1.94,4.65,8.79,8.79,0,0,0,5.41,1.48,7.09,7.09,0,0,0,4.44-1.2A3.83,3.83,0,0,0,150.12,100.75Z" fill="#fff"/>
          <path d="M192.52,98.85h.14l5.08-24.37h7L196.4,110h-6.62l-6.52-23.46h-.14L176.6,110H170l-8.32-35.55h7l5.1,24.34.15,0,6.66-24.37h5.25Z" fill="#fff"/>
          <path d="M218,110h-7.13V74.48H218Z" fill="#fff"/>
          <path d="M236.18,74.48l9.06,26.2h.14l9.13-26.2h9.33V110h-7.13V99.43l.68-15.7-.14,0L247.73,110h-4.79l-9.47-26.22-.15,0,.69,15.6V110h-7.13V74.48Z" fill="#fff"/>
          <path d="M281.56,74.48l9.06,26.2h.14l9.13-26.2h9.33V110h-7.13V99.43l.68-15.7-.14,0L293.11,110h-4.79l-9.47-26.22-.15,0,.68,15.6V110h-7.12V74.48Z" fill="#fff"/>
          <path d="M325.2,110h-7.13V74.48h7.13Z" fill="#fff"/>
          <path d="M362.79,110h-7.1L341.33,85.74l-.14,0V110h-7.13V74.48h7.13l14.35,24.27.15,0V74.48h7.1Z" fill="#fff"/>
          <path d="M398.5,105.17a13.41,13.41,0,0,1-4.94,3.74,19.38,19.38,0,0,1-8.49,1.63,14.55,14.55,0,0,1-10.64-4.05A14.1,14.1,0,0,1,370.3,96V88.54a14.45,14.45,0,0,1,4-10.51A13.66,13.66,0,0,1,384.49,74q6.5,0,9.95,3.16A10.94,10.94,0,0,1,398,85.44l0,.15H391.2a6.86,6.86,0,0,0-1.8-4.48,7.1,7.1,0,0,0-10,.88,10.16,10.16,0,0,0-2,6.5V96a10,10,0,0,0,2.07,6.57,6.86,6.86,0,0,0,5.59,2.53,12.91,12.91,0,0,0,4-.51,6.06,6.06,0,0,0,2.29-1.27V96.7h-6.3V91.77H398.5Z" fill="#fff"/>
        </g>
        <path d="M305.79,202.47q.06-8.06,2.39-11.81t9.31-9.1a30.39,30.39,0,0,0,6.54-7.2,15.86,15.86,0,0,0,2.45-8.65q0-5.29-2.8-8.29t-8-3a10.76,10.76,0,0,0-7.23,2.54c-2,1.69-3,4.16-3,7.43H289.08L289,164q-.18-11.06,7.29-16.94t19.44-5.87q12.92,0,20.26,6.54t7.34,17.77A23.37,23.37,0,0,1,339,179.08a38.17,38.17,0,0,1-10.75,10.43,13.8,13.8,0,0,0-4.61,5.44,20.88,20.88,0,0,0-1.09,7.52Zm16.88,23.86H305.74V211.92h16.93Z" fill="#fff"/>
      </g>
    </g>
  </g>
</svg>
