<svg id="artboard_original" data-name="artboard original" xmlns="http://www.w3.org/2000/svg" viewBox="0 0 50 50">
  <title>book_bookmark</title>
  <g>
    <path id="curve29" d="M8.38,7.46A4.64,4.64,0,0,0,13,12.08h.92v1.84H13A6.49,6.49,0,0,1,8.38,12V42.54A4.63,4.63,0,0,0,13,47.15H41.62V13.92H32.38V12.08h9.24a1.85,1.85,0,0,1,1.84,1.84V49H13a6.47,6.47,0,0,1-6.46-6.46V7.46A6.47,6.47,0,0,1,13,1H41.62a1.85,1.85,0,0,1,1.84,1.85H13A4.63,4.63,0,0,0,8.38,7.46ZM13,4.69H41.62V6.54H10.39A2.77,2.77,0,0,1,13,4.69ZM10.39,8.38h3.53v1.85H12.86A2.79,2.79,0,0,1,11,9.42,2.87,2.87,0,0,1,10.39,8.38Zm22,0h9.24v1.85H32.38Z" fill="#018045"/>
    <path id="curve28" d="M30.54,32.33l-7.39-5.27-7.38,5.27V8.38H30.54Zm-1.85-3.58V10.23H17.62V28.75l5.53-4Z" fill="#018045"/>
  </g>
</svg>
