<svg id="artboard_original" data-name="artboard original" xmlns="http://www.w3.org/2000/svg" viewBox="0 0 50 50">
  <title>cash_register</title>
  <g>
    <path id="curve30" d="M10.85,22.35V6.42h11.5V22.35H20.58V8.19h-8V22.35Z" fill="#018045"/>
    <path id="curve29" d="M42.69,31.19v3.54H39.15V31.19ZM24.12,19.4a2.67,2.67,0,0,1,1.76,2.5v1.33a2.65,2.65,0,0,1-2.65,2.65H10a2.65,2.65,0,0,1-2.65-2.65V21.9a2.68,2.68,0,0,1,1.77-2.5v3.83a.89.89,0,0,0,.88.89H23.23a.89.89,0,0,0,.89-.89ZM46.23,34.73H44.46V17a1.77,1.77,0,0,0-1.77-1.77H24.12V13.5H34.73V11.73H25V2.88H46.23v8.85H36.5V13.5h6.19A3.55,3.55,0,0,1,46.23,17ZM9.08,15.27H7.31A1.77,1.77,0,0,0,5.54,17V34.73H3.77V17A3.55,3.55,0,0,1,7.31,13.5H9.08ZM48,36.5V47.12H2V36.5Zm-1.77,1.77H3.77v7.08H46.23ZM42.69,17v7.07H28.54V17Zm-1.77,1.76H30.31v3.54H40.92Zm3.54-14.1H26.77V10H44.46ZM32.08,25.88v3.54H28.54V25.88Zm5.3,0v3.54H33.85V25.88Zm5.31,0v3.54H39.15V25.88ZM32.08,31.19v3.54H28.54V31.19Zm5.3,0v3.54H33.85V31.19Z" fill="#018045"/>
  </g>
</svg>
