<svg id="artboard_original" data-name="artboard original" xmlns="http://www.w3.org/2000/svg" viewBox="0 0 50 50">
  <title>customer-portal-generic-colored</title>
  <g>
    <path d="M42.47,4.4C35.83-1.29,24.75.28,15.53,8.23a1.3,1.3,0,0,0,1.69,2c8.1-7,18-8.59,23.57-3.83,3.77,3.24,5.07,8.8,3.58,15.27a1.3,1.3,0,0,0,1,1.56,1.53,1.53,0,0,0,.3,0h0a1.28,1.28,0,0,0,1.26-1C48.59,14.89,46.94,8.22,42.47,4.4Z" fill="#018045"/>
    <path d="M32.4,42.08a1.29,1.29,0,0,0-1.8-.34C22.7,47.16,14,47.87,8.86,43.5A12.11,12.11,0,0,1,5,37.06.43.43,0,0,1,5,37a1.3,1.3,0,0,0-2.51.68,14.75,14.75,0,0,0,4.69,7.79A15.27,15.27,0,0,0,16.92,49h.36c4.79,0,9.9-1.77,14.78-5.12a1.3,1.3,0,0,0,.35-1.8Z" fill="#018045"/>
    <path d="M32.32,31.67a6.23,6.23,0,0,1,4.17,5.95H11.19a6.09,6.09,0,0,1,2.42-5c1.37-1,2.88-1.18,4.51-1.51.61-.13,2.13-.42,2.32-1.12a9.27,9.27,0,0,0,.17-2.17.51.51,0,0,0-.24-.44,3.25,3.25,0,0,1-.74-1.27,12,12,0,0,1-.36-2.22c-.83.23-1-1.45-1.1-1.91s-.58-2.21.31-1.94a4.53,4.53,0,0,1-.43-1.65,7.61,7.61,0,0,1,.25-3.61,5.78,5.78,0,0,1,5.78-3.45,5.63,5.63,0,0,1,5.4,3.78,8.06,8.06,0,0,1,.09,3.59,3.68,3.68,0,0,1-.38,1.34c.95-.29.34,1.85.24,2.16s-.24,1.92-1,1.7a7,7,0,0,1-.63,2.86c-.12.21-.71.69-.71.92s0,.69,0,1a5.55,5.55,0,0,0,.17,1.35c.16.43.9.58,1.27.71,1.22.44,2.55.46,3.78.89Z" fill="#018045"/>
    <path d="M12.74,28.94a7.77,7.77,0,0,0-2.2,1.71,6,6,0,0,1-.7,1H2.61A3.8,3.8,0,0,1,5.39,28c.57-.2,2.47-.37,2.73-1a3.67,3.67,0,0,0,.05-1.44,4.87,4.87,0,0,1-2.94-.65c-.2-.13.31-.79.41-1.06a5.4,5.4,0,0,0,.26-1.07,14.49,14.49,0,0,0,0-2.55,7.62,7.62,0,0,1,.75-4.42,3.91,3.91,0,0,1,3.44-1.66,4,4,0,0,1,4.33,3.37,36,36,0,0,1,.13,4.41,6.29,6.29,0,0,0,.49,2.18c.1.22.49.62.26.78a2.55,2.55,0,0,1-.59.31,6.22,6.22,0,0,1-1.53.37,3.06,3.06,0,0,0-.8.07,2.69,2.69,0,0,0,0,1,.57.57,0,0,0,.44.61c.53.21,1.79.3,2.15.77.19.24.07.41-.18.44a5.93,5.93,0,0,0-2,.43l-.07,0c-.75.39-.37.19-.06,0Z" fill="#018045"/>
    <path d="M42,28a3.86,3.86,0,0,1,2.82,3.67H37.54a4.07,4.07,0,0,0-1.48-1.78,5.78,5.78,0,0,0-2.49-1.29c-.29-.05-1.47.09-1.19-.49.18-.39.8-.42,1.17-.52s1.34-.23,1.44-.68a4.5,4.5,0,0,0,0-1.27,8,8,0,0,1-1.62-.22,4.5,4.5,0,0,1-1-.36c-.58-.29-.25-.46,0-1,1.32-2.94-1-8.07,2.9-9.62a5.17,5.17,0,0,1,4.43.26,4.64,4.64,0,0,1,1.82,4.06c0,1.83-.4,3.95.6,5.63.18.31.34.34,0,.55a3.06,3.06,0,0,1-.49.22,7,7,0,0,1-2.34.34c0,.38-.17,1.2.09,1.51.53.65,1.95.72,2.69,1Z" fill="#018045"/>
  </g>
</svg>
