<svg id="artboard_original" data-name="artboard original" xmlns="http://www.w3.org/2000/svg" viewBox="0 0 50 50">
  <title>event-planner</title>
  <path id="curve29" d="M6.18,18.88V47.12H43.82V18.88ZM9.94,1.94a.94.94,0,0,1,1.88,0V3.82h3.77V1.94a.94.94,0,0,1,1.88,0V3.82h3.77V1.94a.94.94,0,1,1,1.88,0V3.82h3.76V1.94a.94.94,0,1,1,1.88,0V3.82h3.77V1.94a.94.94,0,1,1,1.88,0V3.82h3.77V1.94a.94.94,0,0,1,1.88,0V3.82h2.82a2.83,2.83,0,0,1,2.83,2.83V49H4.29V6.65A2.83,2.83,0,0,1,7.12,3.82H9.94Zm1.88,3.77V6.9a1.85,1.85,0,0,1,.94,1.63A1.88,1.88,0,1,1,9.94,6.9V5.71H7.12a.94.94,0,0,0-.94.94V17H43.82V6.65a.94.94,0,0,0-.94-.94H40.06V6.9A1.87,1.87,0,0,1,41,8.53a1.88,1.88,0,0,1-3.76,0,1.85,1.85,0,0,1,.94-1.63V5.71H34.41V6.9a1.85,1.85,0,0,1,.94,1.63A1.88,1.88,0,1,1,32.53,6.9V5.71H28.76V6.9a1.87,1.87,0,0,1,.95,1.63,1.89,1.89,0,0,1-3.77,0,1.87,1.87,0,0,1,.94-1.63V5.71H23.12V6.9a1.87,1.87,0,0,1,.94,1.63,1.89,1.89,0,0,1-3.77,0,1.86,1.86,0,0,1,.95-1.63V5.71H17.47V6.9a1.87,1.87,0,0,1,.94,1.63,1.88,1.88,0,1,1-3.76,0,1.86,1.86,0,0,1,.94-1.63V5.71Z" fill="#018045"/>
  <path d="M25,21.86A11.14,11.14,0,1,0,36.14,33,11.14,11.14,0,0,0,25,21.86ZM23.3,38.09l-4.67-4.67,1.94-1.94,2.73,2.71L29.51,28l1.94,1.94Z" fill="#018045"/>
</svg>
