<svg id="artboard_original" data-name="artboard original" xmlns="http://www.w3.org/2000/svg" viewBox="0 0 50 50">
  <title>history2</title>
  <g>
    <rect x="13.49" y="41.53" width="20.26" height="1.84" fill="#018045"/>
    <path d="M37.44,47.16H6V45.21H7.29a1.82,1.82,0,0,0,1.59.93,1.85,1.85,0,0,0,0-3.69,1.82,1.82,0,0,0-1.59.92H6V39.69H7.29a1.84,1.84,0,0,0,3.43-.92,1.85,1.85,0,0,0-1.84-1.85,1.81,1.81,0,0,0-1.59.93H6V34.16H7.29a1.84,1.84,0,1,0,0-1.84H6V28.63H7.29a1.84,1.84,0,1,0,0-1.84H6V23.11H7.29a1.84,1.84,0,0,0,3.43-.92,1.85,1.85,0,0,0-1.84-1.85,1.82,1.82,0,0,0-1.59.92H6V17.58H7.29a1.82,1.82,0,0,0,1.59.92,1.84,1.84,0,1,0-1.59-2.76H6V12.05H7.29a1.84,1.84,0,1,0,0-1.84H6V8.37H18.89A19.63,19.63,0,0,1,20,6.53H4.19v3.68H2.43a.92.92,0,1,0,0,1.84H4.19v3.69H2.43a.92.92,0,1,0,0,1.84H4.19v3.68H2.43a.93.93,0,0,0,0,1.85H4.19v3.68H2.43a.92.92,0,1,0,0,1.84H4.19v3.69H2.43a.92.92,0,1,0,0,1.84H4.19v3.69H2.43a.92.92,0,1,0,0,1.84H4.19v3.68H2.43a.92.92,0,1,0,0,1.84H4.19V49H39.28V31.37a14.85,14.85,0,0,1-1.84.53Z" fill="#018045"/>
    <path d="M21.39,26.79h-7.9v1.84h9.84A16.88,16.88,0,0,1,21.39,26.79Z" fill="#018045"/>
    <rect x="13.49" y="34.16" width="20.26" height="1.84" fill="#018045"/>
    <path d="M13.49,21.26h4.63a15.64,15.64,0,0,1-.54-1.84H13.49Z" fill="#018045"/>
    <path d="M13.49,12.05V13.9h3.78c.08-.63.18-1.25.31-1.85Z" fill="#018045"/>
    <path d="M33.75,1A14.74,14.74,0,1,0,48.49,15.74,14.74,14.74,0,0,0,33.75,1Zm0,27.63a12.9,12.9,0,1,1,12.9-12.89A12.9,12.9,0,0,1,33.75,28.63Z" fill="#018045"/>
    <path d="M38.15,10.06,34.25,14a2,2,0,0,0-.5-.06,1.68,1.68,0,0,0-.45,0l-6.4-6.4L25.59,8.86,32,15.24a2.63,2.63,0,0,0-.06.5,1.84,1.84,0,1,0,3.68,0,2.14,2.14,0,0,0-.05-.45l3.91-3.93Z" fill="#018045"/>
  </g>
</svg>
