<svg id="artboard_original" data-name="artboard original" xmlns="http://www.w3.org/2000/svg" viewBox="0 0 50 50">
  <title>hourglass</title>
  <path id="curve28" d="M13.92,43.46v-2c.55-4.69,3.72-5.84,6.56-6.86,1.89-.69,3.59-1.31,3.59-3.19V24.08a4,4,0,0,0-1-2.51,8.88,8.88,0,0,0-3-2.34,13.72,13.72,0,0,1-2.82-1.95A5,5,0,0,1,15.59,15l-.25-1.12H34.66L34.41,15a5,5,0,0,1-1.67,2.24,13.72,13.72,0,0,1-2.82,1.95,8.88,8.88,0,0,0-3,2.34,4,4,0,0,0-1,2.51v7.38c0,1.88,1.7,2.5,3.59,3.19,2.84,1,6,2.17,6.56,6.86v2h1.84l0-2.77A13,13,0,0,0,30,28.78,4,4,0,0,1,27.79,25,4,4,0,0,1,30,21.22,13,13,0,0,0,37.92,9.31V6.54H12.08V9.31A13,13,0,0,0,20,21.22,4,4,0,0,1,22.2,25,4,4,0,0,1,20,28.78a12.87,12.87,0,0,0-7.92,11.91l0,2.77ZM8.38,45.31v1.84H41.62V45.31Zm1.85-1.85,0-2.77a14.71,14.71,0,0,1,9.05-13.61A2.22,2.22,0,0,0,20.36,25a2.23,2.23,0,0,0-1.1-2.09,14.75,14.75,0,0,1-9-13.6V6.54H6.54V1H43.46V6.54H39.77V9.31a14.75,14.75,0,0,1-9,13.6A2.22,2.22,0,0,0,29.62,25a2.25,2.25,0,0,0,1.12,2.1,14.8,14.8,0,0,1,9,13.59l0,2.77h3.7V49H6.54V43.46ZM8.38,4.69H41.62V2.85H8.38ZM34.23,43.46v-1.8c-.43-3.51-3-4.45-5.33-5.28A9.13,9.13,0,0,1,25,34.26a9.15,9.15,0,0,1-3.89,2.12c-2.31.83-4.91,1.77-5.34,5.28v1.8Zm-9.69-23c.16.21.32.44.46.66.14-.22.3-.45.46-.66a10.81,10.81,0,0,1,3.65-2.83,11.14,11.14,0,0,0,2.55-1.81H18.34a11.14,11.14,0,0,0,2.55,1.81A10.81,10.81,0,0,1,24.54,20.41Z" fill="#018045"/>
</svg>
