<svg id="artboard_original" data-name="artboard original" xmlns="http://www.w3.org/2000/svg" viewBox="0 0 50 50">
  <title>id_cards</title>
  <g>
    <path id="curve29" d="M14.85,2.85H44.38A4.61,4.61,0,0,1,49,7.46V27.77a4.61,4.61,0,0,1-4.62,4.61H41.62V30.54h2.76a2.78,2.78,0,0,0,2.77-2.77V7.46a2.78,2.78,0,0,0-2.77-2.77H14.85a2.78,2.78,0,0,0-2.77,2.77v8.31H10.23V7.46A4.61,4.61,0,0,1,14.85,2.85ZM32.38,15.77V11.15H43.46V25.73a3,3,0,0,0-.88-2.14,2.73,2.73,0,0,0-1-.49v4.67h3.69V9.31H30.54v6.46Zm8.31,3.13a1.23,1.23,0,0,0,.45-1.37l.11-1.69c.12-1.19-1.35-2.54-2.57-1.95a1.9,1.9,0,0,0-.9-.37,2.58,2.58,0,0,0-3.18,2.25h.55A6.45,6.45,0,0,1,40.69,18.9ZM15.77,12.08H26.85v1.84H15.77Z" fill="#018045"/>
    <path id="curve28" d="M5.62,17.62H35.15a4.61,4.61,0,0,1,4.62,4.61V42.54a4.61,4.61,0,0,1-4.62,4.61H5.62A4.61,4.61,0,0,1,1,42.54V22.23A4.61,4.61,0,0,1,5.62,17.62Zm.92,9.23H17.62v1.84H6.54Zm0,5.53H17.62v1.85H6.54Zm0,5.54h7.91v1.85H6.54ZM36.08,24.08V42.54H21.31V24.08Zm-1.85,1.84H23.15V40.69h.1A2.9,2.9,0,0,1,24,39.28a3,3,0,0,1,1-.52,6.38,6.38,0,0,0,1.42-.53C27,38,27,37.09,27,36.58a5,5,0,0,1-1-1.93,1.21,1.21,0,0,1-.54-1.43l-.11-1.67a2.56,2.56,0,0,1,3.18-2.34,2,2,0,0,1,.9.37c1.22-.58,2.69.76,2.57,2l-.12,1.68a1.19,1.19,0,0,1-.54,1.43,4.84,4.84,0,0,1-1,1.93c0,.52,0,1.36.56,1.65a6.3,6.3,0,0,0,1.41.53,2.86,2.86,0,0,1,1,.52,2.92,2.92,0,0,1,.79,1.41h.09Zm.92-6.46H5.62a2.78,2.78,0,0,0-2.77,2.77V42.54a2.78,2.78,0,0,0,2.77,2.77H35.15a2.78,2.78,0,0,0,2.77-2.77V22.23A2.78,2.78,0,0,0,35.15,19.46Z" fill="#018045"/>
  </g>
</svg>
