<svg id="artboard_original" data-name="artboard original" xmlns="http://www.w3.org/2000/svg" viewBox="0 0 50 50">
  <title>notebook3</title>
  <path id="curve28" d="M10.94,37.92a1.82,1.82,0,0,1,1.6-.92,1.85,1.85,0,1,1-1.6,2.77H9.77v3.69h1.17a1.82,1.82,0,0,1,1.6-.92,1.85,1.85,0,1,1-1.6,2.77H9.77v1.84H43V2.85H9.77V4.69h1.17a1.85,1.85,0,1,1,0,1.85H9.77v3.69h1.17a1.82,1.82,0,0,1,1.6-.92,1.85,1.85,0,1,1-1.6,2.77H9.77v3.69h1.17a1.85,1.85,0,1,1,0,1.85H9.77v3.69h1.17a1.83,1.83,0,0,1,1.6-.93,1.85,1.85,0,0,1,0,3.7,1.82,1.82,0,0,1-1.6-.93H9.77v3.7h1.17a1.81,1.81,0,0,1,1.6-.93,1.85,1.85,0,1,1-1.6,2.77H9.77v3.69h1.17a1.82,1.82,0,0,1,1.6-.92,1.85,1.85,0,1,1-1.6,2.77H9.77v3.69Zm-3,1.85H6.08a.93.93,0,1,1,0-1.85H7.92V34.23H6.08a.93.93,0,1,1,0-1.85H7.92V28.69H6.08a.92.92,0,1,1,0-1.84H7.92v-3.7H6.08a.92.92,0,1,1,0-1.84H7.92V17.62H6.08a.93.93,0,1,1,0-1.85H7.92V12.08H6.08a.93.93,0,1,1,0-1.85H7.92V6.54H6.08a.93.93,0,1,1,0-1.85H7.92V1H44.85V49H7.92V45.31H6.08a.93.93,0,1,1,0-1.85H7.92ZM17.15,8.38H39.31v1.85H17.15Zm0,7.39H39.31v1.85H17.15Zm0,7.38H39.31V25H17.15Zm0,7.39H39.31v1.84H17.15Zm0,7.38H39.31v1.85H17.15Z" fill="#018045"/>
</svg>
