<svg id="artboard_original" data-name="artboard original" xmlns="http://www.w3.org/2000/svg" viewBox="0 0 50 50">
  <title>receipt</title>
  <g>
    <path d="M40,1,37,4,34,1,31,4,28,1,25,4,22,1,19,4,16,1,13,4,10,1,7,4V49l3-3,3,3,3-3,3,3,3-3,3,3,3-3,3,3,3-3,3,3,3-3,3,3V4Zm1.69,44.83-.76-.76L40,44.14l-.93.93L37,47.14l-2.07-2.07L34,44.14l-.93.93L31,47.14l-2.07-2.07L28,44.14l-.93.93L25,47.14l-2.07-2.07L22,44.14l-.93.93L19,47.14l-2.07-2.07L16,44.14l-.93.93L13,47.14l-2.07-2.07L10,44.14l-.93.93-.76.76V4.54L10,2.86l2.07,2.07.93.93.93-.93L16,2.86l2.07,2.07.93.93.93-.93L22,2.86l2.07,2.07.93.93.93-.93L28,2.86l2.07,2.07.93.93.93-.93L34,2.86l2.07,2.07.93.93.93-.93L40,2.86l1.69,1.68Z" fill="#018045"/>
    <rect x="11.5" y="29.5" width="16.5" height="1.5" fill="#018045"/>
    <rect x="11.5" y="40" width="27" height="1.5" fill="#018045"/>
    <rect x="11.5" y="25" width="16.5" height="1.5" fill="#018045"/>
    <rect x="11.5" y="16" width="16.5" height="1.5" fill="#018045"/>
    <rect x="11.5" y="20.5" width="16.5" height="1.5" fill="#018045"/>
    <rect x="32.5" y="29.5" width="6" height="1.5" fill="#018045"/>
    <rect x="32.5" y="16" width="6" height="1.5" fill="#018045"/>
    <rect x="11.5" y="8.5" width="27" height="3" fill="#018045"/>
    <rect x="32.5" y="25" width="6" height="1.5" fill="#018045"/>
    <rect x="25" y="35.5" width="13.5" height="1.5" fill="#018045"/>
    <rect x="32.5" y="20.5" width="6" height="1.5" fill="#018045"/>
  </g>
</svg>
