<svg id="artboard_original" data-name="artboard original" xmlns="http://www.w3.org/2000/svg" viewBox="0 0 50 50">
  <title>smartphone</title>
  <path id="curve28" d="M22.28,6.43a.91.91,0,0,1,0-1.81h5.44a.91.91,0,0,1,0,1.81ZM25,40.82a2.72,2.72,0,1,1-2.72,2.72A2.72,2.72,0,0,1,25,40.82Zm0,1.81a.91.91,0,0,0-.91.91.91.91,0,0,0,1.81,0A.9.9,0,0,0,25,42.63ZM37.68,8.25V39.94H12.32V8.25Zm-1.81,1.81H14.13V38.13H35.87ZM13.23,1H36.77A4.55,4.55,0,0,1,41.3,5.53V44.47A4.55,4.55,0,0,1,36.77,49H13.23A4.55,4.55,0,0,1,8.7,44.47V5.53A4.55,4.55,0,0,1,13.23,1ZM36.77,2.81H13.23a2.72,2.72,0,0,0-2.72,2.72V44.47a2.72,2.72,0,0,0,2.72,2.72H36.77a2.72,2.72,0,0,0,2.72-2.72V5.53A2.72,2.72,0,0,0,36.77,2.81Z" fill="#018045"/>
</svg>
