<svg id="artboard_original" data-name="artboard original" xmlns="http://www.w3.org/2000/svg" viewBox="0 0 50 50">
  <title>tasks</title>
  <path id="curve28" d="M8.13,40H28.75v1.88H8.13Zm0-7.5H28.75v1.88H8.13Zm0-7.5H41.88v1.88H8.13Zm0-7.5H41.88v1.88H8.13ZM32.5,42.1l9.6-9.6H32.5Zm13.62-11-15,15a4.67,4.67,0,0,1-3.31,1.38H2.5V2.5h45V27.81A4.67,4.67,0,0,1,46.12,31.12ZM8.13,10H41.88v1.88H8.13ZM4.38,45.63H27.81a2.83,2.83,0,0,0,2.82-2.82V30.63H42.81a2.83,2.83,0,0,0,2.82-2.82V4.38H4.38Z" fill="#018045"/>
</svg>
