<svg id="artboard_original" data-name="artboard original" xmlns="http://www.w3.org/2000/svg" viewBox="0 0 50 50">
  <title>users_relation</title>
  <path id="curve28" d="M25,3.46a20.78,20.78,0,0,1,9.15,2.11c0,.53,0,1.28-.06,2.1a19,19,0,0,0-18.29.07,3.07,3.07,0,0,0-.07-.53l.11-1.63A20.73,20.73,0,0,1,25,3.46ZM45.87,24v.33A20.86,20.86,0,0,1,34.35,43,4.83,4.83,0,0,0,33,41.56,19,19,0,0,0,44,24.33v-.12C44.59,24.15,45.24,24.09,45.87,24ZM6,24.21v.12a19,19,0,0,0,11,17.24A10.74,10.74,0,0,0,15.68,43,20.88,20.88,0,0,1,4.13,24.33V24C4.76,24.09,5.41,24.15,6,24.21Zm32.45-23a3.61,3.61,0,0,1,2.65.29,3.6,3.6,0,0,1,2.65-.29,3.72,3.72,0,0,1,2.47,3.7c-.12,1.35,0,6,1.28,7.69C46.68,13.9,45,13.9,43.69,13.9a1.45,1.45,0,0,0,.85,1.28,9.22,9.22,0,0,0,2.19.85,4.52,4.52,0,0,1,1.59.81,4.84,4.84,0,0,1,1.35,3.38c0,1.77-5.85,2.22-8.54,2.22s-8.54-.45-8.54-2.22a4.78,4.78,0,0,1,1.35-3.38A4.52,4.52,0,0,1,35.53,16a9.14,9.14,0,0,0,2.18-.85,1.5,1.5,0,0,0,.86-1.28c-1.28,0-3,0-3.85-1.28C36,10.91,36.13,6.28,36,4.93A3.7,3.7,0,0,1,38.48,1.23ZM3.75,4.72l.17,2.63a1.9,1.9,0,0,0,.84,2.23,8.2,8.2,0,0,0,1.55,3c0,.78-.1,2.13-.85,2.56A9.22,9.22,0,0,1,3.27,16a4.52,4.52,0,0,0-1.59.81A4.82,4.82,0,0,0,.33,20.22c0,1.77,5.85,2.22,8.54,2.22s8.54-.45,8.54-2.22a4.8,4.8,0,0,0-1.35-3.38A4.52,4.52,0,0,0,14.47,16a9.14,9.14,0,0,1-2.18-.85c-.78-.45-.84-1.76-.86-2.56a7.84,7.84,0,0,0,1.55-3,1.89,1.89,0,0,0,.84-2.23L14,4.7c.18-1.87-2.07-4-3.94-3.06a3.29,3.29,0,0,0-1.4-.58C6.27.68,3.7,2.12,3.75,4.72ZM25,49c2.7,0,8.57-.45,8.57-2.23a4.86,4.86,0,0,0-1.36-3.39,4.7,4.7,0,0,0-1.59-.81,9.93,9.93,0,0,1-2.2-.85c-.77-.44-.4-1.76-.42-2.57a5.71,5.71,0,0,0,1.13-2.63A1.89,1.89,0,0,0,30,34.29c.6-2.42.17-4.13-1.12-5.42-1.51-1.51-5.14-1.71-6.42-.43-3,.43-3,3.43-2.4,5.85a1.9,1.9,0,0,0,.84,2.23A5.79,5.79,0,0,0,22,39.15c0,.79.32,2.14-.43,2.57a9.85,9.85,0,0,1-2.19.85,4.61,4.61,0,0,0-1.59.81,4.86,4.86,0,0,0-1.36,3.39C16.46,48.55,22.32,49,25,49Z" fill="#018045"/>
</svg>
