<svg id="artboard_original" data-name="artboard original" xmlns="http://www.w3.org/2000/svg" viewBox="0 0 50 50">
  <title>visual-scheduler</title>
  <g>
    <path id="curve29" d="M6.18,18.88V47.12H43.82V18.88ZM9.94,1.94a.94.94,0,0,1,1.88,0V3.82h3.77V1.94a.94.94,0,0,1,1.88,0V3.82h3.77V1.94a.94.94,0,1,1,1.88,0V3.82h3.76V1.94a.94.94,0,1,1,1.88,0V3.82h3.77V1.94a.94.94,0,1,1,1.88,0V3.82h3.77V1.94a.94.94,0,0,1,1.88,0V3.82h2.82a2.83,2.83,0,0,1,2.83,2.83V49H4.29V6.65A2.83,2.83,0,0,1,7.12,3.82H9.94Zm1.88,3.77V6.9a1.85,1.85,0,0,1,.94,1.63A1.88,1.88,0,1,1,9.94,6.9V5.71H7.12a.94.94,0,0,0-.94.94V17H43.82V6.65a.94.94,0,0,0-.94-.94H40.06V6.9A1.87,1.87,0,0,1,41,8.53a1.88,1.88,0,0,1-3.76,0,1.85,1.85,0,0,1,.94-1.63V5.71H34.41V6.9a1.85,1.85,0,0,1,.94,1.63A1.88,1.88,0,1,1,32.53,6.9V5.71H28.76V6.9a1.87,1.87,0,0,1,.95,1.63,1.89,1.89,0,0,1-3.77,0,1.87,1.87,0,0,1,.94-1.63V5.71H23.12V6.9a1.87,1.87,0,0,1,.94,1.63,1.89,1.89,0,0,1-3.77,0,1.86,1.86,0,0,1,.95-1.63V5.71H17.47V6.9a1.87,1.87,0,0,1,.94,1.63,1.88,1.88,0,1,1-3.76,0,1.86,1.86,0,0,1,.94-1.63V5.71Z" fill="#018045"/>
    <path id="curve28" d="M14.65,29.24a4.72,4.72,0,0,1,4.7-4.71h3.77A4.71,4.71,0,0,1,25.94,33a4.71,4.71,0,0,1-2.82,8.47H19.35a4.72,4.72,0,0,1-4.7-4.71h1.88a2.83,2.83,0,0,0,2.82,2.83h3.77a2.83,2.83,0,0,0,0-5.65H21.24V32.06h1.88a2.83,2.83,0,0,0,0-5.65H19.35a2.83,2.83,0,0,0-2.82,2.83Zm16.94-4.71h3.76V41.47H33.47V26.41H31.59Z" fill="#018045"/>
  </g>
</svg>
