<svg id="taking_payments" data-name="taking payments" xmlns="http://www.w3.org/2000/svg" width="203.19" height="206" viewBox="0 0 203.19 206">
  <title>generic-features-financials-taking-payments-solo</title>
  <g id="Layer_2" data-name="Layer 2">
    <g id="Taking_Payments-2" data-name="Taking Payments">
      <g>
        <ellipse cx="101.6" cy="102.98" rx="97.54" ry="98.94" fill="#1e67af"/>
        <path d="M273,256l-15.15-15.35-61.67,64.72,48.16,48.86a96.89,96.89,0,0,0,11.68.73c53.87,0,97.54-44.29,97.54-98.93v-.45l-27-27.42Z" transform="translate(-154.41 -153)" fill="#29509b"/>
        <polygon points="119.31 52.57 104.23 79.21 145.58 79.21 119.31 52.57" fill="#29509b"/>
        <path d="M268.2,203.66H202.84a9.16,9.16,0,0,0-9.09,9.23v86.24a9.15,9.15,0,0,0,9.06,9.24H268.2a9.15,9.15,0,0,0,9.09-9.22V212.87A9.16,9.16,0,0,0,268.2,203.66Z" transform="translate(-154.41 -153)" fill="#fff"/>
        <path d="M202.84,240.85a2.32,2.32,0,0,1-2.19-2.32V212.87a2.31,2.31,0,0,1,2.24-2.31H256.4a2.31,2.31,0,0,1,2.24,2.31v25.66a2.31,2.31,0,0,1-2.24,2.32Z" transform="translate(-154.41 -153)" fill="#0bb6ea"/>
        <path d="M211.17,258.18h-5.49a5.17,5.17,0,1,1,0-10.33h5.49a5.17,5.17,0,1,1,0,10.33Z" transform="translate(-154.41 -153)" fill="#e5e8ec"/>
        <path d="M232.36,258.18h-5.49a5.17,5.17,0,1,1,0-10.33h5.49a5.17,5.17,0,0,1,0,10.33Z" transform="translate(-154.41 -153)" fill="#e5e8ec"/>
        <path d="M253.54,258.18H248a5.2,5.2,0,1,1,0-10.4h5.49a5.17,5.17,0,0,1,0,10.34h0Z" transform="translate(-154.41 -153)" fill="#e5e8ec"/>
        <path d="M211.17,272.56h-5.49a5.17,5.17,0,1,1,0-10.33h5.49a5.17,5.17,0,1,1,0,10.33Z" transform="translate(-154.41 -153)" fill="#e5e8ec"/>
        <path d="M232.36,272.56h-5.49a5.17,5.17,0,1,1,0-10.33h5.49a5.17,5.17,0,0,1,0,10.33Z" transform="translate(-154.41 -153)" fill="#e5e8ec"/>
        <path d="M253.54,272.56H248a5.17,5.17,0,0,1,0-10.33h5.49a5.17,5.17,0,1,1,0,10.33h0Z" transform="translate(-154.41 -153)" fill="#e5e8ec"/>
        <path d="M211.17,287h-5.49a5.17,5.17,0,0,1,0-10.34h5.49a5.17,5.17,0,1,1,0,10.34Z" transform="translate(-154.41 -153)" fill="#e5e8ec"/>
        <path d="M232.36,287h-5.49a5.17,5.17,0,1,1,0-10.34h5.49a5.17,5.17,0,0,1,0,10.34Z" transform="translate(-154.41 -153)" fill="#e5e8ec"/>
        <path d="M253.54,287H248a5.17,5.17,0,0,1,0-10.29h5.49a5.17,5.17,0,1,1,0,10.33h0Z" transform="translate(-154.41 -153)" fill="#e5e8ec"/>
        <rect x="46.19" y="138.03" width="15.67" height="10.33" rx="3.86" ry="3.86" fill="#ef4c45"/>
        <rect x="67.37" y="138.03" width="15.67" height="10.33" rx="3.86" ry="3.86" fill="#e5e8ec"/>
        <rect x="88.56" y="138.03" width="15.67" height="10.33" rx="3.86" ry="3.86" fill="#3c9c46"/>
        <rect x="111.74" y="61.55" width="4.13" height="82.86" rx="1.56" ry="1.56" fill="#e5e8ec"/>
        <path d="M322.63,227H266.14v58h56.49a7.37,7.37,0,0,0,7.33-7.42h0V234.43a7.38,7.38,0,0,0-7.32-7.45Z" transform="translate(-154.41 -153)" fill="#bed630"/>
        <rect x="111.74" y="85.59" width="63.82" height="14.85" fill="#444d5b"/>
        <rect x="111.74" y="108.29" width="15.15" height="4.05" fill="#abc437"/>
        <rect x="111.74" y="116.51" width="24.5" height="4.05" fill="#abc437"/>
        <polygon points="73.65 87.81 61.07 87.81 83.16 57.6 95.75 57.6 73.65 87.81" fill="#22d2fc"/>
        <polygon points="76.76 57.6 54.67 87.81 58.08 87.81 80.18 57.6 76.76 57.6" fill="#22d2fc"/>
        <path d="M256,157.05v4a92.53,92.53,0,0,1,66.09,27.74,95.94,95.94,0,0,1,0,134.23,92.48,92.48,0,0,1-130.77,1.43l-1.42-1.43c-35.2-37-34.13-96.18,0-134.23A92.53,92.53,0,0,1,256,161.09V153a100.67,100.67,0,0,0-71.87,30.18,104,104,0,0,0,0,145.64,100.63,100.63,0,0,0,142.31,1.4l1.41-1.4a104,104,0,0,0,0-145.64A100.55,100.55,0,0,0,256,153Z" transform="translate(-154.41 -153)" fill="#0bb6ea"/>
      </g>
    </g>
  </g>
</svg>
