<svg xmlns="http://www.w3.org/2000/svg" width="206" height="206" viewBox="0 0 206 206">
  <title>waiting-list-icon</title>
  <g id="Layer_2" data-name="Layer 2">
    <g id="Waiting_List" data-name="Waiting List">
      <g>
        <circle cx="103" cy="103" r="103" transform="translate(-42.66 103) rotate(-45)" fill="#006064"/>
        <circle cx="103" cy="103" r="89.11" fill="#f9e98c"/>
        <g>
          <rect x="65.35" y="55.74" width="3.92" height="94.35" fill="#094f52"/>
          <rect x="136.73" y="55.74" width="3.92" height="94.35" fill="#094f52"/>
          <path d="M104.33,103c9.39-8.4,27.18-19.52,28.57-33.43a48,48,0,0,0-.36-12.39,33.06,33.06,0,0,0-1.16-5,3.72,3.72,0,0,0-2.85-2.59v0H78a3.6,3.6,0,0,0-3.37,2.63,31.93,31.93,0,0,0-1.17,5,48,48,0,0,0-.36,12.39c1.39,13.91,19.19,25,28.57,33.43-9.39,8.4-27.19,19.53-28.57,33.44a47.94,47.94,0,0,0,.36,12.38,31.68,31.68,0,0,0,1.17,5,3.57,3.57,0,0,0,3.63,2.61h49.48a3,3,0,0,0,.6,0h0a3.69,3.69,0,0,0,3-2.61,32.79,32.79,0,0,0,1.16-5,47.94,47.94,0,0,0,.36-12.38C131.52,122.53,113.72,111.4,104.33,103Z" fill="#26c6da" fill-rule="evenodd"/>
          <path d="M103.93,101.63c7.91-7,21.63-16,26.28-26.66-18.37,4.3-36.52,4.52-54.42,0,4.65,10.64,18.37,19.66,26.28,26.66Z" fill="#f2d2a9" fill-rule="evenodd"/>
          <path d="M130.21,152.62H75.79c12.86-29.42,26.28-3.91,26.28-52.17h1.86C103.93,148.71,117.36,123.2,130.21,152.62Z" fill="#f2d2a9" fill-rule="evenodd"/>
          <path d="M66.79,49.52a5.49,5.49,0,0,0,0,11h72.42a5.49,5.49,0,0,0,0-11Z" fill="#006064" fill-rule="evenodd"/>
          <path d="M66.79,145.51a5.49,5.49,0,0,0,0,11h72.42a5.49,5.49,0,0,0,0-11Z" fill="#006064" fill-rule="evenodd"/>
        </g>
      </g>
    </g>
  </g>
</svg>
