<svg xmlns="http://www.w3.org/2000/svg" xmlns:xlink="http://www.w3.org/1999/xlink" viewBox="0 0 450 350">
  <defs>
    <linearGradient id="linear-gradient" x1="225" x2="225" y2="350" gradientUnits="userSpaceOnUse">
      <stop offset="0" stop-color="#ecf8fe"/>
      <stop offset="0.68" stop-color="#c5e7fb"/>
      <stop offset="1" stop-color="#89cff7"/>
    </linearGradient>
  </defs>
  <title>generic-features-event-planner-sm</title>
  <g id="Layer_2" data-name="Layer 2">
    <g id="image_adjusted_3" data-name="image adjusted 3">
      <g>
        <rect width="450" height="350" fill="url(#linear-gradient)"/>
        <g>
          <path d="M66.1,229.73,35.87,215.19,66.1,200.65l30.23,14.54ZM40.38,215.19,66.1,227.56l25.72-12.37L66.1,202.82Z" fill="#17364b"/>
          <path d="M66.1,256.64,35.87,242.1,66.1,227.56,96.33,242.1ZM40.38,242.1,66.1,254.47,91.82,242.1,66.1,229.73Z" fill="#17364b"/>
          <path d="M66.1,283.55,35.87,269,66.1,254.47,96.33,269ZM40.38,269,66.1,281.38,91.82,269,66.1,256.64Z" fill="#17364b"/>
          <rect x="33.43" y="282.47" width="65.33" height="18.3" fill="#1b99d6"/>
          <circle cx="49.44" cy="292.16" r="2.98" transform="translate(-246.86 294.16) rotate(-80.78)" fill="#17364b"/>
          <circle cx="82.94" cy="292.16" r="2.98" transform="translate(-218.73 327.23) rotate(-80.78)" fill="#17364b"/>
          <rect x="27.64" y="194.98" width="76.93" height="6.68" fill="#1b99d6"/>
        </g>
        <rect x="87.36" y="98.08" width="279" height="202.68" fill="#fff"/>
        <g>
          <path d="M322.88,45.49l-1.63-.68a1.69,1.69,0,0,1-.93-1l-.5-1.37a.09.09,0,0,1,.14-.1l1.39,1.07a.49.49,0,0,0,.51,0h0a1.26,1.26,0,0,1,1.15,0l.58.34Z" fill="#fff"/>
          <path d="M342.56,23.35h0l-.74-3.84-.68.13A1.46,1.46,0,0,0,340,21.35l.06.3A2.15,2.15,0,0,0,342.56,23.35Z" fill="#1b99d6"/>
          <path d="M350.16,52.21,348.55,74.7,347.1,96.22h-1.67L344,74.7l.36-16.25h-.9L342,74l12.74,19.36-1.15,1.21L338.43,76.09a4.78,4.78,0,0,1-1.08-3.18l.66-20.7Z" fill="#1b99d6"/>
          <g>
            <polygon points="342.31 98.08 343.87 98.08 345.43 97.58 345.43 96.22 343.87 96.97 342.31 97.34 342.31 98.08" fill="#17364b"/>
            <polygon points="345.92 98.08 347.1 98.08 347.1 96.22 345.43 96.22 345.43 97.58 345.92 98.08" fill="#17364b"/>
          </g>
          <g>
            <polygon points="352.77 98.13 353.84 97 354.55 95.52 353.56 94.58 353.04 96.23 352.23 97.62 352.77 98.13" fill="#17364b"/>
            <polygon points="355.25 95.51 356.06 94.65 354.71 93.37 353.56 94.58 354.55 95.52 355.25 95.51" fill="#17364b"/>
          </g>
          <path d="M350.16,54.19H338V43.46l-2-10.89a2.58,2.58,0,0,1,2.41-3.52H350.9a2.58,2.58,0,0,1,2.41,3.52l-3.15,10.89Z" fill="#17364b"/>
          <path d="M342.71,21.57h0a2.88,2.88,0,0,1,2.88,2.88v2.3a0,0,0,0,1,0,0H341.1a0,0,0,0,1,0,0V23.19a1.61,1.61,0,0,1,1.61-1.61Z" transform="translate(685.04 -17.32) rotate(169.05)" fill="#fff"/>
          <polygon points="342.77 24.56 344.88 25.04 345.97 29.07 343.37 29.97 342.31 29.07 342.77 24.56" fill="#fff"/>
          <path d="M345.8,21.11h0a0,0,0,0,1,0,0v3.16a0,0,0,0,1,0,0h-.66a0,0,0,0,1,0,0v-2.5A.66.66,0,0,1,345.8,21.11Z" transform="translate(688.96 -20.59) rotate(169.06)" fill="#1b99d6"/>
          <path d="M342.54,21.76l3-.57-.24-1.27a1.5,1.5,0,0,0-1.77-1.19L342,19a1.41,1.41,0,0,0-1.11,1.64h0A1.4,1.4,0,0,0,342.54,21.76Z" fill="#1b99d6"/>
          <path d="M345.16,22.49h0l-.69-3.56-.65.13.56,2.91A.66.66,0,0,0,345.16,22.49Z" fill="#1b99d6"/>
          <path d="M345.59,22.6a.4.4,0,0,1-.32.47.39.39,0,0,1-.47-.31.4.4,0,0,1,.32-.47A.41.41,0,0,1,345.59,22.6Z" fill="#fff"/>
          <path d="M322.88,45.49,333.43,47a2.42,2.42,0,0,0,2.35-1.89l4.69-13.47-4.53-.69-3.85,12-8.5,1Z" fill="#17364b"/>
          <rect x="320.89" y="42.36" width="11.65" height="1.26" rx="0.63" ry="0.63" transform="translate(653.42 85.98) rotate(-180)" fill="#1b99d6"/>
          <path d="M322,43.15,318.65,32.3a.33.33,0,0,0-.42-.22h0a.33.33,0,0,0-.22.42l3.37,10.85a.33.33,0,0,0,.42.22h0A.35.35,0,0,0,322,43.15Z" fill="#1b99d6"/>
          <polygon points="346.32 44.52 353.31 32.07 349.76 30.08 344.06 40.23 330.63 40.18 330.86 41.91 346.32 44.52" fill="#17364b"/>
          <path d="M330.63,40.18l-1.77.21a1.62,1.62,0,0,0-1.15.67l-.86,1.16a.1.1,0,0,0,.11.15l1.63-.65a.51.51,0,0,1,.5.09h0a1.24,1.24,0,0,0,1.12.27l.65-.17Z" fill="#fff"/>
        </g>
        <rect y="300.12" width="450" height="49.88" fill="#44c8f5"/>
        <path d="M158.4,109.74a1,1,0,0,1-1-1V91.61a1,1,0,0,1,2,0v17.16A1,1,0,0,1,158.4,109.74Z" fill="#17364b"/>
        <rect x="87.36" y="98.08" width="279" height="21.37" fill="#ffcb64"/>
        <g>
          <rect x="115.57" y="152.31" width="222.58" height="1.96" fill="#eaeaea"/>
          <rect x="115.57" y="183" width="222.58" height="1.96" fill="#eaeaea"/>
          <rect x="115.57" y="213.7" width="222.58" height="1.96" fill="#eaeaea"/>
          <rect x="115.57" y="244.39" width="222.58" height="1.96" fill="#eaeaea"/>
          <rect x="115.57" y="275.09" width="222.58" height="1.96" fill="#eaeaea"/>
        </g>
        <g>
          <rect x="141.77" y="139.99" width="1.96" height="136.07" fill="#eaeaea"/>
          <rect x="175.42" y="139.99" width="1.96" height="136.07" fill="#eaeaea"/>
          <rect x="209.06" y="139.99" width="1.96" height="136.07" fill="#eaeaea"/>
          <rect x="242.7" y="139.99" width="1.96" height="136.07" fill="#eaeaea"/>
          <rect x="276.34" y="139.99" width="1.96" height="136.07" fill="#eaeaea"/>
          <rect x="309.98" y="139.99" width="1.96" height="136.07" fill="#eaeaea"/>
        </g>
        <g>
          <g>
            <rect x="126.71" y="104.46" width="8.61" height="8.61" fill="#fee8aa"/>
            <rect x="154.1" y="104.46" width="8.61" height="8.61" fill="#fee8aa"/>
            <rect x="181.48" y="104.46" width="8.61" height="8.61" fill="#fee8aa"/>
            <rect x="208.86" y="104.46" width="8.61" height="8.61" fill="#fee8aa"/>
            <rect x="236.24" y="104.46" width="8.61" height="8.61" fill="#fee8aa"/>
            <rect x="263.63" y="104.46" width="8.61" height="8.61" fill="#fee8aa"/>
            <rect x="291.01" y="104.46" width="8.61" height="8.61" fill="#fee8aa"/>
            <rect x="318.39" y="104.46" width="8.61" height="8.61" fill="#fee8aa"/>
          </g>
          <path d="M131,109.74a1,1,0,0,1-1-1V91.61a1,1,0,0,1,2,0v17.16A1,1,0,0,1,131,109.74Z" fill="#17364b"/>
          <path d="M185.78,109.74a1,1,0,0,1-1-1V91.61a1,1,0,0,1,2,0v17.16A1,1,0,0,1,185.78,109.74Z" fill="#17364b"/>
          <path d="M213.16,109.74a1,1,0,0,1-1-1V91.61a1,1,0,0,1,1.95,0v17.16A1,1,0,0,1,213.16,109.74Z" fill="#17364b"/>
          <path d="M240.55,109.74a1,1,0,0,1-1-1V91.61a1,1,0,0,1,2,0v17.16A1,1,0,0,1,240.55,109.74Z" fill="#17364b"/>
          <path d="M267.93,109.74a1,1,0,0,1-1-1V91.61a1,1,0,0,1,2,0v17.16A1,1,0,0,1,267.93,109.74Z" fill="#17364b"/>
          <path d="M295.31,109.74a1,1,0,0,1-1-1V91.61a1,1,0,0,1,2,0v17.16A1,1,0,0,1,295.31,109.74Z" fill="#17364b"/>
          <path d="M322.69,109.74a1,1,0,0,1-1-1V91.61a1,1,0,0,1,2,0v17.16A1,1,0,0,1,322.69,109.74Z" fill="#17364b"/>
        </g>
        <rect x="149.24" y="144.49" width="20.28" height="2.93" transform="translate(318.76 291.91) rotate(180)" fill="#1b99d6"/>
        <rect x="182.88" y="144.49" width="20.28" height="2.93" transform="translate(386.04 291.91) rotate(180)" fill="#1b99d6"/>
        <rect x="216.52" y="144.49" width="20.28" height="2.93" transform="translate(453.32 291.91) rotate(180)" fill="#1b99d6"/>
        <rect x="250.16" y="144.49" width="20.28" height="2.93" transform="translate(520.6 291.91) rotate(180)" fill="#1b99d6"/>
        <rect x="283.8" y="144.49" width="20.28" height="2.93" transform="translate(587.89 291.91) rotate(180)" fill="#1b99d6"/>
        <g>
          <rect x="178.95" y="186.87" width="28.15" height="24.93" fill="#1b99d6"/>
          <rect x="182.88" y="193.52" width="20.28" height="2.93" transform="translate(386.04 389.96) rotate(180)" fill="#fff"/>
          <rect x="182.88" y="200.43" width="14.87" height="2.93" transform="translate(380.63 403.79) rotate(180)" fill="#fff"/>
        </g>
        <g>
          <path d="M159.38,243.76a13.27,13.27,0,1,1,13.27-13.27A13.28,13.28,0,0,1,159.38,243.76Zm0-24.58a11.32,11.32,0,1,0,11.31,11.31A11.32,11.32,0,0,0,159.38,219.18Z" fill="#1b99d6"/>
          <g>
            <path d="M155.48,228.55l-1.73.62v-1.69l3.61-1.31v8.66h-1.88Z" fill="#1b99d6"/>
            <path d="M163,227.94h-3.4V226.3h6l0,0-3.46,8.51h-2Z" fill="#1b99d6"/>
          </g>
        </g>
        <g>
          <path d="M326.66,243.2a13.27,13.27,0,1,1,13.27-13.27A13.28,13.28,0,0,1,326.66,243.2Zm0-24.58A11.31,11.31,0,1,0,338,229.93,11.32,11.32,0,0,0,326.66,218.62Z" fill="#17364b"/>
          <g>
            <path d="M320.83,231.94a4.74,4.74,0,0,0,2.37.81c.8,0,1.33-.38,1.33-1s-.46-1-1.47-1h-.85v-1.41h.8c.92,0,1.36-.43,1.36-1s-.51-1-1.28-1a3.89,3.89,0,0,0-1.75.49v-1.67a3.69,3.69,0,0,1,1.9-.47c1.73,0,3,1,3,2.36a2,2,0,0,1-1.26,1.86v0a2.06,2.06,0,0,1,1.43,2c0,1.51-1.38,2.54-3.12,2.54a4.65,4.65,0,0,1-2.46-.66Z" fill="#1b99d6"/>
            <path d="M329.48,228l-1.73.62v-1.7l3.61-1.3v8.66h-1.88Z" fill="#1b99d6"/>
          </g>
        </g>
        <g>
          <path d="M159.38,181.68a13.27,13.27,0,1,1,13.27-13.27A13.29,13.29,0,0,1,159.38,181.68Zm0-24.59a11.32,11.32,0,1,0,11.31,11.32A11.33,11.33,0,0,0,159.38,157.09Z" fill="#17364b"/>
          <path d="M161.53,168.33a2.61,2.61,0,0,1,1.75,2.5c0,1.86-1.66,3.13-3.9,3.13s-3.9-1.27-3.9-3.13a2.6,2.6,0,0,1,1.74-2.5v0a2.18,2.18,0,0,1-1.41-2.11c0-1.66,1.56-2.88,3.57-2.88s3.57,1.22,3.57,2.88a2.18,2.18,0,0,1-1.42,2.11Zm-.58,2.34a1.58,1.58,0,0,0-3.14,0,1.58,1.58,0,0,0,3.14,0Zm-.2-4.28a1.38,1.38,0,1,0-1.37,1.24A1.28,1.28,0,0,0,160.75,166.39Z" fill="#1b99d6"/>
        </g>
        <g>
          <polygon points="367.32 215.61 377.63 208.67 379.44 195.52 373.68 196.37 373.08 207.05 365.64 215.19 367.32 215.61" fill="#17364b"/>
          <path d="M377,218h14.6l3.89-20.39a4,4,0,0,0-3.9-4.71H377.61a4,4,0,0,0-3.92,4.54Z" fill="#17364b"/>
          <polygon points="391.48 218 389.25 239.68 389.54 261.35 387.86 261.35 385.24 239.68 383.85 223.31 382.91 223.31 380.74 239.68 380.48 261.35 378.8 261.35 376.73 239.68 377.02 218 391.48 218" fill="#33627c"/>
          <polygon points="383.42 188.08 385.32 188.08 386.73 192.9 381.91 192.9 383.42 188.08" fill="#fff"/>
          <path d="M382.63,184.65h0a3.25,3.25,0,0,1,3.25,3.25v2.6a0,0,0,0,1,0,0h-5.06a0,0,0,0,1,0,0v-4A1.82,1.82,0,0,1,382.63,184.65Z" transform="translate(766.69 375.14) rotate(180)" fill="#fff"/>
          <path d="M380.17,183.27l4.51.6c.94.13,1.42.64,1.42,1.43h0v1.81a.82.82,0,0,1-.82.82h-.83v-1.84a.79.79,0,0,0-.79-.79h-2.83Z" fill="#1b99d6"/>
          <path d="M384.2,186.88a.47.47,0,0,0,.47.47.47.47,0,1,0,0-.94A.47.47,0,0,0,384.2,186.88Z" fill="#fff"/>
          <g>
            <polygon points="384.71 263.23 386.29 263.23 387.86 262.72 387.86 261.35 386.29 262.11 384.71 262.48 384.71 263.23" fill="#17364b"/>
            <polygon points="388.35 263.23 389.54 263.23 389.54 261.35 387.86 261.35 387.86 262.72 388.35 263.23" fill="#17364b"/>
          </g>
          <g>
            <polygon points="375.66 263.23 377.23 263.23 378.8 262.72 378.8 261.35 377.23 262.11 375.66 262.48 375.66 263.23" fill="#17364b"/>
            <polygon points="379.29 263.23 380.48 263.23 380.48 261.35 378.8 261.35 378.8 262.72 379.29 263.23" fill="#17364b"/>
          </g>
          <path d="M383.6,194.6H385a1.7,1.7,0,0,0,1.7-1.7h-4.82A1.7,1.7,0,0,0,383.6,194.6Z" fill="#fff"/>
          <g>
            <polygon points="356.5 204.91 356.21 200.34 349.78 200.57 352.23 206.52 356.5 204.91" fill="#eaeaea"/>
            <polygon points="351.8 205.5 353.12 205.13 355.33 201.7 355.11 200.37 356.21 200.34 391.57 223.15 387.59 229.33 352.23 206.52 351.8 205.5" fill="#ffcb64"/>
            <polygon points="353.14 202.74 355.31 201.73 390.68 224.54 388.48 227.94 353.12 205.13 353.14 202.74" fill="#fee8aa"/>
            <path d="M352.71,200.46a5.08,5.08,0,0,1-1.81,2.82l-1.12-2.71Z" fill="#17364b"/>
          </g>
          <path d="M383.77,219.6l-1,.87a1.71,1.71,0,0,0-.6,1.22l-.06,1.48a.1.1,0,0,0,.18.06l1-1.47a.47.47,0,0,1,.47-.21h0a1.27,1.27,0,0,0,1.1-.42l.45-.51Z" fill="#fff"/>
          <path d="M385.21,220.83l7.56-11.19a2.75,2.75,0,0,0,.46-1.29L395.5,197l-7.83-1.37L389,208l-5.51,11.78Z" fill="#17364b"/>
          <path d="M366.72,217.35l1.1.77a1.71,1.71,0,0,0,1.34.26l1.44-.31a.1.1,0,0,0,0-.19l-1.68-.6a.49.49,0,0,1-.32-.4h0a1.28,1.28,0,0,0-.68-1l-.61-.3Z" fill="#fff"/>
          <polygon points="365.64 215.19 366.72 217.35 367.32 215.61 365.64 215.19" fill="#17364b"/>
        </g>
        <g>
          <polygon points="130.35 212.29 125.62 212.15 128.25 202.25 130.35 202.25 130.35 212.29" fill="#17364b"/>
          <path d="M136.05,229l1,.87a1.7,1.7,0,0,1,.59,1.23l.06,1.47a.09.09,0,0,1-.17.06l-1-1.47a.48.48,0,0,0-.48-.21h0a1.25,1.25,0,0,1-1.1-.42l-.45-.5Z" fill="#f9b2bd"/>
          <polygon points="122.51 229.87 124.74 251.54 124.45 273.22 126.13 273.22 128.75 251.54 129.27 235.18 130.5 235.18 133.25 251.54 133.51 273.22 135.19 273.22 137.26 251.54 137.26 229.87 122.51 229.87" fill="#f9b290"/>
          <g>
            <polygon points="138.33 275.1 136.76 275.1 134.47 274.36 135.19 273.22 138.33 274.73 138.33 275.1" fill="#ffcb64"/>
            <polygon points="134.7 275.1 133.51 275.1 133.51 273.22 135.19 273.22 134.47 274.36 134.7 275.1" fill="#ffcb64"/>
          </g>
          <g>
            <polygon points="129.28 275.1 127.7 275.1 125.42 274.36 126.13 273.22 129.28 274.73 129.28 275.1" fill="#ffcb64"/>
            <polygon points="125.64 275.1 124.45 275.1 124.45 273.22 126.13 273.22 125.42 274.36 125.64 275.1" fill="#ffcb64"/>
          </g>
          <polygon points="124.26 248.21 137.36 248.21 138.48 229.87 122.24 229.87 124.26 248.21" fill="#17364b"/>
          <path d="M138.48,229.87H122.24l2.6-18.47a3.45,3.45,0,0,1,3.42-3h4.2a3.45,3.45,0,0,1,3.42,3Z" fill="#ffcb64"/>
          <path d="M130.85,210.58h0a1.64,1.64,0,0,1-1.64-1.64v-.35h3.28v.35A1.63,1.63,0,0,1,130.85,210.58Z" fill="#f9b290"/>
          <circle cx="129.11" cy="203.53" r="0.4" fill="#f9b290"/>
          <polygon points="131.56 204.81 129.75 204.86 129.22 208.59 132.49 208.59 131.56 204.81" fill="#f9b290"/>
          <path d="M129.05,201.12h4.24a0,0,0,0,1,0,0v2.17a2.72,2.72,0,0,1-2.72,2.72h0a1.52,1.52,0,0,1-1.52-1.52v-3.37A0,0,0,0,1,129.05,201.12Z" fill="#f9b290"/>
          <path d="M128.22,202.42h4.07a1.26,1.26,0,0,0,1.26-1.26h0a1.26,1.26,0,0,0-1.26-1.27h-1.55a2.52,2.52,0,0,0-2.52,2.53Z" fill="#17364b"/>
          <path d="M130.37,232l1,.41a1.33,1.33,0,0,0,1.07,0l1.07-.49a.07.07,0,0,0,0-.14l-1.41-.18a.39.39,0,0,1-.32-.26h0a1,1,0,0,0-.69-.63l-.52-.14Z" fill="#f9b290"/>
          <path d="M150.86,218.73l1.06-.11a1.33,1.33,0,0,1,1,.32l.88.77a.08.08,0,0,1-.06.14l-1.4-.23a.4.4,0,0,0-.38.16h0a1,1,0,0,1-.84.41l-.54,0Z" fill="#f9b290"/>
          <path d="M130.35,232,120.41,225a2.4,2.4,0,0,1-.8-3l5.64-11.82,3,1.28-5,11.33,7.91,7.9Z" fill="#ffcb64"/>
          <path d="M141.72,220.4l8.89-.23.25-1.44-9-1.44-6.58-7.39L131,213.42l8.66,6.33A3.39,3.39,0,0,0,141.72,220.4Z" fill="#ffcb64"/>
        </g>
        <g>
          <g>
            <rect x="71.29" y="153.6" width="28.15" height="24.93" transform="translate(-40.16 27.84) rotate(-15.04)" fill="#1b99d6"/>
            <rect x="74.09" y="160.4" width="20.28" height="2.93" transform="translate(207.58 296.32) rotate(164.96)" fill="#fff"/>
            <rect x="75.98" y="167.77" width="14.87" height="2.93" transform="translate(207.88 311.04) rotate(164.96)" fill="#fff"/>
          </g>
          <g>
            <rect x="52.92" y="142.67" width="6.99" height="13.13" rx="3.46" ry="3.46" transform="translate(9.32 -3.2) rotate(3.54)" fill="#17364b"/>
            <path d="M59.94,136.88a2,2,0,0,0,.14-.84,1,1,0,0,1,.3-.78,1.9,1.9,0,0,0,.56-1,2,2,0,0,0-3.79-1.15A2.06,2.06,0,0,0,57,134a1,1,0,0,1-.3.78,1.84,1.84,0,0,0-.47.71,1.92,1.92,0,0,0-.08,1.2.69.69,0,0,1-.14.6,1.76,1.76,0,0,0-.32.69,1.61,1.61,0,0,0,3.08.89,1.52,1.52,0,0,0,.1-.47.71.71,0,0,1,.3-.53A1.92,1.92,0,0,0,59.94,136.88Z" fill="#17364b"/>
            <path d="M70.42,155.2a4.06,4.06,0,0,1,1.63.55,1.19,1.19,0,0,1,.5.73l.19,1c0,.06-.06.11-.1.07l-.8-.83a.28.28,0,0,0-.32-.07h0a.75.75,0,0,1-.75-.09l-.85-.43Z" fill="#fff"/>
            <polygon points="69.92 156.13 60.09 153.72 60.63 143.91 64.72 144.13 64.3 151.84 70.45 155.2 69.92 156.13" fill="#ffcb64"/>
            <path d="M54.85,161.41l1.47,14.33-10.9,7.83,1,.69,12.4-7.37a1.85,1.85,0,0,0,.75-1.42l.31-10.12h.92l2,12.15L63,193.59h1.25l1.53-16.09V161.41Z" fill="#fff"/>
            <path d="M54.85,161.41l1.47,14.33-7.61,5.47,1.12,1,9-5.33a1.85,1.85,0,0,0,.75-1.42l.92-10.12h.31l2,12.15L63,189.72h1.67l1.16-12.22V161.41Z" fill="#17364b"/>
            <g>
              <polygon points="66.59 194.98 65.42 194.98 63.73 194.43 64.26 193.59 66.59 194.71 66.59 194.98" fill="#17364b"/>
              <polygon points="63.9 194.98 63.01 194.98 63.01 193.59 64.26 193.59 63.73 194.43 63.9 194.98" fill="#17364b"/>
            </g>
            <g>
              <polygon points="47.48 186.75 46.53 186.07 45.48 184.63 46.4 184.26 47.64 186.53 47.48 186.75" fill="#17364b"/>
              <polygon points="45.29 185.18 44.57 184.66 45.39 183.53 46.4 184.26 45.48 184.63 45.29 185.18" fill="#17364b"/>
            </g>
            <path d="M67.07,166.52l-14,3.18,2.36-25.54a3.5,3.5,0,0,1,3.5-3.27h3a3,3,0,0,1,3,2.82Z" fill="#ffcb64"/>
            <path d="M52,160.71l-4-10a2.38,2.38,0,0,1,.85-2.83L57,141.51l3.53,3.15-8.91,5.84L53,160.3Z" fill="#ffcb64"/>
            <path d="M61.63,136.89l-1.38.4-1,3.61a.18.18,0,0,0,0,.17l1.89,1.32a.34.34,0,0,0,.53-.25l.23-1.09a.28.28,0,0,0,0-.09Z" fill="#fff"/>
            <path d="M59.34,134h4.18a0,0,0,0,1,0,0v2.14a2.68,2.68,0,0,1-2.68,2.68h0a1.5,1.5,0,0,1-1.5-1.5V134A0,0,0,0,1,59.34,134Z" transform="translate(19.5 -7.2) rotate(7.97)" fill="#fff"/>
            <path d="M58.86,136.32h0A2.15,2.15,0,0,0,61,134.18v-1.6h-.35a1.79,1.79,0,0,0-1.78,1.79Z" fill="#17364b"/>
            <path d="M64.09,134.62H62a1.13,1.13,0,0,1-1.11-1.35l.13-.69h1.08a2,2,0,0,1,2,2Z" fill="#17364b"/>
            <path d="M60,136.06a.4.4,0,0,1-.45.33.39.39,0,0,1,.11-.78A.4.4,0,0,1,60,136.06Z" fill="#fff"/>
            <path d="M53,160.3a3.93,3.93,0,0,1,.85,1.49,1.19,1.19,0,0,1-.11.88l-.52.87a.06.06,0,0,1-.12,0l0-1.15a.3.3,0,0,0-.2-.26h0a.73.73,0,0,1-.5-.57l-.35-.88Z" fill="#fff"/>
            <path d="M53.91,155.43l-.1-1.21,2.51-.21a1,1,0,0,0,.88-1l-.3-11.85a.19.19,0,0,1,.2-.2l.81,0a.2.2,0,0,1,.21.19l.3,11.85a2.19,2.19,0,0,1-2,2.23Z" fill="#17364b"/>
          </g>
        </g>
        <g>
          <g>
            <rect x="245.25" y="219.03" width="28.15" height="24.93" transform="translate(-22.72 28.3) rotate(-5.98)" fill="#17364b"/>
            <rect x="248.73" y="225.71" width="20.28" height="2.93" transform="translate(540.01 426.12) rotate(174.02)" fill="#fff"/>
            <rect x="249.47" y="232.86" width="14.87" height="2.93" transform="matrix(-0.99, 0.1, -0.1, -0.99, 536.83, 440.6)" fill="#fff"/>
          </g>
          <g>
            <path d="M259.27,247l5,8.86a2.45,2.45,0,0,0,1.79,1.19l12.3,1.65V254.5l-11.23-1.33-6.9-7.73Z" fill="#1b99d6"/>
            <path d="M279.72,249.25h0v-2.61h-1v1.66A1,1,0,0,0,279.72,249.25Z" fill="#17364b"/>
            <path d="M284,247.69h0a0,0,0,0,1,0,0v3.12a0,0,0,0,1,0,0h-1.67a0,0,0,0,1,0,0v-1.45A1.67,1.67,0,0,1,284,247.69Z" transform="translate(566.3 498.5) rotate(180)" fill="#17364b"/>
            <polygon points="288.37 277.76 287.11 299.99 287.39 320.93 285.78 320.93 283.26 299.99 282.2 282.88 281.05 282.88 278.95 299.99 278.7 320.93 277.09 320.93 275.1 299.99 275.23 277.76 288.37 277.76" fill="#17364b"/>
            <g>
              <polygon points="282.76 322.73 284.27 322.73 285.78 322.24 285.78 320.93 284.27 321.66 282.76 322.01 282.76 322.73" fill="#eaeaea"/>
              <polygon points="286.25 322.73 287.39 322.73 287.39 320.93 285.78 320.93 285.78 322.24 286.25 322.73" fill="#eaeaea"/>
            </g>
            <g>
              <polygon points="274.07 322.73 275.58 322.73 277.09 322.24 277.09 320.93 275.58 321.66 274.07 322.01 274.07 322.73" fill="#eaeaea"/>
              <polygon points="277.56 322.73 278.7 322.73 278.7 320.93 277.09 320.93 277.09 322.24 277.56 322.73" fill="#eaeaea"/>
            </g>
            <path d="M274.69,279h14.23l-.85-12.91,1.71-8.93a2.27,2.27,0,0,0-2.23-2.7H276.06a2.27,2.27,0,0,0-2.23,2.7l1.71,8.93Z" fill="#1b99d6"/>
            <g>
              <path d="M280.61,247h0a2.71,2.71,0,0,1,2.71,2.71v2.17a0,0,0,0,1,0,0h-4.23a0,0,0,0,1,0,0V248.5A1.52,1.52,0,0,1,280.61,247Z" transform="translate(562.41 498.84) rotate(-180)" fill="#f9b290"/>
              <polygon points="280.37 250.44 282.65 250.53 283.49 254.5 280.04 254.5 280.37 250.44" fill="#f9b290"/>
            </g>
            <polygon points="283.49 254.5 281.2 256.26 280.04 254.5 283.49 254.5" fill="#f9b290"/>
            <path d="M279.93,247.78H284v-.33a1.68,1.68,0,0,0-1.41-1.71l-3.81-.44v1.23A1.21,1.21,0,0,0,279.93,247.78Z" fill="#17364b"/>
            <path d="M282.85,249.42a.47.47,0,1,0,.47-.46A.47.47,0,0,0,282.85,249.42Z" fill="#f9b290"/>
            <polygon points="294.84 280.5 296.14 279.28 292.38 269.35 289.8 256.43 285.73 256.51 288.37 270.73 294.84 280.5" fill="#1b99d6"/>
            <path d="M296.14,279.28l1.2.84a1.64,1.64,0,0,1,.69,1.14l.2,1.44a.09.09,0,0,1-.16.08l-1.13-1.35a.49.49,0,0,0-.49-.17h0a1.21,1.21,0,0,1-1.12-.3l-.49-.45Z" fill="#f9b290"/>
            <path d="M260.23,245.44l-1-1a1.71,1.71,0,0,0-1.25-.48l-1.46.07a.09.09,0,0,0,0,.18l1.53.86a.5.5,0,0,1,.25.45h0a1.23,1.23,0,0,0,.5,1.05l.54.4Z" fill="#f9b290"/>
          </g>
        </g>
        <g>
          <path d="M171.7,24.89h0a1.4,1.4,0,0,0-1.4,1.4v3.38a2.8,2.8,0,0,0,2.8,2.8h0V26.29A1.4,1.4,0,0,0,171.7,24.89Z" fill="#17364b"/>
          <polygon points="170.34 71.72 166.54 71.72 161.28 96.27 162.91 96.27 170.34 71.72" fill="#fff"/>
          <polygon points="174 71.72 173.56 96.27 175.19 96.27 178.08 71.72 174 71.72" fill="#fff"/>
          <polygon points="162.92 96.24 161.28 96.24 161.28 98.08 162.44 98.08 162.22 97.36 164.46 98.08 166 98.08 166 97.72 162.92 96.24" fill="#17364b"/>
          <polygon points="175.2 96.24 173.56 96.24 173.56 98.08 174.72 98.08 174.5 97.36 176.74 98.08 178.28 98.08 178.28 97.72 175.2 96.24" fill="#17364b"/>
          <polygon points="184.38 58.49 176.03 48.89 174.51 37.89 178.78 37.27 179.48 47.57 185.47 57.47 184.38 58.49" fill="#ffcb64"/>
          <path d="M174.53,28.46a1.2,1.2,0,0,0,1.21,1.18,1.18,1.18,0,0,0,1.18-1.2,1.2,1.2,0,1,0-2.39,0Z" fill="#17364b"/>
          <path d="M176.91,54.69l-7.35-.07-2.91-16.56a3.16,3.16,0,0,1,3.14-3.52h6a3,3,0,0,1,3,3.16Z" fill="#ffcb64"/>
          <polygon points="168.82 49.95 177.54 49.95 182.03 71.72 164.33 71.72 168.82 49.95" fill="#33627c"/>
          <path d="M172,27.66h4.54a0,0,0,0,1,0,0V30a2.91,2.91,0,0,1-2.91,2.91h0A1.63,1.63,0,0,1,172,31.27V27.66A0,0,0,0,1,172,27.66Z" fill="#fff"/>
          <polygon points="174.48 30.19 172.35 30.68 171.25 34.75 174.95 34.75 174.48 30.19" fill="#fff"/>
          <path d="M171.66,29.73,174,29.5c2-.24,2.85-1.13,2.83-2.54h0a1.06,1.06,0,0,0-1.17-.9l-2,.18a1.83,1.83,0,0,0-2,1.6Z" fill="#17364b"/>
          <path d="M167.51,53.83l-9.12-6.52a1.56,1.56,0,0,1-.19-2.38l9.24-9.34,3.54,4-8.59,6.15a.35.35,0,0,0,0,.52l6,6.33Z" fill="#ffcb64"/>
          <path d="M185.46,57.47l1,.45a1.42,1.42,0,0,1,.72.92l.31,1.23a.09.09,0,0,1-.14.08l-1.11-1.06a.4.4,0,0,0-.43-.09h0a1.08,1.08,0,0,1-1-.15l-.47-.36Z" fill="#fff"/>
          <path d="M173.63,37.09h.51a.81.81,0,0,0,.81-.81V34.75h-3.7L173,36.81A.82.82,0,0,0,173.63,37.09Z" fill="#fff"/>
          <g>
            <rect x="183.6" y="58.82" width="28.15" height="24.93" fill="#1b99d6"/>
            <rect x="187.53" y="65.47" width="20.28" height="2.93" transform="translate(395.35 133.87) rotate(180)" fill="#fff"/>
            <rect x="187.53" y="72.38" width="14.87" height="2.93" transform="translate(389.94 147.69) rotate(180)" fill="#fff"/>
          </g>
          <g>
            <rect x="146.01" y="54.91" width="28.15" height="24.93" transform="translate(-6.15 17.06) rotate(-5.98)" fill="#17364b"/>
            <rect x="149.49" y="61.58" width="20.28" height="2.93" transform="translate(324.97 109.11) rotate(174.02)" fill="#fff"/>
            <rect x="150.23" y="68.74" width="14.87" height="2.93" transform="translate(321.78 123.59) rotate(174.02)" fill="#fff"/>
          </g>
          <path d="M168.39,52.63l1.1.27a1.47,1.47,0,0,1,.86.78l.51,1.16a.08.08,0,0,1-.12.11l-1.27-.86a.41.41,0,0,0-.44,0h0a1.06,1.06,0,0,1-1,0l-.52-.26Z" fill="#fff"/>
        </g>
        <g>
          <polygon points="411.22 334.03 409.27 334.03 409.27 269.65 372.65 269.65 372.65 334.03 370.7 334.03 370.7 267.69 411.22 267.69 411.22 334.03" fill="#fff"/>
          <rect x="364.43" y="263.23" width="53.06" height="6.91" rx="2.84" ry="2.84" transform="translate(781.92 533.37) rotate(180)" fill="#17364b"/>
          <rect x="371.67" y="289.24" width="38.57" height="1.96" fill="#fff"/>
          <rect x="371.67" y="311.15" width="38.57" height="1.96" fill="#fff"/>
        </g>
        <g>
          <circle cx="193.02" cy="260.95" r="8.48" fill="#1b99d6"/>
          <path d="M191.17,255.68h3.7l-.63,7H191.8Zm.25,9.27a1.6,1.6,0,1,1,1.59,1.59A1.6,1.6,0,0,1,191.42,265Z" fill="#fff"/>
        </g>
        <g>
          <circle cx="226.66" cy="168.41" r="8.48" fill="#17364b"/>
          <path d="M224.81,163.14h3.7l-.62,7h-2.45Zm.25,9.26a1.6,1.6,0,1,1,1.59,1.6A1.6,1.6,0,0,1,225.06,172.4Z" fill="#fff"/>
        </g>
        <g>
          <rect x="132.81" y="298.17" width="36.35" height="29.02" fill="#fff"/>
          <rect x="129.55" y="292.03" width="42.87" height="9.89" fill="#17364b"/>
          <rect x="148.42" y="301.92" width="5.14" height="25.27" fill="#1b99d6"/>
          <g>
            <rect x="161.06" y="311.25" width="28.15" height="24.93" fill="#17364b"/>
            <rect x="164.99" y="317.9" width="20.28" height="2.93" transform="translate(350.26 638.73) rotate(180)" fill="#fff"/>
            <rect x="164.99" y="324.81" width="14.87" height="2.93" transform="translate(344.85 652.55) rotate(180)" fill="#fff"/>
          </g>
        </g>
        <g>
          <rect x="280.01" y="156.41" width="28.15" height="24.93" fill="#1b99d6"/>
          <rect x="283.95" y="163.05" width="20.28" height="2.93" transform="translate(588.18 329.04) rotate(180)" fill="#fff"/>
          <rect x="283.95" y="169.97" width="14.87" height="2.93" transform="translate(582.77 342.86) rotate(180)" fill="#fff"/>
        </g>
        <rect x="246.16" y="156.41" width="28.15" height="24.93" fill="#ffcb64"/>
        <rect x="250.09" y="163.05" width="20.28" height="2.93" transform="translate(520.47 329.04) rotate(180)" fill="#fff"/>
        <rect x="250.09" y="169.97" width="14.87" height="2.93" transform="translate(515.06 342.86) rotate(180)" fill="#fff"/>
        <g>
          <rect x="212.78" y="248.26" width="28.15" height="24.93" fill="#1b99d6"/>
          <rect x="216.72" y="254.91" width="20.28" height="2.93" transform="translate(453.71 512.75) rotate(180)" fill="#fff"/>
          <rect x="216.72" y="261.82" width="14.87" height="2.93" transform="translate(448.3 526.57) rotate(180)" fill="#fff"/>
        </g>
        <path d="M331.26,270.38l-5.6-2.94a.32.32,0,0,0-.33,0l-5.6,2.95a.35.35,0,0,1-.51-.37l1.07-6.24a.35.35,0,0,0-.1-.31l-4.54-4.42a.35.35,0,0,1,.19-.6l6.27-.91a.36.36,0,0,0,.26-.19l2.8-5.68a.35.35,0,0,1,.63,0l2.8,5.67a.32.32,0,0,0,.26.19l6.27.91a.35.35,0,0,1,.2.6l-4.54,4.42a.36.36,0,0,0-.1.31l1.08,6.24A.35.35,0,0,1,331.26,270.38Z" fill="#1b99d6"/>
        <path d="M232.44,239.3l-5.61-2.94a.32.32,0,0,0-.33,0l-5.6,2.95a.35.35,0,0,1-.51-.37l1.07-6.24a.35.35,0,0,0-.1-.31L216.82,228a.35.35,0,0,1,.19-.6l6.27-.91a.35.35,0,0,0,.26-.19l2.8-5.68a.35.35,0,0,1,.63,0l2.81,5.67a.35.35,0,0,0,.26.2l6.27.9a.35.35,0,0,1,.19.6L232,232.38a.36.36,0,0,0-.1.31l1.07,6.24A.35.35,0,0,1,232.44,239.3Z" fill="#1b99d6"/>
      </g>
    </g>
  </g>
</svg>
