<svg xmlns="http://www.w3.org/2000/svg" xmlns:xlink="http://www.w3.org/1999/xlink" width="206" height="206" viewBox="0 0 206 206">
  <defs>
    <linearGradient id="linear-gradient" x1="51.82" y1="147.73" x2="146.48" y2="65.51" gradientTransform="matrix(1, 0, 0, -1, 0, 208)" gradientUnits="userSpaceOnUse">
      <stop offset="0" stop-color="#ffd041"/>
      <stop offset="1" stop-color="#ffc001"/>
    </linearGradient>
    <linearGradient id="linear-gradient-2" x1="66.45" y1="152.15" x2="114.86" y2="113.21" gradientTransform="matrix(1, 0, 0, -1, 0, 208)" gradientUnits="userSpaceOnUse">
      <stop offset="0" stop-color="#fefefe"/>
      <stop offset="1" stop-color="#f1f4f7"/>
    </linearGradient>
    <linearGradient id="linear-gradient-3" x1="109.3" y1="118.26" x2="149.63" y2="70.59" gradientTransform="matrix(1, 0, 0, -1, 0, 208)" gradientUnits="userSpaceOnUse">
      <stop offset="0" stop-color="#e2f3fd"/>
      <stop offset="1" stop-color="#c5e7fb"/>
    </linearGradient>
    <linearGradient id="linear-gradient-4" x1="112.14" y1="75.76" x2="123.13" y2="75.7" gradientTransform="matrix(1, 0, 0, -1, 0, 208)" gradientUnits="userSpaceOnUse">
      <stop offset="0" stop-color="#f5a557"/>
      <stop offset="1" stop-color="#ec923a"/>
    </linearGradient>
    <linearGradient id="linear-gradient-5" x1="111.44" y1="77.55" x2="135.12" y2="69.88" gradientTransform="matrix(1, 0, 0, -1, 0, 208)" gradientUnits="userSpaceOnUse">
      <stop offset="0" stop-color="#129eee"/>
      <stop offset="1" stop-color="#0e76b2"/>
    </linearGradient>
    <linearGradient id="linear-gradient-6" x1="122.38" y1="79.44" x2="137.26" y2="76.37" gradientTransform="matrix(1, 0, 0, -1, 0, 208)" gradientUnits="userSpaceOnUse">
      <stop offset="0" stop-color="#fff"/>
      <stop offset="1" stop-color="#dde4eb"/>
    </linearGradient>
    <radialGradient id="radial-gradient" cx="125.45" cy="97.73" r="68.89" gradientTransform="matrix(1, 0, 0, -1, 0, 208)" gradientUnits="userSpaceOnUse">
      <stop offset="0" stop-color="#f5b673"/>
      <stop offset="1" stop-color="#f5a557"/>
    </radialGradient>
  </defs>
  <title>Asset 10</title>
  <g id="Layer_2" data-name="Layer 2">
    <g id="tasks_small_copy" data-name="tasks small copy">
      <g>
        <circle cx="103" cy="103" r="103" transform="translate(-42.66 103) rotate(-45)" fill="#fbb756"/>
        <circle cx="103" cy="103" r="89.11" fill="#f9e98c"/>
        <path id="curve6" d="M51.07,63.62H154.93a2.13,2.13,0,0,1,2.16,2.16v77.89a2.13,2.13,0,0,1-2.16,2.16H51.07a2.13,2.13,0,0,1-2.16-2.16V65.78A2.13,2.13,0,0,1,51.07,63.62Z" fill="url(#linear-gradient)"/>
        <path id="curve5" d="M53.24,72.27h99.52v13H53.24Zm0,17.31H96.51v8.65H53.24Z" fill="url(#linear-gradient-2)"/>
        <path id="curve4" d="M109.49,89.58h43.27v51.93H109.49Z" fill="url(#linear-gradient-3)"/>
        <path id="curve3" d="M124.64,128.12a25.82,25.82,0,0,1-3.11,2.3c-2.84,1.49-8,4.05-9.33,11.09h37.86c-1.35-7-6.49-9.6-9.33-11.09a25.82,25.82,0,0,1-3.11-2.3v-5h-13v5Z" fill="url(#linear-gradient-4)"/>
        <path id="curve2" d="M124.64,128.12a25.82,25.82,0,0,1-3.11,2.3c-2.84,1.49-8,4.05-9.33,11.09h37.86c-1.35-7-6.49-9.6-9.33-11.09a25.82,25.82,0,0,1-3.11-2.3c-.27,1.62-3.38,3.11-6.49,3.11S124.91,129.74,124.64,128.12Z" fill="url(#linear-gradient-5)"/>
        <path id="curve1" d="M131.13,133.66a12.83,12.83,0,0,1-5.55-1.21,5.59,5.59,0,0,1-3.11-2.71,10.91,10.91,0,0,0,2.17-1.62c.27,1.62,3.38,3.11,6.49,3.11s6.22-1.49,6.49-3.11a10.87,10.87,0,0,0,2.16,1.62,5.56,5.56,0,0,1-3.11,2.71A12.78,12.78,0,0,1,131.13,133.66Z" fill="url(#linear-gradient-6)"/>
        <path id="curve0" d="M131.13,97.29c10.14,0,13.52,6.76,13.52,13.39,0,8.51-6.76,16.9-13.52,16.9s-13.53-8.39-13.53-16.9C117.6,104.05,121,97.29,131.13,97.29Z" fill="url(#radial-gradient)"/>
        <g>
          <path d="M94.55,112.43c-.08-.16-.15-.32-.24-.47a17.14,17.14,0,0,0-8-7.47,17,17,0,0,0-11.12-1,17.11,17.11,0,0,0-11.54,9.91,17.52,17.52,0,0,0-1,3.3,17.23,17.23,0,0,0,0,6.61,17.4,17.4,0,0,0,1,3.31,17.11,17.11,0,0,0,11.54,9.91,16.94,16.94,0,0,0,8.33,0,15.91,15.91,0,0,0,2.79-1,17,17,0,0,0,8.28-23.15Z" fill="#59a31d"/>
          <polyline points="70.42 121.62 74.95 126.15 86.67 114.43" fill="none" stroke="#fff" stroke-linecap="round" stroke-linejoin="round" stroke-width="5"/>
        </g>
      </g>
    </g>
  </g>
</svg>
