<svg xmlns="http://www.w3.org/2000/svg" viewBox="0 0 160.43 178.19">
  <title>generic-features-page-debit-card-no-bglogo-icon</title>
  <g id="Layer_2" data-name="Layer 2">
    <g id="Direct_Debit_v1" data-name="Direct Debit v1">
      <g>
        <rect y="0.01" width="120.23" height="178.18" rx="21.08" ry="21.08" fill="#535e6f"/>
        <path d="M120.24,21.08v136a21.07,21.07,0,0,1-21.1,21.08H24.26L95.86,0h3.28A21.09,21.09,0,0,1,120.24,21.08Z" fill="#444d5b"/>
        <rect x="8.24" y="20.96" width="103.75" height="124.38" fill="#fff"/>
        <path d="M77,8.32H53.28a2.68,2.68,0,0,0,0,5.36H77a2.68,2.68,0,0,0,0-5.36Z" fill="#444d5b"/>
        <path d="M45.11,8.32H43.19a2.68,2.68,0,0,0,0,5.36h1.92a2.68,2.68,0,0,0,0-5.36Z" fill="#444d5b"/>
        <path d="M67.68,161.1a9.89,9.89,0,1,1-9.89-9.89A9.89,9.89,0,0,1,67.68,161.1Z" fill="#e5e8ec"/>
        <path d="M64.49,161.1a6.7,6.7,0,1,1-6.7-6.7A6.7,6.7,0,0,1,64.49,161.1Z" fill="#444d5b"/>
        <path d="M151.68,27.86H8.24V136.09H151.68a8.76,8.76,0,0,0,8.75-8.76V36.62A8.76,8.76,0,0,0,151.68,27.86Z" fill="#3c9c46"/>
        <path d="M15.5,118.42v-1.48h1.82v1.48h1v1.63h-1v2H15.5v-2H12.09v-1.44l3-5h2.06l-2.87,4.82Z" fill="#fff"/>
        <path d="M24.92,113.59v1.64H21.57v1.42a3.39,3.39,0,0,1,3,.63,2.44,2.44,0,0,1,.89,2,2.67,2.67,0,0,1-.91,2.08,3.24,3.24,0,0,1-2.26.82,3.72,3.72,0,0,1-2.88-1.27l1-1.38.29.26a3.47,3.47,0,0,0,.66.42,2.11,2.11,0,0,0,1,.26,1.39,1.39,0,0,0,.86-.29,1,1,0,0,0,.37-.86,1,1,0,0,0-.41-.88,1.66,1.66,0,0,0-1.05-.31,3.35,3.35,0,0,0-1.49.46l-.79-.84V113.6Z" fill="#fff"/>
        <path d="M36.18,113.58h3.43v8.48H37.81v-6.86H36.18Z" fill="#fff"/>
        <path d="M45,116.87a1.54,1.54,0,0,0,.32-.88,1,1,0,0,0-1-1c-.53,0-1,.38-1.51,1.14l-1.52-.89a4.79,4.79,0,0,1,1.3-1.4,3.27,3.27,0,0,1,1.81-.48,2.94,2.94,0,0,1,1.93.7,2.36,2.36,0,0,1,.83,1.9,2.57,2.57,0,0,1-.33,1.25,8.26,8.26,0,0,1-1.23,1.54L44,120.35h3.34V122h-6v-1.41l2.48-2.55A10,10,0,0,0,45,116.87Z" fill="#fff"/>
        <path d="M51.88,118.37v-1.48H53.7v1.48h1V120h-1v2H51.88v-2H48.47v-1.44l3-5h2.06l-2.87,4.81Z" fill="#fff"/>
        <path d="M61.3,113.55v1.63H58v1.42a2.85,2.85,0,0,1,.86-.11,3.19,3.19,0,0,1,2.11.73,2.45,2.45,0,0,1,.89,2,2.65,2.65,0,0,1-.91,2.07,3.24,3.24,0,0,1-2.26.82,3.69,3.69,0,0,1-2.88-1.27l1-1.38.29.27a4.2,4.2,0,0,0,.66.41,2,2,0,0,0,1,.26,1.34,1.34,0,0,0,.86-.29,1,1,0,0,0,.37-.86,1.05,1.05,0,0,0-.41-.88,1.72,1.72,0,0,0-1-.31,3.25,3.25,0,0,0-1.49.47l-.79-.85v-4.14Z" fill="#fff"/>
        <path d="M76.48,115a1.5,1.5,0,0,0-1.22.53,2.68,2.68,0,0,0-.52,1.44,3,3,0,0,1,1.67-.52,2.7,2.7,0,0,1,2.78,2.84,2.65,2.65,0,0,1-.85,2.07,3.07,3.07,0,0,1-2.15.78,3.32,3.32,0,0,1-1.56-.34,2.58,2.58,0,0,1-1-1,5.78,5.78,0,0,1-.73-3,6.69,6.69,0,0,1,.28-2.05,3.52,3.52,0,0,1,.78-1.38,3.2,3.2,0,0,1,2.4-1,3.58,3.58,0,0,1,1.14.18,3.75,3.75,0,0,1,.83.35c.19.13.41.28.64.46l-.89,1.34-.22-.19a2.46,2.46,0,0,0-.55-.32A1.84,1.84,0,0,0,76.48,115ZM76.24,118a1.47,1.47,0,0,0-.95.34,1.11,1.11,0,0,0-.38.87,1.25,1.25,0,0,0,.37.91,1.17,1.17,0,0,0,.91.38,1.25,1.25,0,0,0,.9-.34,1.12,1.12,0,0,0,.37-.88,1.32,1.32,0,0,0-.33-.91A1.16,1.16,0,0,0,76.24,118Z" fill="#fff"/>
        <path d="M86,113.52v1.63H82.62v1.42a2.85,2.85,0,0,1,.86-.11,3.14,3.14,0,0,1,2.11.73,2.47,2.47,0,0,1,.89,2,2.67,2.67,0,0,1-.91,2.07,3.27,3.27,0,0,1-2.27.82,3.72,3.72,0,0,1-2.87-1.27l1-1.38.29.27a5,5,0,0,0,.67.41,2,2,0,0,0,1,.26,1.39,1.39,0,0,0,.86-.29,1,1,0,0,0,.38-.86,1.05,1.05,0,0,0-.41-.88,1.66,1.66,0,0,0-1.05-.31,3.19,3.19,0,0,0-1.49.47l-.79-.85v-4.14Z" fill="#fff"/>
        <path d="M87.43,113.51h3.43V122H89.05v-6.87H87.43Z" fill="#fff"/>
        <path d="M93.73,114a3.24,3.24,0,0,1,2.1-.67,3.29,3.29,0,0,1,2.1.66,2,2,0,0,1,.84,1.65A2.23,2.23,0,0,1,98,117.3a2.54,2.54,0,0,1,1.06,2.13,2.38,2.38,0,0,1-.9,1.88,3.45,3.45,0,0,1-2.34.77,3.54,3.54,0,0,1-2.34-.76,2.38,2.38,0,0,1-.9-1.88,2.56,2.56,0,0,1,1.06-2.14,2.24,2.24,0,0,1-.77-1.68A2,2,0,0,1,93.73,114Zm1.19,6.24a1.63,1.63,0,0,0,1.84,0,.92.92,0,0,0,.43-.83.94.94,0,0,0-.42-.83,1.64,1.64,0,0,0-1.86,0,1,1,0,0,0-.42.84A1,1,0,0,0,94.92,120.22Zm.11-3.71a1.26,1.26,0,0,0,1.61,0,.92.92,0,0,0,0-1.44,1.29,1.29,0,0,0-1.63,0,.92.92,0,0,0-.34.72A.9.9,0,0,0,95,116.51Z" fill="#fff"/>
        <path d="M112.86,114.91a1.5,1.5,0,0,0-1.22.53,2.68,2.68,0,0,0-.52,1.44,3,3,0,0,1,1.67-.51,2.71,2.71,0,0,1,2,.77,2.77,2.77,0,0,1,.8,2.07,2.66,2.66,0,0,1-.85,2.07,3.17,3.17,0,0,1-2.15.78,3.32,3.32,0,0,1-1.56-.35,2.58,2.58,0,0,1-1-1,5.76,5.76,0,0,1-.73-3,6.62,6.62,0,0,1,.28-2,3.49,3.49,0,0,1,.78-1.39,3.19,3.19,0,0,1,2.4-1,3.58,3.58,0,0,1,1.14.17,4,4,0,0,1,.83.36,6.16,6.16,0,0,1,.64.46l-.89,1.33-.22-.19a2.46,2.46,0,0,0-.55-.32A2,2,0,0,0,112.86,114.91Zm-.24,3.06a1.41,1.41,0,0,0-1,.33,1.14,1.14,0,0,0-.38.87,1.27,1.27,0,0,0,.37.92,1.21,1.21,0,0,0,.91.38,1.29,1.29,0,0,0,.9-.34,1.13,1.13,0,0,0,.37-.88,1.31,1.31,0,0,0-.33-.91A1.13,1.13,0,0,0,112.62,118Z" fill="#fff"/>
        <path d="M122.34,113.47v1.64H119v1.42a3.21,3.21,0,0,1,.86-.11,3.14,3.14,0,0,1,2.11.74,2.45,2.45,0,0,1,.89,2,2.64,2.64,0,0,1-.91,2.07,3.31,3.31,0,0,1-2.26.83,3.75,3.75,0,0,1-2.88-1.27l1-1.39c.07.08.17.16.29.27a6.06,6.06,0,0,0,.67.42,2.08,2.08,0,0,0,1,.26,1.34,1.34,0,0,0,.86-.3,1,1,0,0,0,.38-.86,1.05,1.05,0,0,0-.41-.88,1.72,1.72,0,0,0-1-.3,3.16,3.16,0,0,0-1.49.46l-.79-.85v-4.13Z" fill="#fff"/>
        <path d="M127.28,118.28V116.8h1.82v1.47h1v1.64h-.95v2h-1.82v-2h-3.41v-1.44l3-5H129l-2.87,4.82Z" fill="#fff"/>
        <path d="M78.46,49.34a3.39,3.39,0,0,1,1.31-.06c.15.44.93.82,1.38.91-.06.91,3.75,2.13,4.66,1.9.45-.11.53-.42,1.06-.52a7.49,7.49,0,0,1,1.16,0c.81,0,1.65-.06,2.48-.06a1.69,1.69,0,0,0,.31-.7c-.88-.37-2.58.19-2.91-1.25.29-.35,0-.67.18-1.07s.36-.3.52-.55a2.23,2.23,0,0,1,1.44-1.24A7.59,7.59,0,0,0,91.84,46c.48-.31.74-.78,1.4-.63a.69.69,0,0,0,.8.28c-.28.48-.82,0-1.17.22s-.05.68-.26.88c-.49.44-1.29,0-1.51.86-.92.06-.87-.17-1.15.6a1.1,1.1,0,0,0,.24,1.4c.39.35,1,.29,1.4.51s.85.71,1.56.63c.06.4.12.46.46.52.12-.3-.07-1.57.17-1.8s.65.1.89,0c.42-.24.47-1.15.6-1.58.83-.11.57,1.09.59,1.59.35.05,1.47-.83,1.89-1,.61-.28.84-.55,1.41-.78a12.07,12.07,0,0,1,2.19-.17,4.64,4.64,0,0,0,3-1.82c.51.14,1.38.74,1.43-.3,1.08,0,1.91-.27,2.73.42s.62.5,1.59.56c.57,0,1-.17,1.05.68.26,0,.46.2.72.22.15,1.59.14,1,1.45,1.31.36.09.62.1.87.45a1.73,1.73,0,0,0,.21-1c1.33-.5,2.2,1.62,3.09,2a8.11,8.11,0,0,0,3.38-.31c0-.12,0-.3,0-.44a5.92,5.92,0,0,1,3.2.33c.28.08.76,0,1,.15s.1.3.17.34c.41.25.41.52,1.12.49.44,0,.71-.38,1.18-.34s1,.68,1.57.84,1.35.1,1.87.19,1.16.56,1.4-.24a5.55,5.55,0,0,1,2.61.58c.25.1.49.32.84.45s.8.17,1.18.31a5.05,5.05,0,0,1,1.69.92c.39.41.32.94.68,1.38-1.12.09-1.39,1-2.57.83-.65-.07-1.32-.15-1.35-1-1.06-.07-.22,1.25-.56,1.71s-1.34,0-1.87.18-.44.59-1,.76-1.27-.23-1.6,0-.46,1.22-.61,1.61a9.45,9.45,0,0,1-1,1.83c-.48.68-1.24,2.33-2.15,2.36-.14-.64-.74-1.23-.69-1.87a11.13,11.13,0,0,1,.47-1.45c.3-.7.6-.48,1.06-1a2.83,2.83,0,0,0,.4-.85c.2-.44.75-.53.24-1.06a1.38,1.38,0,0,0-1.4,0c-.72.65-.16,1.67-1.61,1.37s-3-1-4.32.41c-.34.36-.34.79-.75,1.11s-1,.1-.79.72a14.19,14.19,0,0,0,1.51,1.35.64.64,0,0,1,.79-.22c.66.33.16,1,.11,1.36a13.65,13.65,0,0,0,.09,2.13c0,.16.16.33.09.54s-.39.35-.4.38c-.1.55-.34.43.47.5,1,.07,1.49-.82,2.39-1,.2,1-.64,1.41-1.4,1.71-.22.08-1,.15-1.1.24-.68.45-.86,2-1.08,2.8a3.33,3.33,0,0,1-.59,1.33c-.44.4-1.14.21-1.64.52-.73.45-1,1.17-2,1.31-.41-1.16.47-1.14,1.17-1.6.91-.59.53-1.58,1.89-1.47.35-1.31,1.1-2.24,1.11-3.56,0-.7,0-1.44,0-2.15a5.32,5.32,0,0,0,.16-1.75,32.81,32.81,0,0,0-1.75,2.9c-.3.55-.33,1.17-.87,1.52s-.92.14-1.28.41-.61,1-1.25,1.18c0,.57,1,3.33-.74,2.68,0-1.09.08-2.22-1.38-2.13.17-.85-.7-.69-1.28-.68-.3,1.34.25.79,1,1.43-.54.67-.08,1.52,0,2.26a5.67,5.67,0,0,1-.17,2.36,5.38,5.38,0,0,1-3.75,2.91c-.81.14-1.33.11-1.55,1.07a7.79,7.79,0,0,0,.32,3.07c.19,1.17.15,1.77-1.16,1.57-.8-.13-.8-.47-1.43-.75-.83,1.76,1.12,3,1,4.61-.91.21-1.23-1.33-1.61-2-.61-1.05-.41-2.2-.68-3.35-.1-.43,0-1.23-.35-1.49s-.57.09-.77,0c-.39-.28-.18-.63-.26-1.08s-.29-1.47-.88-1.68-1.49.73-2,1.09A5,5,0,0,0,97.79,82c-.05.55.48,1.33,0,1.82s-1.65,0-1.91-.56.22-1.85.14-2.55a5.46,5.46,0,0,0-1-2.32c-.33-.37-.83-.51-1.16-1s0-.88-1-1.24-2.31-.26-3.41-.69c-.23-.09-.29-.43-.52-.52s-.61,0-.92-.14c-.71-.38-1.14-1.25-2-1.55.18.73.33,2.11,1,2.61s1.78.33,2.48.32a7,7,0,0,1,.4,1.45c.08.66.33.14-.22.71A21.3,21.3,0,0,1,87.25,80c-.78.59-2.28,2.31-3.08,1-.2-.35,0-.65-.12-1a2.87,2.87,0,0,0-.47-1.11,20.08,20.08,0,0,1-1.16-2.32c-.25-.6-.8-2.13-1.55-1.86-.08.47.35,1.07.4,1.58s0,.82.07,1.24c.18.78.63.67,1,1.24a9.16,9.16,0,0,1,.24,1.7,2.92,2.92,0,0,0,.52,1.37,10.68,10.68,0,0,0,.66,1.06,3.66,3.66,0,0,0,2.92,0c.6,1.53-.94,1.68-1.51,2.79-.27.53-.23,1.27-.57,1.76s-.64.51-.9.91-.15.6-.28.85-.55.53-.7.83a6.93,6.93,0,0,0-.13,2.58c0,1.07.18,2.9-.66,3.67-.26.22-.64,0-.88.3s-.09.65-.12.95c-.06.65-.11,1.29-.21,1.93-1.15.29-.72,1.59-1.11,2.4a3.4,3.4,0,0,1-1.69,1.53c-.82.39-1.94.82-2.72.27s-.79-1.31-1.07-2a35.15,35.15,0,0,1-1.76-4.74,16.36,16.36,0,0,1,.07-4.84,13.92,13.92,0,0,0,.12-2.42c-.11-.88-.8-1.45-.94-2.33-.06-.37,0-.77,0-1.15-.09-.79,0-.56-.66-.79a9.59,9.59,0,0,0-2.41-.3c-1.65-.11-4.43.55-5.44-1a11.34,11.34,0,0,1-.89-2.73c-.5-1.43-.88-1.95-.34-3.5.45-1.28.59-2.6,1.17-3.86a5.15,5.15,0,0,1,1.1-1.54c.4-.41.7-.87,1.09-1.34.81-1,2-.27,3.2-.79a7.67,7.67,0,0,1,4-.78c.25.76-.15,1.26-.18,2s-.31.26.36.75a6.65,6.65,0,0,0,1.14.54c.85.39,2.83,1,2.75-.66,1.47-.12,2.72.9,4.22.67a1.3,1.3,0,0,0,.19-2.56c-.7-.15-1.26,0-1.89-.47s-.53-1.1-1-1.79c-.31-.48-.8-1-1.24-.28-.3.49.38,1.61.34,2.22-1.67.79-1.3-1.62-1.65-2.36-.27-.56-1-.75-1.41-1.15s-.52-1.25-1-1.4c-.48,1.65,1.78,1.81,1.41,3.18a4.27,4.27,0,0,1-1.08,1.51c-1.12.2-.19-1-.18-1.25a3.7,3.7,0,0,0-1.84-2.32c-.74-.17-1,.34-1.42.78-.62.64-1,.58-1.69,1-1,.6-1.72,2.11-3.23,1.14a1.65,1.65,0,0,1-.71-1.54c.08-1.17,1-.83,2.09-1.12.84-.22,1.49-.36,1.19-1.49-.22-.84-1.19-1.14-.36-1.94.28-.28.83-.21,1.12-.42s.31-.32.6-.64.27-.48.49-.63.64-.08.92-.22c1.34-.66.46-1.55.94-2.53.3-.62.88-.27,1.2.41s-.18.89.54,1.41a2.73,2.73,0,0,0,1.24.3c.7-.06,1.87-.8,1.87-1.55,0-1.19.33-.9,1-.23.2-.45-.2-1,.19-1.38s1.21,0,1.68-.12.85-.48.3-.9-1.08.1-1.62.18c-.9.15-.88-.21-1-.93a1.52,1.52,0,0,1,.36-1.39c.22-.35.87-1,.45-1.53s-1.33,0-1.65.41a6.33,6.33,0,0,0-1,3.67c0,.83-.56,3.21-1.86,1.9-.55-.56,0-1.23-1-1.33-.62-.06-1.08.6-1.78.29-1.29-.56-.08-2.56.71-3.17.58-.45,1.34-.6,1.91-1.09a3.54,3.54,0,0,0,.93-1c.1-.3-.16-.73-.07-1,.32-.85,1.94-.95,2.69-1.12a2,2,0,0,0,1.17-.63C77.94,49.45,77.81,49.22,78.46,49.34Z" fill="#1c8040"/>
        <path d="M103.23,85.43c1.16,0,1.75,1.69,2.5,2.33a10.27,10.27,0,0,1,1.34,1.09c.39.48.29,1,1,1.26.08-.23,0-.58.09-.81s.36-.57.47-.88a2,2,0,0,1,1.1-1.44A6.7,6.7,0,0,0,112,83.8c.59-1.25-.1-3,.86-4.16.69-.83,1.17.1,1.32,1,.06.36,0,.72.07,1.06s.49.8.52,1.21-.2.61-.19.91.4.67.25,1c-.38.86-1.49,0-1.43-.73-.21.33-.84.81-.95,1s.07.55,0,.76-.74.64-.82.91c-.45,1.61,2.07.49,2.53.3.22-.09.54,0,.74-.12s-.14-.58.62-.43.6,1,1,1.47,1.31.45,1.92.64c.8.23.86.89,1.44,1.17.77.38,1.79-.37,2.58-.23s1,1,1.63,1a1.71,1.71,0,0,0,0-1.24c1.38-.46,1.86.84.94,1.75-.31.31-1.35.59-1.44,1.13s1,.66.73,1.53c-1.09.14-1.33-.06-1.84-.79-.15-.22-.13-.62-.48-.72-.54-.15-.42.28-.75.42s-1.39.43-1.79,0,0-1.22-.49-1.72a6.8,6.8,0,0,0-1.71-1c-.23-.1-.47,0-.72-.11s-.24-.47-.46-.61a1.65,1.65,0,0,0-1.77-.12c-.65.53,0,1.14,0,1.85a.92.92,0,0,1,.24,1.68c-.79.45-1.21-.48-1.76-.55-.74-.08-1.3.46-2.2.23a12.31,12.31,0,0,1-2.11-1,12.84,12.84,0,0,1-1.76-.62,7.6,7.6,0,0,1-1.58-1.52,9.89,9.89,0,0,1-1-1.55A11.3,11.3,0,0,1,103.23,85.43Z" fill="#1c8040"/>
        <path d="M109.83,100.09a2.57,2.57,0,0,1,.5-1.66c.51-.83.57-.71,1.52-.78,1.23-.1.79-.58,1.51-1.44.41-.5.9-.42,1.37-.82s.62-1.14,1-1.57.15-.44.77-.42a2.3,2.3,0,0,1,1.11.48c1.06,1,.52,2.3,2.34,2.45,0-1-.09-2.71,1.52-2.18.78.26,1.1,1.31,1.3,2.06a10.62,10.62,0,0,0,.73,2c1,2.14,1.57,4.22.62,6.4a8,8,0,0,0-.69,2.55c0,.56.12,1.18-.22,1.66-.55.79-1.23.16-1.81-.35s-.58-1.08-.87-1.78c-.47-1.12-2.12-1.65-3-2.44a3.52,3.52,0,0,0-3.67-.59c-1.07.33-3.16,1.74-3.6.3C109.92,103,110.9,101,109.83,100.09Z" fill="#1c8040"/>
        <path d="M48.14,84.43a5.89,5.89,0,0,1,.94,2.91c1.79-.06,3.12.86,4.59,1.67.7.38,1.23.52,1.28,1.5s-.75.95-1.26,1.69-.27,1.73-.66,2.47a6.43,6.43,0,0,0-.62,1.08c-.17.59,0,.91-.32,1.47a3.12,3.12,0,0,1-.64.76c-.11.12-.31.09-.41.22s-.14.58-.31.8c-.29.37-.56.33-.9.68a3.64,3.64,0,0,0-.48,1.1c-.48,1.1-2.27,3.94-3.7,2.43-.31,1.17.2,2.81-1.67,2.63,0,1.39-1.09,1.84-1.47,3-.19.59.05,1,.07,1.55.05,1.14-.76,1-1.12,1.85-.22.49.35,4.46-1.07,2.15a7,7,0,0,1-1.07-4.91c.1-.77.53-1.39.65-2.12a23.5,23.5,0,0,0,.13-2.52,50.8,50.8,0,0,1,1-5.32,8.67,8.67,0,0,0,.25-2.73,2.79,2.79,0,0,0-1.13-2.2c-1.1-1-1.07-2.5-1.76-3.72-.38-.68-1.14-1.23-1.22-2.06-.06-.58.17-.74.4-1.26a12,12,0,0,0,.35-1.5,7.12,7.12,0,0,1,1.16-2.26c.28-.35.88-.74,1.07-1.14s0-1,0-1.33a9.5,9.5,0,0,1,5.44,1.3,2.64,2.64,0,0,1,.74.46c.14.15,0,.51.13.61A4.09,4.09,0,0,0,48.14,84.43Z" fill="#1c8040"/>
        <path d="M49.18,40.2a11.61,11.61,0,0,0,1.67-.1,5.59,5.59,0,0,0,1.62-.63c1-.34,2.29-.07,3.32-.23a4.87,4.87,0,0,1,3.38.37c.66.28,2.94,1.57,1.26,2,1.26.1,2.14-.43,3.38-.37.16,1.05-1.49,2-1.75,3s.45,2.1-.65,2.78c-.69.42-.76.2-.95.94s0,1.06-.53,1.66a4.22,4.22,0,0,1-1.52,1.06c-.66.22-1.4-.09-2,.15s-.64.77-1,1.4c-.49.87-1.45.85-2.38.86-.09,1.85-1.33,5-3.48,2.51a5.62,5.62,0,0,1-.85-3,4.23,4.23,0,0,1,0-1.18c.13-.52.55-.74.65-1.3-.57-.23-1.15.14-1.69,0-.09-1.28.79-.55,1-1.35-1.47-.22-.6-1.08-.92-2.08S46,45.46,45.11,45.27s-1.68.09-2.44-.11-2.11-1.47-.56-1.42c-.14-.1-.23-.29-.36-.4.48-.27,2.87,0,1.84-1.27a23.51,23.51,0,0,1,3.78-1.23C48.28,40.61,49.32,40.58,49.18,40.2Z" fill="#1c8040"/>
        <path d="M43.7,61.93A12.21,12.21,0,0,0,47,61.17a3.39,3.39,0,0,0-.17-1.39c-.31-.45-1-.51-1.38-.82s-.31-.28-.52-.65-.33-1.58-1-1.67-.59,1-1.53.68c-.22-.76-1-.86-1.29-1.44-.67-1.11.56-.94,1.24-.93s1,.15,1.28-.43,0-.61.43-1c.19-.15.45,0,.64-.19a2.36,2.36,0,0,0,.57-1.9c-.42-.8-1.4-.08-2-.4s-.58-1.12-.86-1.6c-.47-.77-.88-.74-1.64-.9-1.7-.36-2-1.5-1.93-3.17.88,0,1-1.38,1.34-2a4.12,4.12,0,0,1,2.2-1.62c1-.46,3.8-2.2,1.19-2.39a28.85,28.85,0,0,0-4.69.56c-1.49.14-2.95.8-4.44.82-.29,0-1.33-.19-1.55,0-.41.32,0,.31.08.54-.06-.23.38.5.35.45a3.42,3.42,0,0,1,.25,1.06c.31,1.85-3.89-.55-4.31-.64-1.25-.27-.84.72-1.92,1-.5.13-.89-.06-1.37.23-.23.13-.14.47-.4.61-.91.47-2.37-.42-3.31.44s.67,1,1.32,1.16,2,.75,1,1.2c-.67.3-2.15-.48-2.94-.35a1.36,1.36,0,0,0,.86,1.67,13.84,13.84,0,0,0,2.4.72,1.77,1.77,0,0,0-1,.15,7.24,7.24,0,0,0,2.52,1.48c1,.24,1.68-.85,2.58-.25-.19.34-.08.89-.38,1.13s-2.19-.19-2.54-.32c-1.4-.52-2.44-1.87-4-2.2a2.1,2.1,0,0,0-1.55.25,8,8,0,0,1-3.31.65,15.12,15.12,0,0,1-4.74-1,4,4,0,0,0-3,0A10.87,10.87,0,0,1,8.24,49v7.7a1.56,1.56,0,0,1,.17.25c-.06.07-.11.15-.17.23v1l.49-.33c.92-.62,1.44-1.59,2.3-2.22,1.71-1.24,4.9.81,6.44,1.6,1.71.88,1.28,1.55,2,3.1.59,1.2,2.2.91,2.26,2.32s-.49,2.74-.5,4.12c0,1.62,1.07,2.24,2,3.52.64.92,1.16,1.87,1.76,2.78.42.63.45,3.06,1.67,2.6,0-1.58-1.52-2.77-1.47-4.32,1,.13,1,1.69,1.49,2.39A5.64,5.64,0,0,1,28,76.55c.26,2,3.05,2.35,4.49,3.07A8.52,8.52,0,0,1,35,81.08a15.25,15.25,0,0,0,1.28,1.51c.79.71,2.9,1.9,2.22,0A7.52,7.52,0,0,0,36.32,80c-.89-.82-.59-.78-.54-1.8,0-.74-.13-1.12-.88-.85-.91.34-.8,1.2-2,1a1.85,1.85,0,0,1-1.57-1.18,4.41,4.41,0,0,1,.91-3.76,6.68,6.68,0,0,1,3.2-.74,2,2,0,0,1,1.67,1.58c.18.51,0,1.07.87.9.09-.64-.31-1.19-.23-1.77a11.16,11.16,0,0,1,.85-1.74A27.76,27.76,0,0,1,40,68.28c.51-.86.59-.46,1.34-.86s.55-1.18,1.08-1.49c.81-.48,3.19.53,2.73-1.55a9.74,9.74,0,0,1-1.19-.17c-.09-.7.39-1.19-.47-1.3A1.84,1.84,0,0,0,41.81,64C41.57,63.05,43,62.09,43.7,61.93Z" fill="#1c8040"/>
        <circle cx="134.32" cy="89.09" r="11.36" fill="#ef4c45"/>
        <path d="M127.83,89.09a11.36,11.36,0,1,1-11.36-11.36A11.36,11.36,0,0,1,127.83,89.09Z" fill="#ffcc04"/>
        <path d="M13.89,48.69a3.48,3.48,0,0,0-2-1.1l.47-.22a3,3,0,0,0,.47-.33,2.68,2.68,0,0,0,1-2.3,3.39,3.39,0,0,0-.89-2.3,3.18,3.18,0,0,0-1.46-.87,7.24,7.24,0,0,0-2.31-.32h-1v2.49h.2a4.31,4.31,0,0,1,1.85.28,1.18,1.18,0,0,1,.55,1.16,1.11,1.11,0,0,1-.59,1.14,4.67,4.67,0,0,1-1.82.27H8.24v2.32h.53a5.86,5.86,0,0,1,2.14.29,1.2,1.2,0,0,1,.67,1.21A1.24,1.24,0,0,1,11,51.64a4.48,4.48,0,0,1-1.9.31H8.24v2.49H9.86q2.72,0,3.81-1.23a3.53,3.53,0,0,0,.95-2.43A3.11,3.11,0,0,0,13.89,48.69Z" fill="#fff"/>
        <path d="M26.34,54.44l-1.23-2.85H19.58l-1.23,2.85H15.22l5.7-13.19h2.85l5.7,13.19Zm-4-9.27L20.7,49H24Z" fill="#fff"/>
        <path d="M40.23,41.25h3V54.44h-3L34,46.17v8.27H31V41.25h2.76l6.47,8.49Z" fill="#fff"/>
        <path d="M46.42,41.25h2.95v5.41l5-5.41H58l-5.25,5.83,2.51,3.52q1.83,2.58,2.74,3.84H54.56l-3.87-5.21L49.37,50.7v3.74H46.42Z" fill="#fff"/>
      </g>
    </g>
  </g>
</svg>
