<svg id="attendance_tracking_and_history" data-name="attendance tracking and history" xmlns="http://www.w3.org/2000/svg" width="206" height="206" viewBox="0 0 206 206">
  <title>generic-features-attendance-tracking-and-history-small</title>
  <g>
    <circle cx="103" cy="103" r="103" fill="#00c0f3"/>
    <circle cx="103" cy="103" r="89.11" fill="#9ddcf9"/>
    <path d="M320.05,271.56a29.83,29.83,0,0,0-12.29-24.15V212a5.18,5.18,0,0,0-5.18-5.18H284.25v-8.27a5,5,0,1,0-9.92,0v8.27H237.67v-8.27a5,5,0,1,0-9.92,0v8.27H209.42a5.18,5.18,0,0,0-5.18,5.18V315.52a5.18,5.18,0,0,0,5.18,5.18h93.16a5.18,5.18,0,0,0,5.18-5.18v-19.8A29.85,29.85,0,0,0,320.05,271.56Z" transform="translate(-153 -153)" fill="#009add"/>
    <g>
      <rect x="51.24" y="58.14" width="103.52" height="103.52" rx="6" ry="6" fill="#bcbec0"/>
      <rect x="51.24" y="54.69" width="103.52" height="103.52" rx="6" ry="6" fill="#d1d3d4"/>
      <rect x="51.24" y="51.24" width="103.52" height="103.52" rx="6" ry="6" fill="#e6e7e8"/>
      <rect x="51.24" y="47.79" width="103.52" height="103.52" rx="6" ry="6" fill="#fff"/>
      <g>
        <g>
          <rect x="58.07" y="79.45" width="15.01" height="15.01" rx="4" ry="4" fill="#fede3a"/>
          <path d="M222.63,245.74h-8.11a3.45,3.45,0,0,1-3.45-3.45V244a3.44,3.44,0,0,0,3.45,3.45h8.11a3.45,3.45,0,0,0,3.45-3.45v-1.72A3.46,3.46,0,0,1,222.63,245.74Z" transform="translate(-153 -153)" fill="#f7cb15"/>
          <rect x="83.02" y="79.45" width="15.01" height="15.01" rx="4" ry="4" fill="#fede3a"/>
          <path d="M247.58,245.74h-8.11a3.45,3.45,0,0,1-3.45-3.45V244a3.44,3.44,0,0,0,3.45,3.45h8.11A3.45,3.45,0,0,0,251,244v-1.72A3.46,3.46,0,0,1,247.58,245.74Z" transform="translate(-153 -153)" fill="#f7cb15"/>
          <rect x="107.97" y="79.45" width="15.01" height="15.01" rx="4" ry="4" fill="#e6e7e8"/>
          <rect x="132.92" y="79.45" width="15.01" height="15.01" rx="4" ry="4" fill="#fede3a"/>
        </g>
        <g>
          <rect x="58.07" y="104.4" width="15.01" height="15.01" rx="4" ry="4" fill="#e6e7e8"/>
          <rect x="83.02" y="104.4" width="15.01" height="15.01" rx="4" ry="4" fill="#fede3a"/>
          <path d="M247.58,270.69h-8.11a3.45,3.45,0,0,1-3.45-3.45V269a3.44,3.44,0,0,0,3.45,3.45h8.11A3.45,3.45,0,0,0,251,269v-1.72A3.46,3.46,0,0,1,247.58,270.69Z" transform="translate(-153 -153)" fill="#f7cb15"/>
          <rect x="107.97" y="104.4" width="15.01" height="15.01" rx="4" ry="4" fill="#e6e7e8"/>
          <rect x="132.92" y="104.4" width="15.01" height="15.01" rx="4" ry="4" fill="#e6e7e8"/>
        </g>
        <g>
          <rect x="58.07" y="129.36" width="15.01" height="15.01" rx="4" ry="4" fill="#fede3a"/>
          <path d="M222.63,295.64h-8.11a3.44,3.44,0,0,1-3.45-3.45v1.73a3.45,3.45,0,0,0,3.45,3.45h8.11a3.46,3.46,0,0,0,3.45-3.45v-1.73A3.45,3.45,0,0,1,222.63,295.64Z" transform="translate(-153 -153)" fill="#f7cb15"/>
          <rect x="83.02" y="129.36" width="15.01" height="15.01" rx="4" ry="4" fill="#fede3a"/>
          <path d="M247.58,295.64h-8.11a3.44,3.44,0,0,1-3.45-3.45v1.73a3.45,3.45,0,0,0,3.45,3.45h8.11a3.46,3.46,0,0,0,3.45-3.45v-1.73A3.45,3.45,0,0,1,247.58,295.64Z" transform="translate(-153 -153)" fill="#f7cb15"/>
          <rect x="107.97" y="129.36" width="15.01" height="15.01" rx="4" ry="4" fill="#fede3a"/>
          <path d="M272.53,295.64h-8.11a3.45,3.45,0,0,1-3.45-3.45v1.73a3.46,3.46,0,0,0,3.45,3.45h8.11a3.45,3.45,0,0,0,3.45-3.45v-1.73A3.44,3.44,0,0,1,272.53,295.64Z" transform="translate(-153 -153)" fill="#f7cb15"/>
          <rect x="132.92" y="129.36" width="15.01" height="15.01" rx="4" ry="4" fill="#e6e7e8"/>
        </g>
      </g>
      <g>
        <g>
          <path d="M302.58,200.79H209.42a5.18,5.18,0,0,0-5.18,5.18v19.12H307.76V206A5.18,5.18,0,0,0,302.58,200.79Z" transform="translate(-153 -153)" fill="#1caee4"/>
          <rect x="51.24" y="67.74" width="103.52" height="4.35" fill="#009add"/>
        </g>
        <g>
          <rect x="74.75" y="38.01" width="9.92" height="26.45" rx="4.96" ry="4.96" fill="#009add"/>
          <rect x="121.33" y="38.01" width="9.92" height="26.45" rx="4.96" ry="4.96" fill="#009add"/>
          <rect x="74.75" y="34.56" width="9.92" height="26.45" rx="4.96" ry="4.96" fill="#fede3a"/>
          <path d="M232.71,187.56a5,5,0,0,0-5,5v8.63a5,5,0,1,1,9.92,0v-8.63A5,5,0,0,0,232.71,187.56Z" transform="translate(-153 -153)" fill="#fff335"/>
          <path d="M232.71,209.7a5,5,0,0,1-5-5v4.32a5,5,0,0,0,9.92,0v-4.32A5,5,0,0,1,232.71,209.7Z" transform="translate(-153 -153)" fill="#f7cb15"/>
          <rect x="121.33" y="34.56" width="9.92" height="26.45" rx="4.96" ry="4.96" fill="#fede3a"/>
          <path d="M279.29,187.56a5,5,0,0,0-5,5v8.63a5,5,0,1,1,9.92,0v-8.63A5,5,0,0,0,279.29,187.56Z" transform="translate(-153 -153)" fill="#fff335"/>
          <path d="M279.29,209.7a5,5,0,0,1-5-5v4.32a5,5,0,1,0,9.92,0v-4.32A5,5,0,0,1,279.29,209.7Z" transform="translate(-153 -153)" fill="#f7cb15"/>
        </g>
      </g>
    </g>
    <g>
      <path d="M290.16,239.94a29.89,29.89,0,0,0-27,42.67,3.45,3.45,0,0,1,1.29-.25h8.11a3.44,3.44,0,0,1,3.45,3.45v8.11a3.39,3.39,0,0,1-.58,1.91A29.89,29.89,0,0,0,307.76,294V245.68A29.79,29.79,0,0,0,290.16,239.94Z" transform="translate(-153 -153)" fill="#d1d3d4"/>
      <path d="M272.53,282.36h-8.11a3.45,3.45,0,0,0-1.29.25,30,30,0,0,0,12.27,13.22,3.39,3.39,0,0,0,.58-1.91v-8.11A3.44,3.44,0,0,0,272.53,282.36Z" transform="translate(-153 -153)" fill="#e7ad27"/>
    </g>
    <path d="M290.16,235.63a29.9,29.9,0,1,0,29.89,29.9A29.9,29.9,0,0,0,290.16,235.63Zm0,52.45a22.56,22.56,0,1,1,22.55-22.55A22.56,22.56,0,0,1,290.16,288.08Z" transform="translate(-153 -153)" fill="#00c0f3"/>
    <path d="M290.16,239.44a26.09,26.09,0,1,0,26.08,26.09A26.09,26.09,0,0,0,290.16,239.44Zm0,48.64a22.56,22.56,0,1,1,22.55-22.55A22.56,22.56,0,0,1,290.16,288.08Z" transform="translate(-153 -153)" fill="#9ddcf9"/>
    <circle cx="137.16" cy="112.53" r="22.55" fill="#fff"/>
    <path d="M290.16,268.11a2.57,2.57,0,0,1-1.83-.75l-7.14-7.14a2.59,2.59,0,1,1,3.66-3.66l5.31,5.3,9.8-9.8a2.59,2.59,0,0,1,3.66,3.66L292,267.35A2.57,2.57,0,0,1,290.16,268.11Z" transform="translate(-153 -153)" fill="#00c0f3"/>
    <circle cx="137.16" cy="112.53" r="3.87" fill="#9ddcf9"/>
    <g>
      <rect x="135.43" y="92.48" width="3.45" height="7.62" rx="1.73" ry="1.73" fill="#f7cb15"/>
      <rect x="135.43" y="124.04" width="3.45" height="7.62" rx="1.73" ry="1.73" fill="#f7cb15"/>
    </g>
    <g>
      <rect x="304.21" y="261.26" width="3.45" height="7.62" rx="1.73" ry="1.73" transform="translate(418.01 -193.86) rotate(90)" fill="#f7cb15"/>
      <rect x="272.65" y="261.26" width="3.45" height="7.62" rx="1.73" ry="1.73" transform="translate(386.45 -162.3) rotate(90)" fill="#f7cb15"/>
    </g>
  </g>
</svg>
