<svg id="refunds" xmlns="http://www.w3.org/2000/svg" width="206" height="206" viewBox="0 0 206 206">
  <title>generic-features-refunds</title>
  <circle cx="103" cy="103" r="103" fill="#fbb756"/>
  <circle cx="103" cy="103" r="89.11" fill="#f9e98c"/>
  <g>
    <circle cx="103" cy="103.03" r="33.78" fill="#fbb756"/>
    <path d="M256,291.67A35.65,35.65,0,1,1,291.64,256,35.68,35.68,0,0,1,256,291.67Zm0-67.57A31.93,31.93,0,1,0,287.92,256,32,32,0,0,0,256,224.1Z" transform="translate(-153 -153)" fill="#616363"/>
    <path d="M267.18,263.39c0,4.91-3.45,8.37-9.3,8.84v5.82h-3.22v-5.87a16.81,16.81,0,0,1-9.84-4.72l2.51-3a13.67,13.67,0,0,0,9.28,4c3.55,0,6.18-1.76,6.18-4.79,0-3.45-2.77-4.61-7.21-6-5.27-1.69-10.06-3.34-10.06-9.07,0-4.68,3.27-8.22,9.14-8.51V234h3.22v6.29a19.74,19.74,0,0,1,8.2,3.51l-2.42,3a15,15,0,0,0-8.11-2.84c-3.36,0-5.71,1.57-5.71,4.39,0,3,2.92,4.11,6.94,5.43,5.92,1.88,10.4,3.45,10.4,9.63Z" transform="translate(-153 -153)" fill="#fff"/>
    <path d="M255.36,311.31a54.9,54.9,0,0,1-44.11-21.95l3-2.24A51.57,51.57,0,1,0,203.79,256h-3.71a55.28,55.28,0,1,1,55.28,55.28Z" transform="translate(-153 -153)" fill="#616363"/>
    <polygon points="49.03 105.65 38.79 95.41 41.42 92.78 49.03 100.4 56.45 92.97 59.08 95.6 49.03 105.65" fill="#616363"/>
    <path d="M256,329a73,73,0,1,1,10.05-145.29l-.51,3.68A69.3,69.3,0,1,0,305,207l2.63-2.63A73,73,0,0,1,256,329Z" transform="translate(-153 -153)" fill="#616363"/>
    <polygon points="155.08 69.26 151.36 69.26 151.36 50.95 170.04 50.95 170.04 54.67 155.08 54.66 155.08 69.26" fill="#616363"/>
  </g>
</svg>
