<svg xmlns="http://www.w3.org/2000/svg" width="453.24" height="204.25" viewBox="0 0 453.24 204.25">
  <title>Asset 18</title>
  <g id="Layer_2" data-name="Layer 2">
    <g id="visual_scheduler_icon" data-name="visual scheduler icon">
      <g>
        <g>
          <path d="M1.36,126.56v62.23a14.1,14.1,0,0,0,14.1,14.1H189.09a14.1,14.1,0,0,0,14.11-14.1V60.94H1.36v65.62Z" fill="#fcf6b0"/>
          <path d="M203.2,59.59H1.36A1.35,1.35,0,0,0,0,60.94V188.79a15.48,15.48,0,0,0,15.46,15.46H189.09a15.48,15.48,0,0,0,15.46-15.46V60.94A1.34,1.34,0,0,0,203.2,59.59Zm-1.36,129.2a12.76,12.76,0,0,1-12.75,12.74H15.46A12.75,12.75,0,0,1,2.72,188.79V62.3H201.84Z" fill="#3a312a"/>
          <path d="M107.5,23.08H16.07A14.7,14.7,0,0,0,1.36,37.79V60.94H203.2V37.79a14.71,14.71,0,0,0-14.71-14.71h-81Z" fill="#9ddcf9"/>
          <path d="M188.49,21.72H16.07A16.09,16.09,0,0,0,0,37.79V60.94A1.36,1.36,0,0,0,1.36,62.3H203.2a1.35,1.35,0,0,0,1.35-1.36V37.79A16.08,16.08,0,0,0,188.49,21.72Zm13.35,37.87H2.72V37.79A13.36,13.36,0,0,1,16.07,24.44H188.49a13.37,13.37,0,0,1,13.35,13.35Z" fill="#3a312a"/>
          <rect x="15.71" y="77.23" width="26.85" height="26.85" rx="5.4" ry="5.4" fill="#f16c7a"/>
          <path d="M37.68,105.45H20.6a6.26,6.26,0,0,1-6.24-6.25V82.12a6.25,6.25,0,0,1,6.24-6.24H37.68a6.26,6.26,0,0,1,6.25,6.24V99.2A6.27,6.27,0,0,1,37.68,105.45ZM20.6,78.59a3.54,3.54,0,0,0-3.53,3.53V99.2a3.54,3.54,0,0,0,3.53,3.53H37.68a3.53,3.53,0,0,0,3.53-3.53V82.12a3.54,3.54,0,0,0-3.53-3.53Z" fill="#3a312a"/>
          <rect x="52.28" y="77.23" width="26.85" height="26.85" rx="5.4" ry="5.4" fill="#d7e057"/>
          <path d="M74.25,105.45H57.17a6.27,6.27,0,0,1-6.25-6.25V82.12a6.26,6.26,0,0,1,6.25-6.24H74.25a6.25,6.25,0,0,1,6.24,6.24V99.2A6.26,6.26,0,0,1,74.25,105.45ZM57.17,78.59a3.54,3.54,0,0,0-3.53,3.53V99.2a3.53,3.53,0,0,0,3.53,3.53H74.25a3.54,3.54,0,0,0,3.53-3.53V82.12a3.54,3.54,0,0,0-3.53-3.53Z" fill="#3a312a"/>
          <rect x="88.85" y="77.23" width="26.85" height="26.85" rx="5.4" ry="5.4" fill="#45c7f0"/>
          <path d="M110.81,105.45H93.74a6.26,6.26,0,0,1-6.25-6.25V82.12a6.25,6.25,0,0,1,6.25-6.24h17.07a6.25,6.25,0,0,1,6.25,6.24V99.2A6.26,6.26,0,0,1,110.81,105.45ZM93.74,78.59a3.54,3.54,0,0,0-3.53,3.53V99.2a3.53,3.53,0,0,0,3.53,3.53h17.07a3.54,3.54,0,0,0,3.54-3.53V82.12a3.54,3.54,0,0,0-3.54-3.53Z" fill="#3a312a"/>
          <rect x="125.42" y="77.23" width="26.85" height="26.85" rx="5.4" ry="5.4" fill="#78c9b2"/>
          <path d="M147.38,105.45H130.31a6.26,6.26,0,0,1-6.25-6.25V82.12a6.25,6.25,0,0,1,6.25-6.24h17.07a6.25,6.25,0,0,1,6.25,6.24V99.2A6.26,6.26,0,0,1,147.38,105.45ZM130.31,78.59a3.54,3.54,0,0,0-3.53,3.53V99.2a3.53,3.53,0,0,0,3.53,3.53h17.07a3.53,3.53,0,0,0,3.53-3.53V82.12a3.54,3.54,0,0,0-3.53-3.53Z" fill="#3a312a"/>
          <rect x="161.99" y="77.23" width="26.85" height="26.85" rx="5.4" ry="5.4" fill="#da95c1"/>
          <path d="M184,105.45H166.88a6.26,6.26,0,0,1-6.25-6.25V82.12a6.25,6.25,0,0,1,6.25-6.24H184a6.26,6.26,0,0,1,6.25,6.24V99.2A6.27,6.27,0,0,1,184,105.45ZM166.88,78.59a3.54,3.54,0,0,0-3.54,3.53V99.2a3.54,3.54,0,0,0,3.54,3.53H184a3.53,3.53,0,0,0,3.53-3.53V82.12A3.54,3.54,0,0,0,184,78.59Z" fill="#3a312a"/>
          <rect x="15.71" y="118.57" width="26.85" height="26.85" rx="5.4" ry="5.4" fill="#fbaa32"/>
          <path d="M37.68,146.78H20.6a6.25,6.25,0,0,1-6.24-6.25V123.46a6.25,6.25,0,0,1,6.24-6.25H37.68a6.26,6.26,0,0,1,6.25,6.25v17.07A6.26,6.26,0,0,1,37.68,146.78ZM20.6,119.92a3.54,3.54,0,0,0-3.53,3.54v17.07a3.54,3.54,0,0,0,3.53,3.53H37.68a3.53,3.53,0,0,0,3.53-3.53V123.46a3.54,3.54,0,0,0-3.53-3.54Z" fill="#3a312a"/>
          <rect x="52.28" y="118.57" width="26.85" height="26.85" rx="5.4" ry="5.4" fill="#d4529e"/>
          <path d="M74.25,146.78H57.17a6.26,6.26,0,0,1-6.25-6.25V123.46a6.26,6.26,0,0,1,6.25-6.25H74.25a6.25,6.25,0,0,1,6.24,6.25v17.07A6.25,6.25,0,0,1,74.25,146.78ZM57.17,119.92a3.54,3.54,0,0,0-3.53,3.54v17.07a3.53,3.53,0,0,0,3.53,3.53H74.25a3.54,3.54,0,0,0,3.53-3.53V123.46a3.54,3.54,0,0,0-3.53-3.54Z" fill="#3a312a"/>
          <rect x="88.85" y="118.57" width="26.85" height="26.85" rx="5.4" ry="5.4" fill="#c5e9fb"/>
          <path d="M110.81,146.78H93.74a6.25,6.25,0,0,1-6.25-6.25V123.46a6.25,6.25,0,0,1,6.25-6.25h17.07a6.25,6.25,0,0,1,6.25,6.25v17.07A6.25,6.25,0,0,1,110.81,146.78ZM93.74,119.92a3.54,3.54,0,0,0-3.53,3.54v17.07a3.53,3.53,0,0,0,3.53,3.53h17.07a3.54,3.54,0,0,0,3.54-3.53V123.46a3.55,3.55,0,0,0-3.54-3.54Z" fill="#3a312a"/>
          <rect x="125.42" y="118.57" width="26.85" height="26.85" rx="5.4" ry="5.4" fill="#fefbdb"/>
          <path d="M147.38,146.78H130.31a6.25,6.25,0,0,1-6.25-6.25V123.46a6.25,6.25,0,0,1,6.25-6.25h17.07a6.25,6.25,0,0,1,6.25,6.25v17.07A6.25,6.25,0,0,1,147.38,146.78Zm-17.07-26.86a3.54,3.54,0,0,0-3.53,3.54v17.07a3.53,3.53,0,0,0,3.53,3.53h17.07a3.53,3.53,0,0,0,3.53-3.53V123.46a3.54,3.54,0,0,0-3.53-3.54Z" fill="#3a312a"/>
          <rect x="161.99" y="118.57" width="26.85" height="26.85" rx="5.4" ry="5.4" fill="#d7e057"/>
          <path d="M184,146.78H166.88a6.25,6.25,0,0,1-6.25-6.25V123.46a6.25,6.25,0,0,1,6.25-6.25H184a6.26,6.26,0,0,1,6.25,6.25v17.07A6.26,6.26,0,0,1,184,146.78Zm-17.07-26.86a3.55,3.55,0,0,0-3.54,3.54v17.07a3.54,3.54,0,0,0,3.54,3.53H184a3.53,3.53,0,0,0,3.53-3.53V123.46a3.54,3.54,0,0,0-3.53-3.54Z" fill="#3a312a"/>
          <rect x="15.71" y="159.9" width="26.85" height="26.85" rx="5.4" ry="5.4" fill="#95b5df"/>
          <path d="M37.68,188.11H20.6a6.25,6.25,0,0,1-6.24-6.25V164.79a6.26,6.26,0,0,1,6.24-6.25H37.68a6.27,6.27,0,0,1,6.25,6.25v17.07A6.26,6.26,0,0,1,37.68,188.11ZM20.6,161.26a3.54,3.54,0,0,0-3.53,3.53v17.07a3.54,3.54,0,0,0,3.53,3.54H37.68a3.54,3.54,0,0,0,3.53-3.54V164.79a3.53,3.53,0,0,0-3.53-3.53Z" fill="#3a312a"/>
          <rect x="52.28" y="159.9" width="26.85" height="26.85" rx="5.4" ry="5.4" fill="#fde783"/>
          <path d="M74.25,188.11H57.17a6.26,6.26,0,0,1-6.25-6.25V164.79a6.27,6.27,0,0,1,6.25-6.25H74.25a6.26,6.26,0,0,1,6.24,6.25v17.07A6.25,6.25,0,0,1,74.25,188.11ZM57.17,161.26a3.53,3.53,0,0,0-3.53,3.53v17.07a3.54,3.54,0,0,0,3.53,3.54H74.25a3.54,3.54,0,0,0,3.53-3.54V164.79a3.54,3.54,0,0,0-3.53-3.53Z" fill="#3a312a"/>
          <rect x="88.85" y="159.9" width="26.85" height="26.85" rx="5.4" ry="5.4" fill="#73c385"/>
          <path d="M110.81,188.11H93.74a6.25,6.25,0,0,1-6.25-6.25V164.79a6.26,6.26,0,0,1,6.25-6.25h17.07a6.26,6.26,0,0,1,6.25,6.25v17.07A6.25,6.25,0,0,1,110.81,188.11ZM93.74,161.26a3.53,3.53,0,0,0-3.53,3.53v17.07a3.54,3.54,0,0,0,3.53,3.54h17.07a3.55,3.55,0,0,0,3.54-3.54V164.79a3.54,3.54,0,0,0-3.54-3.53Z" fill="#3a312a"/>
          <rect x="125.42" y="159.9" width="26.85" height="26.85" rx="5.4" ry="5.4" fill="#d7e057"/>
          <path d="M147.38,188.11H130.31a6.25,6.25,0,0,1-6.25-6.25V164.79a6.26,6.26,0,0,1,6.25-6.25h17.07a6.26,6.26,0,0,1,6.25,6.25v17.07A6.25,6.25,0,0,1,147.38,188.11Zm-17.07-26.85a3.53,3.53,0,0,0-3.53,3.53v17.07a3.54,3.54,0,0,0,3.53,3.54h17.07a3.54,3.54,0,0,0,3.53-3.54V164.79a3.53,3.53,0,0,0-3.53-3.53Z" fill="#3a312a"/>
          <rect x="161.99" y="159.9" width="26.85" height="26.85" rx="5.4" ry="5.4" fill="#d7e057"/>
          <path d="M184,188.11H166.88a6.25,6.25,0,0,1-6.25-6.25V164.79a6.26,6.26,0,0,1,6.25-6.25H184a6.27,6.27,0,0,1,6.25,6.25v17.07A6.26,6.26,0,0,1,184,188.11Zm-17.07-26.85a3.54,3.54,0,0,0-3.54,3.53v17.07a3.55,3.55,0,0,0,3.54,3.54H184a3.54,3.54,0,0,0,3.53-3.54V164.79a3.53,3.53,0,0,0-3.53-3.53Z" fill="#3a312a"/>
          <circle cx="43.41" cy="40.39" r="13.69" fill="#f7cb15"/>
          <path d="M43.41,55.44a15.05,15.05,0,1,1,15-15A15.07,15.07,0,0,1,43.41,55.44Zm0-27.38A12.33,12.33,0,1,0,55.74,40.39,12.34,12.34,0,0,0,43.41,28.06Z" fill="#3a312a"/>
          <circle cx="160.92" cy="40.39" r="13.69" fill="#f7cb15"/>
          <path d="M160.92,55.44a15,15,0,1,1,15.05-15A15.07,15.07,0,0,1,160.92,55.44Zm0-27.38a12.33,12.33,0,1,0,12.33,12.33A12.34,12.34,0,0,0,160.92,28.06Z" fill="#3a312a"/>
          <path d="M161,44.05h0a10.24,10.24,0,0,1-10.24-10.24V11.6A10.24,10.24,0,0,1,161,1.36h0A10.23,10.23,0,0,1,171.25,11.6V33.81A10.23,10.23,0,0,1,161,44.05Z" fill="#fede3a"/>
          <path d="M161,45.41a11.61,11.61,0,0,1-11.59-11.6V11.6a11.6,11.6,0,1,1,23.19,0V33.81A11.61,11.61,0,0,1,161,45.41Zm0-42.69a8.89,8.89,0,0,0-8.88,8.88V33.81a8.89,8.89,0,0,0,17.77,0V11.6A8.89,8.89,0,0,0,161,2.72Z" fill="#3a312a"/>
          <path d="M43.54,44.05h0A10.23,10.23,0,0,1,33.3,33.81V11.6A10.23,10.23,0,0,1,43.54,1.36h0A10.24,10.24,0,0,1,53.78,11.6V33.81A10.24,10.24,0,0,1,43.54,44.05Z" fill="#fede3a"/>
          <path d="M43.54,45.41a11.61,11.61,0,0,1-11.6-11.6V11.6a11.6,11.6,0,0,1,23.2,0V33.81A11.61,11.61,0,0,1,43.54,45.41Zm0-42.69a8.89,8.89,0,0,0-8.88,8.88V33.81a8.88,8.88,0,0,0,17.76,0V11.6A8.89,8.89,0,0,0,43.54,2.72Z" fill="#3a312a"/>
          <circle cx="160.96" cy="160.65" r="42.24" transform="translate(-7.51 313.41) rotate(-87.14)" fill="#f7cb15"/>
          <path d="M161,204.25a43.6,43.6,0,1,1,43.59-43.6A43.65,43.65,0,0,1,161,204.25Zm0-84.48a40.88,40.88,0,1,0,40.88,40.88A40.93,40.93,0,0,0,161,119.77Z" fill="#3a312a"/>
          <path d="M161,127.42a33.24,33.24,0,1,0,33.24,33.23A33.24,33.24,0,0,0,161,127.42Z" fill="#9ddcf9"/>
          <path d="M161,195.25a34.6,34.6,0,1,1,34.59-34.6A34.64,34.64,0,0,1,161,195.25Zm0-66.48a31.88,31.88,0,1,0,31.88,31.88A31.91,31.91,0,0,0,161,128.77Z" fill="#3a312a"/>
          <path d="M161,131.44a1.33,1.33,0,0,0-1.33,1.33v2.7a1.33,1.33,0,0,0,2.66,0v-2.7A1.34,1.34,0,0,0,161,131.44Z" fill="#3a312a"/>
          <path d="M161,184.5a1.33,1.33,0,0,0-1.33,1.33v2.7a1.33,1.33,0,0,0,2.66,0v-2.7A1.34,1.34,0,0,0,161,184.5Z" fill="#3a312a"/>
          <path d="M181.61,140a1.33,1.33,0,0,0-1.88,0l-1.91,1.91a1.33,1.33,0,0,0,1.88,1.88l1.91-1.91A1.33,1.33,0,0,0,181.61,140Z" fill="#3a312a"/>
          <path d="M144.09,177.52a1.33,1.33,0,0,0-1.88,0l-1.91,1.91a1.35,1.35,0,0,0,0,1.88,1.33,1.33,0,0,0,1.88,0l1.91-1.91A1.33,1.33,0,0,0,144.09,177.52Z" fill="#3a312a"/>
          <path d="M190.17,160.65a1.34,1.34,0,0,0-1.33-1.33h-2.7a1.33,1.33,0,0,0,0,2.66h2.7A1.33,1.33,0,0,0,190.17,160.65Z" fill="#3a312a"/>
          <path d="M137.11,160.65a1.34,1.34,0,0,0-1.33-1.33h-2.7a1.33,1.33,0,0,0,0,2.66h2.7A1.33,1.33,0,0,0,137.11,160.65Z" fill="#3a312a"/>
          <path d="M181.61,181.31a1.33,1.33,0,0,0,0-1.88l-1.91-1.91a1.33,1.33,0,0,0-1.88,1.88l1.91,1.91A1.33,1.33,0,0,0,181.61,181.31Z" fill="#3a312a"/>
          <path d="M144.09,143.79a1.33,1.33,0,0,0,0-1.88L142.18,140a1.33,1.33,0,0,0-1.88,0,1.35,1.35,0,0,0,0,1.88l1.91,1.91A1.33,1.33,0,0,0,144.09,143.79Z" fill="#3a312a"/>
          <path d="M161,162.43h0a1.35,1.35,0,0,1-1-.45l-9.13-10a1.36,1.36,0,0,1,2-1.83l8.18,9,14.05-14A1.36,1.36,0,0,1,177,147L161.92,162A1.35,1.35,0,0,1,161,162.43Z" fill="#3a312a"/>
          <path d="M164.46,160.65a3.5,3.5,0,1,1-3.5-3.5A3.5,3.5,0,0,1,164.46,160.65Z" fill="#d7e057"/>
          <path d="M161,165.51a4.86,4.86,0,1,1,4.86-4.86A4.87,4.87,0,0,1,161,165.51Zm0-7a2.15,2.15,0,1,0,2.14,2.14A2.14,2.14,0,0,0,161,158.51Z" fill="#3a312a"/>
        </g>
        <g>
          <path d="M274.82,68.69a8.62,8.62,0,0,1-2.46,6.62c-1.64,1.54-4,2.3-7.11,2.3h-5V60.09h5.5a9.28,9.28,0,0,1,6.67,2.27A8.34,8.34,0,0,1,274.82,68.69Zm-3.86.09q0-5.64-5-5.64h-2V74.55h1.59C269.17,74.55,271,72.62,271,68.78Z" fill="#686868"/>
          <path d="M286.67,77.61,286,75.79h-.09A5.39,5.39,0,0,1,284,77.4a6.13,6.13,0,0,1-2.55.45,4.11,4.11,0,0,1-3-1.1,4.26,4.26,0,0,1-1.1-3.14,3.51,3.51,0,0,1,1.49-3.14,8.64,8.64,0,0,1,4.5-1.13l2.32-.07v-.58a1.82,1.82,0,0,0-2.08-2,9.49,9.49,0,0,0-3.78,1l-1.21-2.47a10.85,10.85,0,0,1,5.13-1.21,6.42,6.42,0,0,1,4.14,1.17,4.39,4.39,0,0,1,1.43,3.58v8.92Zm-1.08-6.2-1.41,0a4.62,4.62,0,0,0-2.37.58,1.8,1.8,0,0,0-.78,1.6c0,1,.59,1.55,1.77,1.55a2.79,2.79,0,0,0,2-.73,2.55,2.55,0,0,0,.76-1.94Z" fill="#686868"/>
          <path d="M292.83,60.75c0-1.19.66-1.78,2-1.78s2,.59,2,1.78a1.76,1.76,0,0,1-.5,1.33,2.11,2.11,0,0,1-1.49.47C293.49,62.55,292.83,62,292.83,60.75Zm3.81,16.86H293V64.22h3.65Z" fill="#686868"/>
          <path d="M304.13,77.61h-3.65V59h3.65Z" fill="#686868"/>
          <path d="M306.05,64.22h4l2.53,7.53a10.86,10.86,0,0,1,.44,2.33h.07a10.27,10.27,0,0,1,.52-2.33l2.48-7.53H320l-5.67,15.11a6.63,6.63,0,0,1-2.22,3.14,5.67,5.67,0,0,1-3.38,1,8.74,8.74,0,0,1-1.85-.2v-2.9a6.47,6.47,0,0,0,1.43.15A2.62,2.62,0,0,0,310,80a3.87,3.87,0,0,0,1.13-1.79l.22-.66Z" fill="#686868"/>
        </g>
        <g>
          <path d="M334.8,74a3.3,3.3,0,0,1-1.37,2.83,6.44,6.44,0,0,1-3.83,1,8.4,8.4,0,0,1-4.08-.82V75.18a10.34,10.34,0,0,0,2,.76,8.63,8.63,0,0,0,2.09.27,4.65,4.65,0,0,0,2.39-.5,1.71,1.71,0,0,0,.18-2.82,10.16,10.16,0,0,0-2.6-1.29,14.17,14.17,0,0,1-2.6-1.19,3.52,3.52,0,0,1-1.15-1.16,3.19,3.19,0,0,1,.92-4.08,6.12,6.12,0,0,1,3.59-.93,10.56,10.56,0,0,1,4.14.86l-.7,1.62a9.61,9.61,0,0,0-3.59-.81,4.08,4.08,0,0,0-2.13.44,1.36,1.36,0,0,0-.72,1.22,1.5,1.5,0,0,0,.27.9,2.72,2.72,0,0,0,.87.71,21.87,21.87,0,0,0,2.3,1A8.59,8.59,0,0,1,334,71.86,3,3,0,0,1,334.8,74Z" fill="#686868"/>
          <path d="M343.28,77.85a5.59,5.59,0,0,1-4.41-1.75,7.24,7.24,0,0,1-1.57-5A7.43,7.43,0,0,1,338.89,66a5.72,5.72,0,0,1,4.53-1.8,9.34,9.34,0,0,1,1.89.2,6.69,6.69,0,0,1,1.49.48l-.62,1.69a9.24,9.24,0,0,0-1.43-.43,6.23,6.23,0,0,0-1.38-.18q-4,0-4,5.11a6.07,6.07,0,0,0,1,3.71,3.42,3.42,0,0,0,2.9,1.3,8.86,8.86,0,0,0,3.36-.71v1.76A7.11,7.11,0,0,1,343.28,77.85Z" fill="#686868"/>
          <path d="M358.71,77.61V69.12a3.43,3.43,0,0,0-.74-2.4,3,3,0,0,0-2.28-.79,3.76,3.76,0,0,0-3,1.13,5.73,5.73,0,0,0-1,3.69v6.86h-2V59h2v5.64a11.35,11.35,0,0,1-.1,1.69h.12a4,4,0,0,1,1.67-1.49,5.52,5.52,0,0,1,2.48-.55,5.08,5.08,0,0,1,3.61,1.15,4.82,4.82,0,0,1,1.21,3.64v8.56Z" fill="#686868"/>
          <path d="M370.33,77.85a6.06,6.06,0,0,1-4.6-1.77,6.87,6.87,0,0,1-1.68-4.93,7.63,7.63,0,0,1,1.56-5,5.2,5.2,0,0,1,4.2-1.87,5,5,0,0,1,3.91,1.62,6.24,6.24,0,0,1,1.44,4.29v1.26h-9.05a5.2,5.2,0,0,0,1.17,3.51,4,4,0,0,0,3.12,1.2,10.64,10.64,0,0,0,4.2-.89V77a10.85,10.85,0,0,1-2,.66A11.39,11.39,0,0,1,370.33,77.85Zm-.54-11.94a3.23,3.23,0,0,0-2.52,1,4.68,4.68,0,0,0-1.11,2.85H373a4.34,4.34,0,0,0-.84-2.88A3,3,0,0,0,369.79,65.91Z" fill="#686868"/>
          <path d="M387.49,75.85h-.11a4.66,4.66,0,0,1-4.12,2,4.87,4.87,0,0,1-4-1.76,7.77,7.77,0,0,1-1.43-5,7.87,7.87,0,0,1,1.44-5,5.32,5.32,0,0,1,8.1.14h.15l-.08-1-.05-.92V59h2V77.61h-1.62Zm-4,.34a3.64,3.64,0,0,0,3-1.11,5.61,5.61,0,0,0,.91-3.58v-.42a6.56,6.56,0,0,0-.93-4,3.5,3.5,0,0,0-3-1.19,3,3,0,0,0-2.68,1.36,6.72,6.72,0,0,0-.93,3.84,6.56,6.56,0,0,0,.92,3.8A3.14,3.14,0,0,0,383.51,76.19Z" fill="#686868"/>
          <path d="M395.46,64.48V73a3.43,3.43,0,0,0,.73,2.4,3,3,0,0,0,2.29.79,3.73,3.73,0,0,0,3-1.13,5.66,5.66,0,0,0,.95-3.68v-6.9h2V77.61h-1.64l-.29-1.76h-.1a4,4,0,0,1-1.7,1.49,5.74,5.74,0,0,1-2.47.51,5,5,0,0,1-3.59-1.14,4.81,4.81,0,0,1-1.2-3.64V64.48Z" fill="#686868"/>
          <path d="M410.64,77.61h-2V59h2Z" fill="#686868"/>
          <path d="M420.41,77.85a6,6,0,0,1-4.6-1.77,6.87,6.87,0,0,1-1.68-4.93,7.63,7.63,0,0,1,1.56-5,5.19,5.19,0,0,1,4.2-1.87,5,5,0,0,1,3.91,1.62,6.24,6.24,0,0,1,1.44,4.29v1.26h-9.05a5.2,5.2,0,0,0,1.17,3.51,4,4,0,0,0,3.12,1.2,10.59,10.59,0,0,0,4.19-.89V77a10.52,10.52,0,0,1-2,.66A11.46,11.46,0,0,1,420.41,77.85Zm-.54-11.94a3.21,3.21,0,0,0-2.52,1,4.68,4.68,0,0,0-1.11,2.85h6.86a4.4,4.4,0,0,0-.83-2.88A3,3,0,0,0,419.87,65.91Z" fill="#686868"/>
        </g>
        <g>
          <path d="M362.8,117.5a3.27,3.27,0,0,1-1.36,2.82,6.38,6.38,0,0,1-3.84,1,8.32,8.32,0,0,1-4.07-.83v-1.84a9.64,9.64,0,0,0,2,.75,8.66,8.66,0,0,0,2.09.28,4.77,4.77,0,0,0,2.4-.5,1.71,1.71,0,0,0,.17-2.83,10.75,10.75,0,0,0-2.59-1.29,14,14,0,0,1-2.61-1.19,3.53,3.53,0,0,1-1.15-1.16,3,3,0,0,1-.38-1.54,3,3,0,0,1,1.31-2.54,6.14,6.14,0,0,1,3.58-.92,10.39,10.39,0,0,1,4.15.86l-.71,1.62a9.4,9.4,0,0,0-3.58-.82,4.18,4.18,0,0,0-2.13.44,1.39,1.39,0,0,0-.72,1.23,1.45,1.45,0,0,0,.27.89,2.65,2.65,0,0,0,.86.71,17.86,17.86,0,0,0,2.31,1,8.52,8.52,0,0,1,3.15,1.72A3,3,0,0,1,362.8,117.5Z" fill="#686868"/>
          <path d="M371.29,121.32a5.63,5.63,0,0,1-4.42-1.76,7.21,7.21,0,0,1-1.56-5,7.45,7.45,0,0,1,1.59-5.1,5.7,5.7,0,0,1,4.52-1.79,8.67,8.67,0,0,1,1.89.2,6.21,6.21,0,0,1,1.49.48l-.61,1.69a9.37,9.37,0,0,0-1.44-.44,6.16,6.16,0,0,0-1.38-.17q-4,0-4,5.1a6.12,6.12,0,0,0,1,3.72,3.39,3.39,0,0,0,2.89,1.29,8.68,8.68,0,0,0,3.37-.71v1.77A7.27,7.27,0,0,1,371.29,121.32Z" fill="#686868"/>
          <path d="M386.71,121.08v-8.5a3.39,3.39,0,0,0-.73-2.39,3,3,0,0,0-2.29-.8,3.74,3.74,0,0,0-3,1.13,5.67,5.67,0,0,0-1,3.69v6.87h-2V102.43h2v5.65a13.11,13.11,0,0,1-.09,1.69h.12a4.07,4.07,0,0,1,1.67-1.5,5.47,5.47,0,0,1,2.47-.54,5.1,5.1,0,0,1,3.62,1.14,4.85,4.85,0,0,1,1.2,3.64v8.57Z" fill="#686868"/>
          <path d="M398.33,121.32a6,6,0,0,1-4.59-1.78,6.86,6.86,0,0,1-1.69-4.92,7.65,7.65,0,0,1,1.57-5.05,5.2,5.2,0,0,1,4.2-1.86,5,5,0,0,1,3.91,1.62,6.25,6.25,0,0,1,1.43,4.28v1.26h-9a5.2,5.2,0,0,0,1.16,3.51,4,4,0,0,0,3.13,1.2,10.42,10.42,0,0,0,4.19-.89v1.78a10.53,10.53,0,0,1-2,.65A11.25,11.25,0,0,1,398.33,121.32Zm-.54-11.95a3.24,3.24,0,0,0-2.52,1,4.86,4.86,0,0,0-1.11,2.85H401a4.38,4.38,0,0,0-.84-2.88A3,3,0,0,0,397.79,109.37Z" fill="#686868"/>
          <path d="M415.49,119.32h-.1a4.7,4.7,0,0,1-4.13,2,4.88,4.88,0,0,1-4-1.76,7.75,7.75,0,0,1-1.44-5,7.89,7.89,0,0,1,1.44-5,4.83,4.83,0,0,1,4-1.79,4.76,4.76,0,0,1,4.1,1.94h.16l-.09-1,0-.92v-5.35h2v18.65h-1.62Zm-4,.33a3.62,3.62,0,0,0,3-1.11,5.58,5.58,0,0,0,.92-3.57v-.42a6.62,6.62,0,0,0-.93-4,3.55,3.55,0,0,0-3-1.19,3,3,0,0,0-2.68,1.36,6.77,6.77,0,0,0-.93,3.84,6.43,6.43,0,0,0,.93,3.8A3.11,3.11,0,0,0,411.52,119.65Z" fill="#686868"/>
          <path d="M423.46,107.94v8.53a3.45,3.45,0,0,0,.73,2.39,3,3,0,0,0,2.29.79,3.75,3.75,0,0,0,3-1.12,5.74,5.74,0,0,0,.95-3.68v-6.91h2v13.14H430.8l-.29-1.76h-.11a4,4,0,0,1-1.69,1.48,5.64,5.64,0,0,1-2.48.52,5,5,0,0,1-3.59-1.14,4.86,4.86,0,0,1-1.19-3.64v-8.6Z" fill="#686868"/>
          <path d="M438.65,121.08h-2V102.43h2Z" fill="#686868"/>
          <path d="M448.41,121.32a6,6,0,0,1-4.59-1.78,6.82,6.82,0,0,1-1.69-4.92,7.59,7.59,0,0,1,1.57-5.05,5.2,5.2,0,0,1,4.2-1.86,5,5,0,0,1,3.9,1.62,6.21,6.21,0,0,1,1.44,4.28v1.26h-9.05a5.2,5.2,0,0,0,1.17,3.51,4,4,0,0,0,3.12,1.2,10.43,10.43,0,0,0,4.2-.89v1.78a10.53,10.53,0,0,1-2,.65A11.25,11.25,0,0,1,448.41,121.32Zm-.54-11.95a3.24,3.24,0,0,0-2.52,1,4.73,4.73,0,0,0-1.11,2.85h6.87a4.38,4.38,0,0,0-.84-2.88A3,3,0,0,0,447.87,109.37Z" fill="#686868"/>
        </g>
        <g>
          <path d="M331.82,160.07a3.29,3.29,0,0,1-1.37,2.83,6.44,6.44,0,0,1-3.83,1,8.39,8.39,0,0,1-4.08-.83v-1.85a9.74,9.74,0,0,0,2,.76,8.63,8.63,0,0,0,2.09.27,4.74,4.74,0,0,0,2.39-.49,1.72,1.72,0,0,0,.18-2.83,10.87,10.87,0,0,0-2.6-1.29,13.52,13.52,0,0,1-2.6-1.19,3.52,3.52,0,0,1-1.15-1.16,2.91,2.91,0,0,1-.38-1.54,3,3,0,0,1,1.3-2.54,6.12,6.12,0,0,1,3.59-.93,10.39,10.39,0,0,1,4.14.87l-.7,1.61a9.61,9.61,0,0,0-3.59-.81,4.18,4.18,0,0,0-2.13.44,1.38,1.38,0,0,0-.72,1.22,1.46,1.46,0,0,0,.27.9,2.59,2.59,0,0,0,.87.71,19.86,19.86,0,0,0,2.3,1A8.74,8.74,0,0,1,331,157.9,3,3,0,0,1,331.82,160.07Z" fill="#686868"/>
          <path d="M340.3,163.9a5.59,5.59,0,0,1-4.41-1.76,7.24,7.24,0,0,1-1.57-5,7.44,7.44,0,0,1,1.59-5.09,5.72,5.72,0,0,1,4.53-1.8,8.69,8.69,0,0,1,1.89.21,5.79,5.79,0,0,1,1.49.48l-.62,1.69a8.26,8.26,0,0,0-1.43-.44,6.16,6.16,0,0,0-1.38-.17q-4,0-4,5.1a6.07,6.07,0,0,0,1,3.71,3.39,3.39,0,0,0,2.9,1.3,8.86,8.86,0,0,0,3.36-.71v1.76A7.11,7.11,0,0,1,340.3,163.9Z" fill="#686868"/>
          <path d="M355.73,163.66v-8.5a3.48,3.48,0,0,0-.73-2.4,3,3,0,0,0-2.29-.79,3.76,3.76,0,0,0-3,1.13,5.73,5.73,0,0,0-.95,3.69v6.87h-2V145h2v5.64a11.26,11.26,0,0,1-.1,1.69h.12a4.11,4.11,0,0,1,1.67-1.49,5.51,5.51,0,0,1,2.48-.54,5.08,5.08,0,0,1,3.61,1.14,4.84,4.84,0,0,1,1.21,3.64v8.57Z" fill="#686868"/>
          <path d="M367.35,163.9a6,6,0,0,1-4.6-1.78,6.86,6.86,0,0,1-1.68-4.92,7.64,7.64,0,0,1,1.56-5,5.23,5.23,0,0,1,4.2-1.87,4.94,4.94,0,0,1,3.91,1.63,6.21,6.21,0,0,1,1.44,4.28v1.26h-9.05A5.2,5.2,0,0,0,364.3,161a4,4,0,0,0,3.12,1.2,10.64,10.64,0,0,0,4.2-.89v1.78a10.77,10.77,0,0,1-2,.65A11.32,11.32,0,0,1,367.35,163.9Zm-.54-12a3.24,3.24,0,0,0-2.52,1,4.73,4.73,0,0,0-1.11,2.85h6.87a4.38,4.38,0,0,0-.84-2.88A3,3,0,0,0,366.81,152Z" fill="#686868"/>
          <path d="M384.51,161.89h-.11a4.66,4.66,0,0,1-4.12,2,4.9,4.9,0,0,1-4-1.76,7.8,7.8,0,0,1-1.43-5,7.89,7.89,0,0,1,1.44-5,4.83,4.83,0,0,1,4-1.8,4.77,4.77,0,0,1,4.1,1.95h.15l-.08-.95-.05-.93V145h2v18.65h-1.62Zm-4,.34a3.64,3.64,0,0,0,3-1.11,5.6,5.6,0,0,0,.91-3.57v-.42a6.6,6.6,0,0,0-.93-4,3.53,3.53,0,0,0-3-1.19,3,3,0,0,0-2.68,1.36,6.77,6.77,0,0,0-.93,3.84,6.53,6.53,0,0,0,.92,3.8A3.14,3.14,0,0,0,380.53,162.23Z" fill="#686868"/>
          <path d="M392.48,150.52V159a3.43,3.43,0,0,0,.73,2.4,3,3,0,0,0,2.29.79,3.73,3.73,0,0,0,3-1.13,5.63,5.63,0,0,0,.95-3.67v-6.91h2v13.14h-1.64l-.29-1.77h-.1a4,4,0,0,1-1.7,1.49,5.74,5.74,0,0,1-2.47.52,5,5,0,0,1-3.59-1.14,4.85,4.85,0,0,1-1.2-3.65v-8.59Z" fill="#686868"/>
          <path d="M407.66,163.66h-2V145h2Z" fill="#686868"/>
          <path d="M417.43,163.9a6,6,0,0,1-4.6-1.78,6.86,6.86,0,0,1-1.68-4.92,7.64,7.64,0,0,1,1.56-5,5.22,5.22,0,0,1,4.2-1.87,4.94,4.94,0,0,1,3.91,1.63,6.21,6.21,0,0,1,1.44,4.28v1.26h-9.05a5.2,5.2,0,0,0,1.17,3.51,4,4,0,0,0,3.12,1.2,10.59,10.59,0,0,0,4.19-.89v1.78a10.45,10.45,0,0,1-2,.65A11.39,11.39,0,0,1,417.43,163.9Zm-.54-12a3.21,3.21,0,0,0-2.52,1,4.73,4.73,0,0,0-1.11,2.85h6.86a4.43,4.43,0,0,0-.83-2.88A3,3,0,0,0,416.89,152Z" fill="#686868"/>
        </g>
        <g>
          <path d="M277.35,120.49h-4.23l-2.37-9.2c-.09-.33-.24-1-.45-2s-.34-1.72-.37-2.07c-.05.43-.17,1.12-.36,2.08s-.34,1.63-.44,2l-2.36,9.18h-4.22L258.08,103h3.66l2.24,9.56c.39,1.77.67,3.3.85,4.59.05-.45.15-1.16.33-2.11s.33-1.7.48-2.22l2.55-9.82h3.52l2.55,9.82q.17.66.42,2c.16.9.29,1.68.38,2.32.08-.62.21-1.4.38-2.33s.34-1.68.48-2.26l2.23-9.56h3.66Z" fill="#686868"/>
          <path d="M289.79,120.73a6.91,6.91,0,0,1-5.06-1.78,6.79,6.79,0,0,1-1.82-5.06,7.45,7.45,0,0,1,1.68-5.21,6,6,0,0,1,4.66-1.84,5.89,5.89,0,0,1,4.42,1.62,6.14,6.14,0,0,1,1.58,4.47v1.77h-8.64a3.57,3.57,0,0,0,.92,2.44A3.28,3.28,0,0,0,290,118a9.84,9.84,0,0,0,2.28-.25,12.31,12.31,0,0,0,2.26-.8v2.82a8.9,8.9,0,0,1-2.05.72A13.43,13.43,0,0,1,289.79,120.73Zm-.52-11.29a2.33,2.33,0,0,0-1.82.74,3.38,3.38,0,0,0-.75,2.09h5.12a3,3,0,0,0-.7-2.09A2.41,2.41,0,0,0,289.27,109.44Z" fill="#686868"/>
          <path d="M304.29,120.73a6.91,6.91,0,0,1-5.06-1.78,6.79,6.79,0,0,1-1.82-5.06,7.45,7.45,0,0,1,1.68-5.21,6,6,0,0,1,4.66-1.84,5.89,5.89,0,0,1,4.42,1.62,6.14,6.14,0,0,1,1.58,4.47v1.77h-8.64a3.57,3.57,0,0,0,.92,2.44,3.28,3.28,0,0,0,2.43.87,9.84,9.84,0,0,0,2.28-.25A12.31,12.31,0,0,0,309,117v2.82a8.9,8.9,0,0,1-2.05.72A13.43,13.43,0,0,1,304.29,120.73Zm-.52-11.29a2.33,2.33,0,0,0-1.82.74,3.38,3.38,0,0,0-.75,2.09h5.12a3,3,0,0,0-.7-2.09A2.41,2.41,0,0,0,303.77,109.44Z" fill="#686868"/>
          <path d="M316.24,113.21l1.59-2,3.75-4.08h4.12l-5.32,5.82,5.65,7.58h-4.22L318,115.06l-1.57,1.26v4.17h-3.66V101.85h3.66v8.31l-.19,3Z" fill="#686868"/>
          <path d="M331.6,120.49h-3.66V101.85h3.66Z" fill="#686868"/>
          <path d="M333.51,107.09h4l2.53,7.54a10.86,10.86,0,0,1,.44,2.33h.07a10.15,10.15,0,0,1,.52-2.33l2.48-7.54h3.92l-5.67,15.12a6.57,6.57,0,0,1-2.23,3.14,5.62,5.62,0,0,1-3.37,1,8.29,8.29,0,0,1-1.86-.21v-2.9a5.94,5.94,0,0,0,1.44.16,2.64,2.64,0,0,0,1.7-.59,3.92,3.92,0,0,0,1.13-1.79l.22-.66Z" fill="#686868"/>
        </g>
        <g>
          <path d="M270.63,158.2a4.52,4.52,0,0,1-1.71,3.74,7.42,7.42,0,0,1-4.75,1.37,11,11,0,0,1-5-1.06V158.8a20.58,20.58,0,0,0,3,1.12,9.16,9.16,0,0,0,2.25.32,3.13,3.13,0,0,0,1.87-.47,1.58,1.58,0,0,0,.65-1.39,1.51,1.51,0,0,0-.28-.91,3.43,3.43,0,0,0-.85-.78,23.12,23.12,0,0,0-2.27-1.18,11.3,11.3,0,0,1-2.41-1.45,5.56,5.56,0,0,1-1.28-1.62,4.62,4.62,0,0,1-.48-2.16,4.51,4.51,0,0,1,1.58-3.65,6.52,6.52,0,0,1,4.35-1.33,10.6,10.6,0,0,1,2.61.32,18.32,18.32,0,0,1,2.59.91l-1.2,2.89a17.47,17.47,0,0,0-2.31-.8,7.68,7.68,0,0,0-1.81-.23,2.39,2.39,0,0,0-1.62.49,1.64,1.64,0,0,0-.56,1.28,1.6,1.6,0,0,0,.23.86,2.56,2.56,0,0,0,.72.71,25.74,25.74,0,0,0,2.36,1.22,9.44,9.44,0,0,1,3.37,2.36A4.64,4.64,0,0,1,270.63,158.2Z" fill="#686868"/>
          <path d="M279.16,160.4a7.93,7.93,0,0,0,2.3-.42v2.72a8.34,8.34,0,0,1-3.36.61,4.1,4.1,0,0,1-3.19-1.11,4.82,4.82,0,0,1-1-3.33v-6.45h-1.75v-1.55l2-1.22,1.06-2.83h2.33v2.85h3.76v2.75h-3.76v6.45A1.42,1.42,0,0,0,278,160,1.72,1.72,0,0,0,279.16,160.4Z" fill="#686868"/>
          <path d="M292.68,163.07l-.71-1.82h-.1a5.41,5.41,0,0,1-1.9,1.61,6.12,6.12,0,0,1-2.54.45,4.14,4.14,0,0,1-3-1.1,4.25,4.25,0,0,1-1.11-3.14,3.55,3.55,0,0,1,1.49-3.15,8.71,8.71,0,0,1,4.5-1.12l2.33-.07v-.59a1.83,1.83,0,0,0-2.09-2,9.58,9.58,0,0,0-3.77,1l-1.21-2.46a10.85,10.85,0,0,1,5.13-1.21,6.41,6.41,0,0,1,4.13,1.17,4.33,4.33,0,0,1,1.44,3.57v8.93Zm-1.08-6.21-1.42,0a4.53,4.53,0,0,0-2.37.57,1.82,1.82,0,0,0-.78,1.61c0,1,.59,1.55,1.77,1.55a2.86,2.86,0,0,0,2-.73,2.61,2.61,0,0,0,.76-1.95Z" fill="#686868"/>
          <path d="M306.4,152.42h-3.17v10.65h-3.65V152.42h-2v-1.77l2-1v-1a4.37,4.37,0,0,1,1.12-3.34,5.16,5.16,0,0,1,3.61-1.06,9.52,9.52,0,0,1,3.37.56l-.94,2.69a6.82,6.82,0,0,0-2-.35,1.34,1.34,0,0,0-1.13.46,1.92,1.92,0,0,0-.35,1.18v.84h3.17Zm9.5,0h-3.16v10.65h-3.66V152.42h-2v-1.77l2-1v-1a4.37,4.37,0,0,1,1.13-3.34,5.11,5.11,0,0,1,3.6-1.06,9.48,9.48,0,0,1,3.37.56l-.93,2.69a6.94,6.94,0,0,0-2-.35,1.34,1.34,0,0,0-1.13.46,1.92,1.92,0,0,0-.34,1.18v.84h3.16Z" fill="#686868"/>
        </g>
        <g>
          <path d="M245.6,61.87c-.07-.13-.13-.26-.2-.38a14,14,0,0,0-6.57-6.11,14.61,14.61,0,0,0-2.28-.79,13.91,13.91,0,0,0-12.18,2.7,14,14,0,0,0-4.06,5.4,13.61,13.61,0,0,0-.82,2.7,14,14,0,0,0-.27,2.7,14.21,14.21,0,0,0,.27,2.7,13.82,13.82,0,0,0,.82,2.7,14.16,14.16,0,0,0,4.06,5.4,13.93,13.93,0,0,0,12.18,2.7,13.68,13.68,0,0,0,2.28-.8,13.9,13.9,0,0,0,6.77-18.92Z" fill="#a4d283"/>
          <path d="M245.6,61.87l2.23-1.12a4.86,4.86,0,0,0-.23-.45h0a16.54,16.54,0,0,0-7.74-7.2h0a17.22,17.22,0,0,0-2.7-.94h0a16.33,16.33,0,0,0-8,0,16.37,16.37,0,0,0-6.34,3.19l-.05,0,.05,0A16.4,16.4,0,0,0,218,61.71h0a16.57,16.57,0,0,0-1,3.19h0a16,16,0,0,0,0,6.37h0a15.9,15.9,0,0,0,1,3.19h0a16.51,16.51,0,0,0,4.79,6.37h0a16.43,16.43,0,0,0,10.35,3.68,16.56,16.56,0,0,0,4-.5h0a16.25,16.25,0,0,0,2.7-.94h0a16.6,16.6,0,0,0,7-5.95,16.38,16.38,0,0,0,1-16.37h0l-2.23,1.12L243.36,63a11.35,11.35,0,0,1-.68,11.37,11.49,11.49,0,0,1-4.87,4.15h0a11.51,11.51,0,0,1-1.87.65h0a11.23,11.23,0,0,1-2.79.35,11.11,11.11,0,0,1-2.79-.35A11.33,11.33,0,0,1,226,77l0,0,0,0a11.43,11.43,0,0,1-3.33-4.44h0a10.9,10.9,0,0,1-.68-2.21h0a11.26,11.26,0,0,1,0-4.43h0a10.9,10.9,0,0,1,.68-2.21h0A11.4,11.4,0,0,1,226,59.23h0A11.35,11.35,0,0,1,230.36,57a11.59,11.59,0,0,1,2.79-.35,11.72,11.72,0,0,1,2.79.35h0a11.18,11.18,0,0,1,1.87.65h0a11.52,11.52,0,0,1,5.39,5h0c0,.08.1.19.16.32h0Z" fill="#a4d283"/>
          <path d="M245.6,61.87l.89-.45c-.06-.13-.13-.26-.21-.41h0a15,15,0,0,0-7-6.54,14.47,14.47,0,0,0-2.45-.85h0a14.67,14.67,0,0,0-7.29,0,15,15,0,0,0-10.11,8.68h0a14.87,14.87,0,0,0-.88,2.89h0a14.63,14.63,0,0,0-.29,2.9,14.45,14.45,0,0,0,.29,2.89,15.18,15.18,0,0,0,.88,2.9,14.94,14.94,0,0,0,17.4,8.68,15.44,15.44,0,0,0,2.45-.86h0a14.89,14.89,0,0,0,7.25-20.28h0l-.89.45-.9.45a12.71,12.71,0,0,1,1.37,5.77,12.94,12.94,0,0,1-7.65,11.79h0a13.62,13.62,0,0,1-2.12.74,13,13,0,0,1-15.06-7.52,12.59,12.59,0,0,1-.77-2.51,12.68,12.68,0,0,1,0-5h0a12.3,12.3,0,0,1,.77-2.5h0A13,13,0,0,1,230,55.56a12.64,12.64,0,0,1,6.31,0h0a11.82,11.82,0,0,1,2.12.74,13,13,0,0,1,6.1,5.66h0l.18.35h0Z" fill="#fff"/>
          <path d="M229.94,74.47a1.15,1.15,0,0,1-.82-.34l-4.05-4a1.15,1.15,0,0,1,1.63-1.63l3.24,3.23L239.59,62a1.16,1.16,0,0,1,1.64,1.63L230.75,74.13A1.13,1.13,0,0,1,229.94,74.47Z" fill="#fff"/>
          <path d="M229.94,74.88a1.55,1.55,0,0,1-1.11-.46l-4.05-4A1.56,1.56,0,1,1,227,68.16l2.95,2.94,9.36-9.36a1.59,1.59,0,0,1,2.22,0,1.54,1.54,0,0,1,.45,1.1,1.58,1.58,0,0,1-.45,1.11L231,74.42A1.53,1.53,0,0,1,229.94,74.88Zm-4.06-6.36a.7.7,0,0,0-.52.22.74.74,0,0,0,0,1.05l4,4a.76.76,0,0,0,1.05,0l10.48-10.47a.74.74,0,0,0,.21-.53.72.72,0,0,0-.21-.52.76.76,0,0,0-1.06,0l-9.94,9.94-3.53-3.52A.74.74,0,0,0,225.88,68.52Z" fill="#fff"/>
          <path d="M245.78,106.67l-.19-.38a14,14,0,0,0-6.57-6.1,13.79,13.79,0,0,0-2.29-.8,14,14,0,0,0-6.8,0,14,14,0,0,0-9.43,8.1,14.33,14.33,0,0,0-.83,2.7,14,14,0,0,0-.26,2.7,14.2,14.2,0,0,0,.26,2.7,14.56,14.56,0,0,0,.83,2.7,14,14,0,0,0,9.43,8.1,14,14,0,0,0,6.8,0,13.79,13.79,0,0,0,2.29-.8,13.91,13.91,0,0,0,6.76-18.92Z" fill="#a4d283"/>
          <path d="M245.78,106.67l2.24-1.12-.23-.45h0A16.49,16.49,0,0,0,240,97.91h0a16.28,16.28,0,0,0-2.7-1h0a16.45,16.45,0,0,0-19.14,9.55h0a16.29,16.29,0,0,0-1,3.18h0a16.52,16.52,0,0,0,0,6.37h0a16.6,16.6,0,0,0,1,3.19h0a16.48,16.48,0,0,0,4.78,6.37h0a16.42,16.42,0,0,0,6.34,3.18,16.33,16.33,0,0,0,8,0h0a15.39,15.39,0,0,0,2.7-.94h0a16.54,16.54,0,0,0,7-6,16.42,16.42,0,0,0,1-16.37h0l-2.24,1.12-2.23,1.12a11.41,11.41,0,0,1-.68,11.37,11.45,11.45,0,0,1-4.88,4.15h0a11.18,11.18,0,0,1-1.87.65h0a11.3,11.3,0,0,1-5.58,0,11.29,11.29,0,0,1-4.4-2.21h0a11.49,11.49,0,0,1-3.34-4.43h0a11.87,11.87,0,0,1-.67-2.22h0a11.26,11.26,0,0,1,0-4.43h0a11.55,11.55,0,0,1,.67-2.21h0a11.55,11.55,0,0,1,7.74-6.65,11.62,11.62,0,0,1,5.58,0h0a10.39,10.39,0,0,1,1.87.66h0a11.47,11.47,0,0,1,5.4,5h0l.16.31h0Z" fill="#a4d283"/>
          <path d="M245.78,106.67l.9-.45c-.07-.13-.14-.26-.21-.41h0a15,15,0,0,0-7-6.54h0a14.47,14.47,0,0,0-2.45-.85,15,15,0,0,0-7.29,0,15,15,0,0,0-10.11,8.68h0a14.9,14.9,0,0,0-.89,2.89h0a15.41,15.41,0,0,0-.28,2.9,15.23,15.23,0,0,0,.28,2.89h0a15.21,15.21,0,0,0,.89,2.9v0a14.91,14.91,0,0,0,4.35,5.78h0a14.8,14.8,0,0,0,5.76,2.9,15,15,0,0,0,7.29,0,15.44,15.44,0,0,0,2.45-.86h0a14.92,14.92,0,0,0,7.25-20.28h0l-.9.45-.89.45a12.92,12.92,0,0,1-6.28,17.56h0a14,14,0,0,1-2.12.74,13,13,0,0,1-6.31,0,12.79,12.79,0,0,1-5-2.51h0a13.06,13.06,0,0,1-3.77-5h0a12.56,12.56,0,0,1-.76-2.51h0a12.68,12.68,0,0,1,0-5h0a12.28,12.28,0,0,1,.76-2.5h0a13,13,0,0,1,3.77-5,12.77,12.77,0,0,1,5-2.5,13,13,0,0,1,6.31,0,12.1,12.1,0,0,1,2.12.74h0a13,13,0,0,1,6.1,5.67h0q.07.17.18.36h0Z" fill="#fff"/>
          <path d="M230.12,119.27a1.15,1.15,0,0,1-.82-.34l-4.05-4.05a1.15,1.15,0,0,1,1.63-1.63l3.24,3.23,9.66-9.65a1.15,1.15,0,0,1,1.63,1.63l-10.47,10.47A1.15,1.15,0,0,1,230.12,119.27Z" fill="#fff"/>
          <path d="M230.12,119.68a1.55,1.55,0,0,1-1.11-.46l-4-4a1.56,1.56,0,0,1,2.21-2.21l3,2.94,9.37-9.36a1.6,1.6,0,0,1,2.21,0,1.53,1.53,0,0,1,.46,1.1,1.55,1.55,0,0,1-.46,1.11l-10.47,10.47A1.55,1.55,0,0,1,230.12,119.68Zm-4.05-6.36a.75.75,0,0,0-.53,1.27l4.05,4a.75.75,0,0,0,1.06,0l10.47-10.47a.75.75,0,0,0,.22-.53.73.73,0,0,0-.22-.52.76.76,0,0,0-1.05,0l-9.95,9.94-3.53-3.52A.7.7,0,0,0,226.07,113.32Z" fill="#fff"/>
          <path d="M245.78,150.9l-.19-.38a14.06,14.06,0,0,0-6.57-6.11,13.79,13.79,0,0,0-2.29-.8,14,14,0,0,0-6.8,0,14,14,0,0,0-9.43,8.11,14,14,0,0,0-.83,8.09,14.43,14.43,0,0,0,.83,2.71,13.93,13.93,0,0,0,16.23,8.1,13.79,13.79,0,0,0,2.29-.8,13.93,13.93,0,0,0,8.23-12.71A13.79,13.79,0,0,0,245.78,150.9Z" fill="#a4d283"/>
          <path d="M245.78,150.9l2.24-1.12-.23-.45h0a16.51,16.51,0,0,0-7.75-7.2h0a17.22,17.22,0,0,0-2.7-.94h0a16.33,16.33,0,0,0-8,0h0a16.31,16.31,0,0,0-6.34,3.19h0a16.38,16.38,0,0,0-4.78,6.36h0a16.6,16.6,0,0,0-1,3.19h0a16.52,16.52,0,0,0,0,6.37h0a16.6,16.6,0,0,0,1,3.19h0a16.38,16.38,0,0,0,4.78,6.36h0a16.44,16.44,0,0,0,6.34,3.19h0a16.33,16.33,0,0,0,8,0h0a17.46,17.46,0,0,0,2.69-.94h0a16.42,16.42,0,0,0,8-22.32h0l-2.24,1.12L243.55,152a11.41,11.41,0,0,1-.68,11.37,11.59,11.59,0,0,1-4.88,4.15h0a11.62,11.62,0,0,1-1.88.65h0a11.3,11.3,0,0,1-5.58,0h0a11.43,11.43,0,0,1-4.4-2.21l0,0,0,0a11.45,11.45,0,0,1-3.34-4.44h0a11.55,11.55,0,0,1-.67-2.21h0a11.26,11.26,0,0,1,0-4.43h0a11.55,11.55,0,0,1,.67-2.21h0a11.45,11.45,0,0,1,3.34-4.44l0,0,0,0a11.43,11.43,0,0,1,4.4-2.21h0a11.3,11.3,0,0,1,5.58,0h0a11.18,11.18,0,0,1,1.87.65h0a11.49,11.49,0,0,1,5.4,5h0l.15.31h0Z" fill="#a4d283"/>
          <path d="M245.78,150.9l.9-.45-.21-.41h0a15,15,0,0,0-7-6.54h0a15.44,15.44,0,0,0-2.45-.86h0a15,15,0,0,0-7.29,0h0a14.93,14.93,0,0,0-5.76,2.9h0a14.86,14.86,0,0,0-4.35,5.79h0a14.9,14.9,0,0,0-.89,2.89h0a15.11,15.11,0,0,0,0,5.79h0a14.9,14.9,0,0,0,.89,2.89h0a14.86,14.86,0,0,0,4.35,5.79,15.07,15.07,0,0,0,5.76,2.9h0a15,15,0,0,0,7.29,0h0a15.44,15.44,0,0,0,2.45-.86h0a14.92,14.92,0,0,0,7.25-20.28h0l-.9.45-.89.44a12.93,12.93,0,0,1-6.28,17.57h0a14,14,0,0,1-2.12.74h0a13,13,0,0,1-6.31,0h0a12.93,12.93,0,0,1-5-2.51,13.06,13.06,0,0,1-3.77-5h0a12.56,12.56,0,0,1-.76-2.51h0a12.68,12.68,0,0,1,0-5h0a12.56,12.56,0,0,1,.76-2.51h0a13.06,13.06,0,0,1,3.77-5h0a12.93,12.93,0,0,1,5-2.51h0a13,13,0,0,1,6.31,0h0a14,14,0,0,1,2.12.74h0a13.06,13.06,0,0,1,6.1,5.67h0c0,.11.11.22.18.35h0Z" fill="#fff"/>
          <path d="M230.12,163.5a1.15,1.15,0,0,1-.82-.34l-4.05-4a1.15,1.15,0,0,1,0-1.63,1.14,1.14,0,0,1,1.63,0l3.24,3.23,9.66-9.66a1.15,1.15,0,0,1,1.63,0,1.16,1.16,0,0,1,0,1.64l-10.47,10.47A1.15,1.15,0,0,1,230.12,163.5Z" fill="#fff"/>
          <path d="M230.12,163.91a1.55,1.55,0,0,1-1.11-.46l-4-4a1.57,1.57,0,0,1,2.21-2.22l3,2.95,9.37-9.37a1.6,1.6,0,0,1,2.21,0,1.57,1.57,0,0,1,0,2.22l-10.47,10.47A1.55,1.55,0,0,1,230.12,163.91Zm-4.05-6.36a.75.75,0,0,0-.53,1.27l4.05,4.05a.77.77,0,0,0,1.06,0l10.47-10.47a.75.75,0,0,0,0-1.06.76.76,0,0,0-1.05,0l-9.95,9.95-3.53-3.52A.7.7,0,0,0,226.07,157.55Z" fill="#fff"/>
        </g>
      </g>
    </g>
  </g>
</svg>
