<svg xmlns="http://www.w3.org/2000/svg" xmlns:xlink="http://www.w3.org/1999/xlink" width="206" height="206" viewBox="0 0 206 206">
  <defs>
    <linearGradient id="linear-gradient" y1="103" x2="206" y2="103" gradientTransform="translate(103 -42.66) rotate(45)" gradientUnits="userSpaceOnUse">
      <stop offset="0" stop-color="#ef5c51"/>
      <stop offset="0.35" stop-color="#cf3c31"/>
      <stop offset="1" stop-color="#af1c11"/>
    </linearGradient>
    <linearGradient id="linear-gradient-2" x1="13.89" y1="103" x2="192.11" y2="103" gradientUnits="userSpaceOnUse">
      <stop offset="0" stop-color="#ffc515"/>
      <stop offset="1" stop-color="#ffd146"/>
    </linearGradient>
    <linearGradient id="linear-gradient-3" x1="64.57" y1="151.86" x2="134.59" y2="53.2" gradientTransform="matrix(1, 0, 0, -1, 0, 208)" gradientUnits="userSpaceOnUse">
      <stop offset="0" stop-color="#f2fafe"/>
      <stop offset="1" stop-color="#d6eefc"/>
    </linearGradient>
    <linearGradient id="linear-gradient-4" x1="131.66" y1="148.15" x2="136.1" y2="148.23" gradientTransform="matrix(1, 0, 0, -1, 0, 208)" gradientUnits="userSpaceOnUse">
      <stop offset="0" stop-color="#b3c0cd"/>
      <stop offset="1" stop-color="#717f8f"/>
    </linearGradient>
    <linearGradient id="linear-gradient-5" x1="118.5" y1="148.15" x2="122.95" y2="148.23" xlink:href="#linear-gradient-4"/>
    <linearGradient id="linear-gradient-6" x1="105.35" y1="148.15" x2="109.79" y2="148.23" xlink:href="#linear-gradient-4"/>
    <linearGradient id="linear-gradient-7" x1="92.19" y1="148.15" x2="96.64" y2="148.23" xlink:href="#linear-gradient-4"/>
    <linearGradient id="linear-gradient-8" x1="79.04" y1="148.15" x2="83.48" y2="148.23" xlink:href="#linear-gradient-4"/>
    <linearGradient id="linear-gradient-9" x1="65.88" y1="148.15" x2="70.33" y2="148.23" xlink:href="#linear-gradient-4"/>
    <linearGradient id="linear-gradient-10" x1="81.97" y1="129.77" x2="97.49" y2="113.64" gradientTransform="matrix(1, 0, 0, -1, 0, 208)" gradientUnits="userSpaceOnUse">
      <stop offset="0" stop-color="#ffd041"/>
      <stop offset="1" stop-color="#ffc001"/>
    </linearGradient>
    <linearGradient id="linear-gradient-11" x1="81.53" y1="80.54" x2="96.79" y2="64.59" gradientTransform="matrix(1, 0, 0, -1, 0, 208)" gradientUnits="userSpaceOnUse">
      <stop offset="0" stop-color="#f4e0cc"/>
      <stop offset="0.52" stop-color="#e8c098"/>
      <stop offset="1" stop-color="#dca264"/>
    </linearGradient>
    <linearGradient id="linear-gradient-12" x1="83.27" y1="66.43" x2="89.07" y2="60.57" gradientTransform="matrix(1, 0, 0, -1, 0, 208)" gradientUnits="userSpaceOnUse">
      <stop offset="0" stop-color="#717f8f"/>
      <stop offset="1" stop-color="#36414a"/>
    </linearGradient>
    <linearGradient id="linear-gradient-13" x1="138.8" y1="136.4" x2="160.76" y2="114.44" gradientTransform="matrix(1, 0, 0, -1, 0, 208)" xlink:href="#linear-gradient"/>
  </defs>
  <title>Asset 8</title>
  <g id="Layer_2" data-name="Layer 2">
    <g id="tasks_small" data-name="tasks small">
      <g>
        <circle cx="103" cy="103" r="103" transform="translate(-42.66 103) rotate(-45)" fill="url(#linear-gradient)"/>
        <circle cx="103" cy="103" r="89.11" fill="url(#linear-gradient-2)"/>
        <path id="curve11" d="M62.71,59.79h78.93a3.25,3.25,0,0,1,3.29,3.29v92.09a3.25,3.25,0,0,1-3.29,3.29H62.71a3.25,3.25,0,0,1-3.29-3.29V63.08A3.25,3.25,0,0,1,62.71,59.79Z" fill="url(#linear-gradient-3)"/>
        <path id="curve9" d="M133.42,53.21h3.28a1.63,1.63,0,0,1,1.65,1.65v9.86a1.63,1.63,0,0,1-1.65,1.65h-3.28a1.63,1.63,0,0,1-1.65-1.65V54.86A1.63,1.63,0,0,1,133.42,53.21Z" fill="url(#linear-gradient-4)"/>
        <path id="curve8" d="M120.26,53.21h3.29a1.62,1.62,0,0,1,1.64,1.65v9.86a1.62,1.62,0,0,1-1.64,1.65h-3.29a1.62,1.62,0,0,1-1.64-1.65V54.86A1.62,1.62,0,0,1,120.26,53.21Z" fill="url(#linear-gradient-5)"/>
        <path id="curve7" d="M107.1,53.21h3.29A1.63,1.63,0,0,1,112,54.86v9.86a1.63,1.63,0,0,1-1.65,1.65H107.1a1.62,1.62,0,0,1-1.64-1.65V54.86A1.62,1.62,0,0,1,107.1,53.21Z" fill="url(#linear-gradient-6)"/>
        <path id="curve6" d="M94,53.21h3.29a1.62,1.62,0,0,1,1.64,1.65v9.86a1.62,1.62,0,0,1-1.64,1.65H94a1.63,1.63,0,0,1-1.65-1.65V54.86A1.63,1.63,0,0,1,94,53.21Z" fill="url(#linear-gradient-7)"/>
        <path id="curve5" d="M80.79,53.21h3.29a1.63,1.63,0,0,1,1.65,1.65v9.86a1.63,1.63,0,0,1-1.65,1.65H80.79a1.62,1.62,0,0,1-1.64-1.65V54.86A1.62,1.62,0,0,1,80.79,53.21Z" fill="url(#linear-gradient-8)"/>
        <path id="curve4" d="M67.64,53.21h3.29a1.62,1.62,0,0,1,1.64,1.65v9.86a1.62,1.62,0,0,1-1.64,1.65H67.64A1.63,1.63,0,0,1,66,64.72V54.86A1.63,1.63,0,0,1,67.64,53.21Z" fill="url(#linear-gradient-9)"/>
        <path d="M134.52,87.72H69.61c-2,0-3.62-1.16-3.62-2.59s1.62-2.58,3.62-2.58h64.91c2,0,3.62,1.15,3.62,2.58S136.52,87.72,134.52,87.72Z" fill="#d1d3d4"/>
        <path d="M134.52,101.69H69.61c-2,0-3.62-1.16-3.62-2.59s1.62-2.58,3.62-2.58h64.91c2,0,3.62,1.15,3.62,2.58S136.52,101.69,134.52,101.69Z" fill="#d1d3d4"/>
        <path d="M134.52,115.66H69.61c-2,0-3.62-1.16-3.62-2.59s1.62-2.58,3.62-2.58h64.91c2,0,3.62,1.15,3.62,2.58S136.52,115.66,134.52,115.66Z" fill="#d1d3d4"/>
        <path d="M134.52,129.63H69.61c-2,0-3.62-1.16-3.62-2.59s1.62-2.59,3.62-2.59h64.91c2,0,3.62,1.16,3.62,2.59S136.52,129.63,134.52,129.63Z" fill="#d1d3d4"/>
        <path d="M134.52,143.6H69.61c-2,0-3.62-1.16-3.62-2.59s1.62-2.59,3.62-2.59h64.91c2,0,3.62,1.16,3.62,2.59S136.52,143.6,134.52,143.6Z" fill="#d1d3d4"/>
        <path id="curve3" d="M145.13,75.52l16.24,16.34-48.82,48.82-23,11.1a3.27,3.27,0,0,1-3.7-.62,3.17,3.17,0,0,1-.72-3.7l11.1-23.13Z" fill="url(#linear-gradient-10)"/>
        <path id="curve2" d="M112.55,140.68l-23,11.1a3.27,3.27,0,0,1-3.7-.62,3.17,3.17,0,0,1-.72-3.7l11.1-23.13Z" fill="url(#linear-gradient-11)"/>
        <path id="curve1" d="M96.83,148.28l-7.3,3.5a3.27,3.27,0,0,1-3.7-.62,3.17,3.17,0,0,1-.72-3.7l3.6-7.4Z" fill="url(#linear-gradient-12)"/>
        <path id="curve0" d="M163.73,89.49l-9.35,9.36L138.14,82.5l9.25-9.25a3.3,3.3,0,0,1,4.73,0l11.61,11.62A3.33,3.33,0,0,1,163.73,89.49Z" fill="url(#linear-gradient-13)"/>
      </g>
    </g>
  </g>
</svg>
