<svg xmlns="http://www.w3.org/2000/svg" viewBox="0 0 175.78 178.19">
  <title>Asset 7logo-icon</title>
  <g id="Layer_2" data-name="Layer 2">
    <g id="Taking_Payments" data-name="Taking Payments">
      <g>
        <ellipse cx="87.89" cy="89.09" rx="84.39" ry="85.6" fill="#1e67af"/>
        <path d="M102.58,89.08,89.48,75.8l-53.36,56,41.67,42.27a84.14,84.14,0,0,0,10.1.63c46.61,0,84.39-38.32,84.39-85.59,0-.13,0-.26,0-.39L148.91,65Z" fill="#29509b"/>
        <polygon points="103.21 45.48 90.17 68.53 125.94 68.53 103.21 45.48" fill="#29509b"/>
        <path d="M98.44,43.83H41.89a7.92,7.92,0,0,0-7.86,8v74.59a7.92,7.92,0,0,0,7.86,8H98.44a7.92,7.92,0,0,0,7.86-8V51.8A7.92,7.92,0,0,0,98.44,43.83Z" fill="#fff"/>
        <path d="M41.89,76A2,2,0,0,1,40,74V51.8a2,2,0,0,1,1.94-2H88.23a2,2,0,0,1,1.94,2V74a2,2,0,0,1-1.94,2Z" fill="#0bb6ea"/>
        <path d="M49.1,91H44.35a4.47,4.47,0,0,1,0-8.94H49.1a4.47,4.47,0,0,1,0,8.94Z" fill="#e5e8ec"/>
        <path d="M67.43,91H62.68a4.47,4.47,0,0,1,0-8.94h4.75a4.47,4.47,0,0,1,0,8.94Z" fill="#e5e8ec"/>
        <path d="M85.76,91H81A4.47,4.47,0,0,1,81,82h4.75a4.47,4.47,0,0,1,0,8.94Z" fill="#e5e8ec"/>
        <path d="M49.1,103.44H44.35a4.47,4.47,0,0,1,0-8.94H49.1a4.47,4.47,0,0,1,0,8.94Z" fill="#e5e8ec"/>
        <path d="M67.43,103.44H62.68a4.47,4.47,0,0,1,0-8.94h4.75a4.47,4.47,0,0,1,0,8.94Z" fill="#e5e8ec"/>
        <path d="M85.76,103.44H81a4.47,4.47,0,0,1,0-8.94h4.75a4.47,4.47,0,0,1,0,8.94Z" fill="#e5e8ec"/>
        <path d="M49.1,115.9H44.35a4.47,4.47,0,0,1,0-8.94H49.1a4.47,4.47,0,0,1,0,8.94Z" fill="#e5e8ec"/>
        <path d="M67.43,115.9H62.68a4.47,4.47,0,0,1,0-8.94h4.75a4.47,4.47,0,0,1,0,8.94Z" fill="#e5e8ec"/>
        <path d="M85.76,115.9H81A4.47,4.47,0,0,1,81,107h4.75a4.47,4.47,0,0,1,0,8.94Z" fill="#e5e8ec"/>
        <rect x="39.95" y="119.42" width="13.56" height="8.94" rx="3.34" ry="3.34" fill="#ef4c45"/>
        <rect x="58.28" y="119.42" width="13.56" height="8.94" rx="3.34" ry="3.34" fill="#e5e8ec"/>
        <rect x="76.61" y="119.42" width="13.56" height="8.94" rx="3.34" ry="3.34" fill="#3c9c46"/>
        <rect x="96.66" y="53.25" width="3.57" height="71.69" rx="1.35" ry="1.35" fill="#e5e8ec"/>
        <path d="M145.53,64H96.66v50.15h48.87a6.38,6.38,0,0,0,6.34-6.42V70.45A6.39,6.39,0,0,0,145.53,64Z" fill="#bed630"/>
        <rect x="96.66" y="74.05" width="55.21" height="12.85" fill="#444d5b"/>
        <rect x="96.66" y="93.69" width="13.11" height="3.5" fill="#abc437"/>
        <rect x="96.66" y="100.8" width="21.2" height="3.5" fill="#abc437"/>
        <polygon points="63.71 75.97 52.83 75.97 71.94 49.83 82.83 49.83 63.71 75.97" fill="#22d2fc"/>
        <polygon points="66.4 49.83 47.29 75.97 50.24 75.97 69.36 49.83 66.4 49.83" fill="#22d2fc"/>
        <path d="M87.89,3.5V7a80,80,0,0,1,57.18,24,83,83,0,0,1,0,116.13,80,80,0,0,1-114.36,0A83,83,0,0,1,30.71,31,80,80,0,0,1,87.89,7V0A87.08,87.08,0,0,0,25.72,26.11a90,90,0,0,0,0,126,87.06,87.06,0,0,0,124.33,0,90,90,0,0,0,0-126A87,87,0,0,0,87.89,0Z" fill="#fff"/>
      </g>
    </g>
  </g>
</svg>
