<svg xmlns="http://www.w3.org/2000/svg" width="206" height="206" viewBox="0 0 206 206">
  <title>customer-and-student-management</title>
  <g id="Layer_2" data-name="Layer 2">
    <g id="customer_and_student" data-name="customer and student">
      <g>
        <g>
          <circle cx="103" cy="103" r="103" fill="#00c0f3"/>
          <circle cx="103" cy="103" r="89.11" fill="#9ddcf9"/>
        </g>
        <path d="M112.85,46.28a57.57,57.57,0,0,1-.15,113.47" fill="none" stroke="#ee5a9b" stroke-miterlimit="10" stroke-width="8"/>
        <path d="M93.21,159.73a57.57,57.57,0,0,1-.06-113.45" fill="none" stroke="#ee5a9b" stroke-miterlimit="10" stroke-width="8"/>
        <g>
          <path d="M113.44,42.88l-1.18,6.8q2.56.45,5,1.12a2.72,2.72,0,0,0,0-.28,14.37,14.37,0,0,0-.38-3.24l3.22-2.84A61.39,61.39,0,0,0,113.44,42.88Z" fill="#a52a73"/>
          <path d="M92.56,42.88a61.39,61.39,0,0,0-6.69,1.56l3.22,2.84a14.37,14.37,0,0,0-.38,3.24,2.72,2.72,0,0,0,0,.28q2.46-.67,5-1.12Z" fill="#a52a73"/>
        </g>
        <g>
          <path d="M103,31.91A14.29,14.29,0,1,0,117.29,46.2,14.29,14.29,0,0,0,103,31.91Zm0,20.55a6.26,6.26,0,1,1,6.26-6.26A6.26,6.26,0,0,1,103,52.46Z" fill="#1dace3"/>
          <g>
            <path d="M103,31.91a14.5,14.5,0,0,1,4.19.62l-.9-4.45a1.47,1.47,0,0,0-1.44-1.18h-3.7a1.47,1.47,0,0,0-1.44,1.18l-.9,4.45A14.5,14.5,0,0,1,103,31.91Z" fill="#25c0e6"/>
            <path d="M116.92,43l3.48-3.06a1.49,1.49,0,0,0,.3-1.84l-1.85-3.2a1.46,1.46,0,0,0-1.74-.65l-4.43,1.49A14.29,14.29,0,0,1,116.92,43Z" fill="#25c0e6"/>
            <path d="M85.6,39.89,89.08,43a14.29,14.29,0,0,1,4.24-7.26L88.89,34.2a1.46,1.46,0,0,0-1.74.65l-1.85,3.2A1.49,1.49,0,0,0,85.6,39.89Z" fill="#25c0e6"/>
            <path d="M103,60.49a14.16,14.16,0,0,1-4.19-.62l.9,4.46a1.47,1.47,0,0,0,1.44,1.17h3.7a1.47,1.47,0,0,0,1.44-1.17l.9-4.46A14.16,14.16,0,0,1,103,60.49Z" fill="#25c0e6"/>
            <path d="M120.28,52.32l-3.34-3a14.26,14.26,0,0,1-4.14,7.23L117,58a1.46,1.46,0,0,0,1.73-.65l1.85-3.21A1.45,1.45,0,0,0,120.28,52.32Z" fill="#25c0e6"/>
            <path d="M89.06,49.37l-3.34,3a1.45,1.45,0,0,0-.3,1.83l1.85,3.21A1.46,1.46,0,0,0,89,58l4.2-1.41A14.26,14.26,0,0,1,89.06,49.37Z" fill="#25c0e6"/>
          </g>
          <path d="M103,37a9.19,9.19,0,1,0,9.18,9.18A9.18,9.18,0,0,0,103,37Zm0,15.44a6.26,6.26,0,1,1,6.26-6.26A6.26,6.26,0,0,1,103,52.46Z" fill="#1798d5"/>
        </g>
        <g>
          <g>
            <path d="M94.81,133.58h16.37a27.74,27.74,0,0,1,27.74,27.74v6.34a6.08,6.08,0,0,1-6.08,6.08H73.15a6.08,6.08,0,0,1-6.08-6.08v-6.34a27.74,27.74,0,0,1,27.74-27.74Z" fill="#1dace3"/>
            <path d="M128.39,137.69v36.05h5.29a5.24,5.24,0,0,0,5.24-5.24v-11A23.87,23.87,0,0,0,128.39,137.69Z" fill="#1798d5"/>
            <polygon points="116.03 133.59 108.79 130.47 108.79 133.59 103 142.61 97.21 133.59 97.21 130.47 89.97 133.59 103 168.93 103 168.93 116.03 133.59" fill="#d1d2d3"/>
            <path d="M90,133.58l5.47,14.83a.88.88,0,0,0,1.44.32l6.12-6.12-5.79-9v-3.11Z" fill="#fff"/>
            <path d="M116,133.58l-5.47,14.83a.88.88,0,0,1-1.44.32L103,142.61l5.79-9v-3.11Z" fill="#fff"/>
            <path d="M103,125.69a18.2,18.2,0,0,1-5.79-.94v6.35h0v2.49l5.79,9,5.79-9v-.72h0v-8.12A18.2,18.2,0,0,1,103,125.69Z" fill="#e5e6e6"/>
            <path d="M99.57,144h6.85a0,0,0,0,1,0,0v6.85a0,0,0,0,1,0,0H101.6a2,2,0,0,1-2-2V144A0,0,0,0,1,99.57,144Z" transform="translate(-74.1 116.02) rotate(-45)" fill="#ee5a9b"/>
            <path d="M104.24,151.07a1.76,1.76,0,0,1-2.48,0l-1.23-1.24-1.08,9.48,3.55,9.63,3.55-9.63-1.08-9.48Z" fill="#e23e90"/>
            <path d="M85.91,149.11,89,146.39a.87.87,0,0,0-.48-1.52l-3.62-.39a.87.87,0,0,1-.73-1.16l3.44-9.49a23.58,23.58,0,0,1,2.39-.22l13,35.33L85.85,150.36A.89.89,0,0,1,85.91,149.11Z" fill="#25c0e6"/>
            <path d="M120.09,149.11,117,146.39a.87.87,0,0,1,.48-1.52l3.62-.39a.87.87,0,0,0,.73-1.16l-3.44-9.49a23.58,23.58,0,0,0-2.39-.22l-13,35.33,17.15-18.58A.89.89,0,0,0,120.09,149.11Z" fill="#25c0e6"/>
            <rect x="111.24" y="166.48" width="14.25" height="2.46" rx="1.23" ry="1.23" fill="#25c0e6"/>
            <path d="M77.6,173.74V137.69a23.89,23.89,0,0,0-10.52,19.82v11a5.24,5.24,0,0,0,5.24,5.24Z" fill="#1798d5"/>
          </g>
          <g>
            <circle cx="103" cy="97.22" r="24.08" fill="#1798d5"/>
            <rect x="84.75" y="79.72" width="36.49" height="45.97" rx="18.25" ry="18.25" fill="#fff"/>
            <path d="M103,125.69a18.2,18.2,0,0,1-5.79-.94v3.48a18.16,18.16,0,0,0,5.79,1h0a18.16,18.16,0,0,0,5.79-1v-3.48A18.2,18.2,0,0,1,103,125.69Z" fill="#d1d2d3"/>
            <path d="M84.75,107.44v-5.7a5.88,5.88,0,0,0,0,11.76,5.47,5.47,0,0,0,1-.09A18.42,18.42,0,0,1,84.75,107.44Z" fill="#fff"/>
            <path d="M121.25,101.74v5.7a18.42,18.42,0,0,1-1,6,5.47,5.47,0,0,0,1,.09,5.88,5.88,0,0,0,0-11.76Z" fill="#fff"/>
            <path d="M103,123.07h0a18.25,18.25,0,0,1-18.25-18.25v2.62A18.25,18.25,0,0,0,103,125.69h0a18.25,18.25,0,0,0,18.25-18.25v-2.62A18.25,18.25,0,0,1,103,123.07Z" fill="#e5e6e6"/>
            <path d="M84.75,98v3.59a24,24,0,0,0,12-20.7A18.23,18.23,0,0,0,84.75,98Z" fill="#e5e6e6"/>
            <path d="M112.56,102.21a24.1,24.1,0,0,0,8.69-1.63V98A18.25,18.25,0,0,0,103,79.72h0a18.19,18.19,0,0,0-13.34,5.83A24.06,24.06,0,0,0,112.56,102.21Z" fill="#e5e6e6"/>
            <path d="M88.6,77.92A24.09,24.09,0,0,0,127,94.82,24.08,24.08,0,0,0,88.6,77.92Z" fill="#1dace3"/>
            <path d="M78.92,97.22a24.44,24.44,0,0,0,.22,3.23A24.08,24.08,0,0,0,96.73,77.27,24.56,24.56,0,0,0,96.51,74,24.07,24.07,0,0,0,78.92,97.22Z" fill="#1798d5"/>
            <g>
              <circle cx="95.24" cy="105.05" r="2.21" fill="#1dace3"/>
              <circle cx="112.39" cy="105.05" r="2.21" fill="#1dace3"/>
            </g>
            <g>
              <path d="M84.75,107.44v-3.2a3.38,3.38,0,0,0,0,6.76c.12,0,.23,0,.35,0A18.51,18.51,0,0,1,84.75,107.44Z" fill="#e5e6e6"/>
              <path d="M121.26,107.44v-3.2a3.38,3.38,0,0,1,0,6.76c-.12,0-.23,0-.34,0A18.51,18.51,0,0,0,121.26,107.44Z" fill="#e5e6e6"/>
            </g>
          </g>
        </g>
        <g>
          <rect x="29.86" y="85.71" width="31.13" height="26.74" fill="#1798d5"/>
          <g>
            <path d="M40.13,110.33H50.75a18,18,0,0,1,18,18v4.11a3.94,3.94,0,0,1-3.94,3.94H26.08a3.94,3.94,0,0,1-3.94-3.94v-4.11A18,18,0,0,1,40.13,110.33Z" fill="#1dace3"/>
            <path d="M40.13,110.33H50.75a18,18,0,0,1,18,18v4.11a3.94,3.94,0,0,1-3.94,3.94H26.08a3.94,3.94,0,0,1-3.94-3.94v-4.11a18,18,0,0,1,18-18Z" fill="#a52a73"/>
            <path d="M41.14,125.21a5.11,5.11,0,0,0,8.61,0l8.91-13.9a15.53,15.53,0,0,0-5.44-1H37.66a15.57,15.57,0,0,0-5.44,1Z" fill="#ee5a9b"/>
            <path d="M48.3,124.1l8.56-13.34a15.57,15.57,0,0,0-3.64-.43H37.66a15.63,15.63,0,0,0-3.64.43l8.56,13.34A3.39,3.39,0,0,0,48.3,124.1Z" fill="#e23e90"/>
            <polygon points="36.99 110.33 43.05 119.78 45.44 116.18 41.69 110.33 36.99 110.33" fill="#ef6ea7"/>
            <polygon points="53.89 110.33 47.83 119.78 45.44 116.18 49.2 110.33 53.89 110.33" fill="#ef6ea7"/>
            <circle cx="45.44" cy="120.32" r="0.85" fill="#ee5a9b"/>
            <path d="M29,136.38h1.74V112A15.84,15.84,0,0,0,29,113Z" fill="#ee5a9b"/>
            <path d="M60.17,136.38h1.74V113a15,15,0,0,0-1.74-1Z" fill="#ee5a9b"/>
            <path d="M29,136.38V113a15.51,15.51,0,0,0-6.83,12.86V133a3.4,3.4,0,0,0,3.4,3.4Z" fill="#e23e90"/>
            <path d="M61.92,113v23.39h3.42a3.4,3.4,0,0,0,3.4-3.4v-7.13A15.5,15.5,0,0,0,61.92,113Z" fill="#e23e90"/>
          </g>
          <g>
            <circle cx="45.44" cy="86.74" r="15.62" fill="#1798d5"/>
            <rect x="33.61" y="75.39" width="23.67" height="29.82" rx="11.84" ry="11.84" fill="#fff"/>
            <path d="M45.44,105.21a11.93,11.93,0,0,1-3.75-.61v5.73l3.75,5.85,3.76-5.85h0V104.6A12,12,0,0,1,45.44,105.21Z" fill="#e5e6e6"/>
            <path d="M45.44,105.21a11.93,11.93,0,0,1-3.75-.61v2.26a11.86,11.86,0,0,0,7.51,0V104.6A12,12,0,0,1,45.44,105.21Z" fill="#d1d2d3"/>
            <path d="M45.44,103.51h0A11.83,11.83,0,0,1,33.61,91.67v1.7a11.83,11.83,0,0,0,11.83,11.84h0A11.84,11.84,0,0,0,57.28,93.37v-1.7A11.84,11.84,0,0,1,45.44,103.51Z" fill="#e5e6e6"/>
            <path d="M33.61,87.23v2.33a15.62,15.62,0,0,0,7.76-13.44A11.84,11.84,0,0,0,33.61,87.23Z" fill="#e5e6e6"/>
            <path d="M51.64,90a15.54,15.54,0,0,0,5.64-1.06V87.23A11.84,11.84,0,0,0,45.44,75.39h0a11.82,11.82,0,0,0-8.66,3.78A15.63,15.63,0,0,0,51.64,90Z" fill="#e5e6e6"/>
            <path d="M36.1,74.22A15.62,15.62,0,0,0,61,85.18a15.62,15.62,0,0,0-24.88-11Z" fill="#1dace3"/>
            <path d="M29.82,86.74a16.22,16.22,0,0,0,.14,2.1,15.63,15.63,0,0,0,11.41-15,16.22,16.22,0,0,0-.14-2.1A15.63,15.63,0,0,0,29.82,86.74Z" fill="#1798d5"/>
            <g>
              <circle cx="40.41" cy="91.82" r="1.43" fill="#1dace3"/>
              <circle cx="51.53" cy="91.82" r="1.43" fill="#1dace3"/>
            </g>
          </g>
        </g>
        <g>
          <g>
            <path d="M153,110.35h17.67a14.44,14.44,0,0,1,14.44,14.44v8.41a3.16,3.16,0,0,1-3.16,3.16H141.71a3.16,3.16,0,0,1-3.16-3.16V124.8A14.44,14.44,0,0,1,153,110.35Z" fill="#1dace3"/>
            <path d="M153,110.35h17.67a14.44,14.44,0,0,1,14.44,14.44v8.41a3.16,3.16,0,0,1-3.16,3.16H141.71a3.16,3.16,0,0,1-3.16-3.16V124.8A14.44,14.44,0,0,1,153,110.35Z" fill="#fcdd3b"/>
            <path d="M161.83,114.41c3.22,0,5.83-1.81,5.83-4.06H156C156,112.6,158.61,114.41,161.83,114.41Z" fill="#e5ac26"/>
            <rect x="138.55" y="130.08" width="6.82" height="6.3" fill="#fff"/>
            <rect x="142.97" y="130.08" width="2.41" height="6.3" fill="#e5e6e6"/>
            <rect x="178.29" y="130.08" width="6.82" height="6.3" fill="#fff"/>
            <rect x="178.29" y="130.08" width="2.59" height="6.3" fill="#e5e6e6"/>
            <path d="M145.37,130.08V113a15.48,15.48,0,0,0-6.82,12.85v4.22Z" fill="#e5ac26"/>
            <path d="M178.29,113v17.07h6.82v-4.22A15.51,15.51,0,0,0,178.29,113Z" fill="#e5ac26"/>
            <path d="M161.83,105.24a11.93,11.93,0,0,1-3.75-.61v4.12h0v1.6a4.45,4.45,0,0,0,7.5,0v-.51h0v-5.21A11.93,11.93,0,0,1,161.83,105.24Z" fill="#e5e6e6"/>
            <g>
              <g>
                <path d="M169.6,110.35h0c.28,0,.56,0,.84,0C170.16,110.37,169.88,110.35,169.6,110.35Z" fill="#e5ac26"/>
                <path d="M172.43,110.62l.76.16Z" fill="#e5ac26"/>
                <path d="M171.45,110.47c.29,0,.57.07.85.12C172,110.54,171.74,110.5,171.45,110.47Z" fill="#e5ac26"/>
                <path d="M170.64,110.39c.27,0,.54,0,.81.08C171.18,110.43,170.91,110.41,170.64,110.39Z" fill="#e5ac26"/>
              </g>
              <g>
                <path d="M154.05,110.35h0c-.28,0-.56,0-.83,0C153.49,110.37,153.77,110.35,154.05,110.35Z" fill="#e5ac26"/>
                <path d="M152.21,110.47c.27,0,.54-.06.81-.08C152.75,110.41,152.48,110.43,152.21,110.47Z" fill="#e5ac26"/>
                <path d="M150.47,110.78l.76-.16Z" fill="#e5ac26"/>
                <path d="M151.36,110.59q.42-.07.84-.12Q151.78,110.52,151.36,110.59Z" fill="#e5ac26"/>
              </g>
            </g>
          </g>
          <g>
            <circle cx="161.83" cy="86.76" r="15.63" fill="#1798d5"/>
            <rect x="149.98" y="75.39" width="23.69" height="29.84" rx="11.04" ry="11.04" fill="#fff"/>
            <path d="M161.83,105.24a11.93,11.93,0,0,1-3.75-.61v2.25a11.65,11.65,0,0,0,7.5,0v-2.25A11.93,11.93,0,0,1,161.83,105.24Z" fill="#d1d2d3"/>
            <path d="M150,93.39v-3.7a3.82,3.82,0,0,0,0,7.63,4.62,4.62,0,0,0,.65,0A11.88,11.88,0,0,1,150,93.39Z" fill="#fff"/>
            <path d="M173.68,89.69v3.7a11.88,11.88,0,0,1-.65,3.88,4.51,4.51,0,0,0,.65,0,3.82,3.82,0,0,0,0-7.63Z" fill="#fff"/>
            <path d="M161.83,103.54h0A11.86,11.86,0,0,1,150,91.69v1.7a11.86,11.86,0,0,0,11.85,11.85h0a11.86,11.86,0,0,0,11.85-11.85v-1.7A11.86,11.86,0,0,1,161.83,103.54Z" fill="#e5e6e6"/>
            <path d="M150,87.24v2.33a15.6,15.6,0,0,0,7.77-13.44A11.83,11.83,0,0,0,150,87.24Z" fill="#e5e6e6"/>
            <path d="M168,90a15.58,15.58,0,0,0,5.64-1.07V87.24a11.86,11.86,0,0,0-11.85-11.85h0a11.84,11.84,0,0,0-8.67,3.79A15.65,15.65,0,0,0,168,90Z" fill="#e5e6e6"/>
            <path d="M152.48,74.22a15.63,15.63,0,0,0,24.9,11,15.63,15.63,0,0,0-24.9-11Z" fill="#1dace3"/>
            <path d="M146.19,86.76a15.94,15.94,0,0,0,.15,2.09,15.64,15.64,0,0,0,11.42-15,16.22,16.22,0,0,0-.15-2.1A15.65,15.65,0,0,0,146.19,86.76Z" fill="#1798d5"/>
            <g>
              <circle cx="156.79" cy="91.84" r="1.44" fill="#1dace3"/>
              <circle cx="167.92" cy="91.84" r="1.44" fill="#1dace3"/>
            </g>
            <g>
              <path d="M150,93.39V91.31a2.2,2.2,0,0,0,0,4.39l.23,0A11.55,11.55,0,0,1,150,93.39Z" fill="#e5e6e6"/>
              <path d="M173.69,93.39V91.31a2.2,2.2,0,0,1,0,4.39l-.23,0A11.55,11.55,0,0,0,173.69,93.39Z" fill="#e5e6e6"/>
            </g>
          </g>
        </g>
      </g>
    </g>
  </g>
</svg>
