<svg xmlns="http://www.w3.org/2000/svg" viewBox="0 0 203.05 178.19">
  <title>Asset 4logo-icon</title>
  <g id="Layer_2" data-name="Layer 2">
    <g id="Direct_Debit_v1" data-name="Direct Debit v1">
      <g>
        <path d="M192.93,0l-165,1.14a9.39,9.39,0,0,0-9.33,9.45l.67,97.61a9.4,9.4,0,0,0,9.46,9.33l165-1.14a9.39,9.39,0,0,0,9.32-9.45l-.67-97.62A9.39,9.39,0,0,0,192.93,0Z" fill="#e5e8ec"/>
        <polygon points="202.57 41.44 202.44 17.73 18.6 17.73 18.73 41.44 202.57 41.44" fill="#535e6f"/>
        <g>
          <path d="M36.83,117.47,34,120.53l-20.3.48a12.9,12.9,0,0,0,1.33-1.9l4.29-7.55Z" fill="#de9f75"/>
          <path d="M174.37,60.67,9.32,61.8A9.39,9.39,0,0,0,0,71.25l.67,97.62a9.39,9.39,0,0,0,9.45,9.32l165-1.14a9.39,9.39,0,0,0,9.33-9.45L183.83,70A9.39,9.39,0,0,0,174.37,60.67Z" fill="#535a85"/>
          <path d="M99.31,81.6a4,4,0,0,1,1.54-.09,2.42,2.42,0,0,0,1.64,1c0,1.08,4.44,2.42,5.5,2.12.53-.14.62-.5,1.23-.63a10.43,10.43,0,0,1,1.37,0c1-.05,1.92-.1,2.89-.13a1.93,1.93,0,0,0,.35-.82c-1-.41-3,.28-3.43-1.4.33-.41,0-.78.18-1.26s.41-.35.6-.66a2.57,2.57,0,0,1,1.65-1.47,9.32,9.32,0,0,0,2.09-.86c.55-.37.85-.94,1.62-.77a.79.79,0,0,0,.94.3c-.32.58-1,0-1.36.29s0,.8-.29,1c-.57.53-1.5,0-1.74,1-1.08.09-1-.17-1.34.74a1.27,1.27,0,0,0,.32,1.62c.46.41,1.11.33,1.65.57s1,.82,1.84.71c.09.46.15.53.55.59.13-.35-.12-1.83.16-2.11s.77.1,1-.07c.49-.29.52-1.36.67-1.87,1-.15.69,1.26.73,1.86.41,0,1.7-1,2.19-1.25.7-.34,1-.66,1.63-.94a13.36,13.36,0,0,1,2.55-.25,5.48,5.48,0,0,0,3.52-2.21c.59.15,1.64.84,1.66-.39,1.27,0,2.23-.35,3.21.43s.74.57,1.88.63c.67,0,1.13-.23,1.24.76.3,0,.55.23.85.24.21,1.86.19,1.17,1.74,1.51a1.39,1.39,0,0,1,1,.49,1.91,1.91,0,0,0,.21-1.11c1.55-.62,2.62,1.84,3.67,2.22.84.31,3.14-.17,3.95-.43,0-.15.06-.37,0-.53a7.08,7.08,0,0,1,3.76.31c.33.09.89,0,1.18.16s.13.35.22.39c.48.28.49.6,1.32.55.51,0,.82-.46,1.37-.43.72,0,1.18.78,1.85.94s1.6.09,2.2.19,1.37.62,1.64-.32a6.56,6.56,0,0,1,3.07.62c.29.12.59.36,1,.51s.94.18,1.39.33a5.86,5.86,0,0,1,2,1c.46.46.4,1.08.83,1.59-1.32.13-1.61,1.17-3,1-.75-.07-1.54-.14-1.6-1.1-1.24-.06-.23,1.47-.62,2s-1.56,0-2.18.26-.5.71-1.15.92c-.48.15-1.5-.24-1.88,0s-.51,1.45-.68,1.9a11.21,11.21,0,0,1-1.12,2.18c-.54.8-1.39,2.75-2.46,2.81-.17-.75-.89-1.43-.84-2.18a11.93,11.93,0,0,1,.51-1.71c.33-.83.69-.58,1.22-1.17a3.57,3.57,0,0,0,.45-1c.22-.52.86-.63.25-1.24a1.61,1.61,0,0,0-1.64.06c-.83.77-.15,2-1.86,1.64s-3.54-1-5,.58c-.39.42-.38.93-.85,1.32s-1.13.14-.91.86a16.14,16.14,0,0,0,1.8,1.54.75.75,0,0,1,.92-.27c.78.37.21,1.14.16,1.59a17.13,17.13,0,0,0,.15,2.5c0,.18.2.38.12.62s-.45.42-.45.46c-.11.65-.4.51.56.57,1.14.06,1.73-1,2.77-1.23.26,1.13-.72,1.67-1.6,2-.25.1-1.11.19-1.28.3-.79.56-1,2.43-1.2,3.32a3.75,3.75,0,0,1-.66,1.56c-.51.48-1.33.28-1.9.65-.85.55-1.15,1.4-2.31,1.58-.51-1.35.53-1.34,1.34-1.89,1-.72.58-1.87,2.17-1.77.38-1.55,1.24-2.65,1.21-4.2,0-.83-.07-1.69,0-2.51a7,7,0,0,0,.14-2.07,37,37,0,0,0-2,3.45c-.34.65-.36,1.38-1,1.79s-1.08.19-1.5.51-.69,1.15-1.43,1.41c0,.67,1.27,3.89-.8,3.16-.08-1.27,0-2.59-1.68-2.45.18-1-.83-.8-1.51-.77-.31,1.58.31.92,1.18,1.65-.62.8-.06,1.78,0,2.65a6.61,6.61,0,0,1-.14,2.77A6.24,6.24,0,0,1,136.3,114c-.94.19-1.54.17-1.78,1.29a9.08,9.08,0,0,0,.44,3.59c.26,1.37.22,2.07-1.31,1.87-.94-.13-1-.53-1.69-.84-.93,2.07,1.38,3.54,1.25,5.38-1.06.26-1.47-1.53-1.93-2.28-.74-1.21-.54-2.56-.88-3.91-.13-.5-.09-1.43-.44-1.73s-.67.12-.91,0c-.47-.31-.22-.73-.33-1.26s-.38-1.72-1.07-2-1.72.89-2.37,1.33a5.9,5.9,0,0,0-2.54,3.89c0,.64.6,1.53.07,2.12s-1.94,0-2.25-.61.21-2.17.1-3a6.27,6.27,0,0,0-1.23-2.7c-.39-.43-1-.58-1.39-1.15-.51-.74-.06-1-1.16-1.44s-2.71-.24-4-.73c-.27-.1-.35-.49-.62-.59s-.71,0-1.08-.14c-.84-.43-1.36-1.44-2.36-1.77.23.85.44,2.47,1.2,3s2.09.35,2.91.32a8.28,8.28,0,0,1,.51,1.68c.1.78.38.17-.25.85a27.15,27.15,0,0,1-2.84,2c-.89.7-2.61,2.75-3.58,1.19-.24-.4-.07-.76-.16-1.17a3.25,3.25,0,0,0-.59-1.28,24.7,24.7,0,0,1-1.4-2.7c-.32-.7-1-2.48-1.87-2.14-.08.55.43,1.24.52,1.85a11.35,11.35,0,0,0,.1,1.44c.24.91.76.78,1.17,1.44a10.24,10.24,0,0,1,.31,2,3.53,3.53,0,0,0,.66,1.59,10.26,10.26,0,0,0,.79,1.22,4.28,4.28,0,0,0,3.42-.06c.73,1.77-1.07,2-1.7,3.31-.31.63-.25,1.49-.62,2.07s-.75.61-1,1.08-.16.71-.31,1-.64.64-.8,1c-.37.77-.1,2.18-.09,3,0,1.25.28,3.39-.69,4.3-.29.28-.75,0-1,.39s-.09.76-.12,1.11c-.06.76-.1,1.52-.2,2.26-1.34.37-.81,1.88-1.24,2.85a4,4,0,0,1-1.94,1.82c-1,.48-2.26,1-3.19.38s-1-1.51-1.3-2.3a41.33,41.33,0,0,1-2.17-5.51c-.48-1.85-.11-3.82,0-5.67a14.94,14.94,0,0,0,.09-2.84c-.15-1-1-1.69-1.16-2.7-.08-.44,0-.91,0-1.35-.11-.93,0-.67-.78-.92a11.11,11.11,0,0,0-2.83-.3c-1.94-.08-5.18.76-6.39-1A13.63,13.63,0,0,1,81,119.53c-.62-1.67-1.07-2.27-.47-4.1a46.48,46.48,0,0,1,1.27-4.54,6.37,6.37,0,0,1,1.25-1.84,19.06,19.06,0,0,0,1.24-1.59c.94-1.2,2.36-.37,3.74-1a9.07,9.07,0,0,1,4.67-1c.3.88-.15,1.48-.17,2.33s-.36.32.44.87a8.61,8.61,0,0,0,1.34.62c1,.43,3.35,1.13,3.22-.85,1.71-.18,3.2,1,5,.69a1.52,1.52,0,0,0,.17-3c-.82-.16-1.48,0-2.23-.5s-.64-1.28-1.18-2.07c-.39-.56-1-1.14-1.46-.31-.35.59.47,1.88.45,2.59-2,1-1.57-1.86-2-2.72-.33-.65-1.17-.85-1.67-1.31s-.64-1.46-1.17-1.62c-.53,2,2.13,2.08,1.73,3.69a5.19,5.19,0,0,1-1.24,1.8c-1.3.26-.24-1.12-.24-1.46a4.28,4.28,0,0,0-2.21-2.67c-.87-.18-1.17.42-1.65.94-.7.77-1.15.7-1.95,1.17-1.22.72-2,2.51-3.76,1.41a2,2,0,0,1-.87-1.79c.07-1.37,1.15-1,2.42-1.36,1-.27,1.74-.46,1.37-1.77-.28-1-1.42-1.31-.48-2.27.33-.33,1-.27,1.31-.52s.35-.38.69-.76c.2-.22.3-.57.55-.75s.75-.11,1.08-.28c1.55-.81.5-1.82,1-3,.34-.73,1-.33,1.41.45s-.19,1,.67,1.64a3.29,3.29,0,0,0,1.46.33c.82-.09,2.17-1,2.15-1.86,0-1.4.37-1.07,1.14-.29.23-.53-.25-1.18.2-1.63s1.41,0,2-.18c.71-.23,1-.58.33-1.06s-1.26.14-1.89.25c-1.05.2-1-.23-1.15-1.07a1.74,1.74,0,0,1,.38-1.64c.25-.41,1-1.24.48-1.8s-1.55.06-1.91.52a7.44,7.44,0,0,0-1.11,4.32c0,1-.58,3.78-2.13,2.27-.66-.63-.1-1.44-1.22-1.52-.73-.06-1.25.72-2.08.38-1.53-.63-.15-3,.76-3.74.67-.54,1.55-.73,2.2-1.32A4.1,4.1,0,0,0,94,85.36c.11-.35-.21-.85-.11-1.14.36-1,2.25-1.15,3.13-1.37a2.3,2.3,0,0,0,1.35-.77C98.71,81.75,98.55,81.48,99.31,81.6Z" fill="#4c4c78"/>
          <path d="M129.19,123.3c1.36,0,2.09,1.94,3,2.67a11.56,11.56,0,0,1,1.6,1.24c.46.56.36,1.14,1.15,1.45.09-.26,0-.67.08-.94s.42-.68.54-1a2.37,2.37,0,0,1,1.24-1.72c1.45-1,1.9-2.18,2.61-3.78s-.18-3.52.91-4.89c.8-1,1.38.09,1.57,1.08.08.42,0,.84.12,1.24s.58.93.63,1.4-.22.72-.2,1.07.49.77.31,1.2c-.42,1-1.74.07-1.68-.82-.24.39-1,1-1.1,1.24s.11.64,0,.89-.86.77-.94,1.09c-.49,1.89,2.44.53,3,.29.26-.11.64-.06.86-.16.37-.17-.17-.67.73-.52s.71,1.16,1.22,1.7,1.54.5,2.27.7c.94.26,1,1,1.71,1.35.91.42,2.09-.48,3-.34.77.11,1.25,1.2,1.93,1.11a2,2,0,0,0,0-1.45c1.6-.58,2.19.93,1.14,2-.36.37-1.58.73-1.67,1.36-.11.79,1.15.75.89,1.78-1.26.18-1.55,0-2.17-.88-.18-.25-.16-.73-.58-.83-.63-.17-.48.34-.87.5s-1.61.54-2.09,0,0-1.43-.62-2a7.72,7.72,0,0,0-2-1.07c-.27-.11-.55.07-.84-.11s-.29-.55-.55-.71a1.91,1.91,0,0,0-2.08-.09c-.74.63,0,1.33,0,2.16a1.08,1.08,0,0,1,.33,2c-.92.55-1.44-.53-2.08-.6-.87-.08-1.51.57-2.57.32a14,14,0,0,1-2.5-1.1,14.77,14.77,0,0,1-2.07-.69,9.55,9.55,0,0,1-1.9-1.74,12.64,12.64,0,0,1-1.19-1.79A13.6,13.6,0,0,1,129.19,123.3Z" fill="#4c4c78"/>
          <path d="M137.27,140.32a3,3,0,0,1,.55-2c.58-1,.66-.85,1.76-1,1.44-.14.92-.69,1.73-1.71.48-.6,1.06-.52,1.6-1s.7-1.35,1.12-1.87.16-.51.89-.5a2.65,2.65,0,0,1,1.31.53c1.27,1.18.66,2.69,2.8,2.82,0-1.13-.17-3.17,1.73-2.59.92.29,1.32,1.5,1.57,2.38a11.62,11.62,0,0,0,.9,2.32c1.24,2.49,1.94,4.92.88,7.49a9.43,9.43,0,0,0-.74,3c0,.64.16,1.37-.22,1.94-.63.94-1.44.22-2.13-.37s-.7-1.25-1.06-2.06c-.59-1.29-2.52-1.88-3.61-2.78a4.11,4.11,0,0,0-4.32-.61c-1.24.42-3.66,2.12-4.21.43C137.45,143.68,138.55,141.29,137.27,140.32Z" fill="#4c4c78"/>
          <path d="M106.84,138.15a4.07,4.07,0,0,1,.31-1.51c.1-.45.09-.8.19-1.27.32-1.5,2-.53,2.16-2.08a5.46,5.46,0,0,1,.22,2.64c-.13.75-.61,1.35-.71,2.12-.15,1.17-.45,3.11-2.25,2.35A3.33,3.33,0,0,1,106.84,138.15Z" fill="#4c4c78"/>
          <path d="M64.63,123.43a6.92,6.92,0,0,1,1.18,3.39c2.09-.11,3.67.94,5.41,1.85.83.43,1.45.58,1.54,1.72.1,1.29-.86,1.14-1.44,2s-.27,2-.71,2.92a7,7,0,0,0-.71,1.28c-.18.69,0,1.07-.33,1.72a3.65,3.65,0,0,1-.74.91c-.13.14-.36.12-.47.27-.25.31-.16.68-.35.94-.33.45-.64.4-1,.83a4,4,0,0,0-.54,1.3c-.54,1.3-2.56,4.66-4.27,2.92-.34,1.39.3,3.3-1.9,3.13,0,1.63-1.24,2.17-1.66,3.56-.2.69.09,1.16.13,1.81.08,1.34-.87,1.24-1.27,2.2-.24.57.52,5.22-1.2,2.54A8.14,8.14,0,0,1,54.9,153c.09-.89.58-1.64.71-2.49a26.6,26.6,0,0,0,.08-3,61,61,0,0,1,1.05-6.26,10.44,10.44,0,0,0,.23-3.2,3.34,3.34,0,0,0-1.39-2.56c-1.31-1.1-1.31-2.9-2.14-4.31-.47-.79-1.37-1.41-1.49-2.38-.08-.68.18-.87.44-1.49a11.43,11.43,0,0,0,.38-1.77,8.41,8.41,0,0,1,1.31-2.67c.31-.42,1-.88,1.22-1.36s0-1.13,0-1.56a11.15,11.15,0,0,1,6.4,1.39,3.3,3.3,0,0,1,.88.52c.17.18,0,.61.17.72A4.45,4.45,0,0,0,64.63,123.43Z" fill="#4c4c78"/>
          <path d="M64.79,71.6a12.75,12.75,0,0,0,2-.17c1-.14,1.15-.49,1.89-.77,1.13-.42,2.68-.13,3.88-.35a5.69,5.69,0,0,1,4,.36C77.27,71,80,72.44,78,73c1.47.09,2.49-.55,3.94-.51.21,1.22-1.69,2.36-2,3.57-.33,1.38.58,2.46-.7,3.27-.8.51-.89.26-1.09,1.13s.07,1.24-.58,2a5.05,5.05,0,0,1-1.76,1.28c-.76.27-1.64-.07-2.39.22-.91.35-.74.92-1.14,1.67-.56,1-1.68,1-2.77,1.06-.06,2.17-1.44,5.87-4,3-.78-.86-.94-2.39-1.07-3.52a5.31,5.31,0,0,1,0-1.38c.14-.61.62-.88.73-1.53-.67-.26-1.35.18-2,0-.14-1.5.91-.66,1.12-1.61-1.73-.21-.73-1.24-1.14-2.41s-2-1.46-3.05-1.66c-.92-.18-2,.14-2.86-.07s-2.51-1.68-.69-1.65c-.16-.12-.28-.34-.43-.46.56-.32,3.36-.11,2.12-1.54a28,28,0,0,1,4.41-1.52C63.75,72.1,65,72,64.79,71.6Z" fill="#4c4c78"/>
          <path d="M46.61,75a3.92,3.92,0,0,0-.32-1.23c0,.06-.49-.79-.42-.51-.07-.27-.58-.26-.1-.64.25-.19,1.48,0,1.81,0,1.75-.06,3.44-.86,5.19-1.07s3.68-.85,5.47-.76c3.07.15-.18,2.26-1.34,2.83a4.71,4.71,0,0,0-2.53,1.94c-.41.7-.5,2.3-1.52,2.35-.08,2,.33,3.28,2.33,3.66.89.17,1.37.12,1.94,1,.35.55.36,1.52,1.05,1.85s1.88-.51,2.38.42a2.82,2.82,0,0,1-.61,2.24c-.22.18-.53.06-.75.24-.52.42-.17.42-.49,1.13s-.57.53-1.48.53-2.24-.16-1.44,1.12c.42.67,1.27.78,1.55,1.66,1.12.3.91-.93,1.78-.83s.88,1.42,1.18,1.93.11.38.62.75,1.27.4,1.63.93a4,4,0,0,1,.24,1.63,14.72,14.72,0,0,1-3.88,1c-.86.2-2.47,1.35-2.17,2.44a2.18,2.18,0,0,1,1.92-1.3c1,.11.46.7.58,1.52a13.7,13.7,0,0,0,1.4.17c.59,2.42-2.23,1.29-3.16,1.87-.61.39-.5,1.37-1.23,1.78s-1,0-1.55,1a30.6,30.6,0,0,0-1.49,3.92,13.08,13.08,0,0,0-1,2.06c-.09.69.4,1.31.3,2.06-1,.23-.81-.44-1-1-.34-.87-.77-1.69-2-1.81a7.77,7.77,0,0,0-3.72.93,5.21,5.21,0,0,0-1,4.43,2.18,2.18,0,0,0,1.87,1.35c1.36.22,1.21-.79,2.27-1.21.87-.34,1.07.11,1,1,0,1.2-.38,1.15.68,2.09a9.09,9.09,0,0,1,2.66,3c.84,2.22-1.65.87-2.6.07a22.41,22.41,0,0,1-1.53-1.74,10.13,10.13,0,0,0-3-1.66c-1.71-.8-5-1.13-5.33-3.48a6.72,6.72,0,0,0-1.64-3.28c-.56-.8-.64-2.64-1.81-2.77,0,1.82,1.84,3.18,1.83,5-1.42.58-1.51-2.27-2-3-.72-1-1.35-2.15-2.12-3.21-1.07-1.48-2.36-2.18-2.39-4.08,0-1.62.59-3.26.49-4.83s-2-1.28-2.7-2.66c-.93-1.8-.44-2.6-2.47-3.59-1.81-.89-5.6-3.22-7.57-1.72-1,.76-1.59,1.9-2.65,2.65a13.21,13.21,0,0,1-4.63,2.51c.05-.79,2.46-1.25,3.05-1.91.41-.46.75-1.12,1.18-1.64C16.82,90.89,15,91.7,15,89.76c0-1,.21-.68.7-1.28.24-.29.6-.46.37-1.12-.53-.12-2.42,0-2.36-.89s1.3-.39,1.51-.8c.32-.62-.29-.69-.36-.91-.37-1-.4-1,.58-1.45s2.15-.46,3.1-.77a4.68,4.68,0,0,1,3.51,0,18.09,18.09,0,0,0,5.58,1,9.15,9.15,0,0,0,3.87-.84,2.56,2.56,0,0,1,1.81-.33c1.87.36,3.12,1.91,4.77,2.49.41.14,2.52.69,3,.31s.21-.92.42-1.33c-1.06-.68-1.88.61-3,.35a8.44,8.44,0,0,1-3-1.67,2.94,2.94,0,0,1,2.07,0,16.86,16.86,0,0,1-3.73-.94,1.59,1.59,0,0,1-1.05-1.94c.93-.16,2.68.72,3.45.35,1.18-.56-.39-1.18-1.19-1.39s-2.71-.24-1.58-1.32,2.81,0,3.86-.6c.3-.16.2-.56.46-.72.56-.35,1-.14,1.6-.31,1.26-.36.76-1.51,2.22-1.22C42,74.49,47,77.19,46.61,75Z" fill="#4c4c78"/>
          <path d="M14.37,132.51l4.1,0,.07,10.13-2.17,0-.06-8.21H14.38Z" fill="#fff"/>
          <path d="M24.88,136.38a1.78,1.78,0,0,0,.38-1,1.15,1.15,0,0,0-.34-.85,1.17,1.17,0,0,0-.86-.33q-.94,0-1.8,1.38l-1.82-1.07A5.73,5.73,0,0,1,22,132.79a3.76,3.76,0,0,1,2.15-.58,3.48,3.48,0,0,1,2.32.81,2.82,2.82,0,0,1,1,2.27,3,3,0,0,1-.38,1.5,10.18,10.18,0,0,1-1.46,1.84l-1.82,1.92,4,0,0,2-7.15,0v-1.69l2.95-3.06A11.38,11.38,0,0,0,24.88,136.38Z" fill="#fff"/>
          <path d="M33.17,138.13l0-1.77h2.18v1.77h1.15v2H35.35l0,2.43H33.2l0-2.42-4.07,0,0-1.73,3.57-6,2.47,0-3.4,5.78Z" fill="#fff"/>
          <path d="M44.39,132.3v2l-4,0V136a4,4,0,0,1,1-.14,3.87,3.87,0,0,1,2.53.87,3,3,0,0,1,1.08,2.38A3.2,3.2,0,0,1,44,141.57a3.93,3.93,0,0,1-2.7,1,4.46,4.46,0,0,1-3.45-1.5L39,139.41l.35.32a5.46,5.46,0,0,0,.8.49,2.44,2.44,0,0,0,1.17.31,1.65,1.65,0,0,0,1-.36,1.19,1.19,0,0,0,.44-1,1.23,1.23,0,0,0-.49-1,2,2,0,0,0-1.26-.36,3.79,3.79,0,0,0-1.77.56l-.95-1,0-4.95Z" fill="#fff"/>
          <path d="M57.86,132.21l4.1,0L62,142.31l-2.17,0-.06-8.21H57.87Z" fill="#fff"/>
          <path d="M68.37,136.09a1.84,1.84,0,0,0,.38-1.06,1.11,1.11,0,0,0-.34-.84,1.14,1.14,0,0,0-.86-.34c-.63,0-1.23.46-1.8,1.38l-1.82-1.06a5.65,5.65,0,0,1,1.55-1.68,3.76,3.76,0,0,1,2.15-.58,3.44,3.44,0,0,1,2.32.82A2.79,2.79,0,0,1,71,135a3,3,0,0,1-.38,1.5,9.85,9.85,0,0,1-1.46,1.84l-1.82,1.92,4,0,0,2-7.15.05v-1.68l2.95-3.07A12.17,12.17,0,0,0,68.37,136.09Z" fill="#fff"/>
          <path d="M76.66,137.83l0-1.77h2.18v1.77H80v2H78.84l0,2.42H76.69l0-2.42-4.07,0,0-1.73,3.57-6,2.47,0-3.4,5.78Z" fill="#fff"/>
          <path d="M87.88,132v2l-4,0v1.7a4,4,0,0,1,1-.14,3.87,3.87,0,0,1,2.53.87,3,3,0,0,1,1.08,2.38,3.2,3.2,0,0,1-1.08,2.48,3.93,3.93,0,0,1-2.7,1,4.46,4.46,0,0,1-3.45-1.5l1.18-1.66.35.32a5.46,5.46,0,0,0,.8.49,2.44,2.44,0,0,0,1.17.31,1.65,1.65,0,0,0,1-.36,1.19,1.19,0,0,0,.44-1,1.24,1.24,0,0,0-.49-1.05,2,2,0,0,0-1.26-.36,3.79,3.79,0,0,0-1.77.56l-1-1,0-5Z" fill="#fff"/>
          <path d="M106,133.59a1.73,1.73,0,0,0-1.45.64A3.15,3.15,0,0,0,104,136a3.6,3.6,0,0,1,2-.62,3.2,3.2,0,0,1,2.37.91,3.28,3.28,0,0,1,1,2.46,3.18,3.18,0,0,1-1,2.48,3.69,3.69,0,0,1-2.57.95,4.06,4.06,0,0,1-1.87-.4,3,3,0,0,1-1.23-1.15,6.8,6.8,0,0,1-.89-3.59,7.89,7.89,0,0,1,.32-2.44,4.23,4.23,0,0,1,.92-1.67,3.84,3.84,0,0,1,2.86-1.24,4.35,4.35,0,0,1,1.36.21,4,4,0,0,1,1,.42,8,8,0,0,1,.77.54l-1.06,1.6-.26-.23a3.3,3.3,0,0,0-.66-.37A2.16,2.16,0,0,0,106,133.59Zm-.27,3.65a1.65,1.65,0,0,0-1.13.41,1.33,1.33,0,0,0-.45,1,1.57,1.57,0,0,0,.44,1.09,1.58,1.58,0,0,0,2.18,0,1.37,1.37,0,0,0,.43-1.05,1.61,1.61,0,0,0-.4-1.08A1.34,1.34,0,0,0,105.77,137.24Z" fill="#fff"/>
          <path d="M117.37,131.8v1.95l-4,0v1.7a3.56,3.56,0,0,1,1-.14,3.78,3.78,0,0,1,2.53.87,2.92,2.92,0,0,1,1.07,2.38,3.15,3.15,0,0,1-1.08,2.48,3.89,3.89,0,0,1-2.69,1,4.46,4.46,0,0,1-3.45-1.5l1.18-1.66.35.32a5,5,0,0,0,.8.49,2.31,2.31,0,0,0,1.16.3,1.64,1.64,0,0,0,1-.35,1.22,1.22,0,0,0,.44-1,1.24,1.24,0,0,0-.49-1,2,2,0,0,0-1.26-.36,3.86,3.86,0,0,0-1.78.56l-1-1,0-4.94Z" fill="#fff"/>
          <path d="M119.12,131.79l4.1,0,.07,10.13-2.17,0-.06-8.21h-1.93Z" fill="#fff"/>
          <path d="M126.66,132.3a3.9,3.9,0,0,1,2.51-.82,4,4,0,0,1,2.51.78,2.41,2.41,0,0,1,1,2,2.67,2.67,0,0,1-.88,2,3.09,3.09,0,0,1,1.28,2.54A2.85,2.85,0,0,1,132,141a4.14,4.14,0,0,1-2.79.94,4.2,4.2,0,0,1-2.81-.9,2.81,2.81,0,0,1-1.08-2.24,3.06,3.06,0,0,1,1.24-2.56,2.69,2.69,0,0,1-.93-2A2.43,2.43,0,0,1,126.66,132.3Zm1.46,7.45a2,2,0,0,0,1.1.33,1.89,1.89,0,0,0,1.1-.35,1.09,1.09,0,0,0,.5-1,1.16,1.16,0,0,0-.49-1,1.94,1.94,0,0,0-1.12-.34,1.91,1.91,0,0,0-1.12.35,1.16,1.16,0,0,0-.48,1A1.12,1.12,0,0,0,128.12,139.75Zm.11-4.43a1.47,1.47,0,0,0,1,.34,1.44,1.44,0,0,0,1-.36,1.05,1.05,0,0,0,.4-.86,1.09,1.09,0,0,0-.41-.86,1.54,1.54,0,0,0-1.94,0,1.12,1.12,0,0,0-.4.87A1.07,1.07,0,0,0,128.23,135.32Z" fill="#fff"/>
          <path d="M149.53,133.29a1.73,1.73,0,0,0-1.45.64,3.15,3.15,0,0,0-.62,1.72,3.6,3.6,0,0,1,2-.62,3.2,3.2,0,0,1,2.37.91,3.28,3.28,0,0,1,1,2.46,3.18,3.18,0,0,1-1,2.48,3.69,3.69,0,0,1-2.57,1,4.06,4.06,0,0,1-1.87-.4,3,3,0,0,1-1.23-1.15,6.8,6.8,0,0,1-.89-3.59,7.89,7.89,0,0,1,.32-2.44,4.23,4.23,0,0,1,.92-1.67,3.8,3.8,0,0,1,2.86-1.23,4.9,4.9,0,0,1,2.36.62,8,8,0,0,1,.77.54l-1.06,1.61-.26-.24a3.91,3.91,0,0,0-.66-.37A2.3,2.3,0,0,0,149.53,133.29Zm-.27,3.65a1.7,1.7,0,0,0-1.13.41,1.33,1.33,0,0,0-.45,1,1.54,1.54,0,0,0,.45,1.09,1.45,1.45,0,0,0,1.09.45,1.53,1.53,0,0,0,1.08-.41,1.4,1.4,0,0,0,.43-1.06,1.61,1.61,0,0,0-.4-1.08A1.34,1.34,0,0,0,149.26,136.94Z" fill="#fff"/>
          <path d="M160.86,131.5v2l-4,0v1.7a3.56,3.56,0,0,1,1-.14,3.81,3.81,0,0,1,2.53.87,2.92,2.92,0,0,1,1.07,2.38,3.13,3.13,0,0,1-1.08,2.48,3.89,3.89,0,0,1-2.69,1,4.46,4.46,0,0,1-3.45-1.5l1.18-1.66.35.32a5,5,0,0,0,.8.49,2.43,2.43,0,0,0,1.16.31,1.72,1.72,0,0,0,1-.36,1.22,1.22,0,0,0,.44-1,1.24,1.24,0,0,0-.49-1.05,2.09,2.09,0,0,0-1.26-.36,3.86,3.86,0,0,0-1.78.56l-.95-1,0-4.94Z" fill="#fff"/>
          <path d="M166.8,137.21l0-1.77H169v1.77h1.15v2H169l0,2.42h-2.17l0-2.42-4.07,0,0-1.73,3.57-6,2.47,0-3.4,5.78Z" fill="#fff"/>
          <path d="M86.56,84.75H82V74.28h4.07a5.87,5.87,0,0,1,1.84.26,2.65,2.65,0,0,1,1.16.69,2.71,2.71,0,0,1,.7,1.83A2.14,2.14,0,0,1,89,78.88l-.37.27-.38.17a2.74,2.74,0,0,1,1.55.87,2.49,2.49,0,0,1,.58,1.66,2.81,2.81,0,0,1-.75,1.93A3.92,3.92,0,0,1,86.56,84.75Zm-2.24-6.23h1.1a3.76,3.76,0,0,0,1.45-.21.87.87,0,0,0,.47-.9.93.93,0,0,0-.43-.92,3.43,3.43,0,0,0-1.47-.23H84.32Zm0,4.26h1.6a3.56,3.56,0,0,0,1.5-.25,1,1,0,0,0,.51-1,.93.93,0,0,0-.53-1,4.53,4.53,0,0,0-1.71-.23H84.32Z" fill="#fff"/>
          <path d="M99.64,84.75l-1-2.26H94.28l-1,2.26H90.82l4.52-10.47H97.6l4.53,10.47ZM96.48,77.4l-1.32,3h2.62Z" fill="#fff"/>
          <path d="M110.66,74.28H113V84.75h-2.34l-5-6.56v6.56h-2.34V74.28h2.18L110.66,81Z" fill="#fff"/>
          <path d="M115.57,74.28h2.34v4.3l4-4.3h2.89l-4.17,4.63,2,2.8,2.18,3H122L119,80.62l-1,1.17v3h-2.34Z" fill="#fff"/>
          <path d="M135,82.69a3.46,3.46,0,0,0,2.82-1.37l1.49,1.55a5.66,5.66,0,0,1-8.18.48,5.53,5.53,0,0,1,0-7.75,5.39,5.39,0,0,1,3.9-1.55,5.51,5.51,0,0,1,4.31,2l-1.45,1.65a3.41,3.41,0,0,0-2.76-1.38,3.18,3.18,0,0,0-2.25.86,3,3,0,0,0-.94,2.32,3.15,3.15,0,0,0,.89,2.34A2.91,2.91,0,0,0,135,82.69Z" fill="#fff"/>
          <path d="M148.51,84.75l-1-2.26h-4.39l-1,2.26h-2.49l4.52-10.47h2.26L151,84.75Zm-3.16-7.35-1.32,3h2.62Z" fill="#fff"/>
          <path d="M160.7,77.76a3.08,3.08,0,0,1-2,3.25l2.65,3.74h-2.87l-2.33-3.34h-1.61v3.34h-2.34V74.28h4a5.66,5.66,0,0,1,3.48.83A3.16,3.16,0,0,1,160.7,77.76ZM157.89,79a1.57,1.57,0,0,0,.43-1.23,1.31,1.31,0,0,0-.45-1.16,2.85,2.85,0,0,0-1.57-.32h-1.75v3.1h1.7A2.53,2.53,0,0,0,157.89,79Z" fill="#fff"/>
          <path d="M171.1,75.65a4.92,4.92,0,0,1,1.49,3.82,5.14,5.14,0,0,1-1.45,3.86,6.17,6.17,0,0,1-4.46,1.42H163.1V74.28h3.7A6.17,6.17,0,0,1,171.1,75.65Zm-1.72,6.23a3,3,0,0,0,.86-2.35,3.14,3.14,0,0,0-.86-2.38,3.68,3.68,0,0,0-2.64-.83h-1.3v6.37h1.48A3.44,3.44,0,0,0,169.38,81.88Z" fill="#fff"/>
          <rect x="14.37" y="100.6" width="30.68" height="25.13" rx="3.14" ry="3.14" fill="#fff"/>
          <rect x="17.19" y="103.66" width="6.76" height="5.15" rx="0.36" ry="0.36" fill="#e5e8ec"/>
          <rect x="26.33" y="103.66" width="6.76" height="5.15" rx="0.36" ry="0.36" fill="#e5e8ec"/>
          <rect x="35.47" y="103.66" width="6.76" height="5.15" rx="0.36" ry="0.36" fill="#e5e8ec"/>
          <rect x="17.19" y="110.59" width="6.76" height="5.15" rx="0.36" ry="0.36" fill="#e5e8ec"/>
          <rect x="26.33" y="110.59" width="6.76" height="5.15" rx="0.36" ry="0.36" fill="#e5e8ec"/>
          <rect x="35.47" y="110.59" width="6.76" height="5.15" rx="0.36" ry="0.36" fill="#e5e8ec"/>
          <rect x="17.19" y="117.51" width="6.76" height="5.15" rx="0.36" ry="0.36" fill="#e5e8ec"/>
          <rect x="26.33" y="117.51" width="6.76" height="5.15" rx="0.36" ry="0.36" fill="#e5e8ec"/>
          <rect x="35.47" y="117.51" width="6.76" height="5.15" rx="0.36" ry="0.36" fill="#e5e8ec"/>
          <circle cx="160.56" cy="160.24" r="9.57" fill="#ef4c45"/>
          <path d="M136.39,160.24a9.57,9.57,0,1,0,9.56-9.57A9.56,9.56,0,0,0,136.39,160.24Z" fill="#bed630"/>
        </g>
      </g>
    </g>
  </g>
</svg>
