<svg xmlns="http://www.w3.org/2000/svg" xmlns:xlink="http://www.w3.org/1999/xlink" viewBox="0 0 159.03 165.58">
  <defs>
    <linearGradient id="linear-gradient" x1="36.77" y1="124" x2="37.77" y2="124" gradientTransform="matrix(1.05, 6.84, 6.84, -1.05, -746.97, -93.2)" gradientUnits="userSpaceOnUse">
      <stop offset="0" stop-color="#ea9641"/>
      <stop offset="1" stop-color="#f7cf7a"/>
    </linearGradient>
    <linearGradient id="linear-gradient-2" x1="36.77" y1="124" x2="37.77" y2="124" gradientTransform="matrix(-1.83, -6.44, -6.44, 1.83, 996.94, 27.24)" gradientUnits="userSpaceOnUse">
      <stop offset="0" stop-color="#f4b00e"/>
      <stop offset="0.52" stop-color="#f4a61c"/>
      <stop offset="0.89" stop-color="#fcc12c"/>
      <stop offset="1" stop-color="#fcc12c"/>
    </linearGradient>
    <linearGradient id="linear-gradient-3" x1="36.77" y1="124" x2="37.77" y2="124" gradientTransform="matrix(-13.86, -22.95, -22.95, 13.86, 3504.62, -850.14)" xlink:href="#linear-gradient-2"/>
    <linearGradient id="linear-gradient-4" x1="36.77" y1="124" x2="37.77" y2="124" gradientTransform="matrix(27.77, -14.93, -14.93, -27.77, 950.16, 4020.1)" gradientUnits="userSpaceOnUse">
      <stop offset="0" stop-color="#f9b776"/>
      <stop offset="1" stop-color="#f7cf7a"/>
    </linearGradient>
    <linearGradient id="linear-gradient-5" x1="36.77" y1="124" x2="37.77" y2="124" gradientTransform="matrix(0.43, 2.45, 2.45, -0.43, -178.99, -21.97)" gradientUnits="userSpaceOnUse">
      <stop offset="0" stop-color="#7b2916"/>
      <stop offset="0.26" stop-color="#7b2916"/>
      <stop offset="0.88" stop-color="#c3873c"/>
      <stop offset="1" stop-color="#c3873c"/>
    </linearGradient>
    <linearGradient id="linear-gradient-6" x1="36.77" y1="124" x2="37.77" y2="124" gradientTransform="matrix(0.26, 2.76, 2.76, -0.26, -219.38, -54.4)" xlink:href="#linear-gradient-5"/>
    <linearGradient id="linear-gradient-7" x1="36.77" y1="124" x2="37.77" y2="124" gradientTransform="matrix(5.08, -15.76, -15.76, -5.08, 1906.6, 1242.45)" gradientUnits="userSpaceOnUse">
      <stop offset="0" stop-color="#f6ad67"/>
      <stop offset="1" stop-color="#f5b168"/>
    </linearGradient>
    <linearGradient id="linear-gradient-8" x1="36.77" y1="124" x2="37.77" y2="124" gradientTransform="matrix(5.7, -18.81, -18.81, -5.7, 2249.51, 1431.07)" xlink:href="#linear-gradient-7"/>
    <linearGradient id="linear-gradient-9" x1="36.77" y1="124" x2="37.77" y2="124" gradientTransform="matrix(1.77, -0.28, -0.28, -1.77, 105.93, 247.65)" gradientUnits="userSpaceOnUse">
      <stop offset="0" stop-color="#f5b05d"/>
      <stop offset="0.76" stop-color="#f7c77a"/>
      <stop offset="1" stop-color="#f7c77a"/>
    </linearGradient>
    <linearGradient id="linear-gradient-10" x1="36.77" y1="124" x2="37.77" y2="124" gradientTransform="matrix(-4.97, 5.22, 5.22, 4.97, -367.93, -663.74)" gradientUnits="userSpaceOnUse">
      <stop offset="0" stop-color="#723b27"/>
      <stop offset="1" stop-color="#8e573a"/>
    </linearGradient>
    <linearGradient id="linear-gradient-11" x1="36.77" y1="124" x2="37.77" y2="124" gradientTransform="matrix(4.29, 7.91, 7.91, -4.29, -1040.51, 390.27)" xlink:href="#linear-gradient-10"/>
    <linearGradient id="linear-gradient-12" x1="36.77" y1="124" x2="37.77" y2="124" gradientTransform="matrix(-1.02, 3.65, 3.65, 1.02, -318.86, -161.39)" xlink:href="#linear-gradient-10"/>
    <linearGradient id="linear-gradient-13" x1="36.77" y1="124" x2="37.77" y2="124" gradientTransform="matrix(1.12, 2.7, 2.7, -1.12, -279.42, 129.42)" gradientUnits="userSpaceOnUse">
      <stop offset="0" stop-color="#99653b"/>
      <stop offset="0.3" stop-color="#99653b"/>
      <stop offset="1" stop-color="#844e32"/>
    </linearGradient>
    <linearGradient id="linear-gradient-14" x1="36.77" y1="124" x2="37.77" y2="124" gradientTransform="matrix(-10.71, -1.49, -1.49, 10.71, 609.02, -1121.09)" gradientUnits="userSpaceOnUse">
      <stop offset="0" stop-color="#f8b070"/>
      <stop offset="1" stop-color="#f4ca79"/>
    </linearGradient>
    <linearGradient id="linear-gradient-15" x1="36.77" y1="124" x2="37.77" y2="124" gradientTransform="matrix(-7.57, -1.8, -1.8, 7.57, 521.46, -719.87)" xlink:href="#linear-gradient-14"/>
    <linearGradient id="linear-gradient-16" x1="36.77" y1="124" x2="37.77" y2="124" gradientTransform="matrix(-2.77, 5.38, 5.38, 2.77, -542.73, -442.01)" gradientUnits="userSpaceOnUse">
      <stop offset="0" stop-color="#f28c40"/>
      <stop offset="1" stop-color="#f4ca79"/>
    </linearGradient>
    <linearGradient id="linear-gradient-17" x1="36.77" y1="124" x2="37.77" y2="124" gradientTransform="matrix(18.26, -0.99, -0.99, -18.26, -536.44, 2392.03)" xlink:href="#linear-gradient-4"/>
    <linearGradient id="linear-gradient-18" x1="36.77" y1="124" x2="37.77" y2="124" gradientTransform="matrix(-0.05, 0.74, 0.74, 0.05, -71.59, 56.28)" gradientUnits="userSpaceOnUse">
      <stop offset="0" stop-color="#474b88"/>
      <stop offset="0.35" stop-color="#474b88"/>
      <stop offset="0.88" stop-color="#646db2"/>
      <stop offset="1" stop-color="#646db2"/>
    </linearGradient>
    <linearGradient id="linear-gradient-19" x1="36.77" y1="124" x2="37.77" y2="124" gradientTransform="matrix(1.26, -8.95, -8.95, -1.26, 1085.13, 571.39)" gradientUnits="userSpaceOnUse">
      <stop offset="0" stop-color="#453437"/>
      <stop offset="0.12" stop-color="#453437"/>
      <stop offset="0.63" stop-color="#594c4e"/>
      <stop offset="1" stop-color="#594c4e"/>
    </linearGradient>
    <linearGradient id="linear-gradient-20" x1="36.77" y1="124" x2="37.77" y2="124" gradientTransform="matrix(-0.17, 0.94, 0.94, 0.17, -83.96, 32.21)" xlink:href="#linear-gradient-18"/>
    <linearGradient id="linear-gradient-21" x1="36.77" y1="124" x2="37.77" y2="124" gradientTransform="matrix(-10.84, -1.51, -1.51, 10.84, 651.21, -1136.55)" xlink:href="#linear-gradient-14"/>
    <linearGradient id="linear-gradient-22" x1="36.77" y1="124" x2="37.77" y2="124" gradientTransform="matrix(-7.66, -1.83, -1.83, 7.66, 562.6, -730.52)" xlink:href="#linear-gradient-14"/>
    <linearGradient id="linear-gradient-23" x1="36.77" y1="124" x2="37.77" y2="124" gradientTransform="matrix(-2.81, 5.4, 5.4, 2.81, -508.64, -447.61)" xlink:href="#linear-gradient-16"/>
    <linearGradient id="linear-gradient-24" x1="36.77" y1="124" x2="37.77" y2="124" gradientTransform="matrix(-7.5, -12.72, -12.72, 7.5, 1912.66, -366.43)" xlink:href="#linear-gradient-4"/>
    <linearGradient id="linear-gradient-25" x1="36.77" y1="124" x2="37.77" y2="124" gradientTransform="matrix(-7.46, -11.68, -11.68, 7.46, 1777.46, -397.88)" gradientUnits="userSpaceOnUse">
      <stop offset="0" stop-color="#f5a775"/>
      <stop offset="1" stop-color="#f3be7a"/>
    </linearGradient>
    <linearGradient id="linear-gradient-26" x1="36.77" y1="124" x2="37.77" y2="124" gradientTransform="matrix(-0.51, 2.32, 2.32, 0.51, -206.34, -61.13)" gradientUnits="userSpaceOnUse">
      <stop offset="0" stop-color="#004680"/>
      <stop offset="0.12" stop-color="#004680"/>
      <stop offset="1" stop-color="#36a8ac"/>
    </linearGradient>
    <linearGradient id="linear-gradient-27" x1="36.77" y1="124" x2="37.77" y2="124" gradientTransform="matrix(0.83, 1.96, 1.96, -0.83, -220.56, 118.83)" xlink:href="#linear-gradient-26"/>
    <linearGradient id="linear-gradient-28" x1="36.77" y1="124" x2="37.77" y2="124" gradientTransform="matrix(7.24, -9.62, -9.62, -7.24, 987.64, 1347.65)" xlink:href="#linear-gradient-25"/>
  </defs>
  <title>generic-features-calsses-sm</title>
  <g id="Layer_2" data-name="Layer 2">
    <g id="classes_copy_2" data-name="classes copy 2">
      <g>
        <path d="M14.34,46.82v3.66c0,4.4-2.2,6.92-6.45,6.92s-6.45-2.52-6.45-6.92V36.16c0-4.4,2.21-6.92,6.45-6.92s6.45,2.52,6.45,6.92v2.68H10.25v-3c0-2-.86-2.71-2.24-2.71s-2.24.74-2.24,2.71V50.75c0,2,.86,2.68,2.24,2.68s2.24-.71,2.24-2.68V46.82Z" fill="#61c4f2"/>
        <polygon points="18.55 29.56 22.88 29.56 22.88 53.15 29.99 53.15 29.99 57.08 18.55 57.08 18.55 29.56" fill="#61c4f2"/>
        <path d="M47.45,57.08H43.09l-.75-5H37l-.75,5h-4l4.41-27.52h6.33Zm-9.87-8.73h4.17L39.67,34.43Z" fill="#61c4f2"/>
        <path d="M56.85,29.24c4.21,0,6.37,2.52,6.37,6.92V37H59.13V35.89c0-2-.78-2.71-2.16-2.71s-2.16.74-2.16,2.71c0,5.66,8.45,6.72,8.45,14.59,0,4.4-2.2,6.92-6.45,6.92s-6.45-2.52-6.45-6.92V48.79h4.09v2c0,2,.87,2.68,2.24,2.68s2.25-.71,2.25-2.68c0-5.66-8.46-6.72-8.46-14.59C50.48,31.76,52.64,29.24,56.85,29.24Z" fill="#61c4f2"/>
        <path d="M73.13,29.24c4.21,0,6.37,2.52,6.37,6.92V37H75.41V35.89c0-2-.78-2.71-2.16-2.71s-2.16.74-2.16,2.71c0,5.66,8.45,6.72,8.45,14.59,0,4.4-2.2,6.92-6.45,6.92s-6.45-2.52-6.45-6.92V48.79h4.09v2c0,2,.87,2.68,2.25,2.68s2.24-.71,2.24-2.68c0-5.66-8.46-6.72-8.46-14.59C66.76,31.76,68.92,29.24,73.13,29.24Z" fill="#61c4f2"/>
        <polygon points="87.92 41.16 93.86 41.16 93.86 45.09 87.92 45.09 87.92 53.15 95.39 53.15 95.39 57.08 83.59 57.08 83.59 29.56 95.39 29.56 95.39 33.49 87.92 33.49 87.92 41.16" fill="#61c4f2"/>
        <path d="M105.46,29.24c4.21,0,6.37,2.52,6.37,6.92V37h-4.09V35.89c0-2-.79-2.71-2.16-2.71s-2.17.74-2.17,2.71c0,5.66,8.46,6.72,8.46,14.59,0,4.4-2.2,6.92-6.45,6.92S99,54.88,99,50.48V48.79h4.09v2c0,2,.86,2.68,2.24,2.68s2.24-.71,2.24-2.68c0-5.66-8.45-6.72-8.45-14.59C99.09,31.76,101.25,29.24,105.46,29.24Z" fill="#61c4f2"/>
        <polygon points="156.9 162.23 157.83 163.61 157.7 165.59 151.45 165.59 151.32 163.79 151.98 162.25 152.77 163.11 155.87 163.06 156.9 162.23" fill="#d44540" fill-rule="evenodd"/>
        <polygon points="151.98 162.26 152.53 160.25 152.37 159.04 155.5 159.09 155.59 160.12 156.89 162.24 155.89 163.08 152.76 163.14 151.98 162.26" fill="#f7c37b" fill-rule="evenodd"/>
        <path d="M139.77,160.16c.28.64.73,1.73,1,2.47l-4.58,1.2-2.11-.76a5.15,5.15,0,0,0,2.58-3.74l3.15-2.12Z" fill="#f7c37b" fill-rule="evenodd"/>
        <polygon points="140.67 162.07 140.02 162.21 137.03 163.17 134.23 162.89 130.87 164.09 130.95 165.59 140.84 165.59 141.07 163.62 140.67 162.07" fill="#d44540" fill-rule="evenodd"/>
        <path d="M130.72,75.21A62.66,62.66,0,0,0,129.79,86c.73,7.55,3.59,30.58,3.59,31.08l.07,10.93,3.12,32.18,3,0,1.69-32.29-1.67-9.59V75.21Z" fill="#f7c37b" fill-rule="evenodd"/>
        <path d="M150.29,75.21c.48,2,.9,4.25,1.17,6s.42,3.36.48,4.27c-.49,7.34-1.72,32.45-1.72,32.45l3.22,8.61L155.53,160l-2.92.31-6.75-30.68-1.35-9.09-4-33.23-2.83-1.19.23-10.86Z" fill="#f7c37b" fill-rule="evenodd"/>
        <path d="M153.49,125.62a58.47,58.47,0,0,1-20.81.17c-.41-3.64.13-4.51.27-10.3-1.31-10.53-2.83-22.66-3.4-29.37a65.41,65.41,0,0,1,.74-7.93l20.87-1.3c.13.43.31.89.43,1.37a57.27,57.27,0,0,1,1.1,7.51c-.21,7.41-.94,19.12-.57,29.71A57.24,57.24,0,0,1,153.49,125.62Z" fill="#d44540" fill-rule="evenodd"/>
        <path d="M127.2,51.85c-1.07,4.5-2,9.14-2.92,13.68-.79,3.9,2.17,3.8,3.46,1.47a145,145,0,0,0,4-14Z" fill="#f7c57a" fill-rule="evenodd"/>
        <path d="M121,79.11c2.23-3.56,5.19-8.06,6.7-12,.86-2.25-2.29-3.57-3.22-2A39.75,39.75,0,0,0,121.71,71c-.95,2.41-2.06,5.32-2.88,7.66Z" fill="#f7c57a" fill-rule="evenodd"/>
        <path d="M112.55,85.68c-.23.34.06.57.27.45l1-1.11,1-.73,2.1-1-.07.42c-.13.27-.27.55-.39.83a.49.49,0,0,0,.17.66L119,82.45l1-1.85,1.68-2.72-2-1.29-.82,2-4.07,2.19-1.39,1.65L112.55,84c-.17.5-.17.94.08,1l.74-.87.85-.84-.17.46-.61.71Z" fill="#f7c57a" fill-rule="evenodd"/>
        <path d="M123.59,65.91l4.47,2a7.42,7.42,0,0,0,.7-1.48c.42-.62,3.48-13.61,3.52-14.59.28-7.15,1-12.79-.17-15.33a2.24,2.24,0,0,0-.47.21c-1.38,2.34-3.06,7.42-4.22,11.65-.51,1.85-2.12,12.24-3,16.14A11.08,11.08,0,0,1,123.59,65.91Z" fill="#f76363" fill-rule="evenodd"/>
        <polygon points="128.92 67.27 123.78 64.94 122.84 67.09 127.52 69.64 128.92 67.27" fill="#d44540" fill-rule="evenodd"/>
        <path d="M131.77,56a12.6,12.6,0,0,1-2-4.8,139.22,139.22,0,0,1,1.88-14.56,27.2,27.2,0,0,1,5.08-2.33c1.21,3.48,4.44,3.17,7.14-.28.44.1,1,.23,1.57.41a23.16,23.16,0,0,1,5.14,2.47,50.66,50.66,0,0,1-.07,9.35c-.16,2.87-1,10.68-1.58,16.67-.59,5.84,1.23,8,2.26,13.79a26.48,26.48,0,0,1-13,3.36,23.41,23.41,0,0,1-8-1.49c.17-2.67,1.36-7.36,1.87-10.76Z" fill="#f76363" fill-rule="evenodd"/>
        <path d="M151.06,76c.19.61.46,1.94.55,2.37a28.55,28.55,0,0,1-12.29,3.34A25.75,25.75,0,0,1,130,80.29c.07-.59.17-1.57.27-2.17C138.12,80.7,145.77,78.75,151.06,76Z" fill="#f05252" fill-rule="evenodd"/>
        <path d="M148.79,47.21l4.79-1.87c1.31,4,4.69,16,4.29,19.56a1.17,1.17,0,0,1-.21.48l-3.18-1.51C152.49,58.4,150.3,52.84,148.79,47.21Z" fill="#f7c57a" fill-rule="evenodd"/>
        <path d="M142.73,33.75l-.18-8a22.11,22.11,0,0,1-4.42,1.62l-.5,6.53-2.27.83c-.12,2.82.55,6.73,3.5,6.94,2.77.2,5.55-4,6.78-7.11C144.81,34.32,143.86,34,142.73,33.75Z" fill-rule="evenodd" fill="url(#linear-gradient)"/>
        <path d="M139.69,41.6c.75.79,1.63,1.4,2.37,2.18a30.32,30.32,0,0,0,5-9.43,16.2,16.2,0,0,0-3-.77A32.46,32.46,0,0,1,139.69,41.6Z" fill="#f6fbfe" fill-rule="evenodd"/>
        <path d="M138.79,41.63c-.76.59-1.7,1.53-2.46,2.12a26,26,0,0,1-2.87-8.66c.82-.32,1.64-.58,2.59-.89A14.55,14.55,0,0,0,138.79,41.63Z" fill="#f6fbfe" fill-rule="evenodd"/>
        <path d="M139.66,75.42,138,76.58l-1.52,2.19c0,.19.56.18.69.06l.74-.68.61-.25-.38,1.69-2.54,3.13.62.4,1.12-.76.83.14,3.17-1.76,1.49-4.47,10.35-6.82c1.57-1.16,4-2.78,4.54-4.13l-3-2.29c-.77.49-1.84,1.64-3.86,3.32-3.19,2.63-7.22,6.31-8.74,7.52Z" fill="#f7c57a" fill-rule="evenodd"/>
        <path d="M129.83,17.58a9.5,9.5,0,0,0,.66-6.43c-.73.32-1.18.74-1.12,1.27C129.55,13.9,129.62,15.64,129.83,17.58Z" fill-rule="evenodd" fill="url(#linear-gradient-2)"/>
        <path d="M149,16.56c-5-2.86-12-8.22-12.69-9.85-1.4,3-4.64,5.89-7.17,5.84-1.29-3,.38-7.12,2.5-9.48,1.65-1.84,2.3-2.11,4.81-1.06,1.21-1,2.63-2,3.91-2,2.34-.06,6.91,3.46,8.38,5.06,2.58,2.81,2.29,5.06,2.22,7.63,2.93-.4,4.33,3.11,3,6.39-2.63,6.29-8.16,8.47-11.33,8.39C145,24.83,148.43,22.62,149,16.56Z" fill-rule="evenodd" fill="url(#linear-gradient-3)"/>
        <path d="M149,16.42c-5-2.85-12.05-8.22-12.7-9.84-1.24,2.45-3.46,4.89-5.71,5.59,0,.63,0,1.33,0,2.11a5.17,5.17,0,0,1-.24,1.44,38.22,38.22,0,0,0-1.22,3.7c.81,4,5.18,9.11,8.85,10.23C143.66,28.48,149.24,23.25,149,16.42Z" fill-rule="evenodd" fill="url(#linear-gradient-4)"/>
        <path d="M139.07,15.74a3.52,3.52,0,0,0,2.41.7,5.21,5.21,0,0,0,2.64-1.08c-.39-.88-1.15-.86-2.06-1.15S139.36,13.92,139.07,15.74Z" fill="#fefefe" fill-rule="evenodd"/>
        <path d="M142.18,16.26a1.51,1.51,0,0,0,0-1.79c-.65-.26-2.12-.14-2.5.55,0,.55.21,1.16.62,1.28A4,4,0,0,0,142.18,16.26Z" fill-rule="evenodd" fill="url(#linear-gradient-5)"/>
        <path d="M135.53,16.26a3.89,3.89,0,0,1-1.87.74,4,4,0,0,1-2.4-.17c0-.59.35-1.81,1.23-2.09A2.8,2.8,0,0,1,135.53,16.26Z" fill="#fefefe" fill-rule="evenodd"/>
        <path d="M132.38,17.06c-.61-.14-.74-1.22-.21-1.78a1.32,1.32,0,0,1,1.49-.16,1.43,1.43,0,0,1,.44,1.57C134,17,132.88,17.19,132.38,17.06Z" fill-rule="evenodd" fill="url(#linear-gradient-6)"/>
        <path d="M151.53,16a36.05,36.05,0,0,0-2.11-4.68,46.14,46.14,0,0,0-2.76-4.16c-1.38-1.87-3.68-4.79-5.64-6-.12-.07-.52-.35-.76-.12s0,.28.09.35a24,24,0,0,1,5.86,5.84,49.07,49.07,0,0,1,5.13,9C151.47,16.49,151.67,16.3,151.53,16Z" fill="#f7a828" fill-rule="evenodd"/>
        <path d="M150.19,16.19l.08,0V16c-4.13-4-9.46-9-12.08-14.19a.28.28,0,0,0-.38-.15c-.25.17-.07.57,0,.73,2.36,4.43,8.69,10.34,12.26,13.79Z" fill="#f7a828" fill-rule="evenodd"/>
        <path d="M130.58,11.1l.14-.14c.15-2.62,2.35-7.69,3.93-8.87L134.52,2l-.28,0c-1.79,1.34-3.67,6.49-3.82,9l.14.15Z" fill="#f7a828" fill-rule="evenodd"/>
        <path d="M136.16,6.38c.11-.09-.11-.33-.23-.67a4.43,4.43,0,0,1-.18-2.19,4,4,0,0,1,.31-1.06.23.23,0,0,0-.17-.28.27.27,0,0,0-.33.13,5,5,0,0,0-.23,1.14,4.9,4.9,0,0,0,.38,2.36C135.86,6.17,136.07,6.45,136.16,6.38Z" fill="#f7a828" fill-rule="evenodd"/>
        <path d="M142.77,12.32a3.14,3.14,0,0,0-1-.72,3.82,3.82,0,0,0-1.14-.33,2.88,2.88,0,0,0-1.2.1,1.73,1.73,0,0,0-1,.77A8.81,8.81,0,0,1,142.77,12.32Z" fill="#894e26" fill-rule="evenodd"/>
        <path d="M134.72,12.32a1.81,1.81,0,0,0-1.91-.29,2.47,2.47,0,0,0-1.62,1.83A6.45,6.45,0,0,1,134.72,12.32Z" fill="#894e26" fill-rule="evenodd"/>
        <path d="M144.09,15.15c-1.2-2-4.74-2.33-5,.45C140.09,14.06,142.66,14.31,144.09,15.15Z" fill="#663936" fill-rule="evenodd"/>
        <path d="M144,19.38c.87-.12,1.5-.5,1.51-1s-.95-1.05-2.14-1.08a4.88,4.88,0,0,0-.68,0c-.87.12-1.5.49-1.51.95s.95,1.06,2.14,1.09A4.88,4.88,0,0,0,144,19.38Z" fill-rule="evenodd" fill="url(#linear-gradient-7)"/>
        <path d="M131.18,19.76l.34-.08c.82-.23,1.39-.76,1.27-1.19s-.68-.53-1.35-.42a2.21,2.21,0,0,0-.35.08c-.82.23-1.38.76-1.26,1.18S130.5,19.86,131.18,19.76Z" fill-rule="evenodd" fill="url(#linear-gradient-8)"/>
        <path d="M131.29,16.32c.87-1.33,2.87-1.24,4.11-.41C134.73,14.16,131.4,13.56,131.29,16.32Z" fill="#663936" fill-rule="evenodd"/>
        <path d="M141.12,16.93l-.1-.24a7.66,7.66,0,0,1,4.07-.51l-.05.26A7.41,7.41,0,0,0,141.12,16.93Z" fill="#d68f58"/>
        <path d="M132.93,17.52a8.51,8.51,0,0,0-2.46-.45v-.26a8.28,8.28,0,0,1,2.53.46Z" fill="#d68f58"/>
        <path d="M136.12,14.58a7.45,7.45,0,0,1,.26,3.58.74.74,0,0,1-.34.48c-.44.22-.87-.05-1.29.34s-.08,1.16.18,1.62a3.36,3.36,0,0,0,1.63.51C140.55,21.47,138.16,15.26,136.12,14.58Z" fill-rule="evenodd" fill="url(#linear-gradient-9)"/>
        <path d="M134.92,20.73l-.13-.08c-.15-.28-.61-1.39-.12-1.8a1.2,1.2,0,0,1,.83-.26.75.75,0,0,0,.58-.16,2.57,2.57,0,0,0,.26-1.72,7.36,7.36,0,0,0-.45-2.32l.07-.2.2.08a7.54,7.54,0,0,1,.47,2.42,2.73,2.73,0,0,1-.34,1.94,1,1,0,0,1-.78.26,1,1,0,0,0-.65.18c-.26.23,0,1.06.19,1.44l-.06.2Z" fill="#e29870"/>
        <path d="M147.52,17.66c.19.87-.25,1.16.55,1a2.76,2.76,0,0,0,1.85-2c.15-1.22-.7-1.91-1.49-1.7C147.23,15.22,147.33,16.8,147.52,17.66Z" fill="#f7cb7c" fill-rule="evenodd"/>
        <path d="M134.34,23a6.7,6.7,0,0,1,.91,1.1,5.07,5.07,0,0,0,.72,1,2.23,2.23,0,0,0,1.69.45c.69,0,1.68-.27,1.89-.7l1.1-2.2a7.59,7.59,0,0,1-6.31.31Z" fill="#fdfdfd" fill-rule="evenodd"/>
        <path d="M140.4,22.86a8.52,8.52,0,0,1-3.35.69,6.57,6.57,0,0,1-2.42-.44,12.77,12.77,0,0,1,2.5-.39A15.76,15.76,0,0,1,140.4,22.86Z" fill="#ea6b5f" fill-rule="evenodd"/>
        <path d="M135.81,25.06a2,2,0,0,0,1.73,1.06,2.07,2.07,0,0,0,2.06-1.25A5.58,5.58,0,0,1,135.81,25.06Z" fill="#ea6b5f" fill-rule="evenodd"/>
        <path d="M137.1,23.71a6.31,6.31,0,0,1-3.28-.82l.13-.21a6.24,6.24,0,0,0,3.36.78,6.89,6.89,0,0,0,3.6-1l.15.2a7,7,0,0,1-3.75,1.07Z" fill="#e29870"/>
        <path d="M142.07,23.34a5.13,5.13,0,0,1-1.57-1.05l.18-.18a4.92,4.92,0,0,0,1.49,1Zm-8.67-.09-.1-.23a1.31,1.31,0,0,0,.68-.62l.23.11A1.52,1.52,0,0,1,133.4,23.25Z" fill="#e29870"/>
        <path d="M147.8,47.75c-1.08-2.63.39-10.6,2.78-10.8,1.77,1.7,4.47,9.34,6.28,16A56.51,56.51,0,0,1,159,64.6a5.1,5.1,0,0,1-1.41,2.08l-4.14-3.17.41-.37Z" fill="#f76363" fill-rule="evenodd"/>
        <polygon points="158.17 66.55 153.64 63.14 152.24 64.88 156.31 68.25 158.17 66.55" fill="#d44540" fill-rule="evenodd"/>
        <polygon points="145.84 53.09 140.29 55.06 140.76 55.68 146.04 54.73 145.84 53.09" fill="#d44540" fill-rule="evenodd"/>
        <path d="M131.08,55.12,131,54.9a11.34,11.34,0,0,1-1.23-3.26h0v0a21.12,21.12,0,0,1,1.48-5.39l.18-.51.26.09-.18.51A21.12,21.12,0,0,0,130,51.6a11.16,11.16,0,0,0,1.2,3.17l.13.23Z" fill="#d44540"/>
        <path d="M149.66,52.9c-.19-.41-.45-1-.76-1.79s-.61-1.49-.94-2.27l.25-.11c.34.78.66,1.57.95,2.27s.57,1.38.75,1.78Z" fill="#d44540"/>
        <path d="M112.2,81.3a1.58,1.58,0,0,1-.15-.57c0-.4-.41-.45-.7-.45s-.48.72-.66,1.28a12.52,12.52,0,0,0-.29,1.27c-.35-.14-.45-.36-.7-.35s-.43.15-.41.93a8.89,8.89,0,0,0,.66,2.85c-.5,2.45-1.11,5.7-1.48,7.65-.63.79-2,3.32-2.78,4.66,1.4,1,3,1.51,3.7,2.25a28,28,0,0,0,2.89-5.95,41,41,0,0,0,.45-8.43,7.69,7.69,0,0,0,.76-3.09A2.54,2.54,0,0,0,112.2,81.3Z" fill="#9b6044" fill-rule="evenodd"/>
        <path d="M111,100c-1.16,3.22-5.68,9.69-8.1,11.42a14.42,14.42,0,0,1-1.64-6.71,69.33,69.33,0,0,1,4.77-7.8A7.39,7.39,0,0,1,111,100Z" fill="#61c4f2" fill-rule="evenodd"/>
        <path d="M97.06,138.33l.8,6.53,3.94,1.86a4.07,4.07,0,0,0,.76-2.09c.29-1.89.1-3.63.28-5.75Z" fill-rule="evenodd" fill="url(#linear-gradient-10)"/>
        <path d="M97.93,144.07l-.59,6.24L97.73,164l6.28-.79-1.66-2.48.25-15.92a3.91,3.91,0,0,0-.45-2.09Z" fill-rule="evenodd" fill="url(#linear-gradient-11)"/>
        <path d="M97.55,157.87l.18,6.08,6.28-.79-1.66-2.48.11-3.32A14.76,14.76,0,0,1,97.55,157.87Z" fill="#a2d7ed" fill-rule="evenodd"/>
        <path d="M89.27,138.16l1.3,7.67L95,148c1.43-1.67.92-7.31.85-9.34Z" fill="#9b6044" fill-rule="evenodd"/>
        <path d="M104.94,164.13c-.14-.39-.43-.78-1.47-1.58a16.46,16.46,0,0,1-3.78.86l-2.25-.78-.14.82.21,1.87h6.68A1.31,1.31,0,0,0,104.94,164.13Z" fill="#5c4e3b" fill-rule="evenodd"/>
        <path d="M90.56,145.76l-.68,5.73-.1,12.72,6.29-1.32-1.51-2.41,1-13.4a8.13,8.13,0,0,0-.22-2.72,1.39,1.39,0,0,0-.19-.36Z" fill="#9b6044" fill-rule="evenodd"/>
        <path d="M89.83,157.56l0,6.65,6.29-1.32-1.51-2.41.22-2.94A15,15,0,0,1,89.83,157.56Z" fill="#c9f1ff" fill-rule="evenodd"/>
        <path d="M97.1,163.69c-.15-.39-.23-.49-1.22-1.47a18.34,18.34,0,0,1-3.95,1.05l-2.16-1.22-.26,1.06.22,2.21h6.68A3.29,3.29,0,0,0,97.1,163.69Z" fill="#5c4e3b" fill-rule="evenodd"/>
        <path d="M89.17,120.25c-1.38,3.29-3.6,16.91-3.47,18.1,6.08,2.07,13.16,1.77,19.57.41.11-1.7-2-15.16-2.75-18.41C96.9,120.74,94.19,121,89.17,120.25Z" fill="#61c4f2" fill-rule="evenodd"/>
        <path d="M102.52,120.45a58.75,58.75,0,0,1-13.46.15c-.45-4-2.41-11.25-.63-16.25a44.61,44.61,0,0,1,4.47-1.73l4.35,0a16.88,16.88,0,0,1,4.44,1.47C103.75,108.94,103.05,114.89,102.52,120.45Z" fill="#7fcff4" fill-rule="evenodd"/>
        <path d="M98.92,103.07a1.67,1.67,0,0,1-1.42,2.45A6.27,6.27,0,0,1,92,103l1-.38c.11-2,.13-6.95.13-6.95l5.12.6c.07,2.57.16,5.88.23,6.66C98.55,103,98.75,103,98.92,103.07Z" fill-rule="evenodd" fill="url(#linear-gradient-12)"/>
        <path d="M99.92,77c.32-.73.69-.76.93-1.52s.28-3,1.13-3.44,2.1.48,2.44,1.35c.25.65-1,2.1-1.17,2.77l-.92,2.67Z" fill="#1b2025" fill-rule="evenodd"/>
        <path d="M101,74.59a5.73,5.73,0,0,1,2.89,1.66c.34.34-.77,1.67-1.24,2.52a8.28,8.28,0,0,0-2.5-2.3,10.23,10.23,0,0,1,.44-1.49C100.65,74.75,100.85,74.58,101,74.59Z" fill="#61c4f2" fill-rule="evenodd"/>
        <path d="M86.16,90.33c-2.18-1.86-2.4-5.9-1.4-9a8.78,8.78,0,0,1,5.72-5.76,6.36,6.36,0,0,1,3.19.54c.77-1,2.54-1.16,3.47-1.3a10.38,10.38,0,0,1,6.25,4.59c1.31,2.2,1.35,5.59.88,7.87l-1.42,1-.41-2.63c-.55-.94-1.4-2.3-2-3.24-2.07-.06-4-1-6.36-2.06a21.31,21.31,0,0,1-6.32,4.08l-.54,3.89.47,2.81Z" fill="#1b2025" fill-rule="evenodd"/>
        <path d="M87.08,83.14a17,17,0,0,1,7.23-3.33,11.51,11.51,0,0,1,8.62,1.61c.6,1.51.75,3.8,1.17,5.68.56,2.45,1.27,4.47,1.06,6-.35,2.46-1.77,6.19-6.82,8.37-6.47-.89-10.68-4.3-11.51-9.67A28.85,28.85,0,0,1,87.08,83.14Z" fill="#94623f" fill-rule="evenodd"/>
        <path d="M88.45,91.32a2.09,2.09,0,0,1-1,2.73A2,2,0,0,1,85,92.64a2.09,2.09,0,0,1,1-2.73A2,2,0,0,1,88.45,91.32Z" fill="#94623f" fill-rule="evenodd"/>
        <path d="M94.64,95.48a4.49,4.49,0,0,0,3.52,2.09,2.73,2.73,0,0,0,2.18-1.39c.26-.38.58-.89.83-1.3A25.14,25.14,0,0,1,94.64,95.48Z" fill="#fefefe" fill-rule="evenodd"/>
        <path d="M95.41,96.36c.28.51,1.26,1.78,1.74,1.91A3.66,3.66,0,0,0,99.42,98,2.85,2.85,0,0,0,100.53,96C98.85,97.79,97.48,97.32,95.41,96.36Z" fill="#b47e6b" fill-rule="evenodd"/>
        <path d="M101.27,94.86c-.79.21-1.73.59-2.53.75a4.67,4.67,0,0,1-1.34.11c-.71-.07-2.12-.08-2.88-.22a11.5,11.5,0,0,1,2.57-.92A4.58,4.58,0,0,0,99,94.42,5.33,5.33,0,0,1,101.27,94.86Z" fill="#b47e6b" fill-rule="evenodd"/>
        <path d="M97.34,87.85c.76,1.79,1.33,2.4,2.14,2.88.57.33,1,1.09,0,1.86a3.76,3.76,0,0,1-2.64.56c-1-.25-1.12-1.15-.29-1.7a9.41,9.41,0,0,0-.19-2.66A4.91,4.91,0,0,1,97.34,87.85Z" fill-rule="evenodd" fill="url(#linear-gradient-13)"/>
        <path d="M87,78.66a10.64,10.64,0,0,1-1-1.49c-.53-.78-1.42-2.6-2.35-2.74s-2,1.19-2,2.11c0,.7,1.52,1.73,1.94,2.3l1.67,2.28Z" fill="#1b2025" fill-rule="evenodd"/>
        <path d="M85.61,76.31A7.5,7.5,0,0,0,83,79.07c-.22.42,1.23,1.36,1.93,2A10.53,10.53,0,0,1,87,77.87a8.65,8.65,0,0,0-.87-1.3A.67.67,0,0,0,85.61,76.31Z" fill="#61c4f2" fill-rule="evenodd"/>
        <path d="M89.83,86.66a2.71,2.71,0,0,1,.78-1,7.32,7.32,0,0,1,2.15-1.19c.19,0,.36.5.3.81a11.42,11.42,0,0,1-1,.54c-.34.17-.69.31-1,.45S90.25,86.54,89.83,86.66Z" fill="#1b2025" fill-rule="evenodd"/>
        <path d="M101.92,84.74a7.12,7.12,0,0,1-1.12-.24c-.86-.25-1.48-.33-2.32-.51a.8.8,0,0,1,.29-.69,1.51,1.51,0,0,1,.36-.06,2.65,2.65,0,0,1,.9.1,3.35,3.35,0,0,1,1.07.53A2.85,2.85,0,0,1,101.92,84.74Z" fill="#1b2025" fill-rule="evenodd"/>
        <path d="M94.91,88.79c.1-1.35-1.38-2-2.61-1.85a2.58,2.58,0,0,0-2.45,2.12c.41.07.93.29,1.55.44l.37,0a12.56,12.56,0,0,1,2.17-.08A4.78,4.78,0,0,0,94.91,88.79Z" fill="#1b2025" fill-rule="evenodd"/>
        <path d="M92.7,87.73c-1.49,0-3.18,1.08-2.42,2a14.74,14.74,0,0,1,1.49-.27,11.44,11.44,0,0,1,2.86,0,.67.67,0,0,0,.28-.46C95,88.45,94.31,87.78,92.7,87.73Z" fill="#fff" fill-rule="evenodd"/>
        <path d="M91.08,88a1.65,1.65,0,0,0,.18,1.48l.51-.07a12.6,12.6,0,0,1,2.42-.07,1.72,1.72,0,0,0,.09-1.31,3.36,3.36,0,0,0-1.72-.36A4.34,4.34,0,0,0,91.08,88Z" fill="#4e4437" fill-rule="evenodd"/>
        <path d="M103.12,87.31c-.08-1.28-1.55-1.7-2.7-1.41a2.46,2.46,0,0,0-2,2.31c.4,0,.92.15,1.52.22l.35-.1a12.73,12.73,0,0,1,2-.35A3.86,3.86,0,0,0,103.12,87.31Z" fill="#1b2025" fill-rule="evenodd"/>
        <path d="M100.91,86.6c-1.42.15-2.87,1.41-2,2.18a13.16,13.16,0,0,1,1.38-.45,11.33,11.33,0,0,1,2.69-.38.65.65,0,0,0,.21-.46C103.14,87,102.43,86.44,100.91,86.6Z" fill="#fff" fill-rule="evenodd"/>
        <path d="M99.42,87.09a1.57,1.57,0,0,0,.35,1.38l.48-.14a12,12,0,0,1,2.27-.37,1.64,1.64,0,0,0-.08-1.24,3.19,3.19,0,0,0-1.67-.13A4.25,4.25,0,0,0,99.42,87.09Z" fill="#4e4437" fill-rule="evenodd"/>
        <path d="M102.08,90.71a2,2,0,0,0,1.88.45c.52-.21.52-.75,0-1.21a2,2,0,0,0-1.88-.45C101.57,89.71,101.57,90.25,102.08,90.71Z" fill="#a97155" fill-rule="evenodd"/>
        <path d="M93,92.37a2.84,2.84,0,0,1-2.35.59c-.63-.21-.6-.82.07-1.36A2.88,2.88,0,0,1,93.1,91C93.73,91.23,93.7,91.83,93,92.37Z" fill="#a97155" fill-rule="evenodd"/>
        <path d="M81.47,101.48a29.4,29.4,0,0,1-2.8-6,39.34,39.34,0,0,1-2-9.2l3.21-.35L82,93.14l3.49,5.45C85.08,101,82.91,102.29,81.47,101.48Z" fill="#9b6044" fill-rule="evenodd"/>
        <path d="M85.84,96.9c-1.31,0-4.35,1.87-5.67,3.13,1.06,2.41,5.4,10.29,7.66,11.84,1.7-.18,2.58-3.65,1.85-7.13C88.87,103,86.66,98.17,85.84,96.9Z" fill="#61c4f2" fill-rule="evenodd"/>
        <path d="M79.61,83.55c-.31.2-.51-1.1-.85-2-.14-.35-.19-.61-.46-.69a.55.55,0,0,0-.63.25,1.64,1.64,0,0,0,0,.5c0,.2-.15.14-.2.07a3.05,3.05,0,0,0-.68-1,.82.82,0,0,0-.92.27c0,.59.19.74.13.91-.54-.34-.82-.12-.85.14s-.08.21.14,1.06c.17.65-.76-.34-.25,1.08A5.23,5.23,0,0,0,76.8,86.7c.69.52,1.48.24,2.59-.16.52-.18.93-.78,1.28-1.8C80.93,84,81,83,80.46,83,80.26,83,80,83.3,79.61,83.55Z" fill="#9b6044" fill-rule="evenodd"/>
        <path d="M40.22,92.5l.66-1.21-.17-1.63-.17-1.19a1.36,1.36,0,0,0-.67-.79l-.7-.24,0-.61c0-.29-.32-.44-.5-.21l-1.11,1.64c-.08.66-.09,1-.12,1.59a5.65,5.65,0,0,0-.46-.44c-.34-.25-.47-.2-.67,0a6,6,0,0,0,1.5,2.94c-.2.85-.47,1.82-.91,3.57-.6,2.41-.87,4.59,1,5.12,1.38-.13,1.64-1.73,1.91-3A32.25,32.25,0,0,0,40.22,92.5Z" fill="#f6cd7c" fill-rule="evenodd"/>
        <path d="M22.28,138.33l.8,6.53-.52,5.45L23,164l6.28-.79-1.66-2.48.25-15.92c0-.14,0-.27,0-.4.23-1.79.07-3.46.24-5.48Z" fill-rule="evenodd" fill="url(#linear-gradient-14)"/>
        <path d="M22.77,157.87,23,164l6.28-.79-1.66-2.48.11-3.32A14.76,14.76,0,0,1,22.77,157.87Z" fill="#eae8e3" fill-rule="evenodd"/>
        <path d="M30.16,164.13c-.14-.39-.43-.78-1.47-1.58a16.46,16.46,0,0,1-3.78.86l-2.25-.78-.14.82.21,1.87h6.68A1.31,1.31,0,0,0,30.16,164.13Z" fill="#5c4e3b" fill-rule="evenodd"/>
        <path d="M14.79,145.44l-1.19,5.63-1.25,12.67,6.38-.75-1.29-2.54,2.2-13.25c0-.11,0-.22.05-.33.87-2.27.89-6.38,1-8.05l-6.49-1.07Z" fill-rule="evenodd" fill="url(#linear-gradient-15)"/>
        <path d="M13,157.11l-.65,6.63,6.38-.75-1.29-2.54.49-2.91A14.67,14.67,0,0,1,13,157.11Z" fill="#eae8e3" fill-rule="evenodd"/>
        <path d="M19.6,163.9c-.11-.41-.18-.52-1.07-1.58a18.83,18.83,0,0,1-4,.66l-2-1.43-.36,1v2.22l6.65.63A3.16,3.16,0,0,0,19.6,163.9Z" fill="#5c4e3b" fill-rule="evenodd"/>
        <path d="M14.73,105.1l.1,5.74q-.06,7.62-.13,15.22c4.36.57,8.48,1.65,13.45.1,0-2.78.09-6.88.25-11.64l-.47-9.31a16.23,16.23,0,0,0-7.06-1.9A14.48,14.48,0,0,0,14.73,105.1Z" fill="#4ebbb9" fill-rule="evenodd"/>
        <path d="M28.09,125.44c1.28,3.08,2.41,13.22,2.29,14.53-5.81,2.94-11.9,3.64-18.51.15-.09-1.88,2.07-12.26,2.78-15.86C19.86,125.52,23.35,126.58,28.09,125.44Z" fill="#4ebbb9" fill-rule="evenodd"/>
        <path d="M35.24,101.09c.39-1.43,1.7-7.2,1.94-8.64a4.58,4.58,0,0,1,3.51.58c.23,2.88-.56,8.35-1.92,10.9Z" fill="#00a19e" fill-rule="evenodd"/>
        <path d="M23.71,103.2c.14,1-.45,2.73-1.67,3.11a3.85,3.85,0,0,1-3.94-2.42l.44-4.24,4.56-.32Z" fill-rule="evenodd" fill="url(#linear-gradient-16)"/>
        <path d="M5.76,101.93A31.69,31.69,0,0,0,15.12,105a8.43,8.43,0,0,1-.28,7.89c-4-1.27-8.95-3.9-11.68-7.3A2.73,2.73,0,0,1,5.76,101.93Z" fill="#00a19e" fill-rule="evenodd"/>
        <path d="M22.7,101.31a11.38,11.38,0,0,1-8.27-3.22c-1.79-1.81-2.2-8.27-1.88-10.68-.62.21,5.62-.71,7.6-2,5.65-3.62,5.2-5.54,5.2-5.54,1.8.66,3.37,4.39,4.31,7.6,1.08,3.66,1.51,6.66-1,9.94A11.44,11.44,0,0,1,22.7,101.31Z" fill-rule="evenodd" fill="url(#linear-gradient-17)"/>
        <path d="M14.8,89.35c.4.54,1.5.69,2.79.74a6.53,6.53,0,0,0,2.92-.54c-.63-1-1.34-1.74-2.63-1.59A5.07,5.07,0,0,0,14.8,89.35Z" fill="#fefefe" fill-rule="evenodd"/>
        <path d="M19.55,88.74a1.29,1.29,0,0,1-.3,1.15,1.7,1.7,0,0,1-1.33.34c-.75,0-1.36-.17-1.44-.89a1.89,1.89,0,0,1,.2-1C17.15,88.31,19.52,87.87,19.55,88.74Z" fill-rule="evenodd" fill="url(#linear-gradient-18)"/>
        <path d="M20.53,89.45a2.83,2.83,0,0,0-2.45-1.86,4.11,4.11,0,0,0-3.56,2,6.6,6.6,0,0,1,3.59-1.18A3.63,3.63,0,0,1,20.53,89.45Z" fill="#574668" fill-rule="evenodd"/>
        <path d="M18.45,85a3.16,3.16,0,0,0-1.11.08,4.8,4.8,0,0,0-1,.37,3.93,3.93,0,0,0-.92.6,2.43,2.43,0,0,0-.69.89c.38-.11.7-.23,1-.35s.64-.27.95-.42.61-.32.91-.5A5.73,5.73,0,0,0,18.45,85Z" fill="#65423a" fill-rule="evenodd"/>
        <path d="M27.7,84.28a2.63,2.63,0,0,0-.75-.77,2.53,2.53,0,0,0-2.47-.24,17.35,17.35,0,0,0,2.2.81A7.09,7.09,0,0,0,27.7,84.28Z" fill="#4c423b" fill-rule="evenodd"/>
        <path d="M6.78,96.58a10.49,10.49,0,0,0,8,2.21,28.22,28.22,0,0,1-2-11.32c-.62.21,5.42-.77,7.4-2,5.65-3.62,5.2-5.54,5.2-5.54,1.63.6,3.15,4.17,4.07,7.27a17.39,17.39,0,0,1,.88,3.72,11.83,11.83,0,0,1-1.87,6.83A10.65,10.65,0,0,0,33.75,95c-.39-3.81-1.1-8.67-3-12.38-3.23-6.16-7.68-8.36-9.94-7.25-3.94-2-10.15,1.9-12.34,10.89C6.65,93.49,6.78,96.58,6.78,96.58Z" fill-rule="evenodd" fill="url(#linear-gradient-19)"/>
        <path d="M22.39,91.26c.52.32,1.36.34,1.36.85,0,.76-1.12,1.41-1.6,1.4a2.66,2.66,0,0,0,1-1.25C23.41,91.79,22.54,91.77,22.39,91.26Z" fill="#e68c70" fill-rule="evenodd"/>
        <path d="M26.31,85.06A3.12,3.12,0,1,0,29.6,88,3.13,3.13,0,0,0,26.31,85.06Zm.38,6.74A3.63,3.63,0,1,1,30.11,88,3.64,3.64,0,0,1,26.69,91.8Z" fill="#c73433" fill-rule="evenodd"/>
        <path d="M17.56,86.07A3.11,3.11,0,1,0,20.85,89,3.11,3.11,0,0,0,17.56,86.07Zm.38,6.73A3.63,3.63,0,1,1,21.36,89,3.63,3.63,0,0,1,17.94,92.8Z" fill="#c73433" fill-rule="evenodd"/>
        <path d="M21.13,89.46l-.28-.32a1.82,1.82,0,0,1,2.5-.41l-.24.37C22.16,88.32,21.14,89.45,21.13,89.46Z" fill="#c73433" fill-rule="evenodd"/>
        <path d="M31.08,87.71a1,1,0,0,0-1.13.16l-.32-.32a1.48,1.48,0,0,1,1.64-.25Z" fill="#c73433" fill-rule="evenodd"/>
        <path d="M12.23,89.56l-.2-.4a2.43,2.43,0,0,1,1.74-.53,1,1,0,0,1,.82.77l-.44.09c-.05-.26-.3-.34-.48-.38A2.67,2.67,0,0,0,12.23,89.56Z" fill="#c73433" fill-rule="evenodd"/>
        <path d="M29.24,87.68c-.24.73-1.41,1.15-2.55,1.33a8.35,8.35,0,0,1-2.79.13,2.94,2.94,0,0,1,2.33-2A4.53,4.53,0,0,1,29.24,87.68Z" fill="#fefefe" fill-rule="evenodd"/>
        <path d="M25.46,87.28A1.09,1.09,0,0,0,25.69,89a2.08,2.08,0,0,0,1.2.11c.74-.11,1.29-.48,1.18-1.22a1.43,1.43,0,0,0-.4-.77A3.83,3.83,0,0,0,25.46,87.28Z" fill-rule="evenodd" fill="url(#linear-gradient-20)"/>
        <path d="M23.91,89.15a3.87,3.87,0,0,1,2.76-1.79,5.85,5.85,0,0,1,2.7.36,3.12,3.12,0,0,0-2.16-1.09A2.86,2.86,0,0,0,23.91,89.15Z" fill="#574668" fill-rule="evenodd"/>
        <path d="M20.43,89.84H15C16.53,91.62,18.71,91.1,20.43,89.84Z" fill="#f8bd7a" fill-rule="evenodd"/>
        <path d="M29.35,88c-1.74.53-3.53,1-5.26,1.49C26.76,90.61,28.75,89.57,29.35,88Z" fill="#f6cb7b" fill-rule="evenodd"/>
        <path d="M21.23,98c1.54.32,2.68-1,3-2.33a7,7,0,0,1-5-.18A2.54,2.54,0,0,0,21.23,98Z" fill="#fefefe" fill-rule="evenodd"/>
        <path d="M21.87,96.24a6.34,6.34,0,0,1-3.66-1l.25-.34a7.14,7.14,0,0,0,6.59.29l.16.39A8.73,8.73,0,0,1,21.87,96.24Z" fill="#d68951"/>
        <path d="M.59,95.23a20.9,20.9,0,0,1-.16-2.29c0-1.55-.2-3.24-.2-3.22.08-.68.17-1.35.26-2a1.77,1.77,0,0,1,2.17-1.22l.28.82.37-.38.09-1.07.7,0,.54,2.82-.17.69L3,91.85l.66,3Z" fill="#f7c17a" fill-rule="evenodd"/>
        <path d="M3.29,92.35,0,92.61a69.89,69.89,0,0,0,.83,7c.5,2.76,1.31,5,2.37,6,2.05-.24,3.28-1.46,3-3.41C5.63,99.37,4.2,95.43,3.29,92.35Z" fill="#00a19e" fill-rule="evenodd"/>
        <path d="M35.7,100.68a29.09,29.09,0,0,1-8.53,4.16c-1.36,4,.82,7.93,1.12,8,3.77-1.83,8.29-5.14,10.51-8.89A2.74,2.74,0,0,0,35.7,100.68Z" fill="#00a19e" fill-rule="evenodd"/>
        <path d="M70.25,123.89l.52,1.29,1.38.92,1,.64a1.32,1.32,0,0,0,1,0l.64-.39.49.37c.24.18.56,0,.5-.26l-.57-1.91c-.47-.49-.76-.75-1.17-1.12a6.13,6.13,0,0,0,.64-.08c.42-.1.46-.23.4-.56a6.22,6.22,0,0,0-3.27-.71c-.53-.71-1.12-1.55-2.21-3-1.48-2-3-3.63-4.61-2.54-.78,1.16.3,2.39,1.15,3.44A31.65,31.65,0,0,0,70.25,123.89Z" fill="#f6cd7c" fill-rule="evenodd"/>
        <path d="M57.43,138l.8,6.61-.52,5.52.39,13.79,6.36-.79-1.68-2.51L63,144.51c0-.14,0-.28,0-.41.24-1.81.07-3.5.25-5.55Z" fill-rule="evenodd" fill="url(#linear-gradient-21)"/>
        <path d="M57.92,157.77l.18,6.15,6.36-.79-1.68-2.51.11-3.36A15.12,15.12,0,0,1,57.92,157.77Z" fill="#eae8e3" fill-rule="evenodd"/>
        <path d="M65.4,164.11c-.14-.4-.44-.79-1.49-1.6a17.06,17.06,0,0,1-3.82.87l-2.28-.79-.14.83.21,1.89h6.76A1.3,1.3,0,0,0,65.4,164.11Z" fill="#d44540" fill-rule="evenodd"/>
        <path d="M49.84,145.19l-1.2,5.71-1.27,12.81,6.46-.75-1.3-2.57L54.76,147c0-.11,0-.22,0-.32.88-2.3.9-6.47,1-8.15l-6.56-1.09Z" fill-rule="evenodd" fill="url(#linear-gradient-22)"/>
        <path d="M48,157l-.67,6.7,6.46-.75-1.3-2.57.49-2.95A14.94,14.94,0,0,1,48,157Z" fill="#eae8e3" fill-rule="evenodd"/>
        <path d="M54.71,163.87c-.11-.41-.18-.52-1.08-1.6a18.79,18.79,0,0,1-4.08.67l-2.06-1.44-.37,1v2.25l6.73.64A3.19,3.19,0,0,0,54.71,163.87Z" fill="#d44540" fill-rule="evenodd"/>
        <path d="M67.83,91.34s.9-.11,4.14,1.43a3,3,0,0,1,1.16,4.17c-.34.43-2.4,2.65-4.24,1.41.1-1.75.34-4-1.62-5.34A16.7,16.7,0,0,1,67.83,91.34Z" fill="#ebaa17" fill-rule="evenodd"/>
        <path d="M67.17,90.18l1.21.72a3.49,3.49,0,0,1-1,2.58l-1.07-.28A5.68,5.68,0,0,1,67.17,90.18Z" fill="#f76363" fill-rule="evenodd"/>
        <path d="M70.26,98.77,70,98.55s1.55-2.11,1-4a4,4,0,0,0-2.69-2.43l.13-.34a4.31,4.31,0,0,1,2.91,2.67C71.92,96.51,70.32,98.67,70.26,98.77Z" fill="#e1931c" fill-rule="evenodd"/>
        <path d="M61.5,76.34c-2.51-1.4-4.31-1.37-5.57-.11a3.9,3.9,0,0,0-3.33-.9c-2.16.56-4.68,3.14-7.25,7.16a11.42,11.42,0,0,0-1.24,2.93,11.77,11.77,0,0,0-.06,5.76C44.67,93.4,46.68,95,48.62,96c-.25-1.45-1.14-5.28-.88-7.46,7.33-3.29,8.55-6.89,8.87-9.11,1.21,1.64,6.58,7.35,10.42,6.41a8.68,8.68,0,0,0-1-4.68A11.12,11.12,0,0,0,61.5,76.34Z" fill="#ebaa17" fill-rule="evenodd"/>
        <path d="M50.53,104.72l-.08,5.71q-.06,7.66-.13,15.33c4.39.57,8.54,1.65,13.55.09,0-2.8.09-6.92.25-11.72l-.4-8.7a6,6,0,0,0-1.34-1.53,21.87,21.87,0,0,0-5.6-2.53A19.86,19.86,0,0,0,51.27,104,6.21,6.21,0,0,0,50.53,104.72Z" fill="#f76363" fill-rule="evenodd"/>
        <path d="M63.88,124.47c.21,1.11.75,3.42,1.1,5.38a71.84,71.84,0,0,1,1.13,9.91c-5.85,3-12,3.67-18.63.16-.1-1.9,2.08-12.35,2.79-16C55.52,125.21,59.1,125.61,63.88,124.47Z" fill="#f76363" fill-rule="evenodd"/>
        <path d="M64.88,119.09c-1.71-3.25-2.59-11.69-2.5-15.19,3,2.19,5.35,9.83,6.61,13.26,1.05,1.34,2.55,3.16,3.6,4.5A5.63,5.63,0,0,1,70,124.28a13.6,13.6,0,0,1-3-2.28A11.39,11.39,0,0,1,64.88,119.09Z" fill="#f76363" fill-rule="evenodd"/>
        <path d="M59.4,102.73a2.77,2.77,0,0,1-1.68,3.14,3.87,3.87,0,0,1-4-2.44l.44-4.27,4.59-.32Z" fill-rule="evenodd" fill="url(#linear-gradient-23)"/>
        <path d="M47.74,121l2.73-7.43A45.34,45.34,0,0,0,51.3,104a11.71,11.71,0,0,0-1.44,1.36,28.13,28.13,0,0,0-5.24,9.18,18,18,0,0,0-1.21,5C43.27,121.66,46.29,121.63,47.74,121Z" fill="#f76363" fill-rule="evenodd"/>
        <path d="M53.42,121.64l-1.06,3.65A12.32,12.32,0,0,1,47,123.65c-1.81-.89-3.28-2.5-3.48-3.45A3.23,3.23,0,0,1,48,118.41Z" fill="#f76363" fill-rule="evenodd"/>
        <path d="M66,83.74c1.24,2.26,2.06,3.67,1.7,6.13a14.42,14.42,0,0,1-2.88,6.39c.51-8.12-.14-8.91-2.35-16.29C63.18,80.17,63.7,80.78,66,83.74Z" fill="#ebaa17" fill-rule="evenodd"/>
        <path d="M58.14,101.46C52.08,100.18,49.41,98,48,95.18a11.13,11.13,0,0,1-.26-6.6c7.33-3.29,8.55-6.89,8.87-9.11A19.18,19.18,0,0,0,65.4,85.3a16.89,16.89,0,0,0,.43,2.38c.24.85.6,1.49.8,2.36a6.33,6.33,0,0,1,.09,2.36C66,96.82,62,99.86,58.14,101.46Z" fill-rule="evenodd" fill="url(#linear-gradient-24)"/>
        <path d="M44,91.45s-.94-.09-4.27,1.59a3.14,3.14,0,0,0-1.1,4.36c.36.45,2.56,2.7,4.45,1.37-.16-1.82-.45-4.12,1.54-5.6A14.55,14.55,0,0,0,44,91.45Z" fill="#ebaa17" fill-rule="evenodd"/>
        <path d="M44.62,90.41l-1.24.78a4.09,4.09,0,0,0,1.32,2.37L46,93.24A5.33,5.33,0,0,0,44.62,90.41Z" fill="#f76363" fill-rule="evenodd"/>
        <polygon points="60.96 84.21 63.71 85.09 63.58 85.55 60.43 85.61 60.96 84.21" fill="#e1931c" fill-rule="evenodd"/>
        <path d="M44.77,87.37l-.19-.3c.08-.06,7.28-4.45,8.2-10.81l.36,0C52.19,82.84,45.13,87.15,44.77,87.37Z" fill="#e1931c" fill-rule="evenodd"/>
        <path d="M65.41,81.41A6.77,6.77,0,0,1,60.1,77l.26-.09a6.55,6.55,0,0,0,5.08,4.27Z" fill="#e1931c" fill-rule="evenodd"/>
        <path d="M45.72,88l-.07-.06,0-.16a21.3,21.3,0,0,0,6.89-4.83A9.69,9.69,0,0,0,55,77.72c0-.11.13-.13.21-.09a.16.16,0,0,1,.12.18A8.3,8.3,0,0,1,53,83.07a20,20,0,0,1-7.18,4.87Z" fill="#e1931c" fill-rule="evenodd"/>
        <path d="M50.75,93.46a1.15,1.15,0,0,1-1.14-.59c-.25-.58.25-1.36,1.12-1.73A2.58,2.58,0,0,1,51.6,91a1.14,1.14,0,0,1,1.14.59c.25.58-.25,1.36-1.11,1.73A2.63,2.63,0,0,1,50.75,93.46Z" fill-rule="evenodd" fill="url(#linear-gradient-25)"/>
        <path d="M40.47,98.33c-1-3.24,2.86-6,3-6.07l.21.31s-3.82,2.67-2.87,5.64Z" fill="#e1931c" fill-rule="evenodd"/>
        <path d="M60.42,89.26c1.6-.14,2.81-.23,4.29-.5a2.91,2.91,0,0,0-.21-1.35,1.8,1.8,0,0,0-1.58-.73,2.63,2.63,0,0,0-2.47,1.09A2.07,2.07,0,0,0,60.42,89.26Z" fill="#fdfdfd" fill-rule="evenodd"/>
        <path d="M62,89.12a1.27,1.27,0,0,1-.48-.7A1.17,1.17,0,0,1,62.13,87a2.45,2.45,0,0,1,1.42,0,1.42,1.42,0,0,1,.53,1.93A19.78,19.78,0,0,1,62,89.12Z" fill-rule="evenodd" fill="url(#linear-gradient-26)"/>
        <path d="M64.93,87.78a2.55,2.55,0,0,0-2.84-1.35,2.14,2.14,0,0,0-2,1.83,3,3,0,0,1,1.92-1A3.7,3.7,0,0,1,64.93,87.78Z" fill="#8b4e45" fill-rule="evenodd"/>
        <path d="M55.77,89.66c-1.59.14-2.81.31-4.4.37-.19-1.15,0-2.07,1.45-2.47a2.66,2.66,0,0,1,2.65.62A2.11,2.11,0,0,1,55.77,89.66Z" fill="#fdfdfd" fill-rule="evenodd"/>
        <path d="M55.07,89.72c.54-.54.31-2-.63-2.1a2.55,2.55,0,0,0-1.43.23,1.24,1.24,0,0,0,0,2.08Z" fill-rule="evenodd" fill="url(#linear-gradient-27)"/>
        <path d="M50.5,89.14A3.75,3.75,0,0,1,54,87.08a1.82,1.82,0,0,1,2,1.41,3.1,3.1,0,0,0-2.2-.59A8.15,8.15,0,0,0,50.5,89.14Z" fill="#8b4e45" fill-rule="evenodd"/>
        <polygon points="55.2 84.65 52.09 86.05 52.4 86.48 55.68 85.85 55.2 84.65" fill="#e1931c" fill-rule="evenodd"/>
        <path d="M58.62,92.93c.21-.12,2.11-1.18,2-2.22,0-.35-.16-.57-.38-.65-.39-.16-1,.21-1.27.47L58.73,88l-.33,0,.35,3.14L59,91c.34-.31.92-.71,1.17-.61s.16.23.17.38c.06.7-1.32,1.61-1.86,1.91Z" fill="#de9460" fill-rule="evenodd"/>
        <path d="M60.89,95.41s-5,.6-6.7-1c.43,1.31,1.91,3.19,3.07,3.47C58.76,98.22,60,96.66,60.89,95.41Z" fill="#fff" fill-rule="evenodd"/>
        <path d="M57.13,95.77a8.38,8.38,0,0,0,4.23-.55.29.29,0,0,0,.16-.36.28.28,0,0,0-.37-.16s-4,1.69-7.31-.78a.28.28,0,0,0-.39,0,.3.3,0,0,0,0,.4A7.37,7.37,0,0,0,57.13,95.77Z" fill="#e68e93" fill-rule="evenodd"/>
        <path d="M52.5,124.81a5.17,5.17,0,0,0,.72.15,3.48,3.48,0,0,1,1.12.39l1.89.17a1.65,1.65,0,0,0,1.56-1.72l-.69-.43.42-.26,1,.14.12-.64-2.47-1.07h-.66l-2.3.79Z" fill="#f7c17a" fill-rule="evenodd"/>
        <path d="M65.43,83.57a11.78,11.78,0,0,1-3.55-2,9.76,9.76,0,0,1-3.48-4.62c0-.1-.16-.09-.23,0a.17.17,0,0,0-.08.21,8.43,8.43,0,0,0,3.42,4.71A12.79,12.79,0,0,0,65.65,84C66.18,84,65.7,83.69,65.43,83.57Z" fill="#e1931c" fill-rule="evenodd"/>
        <path d="M53.84,102.45a5.36,5.36,0,0,0-2.55.92c.32,1.6,1.46,3.82,3,4.18s2.65-1.19,2.94-1.65C55.36,105.55,54,104.59,53.84,102.45Z" fill="#f6fbfe" fill-rule="evenodd"/>
        <path d="M57.21,105.9a2.36,2.36,0,0,0,3,.95c1.29-.79,1.5-2.71,1.41-4a3.73,3.73,0,0,0-2.31-.6A2.86,2.86,0,0,1,57.21,105.9Z" fill="#f6fbfe" fill-rule="evenodd"/>
        <path d="M53.42,121.64a10.94,10.94,0,0,1-1.06,3.65c-.73-.09-1.28-.16-1.8-.26A13.75,13.75,0,0,0,52,120.78Z" fill="#f6fbfe" fill-rule="evenodd"/>
        <path d="M57.05,110.74h0a.17.17,0,0,1-.13-.2A15.12,15.12,0,0,0,57,106a.16.16,0,0,1,.14-.18.16.16,0,0,1,.19.14,15.79,15.79,0,0,1-.06,4.67Z" fill="#f6fbfe"/>
        <path d="M56.8,110.61c.21,0,.42.1.43.17a4.93,4.93,0,0,1-.12,2.23,2.58,2.58,0,0,1-1.63-.87A5,5,0,0,0,56.8,110.61Z" fill="#f6fbfe" fill-rule="evenodd"/>
        <path d="M57,111.08a.42.42,0,1,0,0-.84.42.42,0,0,0,0,.84Z" fill="#f6fbfe" fill-rule="evenodd"/>
        <path d="M58.58,109.75l-.15-.09a14.55,14.55,0,0,1-1.37-3.58l.12-.2.2.12a14.14,14.14,0,0,0,1.34,3.5l-.06.23Z" fill="#f6fbfe"/>
        <path d="M58.82,109.54c-.17.11-.35.22-.34.29a4.82,4.82,0,0,0,.83,2.07,2.52,2.52,0,0,0,1.26-1.35A5,5,0,0,1,58.82,109.54Z" fill="#f6fbfe" fill-rule="evenodd"/>
        <path d="M58.49,109.25a.42.42,0,1,1,.28.8.44.44,0,0,1-.54-.26A.43.43,0,0,1,58.49,109.25Z" fill="#f6fbfe" fill-rule="evenodd"/>
        <path d="M71.7,120.55l.89,1.11A5.63,5.63,0,0,1,70,124.28c-.32-.18-.75-.44-1.21-.75A7.44,7.44,0,0,0,71.7,120.55Z" fill="#f6fbfe" fill-rule="evenodd"/>
        <path d="M64.57,92.59a1,1,0,0,0,1.05-.44c.26-.51-.13-1.23-.88-1.62A2.06,2.06,0,0,0,64,90.3a1,1,0,0,0-1,.44c-.27.51.13,1.23.87,1.62A2,2,0,0,0,64.57,92.59Z" fill-rule="evenodd" fill="url(#linear-gradient-28)"/>
      </g>
    </g>
  </g>
</svg>
