<svg xmlns="http://www.w3.org/2000/svg" width="206" height="206" viewBox="0 0 206 206">
  <title>make-up-classes-icon</title>
  <g id="Layer_2" data-name="Layer 2">
    <g id="make-up_classes" data-name="make-up classes">
      <g>
        <circle cx="103" cy="103" r="103" fill="#68bc7a"/>
        <circle cx="103" cy="103" r="89.11" fill="#b9efbb"/>
        <path d="M154.76,142.19V162a5.17,5.17,0,0,1-5.18,5.17H56.42A5.17,5.17,0,0,1,51.24,162V58.47a5.18,5.18,0,0,1,5.18-5.18H74.75V45a5,5,0,0,1,9.92,0v8.26h36.66V45a5,5,0,1,1,9.92,0v8.26h18.33a5.18,5.18,0,0,1,5.18,5.18v83.72Z" fill="#68bc7a"/>
        <g>
          <rect x="51.24" y="58.14" width="103.52" height="103.52" rx="6" ry="6" fill="#bcbec0"/>
          <rect x="51.24" y="54.69" width="103.52" height="103.52" rx="6" ry="6" fill="#d1d3d4"/>
          <rect x="51.24" y="51.24" width="103.52" height="103.52" rx="6" ry="6" fill="#e6e7e8"/>
          <rect x="51.24" y="47.79" width="103.52" height="103.52" rx="6" ry="6" fill="#fff"/>
          <g>
            <g>
              <rect x="58.07" y="79.45" width="15.01" height="15.01" rx="4" ry="4" fill="#fede3a"/>
              <path d="M69.63,92.74H61.52a3.45,3.45,0,0,1-3.45-3.45V91a3.44,3.44,0,0,0,3.45,3.45h8.11A3.45,3.45,0,0,0,73.08,91V89.29A3.46,3.46,0,0,1,69.63,92.74Z" fill="#f7cb15"/>
              <rect x="83.02" y="79.45" width="15.01" height="15.01" rx="4" ry="4" fill="#fede3a"/>
              <path d="M94.58,92.74H86.47A3.45,3.45,0,0,1,83,89.29V91a3.44,3.44,0,0,0,3.45,3.45h8.11A3.45,3.45,0,0,0,98,91V89.29A3.46,3.46,0,0,1,94.58,92.74Z" fill="#f7cb15"/>
              <rect x="107.97" y="79.45" width="15.01" height="15.01" rx="4" ry="4" fill="#e6e7e8"/>
              <rect x="132.92" y="79.45" width="15.01" height="15.01" rx="4" ry="4" fill="#fede3a"/>
            </g>
            <g>
              <rect x="58.07" y="104.4" width="15.01" height="15.01" rx="4" ry="4" fill="#e6e7e8"/>
              <rect x="83.02" y="104.4" width="15.01" height="15.01" rx="4" ry="4" fill="#fede3a"/>
              <path d="M94.58,117.69H86.47A3.45,3.45,0,0,1,83,114.24V116a3.44,3.44,0,0,0,3.45,3.45h8.11A3.45,3.45,0,0,0,98,116v-1.72A3.46,3.46,0,0,1,94.58,117.69Z" fill="#f7cb15"/>
              <rect x="107.97" y="104.4" width="15.01" height="15.01" rx="4" ry="4" fill="#e6e7e8"/>
              <rect x="132.92" y="104.4" width="15.01" height="15.01" rx="4" ry="4" fill="#e6e7e8"/>
            </g>
            <g>
              <rect x="58.07" y="129.36" width="15.01" height="15.01" rx="4" ry="4" fill="#fede3a"/>
              <path d="M69.63,142.64H61.52a3.44,3.44,0,0,1-3.45-3.45v1.73a3.45,3.45,0,0,0,3.45,3.45h8.11a3.46,3.46,0,0,0,3.45-3.45v-1.73A3.45,3.45,0,0,1,69.63,142.64Z" fill="#f7cb15"/>
              <rect x="83.02" y="129.36" width="15.01" height="15.01" rx="4" ry="4" fill="#fede3a"/>
              <path d="M94.58,142.64H86.47A3.44,3.44,0,0,1,83,139.19v1.73a3.45,3.45,0,0,0,3.45,3.45h8.11A3.46,3.46,0,0,0,98,140.92v-1.73A3.45,3.45,0,0,1,94.58,142.64Z" fill="#f7cb15"/>
              <rect x="107.97" y="129.36" width="15.01" height="15.01" rx="4" ry="4" fill="#fede3a"/>
              <path d="M119.53,142.64h-8.11a3.45,3.45,0,0,1-3.45-3.45v1.73a3.46,3.46,0,0,0,3.45,3.45h8.11a3.45,3.45,0,0,0,3.45-3.45v-1.73A3.44,3.44,0,0,1,119.53,142.64Z" fill="#f7cb15"/>
              <rect x="132.92" y="129.36" width="15.01" height="15.01" rx="4" ry="4" fill="#e6e7e8"/>
            </g>
          </g>
          <g>
            <g>
              <path d="M149.58,47.79H56.42A5.18,5.18,0,0,0,51.24,53V72.09H154.76V53A5.18,5.18,0,0,0,149.58,47.79Z" fill="#74d68d"/>
              <rect x="51.24" y="67.74" width="103.52" height="4.35" fill="#b9efbb"/>
            </g>
            <g>
              <rect x="74.75" y="38.01" width="9.92" height="26.45" rx="4.96" ry="4.96" fill="#b9efbb"/>
              <rect x="121.33" y="38.01" width="9.92" height="26.45" rx="4.96" ry="4.96" fill="#b9efbb"/>
              <rect x="74.75" y="34.56" width="9.92" height="26.45" rx="4.96" ry="4.96" fill="#fede3a"/>
              <path d="M79.71,34.56a5,5,0,0,0-5,5v8.63a5,5,0,0,1,9.92,0V39.52A5,5,0,0,0,79.71,34.56Z" fill="#fff335"/>
              <path d="M79.71,56.7a5,5,0,0,1-5-5v4.32a5,5,0,0,0,9.92,0V51.74A5,5,0,0,1,79.71,56.7Z" fill="#f7cb15"/>
              <rect x="121.33" y="34.56" width="9.92" height="26.45" rx="4.96" ry="4.96" fill="#fede3a"/>
              <path d="M126.29,34.56a5,5,0,0,0-5,5v8.63a5,5,0,1,1,9.92,0V39.52A5,5,0,0,0,126.29,34.56Z" fill="#fff335"/>
              <path d="M126.29,56.7a5,5,0,0,1-5-5v4.32a5,5,0,1,0,9.92,0V51.74A5,5,0,0,1,126.29,56.7Z" fill="#f7cb15"/>
            </g>
          </g>
        </g>
        <path d="M115.07,116.19a2.57,2.57,0,0,1-1.83-.76l-7.13-7.13a2.59,2.59,0,0,1,3.66-3.66l5.3,5.3,9.8-9.8a2.59,2.59,0,0,1,3.66,3.66L116.9,115.43A2.56,2.56,0,0,1,115.07,116.19Z" fill="#68bc7a"/>
      </g>
    </g>
  </g>
</svg>
