<svg id="skill_tracking" data-name="skill tracking" xmlns="http://www.w3.org/2000/svg" xmlns:xlink="http://www.w3.org/1999/xlink" viewBox="0 0 400 240">
  <defs>
    <linearGradient id="linear-gradient" x1="199.93" y1="209.32" x2="199.93" y2="0.04" gradientUnits="userSpaceOnUse">
      <stop offset="0" stop-color="#fff"/>
      <stop offset="1" stop-color="#dcf2fd"/>
    </linearGradient>
  </defs>
  <title>generic-features-skill-tracking-graphic</title>
  <rect y="0.04" width="399.86" height="209.28" fill="url(#linear-gradient)"/>
  <g>
    <rect y="176.73" width="399.86" height="63.27" fill="#f4a41d"/>
    <rect y="168.23" width="399.86" height="12.62" fill="#ffd73b"/>
  </g>
  <path d="M204.61,142.85a.93.93,0,0,0-1.31,0l-4.48,4.5-4.5-4.49a.93.93,0,0,0-1.31,1.32l4.5,4.48L193,153.15a.93.93,0,0,0,0,1.32.92.92,0,0,0,1.31,0l4.48-4.49,4.5,4.48a.93.93,0,0,0,1.31-1.31l-4.5-4.48,4.49-4.5A.92.92,0,0,0,204.61,142.85Z" fill="#fcb531"/>
  <g>
    <path d="M138.49,36l-1.68-13.45a1.16,1.16,0,0,0-1.29-1L96.38,26.48a1.17,1.17,0,0,0-1,1.3l1.68,13.44a1.16,1.16,0,0,0,1.3,1L57.51,47.34a4.63,4.63,0,0,0-4,5.17l20,160.13a4.63,4.63,0,0,0,5.17,4l122.39-15.31a4.63,4.63,0,0,0,4-5.17l-20-160.13a4.63,4.63,0,0,0-5.17-4l-42.41,5.3A1.16,1.16,0,0,0,138.49,36Z" fill="#8b578a" fill-rule="evenodd"/>
    <path d="M83.33,205.64a4.13,4.13,0,0,0,4.61,3.58l109.14-13.65a4.14,4.14,0,0,0,3.59-4.61L183.74,55.66a4.14,4.14,0,0,0-4.61-3.58L70,65.73a4.15,4.15,0,0,0-3.59,4.61Z" fill="#642f62" fill-rule="evenodd"/>
    <path d="M79.1,199.45a4,4,0,0,0,4.47,3.48l105.94-13.25A4,4,0,0,0,193,185.2L176,49.66a4,4,0,0,0-4.47-3.48L65.63,59.44a4,4,0,0,0-3.48,4.48Z" fill="#fff" fill-rule="evenodd"/>
    <path d="M111.41,53.62,66,59.39a1.74,1.74,0,0,0-1.5,1.92l17.09,137.5a1.72,1.72,0,0,0,1.92,1.49l45.4-5.77a1.73,1.73,0,0,0,1.49-1.92L113.33,55.11A1.73,1.73,0,0,0,111.41,53.62Z" fill="#f6f1f4" fill-rule="evenodd"/>
    <path d="M152.17,96.92a3.17,3.17,0,0,0,3.54,2.75l9.76-1.22a3.18,3.18,0,0,0,2.75-3.54L167,85.28a3.18,3.18,0,0,0-3.55-2.75l-9.75,1.22A3.17,3.17,0,0,0,151,87.29Zm1.11-10.67a1,1,0,0,1,.7-.4l9.76-1.22a1.08,1.08,0,0,1,.78.21,1.11,1.11,0,0,1,.4.71l1.2,9.62a1.06,1.06,0,0,1-.21.78,1,1,0,0,1-.71.4l-9.75,1.22a1.06,1.06,0,0,1-.78-.21,1,1,0,0,1-.4-.7L153.06,87A1.06,1.06,0,0,1,153.28,86.25Z" fill="#8b578a"/>
    <path d="M156.14,128.71a3.18,3.18,0,0,0,3.54,2.76l9.76-1.22a3.2,3.2,0,0,0,2.75-3.54L171,117.08a3.13,3.13,0,0,0-1.2-2.11,3.19,3.19,0,0,0-2.34-.65l-9.75,1.22a3.2,3.2,0,0,0-2.76,3.55ZM157.25,118a1.08,1.08,0,0,1,.7-.4l9.76-1.22a1.08,1.08,0,0,1,1.18.92l1.2,9.63a1,1,0,0,1-.22.78,1.06,1.06,0,0,1-.7.4l-9.75,1.22a1.06,1.06,0,0,1-.78-.22,1,1,0,0,1-.4-.7L157,118.82A1.09,1.09,0,0,1,157.25,118Z" fill="#612e60"/>
    <path d="M160,159.86a3.11,3.11,0,0,0,1.2,2.1,3.15,3.15,0,0,0,2.34.65l9.75-1.22a3.18,3.18,0,0,0,2.76-3.54l-1.21-9.63a3.17,3.17,0,0,0-3.54-2.75l-9.75,1.22a3.18,3.18,0,0,0-2.76,3.54Zm1.11-10.67a1,1,0,0,1,.7-.4l9.75-1.22a1.06,1.06,0,0,1,.78.21,1,1,0,0,1,.4.7l1.21,9.63a1.06,1.06,0,0,1-.22.78,1,1,0,0,1-.7.4l-9.76,1.22a1,1,0,0,1-.77-.21,1.08,1.08,0,0,1-.41-.71l-1.2-9.62A1,1,0,0,1,161.14,149.19Z" fill="#8b578a"/>
    <path d="M151,89.14a1.05,1.05,0,0,0,.33,1.45l7.45,4.71A1.05,1.05,0,0,0,160.2,95h0l8.43-13.68a1.05,1.05,0,1,0-1.79-1.11L159,93l-6.54-4.14A1.07,1.07,0,0,0,151,89.14Z" fill="#fcb531"/>
    <path d="M154.75,119.42a1.05,1.05,0,0,0,.33,1.45l7.45,4.71a1.05,1.05,0,0,0,1.45-.33h0l8.43-13.69a1.05,1.05,0,1,0-1.79-1.1l-7.88,12.77-6.54-4.13A1.05,1.05,0,0,0,154.75,119.42Z" fill="#fcb531"/>
    <rect x="81.56" y="90.07" width="57.93" height="2.45" rx="0.81" ry="0.81" transform="translate(-10.45 14.38) rotate(-7.11)" fill="#612e60"/>
    <path d="M106.44,95.59,83.15,98.52a.82.82,0,0,0-.7.91l.1.83a.82.82,0,0,0,.91.7L106.74,98a.8.8,0,0,0,.7-.9l-.1-.83A.82.82,0,0,0,106.44,95.59Z" fill="#612e60" fill-rule="evenodd"/>
    <rect x="109.69" y="93.37" width="29.91" height="2.45" rx="0.81" ry="0.81" transform="translate(-10.82 16.27) rotate(-7.16)" fill="#8b578a"/>
    <rect x="82.94" y="100.94" width="39.75" height="2.45" rx="0.81" ry="0.81" transform="translate(-11.89 13.56) rotate(-7.13)" fill="#612e60"/>
    <path d="M142.26,118.49l-55.88,7a.81.81,0,0,0-.7.91l.1.82a.82.82,0,0,0,.9.71l55.89-7a.82.82,0,0,0,.7-.9l-.11-.83A.8.8,0,0,0,142.26,118.49Z" fill="#612e60" fill-rule="evenodd"/>
    <path d="M110.38,127.48,87.1,130.42a.8.8,0,0,0-.7.9l.1.83a.81.81,0,0,0,.9.7l23.28-2.93a.82.82,0,0,0,.71-.91l-.11-.83A.81.81,0,0,0,110.38,127.48Z" fill="#612e60" fill-rule="evenodd"/>
    <rect x="113.64" y="125.27" width="29.91" height="2.45" rx="0.81" ry="0.81" transform="translate(-14.76 17.01) rotate(-7.16)" fill="#8b578a"/>
    <rect x="86.89" y="132.83" width="39.75" height="2.45" rx="0.81" ry="0.81" transform="translate(-15.82 14.29) rotate(-7.13)" fill="#612e60"/>
    <path d="M146.16,150l-55.88,7a.82.82,0,0,0-.71.9l.11.83a.8.8,0,0,0,.9.7l55.88-7a.82.82,0,0,0,.71-.91l-.11-.82A.81.81,0,0,0,146.16,150Z" fill="#8b578a" fill-rule="evenodd"/>
    <path d="M114.28,159,91,161.92a.82.82,0,0,0-.71.91l.11.82a.8.8,0,0,0,.9.7l23.28-2.93a.8.8,0,0,0,.7-.9l-.1-.83A.8.8,0,0,0,114.28,159Z" fill="#612e60" fill-rule="evenodd"/>
    <rect x="117.54" y="156.77" width="29.91" height="2.45" rx="0.81" ry="0.81" transform="translate(-18.66 17.74) rotate(-7.16)" fill="#612e60"/>
    <rect x="90.78" y="164.34" width="39.75" height="2.45" rx="0.81" ry="0.81" transform="translate(-19.7 15.02) rotate(-7.13)" fill="#612e60"/>
    <path d="M113,30.77a3.54,3.54,0,1,0,3.08-4A3.54,3.54,0,0,0,113,30.77Z" fill="#fff" fill-rule="evenodd"/>
    <rect x="73" y="36.41" width="91.15" height="20.48" rx="4.05" ry="4.05" transform="translate(-4.87 15.08) rotate(-7.13)" fill="#612e60"/>
    <path d="M136.1,49.06a3,3,0,0,0,3.29,2.56l19.46-2.48a3,3,0,0,0,2.57-3.3l-1.11-8.94A3,3,0,0,0,157,34.34l-19.46,2.48a3,3,0,0,0-2.57,3.3Z" fill="#815380" fill-rule="evenodd"/>
    <path d="M132.15,70.16a4.2,4.2,0,1,0,3.65-4.69A4.21,4.21,0,0,0,132.15,70.16Z" fill="#f6f1f4" fill-rule="evenodd"/>
    <path d="M134.61,69.86a1.72,1.72,0,1,0,1.5-1.92A1.72,1.72,0,0,0,134.61,69.86Z" fill="#fff" fill-rule="evenodd"/>
    <rect x="134.57" y="63.68" width="2.2" height="2.68" transform="translate(-6.95 17.15) rotate(-7.05)" fill="#f6f1f4"/>
    <rect x="135.7" y="72.75" width="2.2" height="2.68" transform="translate(-8.06 17.35) rotate(-7.05)" fill="#f6f1f4"/>
    <rect x="139.02" y="71.6" width="2.2" height="2.68" transform="translate(-8.72 125.85) rotate(-47.07)" fill="#f6f1f4"/>
    <rect x="131.95" y="72.68" width="2.68" height="2.2" transform="translate(-1.13 145.48) rotate(-57.04)" fill="#f6f1f4"/>
    <rect x="137.89" y="64.61" width="2.68" height="2.2" transform="translate(8.35 146.78) rotate(-57.04)" fill="#f6f1f4"/>
    <rect x="131.3" y="65.22" width="2.2" height="2.68" transform="translate(-6.52 118.15) rotate(-47.06)" fill="#f6f1f4"/>
    <rect x="139.29" y="68.3" width="2.84" height="2.16" transform="translate(-7.45 17.8) rotate(-7.05)" fill="#f6f1f4"/>
    <rect x="130.05" y="69.44" width="2.84" height="2.16" transform="translate(-7.66 16.67) rotate(-7.05)" fill="#f6f1f4"/>
    <path d="M124.25,65.61a2.52,2.52,0,1,0,2.2-2.81A2.52,2.52,0,0,0,124.25,65.61Z" fill="#f6f1f4" fill-rule="evenodd"/>
    <path d="M125.73,65.43a1,1,0,1,0,.9-1.16A1,1,0,0,0,125.73,65.43Z" fill="#fff" fill-rule="evenodd"/>
    <rect x="125.71" y="61.72" width="1.32" height="1.61" transform="translate(-6.72 15.98) rotate(-7.05)" fill="#f6f1f4"/>
    <rect x="126.38" y="67.16" width="1.32" height="1.61" transform="translate(-7.38 16.11) rotate(-7.05)" fill="#f6f1f4"/>
    <rect x="128.38" y="66.47" width="1.32" height="1.61" transform="translate(-8.11 115.93) rotate(-47.07)" fill="#f6f1f4"/>
    <rect x="124.14" y="67.12" width="1.61" height="1.32" transform="translate(0.1 135.74) rotate(-57.04)" fill="#f6f1f4"/>
    <rect x="127.7" y="62.28" width="1.61" height="1.32" transform="translate(5.79 136.53) rotate(-57.05)" fill="#f6f1f4"/>
    <rect x="123.74" y="62.64" width="1.32" height="1.61" transform="translate(-6.79 111.31) rotate(-47.06)" fill="#f6f1f4"/>
    <rect x="128.54" y="64.49" width="1.71" height="1.3" transform="translate(-7.02 16.38) rotate(-7.05)" fill="#f6f1f4"/>
    <rect x="123" y="65.18" width="1.71" height="1.3" transform="translate(-7.14 15.7) rotate(-7.05)" fill="#f6f1f4"/>
    <path d="M144.85,145.67a.32.32,0,0,0,.28.08.27.27,0,0,0,.25-.17,1.38,1.38,0,0,0,0-.46l-.16-1.3a3,3,0,0,0,1.24-.54,2.25,2.25,0,0,0,.86-2.1,2.2,2.2,0,0,0-.29-.85,1.91,1.91,0,0,0-.58-.62,2.17,2.17,0,0,0-.74-.34c-.26-.06-.62-.13-1.06-.19l-.27-2.17a1.2,1.2,0,0,1,.93.77.66.66,0,0,0,.73.47.68.68,0,0,0,.44-.25.64.64,0,0,0,.14-.48,1.24,1.24,0,0,0-.2-.49,2,2,0,0,0-.43-.51,1.92,1.92,0,0,0-.76-.43,3.23,3.23,0,0,0-1-.11l-.07-.56c0-.29-.16-.42-.38-.39s-.32.19-.28.48l.07.55a2.54,2.54,0,0,0-1.56.87,2.25,2.25,0,0,0,0,2.63,2,2,0,0,0,.84.57,6.27,6.27,0,0,0,1.22.29l.3,2.42a1.47,1.47,0,0,1-.6-.22,1.27,1.27,0,0,1-.36-.37,6.64,6.64,0,0,1-.33-.63.64.64,0,0,0-.26-.28.69.69,0,0,0-.41-.05.68.68,0,0,0-.6.73,1.78,1.78,0,0,0,.23.67,2.34,2.34,0,0,0,.53.62,2.64,2.64,0,0,0,.83.45,3.4,3.4,0,0,0,1.1.16l.17,1.4A.68.68,0,0,0,144.85,145.67Zm0-5.14a2.23,2.23,0,0,1,.87.32.88.88,0,0,1,.37.66,1.09,1.09,0,0,1-.2.78,1.4,1.4,0,0,1-.76.52Zm-1.59-1.76a.8.8,0,0,1-.31-.59.83.83,0,0,1,.16-.68,2,2,0,0,1,.64-.43l.25,2A2.17,2.17,0,0,1,143.22,138.77Z" fill="#fff"/>
    <path d="M142.49,178.28a3.94,3.94,0,1,0,3.43-4.39A3.94,3.94,0,0,0,142.49,178.28Z" fill="#f6f1f4" fill-rule="evenodd"/>
    <path d="M144.8,178a1.61,1.61,0,1,0,1.4-1.79A1.61,1.61,0,0,0,144.8,178Z" fill="#fff" fill-rule="evenodd"/>
    <rect x="144.9" y="172.19" width="2.06" height="2.51" transform="translate(-20.19 19.22) rotate(-7.05)" fill="#f6f1f4"/>
    <rect x="145.95" y="180.69" width="2.06" height="2.51" transform="translate(-21.22 19.42) rotate(-7.05)" fill="#f6f1f4"/>
    <rect x="142.44" y="180.63" width="2.51" height="2.06" transform="translate(-86.9 203.39) rotate(-57.04)" fill="#f6f1f4"/>
    <rect x="149.07" y="179.61" width="2.06" height="2.51" transform="translate(-84.56 167.54) rotate(-47.06)" fill="#f6f1f4"/>
    <rect x="141.83" y="173.63" width="2.06" height="2.51" transform="translate(-82.49 160.36) rotate(-47.07)" fill="#f6f1f4"/>
    <rect x="148.01" y="173.07" width="2.51" height="2.06" transform="translate(-78.02 204.61) rotate(-57.04)" fill="#f6f1f4"/>
    <rect x="141.01" y="177.55" width="2.66" height="2.02" transform="translate(-20.84 18.82) rotate(-7.05)" fill="#f6f1f4"/>
    <rect x="149.67" y="176.48" width="2.66" height="2.02" transform="translate(-20.64 19.88) rotate(-7.05)" fill="#f6f1f4"/>
    <path d="M151.75,172a2.36,2.36,0,1,0,2.05-2.64A2.36,2.36,0,0,0,151.75,172Z" fill="#f6f1f4" fill-rule="evenodd"/>
    <path d="M153.13,171.79a1,1,0,1,0,1.92-.24,1,1,0,0,0-1.07-.84A1,1,0,0,0,153.13,171.79Z" fill="#fff" fill-rule="evenodd"/>
    <rect x="153.19" y="168.3" width="1.24" height="1.51" transform="translate(-19.59 20.16) rotate(-7.05)" fill="#f6f1f4"/>
    <rect x="153.82" y="173.4" width="1.24" height="1.51" transform="translate(-20.21 20.27) rotate(-7.05)" fill="#f6f1f4"/>
    <rect x="151.72" y="173.37" width="1.51" height="1.24" transform="translate(-76.46 207.27) rotate(-57.04)" fill="#f6f1f4"/>
    <rect x="155.7" y="172.76" width="1.24" height="1.51" transform="translate(-77.19 169.76) rotate(-47.07)" fill="#f6f1f4"/>
    <rect x="151.35" y="169.17" width="1.24" height="1.51" transform="translate(-75.95 165.43) rotate(-47.06)" fill="#f6f1f4"/>
    <rect x="155.06" y="168.83" width="1.51" height="1.24" transform="translate(-71.13 207.98) rotate(-57.04)" fill="#f6f1f4"/>
    <rect x="150.86" y="171.52" width="1.6" height="1.21" transform="translate(-19.98 19.92) rotate(-7.05)" fill="#f6f1f4"/>
    <rect x="156.06" y="170.87" width="1.6" height="1.21" transform="translate(-19.86 20.55) rotate(-7.05)" fill="#f6f1f4"/>
    <polygon points="170.19 72.06 156.19 76.29 152.73 64.79 151.89 65.04 155.35 76.54 155.59 77.33 155.59 77.33 156.43 77.07 156.43 77.07 170.43 72.85 170.19 72.06" fill="#f6f1f4" fill-rule="evenodd"/>
    <polygon points="153.42 64.99 151.9 63.74 151.33 65.62 153.42 64.99" fill="#f6f1f4"/>
    <polygon points="169.66 71.53 170.26 73.63 171.53 72.12 169.66 71.53" fill="#f6f1f4"/>
    <rect x="156.37" y="65.38" width="1.11" height="9.38" transform="translate(-13.55 48.3) rotate(-16.78)" fill="#f6f1f4"/>
    <rect x="158.66" y="66.7" width="1.11" height="7.41" transform="translate(-13.55 48.98) rotate(-16.79)" fill="#f6f1f4"/>
    <rect x="160.93" y="69.29" width="1.11" height="4.21" transform="translate(-13.74 49.68) rotate(-16.79)" fill="#f6f1f4"/>
    <rect x="162.62" y="67.65" width="1.11" height="5.31" transform="translate(-13.35 50.13) rotate(-16.79)" fill="#f6f1f4"/>
    <rect x="164.75" y="68.72" width="1.11" height="3.63" transform="translate(-13.33 50.74) rotate(-16.78)" fill="#f6f1f4"/>
  </g>
  <g>
    <path d="M366.12,41.8l-44.85-4.45,1.44-14.5a2.33,2.33,0,0,0-2.09-2.55L285,16.76a2.35,2.35,0,0,0-2.55,2.09L281,33.35l-42.39-4.2A2,2,0,0,0,236.4,31L218.88,207.53a2,2,0,0,0,1.82,2.21l127.5,12.65a2,2,0,0,0,2.22-1.81L367.93,44A2,2,0,0,0,366.12,41.8Z" fill="#e9618d" fill-rule="evenodd"/>
    <path d="M361.4,60.5l-112-11.12a1.78,1.78,0,0,0-1.94,1.6L232.29,203.77a1.79,1.79,0,0,0,1.59,1.95l112,11.11a1.78,1.78,0,0,0,1.95-1.6L363,62.44A1.77,1.77,0,0,0,361.4,60.5Z" fill="#c83568" fill-rule="evenodd"/>
    <rect x="216.59" y="70.48" width="153.36" height="113.35" rx="1.74" ry="1.74" transform="translate(137.78 406.44) rotate(-84.33)" fill="#f9fafb"/>
    <path d="M301.93,50.91l-50.51-5a.81.81,0,0,0-.88.72L235.56,196a.81.81,0,0,0,.72.88l50.51,4.95a.8.8,0,0,0,.88-.72l15-149.31A.79.79,0,0,0,301.93,50.91Z" fill="#f4e5ea" fill-rule="evenodd"/>
    <path d="M350,61.47,250.57,51.6a2,2,0,0,0-2.14,1.76L234.77,191a2,2,0,0,0,1.75,2.14L335.94,203a2,2,0,0,0,1.43-.43h0a1.91,1.91,0,0,0,.71-1.31L351.74,63.61a1.94,1.94,0,0,0-.44-1.43A1.91,1.91,0,0,0,350,61.47ZM337.33,201.2a1.21,1.21,0,0,1-.44.81h0a1.24,1.24,0,0,1-.88.27l-99.41-9.87a1.18,1.18,0,0,1-.81-.43,1.24,1.24,0,0,1-.27-.88L249.18,53.43a1.21,1.21,0,0,1,.44-.8,1.17,1.17,0,0,1,.87-.27l99.42,9.86a1.24,1.24,0,0,1,.81.44,1.18,1.18,0,0,1,.26.87Z" fill="#bf7c98"/>
    <path d="M302.26,22.51a3.85,3.85,0,1,0,3.45,4.21A3.85,3.85,0,0,0,302.26,22.51Z" fill="#f9fafb" fill-rule="evenodd"/>
    <rect x="290.14" y="12.86" width="20.42" height="60.83" rx="2.33" ry="2.33" transform="translate(227.63 337.88) rotate(-84.33)" fill="#b92456"/>
    <rect x="279.37" y="29.46" width="15.66" height="25.01" rx="1.79" ry="1.79" transform="matrix(0.1, -1, 1, 0.1, 217.08, 323.62)" fill="#9b1b3f"/>
    <rect x="314.04" y="46.44" width="1.54" height="58.83" transform="translate(208.25 381.64) rotate(-84.33)" fill="#bf7c98"/>
    <rect x="313.67" y="50.26" width="1.54" height="58.83" transform="translate(204.11 384.7) rotate(-84.33)" fill="#bf7c98"/>
    <rect x="327.94" y="70.11" width="1.54" height="29.42" transform="translate(211.85 403.54) rotate(-84.33)" fill="#bf7c98"/>
    <rect x="297.79" y="68.02" width="1.54" height="27.6" transform="translate(187.66 370.85) rotate(-84.33)" fill="#bf7c98"/>
    <rect x="311.58" y="71.23" width="1.54" height="58.83" transform="translate(181.36 401.53) rotate(-84.33)" fill="#bf7c98"/>
    <rect x="311.21" y="75.05" width="1.54" height="58.83" transform="translate(177.22 404.6) rotate(-84.33)" fill="#bf7c98"/>
    <rect x="325.48" y="94.9" width="1.54" height="29.42" transform="translate(184.96 423.44) rotate(-84.33)" fill="#bf7c98"/>
    <rect x="295.33" y="92.82" width="1.54" height="27.6" transform="translate(160.77 390.75) rotate(-84.33)" fill="#bf7c98"/>
    <rect x="309.38" y="93.48" width="1.54" height="58.83" transform="translate(157.23 419.39) rotate(-84.33)" fill="#bf7c98"/>
    <rect x="309" y="97.3" width="1.54" height="58.83" transform="translate(153.08 422.46) rotate(-84.33)" fill="#bf7c98"/>
    <rect x="323.27" y="117.15" width="1.54" height="29.42" transform="translate(160.83 441.3) rotate(-84.33)" fill="#bf7c98"/>
    <rect x="293.12" y="115.07" width="1.54" height="27.6" transform="translate(136.64 408.61) rotate(-84.33)" fill="#bf7c98"/>
    <rect x="307.1" y="116.47" width="1.54" height="58.83" transform="translate(132.29 437.84) rotate(-84.33)" fill="#bf7c98"/>
    <rect x="306.72" y="120.29" width="1.54" height="58.83" transform="translate(128.15 440.91) rotate(-84.33)" fill="#bf7c98"/>
    <rect x="320.99" y="140.14" width="1.54" height="29.42" transform="translate(135.89 459.75) rotate(-84.33)" fill="#bf7c98"/>
    <rect x="290.84" y="138.06" width="1.54" height="27.6" transform="translate(111.7 427.06) rotate(-84.33)" fill="#bf7c98"/>
    <rect x="304.82" y="139.21" width="1.54" height="58.83" transform="translate(107.62 456.08) rotate(-84.33)" fill="#bf7c98"/>
    <rect x="304.44" y="143.03" width="1.54" height="58.83" transform="translate(103.47 459.15) rotate(-84.33)" fill="#bf7c98"/>
    <rect x="318.71" y="162.88" width="1.54" height="29.42" transform="translate(111.21 477.98) rotate(-84.33)" fill="#bf7c98"/>
    <rect x="288.57" y="160.8" width="1.54" height="27.6" transform="translate(87.02 445.29) rotate(-84.33)" fill="#bf7c98"/>
    <path d="M259.11,65.38l-.69-.07-.07.69L257,79.44l-.07.69.69.07L272,81.62l.69.07.07-.69,1.33-13.44.07-.69-.69-.06Zm12.33,14.8-13-1.29,1.19-12.06,13,1.29Z" fill="#bf7c98"/>
    <path d="M256.6,90.64l-.69-.07-.06.69-1.34,13.44-.07.69.69.07,14.36,1.42.68.07.07-.69,1.34-13.44.07-.69-.69-.07Zm12.33,14.79-13-1.29,1.2-12.06,13,1.29Z" fill="#bf7c98"/>
    <path d="M254.2,114.87l-.69-.07-.07.69-1.33,13.44-.07.69.69.07,14.35,1.42.69.07.07-.69,1.33-13.44.07-.69-.69-.07Zm12.33,14.79-13-1.28,1.19-12.06,13,1.28Z" fill="#bf7c98"/>
    <path d="M251.78,139.3l-.69-.07-.07.69-1.34,13.44-.06.69.69.07,14.35,1.42.69.07.07-.69,1.33-13.44.07-.69-.69-.07Zm12.32,14.8-13-1.29,1.2-12.06,13,1.29Z" fill="#bf7c98"/>
    <path d="M249.45,162.75l-.69-.07-.07.69-1.33,13.44-.07.69.69.07L262.33,179l.69.07.07-.69,1.33-13.44.07-.69-.69-.07Zm12.33,14.8-13-1.29L250,164.2l13,1.28Z" fill="#bf7c98"/>
    <polygon points="266.07 73.8 259.98 67.62 258.91 68.68 265.51 75.39 266.03 75.92 266.57 75.42 280.53 62.26 279.49 61.16 266.07 73.8"/>
    <polygon points="263.49 99.75 257.41 93.57 256.33 94.63 262.94 101.34 263.46 101.87 263.99 101.37 277.95 88.21 276.91 87.11 263.49 99.75"/>
    <polygon points="258.57 149.35 252.49 143.16 251.41 144.22 258.01 150.94 258.54 151.47 259.07 150.96 273.03 137.81 271.99 136.7 258.57 149.35"/>
    <path d="M312,88.16a3.78,3.78,0,1,0,3.39,4.14A3.79,3.79,0,0,0,312,88.16Z" fill="#f4e5ea" fill-rule="evenodd"/>
    <path d="M311.87,89.44a2.5,2.5,0,1,0,2.25,2.73A2.49,2.49,0,0,0,311.87,89.44Z" fill="#f9fafb" fill-rule="evenodd"/>
    <path d="M332.4,64.07a4.31,4.31,0,1,0,3.86,4.71A4.31,4.31,0,0,0,332.4,64.07Z" fill="#f4e5ea" fill-rule="evenodd"/>
    <path d="M332.26,65.52a2.84,2.84,0,1,0,2.55,3.11A2.86,2.86,0,0,0,332.26,65.52Z" fill="#f9fafb" fill-rule="evenodd"/>
    <path d="M316,159.34a4.3,4.3,0,1,0,3.86,4.7A4.31,4.31,0,0,0,316,159.34Z" fill="#f4e5ea" fill-rule="evenodd"/>
    <path d="M315.87,160.79a2.84,2.84,0,1,0,2.55,3.11A2.84,2.84,0,0,0,315.87,160.79Z" fill="#f9fafb" fill-rule="evenodd"/>
    <path d="M296.09,181.26a4.06,4.06,0,1,0,3.64,4.44A4.06,4.06,0,0,0,296.09,181.26Z" fill="#f4e5ea" fill-rule="evenodd"/>
    <path d="M296,182.63a2.68,2.68,0,1,0,2.41,2.93A2.67,2.67,0,0,0,296,182.63Z" fill="#f9fafb" fill-rule="evenodd"/>
  </g>
  <polygon points="260.71 125.41 254.63 119.23 253.56 120.29 260.15 127 260.68 127.53 261.21 127.02 275.17 113.87 274.12 112.77 260.71 125.41"/>
  <g>
    <polygon points="43.21 212.91 49.39 212.91 51.54 206.01 45.35 206.01 43.21 212.91" fill="#f8b2a5" fill-rule="evenodd"/>
    <polygon points="47.04 212.91 48.63 206.01 46.11 206.01 44.52 212.91 47.04 212.91" fill="#e37d68" fill-rule="evenodd"/>
    <polygon points="68.51 212.91 70.3 206.01 64.11 206.01 62.33 212.91 68.51 212.91" fill="#f8b2a5" fill-rule="evenodd"/>
    <polygon points="65.93 212.91 67.53 206.01 65 206.01 63.41 212.91 65.93 212.91" fill="#e37d68" fill-rule="evenodd"/>
    <path d="M75.55,213.15,71.81,211a2.24,2.24,0,0,0-3-.64,4.42,4.42,0,0,1-6.65.3,6.75,6.75,0,0,0-.6,5.53q1.13.78,15.83,0a2.09,2.09,0,0,0-1.89-3Z" fill="#1a1a1a" fill-rule="evenodd"/>
    <path d="M72.41,206.72s1-8.7,3-26.1T69.55,157.9q-7.65-9.27-9.6,8.44s2.29,4.81,6.88,14.41t-5.2,25.84A45.73,45.73,0,0,0,72.41,206.72Z" fill="#2f192f" fill-rule="evenodd"/>
    <rect x="61.25" y="216.18" width="16.55" height="2.22" rx="0.36" ry="0.36" fill="#fff"/>
    <rect x="72.45" y="209.72" width="1.52" height="5.02" rx="0.34" ry="0.34" transform="translate(-148.33 175.85) rotate(-61.64)" fill="#fff"/>
    <path d="M67.21,206l4.29-24.94-8-22a11,11,0,0,0-1.39,9q6.15,12.33,6.16,12.33l-5,25.17Z" fill="#150e15" fill-rule="evenodd"/>
    <path d="M53.53,207.64l6.69-27.42s1.1-7.06,3.29-21.18q-6.13-4.41-15.38-1.87l2.64,22.92s-2.44,8.9-7.3,26.69A19.89,19.89,0,0,0,53.53,207.64Z" fill="#472646" fill-rule="evenodd"/>
    <path d="M56.8,213.15,53.06,211a2.24,2.24,0,0,0-3-.64,4.43,4.43,0,0,1-6.66.3,6.75,6.75,0,0,0-.59,5.53q1.13.78,15.82,0a2.09,2.09,0,0,0-1.88-3Z" fill="#1a1a1a" fill-rule="evenodd"/>
    <rect x="42.5" y="216.18" width="16.55" height="2.22" rx="0.36" ry="0.36" fill="#fff"/>
    <rect x="54.09" y="210.08" width="1.52" height="5.02" rx="0.34" ry="0.34" transform="translate(-158.29 159.88) rotate(-61.64)" fill="#fff"/>
    <path d="M48.45,206s2.41-8.93,7.22-26.79T57,160.6l-7.17-.94s.76,6.82,2.27,20.46t-7,25.35Z" fill="#281228" fill-rule="evenodd"/>
    <path d="M76.05,129.39l-9.89-5.84a5.49,5.49,0,0,0-8.66,4.66A5,5,0,0,0,60.71,133l16.4,4.16c1.85.41,3-.18,5.18-1.87,6.89-5.83,10.95-9.43,10.95-9.43-.48-1.12-1.79-2.46-3.41-5,0,0-3.71,2.79-11.38,8.1A2.59,2.59,0,0,1,76.05,129.39Z" fill="#815081" fill-rule="evenodd"/>
    <rect x="90.16" y="119.97" width="2.59" height="6.86" transform="translate(-47.34 57.61) rotate(-28.1)" fill="#fff"/>
    <path d="M57.19,158.61a18.76,18.76,0,0,0,12-2.28s-.29-1.18-.89-3.56L58,154.63C57.19,154.82,56.91,156.14,57.19,158.61Z" fill="#241629" fill-rule="evenodd"/>
    <path d="M51.51,126.11l5.13,29.07A18.82,18.82,0,0,0,68.87,153l-7.81-29.92Q58.38,121.42,51.51,126.11Z" fill="#f4e1ed" fill-rule="evenodd"/>
    <path d="M60.92,122.23q1.84,11.27,1.84,11.26,3.6,15.06,3.59,15l1.62,11a8,8,0,0,0,3.61-.74l-4.29-31.27C66.73,123.19,64.61,121.42,60.92,122.23Z" fill="#744173" fill-rule="evenodd"/>
    <path d="M45.3,123.08c-5.58,3.9-6.95,5.59-6.49,7.19t7.52,31.16a37.83,37.83,0,0,0,11.92,0s-.1-3.49-.29-10.48a124.72,124.72,0,0,1-4.72-18.36S50.55,129,45.3,123.08Z" fill="#744173" fill-rule="evenodd"/>
    <path d="M59.62,150l3.81,3.16,1.77-4a79.52,79.52,0,0,0-7.66-21.24l-2.38.53A105.11,105.11,0,0,1,59.62,150Z" fill="#532e5c" fill-rule="evenodd"/>
    <path d="M48.84,121.38q5.37,5.24,9,2.45c0-1.58-.07-2.36-.07-2.36l-8.87-2.73Z" fill="#f7aa9b" fill-rule="evenodd"/>
    <path d="M48.88,119.15s0,.3,0,.91A13,13,0,0,0,57.81,123l0-.87Q50.75,118,48.88,119.15Z" fill="#c25248" fill-rule="evenodd"/>
    <path d="M56.08,124.1a1.45,1.45,0,0,0-1.48.24,2.41,2.41,0,0,0-.8,3.14,2.53,2.53,0,0,0,4.56-1.87A3.21,3.21,0,0,0,56.08,124.1Z" fill="#845191" fill-rule="evenodd"/>
    <path d="M48,119.3l-1.71,4.13a26.22,26.22,0,0,0,7.3,5.64,25,25,0,0,1,1-4.73A21.15,21.15,0,0,1,48,119.3Z" fill="#fff" fill-rule="evenodd"/>
    <path d="M56.08,124.1A10.67,10.67,0,0,1,59,127.61a15.22,15.22,0,0,0,1.22-5.35,7.53,7.53,0,0,0-1-1.79,16.14,16.14,0,0,1-1.67.71A15,15,0,0,1,56.08,124.1Z" fill="#fff" fill-rule="evenodd"/>
    <path d="M57.94,98.71a2.36,2.36,0,0,0,.77,4.57,3,3,0,0,0,.68-2.47A3,3,0,0,0,57.94,98.71Z" fill="#070606" fill-rule="evenodd"/>
    <path d="M49.91,119.68c10,4.64,14.55-2.28,9.9-6.94-.88-.85-.65-2.09.13-3.46.52-.92.5-1.55,0-1.88-.24-.14-.41-.26-.45-.5a.64.64,0,0,1,.26-.63c1.51-1.17.64-3.16-3.06-6Q43.23,96.77,46.52,109C44.71,114.46,45.59,117.72,49.91,119.68Z" fill="#f8b2a5" fill-rule="evenodd"/>
    <path d="M50.36,119.19a33.86,33.86,0,0,0,3.29,1.47c2.16.52,5,0,4.54-1.1-6.9-2.37-10.41-5.14-9.25-12.58.31-2-.3-6,1.93-7l-1.57-.07q-3.51.47-2.2,8.27C45.67,114.35,46.35,117.17,50.36,119.19Z" fill="#c25248" fill-rule="evenodd"/>
    <circle cx="52.02" cy="107.71" r="2.35" transform="translate(-23.36 14.83) rotate(-13.28)" fill="#c25248"/>
    <path d="M50.63,107.27a1.92,1.92,0,1,0,1.92-1.92A1.92,1.92,0,0,0,50.63,107.27Z" fill="#fff" fill-rule="evenodd"/>
    <circle cx="52.96" cy="106.81" r="1.37" fill="#669998"/>
    <path d="M52.7,106.69a.79.79,0,1,0,.79-.79A.79.79,0,0,0,52.7,106.69Z" fill-rule="evenodd"/>
    <path d="M51.31,106.38a.67.67,0,1,0,.66-.66A.67.67,0,0,0,51.31,106.38Z" fill="#fff" fill-rule="evenodd"/>
    <circle cx="58.3" cy="107.81" r="2.24" transform="translate(-23.21 16.28) rotate(-13.28)" fill="#c25248"/>
    <path d="M57.06,107.54a1.71,1.71,0,1,0,3.41,0,1.71,1.71,0,0,0-3.41,0Z" fill="#fff" fill-rule="evenodd"/>
    <path d="M57.92,107.13a1.22,1.22,0,1,0,1.22-1.21A1.21,1.21,0,0,0,57.92,107.13Z" fill="#669998" fill-rule="evenodd"/>
    <path d="M58.8,107a.71.71,0,1,0,.7-.7A.7.7,0,0,0,58.8,107Z" fill-rule="evenodd"/>
    <path d="M57.68,106.89a.58.58,0,0,0,.59.58.59.59,0,1,0-.59-.58Z" fill="#fff" fill-rule="evenodd"/>
    <path d="M58.08,112.28a1.88,1.88,0,0,0-.13-3.51L56.41,106a.55.55,0,0,0-.51-.33.5.5,0,0,0-.45.4s-.14,1.22-.43,3.65a.73.73,0,0,0-.83,1.12.73.73,0,0,0,.81.28.6.6,0,0,1,.81-.11.59.59,0,0,1,.18.79A1.88,1.88,0,0,0,58.08,112.28Z" fill="#d4665c" fill-rule="evenodd"/>
    <path d="M58.92,114.87c-1.06,2.16-2.91,2.16-5.52,0a.14.14,0,0,0-.17,0,.13.13,0,0,0,0,.17q4.4,3.9,5.93-.11a.12.12,0,0,0-.06-.14A.14.14,0,0,0,58.92,114.87Z" fill="#7f1819" fill-rule="evenodd"/>
    <path d="M58.6,112.92c-1.49.62-3.73,0-6.71-1.68a.26.26,0,0,0-.27.06.24.24,0,0,0,0,.27c1.89,4.1,6.57,6.32,7.53,1.78C59.19,112.92,58.91,112.8,58.6,112.92Z" fill="#7f1819" fill-rule="evenodd"/>
    <path d="M52.8,112.44c2.2,1.57,4.05,2.1,5.55,1.61l.14-.74q-2,.72-5.79-1.3Z" fill="#fff" fill-rule="evenodd"/>
    <path d="M56.23,119.77c-1.95.62-3-1.37-4.11-5.63a.24.24,0,0,0-.47,0c.36,4.82,1.2,7.28,2.73,7.72,2.85.73,5.75.16,7.07-2.53.52-1.1.33-1.88-1.1-5.65a.19.19,0,0,0-.26-.07c-.1,0-.13.13-.1.26.91,3.46,1,4.51-.14,4.94-.69.27-1.25,0-1.61-1.62a1.46,1.46,0,0,1-1.13.2C57.38,119.08,57.15,119.47,56.23,119.77Z" fill="#14100f" fill-rule="evenodd"/>
    <path d="M53.07,102c-2.66.45-4,1.58-4.19,3.39a.14.14,0,0,0,.1.14.13.13,0,0,0,.16-.08q.68-1.56,4.24-2a.69.69,0,0,0,.52-.88A.74.74,0,0,0,53.07,102Z" fill="#14100f" fill-rule="evenodd"/>
    <path d="M57.16,103a.76.76,0,0,0-.29.74.65.65,0,0,0,.52.61c1.76.2,2.66.52,2.72,1a.21.21,0,0,0,.17.19.2.2,0,0,0,.23-.1q.69-1.31-2.56-2.52A.78.78,0,0,0,57.16,103Z" fill="#14100f" fill-rule="evenodd"/>
    <path d="M51.43,100.58c3.25,1.86,4.72,1.86,6.89-1.34a2.3,2.3,0,0,0-1.83-3.53,1.32,1.32,0,0,1-.28,2.61,1.14,1.14,0,0,0-.5-1.76.95.95,0,0,1-1,1.45c-4.7-.48-7.47-.35-8.6,1.14-1.2,1.65-1,3.95-.88,5.22a6.91,6.91,0,0,1,2,2.49c.14.49.41.51,1.08.51.15,0,.2-.11.18-.3-.17-1.06-.49-1.83-.11-2.13s.74-.8.39-1.16c-.76-.76-1-1.5-.12-2.82C49.38,99.88,50.46,100,51.43,100.58Z" fill="#14100f" fill-rule="evenodd"/>
    <path d="M56.85,110.65a1,1,0,0,0,1,1,1.07,1.07,0,0,0,1-1.14,1,1,0,0,0-1-1A1.07,1.07,0,0,0,56.85,110.65Z" fill="#ee877f" fill-rule="evenodd"/>
    <path d="M57.8,110.19a.54.54,0,0,0,.56.54.56.56,0,0,0,.5-.6.55.55,0,0,0-.55-.54A.57.57,0,0,0,57.8,110.19Z" fill="#f6a49d" fill-rule="evenodd"/>
    <path d="M55.26,100.94a2.59,2.59,0,0,0,1.66-1.46,3.29,3.29,0,0,1-2,1.12,3.22,3.22,0,0,0,1.3-1.1,2.24,2.24,0,0,1-1.25.36,2.16,2.16,0,0,0,.52-.67,4,4,0,0,1-3.24.58,4.77,4.77,0,0,0,2.71.38,3.22,3.22,0,0,1-1.89.45A2.59,2.59,0,0,0,55.26,100.94Z" fill="#6b5e5b" fill-rule="evenodd"/>
    <path d="M49.9,110.09a3.2,3.2,0,0,0,4.53-.14,3.16,3.16,0,0,0,.87-2.16l.51,0a3.22,3.22,0,0,0,3.29,3,3.21,3.21,0,0,0,3.11-3.3,3.21,3.21,0,0,0-3.3-3.11,3.2,3.2,0,0,0-3.1,3h-.53a3.24,3.24,0,0,0-1-1.93,3.21,3.21,0,0,0-4.53.13,3,3,0,0,0-.54.78l-2.68-.43-.07.43,2.58.41a2.91,2.91,0,0,0-.16,1.1A3.14,3.14,0,0,0,49.9,110.09ZM57,105.68a2.73,2.73,0,1,1-.74,1.95A2.73,2.73,0,0,1,57,105.68Zm-6.9.2a2.73,2.73,0,1,1,.11,3.87,2.73,2.73,0,0,1-.11-3.87Z" fill="#fff"/>
    <path d="M45.85,104.13a2.7,2.7,0,0,0-2.5,1,2.24,2.24,0,0,0-.49,2.53L45,110.5a1.34,1.34,0,0,0,1.44.58,1.28,1.28,0,0,0,1.06-1.14s0-1.34-.08-4A1.87,1.87,0,0,0,45.85,104.13Z" fill="#f8b2a5" fill-rule="evenodd"/>
    <path d="M45.31,105.69a1.54,1.54,0,0,0-1.43.54,1.28,1.28,0,0,0-.28,1.45l1.2,1.66a.77.77,0,0,0,.82.33.73.73,0,0,0,.61-.65s0-.77,0-2.32A1.08,1.08,0,0,0,45.31,105.69Z" fill="#c3625a" fill-rule="evenodd"/>
    <path d="M45.69,106.46a.91.91,0,0,0-.82.32.73.73,0,0,0-.16.82l.69,1a.44.44,0,0,0,.47.19.42.42,0,0,0,.35-.37l0-1.33A.61.61,0,0,0,45.69,106.46Z" fill="#7f1819" fill-rule="evenodd"/>
    <rect x="60.51" y="155.78" width="5.99" height="4.6" rx="0.75" ry="0.75" transform="translate(-21.38 10.38) rotate(-8)" fill="#fff"/>
    <rect x="61.24" y="156.47" width="4.53" height="3.22" rx="0.52" ry="0.52" transform="translate(-21.39 10.38) rotate(-8)" fill="#241629"/>
    <path d="M64.74,157.59l-3.72.52a.1.1,0,0,0-.08.12l.06.41a.1.1,0,0,0,.11.09l3.72-.53a.09.09,0,0,0,.08-.11l-.06-.41A.09.09,0,0,0,64.74,157.59Z" fill="#fff" fill-rule="evenodd"/>
    <path d="M65.69,143.62l3-1.53L68,136.67l-2.47,1.55A6,6,0,0,0,65.69,143.62Z" fill="#452244" fill-rule="evenodd"/>
    <path d="M45.92,153.1l9.76-6.34s0-1.23-.11-3.69L44,146.21Z" fill="#452244" fill-rule="evenodd"/>
    <path d="M58,151l-3.61-20.77L46.42,121l-2.55,2,4.74,10.47,3.65.16c-1.78,1.26-2.66,1.9-2.66,1.9Q58,151,58,151Z" fill="#aa7fa8" fill-rule="evenodd"/>
    <path d="M61.2,121.32l-2.63,1.38,7.78,25.84-.93-19.18-3,.26,2.46-2.33Z" fill="#aa7fa8" fill-rule="evenodd"/>
    <rect x="27.63" y="141.01" width="6.02" height="11.47" rx="2.19" ry="2.19" transform="translate(-54.12 23.1) rotate(-22.64)" fill="#ca9ac6"/>
    <rect x="28.41" y="145.77" width="6.02" height="5.69" rx="2.07" ry="2.07" transform="translate(-54.78 23.54) rotate(-22.64)" fill="#af6dac"/>
    <path d="M115.8,110.45a12.21,12.21,0,0,0-2.47,0l-.31,0a3.08,3.08,0,0,0-2.15.82,1.82,1.82,0,0,0-.22,1.93l.09.22a1.84,1.84,0,0,0,1.54,1.21,3.07,3.07,0,0,0,2.09-1l.24-.2a12.08,12.08,0,0,0,1.76-1.73c.42-.48.69-.83.61-1l0-.06C116.88,110.55,116.44,110.5,115.8,110.45Z" fill="#f26e21" fill-rule="evenodd"/>
    <path d="M98.93,118.31c.79,1.89,4.24,2.66,5,4.55l5-4.35,5-4.35c-.26-.61-.52-1.23-.77-1.85s-.52-1.23-.77-1.84l-6.65.52-6.64.52C100,113.4,98.14,116.42,98.93,118.31Z" fill="#fce0ac" fill-rule="evenodd"/>
    <rect x="33.65" y="124.64" width="70.66" height="12.33" transform="translate(-45.03 36.63) rotate(-22.64)" fill="#fcb531"/>
    <rect x="34.62" y="130.6" width="70.66" height="5.04" transform="translate(-45.85 37.18) rotate(-22.64)" fill="#f26e21"/>
    <rect x="30.9" y="138.74" width="6.45" height="13.51" rx="0.55" ry="0.55" transform="translate(-53.37 24.34) rotate(-22.64)" fill="#ffeac1"/>
    <rect x="32.41" y="145.03" width="5.22" height="5.25" rx="0.44" ry="0.44" transform="translate(-54.14 24.86) rotate(-22.64)" fill="#f9d091"/>
    <path d="M56,132.8,46.07,127a5.49,5.49,0,0,0-8.66,4.67,5,5,0,0,0,3.21,4.82L57,140.6c1.84.42,3-.17,5.17-1.86,6.89-5.83,11-9.44,11-9.44-.48-1.11-1.78-2.45-3.41-5,0,0-3.71,2.79-11.38,8.1A2.55,2.55,0,0,1,56,132.8Z" fill="#8b578a" fill-rule="evenodd"/>
    <path d="M72,122.61a.82.82,0,0,0,.71-.62.83.83,0,0,0-1.27-.9,2.75,2.75,0,0,0-1.59,3.64l3.89,4.15a5.59,5.59,0,0,0,3.8-7,2,2,0,0,0-3.87,0,2.68,2.68,0,0,1-1.91,2.28.85.85,0,0,1,.24-1.62Z" fill="#facec6" fill-rule="evenodd"/>
    <path d="M55.4,136.18l-16.1-6.26a3.73,3.73,0,0,0,1.47,5.39l14.43,3.82c2.9.68,3.77,1,5.95-.6,0,0,3.3-2.46,10.8-9.37l-1.13-1.67-9.68,8.18C59.89,136.67,58.37,137.42,55.4,136.18Z" fill="#612e60" fill-rule="evenodd"/>
    <path d="M71.84,126.5l1.26,2a5.18,5.18,0,0,0,3.64-7A5.65,5.65,0,0,1,71.84,126.5Z" fill="#f8b2a5" fill-rule="evenodd"/>
    <polygon points="71.84 130.46 73.92 129.24 69.69 123.19 67.61 124.4 71.84 130.46" fill="#fff" fill-rule="evenodd"/>
    <path d="M59.08,145.58l4.55-2.72-.87-2.79-4.27,1.79S58.69,143.1,59.08,145.58Z" fill="#301836" fill-rule="evenodd"/>
  </g>
  <g>
    <path d="M208.64,184.61l-3.37,3.78a14.12,14.12,0,0,0-2.34,5.08c-2,7.34-3.21,10.86-3.21,10.86a3,3,0,0,1-1.66,2.06c-1.68,5.64.45,9.82,3,9,.17-2.85.41-4.35,2-8.84l10.59-18.71a7.06,7.06,0,0,0,2.27-2.77l-6.27-1.75A6.89,6.89,0,0,1,208.64,184.61Z" fill="#f49495" fill-rule="evenodd"/>
    <path d="M209.12,185.8l-3.06,3.88a18.25,18.25,0,0,0-2.39,5l-3.59,10.4a5.77,5.77,0,0,1-2,2.59c-1.11,3.14-1.16,5.54-.84,6.7l14.07-29.58-1.05-.57A12.59,12.59,0,0,1,209.12,185.8Z" fill="#ce5455" fill-rule="evenodd"/>
    <path d="M201,215.4c-2.31-.62-3-2.83-2.13-6.65.54-1.69.45-2.71-.27-3.07-2.13,1.21-3.22,2.24-3.3,3.08l-1.49,5.8,1.35.69,1.89-4.55a13.57,13.57,0,0,1-.77,5.28l6.46,3.5a1.54,1.54,0,0,0,.26-1.64Z" fill-rule="evenodd"/>
    <path d="M234.55,141.82a4.4,4.4,0,0,1-2.09-2.58c-.54.19-.85,0-1.27-.62l-7.64-10.9a2.6,2.6,0,0,0-3.67-.39,3,3,0,0,0-.81,3.78L227,145.3q2.34,3.84,5.9,1.15l2.35-1.81A4.44,4.44,0,0,1,234.55,141.82Z" fill="#ef6394" fill-rule="evenodd"/>
    <path d="M231.13,143.44c-.94.58-1.5-.21-2.21-1.49l-8.19-14.31a2.37,2.37,0,0,0-.94,3l7.73,13.58c1.36,2.48,2.93,3,5.1,1.36l9.57-7.22-.59-1.94Z" fill="#cb2f64" fill-rule="evenodd"/>
    <path d="M242.55,136.78a13.19,13.19,0,0,1,1.26,2.28l1.56-1.25a15.15,15.15,0,0,0-1.26-2.08Z" fill="#3d190b" fill-rule="evenodd"/>
    <path d="M216.55,186.41a7.13,7.13,0,0,0-.14-3.58l-5.85,2.85c.1.57-.87-.11-.9.4a45.16,45.16,0,0,0,.4,6.11c.31,2.46,1.17,3.34,2.21,5.52,3.41,6.8,4.8,10.26,4.8,10.26a3,3,0,0,1,.13,2.65c2.48,5.33,5.34,7.69,6.69,5.41a41.75,41.75,0,0,0-2.85-8.59S219.54,200.43,216.55,186.41Z" fill="#f59c9e" fill-rule="evenodd"/>
    <path d="M210.22,184.19a14.89,14.89,0,0,1,.4,1.94l1.09,6.74c.1,1.36,1,3.06,1.9,5.24l4.22,10.16a5.79,5.79,0,0,1,.18,3.29c1.25,3.09,2.81,4.92,3.82,5.57l-9.1-31.46Z" fill="#ce5455" fill-rule="evenodd"/>
    <path d="M226.81,217l-2.94-1.15q-3.47.9-5.11-4.74c-.37-1.74-.95-2.59-1.75-2.54-1.25,2.09-1.71,3.53-1.36,4.3l1.55,5.78,1.51-.06c-.39-3.26-.59-4.89-.59-4.89a13.54,13.54,0,0,1,1.93,5l7.35-.13A1.55,1.55,0,0,0,226.81,217Z" fill-rule="evenodd"/>
    <path d="M201,161q-.17,3.22,1.44,11,1.46,9.18.52,14.38,13.1.83,18.39-.77c.41-12.88,1-21.14.77-26.16C220.88,144.28,213.82,145.72,201,161Z" fill="#2e1119" fill-rule="evenodd"/>
    <path d="M202.69,162.65a46.57,46.57,0,0,0,1.16,9.7q1.18,8.06.39,12.63c1.73.11,3.34.19,4.82.22l-1.17-26.58C206.81,159.81,203.89,161.15,202.69,162.65Z" fill="#140a0a" fill-rule="evenodd"/>
    <path d="M211.54,122.39a15.24,15.24,0,0,1-4.77-.37c.78,2,.3,3.91-.16,4a86.77,86.77,0,0,0,7.32,9.13q1.08-.42-1.18-11.32C212.19,124.14,211.61,123.3,211.54,122.39Z" fill="#f49495" fill-rule="evenodd"/>
    <path d="M216.82,128.13,212.88,127q1,7.26,1,7.26L209.7,128,207,131.2q6,11.38,6.48,21.54a9.83,9.83,0,0,0,4.53-.51,46.22,46.22,0,0,1,.53-12.48Z" fill="#efe4e3" fill-rule="evenodd"/>
    <path d="M207.33,122.21a12.26,12.26,0,0,1,.43,2.77,4.07,4.07,0,0,0,4.29-.66,5,5,0,0,1-.84-1.77C209.73,123.14,208.59,122.56,207.33,122.21Z" fill="#bb4344" fill-rule="evenodd"/>
    <path d="M209.27,134.4l-5.79-8.21c-5.55,2.3-6.41,3.14-5.72,4.2,11.34,17.8,1.1,24.22,1.8,30.87,4.41,2.27,10.91,1.17,14.07,1,.3-2.37,1.68-10.67.19-18.16T209.27,134.4Z" fill="#eb5385" fill-rule="evenodd"/>
    <path d="M221.57,130.86c-.19-.82-.4-1.76-.63-2.81-.29-1.21-.49-1.47-4.64-2.62l.39,7.48,1,2.23s-.37,2.8-1.1,8.41c.12,8.72,1.08,12.45,1.43,18.13a28.54,28.54,0,0,0,4.77-.18q.54-3.18-1.18-10-2.38-8.84.82-12.38Q225.22,136.23,221.57,130.86Z" fill="#eb5385" fill-rule="evenodd"/>
    <path d="M222.91,155.45c0-.26-.1-.52-.14-.78s-.16-.32-.28-.32l-2-.09-2-.08c-.12,0-.2.13-.17.3s.1.53.14.79.1.52.14.78a.39.39,0,0,0,.28.33l2,.08,2,.08c.12,0,.19-.13.16-.3S223,155.71,222.91,155.45Z" fill="#c32c5e" fill-rule="evenodd"/>
    <path d="M205.37,125.62l2.43,6.22,1.9-3.87-3.26-4.55C205.73,124.89,205.37,125.62,205.37,125.62Z" fill="#f9fafb" fill-rule="evenodd"/>
    <path d="M212,123.21c.59,2.52.88,3.78.88,3.78l3.32,1.19-2.72-4.66Z" fill="#f9fafb" fill-rule="evenodd"/>
    <path d="M216.63,125.21l-3.21-.95q3.63,12.46,3.62,12.47l-.45,6.82s1-3.76,2.95-11.28l-2.5.13,2.5-1.17Z" fill="#f181aa" fill-rule="evenodd"/>
    <path d="M200.29,128.83s.35,2,1.07,5.94q5.44,9.57.6,21.45a11.52,11.52,0,0,0-1.1,4,16.46,16.46,0,0,0,6.89.92q2.87-21.71-5.43-33.44Z" fill="#bc2759" fill-rule="evenodd"/>
    <path d="M211.14,153.86l-3.95-.17-4-.16a.3.3,0,0,0-.34.38l.24,1,.24,1a.54.54,0,0,0,.46.41l3.23.14,3.24.14a.55.55,0,0,0,.49-.38l.33-1,.33-1A.31.31,0,0,0,211.14,153.86Z" fill="#c32c5e" fill-rule="evenodd"/>
    <path d="M205.26,125.05l-2.18,1.09q1.15,7.2,1.16,7.2l3.53-.15-3,1.84q9,9.12,9,9.11l-1.35-5.84Z" fill="#f181aa" fill-rule="evenodd"/>
    <path d="M206.94,154.06l-3.16-.13c-.21,0-.34.11-.29.27l.42,1.44a.47.47,0,0,0,.4.3l2.67.11a1.53,1.53,0,0,1-.37-1.08A1.6,1.6,0,0,1,206.94,154.06Z" fill="#c32c5e" fill-rule="evenodd"/>
    <path d="M207.54,123l.09.62a13.45,13.45,0,0,0,4.09.26,8.56,8.56,0,0,1-.37-.87Z" fill="#961e1f" fill-rule="evenodd"/>
    <path d="M214.47,105c1.68.84,2.48,2.55,2.11,5.47,1.59-6.22-2.35-9.4-11.19-6.94l.14,2.28q6.3-1,7.83,5.45A4.42,4.42,0,0,0,214.47,105Z" fill-rule="evenodd"/>
    <path d="M215.26,115.54c-.09,2.66-.14,4-.14,4-.12.86.21,1.32,1,1.37a.7.7,0,0,1-.18-1.15Q219.51,115.31,215.26,115.54Z" fill-rule="evenodd"/>
    <path d="M215.67,113.86a1.45,1.45,0,0,0-1.34-1.61c-.55,0-.82-.56-.8-1.52a5.32,5.32,0,0,0-2.19-4.59,5.43,5.43,0,0,0-5.08-.63c-5.59,8.49-5.9,14.26-.81,16.76,1.11.85,4.66,1.2,8.5.23,1.16-.3,1.45-.73,1.35-2a2.29,2.29,0,0,1,0-.58A43.57,43.57,0,0,0,215.67,113.86Z" fill="#f59c9e" fill-rule="evenodd"/>
    <path d="M204.92,111.6c-4,2.66-4.2,6.83.76,10.35a18.27,18.27,0,0,0,7.9.17C208.06,122.33,204.2,118,204.92,111.6Z" fill="#db6262" fill-rule="evenodd"/>
    <path d="M204.34,126.05a5.41,5.41,0,0,1-4.62-.88,5.31,5.31,0,0,0,6.22-.54,5.43,5.43,0,0,0,1.62-6.08,3.51,3.51,0,0,1-1.83,4,4.15,4.15,0,0,0,1.12-4.16,2,2,0,0,1-1,2,1.89,1.89,0,0,1-2.17-.26,1.26,1.26,0,0,0,1.09.11,1.34,1.34,0,0,0,.79-.79,1.15,1.15,0,0,1-1,.34,1.11,1.11,0,0,1-.82-.57c-.37-1.75-.56-2.62-.56-2.62.8,1,1.34.62.87-.86-.33-1-.58-1.51.18-2.07a6,6,0,0,0,2.66-6.81,5.38,5.38,0,0,1-1.12,6.18,5.28,5.28,0,0,0,1.56-7,1.45,1.45,0,0,1,0-1.49c.4-.87-.64-1.33-2.92-.69-5.5,1.37-8,3.56-8.45,7.42q-1.26,14.75,4.41,16.37a6,6,0,0,1-2.8-3.82,5.56,5.56,0,0,0,5.39,3A6.07,6.07,0,0,0,208.1,123,5.84,5.84,0,0,1,204.34,126.05Z" fill="#070404" fill-rule="evenodd"/>
    <path d="M207.73,109.75a.65.65,0,0,0-.71,0c-2,1-3,2.38-2.83,4a.27.27,0,0,0,.15.21.27.27,0,0,0,.27,0,.27.27,0,0,0,.1-.24,3.62,3.62,0,0,1,2.78-2.8.68.68,0,0,0,.5-.52A.62.62,0,0,0,207.73,109.75Z" fill-rule="evenodd"/>
    <path d="M209.79,108.36a.6.6,0,0,0-.35.57.81.81,0,0,0,.34.67.51.51,0,0,0,.61,0,2.56,2.56,0,0,1,3.36-.31.22.22,0,0,0,.23.08.23.23,0,0,0,.16-.19.34.34,0,0,0-.09-.27C212.94,107.62,211.51,107.45,209.79,108.36Z" fill-rule="evenodd"/>
    <path d="M206.92,113.2a1.81,1.81,0,0,0-1.21,2.18,1.68,1.68,0,0,0,2.14,1.13,1.81,1.81,0,0,0,1.21-2.18A1.67,1.67,0,0,0,206.92,113.2Z" fill="#bb4344" fill-rule="evenodd"/>
    <path d="M207.14,112.6a1.79,1.79,0,0,0-1.2,2.18,1.67,1.67,0,0,0,2.13,1.13,1.8,1.8,0,0,0,1.21-2.19A1.67,1.67,0,0,0,207.14,112.6Z" fill="#f9fafb" fill-rule="evenodd"/>
    <path d="M207.76,113.29a1.16,1.16,0,0,0-.78,1.41,1.08,1.08,0,0,0,1.38.73,1.16,1.16,0,0,0,.78-1.41A1.08,1.08,0,0,0,207.76,113.29Z" fill="#419292" fill-rule="evenodd"/>
    <path d="M208.49,114a.64.64,0,0,0-.42.78.59.59,0,0,0,.75.4.65.65,0,0,0,.43-.78A.6.6,0,0,0,208.49,114Z" fill-rule="evenodd"/>
    <path d="M207,113.61a.51.51,0,0,0-.34.63.47.47,0,0,0,.61.32.51.51,0,0,0,.35-.63A.48.48,0,0,0,207,113.61Z" fill="#f9fafb" fill-rule="evenodd"/>
    <path d="M212,111.21a1.62,1.62,0,0,0-1.09,2,1.51,1.51,0,0,0,1.93,1,1.62,1.62,0,0,0,1.08-2A1.5,1.5,0,0,0,212,111.21Z" fill="#bb4344" fill-rule="evenodd"/>
    <path d="M212.2,110.51a1.68,1.68,0,0,0-1.13,2,1.57,1.57,0,0,0,2,1.06,1.69,1.69,0,0,0,1.12-2A1.56,1.56,0,0,0,212.2,110.51Z" fill="#f9fafb" fill-rule="evenodd"/>
    <path d="M212.7,111.37a1.1,1.1,0,0,0-.73,1.32,1,1,0,0,0,1.29.68,1.08,1.08,0,0,0,.73-1.32A1,1,0,0,0,212.7,111.37Z" fill="#419292" fill-rule="evenodd"/>
    <path d="M213.35,111.9a.59.59,0,0,0-.4.72.56.56,0,0,0,.7.38.6.6,0,0,0,.4-.73A.54.54,0,0,0,213.35,111.9Z" fill-rule="evenodd"/>
    <path d="M212.14,111.42a.48.48,0,0,0-.32.59.44.44,0,0,0,.57.3.48.48,0,0,0,.33-.58A.45.45,0,0,0,212.14,111.42Z" fill="#f9fafb" fill-rule="evenodd"/>
    <path d="M213,114.75l-2.87-2a.41.41,0,0,0-.36,0,.44.44,0,0,0-.25.27s.34.88,1,2.63a.73.73,0,0,0-.38.62.66.66,0,0,0,.36.61.7.7,0,0,0,.72-.07.66.66,0,0,1,.44-.28.6.6,0,0,1,.48.14C212.53,116.78,214.09,115.58,213,114.75Z" fill="#d24e4e" fill-rule="evenodd"/>
    <path d="M213.64,120.08a3.71,3.71,0,0,1-2.28.27.14.14,0,0,0-.09.08.1.1,0,0,0,0,.11,3.75,3.75,0,0,0,2.41-.26.13.13,0,0,0,0-.13A.11.11,0,0,0,213.64,120.08Z" fill="#6d0f0f" fill-rule="evenodd"/>
    <path d="M214.17,117a.22.22,0,0,0-.09-.22c-.06,0-.16-.12-.23,0a4.4,4.4,0,0,1-4.37,1.1c-.15,0-.27.12-.35.25a.41.41,0,0,0,0,.41q1.78,2.24,4.87,1.09c.16-.06.34-.2.25-.38A3.24,3.24,0,0,1,214.17,117Z" fill="#6d0f0f" fill-rule="evenodd"/>
    <path d="M209.89,118.24a1.23,1.23,0,0,0,.36.56,4.94,4.94,0,0,0,3.33-.45s0-.41-.05-.9A4.92,4.92,0,0,1,209.89,118.24Z" fill="#f9fafb" fill-rule="evenodd"/>
    <path d="M207.75,112.35a1.89,1.89,0,0,0-1.6.77.48.48,0,0,1-.55-.16.52.52,0,0,0,.32.44.6.6,0,0,1-.49,0,.62.62,0,0,1-.3-.39.76.76,0,0,0,.72.82.7.7,0,0,1-1.1-.66.9.9,0,0,0,.15.87.88.88,0,0,0,.83.29.63.63,0,0,1-.82.12.56.56,0,0,0,.37.3.62.62,0,0,0,.48-.08c.21.33.3.32.28,0a1.8,1.8,0,0,1,1.08-1.81,1.65,1.65,0,0,1,2,.51.08.08,0,0,0,.12-.09A1.75,1.75,0,0,0,207.75,112.35Z" fill-rule="evenodd"/>
    <path d="M212.76,110.28a1.78,1.78,0,0,0-1.49.71.42.42,0,0,1-.51-.14.5.5,0,0,0,.3.41.53.53,0,0,1-.46,0,.54.54,0,0,1-.28-.36.71.71,0,0,0,.67.77.67.67,0,0,1-.71,0A.64.64,0,0,1,210,111a.8.8,0,0,0,.14.8.83.83,0,0,0,.77.28.62.62,0,0,1-.77.11.5.5,0,0,0,.35.27.55.55,0,0,0,.45-.07c.19.31.28.3.26,0a1.71,1.71,0,0,1,1-1.7,1.56,1.56,0,0,1,1.86.49.07.07,0,0,0,.09,0,.07.07,0,0,0,0-.09A1.65,1.65,0,0,0,212.76,110.28Z" fill-rule="evenodd"/>
    <path d="M203.07,110.9a10.49,10.49,0,0,0-.27-5.44q.06,3.86-1.2,5.67a7,7,0,0,0,0-3.82,7.81,7.81,0,0,1-1.13,3.44,5.31,5.31,0,0,0,.12-2.32,12.6,12.6,0,0,1-1,3.78,4.53,4.53,0,0,0,1.61-1.67,10.55,10.55,0,0,1-.26,2.24,6.09,6.09,0,0,0,1.74-2.78,7.34,7.34,0,0,1-.79,3.2,6.28,6.28,0,0,0,2-2.57,5.31,5.31,0,0,1-1.38,3.1q3.15-2.24,1.57-7.35A7.55,7.55,0,0,1,203.07,110.9Z" fill="#453b3d" fill-rule="evenodd"/>
    <path d="M212.05,114.79a.82.82,0,0,0-.44,1.06.78.78,0,0,0,1,.4.83.83,0,0,0,.44-1.06A.77.77,0,0,0,212.05,114.79Z" fill="#e86564" fill-rule="evenodd"/>
    <path d="M212.67,114.94a.44.44,0,0,0-.23.55.41.41,0,0,0,.55.21.43.43,0,0,0,.22-.55A.4.4,0,0,0,212.67,114.94Z" fill="#f48a8b" fill-rule="evenodd"/>
    <path d="M213.72,109.45a2.54,2.54,0,0,0-1.95.06,2.68,2.68,0,0,0-1.39,1.44,2.53,2.53,0,0,0,0,2,2.42,2.42,0,0,0,1.38,1.34,2.57,2.57,0,0,0,2-.06,2.73,2.73,0,0,0,1.39-1.43,2.56,2.56,0,0,0,0-2A2.39,2.39,0,0,0,213.72,109.45Zm1,3.14a2.24,2.24,0,0,1-1.14,1.17,2.1,2.1,0,0,1-1.61.06,2,2,0,0,1-1.14-1.1,2.09,2.09,0,0,1,0-1.61,2.19,2.19,0,0,1,1.14-1.18,2.15,2.15,0,0,1,1.61-.06,2,2,0,0,1,1.13,1.1A2.11,2.11,0,0,1,214.68,112.59Z" fill="#f9fafb"/>
    <path d="M208.42,111.66a2.77,2.77,0,0,0-2.13.07,2.91,2.91,0,0,0-1.5,1.55,2.76,2.76,0,0,0,0,2.13,2.61,2.61,0,0,0,1.5,1.45,2.74,2.74,0,0,0,2.12-.07,2.93,2.93,0,0,0,1.51-1.55,2.8,2.8,0,0,0,0-2.13A2.66,2.66,0,0,0,208.42,111.66Zm1,3.4a2.37,2.37,0,0,1-1.23,1.28,2.32,2.32,0,0,1-1.75.06,2.18,2.18,0,0,1-1.23-1.19,2.31,2.31,0,0,1,0-1.75,2.42,2.42,0,0,1,1.24-1.28,2.31,2.31,0,0,1,1.75-.06,2.16,2.16,0,0,1,1.23,1.2A2.23,2.23,0,0,1,209.45,115.06Z" fill="#f9fafb"/>
    <polygon points="201.9 115.63 202.04 116.09 204.85 115.17 204.71 114.7 201.9 115.63" fill="#f9fafb"/>
    <path d="M202.74,115.69c-.53-.67-1.7-.45-2.34.2a1.69,1.69,0,0,0-.14,2.35,6,6,0,0,0,3.05,1.34,1,1,0,0,0,.94-.53,1,1,0,0,0-.05-1.06A15,15,0,0,0,202.74,115.69Z" fill="#f59c9e" fill-rule="evenodd"/>
    <path d="M203.3,117.65a.26.26,0,0,1-.4,0,.05.05,0,0,1,0,0,.26.26,0,0,1,0-.09.66.66,0,0,1-.05-.15.36.36,0,0,0,0-.09l0,0-.06-.09-.08-.13-.11-.16v0s-.05,0-.07-.06l0,0a.27.27,0,0,1,.09-.39l0,0c-.34-.42-1.07-.28-1.48.13a1.06,1.06,0,0,0-.09,1.48,3.88,3.88,0,0,0,1.93.85.68.68,0,0,0,.59-.34.63.63,0,0,0,0-.67Z" fill="#da5553" fill-rule="evenodd"/>
    <path d="M203.86,118.44a.74.74,0,0,0-.49.89.69.69,0,0,0,.87.47.75.75,0,0,0,.5-.9A.69.69,0,0,0,203.86,118.44Z" fill="#f9fafb" fill-rule="evenodd"/>
    <path d="M201.7,116.56a.68.68,0,0,0,0,.77,8.35,8.35,0,0,0,1,.8.49.49,0,0,0,.44,0,.5.5,0,0,0,.24-.39,9.73,9.73,0,0,0-.92-1.45A.7.7,0,0,0,201.7,116.56Z" fill="#921c1e" fill-rule="evenodd"/>
    <path d="M245.63,140.53a2.35,2.35,0,0,0-3-1.72l-1.79.55a2.76,2.76,0,0,0-1.84,3.21h0a2.35,2.35,0,0,0,3,1.73l1.79-.55a2.76,2.76,0,0,0,1.84-3.22Z" fill="#f59c9e" fill-rule="evenodd"/>
    <path d="M198.33,128.55c-1.34.54-1.82,1.28-2.51,3.28-2.36,6.62-3.76,17.73-2.23,25.42a27.64,27.64,0,0,0,5.19-.12,54.25,54.25,0,0,1,4.33-23.92,3.6,3.6,0,0,0-.86-3.88A3.66,3.66,0,0,0,198.33,128.55Z" fill="#ef6394" fill-rule="evenodd"/>
    <path d="M198.67,129.59a1.82,1.82,0,0,1,1.19,2.33c-4.16,11.91-4.27,18.54-3.55,24.94l1.62-.22A48.93,48.93,0,0,1,202.26,133a2.74,2.74,0,0,0-3.59-3.39Z" fill="#cb2f64" fill-rule="evenodd"/>
    <path d="M198.69,159.36l-5-.18a24.63,24.63,0,0,0-.34,4.48c.32,2,7,2.05,6.39.5-1,0-1.48-.67-1.49-2.87l1.48,1.32a.8.8,0,0,0,.36-.85Z" fill="#f59c9e" fill-rule="evenodd"/>
    <path d="M192.31,156.31c.15,2.17.22,3.25.22,3.25a22,22,0,0,0,7.55-.42l-.06-3.71A24,24,0,0,1,192.31,156.31Z" fill="#f9fafb" fill-rule="evenodd"/>
    <rect x="177.36" y="166.64" width="6.03" height="11.5" rx="2.19" ry="2.19" transform="translate(-61.97 113.04) rotate(-29.94)" fill="#3e3e3e"/>
    <rect x="178.38" y="171.3" width="6.03" height="5.7" rx="2.07" ry="2.07" transform="translate(-62.72 113.8) rotate(-29.95)" fill="#090909"/>
    <path d="M261.6,125.59c-.1-.17-.54-.17-1.18-.14a12.18,12.18,0,0,0-2.45.36l-.31.07a3.13,3.13,0,0,0-2,1.08,1.85,1.85,0,0,0,0,2l.12.2a1.83,1.83,0,0,0,1.68,1,3.15,3.15,0,0,0,2-1.21,1.51,1.51,0,0,1,.21-.23,12.84,12.84,0,0,0,1.53-1.94c.36-.54.58-.92.47-1.1Z" fill="#090909" fill-rule="evenodd"/>
    <path d="M257.15,125.89l-6.54,1.37-6.54,1.36c1,1.78-.45,5,.58,6.8s4.55,2.1,5.58,3.88l4.46-5,4.46-5-1-1.74C257.81,127.05,257.48,126.47,257.15,125.89Z" fill="#f9fafb" fill-rule="evenodd"/>
    <rect x="181.06" y="145.47" width="70.83" height="12.36" transform="translate(-46.8 128.3) rotate(-29.95)" fill="#77b8e5"/>
    <rect x="182.32" y="151.31" width="70.83" height="5.05" transform="translate(-47.73 129.22) rotate(-29.94)" fill="#4485b5"/>
    <rect x="180.46" y="163.94" width="6.46" height="13.54" rx="0.55" ry="0.55" transform="translate(-60.69 114.48) rotate(-29.94)" fill="#cbe1f0"/>
    <rect x="182.24" y="170.11" width="5.24" height="5.27" rx="0.44" ry="0.44" transform="translate(-61.55 115.33) rotate(-29.94)" fill="#88afcb"/>
    <path d="M247.16,134l2.52,4.38,9-9.85c-.34-.58-.54-.94-.61-1.06Z" fill="#d3d3d3" fill-rule="evenodd"/>
  </g>
</svg>
