<svg id="statistics" xmlns="http://www.w3.org/2000/svg" width="206" height="206" viewBox="0 0 206 206">
  <title>generic-features-statistics</title>
  <circle cx="103" cy="103" r="103" fill="#74d68d"/>
  <circle cx="103" cy="103" r="89.11" fill="#b9efbb"/>
  <g>
    <path d="M316.63,215.73a1,1,0,0,0-.07-.25l0-.1a1.4,1.4,0,0,0-.15-.3v0a2,2,0,0,0-1.74-1H197.37a2,2,0,0,0-1.53.71h0a2.83,2.83,0,0,0-.2.28v0a1.4,1.4,0,0,0-.15.3l0,.1a1,1,0,0,0-.07.25,1.58,1.58,0,0,0,0,.38h0a9.68,9.68,0,0,0,.77,3.81,8.32,8.32,0,0,0,.41.85,9.78,9.78,0,0,0,5,4.43v77.61a6.13,6.13,0,0,0,6.14,6.13h96.72a6.13,6.13,0,0,0,6.14-6.13V225.2c.36-.15.72-.31,1.06-.49a9.79,9.79,0,0,0,2.25-1.68,10.31,10.31,0,0,0,1.19-1.45,9.51,9.51,0,0,0,.9-1.66,9.68,9.68,0,0,0,.77-3.81h0A1.58,1.58,0,0,0,316.63,215.73Z" transform="translate(-153 -153)" fill="#74d68d"/>
    <path d="M259.45,312.09v-3.15h-6.9v3.15a9.63,9.63,0,1,0,6.9,0ZM256,323.81a2.74,2.74,0,1,1,2.73-2.73A2.73,2.73,0,0,1,256,323.81Z" transform="translate(-153 -153)" fill="#74d68d"/>
  </g>
  <g>
    <path d="M44.37,55H161.63a2,2,0,0,1,2,2v0a9.77,9.77,0,0,1-9.77,9.77H52.1a9.77,9.77,0,0,1-9.77-9.77v0a2,2,0,0,1,2-2Z" fill="#f4ed76"/>
    <path d="M306.9,219.85H205.1a9.81,9.81,0,0,1-3.6-.68v77.6a6.14,6.14,0,0,0,6.14,6.14h96.72a6.14,6.14,0,0,0,6.14-6.14v-77.6A9.81,9.81,0,0,1,306.9,219.85Z" transform="translate(-153 -153)" fill="#f4ed76"/>
    <path d="M306.9,215.42H205.1a9.76,9.76,0,0,1-9.26-6.68,2,2,0,0,0-.51,1.34,9.77,9.77,0,0,0,9.77,9.77H306.9a9.77,9.77,0,0,0,9.77-9.77,2,2,0,0,0-.51-1.34A9.76,9.76,0,0,1,306.9,215.42Z" transform="translate(-153 -153)" fill="#f2bd53"/>
  </g>
  <g>
    <rect x="99.55" y="149.91" width="6.9" height="6.08" fill="#fff"/>
    <path d="M256,324.67a9.64,9.64,0,1,1,9.63-9.63A9.64,9.64,0,0,1,256,324.67Zm0-12.36a2.73,2.73,0,1,0,2.73,2.73A2.73,2.73,0,0,0,256,312.31Z" transform="translate(-153 -153)" fill="#fff"/>
  </g>
  <g>
    <g>
      <circle cx="75.07" cy="91.49" r="17.79" fill="#9ddcf9"/>
      <path d="M211.49,238.08l16.58,6.41-5.91-16.76A17.8,17.8,0,0,0,211.49,238.08Z" transform="translate(-153 -153)" fill="#b9efbb"/>
      <path d="M228.07,244.49l-16.58-6.41A17.73,17.73,0,0,0,222.3,261.3Z" transform="translate(-153 -153)" fill="#fff"/>
    </g>
    <g>
      <rect x="101.05" y="90.09" width="9.81" height="19.18" rx="2.09" ry="2.09" fill="#fff"/>
      <rect x="113.67" y="95.24" width="9.81" height="14.04" rx="2.09" ry="2.09" fill="#b9efbb"/>
      <rect x="126.29" y="84.03" width="9.81" height="25.25" rx="2.09" ry="2.09" fill="#fff"/>
      <rect x="138.91" y="73.49" width="9.81" height="35.79" rx="2.09" ry="2.09" fill="#9ddcf9"/>
    </g>
  </g>
  <g>
    <rect x="57.28" y="116.28" width="42.24" height="5.18" rx="2.59" ry="2.59" fill="#fff"/>
    <rect x="57.28" y="136.99" width="27.39" height="5.18" rx="2.59" ry="2.59" fill="#fff"/>
    <rect x="88.12" y="136.99" width="20.42" height="5.18" rx="2.59" ry="2.59" fill="#fff"/>
    <rect x="111.82" y="136.99" width="36.9" height="5.18" rx="2.59" ry="2.59" fill="#fff"/>
    <rect x="102.97" y="116.28" width="21.34" height="5.18" rx="2.59" ry="2.59" fill="#fff"/>
    <rect x="127.76" y="126.64" width="20.96" height="5.18" rx="2.59" ry="2.59" fill="#fff"/>
    <rect x="57.28" y="126.64" width="67.03" height="5.18" rx="2.59" ry="2.59" fill="#fff"/>
  </g>
</svg>
