<svg xmlns="http://www.w3.org/2000/svg" width="206" height="206" viewBox="0 0 206 206">
  <title>generic-features-online-booking-icon</title>
  <g id="Layer_2" data-name="Layer 2">
    <g id="online_bookings_icon" data-name="online bookings icon">
      <g>
        <circle cx="103" cy="103" r="103" fill="#00c0f3"/>
        <circle cx="103" cy="103" r="89.11" fill="#9ddcf9"/>
        <path d="M167.05,118.56a29.83,29.83,0,0,0-12.29-24.15V59a5.18,5.18,0,0,0-5.18-5.18H131.25V45.56a5,5,0,1,0-9.92,0v8.27H84.67V45.56a5,5,0,0,0-9.92,0v8.27H56.42A5.18,5.18,0,0,0,51.24,59V162.52a5.18,5.18,0,0,0,5.18,5.18h93.16a5.18,5.18,0,0,0,5.18-5.18v-19.8A29.85,29.85,0,0,0,167.05,118.56Z" fill="#009add"/>
        <g>
          <rect x="51.24" y="58.14" width="103.52" height="103.52" rx="6" ry="6" fill="#bcbec0"/>
          <rect x="51.24" y="54.69" width="103.52" height="103.52" rx="6" ry="6" fill="#d1d3d4"/>
          <rect x="51.24" y="51.24" width="103.52" height="103.52" rx="6" ry="6" fill="#e6e7e8"/>
          <rect x="51.24" y="47.79" width="103.52" height="103.52" rx="6" ry="6" fill="#fff"/>
          <g>
            <g>
              <rect x="58.07" y="79.45" width="15.01" height="15.01" rx="4" ry="4" fill="#fede3a"/>
              <path d="M69.63,92.74H61.52a3.45,3.45,0,0,1-3.45-3.45V91a3.44,3.44,0,0,0,3.45,3.45h8.11A3.45,3.45,0,0,0,73.08,91V89.29A3.46,3.46,0,0,1,69.63,92.74Z" fill="#f7cb15"/>
              <rect x="83.02" y="79.45" width="15.01" height="15.01" rx="4" ry="4" fill="#fede3a"/>
              <path d="M94.58,92.74H86.47A3.45,3.45,0,0,1,83,89.29V91a3.44,3.44,0,0,0,3.45,3.45h8.11A3.45,3.45,0,0,0,98,91V89.29A3.46,3.46,0,0,1,94.58,92.74Z" fill="#f7cb15"/>
              <rect x="107.97" y="79.45" width="15.01" height="15.01" rx="4" ry="4" fill="#e6e7e8"/>
              <rect x="132.92" y="79.45" width="15.01" height="15.01" rx="4" ry="4" fill="#fede3a"/>
            </g>
            <g>
              <rect x="58.07" y="104.4" width="15.01" height="15.01" rx="4" ry="4" fill="#e6e7e8"/>
              <rect x="83.02" y="104.4" width="15.01" height="15.01" rx="4" ry="4" fill="#fede3a"/>
              <path d="M94.58,117.69H86.47A3.45,3.45,0,0,1,83,114.24V116a3.44,3.44,0,0,0,3.45,3.45h8.11A3.45,3.45,0,0,0,98,116v-1.72A3.46,3.46,0,0,1,94.58,117.69Z" fill="#f7cb15"/>
              <rect x="107.97" y="104.4" width="15.01" height="15.01" rx="4" ry="4" fill="#e6e7e8"/>
              <rect x="132.92" y="104.4" width="15.01" height="15.01" rx="4" ry="4" fill="#e6e7e8"/>
            </g>
            <g>
              <rect x="58.07" y="129.36" width="15.01" height="15.01" rx="4" ry="4" fill="#fede3a"/>
              <path d="M69.63,142.64H61.52a3.44,3.44,0,0,1-3.45-3.45v1.73a3.45,3.45,0,0,0,3.45,3.45h8.11a3.46,3.46,0,0,0,3.45-3.45v-1.73A3.45,3.45,0,0,1,69.63,142.64Z" fill="#f7cb15"/>
              <rect x="83.02" y="129.36" width="15.01" height="15.01" rx="4" ry="4" fill="#fede3a"/>
              <path d="M94.58,142.64H86.47A3.44,3.44,0,0,1,83,139.19v1.73a3.45,3.45,0,0,0,3.45,3.45h8.11A3.46,3.46,0,0,0,98,140.92v-1.73A3.45,3.45,0,0,1,94.58,142.64Z" fill="#f7cb15"/>
              <rect x="107.97" y="129.36" width="15.01" height="15.01" rx="4" ry="4" fill="#fede3a"/>
              <path d="M119.53,142.64h-8.11a3.45,3.45,0,0,1-3.45-3.45v1.73a3.46,3.46,0,0,0,3.45,3.45h8.11a3.45,3.45,0,0,0,3.45-3.45v-1.73A3.44,3.44,0,0,1,119.53,142.64Z" fill="#f7cb15"/>
              <rect x="132.92" y="129.36" width="15.01" height="15.01" rx="4" ry="4" fill="#e6e7e8"/>
            </g>
          </g>
          <g>
            <g>
              <path d="M149.58,47.79H56.42A5.18,5.18,0,0,0,51.24,53V72.09H154.76V53A5.18,5.18,0,0,0,149.58,47.79Z" fill="#1caee4"/>
              <rect x="51.24" y="67.74" width="103.52" height="4.35" fill="#009add"/>
            </g>
            <g>
              <rect x="74.75" y="38.01" width="9.92" height="26.45" rx="4.96" ry="4.96" fill="#009add"/>
              <rect x="121.33" y="38.01" width="9.92" height="26.45" rx="4.96" ry="4.96" fill="#009add"/>
              <rect x="74.75" y="34.56" width="9.92" height="26.45" rx="4.96" ry="4.96" fill="#fede3a"/>
              <path d="M79.71,34.56a5,5,0,0,0-5,5v8.63a5,5,0,0,1,9.92,0V39.52A5,5,0,0,0,79.71,34.56Z" fill="#fff335"/>
              <path d="M79.71,56.7a5,5,0,0,1-5-5v4.32a5,5,0,0,0,9.92,0V51.74A5,5,0,0,1,79.71,56.7Z" fill="#f7cb15"/>
              <rect x="121.33" y="34.56" width="9.92" height="26.45" rx="4.96" ry="4.96" fill="#fede3a"/>
              <path d="M126.29,34.56a5,5,0,0,0-5,5v8.63a5,5,0,1,1,9.92,0V39.52A5,5,0,0,0,126.29,34.56Z" fill="#fff335"/>
              <path d="M126.29,56.7a5,5,0,0,1-5-5v4.32a5,5,0,1,0,9.92,0V51.74A5,5,0,0,1,126.29,56.7Z" fill="#f7cb15"/>
            </g>
          </g>
        </g>
        <g>
          <path d="M137.16,86.94a29.89,29.89,0,0,0-27,42.67,3.45,3.45,0,0,1,1.29-.25h8.11a3.44,3.44,0,0,1,3.45,3.45v8.11a3.39,3.39,0,0,1-.58,1.91A29.89,29.89,0,0,0,154.76,141V92.68A29.79,29.79,0,0,0,137.16,86.94Z" fill="#d1d3d4"/>
          <path d="M119.53,129.36h-8.11a3.45,3.45,0,0,0-1.29.25,30,30,0,0,0,12.27,13.22,3.39,3.39,0,0,0,.58-1.91v-8.11A3.44,3.44,0,0,0,119.53,129.36Z" fill="#e7ad27"/>
        </g>
        <path d="M137.16,82.63a29.9,29.9,0,1,0,29.89,29.9A29.9,29.9,0,0,0,137.16,82.63Zm0,52.45a22.56,22.56,0,1,1,22.55-22.55A22.56,22.56,0,0,1,137.16,135.08Z" fill="#00c0f3"/>
        <path d="M137.16,86.44a26.09,26.09,0,1,0,26.08,26.09A26.09,26.09,0,0,0,137.16,86.44Zm0,48.64a22.56,22.56,0,1,1,22.55-22.55A22.56,22.56,0,0,1,137.16,135.08Z" fill="#9ddcf9"/>
        <circle cx="137.16" cy="112.53" r="22.55" fill="#fff"/>
        <path id="curve0" d="M148,122.7l-5.53-7.58,7.33-2.31L127.22,99l6.19,25.67,4.47-6.26,5.53,7.58Z" fill="#00c0f3"/>
      </g>
    </g>
  </g>
</svg>
