<svg id="recurring_charges_graphic" data-name="recurring charges graphic" xmlns="http://www.w3.org/2000/svg" width="202.69" height="206" viewBox="0 0 202.69 206">
  <title>generic-features-recurring-charges</title>
  <g>
    <g>
      <circle cx="255.65" cy="254.4" r="84.4" transform="translate(-231.29 242.84) rotate(-67.5)" fill="#83d0d9"/>
      <path d="M255.65,171a83.4,83.4,0,1,1-83.4,83.39A83.49,83.49,0,0,1,255.65,171m0-2a85.4,85.4,0,1,0,85.4,85.39A85.4,85.4,0,0,0,255.65,169Z" transform="translate(-154.07 -150.4)" fill="#616363"/>
    </g>
    <g>
      <circle cx="255.98" cy="255.92" r="70.26" transform="translate(-260.06 105.57) rotate(-45)" fill="#f9e48a"/>
      <path d="M256,186.66a69.26,69.26,0,1,1-69.26,69.26A69.34,69.34,0,0,1,256,186.66m0-2a71.26,71.26,0,1,0,71.26,71.26A71.27,71.27,0,0,0,256,184.66Z" transform="translate(-154.07 -150.4)" fill="#616363"/>
    </g>
    <path d="M281.16,352" transform="translate(-154.07 -150.4)" fill="none" stroke="#616363" stroke-miterlimit="10" stroke-width="4"/>
    <g>
      <rect x="68.36" y="71.74" width="83.1" height="52.99" rx="9.99" ry="9.99" fill="#fbb756"/>
      <path d="M296.2,276.28h-6.67V274h6.67a8.21,8.21,0,0,0,8.2-8.2V231.48a8.21,8.21,0,0,0-8.2-8.2H231.77a8.21,8.21,0,0,0-8.2,8.2v5.23h-2.28v-5.23A10.49,10.49,0,0,1,231.77,221H296.2a10.49,10.49,0,0,1,10.48,10.48V265.8A10.49,10.49,0,0,1,296.2,276.28Z" transform="translate(-154.07 -150.4)" fill="#616363"/>
      <rect x="52.36" y="86.31" width="83.1" height="52.99" rx="9.99" ry="9.99" fill="#fff"/>
      <rect x="63.31" y="129.88" width="5.81" height="2.28" fill="#616363"/>
      <rect x="71.56" y="129.88" width="5.81" height="2.28" fill="#616363"/>
      <path d="M279.18,282.56h-7.82a4.15,4.15,0,0,1-4.14-4.14v-3.57a4.14,4.14,0,0,1,4.14-4.13h7.82a4.13,4.13,0,0,1,4.13,4.13v3.57A4.14,4.14,0,0,1,279.18,282.56ZM271.36,273a1.86,1.86,0,0,0-1.86,1.86v3.57a1.86,1.86,0,0,0,1.86,1.86h7.82a1.87,1.87,0,0,0,1.86-1.86v-3.57a1.87,1.87,0,0,0-1.86-1.86Z" transform="translate(-154.07 -150.4)" fill="#616363"/>
      <rect x="52.36" y="97.26" width="83.1" height="11.89" fill="#83d0d9"/>
      <path d="M279.55,290.84H216.42a11.14,11.14,0,0,1-11.13-11.13v-33a11.14,11.14,0,0,1,11.13-11.12h63.13a11.13,11.13,0,0,1,11.12,11.12v33A11.14,11.14,0,0,1,279.55,290.84Zm-63.13-53a8.85,8.85,0,0,0-8.85,8.84v33a8.86,8.86,0,0,0,8.85,8.85h63.13a8.86,8.86,0,0,0,8.84-8.85v-33a8.85,8.85,0,0,0-8.84-8.84Z" transform="translate(-154.07 -150.4)" fill="#616363"/>
    </g>
    <g>
      <path d="M221.82,355.4c-.55-.41-.52-3.64-.5-5.37,0-3.22,0-5.24-1-6.21a1.7,1.7,0,0,0-1.24-.53H219c-.54,0-1.11.05-1.74.05-9.72,0-30.69-4.28-47.64-20.32a45.59,45.59,0,0,1-14.22-38.42c1.34-10.86,6.67-19.84,14.7-24.83-.07.4-.15.84-.23,1.26-1,5.42-3.18,16.68,4,27.83,13,20.11,34.73,22.39,42.92,23.24.72.08,1.33.14,1.8.21l.32,0h0a1.91,1.91,0,0,0,1.45-.63c1.11-1.2.89-3.81.64-6.83-.14-1.62-.39-4.63.08-5.14,0,0,.09,0,.3.14,6.07,2.71,31.58,23.29,31.83,26.46,0,.13-.05.9-1.54,2.91-6,8.15-25.42,23.92-29.45,26a1,1,0,0,1-.39.14Z" transform="translate(-154.07 -150.4)" fill="#fbb756"/>
      <path d="M168.67,262c-1.09,5.88-2.58,16.69,4.36,27.45,13.23,20.52,35.33,22.83,43.65,23.7.72.07,1.31.13,1.78.2l.45,0a2.93,2.93,0,0,0,2.19-1c1.4-1.52,1.16-4.32.89-7.58-.08-1-.21-2.56-.18-3.59,6.93,3.76,28.78,21.39,30.37,25.21a8.22,8.22,0,0,1-1.31,2.23c-5.54,7.48-23.37,22.18-28.44,25.34a34.23,34.23,0,0,1-.11-3.95c0-3.48,0-5.68-1.26-6.93a2.72,2.72,0,0,0-1.95-.82h-.18c-.52,0-1.09.05-1.68.05-9.57,0-30.24-4.22-46.95-20a44.58,44.58,0,0,1-13.92-37.57C157.57,275.09,162,267,168.67,262m2.29-3.78a.62.62,0,0,0-.3.1c-20,11.25-23.5,44.88-1.73,65.48,17.06,16.15,38.22,20.59,48.32,20.59q1,0,1.8-.06h.06c2.61,0-.3,12.11,2.72,12.11a1.9,1.9,0,0,0,.85-.25c4.41-2.29,23.85-18.27,29.8-26.31,1.11-1.51,1.75-2.76,1.73-3.53-.14-4-26.81-24.84-32.42-27.35a2,2,0,0,0-.77-.19c-3.1,0,1.1,12.57-2.11,12.57l-.18,0c-5.57-.75-30.11-1.43-44-23-9.56-14.82-2.05-30.15-3.75-30.15Z" transform="translate(-154.07 -150.4)" fill="#616363"/>
    </g>
    <g>
      <path d="M341.51,245.65c.06-.4.13-.86.2-1.29.88-5.44,2.72-16.75-4.75-27.67-13.5-19.75-35.3-21.45-43.51-22.09l-1.82-.16-.27,0a1.94,1.94,0,0,0-1.48.65c-1.09,1.22-.81,3.83-.48,6.85.18,1.62.51,4.64.05,5.14,0,0-.08,0-.3-.13-6.51-2.76-32.16-22.42-32.5-25.62,0-.24.1-1,1.46-2.95,5.56-7.92,24.31-24.35,28.78-26.82a1,1,0,0,1,.38-.14c.56.39.62,3.62.65,5.36.06,3.58.11,6.68,2.34,6.68h.16c.81-.07,1.71-.11,2.68-.11,12,0,31.54,5,47.22,19.06a45.66,45.66,0,0,1,15.24,38.06C354.5,231.34,349.4,240.45,341.51,245.65Z" transform="translate(-154.07 -150.4)" fill="#fbb756"/>
      <path d="M286.7,152.83a33.56,33.56,0,0,1,.22,3.94c.06,3.77.13,7.67,3.34,7.67h.25c.78-.07,1.65-.11,2.59-.11,11.8,0,31.08,4.93,46.55,18.8a44.63,44.63,0,0,1,14.91,37.23c-.94,9.68-5.14,17.9-11.69,23.08.92-5.89,2.14-16.74-5.09-27.3C324,196,301.86,194.25,293.52,193.6c-.71-.06-1.32-.1-1.77-.15l-.39,0a3,3,0,0,0-2.23,1c-1.39,1.55-1.08,4.37-.72,7.63.11,1,.27,2.54.28,3.57-7.05-3.63-29.37-20.7-31-24.41a8,8,0,0,1,1.25-2.25c5.39-7.66,22.81-22.83,27.78-26.11m.57-2.43a1.79,1.79,0,0,0-.87.27c-4.34,2.4-23.35,18.92-29.11,27.12-1.08,1.54-1.69,2.76-1.64,3.59.24,3.93,27.46,24.07,33.11,26.47a1.94,1.94,0,0,0,.74.17c3.17,0-1.43-12.6,1.86-12.6h.16c5.58.62,30.14.64,44.61,21.83,9.93,14.51,2.87,30,4.55,30a.72.72,0,0,0,.31-.11c19.7-11.77,22.3-45.49,0-65.53-17-15.21-37.45-19.31-47.89-19.31-1,0-2,0-2.77.12h-.07c-2.58,0,0-12-3-12Z" transform="translate(-154.07 -150.4)" fill="#616363"/>
    </g>
  </g>
</svg>
