<?xml version="1.0" encoding="utf-8"?>
<!-- Generator: Adobe Illustrator 22.0.1, SVG Export Plug-In . SVG Version: 6.00 Build 0)  -->
<svg version="1.1"
	 id="svg3895" inkscape:output_extension="org.inkscape.output.svg.inkscape" inkscape:version="0.46" sodipodi:docname="distributions-mac.svg" sodipodi:version="0.32" xmlns:cc="http://creativecommons.org/ns#" xmlns:dc="http://purl.org/dc/elements/1.1/" xmlns:inkscape="http://www.inkscape.org/namespaces/inkscape" xmlns:rdf="http://www.w3.org/1999/02/22-rdf-syntax-ns#" xmlns:sodipodi="http://sodipodi.sourceforge.net/DTD/sodipodi-0.dtd" xmlns:svg="http://www.w3.org/2000/svg"
	 xmlns="http://www.w3.org/2000/svg" xmlns:xlink="http://www.w3.org/1999/xlink" x="0px" y="0px" viewBox="0 0 256 256"
	 style="enable-background:new 0 0 256 256;" xml:space="preserve">
<style type="text/css">
	.st0{clip-path:url(#SVGID_2_);fill:#A7A9AC;}
	.st1{fill:#A7A9AC;}
</style>
<defs>
	
	
		<inkscape:perspective  id="perspective3903" inkscape:persp3d-origin="372.04724 : 350.78739 : 1" inkscape:vp_x="0 : 526.18109 : 1" inkscape:vp_y="0 : 1000 : 0" inkscape:vp_z="744.09448 : 526.18109 : 1" sodipodi:type="inkscape:persp3d">
		</inkscape:perspective>
	
		<inkscape:perspective  id="perspective3969" inkscape:persp3d-origin="372.04724 : 350.78739 : 1" inkscape:vp_x="0 : 526.18109 : 1" inkscape:vp_y="0 : 1000 : 0" inkscape:vp_z="744.09448 : 526.18109 : 1" sodipodi:type="inkscape:persp3d">
		</inkscape:perspective>
</defs>
<sodipodi:namedview  bordercolor="#666666" borderopacity="1.0" gridtolerance="10000" guidetolerance="10" id="base" inkscape:current-layer="layer1" inkscape:cx="156.93396" inkscape:cy="210.91373" inkscape:document-units="px" inkscape:guide-bbox="true" inkscape:pageopacity="0.0" inkscape:pageshadow="2" inkscape:window-height="674" inkscape:window-width="670" inkscape:window-x="0" inkscape:window-y="309" inkscape:zoom="0.98994949" objecttolerance="10" pagecolor="#ffffff" showgrid="false" showguides="true">
	</sodipodi:namedview>
<g>
	<defs>
		<rect id="SVGID_1_" x="21.5" y="2.7" width="213.1" height="250.7"/>
	</defs>
	<clipPath id="SVGID_2_">
		<use xlink:href="#SVGID_1_"  style="overflow:visible;"/>
	</clipPath>
	<path class="st0" d="M179.8,63.2c-21.5-1.5-39.8,11.5-50,11.5c-10.3,0-26.3-11.2-43.2-10.9c-22.2,0.3-42.7,12.4-54.1,31.4
		C9.3,133.6,26.5,190.5,49,221.6c11,15.2,24.1,32.3,41.3,31.7c16.6-0.6,22.8-10.3,42.9-10.3c20,0,25.7,10.3,43.2,10
		c17.8-0.3,29.1-15.5,40-30.8c12.6-17.7,17.8-34.7,18.1-35.6c-0.4-0.1-34.8-12.8-35.1-50.7c-0.3-31.7,27-47,28.3-47.7
		C212.2,66.2,188.2,63.8,179.8,63.2"/>
</g>
<path class="st1" d="M166.5,42.7c9.2-10.6,15.3-25.3,13.6-40c-13.2,0.5-29.1,8.4-38.5,19c-8.5,9.4-15.9,24.4-13.9,38.8
	C142.4,61.5,157.3,53.3,166.5,42.7"/>
</svg>
