<svg id="quickbooks" xmlns="http://www.w3.org/2000/svg" viewBox="0 0 200 50">
  <title>logo-intuit-quickbooks-preferred</title>
  <g id="Layer_2" data-name="Layer 2">
    <g id="Layer_1-2" data-name="Layer 1-2">
      <g id="QuickBooks_Lockup" data-name="QuickBooks Lockup">
        <g id="Wordmark">
          <path id="_" data-name=" " d="M198,34.88c0-.4-.34-.55-.69-.55h-.65v1.88H197v-.79h.25l.44.79h.41l-.51-.82A.5.5,0,0,0,198,34.88Zm-1,.27v-.53h.31c.18,0,.38.05.38.25s-.22.28-.42.28Zm.32-1.54A1.66,1.66,0,1,0,199,35.28a1.66,1.66,0,0,0-1.67-1.67Zm0,3.07a1.41,1.41,0,1,1,1.4-1.41h0A1.4,1.4,0,0,1,197.33,36.68Z"/>
          <path id="quickbooks-2" data-name="quickbooks" d="M89.89,33.9c-2.44,0-3.67-2.19-3.67-4.3s1.34-4.2,3.56-4.2a3.85,3.85,0,0,1,2.87,1.26l2.58-2.58A7.85,7.85,0,0,0,82,29.65c0,4.51,3.22,7.67,7.84,7.67a7.39,7.39,0,0,0,5.44-1.94l-2.52-2.7A4,4,0,0,1,89.89,33.9Zm-14.46,3h4V22.38h-4Zm-7.3-6.56A3.33,3.33,0,0,1,65,33.89c-1.6,0-2.46-1.13-2.46-3.49v-8h-4v9c0,3,1.5,5.92,5.5,5.92,1.88,0,3.47-1.5,4.27-2.58h.06v2.17h3.83V22.38h-4Zm-16.9-6.12h-.09A6.16,6.16,0,0,0,46.55,22a7.26,7.26,0,0,0-7.24,7.62c0,4.48,2.91,7.73,7,7.73A6.46,6.46,0,0,0,51,35.17h.06v8.9h4V22.38H51.24ZM47.35,33.9a4.06,4.06,0,0,1-3.91-4.31,4,4,0,0,1,3.89-4.25c2.39,0,3.87,2.26,3.87,4.31A4.05,4.05,0,0,1,47.35,33.9ZM138.74,22a7.51,7.51,0,0,0-7.88,7.62,7.89,7.89,0,0,0,15.77,0A7.51,7.51,0,0,0,138.74,22Zm0,11.93c-2.63,0-3.81-2.24-3.81-4.31s1.19-4.25,3.81-4.25,3.81,2.2,3.81,4.25S141.36,33.9,138.74,33.9ZM188.9,28c-2.06-.49-2.79-.75-2.79-1.59,0-1.16,1.46-1.41,2.13-1.41a4.52,4.52,0,0,1,3.18,1.45l2.36-2.26A7.16,7.16,0,0,0,188.26,22c-2.9,0-5.95,1.46-5.95,4.72,0,2.8,2.2,3.65,4.34,4.17s3.08.91,3.08,1.82c0,1.34-1.53,1.56-2,1.56A5.24,5.24,0,0,1,184,32.54L181.59,35a8.16,8.16,0,0,0,5.94,2.36c3.92,0,6.25-1.88,6.25-4.95S190.93,28.46,188.9,28Zm-7.58-5.59h-5.18l-5.17,6h-.09v-14h-4V36.91h4V29.75H171l5.37,7.16h5.28L175.37,29ZM121.82,22a6.26,6.26,0,0,0-4.46,2h-.08V14.38h-4V36.91h3.84V34.85h.06a5.41,5.41,0,0,0,4.56,2.46c4.13,0,7.28-3.25,7.28-7.73S125.91,22,121.82,22ZM121,33.9a4,4,0,0,1-3.87-4.25A4.12,4.12,0,0,1,121,25.34a4,4,0,0,1,3.89,4.25A4,4,0,0,1,121,33.9Zm-9.27-11.52h-5.18l-5.18,6h-.09v-14h-4V36.91h4V29.75h.09l5.38,7.16h5.28L105.81,29ZM156.37,22a7.51,7.51,0,0,0-7.88,7.62,7.89,7.89,0,0,0,15.77,0A7.51,7.51,0,0,0,156.37,22Zm0,11.93c-2.63,0-3.81-2.24-3.81-4.31s1.2-4.25,3.81-4.25,3.81,2.2,3.81,4.25S159,33.9,156.37,33.9Z"/>
        </g>
        <g id="Icon">
          <circle id="Circle" cx="17.9" cy="22.83" r="16.9" fill="#2ca01c"/>
          <path id="qb" d="M5.69,22.83a6.58,6.58,0,0,0,6.58,6.57h.94V27h-.94a4.13,4.13,0,1,1,0-8.26h2.25V31.47A2.44,2.44,0,0,0,17,33.91h0V16.26H12.27a6.58,6.58,0,0,0-6.58,6.56Zm17.85-6.57H22.6V18.7h.94a4.13,4.13,0,1,1,0,8.26H21.28V14.19a2.44,2.44,0,0,0-2.44-2.44V29.4h4.7a6.57,6.57,0,1,0,0-13.14Z" fill="#fff"/>
        </g>
        <path id="intuit" d="M55.86,9.78a1.13,1.13,0,1,0-1.12-1.13A1.13,1.13,0,0,0,55.86,9.78Zm-6.66.75a2.5,2.5,0,0,0-2.29,1.41h0V10.75H45.12v7.39H47V14.07a1.81,1.81,0,0,1,1.72-2c1.17,0,1.39,1.09,1.39,2v4.1h1.84V13.52A2.69,2.69,0,0,0,49.2,10.53Zm-7.82,7.61h1.84V10.75H41.38ZM75,9.78a1.13,1.13,0,1,0-1.12-1.13A1.13,1.13,0,0,0,75,9.78Zm-3,1v1.64h2.07v5.76h1.85V12.38H78V10.74Zm-3.14,7.4H70.7V10.75H68.85Zm-16-5.76h2.07v5.76h1.85V12.38h2.07V10.74h-6Zm12.24,2.43a1.81,1.81,0,0,1-1.73,2c-1.17,0-1.39-1.09-1.39-2V10.75H60.15v4.62a2.7,2.7,0,0,0,2.72,3,2.52,2.52,0,0,0,2.3-1.4h0v1.19H67V10.75H65.11Z"/>
      </g>
    </g>
  </g>
</svg>
