<svg id="Layer_1" data-name="Layer 1" xmlns="http://www.w3.org/2000/svg" viewBox="0 0 360 149.84">
  <title>logo-stripe</title>
  <g id="Stripe">
    <path d="M414,113.38c0-25.57-12.38-45.76-36.1-45.76s-38.21,20.19-38.21,45.63c0,30.11,17,45.35,41.36,45.35,11.94,0,20.9-2.72,27.68-6.48V132a52.7,52.7,0,0,1-24.53,5.53c-9.73,0-18.31-3.45-19.42-15.15h48.88C413.77,121,414,115.8,414,113.38Zm-49.44-9.44c0-11.25,6.94-16,13.18-16s12.63,4.72,12.63,16Z" transform="translate(-54 -36.01)" fill="#6772e5" fill-rule="evenodd"/>
    <path d="M301.08,67.62a27.92,27.92,0,0,0-19.56,7.83l-1.3-6.17h-22V185.84l25-5.3.05-28.26c3.59,2.62,8.93,6.32,17.67,6.32,17.86,0,34.2-14.38,34.2-46.11C335.13,83.42,318.62,67.62,301.08,67.62Zm-6,68.91c-5.86,0-9.35-2.11-11.78-4.74l-.15-37.1c2.61-2.86,6.2-5,11.93-5,9.14,0,15.43,10.23,15.43,23.3C310.54,126.48,304.35,136.53,295.11,136.53Z" transform="translate(-54 -36.01)" fill="#6772e5" fill-rule="evenodd"/>
    <polygon points="169.8 25.67 194.87 20.34 194.87 0 169.8 5.33 169.8 25.67" fill="#6772e5" fill-rule="evenodd"/>
    <rect x="169.8" y="33.27" width="25.07" height="87.53" fill="#6772e5"/>
    <path d="M196.94,76.66l-1.56-7.38H173.79v87.53h25V97.47c5.9-7.75,15.86-6.25,19-5.23V69.29C214.46,68.09,202.79,65.91,196.94,76.66Z" transform="translate(-54 -36.01)" fill="#6772e5" fill-rule="evenodd"/>
    <path d="M146.87,47.6l-24.38,5.18-.11,80.12c0,14.78,11.12,25.7,25.94,25.7,8.16,0,14.19-1.49,17.52-3.31V135c-3.2,1.28-19,5.86-19-8.86V90.57h19V69.28h-19Z" transform="translate(-54 -36.01)" fill="#6772e5" fill-rule="evenodd"/>
    <path d="M79.26,94.69c0-3.9,3.24-5.41,8.48-5.41a55.93,55.93,0,0,1,24.83,6.42V72.19a66,66,0,0,0-24.81-4.57C67.5,67.62,54,78.2,54,95.88,54,123.52,92,119,92,131c0,4.62-4,6.11-9.58,6.11-8.27,0-18.94-3.42-27.33-8v23.85a69.42,69.42,0,0,0,27.31,5.67c20.76,0,35.07-10.26,35.07-28.24C117.43,100.59,79.26,105.93,79.26,94.69Z" transform="translate(-54 -36.01)" fill="#6772e5" fill-rule="evenodd"/>
  </g>
</svg>
