<svg xmlns="http://www.w3.org/2000/svg" viewBox="0 0 622.85 622.85">
  <title>xero</title>
  <g id="Layer_2" data-name="Layer 2">
    <g id="LOGOS_SPOT" data-name="LOGOS SPOT">
      <g>
        <path d="M311.41,0C139.4,0,0,139.44,0,311.42S139.4,622.85,311.41,622.85,622.85,483.4,622.85,311.42,483.37,0,311.41,0" fill="#13b5ea" fill-rule="evenodd"/>
        <path d="M341.6,311.81A17.85,17.85,0,0,0,345,297.1c-4.18-19.94-14.91-35.92-31-46.19a70,70,0,0,0-78,2.1,71.43,71.43,0,0,0-29.54,58,69.71,69.71,0,0,0,2.11,17.07c7.1,28.07,31,49.3,59.48,52.82a67.22,67.22,0,0,0,8.2.51,65.93,65.93,0,0,0,17-2.24,69,69,0,0,0,21-9c6.17-4,11.84-9.46,17.81-17l.39-.41a12,12,0,0,0,2.54-8.83,9.89,9.89,0,0,0-3.71-6.75,10.74,10.74,0,0,0-6.53-2.35c-2.2,0-5.44.81-8.37,4.66l-.23.31c-1,1.3-2,2.65-3.12,4a51.26,51.26,0,0,1-13.47,10.95,48.59,48.59,0,0,1-22.92,5.88c-25.32-.28-40.82-17.28-46.88-33.08a57.21,57.21,0,0,1-2.07-7.85c0-.24,0-.5,0-.75h98C332.35,318.73,338.05,316.22,341.6,311.81ZM228.28,298.37a49.38,49.38,0,0,1,95.9,0Zm274,11.41a17.83,17.83,0,1,1-17.81-18A17.91,17.91,0,0,1,502.25,309.78ZM409.18,261.3a36.28,36.28,0,0,0-3.93.21c-20.17,2.52-22.17,12.34-22.17,35.83v72.51a10.1,10.1,0,1,1-20.2,0l0-117.9a10.09,10.09,0,0,1,19.7-3.12A39.88,39.88,0,0,1,406.38,241l2.87,0a10.22,10.22,0,0,1,10.17,10.24C419.42,256.88,415.11,261.08,409.18,261.3ZM205.72,363.49a10.23,10.23,0,0,1-7.2,17.44,10.13,10.13,0,0,1-7.33-3.22l-52.25-52.65L86.47,378a10.12,10.12,0,0,1-17.26-7.27,10.13,10.13,0,0,1,3.12-7.34l52.27-52.84L72.25,257.72a10.29,10.29,0,0,1-3-7.3A10.18,10.18,0,0,1,79.32,240.2a10,10,0,0,1,7.15,3L139,295.94l52.31-52.69a10.06,10.06,0,0,1,7.21-3.05,10.22,10.22,0,0,1,10.17,10.22,10,10,0,0,1-3,7.17l-52.32,53ZM484.44,239.26c-38.55,0-69.91,31.64-69.91,70.52s31.36,70.51,69.91,70.51,69.87-31.63,69.87-70.51S523,239.26,484.44,239.26Zm0,119.93c-27,0-49-22.16-49-49.41s22-49.47,49-49.47,48.95,22.2,48.95,49.47S511.43,359.19,484.44,359.19Z" fill="#fff" fill-rule="evenodd"/>
      </g>
    </g>
  </g>
</svg>
