<?xml version="1.0" encoding="utf-8"?>
<!-- Generator: Adobe Illustrator 22.0.1, SVG Export Plug-In . SVG Version: 6.00 Build 0)  -->
<svg version="1.1" id="Layer_1" xmlns="http://www.w3.org/2000/svg" xmlns:xlink="http://www.w3.org/1999/xlink" x="0px" y="0px"
	 viewBox="0 0 149.6 16" style="enable-background:new 0 0 149.6 16;" xml:space="preserve">
<style type="text/css">
	.st0{fill:#0854B3;}
</style>
<title>Artboard</title>
<desc>Created with Sketch.</desc>
<g>
	<g>
		<g transform="translate(0.000000, 2.000000)">
			<path class="st0" d="M8,14c-4.8,0-8-3.4-8-8v0c0-4.4,3.4-8,8-8c2.8,0,4.4,0.7,6,2.1l-2.1,2.6c-1.2-1-2.2-1.6-4-1.6
				C5.4,1.2,3.5,3.4,3.5,6v0c0,2.8,2,4.9,4.6,4.9c1.2,0,2.3-0.3,3.2-0.9V7.8H7.9V4.8h6.6v6.7C13,12.9,10.8,14,8,14"/>
			<path class="st0" d="M24.1,14c-4.6,0-7.8-3.6-7.8-8v0c0-4.4,3.3-8,7.9-8S32,1.6,32,6v0C32,10.4,28.7,14,24.1,14L24.1,14z M28.6,6
				c0-2.7-1.9-4.9-4.5-4.9c-2.6,0-4.4,2.2-4.4,4.8v0c0,2.7,1.9,4.9,4.5,4.9C26.8,10.8,28.6,8.7,28.6,6L28.6,6L28.6,6z"/>
			<path class="st0" d="M42.4,14c-4.3,0-7.5-3.5-7.5-8c0-4.4,3.2-8,7.5-8c2.7,0,4.3,1,5.8,2.4l-1.2,1.3c-1.2-1.2-2.6-2.1-4.7-2.1
				c-3.3,0-5.8,2.8-5.8,6.4c0,3.6,2.5,6.4,5.8,6.4c2.1,0,3.4-0.8,4.8-2.2l1.1,1.1C46.8,12.9,45.1,14,42.4,14"/>
			<path class="st0" d="M64.6,13.7h-1.8l-1.8-4H53l-1.8,4h-1.7l6.8-15.4h1.6L64.6,13.7L64.6,13.7z M57,0.4l-3.4,7.8h6.8L57,0.4
				L57,0.4z"/>
			<path class="st0" d="M77.7,13.7l-4.3-6h-4.2v6h-1.7V-1.7h6.3c3.2,0,5.3,1.8,5.3,4.6c0,2.6-1.7,4.1-4,4.5l4.5,6.3L77.7,13.7
				L77.7,13.7z M73.8-0.1h-4.5v6.3h4.5C76,6.2,77.6,5,77.6,3C77.6,1.1,76.1-0.1,73.8-0.1L73.8-0.1z"/>
			<path class="st0" d="M88,13.7h-5.3V-1.7H88c4.8,0,8.1,3.3,8.1,7.7C96,10.4,92.8,13.7,88,13.7 M88-0.1h-3.6v12.2H88
				c3.8,0,6.3-2.7,6.3-6.1C94.3,2.6,91.8-0.1,88-0.1"/>
			<polygon class="st0" points="99.6,-1.7 101.3,-1.7 101.3,12.1 110,12.1 110,13.7 99.6,13.7 			"/>
			<polygon class="st0" points="122.2,-0.1 113.4,-0.1 113.4,5.2 121.2,5.2 121.2,6.8 113.4,6.8 113.4,12.1 122.3,12.1 122.3,13.7 
				111.8,13.7 111.8,-1.7 122.2,-1.7 			"/>
			<path class="st0" d="M131.4,5.2c3.3,0.7,4.8,2,4.8,4.4c0,2.7-2.1,4.4-5,4.4c-2.3,0-4.2-0.8-6-2.5l1-1.3c1.5,1.5,3,2.2,5,2.2
				c2,0,3.3-1.1,3.3-2.7c0-1.5-0.7-2.3-3.8-3c-3.4-0.8-5-1.9-5-4.5c0-2.5,2-4.3,4.8-4.3c2.2,0,3.7,0.7,5.2,1.9l-1,1.4
				c-1.4-1.2-2.7-1.7-4.2-1.7c-1.9,0-3.1,1.1-3.1,2.5C127.4,3.6,128.2,4.4,131.4,5.2"/>
			<path class="st0" d="M144.8,5.2c3.3,0.7,4.8,2,4.8,4.4c0,2.7-2.1,4.4-5,4.4c-2.3,0-4.2-0.8-6-2.5l1-1.3c1.5,1.5,3,2.2,5,2.2
				c2,0,3.3-1.1,3.3-2.7c0-1.5-0.7-2.3-3.8-3c-3.4-0.8-5-1.9-5-4.5c0-2.5,2-4.3,4.8-4.3c2.2,0,3.7,0.7,5.2,1.9l-1,1.4
				c-1.4-1.2-2.7-1.7-4.2-1.7c-1.9,0-3.1,1.1-3.1,2.5C140.8,3.6,141.6,4.4,144.8,5.2"/>
		</g>
	</g>
</g>
</svg>
