<svg id="logo_only" data-name="logo only" xmlns="http://www.w3.org/2000/svg" viewBox="0 0 200 50">
  <title>logo-integrapay</title>
  <path d="M55.18,32.39h2.73V11.24H55.18Zm10.41,0V21.11a6.51,6.51,0,0,1,4.47-2q3.45,0,3.45,3.46v9.79h2.74V22.65q0-5.79-5.82-5.79a8,8,0,0,0-5.24,2l-.48-2H62.86V32.39Zm14.86-4.18q0,4.18,3.9,4.18H87V30.18h-1.9c-1.25,0-1.87-.73-1.87-2.18V19.08H87V16.86h-4.2l-.59-2.51H80.45Zm9-3.76q0,8,8,7.94a18,18,0,0,0,5-.59V29.58a16.81,16.81,0,0,1-4.7.6q-5.57,0-5.56-4.77h10.9a15.82,15.82,0,0,0,.13-2q0-6.54-6.62-6.55-7.15,0-7.15,7.59m7.15-5.4q3.9,0,4,4.08H92.2q.26-4.08,4.41-4.08m20.46,10.18a8.41,8.41,0,0,1-3.75.8c-3.12,0-4.69-1.84-4.69-5.52s1.66-5.37,5-5.37a14.88,14.88,0,0,1,3.48.35ZM119.8,17.5a28.34,28.34,0,0,0-6.09-.64q-7.77,0-7.77,7.68,0,7.86,7.37,7.85a9.62,9.62,0,0,0,3.76-.73v.73q0,3.4-4.38,3.41a16.52,16.52,0,0,1-5.12-.74v2.22a16.19,16.19,0,0,0,5.09.74q7.14,0,7.14-5.63Zm6.94,14.89V21.11a5.75,5.75,0,0,1,4.52-2V16.86a6.82,6.82,0,0,0-4.92,2l-.48-2H124V32.39Zm11.83,0a9,9,0,0,0,5.06-1.53l.94,1.53h1.54V21.68q0-4.82-6.92-4.82a17.42,17.42,0,0,0-4.91.74v2.22a17.42,17.42,0,0,1,4.91-.74q4.19,0,4.18,2.68v1.46a29,29,0,0,0-4.05-.29q-6.3,0-6.3,4.77t5.55,4.69m4.8-6.95v3.23a7.68,7.68,0,0,1-4.8,1.51c-1.88,0-2.81-.84-2.81-2.52s1.18-2.51,3.56-2.51a27.59,27.59,0,0,1,4.05.29m10,7V13.5h5.59c2.54,0,3.82,1.18,3.82,3.52q0,4.15-6.51,5.11l.56,2.31q8.87-1.36,8.86-7.53,0-5.67-6.48-5.67h-8.58V32.39Zm20.22,0a9,9,0,0,0,5.06-1.53l1,1.53h1.54V21.68q0-4.82-6.93-4.82a17.47,17.47,0,0,0-4.91.74v2.22a17.47,17.47,0,0,1,4.91-.74q4.19,0,4.19,2.68v1.46a29,29,0,0,0-4-.29q-6.32,0-6.31,4.77t5.55,4.69m4.81-6.95v3.23a7.69,7.69,0,0,1-4.81,1.51c-1.87,0-2.81-.84-2.81-2.52s1.19-2.51,3.57-2.51a27.59,27.59,0,0,1,4,.29m11,7a7.21,7.21,0,0,1-3.79,3.72l1.05,1.94q3.44-1.06,5.15-5.29l6.45-16h-2.9L190.84,29l-4.4-12.13h-3Z" fill="#7b7676"/>
  <path d="M6.18,43.88a4.46,4.46,0,0,1-4.46-4.46V22.36a4.46,4.46,0,0,1,8.92,0V39.42a4.46,4.46,0,0,1-4.46,4.46" fill="#ec0084"/>
  <path d="M20,44.05a4.46,4.46,0,0,1-4.47-4.46V9.25a4.47,4.47,0,0,1,8.93,0V39.59A4.46,4.46,0,0,1,20,44.05" fill="#ed1a3c"/>
  <path d="M33.79,31.76a4.47,4.47,0,0,1-4.46-4.47V16.21a4.46,4.46,0,0,1,8.92,0V27.29a4.47,4.47,0,0,1-4.46,4.47" fill="#f15623"/>
</svg>
