<svg xmlns="http://www.w3.org/2000/svg" xmlns:xlink="http://www.w3.org/1999/xlink" viewBox="0 0 501.07 146.34">
  <defs>
    <linearGradient id="linear-gradient" x1="44.13" y1="88.68" x2="44.13" y2="22.51" gradientUnits="userSpaceOnUse">
      <stop offset="0" stop-color="#0088cf"/>
      <stop offset="1" stop-color="#0050a3"/>
    </linearGradient>
    <linearGradient id="linear-gradient-2" x1="55.98" y1="120.41" x2="55.98" y2="45.19" gradientUnits="userSpaceOnUse">
      <stop offset="0" stop-color="#bfbfbf"/>
      <stop offset="0.17" stop-color="#c8c8c8"/>
      <stop offset="0.57" stop-color="#d7d7d7"/>
      <stop offset="0.9" stop-color="#dcdcdc"/>
    </linearGradient>
    <linearGradient id="linear-gradient-3" x1="11.86" y1="97.49" x2="100.11" y2="97.49" gradientUnits="userSpaceOnUse">
      <stop offset="0.18" stop-color="#818181"/>
      <stop offset="0.29" stop-color="#979797"/>
      <stop offset="0.44" stop-color="#afafaf"/>
      <stop offset="0.58" stop-color="#bebebe"/>
      <stop offset="0.69" stop-color="#c3c3c3"/>
      <stop offset="0.7" stop-color="#c1c1c1"/>
      <stop offset="0.77" stop-color="#ababab"/>
      <stop offset="0.84" stop-color="#9e9e9e"/>
      <stop offset="0.9" stop-color="#999"/>
    </linearGradient>
    <linearGradient id="linear-gradient-4" x1="47.88" y1="88.68" x2="47.88" y2="22.51" gradientUnits="userSpaceOnUse">
      <stop offset="0" stop-color="#00adee"/>
      <stop offset="0.08" stop-color="#00a4e7"/>
      <stop offset="0.49" stop-color="#0077c2"/>
      <stop offset="0.81" stop-color="#005aab"/>
      <stop offset="1" stop-color="#0050a3"/>
    </linearGradient>
    <linearGradient id="linear-gradient-5" x1="44.13" y1="101.54" x2="44.13" y2="-17.13" gradientUnits="userSpaceOnUse">
      <stop offset="0" stop-color="#00adee"/>
      <stop offset="1" stop-color="#3c74d6"/>
    </linearGradient>
    <linearGradient id="linear-gradient-6" x1="139.7" y1="77.26" x2="139.7" y2="44.96" gradientUnits="userSpaceOnUse">
      <stop offset="0" stop-color="#00adee"/>
      <stop offset="0.34" stop-color="#008be0"/>
      <stop offset="0.68" stop-color="#0070d5"/>
      <stop offset="0.87" stop-color="#0066d1"/>
    </linearGradient>
    <linearGradient id="linear-gradient-7" x1="185.39" y1="77.26" x2="185.39" y2="44.96" xlink:href="#linear-gradient-6"/>
    <linearGradient id="linear-gradient-8" x1="214.44" y1="77.26" x2="214.44" y2="44.96" xlink:href="#linear-gradient-6"/>
    <linearGradient id="linear-gradient-9" x1="243.1" y1="77.26" x2="243.1" y2="44.96" xlink:href="#linear-gradient-6"/>
    <linearGradient id="linear-gradient-10" x1="284.6" y1="77.26" x2="284.6" y2="44.96" xlink:href="#linear-gradient-6"/>
    <linearGradient id="linear-gradient-11" x1="326.8" y1="77.25" x2="326.8" y2="44.96" xlink:href="#linear-gradient-6"/>
    <linearGradient id="linear-gradient-12" x1="382.92" y1="77.26" x2="382.92" y2="44.96" xlink:href="#linear-gradient-6"/>
    <linearGradient id="linear-gradient-13" x1="434.63" y1="77.26" x2="434.63" y2="44.96" xlink:href="#linear-gradient-6"/>
    <linearGradient id="linear-gradient-14" x1="468.45" y1="77.26" x2="468.45" y2="44.96" xlink:href="#linear-gradient-6"/>
    <linearGradient id="linear-gradient-15" x1="492.53" y1="77.25" x2="492.53" y2="44.96" xlink:href="#linear-gradient-6"/>
    <linearGradient id="linear-gradient-16" x1="309.76" y1="63.01" x2="309.76" y2="11.88" xlink:href="#linear-gradient-5"/>
  </defs>
  <title>logo-thinksmart-light</title>
  <g id="Layer_2" data-name="Layer 2">
    <g id="logo_lighter" data-name="logo lighter">
      <path d="M18.13,67.48c10.8-23.83,62-45.07,62-45.07L88.25,0S31.05,21.88,7.59,52.72C-11.18,77.4,6,107,46.6,94.9,46.6,94.9,5.48,95.42,18.13,67.48Z" fill="url(#linear-gradient)"/>
      <path d="M82,78.86C71.18,102.69,20,123.93,20,123.93l-8.17,22.41s57.2-21.88,80.66-52.72c18.77-24.68,1.58-54.3-39-42.18C53.51,51.44,94.63,50.92,82,78.86Z" fill="url(#linear-gradient-2)"/>
      <path d="M53.51,51.44s34.32-5.87,37.49,17c3,21.42-23.49,43.16-75.12,66.88l-4,11s57.2-21.88,80.66-52.72C111.29,68.94,94.1,39.32,53.51,51.44Z" fill="url(#linear-gradient-3)"/>
      <path d="M53.82,96.91l7.73-73.46L42,35l-7.73,73.45S46.72,101.9,53.82,96.91Z" fill="url(#linear-gradient-4)"/>
      <path d="M88.25,0S31.05,21.88,7.59,52.72C-9.34,75,3,101.24,35.35,97.29l-1.13,11.13s4.91-2.56,10.33-5.7l.66-7.45c.47-.13.92-.23,1.39-.37,0,0-.5.08-1.37.19l6-67.09-.21.05q14.3-8.35,33.2-17ZM35.52,95.55c-10.33-.3-24.43-3.38-26.41-17.64S18.45,49,41.8,33.74Z" fill="url(#linear-gradient-5)"/>
      <path d="M184,115h4.27a3.33,3.33,0,0,0,1.41,2.57,5.76,5.76,0,0,0,3.36.86,5.16,5.16,0,0,0,2.87-.67,2.24,2.24,0,0,0,1-2q0-2-5.49-3.18l-.13-.06-.49-.12A12.74,12.74,0,0,1,186.6,111a3.64,3.64,0,0,1-1.71-2,6.49,6.49,0,0,1,1.47-7.51,9.54,9.54,0,0,1,6-1.65,8.64,8.64,0,0,1,5.74,1.71,6.76,6.76,0,0,1,2.19,4.94H197.9a2.06,2.06,0,0,1-2-1.28,3.17,3.17,0,0,0-.86-1,5.08,5.08,0,0,0-3-.79,4.07,4.07,0,0,0-2.63.67,2.22,2.22,0,0,0-.91,1.9c0,1.09,1.18,1.91,3.54,2.44a11.27,11.27,0,0,0,1.53.37c.73.24,1.37.43,1.92.58l1.31.33,1.71.73a5.32,5.32,0,0,1,1.9,1.9,5.92,5.92,0,0,1,.67,2.81,6.32,6.32,0,0,1-2.2,5.13,10,10,0,0,1-6.23,1.71q-4.16,0-6.23-1.77A6.73,6.73,0,0,1,184,115Z" fill="#bcbcbc"/>
      <path d="M215.33,111a11.7,11.7,0,0,1,2.69-8.12,9.91,9.91,0,0,1,7.51-3,10,10,0,0,1,7.51,3,11.65,11.65,0,0,1,2.75,8.12,11.45,11.45,0,0,1-2.75,8.07,9.92,9.92,0,0,1-7.51,2.93,9.81,9.81,0,0,1-7.51-2.93C216.23,117.11,215.33,114.43,215.33,111Zm4.34,0a8.2,8.2,0,0,0,1.53,5.38,5.24,5.24,0,0,0,4.33,1.89,5.36,5.36,0,0,0,4.34-1.89,8.29,8.29,0,0,0,1.59-5.38,8.52,8.52,0,0,0-1.59-5.43,5.37,5.37,0,0,0-4.34-1.9,5.24,5.24,0,0,0-4.33,1.9A8.44,8.44,0,0,0,219.67,111Z" fill="#bcbcbc"/>
      <path d="M250.54,121.51V102.7a2.19,2.19,0,0,1,2.19-2.2h13.08v3.6h-11v4.52H263V110a2.19,2.19,0,0,1-2.2,2.2h-6v9.28Z" fill="#bcbcbc"/>
      <path d="M286.53,121.51V104.22H280.3V102.7a2.14,2.14,0,0,1,.64-1.56,2.12,2.12,0,0,1,1.56-.64H297v3.72h-6.17v17.29Z" fill="#bcbcbc"/>
      <path d="M317.65,121.51l-6-21h4.46l3.6,14.84,3.06-14.84h4.64l3,14.84,3.24-13.26a1.94,1.94,0,0,1,2.14-1.58h2.68l-6,21h-4.16L325,105.38l-3.3,16.13Z" fill="#bcbcbc"/>
      <path d="M362.5,100.5h3.42l7.64,21H369l-1.41-4.34h-8.18L358,121.51h-4.58l7-19.61A2.06,2.06,0,0,1,362.5,100.5Zm1,4.21-2.93,8.92h5.86Z" fill="#bcbcbc"/>
      <path d="M388.3,121.51V102.7a2.19,2.19,0,0,1,2.2-2.2h8a7.5,7.5,0,0,1,5.07,1.46,6.61,6.61,0,0,1,.85,7.7,4.12,4.12,0,0,1-2.32,1.77,3.44,3.44,0,0,1,2,1.47,7.3,7.3,0,0,1,.67,3.11l.12,2.51v.79a5,5,0,0,0,.06.8,1.86,1.86,0,0,0,.74,1.4h-4.77a3.56,3.56,0,0,1-.37-1.28,13.14,13.14,0,0,1-.12-1.35l-.06-2.26a5,5,0,0,0-.73-2.62,3.32,3.32,0,0,0-2.38-.67h-4.59v8.18Zm4.33-11.85h5.07a3.73,3.73,0,0,0,2.45-.67,3.13,3.13,0,0,0,0-4.16,3,3,0,0,0-2.2-.73h-5.32Z" fill="#bcbcbc"/>
      <path d="M420.27,121.51V102.7a2.1,2.1,0,0,1,.64-1.56,2.08,2.08,0,0,1,1.55-.64h13.08v3.6h-11v4.52h8.19V110a2.2,2.2,0,0,1-2.2,2.2h-6v5.37h11v3.91Z" fill="#bcbcbc"/>
      <path d="M134.27,81.61V37.71H118.44V33.83A5.57,5.57,0,0,1,124,28.24H161v9.47H145.29v43.9Z" fill="url(#linear-gradient-6)"/>
      <path d="M192.06,52a7.41,7.41,0,0,0-6.36-3.26A7.83,7.83,0,0,0,179,51.83q-2.33,3.11-2.33,8.53V81.61H166.15V28.24h5.28a5.29,5.29,0,0,1,5.27,5.28V45.77a12.32,12.32,0,0,1,7.91-5.89,15.73,15.73,0,0,1,9.78.62,17.55,17.55,0,0,1,7.29,5.89q2.94,4.05,2.95,11.18v24h-10.4V60.2a21.6,21.6,0,0,0-.39-4.26A10.56,10.56,0,0,0,192.06,52Z" fill="url(#linear-gradient-7)"/>
      <path d="M209,28.24h5.59a5.29,5.29,0,0,1,5.27,5.28v3.25H209Zm0,12.1h5.59a5.29,5.29,0,0,1,5.27,5.28v36H209Z" fill="url(#linear-gradient-8)"/>
      <path d="M261.1,81.61h-5.43a5.05,5.05,0,0,1-5.28-5.27V55.24q0-3.72-2.25-5.43a8.12,8.12,0,0,0-5-1.71,7.83,7.83,0,0,0-5,1.71Q236,51.52,236,55.24V81.61H225.1V57.41q0-10.54,5.51-14.12a24.07,24.07,0,0,1,12.18-3.88A23.36,23.36,0,0,1,255.36,43q5.73,3.57,5.74,14.43Z" fill="url(#linear-gradient-9)"/>
      <path d="M276.84,40.34V55.55L290,40.34h13L288.32,56.17l14.9,25.44h-13l-7.61-14q-2.32-4.19-4-3.57t-1.71,1.86V81.61H266V28.24h5.59a5.09,5.09,0,0,1,3.72,1.55,4.94,4.94,0,0,1,1.55,3.57Z" fill="url(#linear-gradient-10)"/>
      <path d="M305.08,65h10.86q.62,4.67,3.57,6.52,3.11,2.18,8.53,2.17,4.81,0,7.29-1.71a5.63,5.63,0,0,0,2.49-5q0-5-14-8.07l-.31-.15-1.24-.31q-7.91-1.71-10.55-3.57a9.31,9.31,0,0,1-4.34-5,14.51,14.51,0,0,1-1.55-7.13q0-7.61,5.27-11.95,5.28-4.18,15.36-4.19,9.47,0,14.58,4.34a17.22,17.22,0,0,1,5.59,12.57h-6.21a5.28,5.28,0,0,1-5.12-3.26,7.53,7.53,0,0,0-2.17-2.63,12.71,12.71,0,0,0-7.6-2c-3.1,0-5.33.57-6.67,1.7a5.65,5.65,0,0,0-2.33,4.81q0,4.2,9,6.21a26.74,26.74,0,0,0,3.88.93c1.86.62,3.49,1.12,4.89,1.47s2.5.65,3.33.86L342,53.53a13.51,13.51,0,0,1,4.81,4.81,15.23,15.23,0,0,1,1.7,7.14q0,8.37-5.58,13-5.6,4.35-15.83,4.34-10.56,0-15.82-4.49Q305.54,73.86,305.08,65Z" fill="url(#linear-gradient-11)"/>
      <path d="M388.28,81.61H377.57V55.24q0-3.72-2.25-5.43a8.12,8.12,0,0,0-5-1.71,7.78,7.78,0,0,0-5,1.71q-2.18,1.71-2.18,5.43V81.61H352.28V57.41q0-10.54,5.51-14.12A24.07,24.07,0,0,1,370,39.41a31.25,31.25,0,0,1,7,.78,14.68,14.68,0,0,1,6.21,3.1,13.8,13.8,0,0,1,5.5-2.87,31.12,31.12,0,0,1,6.6-1A23.36,23.36,0,0,1,407.83,43q5.73,3.57,5.74,14.43v24.2h-5.43a5.05,5.05,0,0,1-5.28-5.27V55.24q0-3.72-2.25-5.43a8.28,8.28,0,0,0-10.08,0q-2.25,1.71-2.25,5.43V81.61Z" fill="url(#linear-gradient-12)"/>
      <path d="M444.48,79.91a19.05,19.05,0,0,1-6.9,2.09,61.56,61.56,0,0,1-6.44.39,16.26,16.26,0,0,1-9.78-3q-4.19-3-4.19-10,0-6.52,3.81-9.31a22,22,0,0,1,9.69-3.73,8.68,8.68,0,0,0,1.86-.23c.73-.15,1.55-.28,2.49-.39q6.83-.93,6.82-4a3,3,0,0,0-2.4-3A16.18,16.18,0,0,0,435,48a11.12,11.12,0,0,0-3.88.62,4.2,4.2,0,0,0-2.48,2.32h-10.4A12,12,0,0,1,422.6,43q4.2-3.57,11.95-3.57,8.68,0,13,3a10,10,0,0,1,4.5,8.69V65.17c0,4.13-.75,7.37-2.25,9.7A13.83,13.83,0,0,1,444.48,79.91ZM442,60.82a29,29,0,0,1-6.05,2l-3.57.78a9.2,9.2,0,0,0-4,2,6.36,6.36,0,0,0-1.08,3.42,5,5,0,0,0,1.4,3.72,5.86,5.86,0,0,0,4,1.24A8.58,8.58,0,0,0,442,64.7Z" fill="url(#linear-gradient-13)"/>
      <path d="M456.81,81.61v-20a25.53,25.53,0,0,1,1.79-10.16,16.78,16.78,0,0,1,4.88-6.6,19.2,19.2,0,0,1,6.91-3.41,30.73,30.73,0,0,1,8.14-1.09h1.55v11h-3.56q-4.5,0-6.68,2.17t-2.17,6.83V81.61Z" fill="url(#linear-gradient-14)"/>
      <path d="M501.07,81.61a80.15,80.15,0,0,1-11.1-.15q-6-.46-6-7.6V28.24h5.59a4.9,4.9,0,0,1,3.56,1.55,5.08,5.08,0,0,1,1.56,3.73v7h6.36v2.17a5,5,0,0,1-1.55,3.8A5.21,5.21,0,0,1,495.79,48h-1.08v23c0,1.76,1,2.64,3.1,2.64h3.26Z" fill="url(#linear-gradient-15)"/>
      <path d="M255.36,43a23.36,23.36,0,0,0-12.57-3.57,24.07,24.07,0,0,0-12.18,3.88q-5.51,3.57-5.51,14.12v4.35l10.86.38v-6.9q0-3.72,2.17-5.43a7.83,7.83,0,0,1,5-1.71,8.12,8.12,0,0,1,5,1.71q2.25,1.71,2.25,5.43v7.32q5.33.15,10.71.25v-5.4Q261.1,46.55,255.36,43Zm152.47,0a23.36,23.36,0,0,0-12.57-3.57,31.12,31.12,0,0,0-6.6,1,13.8,13.8,0,0,0-5.5,2.87,14.68,14.68,0,0,0-6.21-3.1,31.25,31.25,0,0,0-7-.78,24.07,24.07,0,0,0-12.18,3.88q-5.51,3.57-5.51,14.12v5.53c3.64-.07,7.27-.14,10.86-.23V55.24q0-3.72,2.18-5.43a7.78,7.78,0,0,1,5-1.71,8.12,8.12,0,0,1,5,1.71q2.25,1.71,2.25,5.43v7.09c3.6-.11,7.16-.22,10.71-.35V55.24q0-3.72,2.25-5.43a8.28,8.28,0,0,1,10.08,0q2.25,1.71,2.25,5.43v6.18q5.4-.22,10.71-.48V57.41Q413.57,46.55,407.83,43Zm39.75-.62q-4.33-2.94-13-3-7.76,0-11.95,3.57a12,12,0,0,0-4.34,7.91h10.4a4.2,4.2,0,0,1,2.48-2.32A11.12,11.12,0,0,1,435,48a16.18,16.18,0,0,1,4.42.69,3,3,0,0,1,2.4,3q0,3.11-6.82,4c-.94.11-1.76.24-2.49.39a8.68,8.68,0,0,1-1.86.23A22,22,0,0,0,421,60.05a5.91,5.91,0,0,0-.66.56c10.92-.56,21.53-1.2,31.76-1.92V51.05A10,10,0,0,0,447.58,42.36ZM194.39,40.5a15.73,15.73,0,0,0-9.78-.62,12.32,12.32,0,0,0-7.91,5.89V33.52a5.29,5.29,0,0,0-5.27-5.28h-5.28V58.6c3.49.25,7,.48,10.61.72A13.23,13.23,0,0,1,179,51.83a7.83,7.83,0,0,1,6.67-3.11A7.41,7.41,0,0,1,192.06,52a10.56,10.56,0,0,1,1.78,4,21.6,21.6,0,0,1,.39,4.26v.15l10.4.53V57.57q0-7.14-2.95-11.18A17.55,17.55,0,0,0,194.39,40.5Zm300.32,0v-7a5.08,5.08,0,0,0-1.56-3.73,4.9,4.9,0,0,0-3.56-1.55H484V56.11q5.44-.51,10.71-1V48h1.08a5.21,5.21,0,0,0,3.73-1.48,5,5,0,0,0,1.55-3.8V40.5Zm-24.32.93a19.2,19.2,0,0,0-6.91,3.41,16.78,16.78,0,0,0-4.88,6.6,22.2,22.2,0,0,0-1.63,6.9c3.72-.27,7.37-.55,11-.84a7.54,7.54,0,0,1,1.88-4q2.18-2.18,6.68-2.17h3.56v-11h-1.55A30.73,30.73,0,0,0,470.39,41.43ZM120.07,29.87a5.43,5.43,0,0,0-1.63,4v3.88h15.83V56q5.41.51,11,1V37.71H161V28.24H124A5.39,5.39,0,0,0,120.07,29.87ZM290,40.34,276.84,55.55V33.36a4.94,4.94,0,0,0-1.55-3.57,5.09,5.09,0,0,0-3.72-1.55H266V62.91q13.08.26,26.49.35l-4.15-7.09,14.74-15.83Zm52,13.19-4.35-1.86c-.83-.21-1.94-.49-3.33-.86s-3-.85-4.89-1.47a26.74,26.74,0,0,1-3.88-.93q-9-2-9-6.21a5.65,5.65,0,0,1,2.33-4.81c1.34-1.13,3.57-1.7,6.67-1.7a12.71,12.71,0,0,1,7.6,2,7.53,7.53,0,0,1,2.17,2.63,5.28,5.28,0,0,0,5.12,3.26h6.21A17.22,17.22,0,0,0,341.07,31Q336,26.7,326.49,26.69q-10.08,0-15.36,4.19-5.28,4.35-5.27,12A14.51,14.51,0,0,0,307.41,50a9.31,9.31,0,0,0,4.34,5q2.64,1.86,10.55,3.57l1.24.31.31.15q8.08,1.8,11.48,4.22,6.54-.07,13-.17a14.84,14.84,0,0,0-1.49-4.67A13.51,13.51,0,0,0,342,53.53ZM214.6,40.34H209V61.08q5.38.26,10.86.47V45.62a5.29,5.29,0,0,0-5.27-5.28Zm0-12.1H209v8.53h10.86V33.52a5.29,5.29,0,0,0-5.27-5.28Z" fill="url(#linear-gradient-16)"/>
    </g>
  </g>
</svg>
