<svg id="Layer_1_copy_2" data-name="Layer 1 copy 2" xmlns="http://www.w3.org/2000/svg" xmlns:xlink="http://www.w3.org/1999/xlink" viewBox="0 0 541.25 333.54">
  <defs>
    <clipPath id="clip-path" transform="translate(-19.75 -20.46)">
      <rect x="35" y="124" width="160" height="40" rx="5" ry="5" fill="none"/>
    </clipPath>
    <clipPath id="clip-path-2" transform="translate(-19.75 -20.46)">
      <rect x="35" y="124" width="160" height="40" fill="none"/>
    </clipPath>
    <clipPath id="clip-path-3" transform="translate(-19.75 -20.46)">
      <rect x="396" y="124" width="160" height="40" rx="5" ry="5" fill="none"/>
    </clipPath>
    <clipPath id="clip-path-4" transform="translate(-19.75 -20.46)">
      <rect width="580" height="380" fill="none"/>
    </clipPath>
    <clipPath id="clip-path-5" transform="translate(-19.75 -20.46)">
      <rect x="35" y="186" width="160" height="40" rx="5" ry="5" fill="none"/>
    </clipPath>
    <clipPath id="clip-path-6" transform="translate(-19.75 -20.46)">
      <rect x="35" y="186" width="160" height="40" fill="none"/>
    </clipPath>
    <clipPath id="clip-path-7" transform="translate(-19.75 -20.46)">
      <rect x="396" y="186" width="160" height="40" rx="5" ry="5" fill="none"/>
    </clipPath>
    <clipPath id="clip-path-9" transform="translate(-19.75 -20.46)">
      <rect x="35" y="247" width="160" height="40" rx="5" ry="5" fill="none"/>
    </clipPath>
    <clipPath id="clip-path-10" transform="translate(-19.75 -20.46)">
      <rect x="35" y="247" width="160" height="40" fill="none"/>
    </clipPath>
    <clipPath id="clip-path-11" transform="translate(-19.75 -20.46)">
      <rect x="396" y="247" width="160" height="40" rx="5" ry="5" fill="none"/>
    </clipPath>
    <clipPath id="clip-path-13" transform="translate(-19.75 -20.46)">
      <rect x="35" y="309" width="160" height="40" rx="5" ry="5" fill="none"/>
    </clipPath>
    <clipPath id="clip-path-14" transform="translate(-19.75 -20.46)">
      <rect x="35" y="309" width="160" height="40" fill="none"/>
    </clipPath>
    <clipPath id="clip-path-15" transform="translate(-19.75 -20.46)">
      <rect x="396" y="309" width="160" height="40" rx="5" ry="5" fill="none"/>
    </clipPath>
    <linearGradient id="linear-gradient" x1="36.17" y1="66.78" x2="36.17" y2="42.16" gradientUnits="userSpaceOnUse">
      <stop offset="0" stop-color="#0088cf"/>
      <stop offset="1" stop-color="#003974"/>
    </linearGradient>
    <linearGradient id="linear-gradient-2" x1="40.59" y1="78.6" x2="40.59" y2="50.6" gradientUnits="userSpaceOnUse">
      <stop offset="0" stop-color="#999"/>
      <stop offset="1" stop-color="#333"/>
    </linearGradient>
    <linearGradient id="linear-gradient-3" x1="50.25" y1="82" x2="36.33" y2="68.66" xlink:href="#linear-gradient-2"/>
    <linearGradient id="linear-gradient-4" x1="37.57" y1="66.78" x2="37.57" y2="42.16" gradientUnits="userSpaceOnUse">
      <stop offset="0" stop-color="#00adee"/>
      <stop offset="1" stop-color="#003974"/>
    </linearGradient>
    <linearGradient id="linear-gradient-5" x1="36.17" y1="71.57" x2="36.17" y2="27.4" xlink:href="#linear-gradient-4"/>
    <linearGradient id="linear-gradient-6" x1="91.41" y1="68.54" x2="91.41" y2="83.79" xlink:href="#linear-gradient-2"/>
    <linearGradient id="linear-gradient-7" x1="103.71" y1="68.54" x2="103.71" y2="83.79" xlink:href="#linear-gradient-2"/>
    <linearGradient id="linear-gradient-8" x1="115.84" y1="68.54" x2="115.84" y2="83.79" xlink:href="#linear-gradient-2"/>
    <linearGradient id="linear-gradient-9" x1="127.2" y1="68.54" x2="127.2" y2="83.79" xlink:href="#linear-gradient-2"/>
    <linearGradient id="linear-gradient-10" x1="140.72" y1="68.54" x2="140.72" y2="83.79" xlink:href="#linear-gradient-2"/>
    <linearGradient id="linear-gradient-11" x1="155.05" y1="68.54" x2="155.05" y2="83.79" xlink:href="#linear-gradient-2"/>
    <linearGradient id="linear-gradient-12" x1="167.51" y1="68.54" x2="167.51" y2="83.79" xlink:href="#linear-gradient-2"/>
    <linearGradient id="linear-gradient-13" x1="179.02" y1="68.54" x2="179.02" y2="83.79" xlink:href="#linear-gradient-2"/>
    <linearGradient id="linear-gradient-14" x1="71.75" y1="62.53" x2="71.75" y2="50.51" xlink:href="#linear-gradient-4"/>
    <linearGradient id="linear-gradient-15" x1="88.75" y1="62.53" x2="88.75" y2="50.51" xlink:href="#linear-gradient-4"/>
    <linearGradient id="linear-gradient-16" x1="99.57" y1="62.53" x2="99.57" y2="50.51" xlink:href="#linear-gradient-4"/>
    <linearGradient id="linear-gradient-17" x1="110.23" y1="62.53" x2="110.23" y2="50.51" xlink:href="#linear-gradient-4"/>
    <linearGradient id="linear-gradient-18" x1="125.68" y1="62.53" x2="125.68" y2="50.51" xlink:href="#linear-gradient-4"/>
    <linearGradient id="linear-gradient-19" x1="141.39" y1="62.53" x2="141.39" y2="50.51" xlink:href="#linear-gradient-4"/>
    <linearGradient id="linear-gradient-20" x1="162.28" y1="62.53" x2="162.28" y2="50.51" xlink:href="#linear-gradient-4"/>
    <linearGradient id="linear-gradient-21" x1="181.52" y1="62.53" x2="181.52" y2="50.51" xlink:href="#linear-gradient-4"/>
    <linearGradient id="linear-gradient-22" x1="194.11" y1="62.53" x2="194.11" y2="50.51" xlink:href="#linear-gradient-4"/>
    <linearGradient id="linear-gradient-23" x1="203.07" y1="62.53" x2="203.07" y2="50.51" xlink:href="#linear-gradient-4"/>
    <linearGradient id="linear-gradient-24" x1="135.04" y1="57.23" x2="135.04" y2="38.2" xlink:href="#linear-gradient-4"/>
  </defs>
  <title>thinksmart-xero-diagram</title>
  <g clip-path="url(#clip-path)">
    <g clip-path="url(#clip-path-2)">
      <rect x="10.25" y="98.54" width="170" height="50" fill="#005696"/>
    </g>
  </g>
  <path d="M75,144.37c0-3.64,1.9-5.91,5-5.91a4.4,4.4,0,0,1,4.57,3.67H83.12A3.1,3.1,0,0,0,80,139.76c-2.16,0-3.52,1.78-3.52,4.61S77.82,149,80,149a3,3,0,0,0,3.13-2.11h1.43A4.3,4.3,0,0,1,80,150.27C76.93,150.27,75,148,75,144.37Z" transform="translate(-19.75 -20.46)" fill="#fff"/>
  <path d="M93.31,150H92v-1.32H91.9a2.62,2.62,0,0,1-2.61,1.47c-1.89,0-2.87-1.13-2.87-3.12v-5.45h1.34v5.12c0,1.52.56,2.22,1.91,2.22A2.11,2.11,0,0,0,92,146.56v-5h1.35Z" transform="translate(-19.75 -20.46)" fill="#fff"/>
  <path d="M98.54,141.43c1.77,0,3,.87,3.18,2.26h-1.33a1.72,1.72,0,0,0-1.85-1.12c-1,0-1.79.51-1.79,1.26,0,.58.47.94,1.47,1.18l1.29.31c1.59.38,2.35,1.07,2.35,2.28,0,1.51-1.46,2.55-3.37,2.55s-3.17-.9-3.31-2.3h1.38a1.87,1.87,0,0,0,2,1.17c1.13,0,1.94-.54,1.94-1.32,0-.57-.44-1-1.33-1.18l-1.45-.36c-1.58-.38-2.3-1.06-2.3-2.28C95.4,142.48,96.75,141.43,98.54,141.43Z" transform="translate(-19.75 -20.46)" fill="#fff"/>
  <path d="M105.64,139.4v2.18h1.87v1.12h-1.87v4.77c0,1,.37,1.41,1.25,1.41a4.36,4.36,0,0,0,.62,0V150a4.13,4.13,0,0,1-.78.08c-1.74,0-2.43-.64-2.43-2.25V142.7h-1.36v-1.12h1.36V139.4Z" transform="translate(-19.75 -20.46)" fill="#fff"/>
  <path d="M108.88,145.79c0-2.71,1.49-4.36,3.89-4.36s3.88,1.65,3.88,4.36-1.48,4.36-3.88,4.36S108.88,148.49,108.88,145.79Zm6.38,0c0-2-.9-3.15-2.49-3.15s-2.5,1.15-2.5,3.15.9,3.15,2.5,3.15S115.26,147.78,115.26,145.79Z" transform="translate(-19.75 -20.46)" fill="#fff"/>
  <path d="M118.52,141.58h1.28v1.33h.12a2.59,2.59,0,0,1,4.68,0h.13a2.82,2.82,0,0,1,2.58-1.48,2.45,2.45,0,0,1,2.68,2.75V150h-1.35v-5.51c0-1.24-.58-1.85-1.77-1.85a1.9,1.9,0,0,0-2,2V150h-1.35v-5.72a1.59,1.59,0,0,0-1.75-1.64,2,2,0,0,0-2,2.14V150h-1.34Z" transform="translate(-19.75 -20.46)" fill="#fff"/>
  <path d="M139.12,147.82a3.35,3.35,0,0,1-3.54,2.33c-2.34,0-3.8-1.69-3.8-4.35s1.48-4.37,3.8-4.37,3.65,1.62,3.65,4.23v.52h-6v.06c.07,1.67,1,2.72,2.43,2.72a2.19,2.19,0,0,0,2.17-1.14Zm-5.94-2.73h4.64a2.26,2.26,0,0,0-2.26-2.47A2.39,2.39,0,0,0,133.18,145.09Z" transform="translate(-19.75 -20.46)" fill="#fff"/>
  <path d="M141.1,141.58h1.28v1.25h.13a2.35,2.35,0,0,1,2.33-1.4c.22,0,.5,0,.68,0v1.34a5.6,5.6,0,0,0-.86-.08,2.07,2.07,0,0,0-2.22,2.05V150H141.1Z" transform="translate(-19.75 -20.46)" fill="#fff"/>
  <path d="M149.9,141.43c1.77,0,3,.87,3.17,2.26h-1.33a1.72,1.72,0,0,0-1.85-1.12c-1,0-1.78.51-1.78,1.26,0,.58.47.94,1.46,1.18l1.3.31c1.59.38,2.35,1.07,2.35,2.28,0,1.51-1.46,2.55-3.37,2.55s-3.17-.9-3.32-2.3h1.39a1.84,1.84,0,0,0,2,1.17c1.14,0,2-.54,2-1.32,0-.57-.44-1-1.34-1.18l-1.44-.36c-1.58-.38-2.3-1.06-2.3-2.28C146.76,142.48,148.11,141.43,149.9,141.43Z" transform="translate(-19.75 -20.46)" fill="#fff"/>
  <g clip-path="url(#clip-path-3)">
    <g clip-path="url(#clip-path-4)">
      <rect x="371.25" y="98.54" width="170" height="50" fill="#06b3e8"/>
    </g>
  </g>
  <path d="M443,144.37c0-3.64,1.91-5.91,5-5.91a4.38,4.38,0,0,1,4.56,3.67h-1.43a3.08,3.08,0,0,0-3.13-2.37c-2.16,0-3.52,1.78-3.52,4.61S445.8,149,448,149a3,3,0,0,0,3.12-2.11h1.43a4.28,4.28,0,0,1-4.55,3.41C444.91,150.27,443,148,443,144.37Z" transform="translate(-19.75 -20.46)" fill="#fff"/>
  <path d="M454.08,145.79c0-2.71,1.49-4.36,3.88-4.36s3.89,1.65,3.89,4.36-1.49,4.36-3.89,4.36S454.08,148.49,454.08,145.79Zm6.38,0c0-2-.9-3.15-2.5-3.15s-2.49,1.15-2.49,3.15.9,3.15,2.49,3.15S460.46,147.78,460.46,145.79Z" transform="translate(-19.75 -20.46)" fill="#fff"/>
  <path d="M463.75,141.58H465v1.33h.12a2.55,2.55,0,0,1,2.54-1.48c1.89,0,2.94,1.12,2.94,3.12V150h-1.34v-5.12c0-1.52-.64-2.24-2-2.24a2.14,2.14,0,0,0-2.21,2.38v5h-1.34Z" transform="translate(-19.75 -20.46)" fill="#fff"/>
  <path d="M474.78,139.4v2.18h1.88v1.12h-1.88v4.77c0,1,.38,1.41,1.25,1.41a4.5,4.5,0,0,0,.63,0V150a4.32,4.32,0,0,1-.79.08c-1.74,0-2.43-.64-2.43-2.25V142.7h-1.36v-1.12h1.36V139.4Z" transform="translate(-19.75 -20.46)" fill="#fff"/>
  <path d="M478,147.64c0-1.51,1.11-2.37,3.07-2.49l2.43-.15v-.77c0-1-.65-1.6-1.91-1.6-1,0-1.71.38-1.89,1h-1.36c.18-1.35,1.5-2.24,3.3-2.24,2.06,0,3.2,1,3.2,2.8V150h-1.28v-1.24h-.12a2.91,2.91,0,0,1-2.6,1.39A2.56,2.56,0,0,1,478,147.64Zm5.5-.78v-.77l-2.27.14c-1.28.09-1.84.54-1.84,1.38s.73,1.36,1.7,1.36A2.22,2.22,0,0,0,483.48,146.86Z" transform="translate(-19.75 -20.46)" fill="#fff"/>
  <path d="M492.71,144.16a2.09,2.09,0,0,0-2.17-1.52c-1.52,0-2.47,1.21-2.47,3.12s1,3.18,2.47,3.18a2,2,0,0,0,2.17-1.48h1.36a3.25,3.25,0,0,1-3.52,2.69c-2.36,0-3.87-1.71-3.87-4.39s1.5-4.33,3.86-4.33a3.31,3.31,0,0,1,3.53,2.73Z" transform="translate(-19.75 -20.46)" fill="#fff"/>
  <path d="M497.75,139.4v2.18h1.88v1.12h-1.88v4.77c0,1,.38,1.41,1.25,1.41a4.5,4.5,0,0,0,.63,0V150a4.32,4.32,0,0,1-.79.08c-1.74,0-2.43-.64-2.43-2.25V142.7h-1.36v-1.12h1.36V139.4Z" transform="translate(-19.75 -20.46)" fill="#fff"/>
  <path d="M504.4,141.43c1.76,0,3,.87,3.17,2.26h-1.33a1.72,1.72,0,0,0-1.85-1.12c-1,0-1.78.51-1.78,1.26,0,.58.47.94,1.46,1.18l1.29.31c1.59.38,2.36,1.07,2.36,2.28,0,1.51-1.47,2.55-3.38,2.55s-3.16-.9-3.31-2.3h1.38a1.87,1.87,0,0,0,2,1.17c1.13,0,1.94-.54,1.94-1.32,0-.57-.43-1-1.33-1.18l-1.45-.36c-1.58-.38-2.3-1.06-2.3-2.28C501.25,142.48,502.61,141.43,504.4,141.43Z" transform="translate(-19.75 -20.46)" fill="#fff"/>
  <g clip-path="url(#clip-path-5)">
    <g clip-path="url(#clip-path-6)">
      <rect x="10.25" y="160.54" width="170" height="50" fill="#005696"/>
    </g>
  </g>
  <path d="M87.13,208.77H82.65L81.52,212H80l4.16-11.27h1.39L89.74,212H88.27Zm-4.07-1.19h3.66l-1.77-5h-.12Z" transform="translate(-19.75 -20.46)" fill="#fff"/>
  <path d="M97.16,206.16A2.09,2.09,0,0,0,95,204.64c-1.51,0-2.46,1.21-2.46,3.12s1,3.18,2.46,3.18a2,2,0,0,0,2.18-1.48h1.36A3.26,3.26,0,0,1,95,212.15c-2.36,0-3.86-1.71-3.86-4.39s1.5-4.33,3.85-4.33a3.32,3.32,0,0,1,3.54,2.73Z" transform="translate(-19.75 -20.46)" fill="#fff"/>
  <path d="M105.89,206.16a2.1,2.1,0,0,0-2.18-1.52c-1.51,0-2.47,1.21-2.47,3.12s1,3.18,2.47,3.18a2,2,0,0,0,2.18-1.48h1.35a3.25,3.25,0,0,1-3.52,2.69c-2.36,0-3.87-1.71-3.87-4.39s1.5-4.33,3.86-4.33a3.3,3.3,0,0,1,3.53,2.73Z" transform="translate(-19.75 -20.46)" fill="#fff"/>
  <path d="M108.58,207.79c0-2.71,1.49-4.36,3.89-4.36s3.88,1.65,3.88,4.36-1.49,4.36-3.88,4.36S108.58,210.49,108.58,207.79Zm6.38,0c0-2-.9-3.15-2.49-3.15s-2.5,1.15-2.5,3.15.9,3.15,2.5,3.15S115,209.78,115,207.79Z" transform="translate(-19.75 -20.46)" fill="#fff"/>
  <path d="M125.05,212h-1.28v-1.32h-.13a2.62,2.62,0,0,1-2.61,1.47c-1.89,0-2.87-1.13-2.87-3.12v-5.45h1.34v5.12c0,1.52.56,2.22,1.91,2.22a2.11,2.11,0,0,0,2.29-2.36v-5h1.35Z" transform="translate(-19.75 -20.46)" fill="#fff"/>
  <path d="M127.35,203.58h1.29v1.33h.12a2.53,2.53,0,0,1,2.53-1.48c1.89,0,3,1.12,3,3.12V212h-1.35v-5.12c0-1.52-.64-2.24-2-2.24A2.13,2.13,0,0,0,128.7,207v5h-1.35Z" transform="translate(-19.75 -20.46)" fill="#fff"/>
  <path d="M138.37,201.4v2.18h1.88v1.12h-1.88v4.77c0,1,.38,1.41,1.25,1.41a4.5,4.5,0,0,0,.63,0V212a4.32,4.32,0,0,1-.79.08c-1.74,0-2.43-.64-2.43-2.25V204.7h-1.36v-1.12H137V201.4Z" transform="translate(-19.75 -20.46)" fill="#fff"/>
  <path d="M145,203.43c1.77,0,3,.87,3.17,2.26h-1.33a1.72,1.72,0,0,0-1.85-1.12c-1,0-1.78.51-1.78,1.26,0,.58.47.94,1.46,1.18l1.3.31c1.58.38,2.35,1.07,2.35,2.28,0,1.51-1.46,2.55-3.38,2.55s-3.16-.9-3.31-2.3H143a1.84,1.84,0,0,0,2,1.17c1.13,0,1.95-.54,1.95-1.32,0-.57-.44-1-1.34-1.18l-1.44-.36c-1.58-.38-2.3-1.06-2.3-2.28C141.86,204.48,143.21,203.43,145,203.43Z" transform="translate(-19.75 -20.46)" fill="#fff"/>
  <g clip-path="url(#clip-path-7)">
    <g clip-path="url(#clip-path-4)">
      <rect x="371.25" y="160.54" width="170" height="50" fill="#06b3e8"/>
    </g>
  </g>
  <path d="M408.52,206.37c0-3.64,1.9-5.91,5-5.91a4.4,4.4,0,0,1,4.57,3.67h-1.43a3.1,3.1,0,0,0-3.14-2.37c-2.16,0-3.52,1.78-3.52,4.61s1.36,4.6,3.53,4.6a3,3,0,0,0,3.13-2.11h1.43a4.3,4.3,0,0,1-4.56,3.41C410.43,212.27,408.52,210,408.52,206.37Z" transform="translate(-19.75 -20.46)" fill="#fff"/>
  <path d="M420.1,200.23h1.35v4.68h.12a2.64,2.64,0,0,1,2.6-1.48c1.78,0,2.9,1.14,2.9,3.12V212h-1.34v-5.12c0-1.5-.67-2.24-2-2.24a2.17,2.17,0,0,0-2.33,2.38v5H420.1Z" transform="translate(-19.75 -20.46)" fill="#fff"/>
  <path d="M428.82,209.64c0-1.51,1.11-2.37,3.07-2.49l2.43-.15v-.77c0-1-.65-1.6-1.91-1.6-1,0-1.71.38-1.9,1h-1.36c.18-1.35,1.51-2.24,3.31-2.24,2.05,0,3.2,1,3.2,2.8V212h-1.28v-1.24h-.12a2.91,2.91,0,0,1-2.6,1.39A2.56,2.56,0,0,1,428.82,209.64Zm5.5-.78v-.77l-2.27.14c-1.28.09-1.84.54-1.84,1.38s.73,1.36,1.7,1.36A2.22,2.22,0,0,0,434.32,208.86Z" transform="translate(-19.75 -20.46)" fill="#fff"/>
  <path d="M437.94,203.58h1.28v1.25h.12a2.36,2.36,0,0,1,2.34-1.4,6.53,6.53,0,0,1,.67,0v1.34a5.47,5.47,0,0,0-.86-.08,2.06,2.06,0,0,0-2.21,2.05V212h-1.34Z" transform="translate(-19.75 -20.46)" fill="#fff"/>
  <path d="M445.73,201.4v2.18h1.88v1.12h-1.88v4.77c0,1,.38,1.41,1.25,1.41a4.5,4.5,0,0,0,.63,0V212a4.32,4.32,0,0,1-.79.08c-1.74,0-2.43-.64-2.43-2.25V204.7H443v-1.12h1.36V201.4Z" transform="translate(-19.75 -20.46)" fill="#fff"/>
  <path d="M453.31,207.79c0-2.71,1.49-4.36,3.89-4.36s3.88,1.65,3.88,4.36-1.48,4.36-3.88,4.36S453.31,210.49,453.31,207.79Zm6.38,0c0-2-.9-3.15-2.49-3.15s-2.49,1.15-2.49,3.15.89,3.15,2.49,3.15S459.69,209.78,459.69,207.79Z" transform="translate(-19.75 -20.46)" fill="#fff"/>
  <path d="M463.54,204.7h-1.39v-1.12h1.39v-.94a2.18,2.18,0,0,1,2.45-2.48,5.25,5.25,0,0,1,.91.07v1.1a4,4,0,0,0-.64,0c-1,0-1.37.47-1.37,1.39v.9h1.93v1.12h-1.93V212h-1.35Z" transform="translate(-19.75 -20.46)" fill="#fff"/>
  <path d="M479.24,208.77h-4.49L473.62,212h-1.48l4.16-11.27h1.39L481.85,212h-1.48Zm-4.07-1.19h3.65l-1.76-5h-.13Z" transform="translate(-19.75 -20.46)" fill="#fff"/>
  <path d="M489.05,206.16a2.09,2.09,0,0,0-2.17-1.52c-1.51,0-2.47,1.21-2.47,3.12s1,3.18,2.47,3.18a2,2,0,0,0,2.17-1.48h1.36a3.25,3.25,0,0,1-3.52,2.69c-2.36,0-3.87-1.71-3.87-4.39s1.5-4.33,3.86-4.33a3.3,3.3,0,0,1,3.53,2.73Z" transform="translate(-19.75 -20.46)" fill="#fff"/>
  <path d="M497.8,206.16a2.09,2.09,0,0,0-2.17-1.52c-1.52,0-2.47,1.21-2.47,3.12s1,3.18,2.47,3.18a2,2,0,0,0,2.17-1.48h1.36a3.25,3.25,0,0,1-3.53,2.69c-2.36,0-3.86-1.71-3.86-4.39s1.5-4.33,3.86-4.33a3.31,3.31,0,0,1,3.53,2.73Z" transform="translate(-19.75 -20.46)" fill="#fff"/>
  <path d="M500.51,207.79c0-2.71,1.49-4.36,3.88-4.36s3.89,1.65,3.89,4.36-1.49,4.36-3.89,4.36S500.51,210.49,500.51,207.79Zm6.38,0c0-2-.9-3.15-2.5-3.15s-2.49,1.15-2.49,3.15.9,3.15,2.49,3.15S506.89,209.78,506.89,207.79Z" transform="translate(-19.75 -20.46)" fill="#fff"/>
  <path d="M517,212h-1.28v-1.32h-.13a2.62,2.62,0,0,1-2.6,1.47c-1.9,0-2.88-1.13-2.88-3.12v-5.45h1.34v5.12c0,1.52.57,2.22,1.91,2.22a2.12,2.12,0,0,0,2.3-2.36v-5H517Z" transform="translate(-19.75 -20.46)" fill="#fff"/>
  <path d="M519.31,203.58h1.29v1.33h.12a2.53,2.53,0,0,1,2.53-1.48c1.89,0,3,1.12,3,3.12V212h-1.35v-5.12c0-1.52-.64-2.24-2-2.24a2.14,2.14,0,0,0-2.21,2.38v5h-1.35Z" transform="translate(-19.75 -20.46)" fill="#fff"/>
  <path d="M530.35,201.4v2.18h1.87v1.12h-1.87v4.77c0,1,.37,1.41,1.25,1.41a4.36,4.36,0,0,0,.62,0V212a4.15,4.15,0,0,1-.79.08c-1.73,0-2.43-.64-2.43-2.25V204.7h-1.35v-1.12H529V201.4Z" transform="translate(-19.75 -20.46)" fill="#fff"/>
  <path d="M537,203.43c1.77,0,3,.87,3.17,2.26h-1.32a1.73,1.73,0,0,0-1.86-1.12c-1,0-1.78.51-1.78,1.26,0,.58.47.94,1.46,1.18l1.3.31c1.59.38,2.35,1.07,2.35,2.28,0,1.51-1.46,2.55-3.37,2.55s-3.17-.9-3.31-2.3H535a1.85,1.85,0,0,0,2,1.17c1.14,0,1.95-.54,1.95-1.32,0-.57-.44-1-1.34-1.18l-1.44-.36c-1.58-.38-2.3-1.06-2.3-2.28C533.85,204.48,535.2,203.43,537,203.43Z" transform="translate(-19.75 -20.46)" fill="#fff"/>
  <g clip-path="url(#clip-path-9)">
    <g clip-path="url(#clip-path-10)">
      <rect x="10.25" y="221.54" width="170" height="50" fill="#005696"/>
    </g>
  </g>
  <rect x="65.61" y="241.27" width="1.41" height="11.27" fill="#fff"/>
  <path d="M89.31,264.58h1.28v1.33h.12a2.55,2.55,0,0,1,2.54-1.48c1.89,0,2.94,1.12,2.94,3.12V273H94.85v-5.12c0-1.52-.64-2.24-2-2.24A2.14,2.14,0,0,0,90.65,268v5H89.31Z" transform="translate(-19.75 -20.46)" fill="#fff"/>
  <polygon points="82.49 252.54 81.12 252.54 78 244.12 79.44 244.12 81.74 251.06 81.87 251.06 84.17 244.12 85.61 244.12 82.49 252.54" fill="#fff"/>
  <path d="M106.57,268.79c0-2.71,1.49-4.36,3.89-4.36s3.88,1.65,3.88,4.36-1.48,4.36-3.88,4.36S106.57,271.49,106.57,268.79Zm6.38,0c0-2-.9-3.15-2.49-3.15s-2.49,1.15-2.49,3.15.89,3.15,2.49,3.15S113,270.78,113,268.79Z" transform="translate(-19.75 -20.46)" fill="#fff"/>
  <path d="M116.06,261.93a.94.94,0,1,1,.93.94A.94.94,0,0,1,116.06,261.93Zm.26,2.65h1.34V273h-1.34Z" transform="translate(-19.75 -20.46)" fill="#fff"/>
  <path d="M125.68,267.16a2.09,2.09,0,0,0-2.18-1.52c-1.51,0-2.46,1.21-2.46,3.12s1,3.18,2.46,3.18a2,2,0,0,0,2.18-1.48H127a3.26,3.26,0,0,1-3.53,2.69c-2.36,0-3.86-1.71-3.86-4.39s1.5-4.33,3.85-4.33a3.32,3.32,0,0,1,3.54,2.73Z" transform="translate(-19.75 -20.46)" fill="#fff"/>
  <path d="M135.78,270.82a3.35,3.35,0,0,1-3.54,2.33c-2.34,0-3.8-1.69-3.8-4.35s1.48-4.37,3.8-4.37,3.65,1.62,3.65,4.23v.52h-6v.06c.07,1.67,1,2.72,2.43,2.72a2.19,2.19,0,0,0,2.17-1.14Zm-5.94-2.73h4.64a2.26,2.26,0,0,0-2.26-2.47A2.39,2.39,0,0,0,129.84,268.09Z" transform="translate(-19.75 -20.46)" fill="#fff"/>
  <path d="M140.79,264.43c1.76,0,3,.87,3.17,2.26h-1.33a1.72,1.72,0,0,0-1.85-1.12c-1,0-1.78.51-1.78,1.26,0,.58.47.94,1.46,1.18l1.29.31c1.59.38,2.36,1.07,2.36,2.28,0,1.51-1.46,2.55-3.38,2.55s-3.16-.9-3.31-2.3h1.38a1.87,1.87,0,0,0,2,1.17c1.13,0,1.94-.54,1.94-1.32,0-.57-.43-1-1.33-1.18l-1.45-.36c-1.58-.38-2.29-1.06-2.29-2.28C137.65,265.48,139,264.43,140.79,264.43Z" transform="translate(-19.75 -20.46)" fill="#fff"/>
  <g clip-path="url(#clip-path-11)">
    <g clip-path="url(#clip-path-4)">
      <rect x="371.25" y="221.54" width="170" height="50" fill="#06b3e8"/>
    </g>
  </g>
  <rect x="426.62" y="241.27" width="1.41" height="11.27" fill="#fff"/>
  <path d="M450.32,264.58h1.28v1.33h.12a2.53,2.53,0,0,1,2.53-1.48c1.89,0,2.95,1.12,2.95,3.12V273h-1.34v-5.12c0-1.52-.65-2.24-2-2.24a2.14,2.14,0,0,0-2.21,2.38v5h-1.34Z" transform="translate(-19.75 -20.46)" fill="#fff"/>
  <polygon points="443.5 252.54 442.13 252.54 439.01 244.12 440.45 244.12 442.75 251.06 442.88 251.06 445.18 244.12 446.62 244.12 443.5 252.54" fill="#fff"/>
  <path d="M467.58,268.79c0-2.71,1.49-4.36,3.88-4.36s3.89,1.65,3.89,4.36-1.49,4.36-3.89,4.36S467.58,271.49,467.58,268.79Zm6.38,0c0-2-.9-3.15-2.5-3.15s-2.49,1.15-2.49,3.15.9,3.15,2.49,3.15S474,270.78,474,268.79Z" transform="translate(-19.75 -20.46)" fill="#fff"/>
  <path d="M477.06,261.93a.94.94,0,1,1,.94.94A.95.95,0,0,1,477.06,261.93Zm.27,2.65h1.34V273h-1.34Z" transform="translate(-19.75 -20.46)" fill="#fff"/>
  <path d="M486.68,267.16a2.08,2.08,0,0,0-2.17-1.52c-1.51,0-2.47,1.21-2.47,3.12s1,3.18,2.47,3.18a2,2,0,0,0,2.17-1.48H488a3.25,3.25,0,0,1-3.52,2.69c-2.36,0-3.87-1.71-3.87-4.39s1.5-4.33,3.86-4.33a3.3,3.3,0,0,1,3.53,2.73Z" transform="translate(-19.75 -20.46)" fill="#fff"/>
  <path d="M496.79,270.82a3.37,3.37,0,0,1-3.55,2.33c-2.33,0-3.79-1.69-3.79-4.35s1.48-4.37,3.79-4.37,3.66,1.62,3.66,4.23v.52h-6.06v.06c.08,1.67,1,2.72,2.43,2.72a2.2,2.2,0,0,0,2.18-1.14Zm-6-2.73h4.65a2.27,2.27,0,0,0-2.26-2.47A2.4,2.4,0,0,0,490.84,268.09Z" transform="translate(-19.75 -20.46)" fill="#fff"/>
  <path d="M501.79,264.43c1.77,0,3,.87,3.18,2.26h-1.33a1.72,1.72,0,0,0-1.85-1.12c-1,0-1.79.51-1.79,1.26,0,.58.47.94,1.47,1.18l1.29.31c1.59.38,2.35,1.07,2.35,2.28,0,1.51-1.46,2.55-3.37,2.55s-3.16-.9-3.31-2.3h1.38a1.87,1.87,0,0,0,2,1.17c1.13,0,1.94-.54,1.94-1.32,0-.57-.44-1-1.33-1.18l-1.45-.36c-1.58-.38-2.3-1.06-2.3-2.28C498.65,265.48,500,264.43,501.79,264.43Z" transform="translate(-19.75 -20.46)" fill="#fff"/>
  <g clip-path="url(#clip-path-13)">
    <g clip-path="url(#clip-path-14)">
      <rect x="10.25" y="283.54" width="170" height="50" fill="#005696"/>
    </g>
  </g>
  <path d="M83.57,323.73a3.63,3.63,0,0,1,0,7.25H80.72v4H79.31V323.73Zm-2.85,6H83.2a2.38,2.38,0,1,0,0-4.75H80.72Z" transform="translate(-19.75 -20.46)" fill="#fff"/>
  <path d="M88.6,332.64c0-1.51,1.11-2.37,3.07-2.49L94.1,330v-.77c0-1-.65-1.6-1.91-1.6-1,0-1.71.38-1.9,1H88.93c.18-1.35,1.51-2.24,3.31-2.24,2.05,0,3.2,1.05,3.2,2.8V335H94.16v-1.24H94a2.89,2.89,0,0,1-2.59,1.39A2.56,2.56,0,0,1,88.6,332.64Zm5.5-.78v-.77l-2.27.14c-1.28.09-1.84.54-1.84,1.38s.72,1.36,1.7,1.36A2.22,2.22,0,0,0,94.1,331.86Z" transform="translate(-19.75 -20.46)" fill="#fff"/>
  <path d="M97.83,338v-1.15a3.48,3.48,0,0,0,.57,0c.77,0,1.19-.37,1.54-1.38l.16-.5L97,326.58h1.46l2.31,6.93h.12l2.31-6.93h1.43l-3.29,8.94c-.72,2-1.39,2.53-2.88,2.53A4.3,4.3,0,0,1,97.83,338Z" transform="translate(-19.75 -20.46)" fill="#fff"/>
  <path d="M106.2,326.58h1.28v1.33h.12a2.39,2.39,0,0,1,2.35-1.48,2.43,2.43,0,0,1,2.33,1.48h.13a2.82,2.82,0,0,1,2.58-1.48,2.46,2.46,0,0,1,2.68,2.75V335h-1.35v-5.51c0-1.24-.58-1.85-1.77-1.85a1.91,1.91,0,0,0-2,1.95V335h-1.34v-5.72a1.59,1.59,0,0,0-1.76-1.64,2,2,0,0,0-1.95,2.14V335H106.2Z" transform="translate(-19.75 -20.46)" fill="#fff"/>
  <path d="M126.83,332.82a3.35,3.35,0,0,1-3.54,2.33c-2.34,0-3.8-1.69-3.8-4.35s1.48-4.37,3.8-4.37,3.65,1.62,3.65,4.23v.52h-6v.06c.07,1.67,1,2.72,2.43,2.72a2.19,2.19,0,0,0,2.17-1.14Zm-5.94-2.73h4.64a2.26,2.26,0,0,0-2.26-2.47A2.39,2.39,0,0,0,120.89,330.09Z" transform="translate(-19.75 -20.46)" fill="#fff"/>
  <path d="M128.84,326.58h1.28v1.33h.13a2.53,2.53,0,0,1,2.53-1.48c1.89,0,2.95,1.12,2.95,3.12V335h-1.35v-5.12c0-1.52-.64-2.24-2-2.24a2.13,2.13,0,0,0-2.21,2.38v5h-1.35Z" transform="translate(-19.75 -20.46)" fill="#fff"/>
  <path d="M139.88,324.4v2.18h1.87v1.12h-1.87v4.77c0,1,.37,1.41,1.25,1.41a4.36,4.36,0,0,0,.62,0V335a4.15,4.15,0,0,1-.79.08c-1.73,0-2.43-.64-2.43-2.25V327.7h-1.36v-1.12h1.36V324.4Z" transform="translate(-19.75 -20.46)" fill="#fff"/>
  <path d="M146.52,326.43c1.77,0,3,.87,3.17,2.26h-1.33a1.72,1.72,0,0,0-1.85-1.12c-1,0-1.78.51-1.78,1.26,0,.58.47.94,1.46,1.18l1.3.31c1.59.38,2.35,1.07,2.35,2.28,0,1.51-1.46,2.55-3.37,2.55s-3.17-.9-3.32-2.3h1.39a1.84,1.84,0,0,0,2,1.17c1.14,0,2-.54,2-1.32,0-.57-.44-1-1.34-1.18l-1.44-.36c-1.58-.38-2.3-1.06-2.3-2.28C143.38,327.48,144.73,326.43,146.52,326.43Z" transform="translate(-19.75 -20.46)" fill="#fff"/>
  <g clip-path="url(#clip-path-15)">
    <g clip-path="url(#clip-path-4)">
      <rect x="371.25" y="283.54" width="170" height="50" fill="#06b3e8"/>
    </g>
  </g>
  <path d="M444.56,323.73a3.63,3.63,0,0,1,0,7.25h-2.84v4H440.3V323.73Zm-2.85,6h2.49a2.38,2.38,0,1,0,0-4.75h-2.49Z" transform="translate(-19.75 -20.46)" fill="#fff"/>
  <path d="M449.59,332.64c0-1.51,1.11-2.37,3.07-2.49l2.43-.15v-.77c0-1-.65-1.6-1.91-1.6-1,0-1.71.38-1.9,1h-1.36c.18-1.35,1.51-2.24,3.31-2.24,2,0,3.2,1.05,3.2,2.8V335h-1.28v-1.24H455a2.91,2.91,0,0,1-2.6,1.39A2.56,2.56,0,0,1,449.59,332.64Zm5.5-.78v-.77l-2.27.14c-1.28.09-1.84.54-1.84,1.38s.73,1.36,1.7,1.36A2.22,2.22,0,0,0,455.09,331.86Z" transform="translate(-19.75 -20.46)" fill="#fff"/>
  <path d="M458.83,338v-1.15a3.28,3.28,0,0,0,.56,0c.77,0,1.19-.37,1.55-1.38l.15-.5L458,326.58h1.46l2.31,6.93h.13l2.3-6.93h1.43l-3.29,8.94c-.72,2-1.39,2.53-2.88,2.53A4,4,0,0,1,458.83,338Z" transform="translate(-19.75 -20.46)" fill="#fff"/>
  <path d="M467.19,326.58h1.28v1.33h.12a2.59,2.59,0,0,1,4.68,0h.13a2.82,2.82,0,0,1,2.58-1.48,2.45,2.45,0,0,1,2.68,2.75V335h-1.35v-5.51c0-1.24-.58-1.85-1.77-1.85a1.9,1.9,0,0,0-2,1.95V335h-1.35v-5.72a1.59,1.59,0,0,0-1.75-1.64,2,2,0,0,0-2,2.14V335h-1.34Z" transform="translate(-19.75 -20.46)" fill="#fff"/>
  <path d="M487.82,332.82a3.35,3.35,0,0,1-3.54,2.33c-2.34,0-3.8-1.69-3.8-4.35s1.48-4.37,3.8-4.37,3.65,1.62,3.65,4.23v.52h-6.05v.06c.07,1.67,1,2.72,2.43,2.72a2.19,2.19,0,0,0,2.17-1.14Zm-5.94-2.73h4.64a2.26,2.26,0,0,0-2.26-2.47A2.39,2.39,0,0,0,481.88,330.09Z" transform="translate(-19.75 -20.46)" fill="#fff"/>
  <path d="M489.83,326.58h1.29v1.33h.12a2.53,2.53,0,0,1,2.53-1.48c1.89,0,3,1.12,3,3.12V335h-1.35v-5.12c0-1.52-.64-2.24-2-2.24a2.14,2.14,0,0,0-2.21,2.38v5h-1.35Z" transform="translate(-19.75 -20.46)" fill="#fff"/>
  <path d="M500.87,324.4v2.18h1.87v1.12h-1.87v4.77c0,1,.37,1.41,1.25,1.41a4.36,4.36,0,0,0,.62,0V335a4.13,4.13,0,0,1-.78.08c-1.74,0-2.43-.64-2.43-2.25V327.7h-1.36v-1.12h1.36V324.4Z" transform="translate(-19.75 -20.46)" fill="#fff"/>
  <path d="M507.51,326.43c1.77,0,3,.87,3.17,2.26h-1.32a1.73,1.73,0,0,0-1.86-1.12c-1,0-1.78.51-1.78,1.26,0,.58.47.94,1.46,1.18l1.3.31c1.59.38,2.35,1.07,2.35,2.28,0,1.51-1.46,2.55-3.37,2.55s-3.17-.9-3.31-2.3h1.38a1.85,1.85,0,0,0,2,1.17c1.14,0,1.95-.54,1.95-1.32,0-.57-.44-1-1.34-1.18l-1.44-.36c-1.58-.38-2.3-1.06-2.3-2.28C504.37,327.48,505.72,326.43,507.51,326.43Z" transform="translate(-19.75 -20.46)" fill="#fff"/>
  <line x1="351.25" y1="183.54" x2="351.25" y2="185.54" fill="#9a9a9a"/>
  <path d="M219.86,204l11.94-3.32V204H371v2H231.8v3.32L219.86,206l-.86-.24-2.74-.76,2.74-.76Z" transform="translate(-19.75 -20.46)" fill="#9a9a9a"/>
  <path d="M219,270v-2m12.8-124v3.32L219.86,144l-.86-.24-2.74-.76,2.74-.76.86-.24,11.94-3.32V142" transform="translate(-19.75 -20.46)" fill="#9a9a9a"/>
  <path d="M371,268.24l2.74.76-2.74.76-.86.24-11.94,3.32V270H219v-2H358.2v-3.32L370.14,268ZM229,144v-2" transform="translate(-19.75 -20.46)" fill="#9a9a9a"/>
  <path d="M371,142.24l2.74.76-2.74.76-.86.24-11.94,3.32V144H229v-2H358.2v-3.32L370.14,142Z" transform="translate(-19.75 -20.46)" fill="#9a9a9a"/>
  <path d="M231.8,333v3.32L219.86,333l-.86-.24-2.74-.76,2.74-.76.86-.24,11.94-3.32V331" transform="translate(-19.75 -20.46)" fill="#9a9a9a"/>
  <path d="M371,331.24l2.74.76-2.74.76-.86.24-11.94,3.32V333H229v-2H358.2v-3.32L370.14,331Z" transform="translate(-19.75 -20.46)" fill="#9a9a9a"/>
  <g id="LOGOS_SPOT" data-name="LOGOS SPOT">
    <g>
      <path d="M476,20.46a40,40,0,1,0,40,40,40,40,0,0,0-40-40" transform="translate(-19.75 -20.46)" fill="#06b3e8"/>
      <path d="M479.88,60.53a2.26,2.26,0,0,0,.43-1.89,8.93,8.93,0,0,0-14-5.67,9.17,9.17,0,0,0-3.8,7.46,9.06,9.06,0,0,0,7.92,9,9.24,9.24,0,0,0,1.05.06,8,8,0,0,0,2.18-.29,8.84,8.84,0,0,0,2.7-1.15,9.69,9.69,0,0,0,2.29-2.19l.05,0a1.55,1.55,0,0,0,.33-1.13,1.27,1.27,0,0,0-.48-.87,1.35,1.35,0,0,0-.84-.3,1.31,1.31,0,0,0-1.07.6l0,0-.4.51a6.9,6.9,0,0,1-1.73,1.41,6.22,6.22,0,0,1-3,.75,6.44,6.44,0,0,1-6-4.25,6,6,0,0,1-.27-1v-.09h12.59A2.72,2.72,0,0,0,479.88,60.53ZM465.31,58.8a6.35,6.35,0,0,1,12.33,0Zm35.22,1.47A2.3,2.3,0,1,1,498.24,58a2.3,2.3,0,0,1,2.29,2.32Zm-12-6.23-.5,0c-2.59.33-2.85,1.59-2.85,4.61V68a1.3,1.3,0,0,1-2.6,0V52.84a1.3,1.3,0,0,1,2.53-.41,5.19,5.19,0,0,1,3.06-1h.37a1.31,1.31,0,1,1,0,2.61ZM462.42,67.17a1.32,1.32,0,0,1,0,1.86,1.3,1.3,0,0,1-.92.38,1.28,1.28,0,0,1-.94-.41l-6.72-6.77L447.09,69a1.3,1.3,0,0,1-1.84,0,1.34,1.34,0,0,1-.38-.93,1.31,1.31,0,0,1,.4-.94L452,60.37l-6.73-6.79a1.37,1.37,0,0,1-.38-.94,1.3,1.3,0,0,1,1.29-1.31,1.26,1.26,0,0,1,.92.38l6.75,6.78,6.72-6.77a1.31,1.31,0,0,1,2.24.92,1.27,1.27,0,0,1-.39.92l-6.72,6.81Zm35.81-16a9.07,9.07,0,1,0,9,9.07A9,9,0,0,0,498.23,51.2Zm0,15.42a6.36,6.36,0,1,1,6.29-6.35A6.33,6.33,0,0,1,498.23,66.62Z" transform="translate(-19.75 -20.46)" fill="#fff"/>
    </g>
  </g>
  <g>
    <path d="M26.5,58.9c4-8.88,23.06-16.78,23.06-16.78l3-8.34s-21.29,8.14-30,19.62c-7,9.19-.58,20.21,14.53,15.7C37.1,69.1,21.79,69.3,26.5,58.9Z" transform="translate(-19.75 -20.46)" fill="url(#linear-gradient)"/>
    <path d="M50.26,63.13C46.24,72,27.2,79.91,27.2,79.91l-3,8.34s21.29-8.15,30-19.63c7-9.18.58-20.21-14.53-15.69C39.66,52.93,55,52.73,50.26,63.13Z" transform="translate(-19.75 -20.46)" fill="url(#linear-gradient-2)"/>
    <path d="M39.66,52.93s12.78-2.19,14,6.32c1.11,8-8.74,16.06-28,24.89l-1.5,4.11s21.29-8.15,30-19.63C61.17,59.44,54.77,48.41,39.66,52.93Z" transform="translate(-19.75 -20.46)" fill="url(#linear-gradient-3)"/>
    <path d="M39.78,69.85l2.88-27.34-7.3,4.28L32.48,74.13A81.49,81.49,0,0,0,39.78,69.85Z" transform="translate(-19.75 -20.46)" fill="url(#linear-gradient-4)"/>
    <path d="M52.6,33.78s-21.29,8.14-30,19.62C16.27,61.69,20.86,71.46,32.91,70l-.43,4.14s1.83-.95,3.85-2.12l.25-2.77.52-.14-.52.07,2.24-25-.08,0q5.32-3.11,12.36-6.33ZM33,69.34c-3.84-.11-9.09-1.25-9.83-6.56S26.62,52,35.31,46.34Z" transform="translate(-19.75 -20.46)" fill="url(#linear-gradient-5)"/>
  </g>
  <g>
    <g>
      <path d="M88.23,76.57h1.59a1.24,1.24,0,0,0,.52,1,2.16,2.16,0,0,0,1.25.32,1.94,1.94,0,0,0,1.07-.25.84.84,0,0,0,.36-.73c0-.49-.68-.88-2-1.18l0,0-.18,0a5,5,0,0,1-1.55-.52,1.37,1.37,0,0,1-.63-.73,2.42,2.42,0,0,1,.54-2.8A3.57,3.57,0,0,1,91.36,71a3.23,3.23,0,0,1,2.14.63,2.52,2.52,0,0,1,.82,1.85h-.91a.77.77,0,0,1-.75-.48,1.2,1.2,0,0,0-.32-.39,1.83,1.83,0,0,0-1.11-.29,1.5,1.5,0,0,0-1,.25.8.8,0,0,0-.34.7c0,.41.44.71,1.32.91a3.77,3.77,0,0,0,.57.14c.27.09.51.16.71.21l.49.13.64.27a1.91,1.91,0,0,1,.7.71,2.13,2.13,0,0,1,.25,1,2.33,2.33,0,0,1-.82,1.91,3.63,3.63,0,0,1-2.31.64,3.47,3.47,0,0,1-2.32-.66A2.5,2.5,0,0,1,88.23,76.57Z" transform="translate(-19.75 -20.46)" fill="url(#linear-gradient-6)"/>
      <path d="M99.9,75.1a4.34,4.34,0,0,1,1-3A3.69,3.69,0,0,1,103.69,71a3.76,3.76,0,0,1,2.8,1.11,4.37,4.37,0,0,1,1,3,4.3,4.3,0,0,1-1,3,3.73,3.73,0,0,1-2.8,1.09,3.66,3.66,0,0,1-2.79-1.09A4.27,4.27,0,0,1,99.9,75.1Zm1.61,0a3.08,3.08,0,0,0,.57,2,2,2,0,0,0,1.61.7,2,2,0,0,0,1.62-.7,3.13,3.13,0,0,0,.59-2,3.22,3.22,0,0,0-.59-2,2,2,0,0,0-1.62-.7,2,2,0,0,0-1.61.7A3.17,3.17,0,0,0,101.51,75.1Z" transform="translate(-19.75 -20.46)" fill="url(#linear-gradient-7)"/>
      <path d="M113,79V72a.8.8,0,0,1,.24-.58.78.78,0,0,1,.58-.24h4.86v1.35h-4.09v1.68h3v.52a.82.82,0,0,1-.82.82h-2.23V79Z" transform="translate(-19.75 -20.46)" fill="url(#linear-gradient-8)"/>
      <path d="M126.4,79V72.57h-2.32V72a.8.8,0,0,1,.24-.58.78.78,0,0,1,.58-.24h5.41v1.39H128V79Z" transform="translate(-19.75 -20.46)" fill="url(#linear-gradient-9)"/>
      <path d="M138,79l-2.25-7.83h1.66l1.34,5.53,1.14-5.53h1.72l1.12,5.53,1.2-4.93a.73.73,0,0,1,.8-.6h1L143.48,79h-1.54l-1.21-6-1.23,6Z" transform="translate(-19.75 -20.46)" fill="url(#linear-gradient-10)"/>
      <path d="M154.68,71.18H156L158.79,79h-1.7l-.53-1.62h-3L153,79h-1.71l2.59-7.3A.78.78,0,0,1,154.68,71.18Zm.36,1.57L154,76.07h2.18Z" transform="translate(-19.75 -20.46)" fill="url(#linear-gradient-11)"/>
      <path d="M164.28,79V72a.8.8,0,0,1,.24-.58.77.77,0,0,1,.58-.24h3a2.81,2.81,0,0,1,1.89.55,2.09,2.09,0,0,1,.64,1.66,2.12,2.12,0,0,1-.32,1.2,1.5,1.5,0,0,1-.86.66,1.31,1.31,0,0,1,.72.55,2.63,2.63,0,0,1,.25,1.16l.05.93v.3a2.64,2.64,0,0,0,0,.29.74.74,0,0,0,.27.53H169a1.33,1.33,0,0,1-.14-.48,4.44,4.44,0,0,1,0-.5l0-.84a1.84,1.84,0,0,0-.28-1,1.2,1.2,0,0,0-.88-.25h-1.71V79Zm1.61-4.42h1.89a1.37,1.37,0,0,0,.91-.25,1,1,0,0,0,.29-.77,1,1,0,0,0-.29-.77,1.13,1.13,0,0,0-.82-.27h-2Z" transform="translate(-19.75 -20.46)" fill="url(#linear-gradient-12)"/>
      <path d="M176.18,79V72a.83.83,0,0,1,.23-.58.8.8,0,0,1,.58-.24h4.87v1.35h-4.09v1.68h3v.52a.82.82,0,0,1-.23.58.8.8,0,0,1-.58.24h-2.23v2h4.09V79Z" transform="translate(-19.75 -20.46)" fill="url(#linear-gradient-13)"/>
    </g>
    <g>
      <g>
        <path d="M69.73,64.16V47.81H63.84V46.37a2.07,2.07,0,0,1,2.07-2.08H79.66v3.52H73.83V64.16Z" transform="translate(-19.75 -20.46)" fill="url(#linear-gradient-14)"/>
        <path d="M91.24,53.13a2.77,2.77,0,0,0-2.37-1.22,2.9,2.9,0,0,0-2.48,1.16,5.17,5.17,0,0,0-.87,3.17v7.92H81.59V44.29h2a2,2,0,0,1,2,2v4.57a4.56,4.56,0,0,1,2.94-2.2,5.85,5.85,0,0,1,3.64.23,6.56,6.56,0,0,1,2.72,2.2,6.91,6.91,0,0,1,1.09,4.15v9H92.05v-8a7.81,7.81,0,0,0-.15-1.59A4.13,4.13,0,0,0,91.24,53.13Z" transform="translate(-19.75 -20.46)" fill="url(#linear-gradient-15)"/>
        <path d="M97.54,44.29h2.08a2,2,0,0,1,2,2v1.22h-4Zm0,4.5h2.08a2,2,0,0,1,2,2v13.4h-4Z" transform="translate(-19.75 -20.46)" fill="url(#linear-gradient-16)"/>
        <path d="M116.93,64.16h-2a1.88,1.88,0,0,1-2-2V54.34a2.36,2.36,0,0,0-.84-2,3,3,0,0,0-1.88-.64,2.89,2.89,0,0,0-1.85.64,2.42,2.42,0,0,0-.8,2v9.82h-4v-9c0-2.62.69-4.37,2-5.26a9.05,9.05,0,0,1,4.54-1.44,8.68,8.68,0,0,1,4.68,1.33q2.13,1.32,2.13,5.37Z" transform="translate(-19.75 -20.46)" fill="url(#linear-gradient-17)"/>
        <path d="M122.79,48.79v5.66l4.91-5.66h4.85l-5.48,5.89,5.54,9.48h-4.85L124.93,59c-.58-1-1.08-1.48-1.5-1.33s-.64.39-.64.69v5.84h-4V44.29h2.08a1.85,1.85,0,0,1,1.38.58,1.81,1.81,0,0,1,.58,1.33Z" transform="translate(-19.75 -20.46)" fill="url(#linear-gradient-18)"/>
        <path d="M133.3,58h4a3.19,3.19,0,0,0,1.33,2.42,5.46,5.46,0,0,0,3.18.81,4.72,4.72,0,0,0,2.71-.64,2.08,2.08,0,0,0,.93-1.84c0-1.23-1.73-2.24-5.2-3l-.12,0-.46-.12a11.93,11.93,0,0,1-3.92-1.33,3.42,3.42,0,0,1-1.62-1.85,5.33,5.33,0,0,1-.58-2.65,5.46,5.46,0,0,1,2-4.45,9,9,0,0,1,5.71-1.56,8.15,8.15,0,0,1,5.43,1.62A6.4,6.4,0,0,1,148.78,50h-2.31a2,2,0,0,1-1.91-1.22,2.91,2.91,0,0,0-.8-1,4.77,4.77,0,0,0-2.83-.75,3.82,3.82,0,0,0-2.49.64,2.07,2.07,0,0,0-.86,1.79c0,1,1.11,1.81,3.35,2.31a9.09,9.09,0,0,0,1.44.34c.69.23,1.3.42,1.82.55l1.24.32,1.62.69a5,5,0,0,1,1.79,1.79,5.7,5.7,0,0,1,.63,2.66A6,6,0,0,1,147.39,63a9.38,9.38,0,0,1-5.89,1.62q-3.93,0-5.89-1.68A6.39,6.39,0,0,1,133.3,58Z" transform="translate(-19.75 -20.46)" fill="url(#linear-gradient-19)"/>
        <path d="M164.27,64.16h-4V54.34a2.36,2.36,0,0,0-.84-2,3,3,0,0,0-1.88-.64,2.89,2.89,0,0,0-1.85.64,2.4,2.4,0,0,0-.81,2v9.82h-4v-9q0-3.93,2-5.26a9.05,9.05,0,0,1,4.54-1.44,11.18,11.18,0,0,1,2.59.29,5.36,5.36,0,0,1,2.31,1.15,5.29,5.29,0,0,1,2-1.07,11.68,11.68,0,0,1,2.46-.37,8.68,8.68,0,0,1,4.68,1.33q2.13,1.32,2.13,5.37v9h-2a1.88,1.88,0,0,1-2-2V54.34a2.36,2.36,0,0,0-.84-2,3.07,3.07,0,0,0-3.75,0,2.36,2.36,0,0,0-.84,2v9.82Z" transform="translate(-19.75 -20.46)" fill="url(#linear-gradient-20)"/>
        <path d="M185.19,63.52a7.3,7.3,0,0,1-2.57.78,21.91,21.91,0,0,1-2.4.14,6.07,6.07,0,0,1-3.64-1.12A4.28,4.28,0,0,1,175,59.59a4,4,0,0,1,1.41-3.46,8.18,8.18,0,0,1,3.61-1.39,4,4,0,0,0,.69-.08,9.08,9.08,0,0,1,.93-.15c1.69-.23,2.54-.73,2.54-1.5a1.1,1.1,0,0,0-.9-1.13,6,6,0,0,0-1.64-.26,4.12,4.12,0,0,0-1.45.24,1.56,1.56,0,0,0-.92.86h-3.87a4.41,4.41,0,0,1,1.62-2.94,6.63,6.63,0,0,1,4.44-1.33,8.59,8.59,0,0,1,4.85,1.1A3.69,3.69,0,0,1,188,52.78V58a6.6,6.6,0,0,1-.84,3.61A5.07,5.07,0,0,1,185.19,63.52Zm-.93-7.1a10.65,10.65,0,0,1-2.25.75l-1.33.29a3.38,3.38,0,0,0-1.5.75,2.34,2.34,0,0,0-.4,1.27,1.83,1.83,0,0,0,.52,1.38,2.19,2.19,0,0,0,1.5.47,3.2,3.2,0,0,0,3.46-3.47Z" transform="translate(-19.75 -20.46)" fill="url(#linear-gradient-21)"/>
        <path d="M189.78,64.16V56.71a9.57,9.57,0,0,1,.66-3.79,6.26,6.26,0,0,1,1.82-2.45,7.12,7.12,0,0,1,2.57-1.27,11.36,11.36,0,0,1,3-.41h.58v4.1h-1.33a3.38,3.38,0,0,0-2.48.81,3.47,3.47,0,0,0-.81,2.54v7.92Z" transform="translate(-19.75 -20.46)" fill="url(#linear-gradient-22)"/>
        <path d="M206.25,64.16a32.13,32.13,0,0,1-4.13-.06c-1.48-.12-2.22-1.06-2.22-2.83v-17H202a1.82,1.82,0,0,1,1.33.58,1.9,1.9,0,0,1,.57,1.38v2.6h2.37v.81a1.86,1.86,0,0,1-.58,1.42,1.93,1.93,0,0,1-1.38.54h-.41v8.55c0,.66.39,1,1.16,1h1.21Z" transform="translate(-19.75 -20.46)" fill="url(#linear-gradient-23)"/>
      </g>
      <path d="M114.8,49.78a8.68,8.68,0,0,0-4.68-1.33,9.05,9.05,0,0,0-4.54,1.44c-1.36.89-2,2.64-2,5.26v1.62l4,.14V54.34a2.42,2.42,0,0,1,.8-2,2.89,2.89,0,0,1,1.85-.64,3,3,0,0,1,1.88.64,2.36,2.36,0,0,1,.84,2v2.73l4,.09v-2Q116.93,51.1,114.8,49.78Zm56.75,0a8.68,8.68,0,0,0-4.68-1.33,11.68,11.68,0,0,0-2.46.37,5.29,5.29,0,0,0-2,1.07,5.36,5.36,0,0,0-2.31-1.15,11.18,11.18,0,0,0-2.59-.29,9.05,9.05,0,0,0-4.54,1.44q-2.05,1.34-2,5.26V57.2l4-.08V54.34a2.4,2.4,0,0,1,.81-2,2.89,2.89,0,0,1,1.85-.64,3,3,0,0,1,1.88.64,2.36,2.36,0,0,1,.84,2V57l4-.13V54.34a2.36,2.36,0,0,1,.84-2,3.07,3.07,0,0,1,3.75,0,2.36,2.36,0,0,1,.84,2v2.3l4-.18V55.15Q173.68,51.1,171.55,49.78Zm14.79-.23a8.59,8.59,0,0,0-4.85-1.1,6.63,6.63,0,0,0-4.44,1.33,4.41,4.41,0,0,0-1.62,2.94h3.87a1.56,1.56,0,0,1,.92-.86,4.12,4.12,0,0,1,1.45-.24,6,6,0,0,1,1.64.26,1.1,1.1,0,0,1,.9,1.13c0,.77-.85,1.27-2.54,1.5a9.08,9.08,0,0,0-.93.15,4,4,0,0,1-.69.08,8.18,8.18,0,0,0-3.61,1.39,2.52,2.52,0,0,0-.25.21q6.1-.31,11.83-.72V52.78A3.69,3.69,0,0,0,186.34,49.55Zm-94.24-.7a5.85,5.85,0,0,0-3.64-.23,4.56,4.56,0,0,0-2.94,2.2V46.25a2,2,0,0,0-2-2h-2v11.3l4,.27a4.91,4.91,0,0,1,.85-2.79,2.9,2.9,0,0,1,2.48-1.16,2.77,2.77,0,0,1,2.37,1.22,4.13,4.13,0,0,1,.66,1.47,7.81,7.81,0,0,1,.15,1.59v.05l3.86.2V55.2a6.91,6.91,0,0,0-1.09-4.15A6.56,6.56,0,0,0,92.1,48.85Zm111.78,0v-2.6a1.9,1.9,0,0,0-.57-1.38,1.82,1.82,0,0,0-1.33-.58H199.9V54.66l4-.38V51.62h.41a1.93,1.93,0,0,0,1.38-.54,1.86,1.86,0,0,0,.58-1.42v-.81Zm-9,.35a7.12,7.12,0,0,0-2.57,1.27,6.26,6.26,0,0,0-1.82,2.45,8.44,8.44,0,0,0-.6,2.57l4.09-.31a2.77,2.77,0,0,1,.7-1.48,3.38,3.38,0,0,1,2.48-.81h1.33v-4.1h-.58A11.36,11.36,0,0,0,194.83,49.2ZM64.44,44.9a2,2,0,0,0-.6,1.47v1.44h5.89v6.81l4.1.37V47.81h5.83V44.29H65.91A2,2,0,0,0,64.44,44.9Zm63.26,3.89-4.91,5.66V46.2a1.81,1.81,0,0,0-.58-1.33,1.85,1.85,0,0,0-1.38-.58h-2.08V57.2q4.86.09,9.86.12l-1.54-2.64,5.48-5.89Zm19.35,4.91L145.43,53l-1.24-.32c-.52-.13-1.13-.32-1.82-.55a9.09,9.09,0,0,1-1.44-.34c-2.24-.5-3.35-1.27-3.35-2.31a2.07,2.07,0,0,1,.86-1.79,3.82,3.82,0,0,1,2.49-.64,4.77,4.77,0,0,1,2.83.75,2.91,2.91,0,0,1,.8,1A2,2,0,0,0,146.47,50h2.31a6.4,6.4,0,0,0-2.08-4.68,8.15,8.15,0,0,0-5.43-1.62,9,9,0,0,0-5.71,1.56,5.46,5.46,0,0,0-2,4.45,5.33,5.33,0,0,0,.58,2.65,3.42,3.42,0,0,0,1.62,1.85,11.93,11.93,0,0,0,3.92,1.33l.46.12.12,0a12.17,12.17,0,0,1,4.27,1.58l4.84-.07a5.91,5.91,0,0,0-.56-1.74A5,5,0,0,0,147.05,53.7ZM99.62,48.79H97.54v7.72c1.34.07,2.69.12,4,.18V50.76a2,2,0,0,0-2-2Zm0-4.5H97.54v3.18h4V46.25a2,2,0,0,0-2-2Z" transform="translate(-19.75 -20.46)" fill="url(#linear-gradient-24)"/>
    </g>
  </g>
</svg>
