<svg xmlns="http://www.w3.org/2000/svg" viewBox="0 0 331.15 193.25">
  <title>thinksmart-software-main-headline</title>
  <g id="Layer_2" data-name="Layer 2">
    <g id="outlined">
      <g>
        <g>
          <path d="M16.51,85.36l0,.09a6.59,6.59,0,0,1-2.18,5.19,8.27,8.27,0,0,1-5.91,2.09,7.77,7.77,0,0,1-6.1-2.65A9.71,9.71,0,0,1,0,83.36V79.44a9.79,9.79,0,0,1,2.35-6.73,7.77,7.77,0,0,1,6.1-2.65,8.56,8.56,0,0,1,6,2,6.58,6.58,0,0,1,2.14,5.27l0,.1H13.65a4.92,4.92,0,0,0-1.36-3.67A5.23,5.23,0,0,0,8.45,72.4a4.69,4.69,0,0,0-4,2,8.16,8.16,0,0,0-1.49,5v4a8.24,8.24,0,0,0,1.49,5,4.68,4.68,0,0,0,4,2,5.22,5.22,0,0,0,3.84-1.34,4.93,4.93,0,0,0,1.36-3.7Z" fill="#00bdf7"/>
          <path d="M24.8,90.08H35.54v2.34H21.81v-22h3Z" fill="#00bdf7"/>
          <path d="M51.92,86.74H43.63l-2,5.68h-3l8-22h2.55l7.78,22h-3Zm-7.43-2.5h6.59l-3.21-9.46h-.09Z" fill="#00bdf7"/>
          <path d="M73.28,86.86a3.28,3.28,0,0,0-1.07-2.51,9,9,0,0,0-3.78-1.73,12.58,12.58,0,0,1-5.25-2.45A5.13,5.13,0,0,1,61.3,76.1a5.44,5.44,0,0,1,2-4.32,7.87,7.87,0,0,1,5.27-1.72,7.73,7.73,0,0,1,5.55,2,6,6,0,0,1,2,4.61l0,.09H73.25a4,4,0,0,0-1.31-3.1,4.69,4.69,0,0,0-3.35-1.23,4.57,4.57,0,0,0-3.2,1,3.39,3.39,0,0,0-1.11,2.63,2.92,2.92,0,0,0,1.22,2.4,11.13,11.13,0,0,0,4,1.69,11.23,11.23,0,0,1,5.07,2.54,5.55,5.55,0,0,1,1.74,4.15,5.13,5.13,0,0,1-2.1,4.28,8.7,8.7,0,0,1-5.47,1.62A9.31,9.31,0,0,1,63.06,91a5.45,5.45,0,0,1-2.37-4.79l0-.09h2.85a3.69,3.69,0,0,0,1.57,3.2A5.92,5.92,0,0,0,68.7,90.4a5.38,5.38,0,0,0,3.35-1A3.11,3.11,0,0,0,73.28,86.86Z" fill="#00bdf7"/>
          <path d="M93.63,86.86a3.29,3.29,0,0,0-1.08-2.51,8.89,8.89,0,0,0-3.78-1.73,12.48,12.48,0,0,1-5.24-2.45,5.14,5.14,0,0,1-1.89-4.07,5.45,5.45,0,0,1,2-4.32,7.85,7.85,0,0,1,5.27-1.72,7.73,7.73,0,0,1,5.55,2,6,6,0,0,1,2,4.61l0,.09H93.6a4.08,4.08,0,0,0-1.31-3.1,4.69,4.69,0,0,0-3.35-1.23,4.55,4.55,0,0,0-3.2,1,3.36,3.36,0,0,0-1.12,2.63,3,3,0,0,0,1.22,2.4,11.13,11.13,0,0,0,4,1.69,11.18,11.18,0,0,1,5.07,2.54,5.55,5.55,0,0,1,1.74,4.15,5.15,5.15,0,0,1-2.09,4.28A8.73,8.73,0,0,1,89,92.73,9.26,9.26,0,0,1,83.41,91,5.45,5.45,0,0,1,81,86.16l0-.09h2.84a3.69,3.69,0,0,0,1.58,3.2A5.89,5.89,0,0,0,89,90.4a5.41,5.41,0,0,0,3.36-1A3.11,3.11,0,0,0,93.63,86.86Z" fill="#00bdf7"/>
          <path d="M122.26,88.28h.09l7-17.9h3.71v22h-3V75.9H130l-6.67,16.53h-2.08L114.4,75.34l-.09,0V92.42h-3v-22h3.92Z" fill="#00bdf7"/>
          <path d="M151.31,86.74H143l-2,5.68H138l7.95-22h2.56l7.78,22h-3Zm-7.43-2.5h6.58l-3.21-9.46h-.09Z" fill="#00bdf7"/>
          <path d="M177.59,92.42h-3L164,75.58l-.1,0V92.42h-3v-22h3l10.62,16.81.09,0V70.38h3Z" fill="#00bdf7"/>
          <path d="M195.8,86.74h-8.3l-2,5.68h-3l7.95-22H193l7.78,22h-3Zm-7.43-2.5H195l-3.21-9.46h-.09Z" fill="#00bdf7"/>
          <path d="M221.1,89.45a7.05,7.05,0,0,1-2.74,2.25,10.7,10.7,0,0,1-5,1A8.53,8.53,0,0,1,207,90.21a8.94,8.94,0,0,1-2.49-6.54V79.13a9.09,9.09,0,0,1,2.4-6.54,9.21,9.21,0,0,1,12-.57A6.27,6.27,0,0,1,221,77l0,.09h-2.87a4.62,4.62,0,0,0-1.3-3.36,4.93,4.93,0,0,0-3.69-1.34,5,5,0,0,0-4.07,1.9,7.33,7.33,0,0,0-1.55,4.79v4.58a7.14,7.14,0,0,0,1.64,4.83,5.25,5.25,0,0,0,4.18,1.9,7.7,7.7,0,0,0,3.09-.51,4.29,4.29,0,0,0,1.7-1.2v-5h-5V81.4h8Z" fill="#00bdf7"/>
          <path d="M239.67,82.2h-9v7.88h10.59v2.34H227.64v-22h13.41v2.34H230.62v7.13h9Z" fill="#00bdf7"/>
          <path d="M257.07,88.28h.09l7-17.9h3.71v22h-3V75.9h-.09l-6.67,16.53h-2.08l-6.87-17.08-.09,0V92.42h-3v-22h3.92Z" fill="#00bdf7"/>
          <path d="M286.49,82.2h-9.05v7.88H288v2.34H274.46v-22h13.41v2.34H277.44v7.13h9.05Z" fill="#00bdf7"/>
          <path d="M309.63,92.42h-3L296,75.58l-.09,0V92.42h-3v-22h3l10.61,16.81.09,0V70.38h3Z" fill="#00bdf7"/>
          <path d="M331.15,72.72h-7.26v19.7h-3V72.72h-7.17V70.38h17.42Z" fill="#00bdf7"/>
        </g>
        <g>
          <path d="M86.13,130.66a3.11,3.11,0,0,0-1-2.4,9.54,9.54,0,0,0-3.68-1.67,15.74,15.74,0,0,1-5.84-2.75,5.48,5.48,0,0,1-2.06-4.44,5.74,5.74,0,0,1,2.26-4.67,8.86,8.86,0,0,1,5.8-1.84,8.78,8.78,0,0,1,6.08,2,6.23,6.23,0,0,1,2.2,5l0,.1H86.05a3.76,3.76,0,0,0-1.23-3A4.76,4.76,0,0,0,81.54,116a4.55,4.55,0,0,0-3.06.93,3.07,3.07,0,0,0-1.07,2.42,2.67,2.67,0,0,0,1.18,2.23,12.66,12.66,0,0,0,3.9,1.67,13.62,13.62,0,0,1,5.62,2.81,5.91,5.91,0,0,1,1.94,4.55,5.57,5.57,0,0,1-2.29,4.66,9.68,9.68,0,0,1-6,1.74,10.49,10.49,0,0,1-6.24-1.9,6,6,0,0,1-2.58-5.37l0-.09h3.77a3.71,3.71,0,0,0,1.45,3.18,5.89,5.89,0,0,0,3.56,1.07A5.21,5.21,0,0,0,85,133,2.82,2.82,0,0,0,86.13,130.66Z" fill="#00bdf7"/>
          <path d="M115,127.07a9.9,9.9,0,0,1-2.7,7.13,9.25,9.25,0,0,1-7,2.83,8.94,8.94,0,0,1-6.85-2.83,10,10,0,0,1-2.64-7.13v-4.22a10.07,10.07,0,0,1,2.63-7.12,9,9,0,0,1,6.86-2.84,9.27,9.27,0,0,1,7,2.84,9.92,9.92,0,0,1,2.71,7.12Zm-3.92-4.25a7.31,7.31,0,0,0-1.56-4.82,5.22,5.22,0,0,0-4.24-1.89,4.9,4.9,0,0,0-4.08,1.89,7.5,7.5,0,0,0-1.5,4.82v4.25a7.58,7.58,0,0,0,1.5,4.86,4.93,4.93,0,0,0,4.08,1.89,5.24,5.24,0,0,0,4.25-1.88,7.44,7.44,0,0,0,1.55-4.87Z" fill="#00bdf7"/>
          <path d="M135,126.68h-9.46v10H121.6V113.23h15v3.14H125.51v7.17H135Z" fill="#00bdf7"/>
          <path d="M158.73,116.37h-7.25v20.32h-3.91V116.37h-7.14v-3.14h18.3Z" fill="#00bdf7"/>
          <path d="M182.53,130.15h.09l3.45-16.92h4.13l-5.58,23.46h-3.56L176.37,120h-.1l-4.7,16.69H168l-5.56-23.46h4.11l3.48,16.9h.1l4.46-16.9H178Z" fill="#00bdf7"/>
          <path d="M207.13,131.21h-8.32l-1.8,5.48h-4l8.19-23.46h3.72L213,136.69h-4.05Zm-7.24-3.27h6.17l-3-9.25H203Z" fill="#00bdf7"/>
          <path d="M222.25,127v9.73h-3.92V113.23h8.08a9.23,9.23,0,0,1,6.05,1.77,6.2,6.2,0,0,1,2.15,5.06,5.24,5.24,0,0,1-1,3.14,6.48,6.48,0,0,1-2.74,2.1,5,5,0,0,1,2.86,2,6.63,6.63,0,0,1,.88,3.52v1.95a8,8,0,0,0,.25,2,2.83,2.83,0,0,0,.86,1.5v.37h-4a2.58,2.58,0,0,1-.82-1.66,14.25,14.25,0,0,1-.18-2.26v-1.88a4,4,0,0,0-1-2.87,3.77,3.77,0,0,0-2.83-1.06Zm0-3.14h3.95a5.33,5.33,0,0,0,3.43-.91,3.38,3.38,0,0,0,1.08-2.75,3.65,3.65,0,0,0-1.07-2.78,4.53,4.53,0,0,0-3.23-1h-4.16Z" fill="#00bdf7"/>
          <path d="M254.9,126.14h-9.18v7.42h10.83v3.13H241.8V113.23h14.63v3.14H245.72V123h9.18Z" fill="#00bdf7"/>
        </g>
        <g>
          <path d="M142,180.62h.16l5.48-26.31h7.52l-9,38.39h-7.14l-7-25.34h-.16l-7,25.34h-7.15l-9-38.39h7.54l5.51,26.29.16,0,7.2-26.31h5.67Z" fill="#00bdf7"/>
          <path d="M192.09,177a16.1,16.1,0,0,1-4.46,11.68A15.49,15.49,0,0,1,176,193.25a15.26,15.26,0,0,1-11.52-4.61A16.2,16.2,0,0,1,160.06,177v-6.91a16.26,16.26,0,0,1,4.41-11.67A15.23,15.23,0,0,1,176,153.75a15.49,15.49,0,0,1,11.63,4.63,16.1,16.1,0,0,1,4.48,11.67ZM184.4,170a11.6,11.6,0,0,0-2.25-7.37,7.38,7.38,0,0,0-6.17-2.88,7.19,7.19,0,0,0-6.09,2.86,11.94,11.94,0,0,0-2.16,7.39v7a12,12,0,0,0,2.19,7.45,7.22,7.22,0,0,0,6.09,2.88,7.34,7.34,0,0,0,6.17-2.88A11.85,11.85,0,0,0,184.4,177Z" fill="#00bdf7"/>
          <path d="M207.53,177.35V192.7h-7.7V154.31h14.48q6.57,0,10.27,3a10.15,10.15,0,0,1,3.71,8.35,8.42,8.42,0,0,1-1.56,5.11,10.87,10.87,0,0,1-4.56,3.45,8.27,8.27,0,0,1,4.89,3.35,10.66,10.66,0,0,1,1.49,5.8v2.83a14,14,0,0,0,.43,3.36,4.61,4.61,0,0,0,1.49,2.59v.56h-7.93a4.29,4.29,0,0,1-1.37-2.82,23.94,23.94,0,0,1-.32-3.75v-2.71a6.08,6.08,0,0,0-1.57-4.47,5.9,5.9,0,0,0-4.42-1.6Zm0-5.93h6.65a7.32,7.32,0,0,0,4.84-1.37,5.07,5.07,0,0,0,1.59-4.06A5.58,5.58,0,0,0,219,161.8a6.5,6.5,0,0,0-4.71-1.56h-6.78Z" fill="#00bdf7"/>
          <path d="M245,186.77h17.09v5.93H237.26V154.31H245Z" fill="#00bdf7"/>
          <path d="M268.21,192.7V154.31h13.18A15.86,15.86,0,0,1,293,158.8a15.52,15.52,0,0,1,4.56,11.54v6.35A15.46,15.46,0,0,1,293,188.23a15.89,15.89,0,0,1-11.6,4.47Zm7.7-32.46v26.53H281a8,8,0,0,0,6.48-2.8,10.92,10.92,0,0,0,2.35-7.29v-6.4a10.86,10.86,0,0,0-2.35-7.25,8,8,0,0,0-6.48-2.79Z" fill="#00bdf7"/>
        </g>
        <g>
          <path d="M28.88,166.07H26.19v-2.74h2.69Zm0,18.58H26.19V169.86h2.69Z" fill="#00bdf7"/>
          <path d="M36.13,169.86l.19,2.2a5.36,5.36,0,0,1,1.85-1.82,4.9,4.9,0,0,1,2.54-.65,4.83,4.83,0,0,1,3.71,1.4,6.18,6.18,0,0,1,1.31,4.33v9.33H43v-9.28a4,4,0,0,0-.77-2.78,3.11,3.11,0,0,0-2.36-.82,4.2,4.2,0,0,0-2.11.5,3.62,3.62,0,0,0-1.37,1.4v11h-2.7V169.86Z" fill="#00bdf7"/>
          <path d="M61.74,166.29v3.57h2.8v2h-2.8v9a2,2,0,0,0,.43,1.46,1.58,1.58,0,0,0,1.14.43,2,2,0,0,0,.52-.07,2.93,2.93,0,0,0,.48-.13l.37,1.85a2.39,2.39,0,0,1-.89.4,4.27,4.27,0,0,1-1.16.16A3.5,3.5,0,0,1,60,184a4.29,4.29,0,0,1-1-3.11v-9H56.7v-2h2.35v-3.57Z" fill="#00bdf7"/>
          <path d="M70.82,171.84a5.52,5.52,0,0,1,1.88-1.66,5.27,5.27,0,0,1,2.47-.59A4.78,4.78,0,0,1,78.86,171a6.26,6.26,0,0,1,1.31,4.37v9.27H77.48v-9.29a4,4,0,0,0-.78-2.71,3,3,0,0,0-2.35-.88,4.33,4.33,0,0,0-2.09.48,3.8,3.8,0,0,0-1.44,1.32v11.08H68.13V163.33h2.69Z" fill="#00bdf7"/>
          <path d="M90.87,184.94a6.26,6.26,0,0,1-5-2,7.81,7.81,0,0,1-1.78-5.36v-.6A7.7,7.7,0,0,1,86,171.67a5.78,5.78,0,0,1,4.5-2.08,5.38,5.38,0,0,1,4.45,1.84,7.66,7.66,0,0,1,1.48,4.91v1.42H86.92l0,.07a6.17,6.17,0,0,0,1,3.62,3.45,3.45,0,0,0,3,1.38,6.79,6.79,0,0,0,2.4-.38A5.26,5.26,0,0,0,95,181.37l1,1.75A6.42,6.42,0,0,1,94,184.41,8.36,8.36,0,0,1,90.87,184.94Zm-.42-13.23a3,3,0,0,0-2.34,1.08A5.17,5.17,0,0,0,87,175.58l0,.06h6.68v-.22a4.29,4.29,0,0,0-.8-2.66A2.86,2.86,0,0,0,90.45,171.71Z" fill="#00bdf7"/>
        </g>
        <g>
          <g>
            <path d="M62.15,13.56H53V38.33H49.26V13.56h-9v-3H62.15Z" fill="#00bdf7"/>
            <path d="M69.33,20.49A7.74,7.74,0,0,1,72,18.17a7.22,7.22,0,0,1,3.44-.82,6.65,6.65,0,0,1,5.13,2q1.85,2,1.84,6.09V38.33H78.61V25.38a5.51,5.51,0,0,0-1.1-3.77,4.17,4.17,0,0,0-3.26-1.22,6.14,6.14,0,0,0-2.92.66,5.35,5.35,0,0,0-2,1.84V38.33H65.58V8.63h3.75Z" fill="#00bdf7"/>
            <path d="M96.28,38.73a8.68,8.68,0,0,1-6.92-2.84,10.9,10.9,0,0,1-2.49-7.46v-.84a10.73,10.73,0,0,1,2.56-7.34,8.06,8.06,0,0,1,6.26-2.9c2.75,0,4.82.85,6.2,2.57A10.61,10.61,0,0,1,104,26.75v2H90.78l-.06.1a8.49,8.49,0,0,0,1.37,5,4.78,4.78,0,0,0,4.19,1.93,9.47,9.47,0,0,0,3.34-.54,7.57,7.57,0,0,0,2.47-1.5l1.46,2.44a8.92,8.92,0,0,1-2.91,1.8A11.6,11.6,0,0,1,96.28,38.73ZM95.69,20.3a4.08,4.08,0,0,0-3.25,1.51,7.13,7.13,0,0,0-1.57,3.88l0,.09h9.29v-.3a6.06,6.06,0,0,0-1.1-3.72A4,4,0,0,0,95.69,20.3Z" fill="#00bdf7"/>
          </g>
          <g>
            <path d="M118.42,49V.7h16.33Q143.29.7,148.07,4T152.85,14a10.45,10.45,0,0,1-1.78,6,10.72,10.72,0,0,1-5.16,4,10.23,10.23,0,0,1,6.52,4A11.88,11.88,0,0,1,154.61,35q0,6.95-4.58,10.51T137,49ZM128.11,21h7a9.69,9.69,0,0,0,6-1.59,5.48,5.48,0,0,0,2.09-4.65,5.81,5.81,0,0,0-2.1-5q-2.12-1.59-6.3-1.59h-6.64Zm0,6.71V41.57H137a9.06,9.06,0,0,0,5.88-1.67A6.07,6.07,0,0,0,145,35a7.72,7.72,0,0,0-1.73-5.42c-1.15-1.25-3-1.87-5.44-1.87Z" fill="#00bdf7"/>
            <path d="M194.89,27.79h-20V41.57h23.41V49H165.17V.7h33V8.17H174.87V20.32h20Z" fill="#00bdf7"/>
            <path d="M233.45,36.42a5.6,5.6,0,0,0-2-4.48c-1.32-1.13-3.62-2.19-6.92-3.19q-8.64-2.49-13.05-5.91a11.21,11.21,0,0,1-4.42-9.36,11.59,11.59,0,0,1,5.07-9.71Q217.21,0,225.08,0t13,4.23a12.71,12.71,0,0,1,4.85,10.45l-.07.2h-9.39a7.06,7.06,0,0,0-2.24-5.43,8.92,8.92,0,0,0-6.3-2.08,9.31,9.31,0,0,0-6,1.73,5.45,5.45,0,0,0-2.12,4.41,4.75,4.75,0,0,0,2.27,4,31.56,31.56,0,0,0,7.86,3.33q8,2.24,12.12,5.88a12.24,12.24,0,0,1,4.11,9.6,11.49,11.49,0,0,1-4.89,9.79q-4.91,3.59-12.94,3.59a23.62,23.62,0,0,1-13.78-4.07,12.71,12.71,0,0,1-5.71-11.4l.07-.2h9.43q0,4.31,2.64,6.32t7.35,2a9.67,9.67,0,0,0,6.05-1.63A5.23,5.23,0,0,0,233.45,36.42Z" fill="#00bdf7"/>
            <path d="M287,8.17H273.33V49h-9.69V8.17H250V.7h37Z" fill="#00bdf7"/>
          </g>
        </g>
      </g>
    </g>
  </g>
</svg>
