<svg xmlns="http://www.w3.org/2000/svg" viewBox="0 0 325.19 230.56">
  <title>dancebiz-main-headline</title>
  <g id="Layer_2" data-name="Layer 2">
    <g id="outlined">
      <g>
        <g>
          <path d="M65.2,52.57H92.41V62H52.94V.88H65.2Z" fill="#fff"/>
          <path d="M151.15,37q0,11.27-7.12,18.61T125.54,62.9q-11.31,0-18.36-7.34T100.13,37V26q0-11.2,7-18.58T125.49,0Q136.88,0,144,7.37T151.15,26ZM138.89,25.9q0-7.16-3.57-11.74a11.77,11.77,0,0,0-9.83-4.59,11.46,11.46,0,0,0-9.7,4.57q-3.44,4.56-3.44,11.76V37q0,7.27,3.49,11.86a11.48,11.48,0,0,0,9.7,4.59,11.69,11.69,0,0,0,9.82-4.59q3.52-4.59,3.53-11.86Z" fill="#fff"/>
          <path d="M185.41,45.77l.75,3.32h.26l.71-3.23,13.31-45h12.93L192.59,62H180L159.25.88h12.93Z" fill="#fff"/>
          <path d="M262,35.15H236.63V52.57h29.6V62H224.37V.88h41.78v9.45H236.63V25.7H262Z" fill="#fff"/>
        </g>
        <g>
          <path d="M69.68,207.28h-17L49.42,217.7H39.63l16.63-48.34h9.93L82.76,217.7H73ZM55.1,199.67H67.29l-6-19h-.2Z" fill="#fff"/>
          <path d="M90.4,217.7V169.36H107A20,20,0,0,1,121.62,175a19.55,19.55,0,0,1,5.74,14.53v8q0,8.89-5.74,14.52A20,20,0,0,1,107,217.7Zm9.7-40.87v33.4h6.41a10.09,10.09,0,0,0,8.17-3.52,13.77,13.77,0,0,0,2.95-9.18v-8.06a13.68,13.68,0,0,0-2.95-9.12,10.09,10.09,0,0,0-8.17-3.52Z" fill="#fff"/>
          <path d="M150.74,169.36,163.06,205h.2l12.42-35.63h12.68V217.7h-9.7V203.29l.93-21.35-.19,0-13,35.79h-6.51L147.06,182l-.2,0,.93,21.21V217.7h-9.7V169.36Z" fill="#fff"/>
          <path d="M210.85,217.7h-9.7V169.36h9.7Z" fill="#fff"/>
          <path d="M262.72,217.7h-9.67l-19.52-33-.2,0v33h-9.69V169.36h9.69l19.52,33,.2,0v-33h9.67Z" fill="#fff"/>
        </g>
        <g>
          <path d="M11.17,92.18V96h3V98.1h-3v9.57a2.14,2.14,0,0,0,.46,1.56,1.65,1.65,0,0,0,1.21.45,3.05,3.05,0,0,0,.56-.07,3.63,3.63,0,0,0,.51-.14l.39,2a2.56,2.56,0,0,1-1,.43,4.78,4.78,0,0,1-1.23.16,3.7,3.7,0,0,1-2.78-1,4.58,4.58,0,0,1-1-3.31V98.1H5.8V96H8.3v-3.8Z" fill="#fff"/>
          <path d="M23.75,112a6.65,6.65,0,0,1-5.29-2.16,8.34,8.34,0,0,1-1.9-5.71v-.64a8.19,8.19,0,0,1,2-5.61,6.15,6.15,0,0,1,4.78-2.22,5.71,5.71,0,0,1,4.74,2,8.07,8.07,0,0,1,1.58,5.23v1.51H19.54l0,.08a6.59,6.59,0,0,0,1,3.85,3.68,3.68,0,0,0,3.21,1.47,7.33,7.33,0,0,0,2.55-.41,6,6,0,0,0,1.89-1.14l1.12,1.86a7,7,0,0,1-2.23,1.37A8.72,8.72,0,0,1,23.75,112Zm-.46-14.09a3.14,3.14,0,0,0-2.48,1.16,5.55,5.55,0,0,0-1.2,3l0,.08h7.1v-.24a4.57,4.57,0,0,0-.84-2.83A3,3,0,0,0,23.29,97.94Z" fill="#fff"/>
          <path d="M42.51,111.73c-.1-.48-.17-.9-.23-1.26a10,10,0,0,1-.09-1.1,6.72,6.72,0,0,1-2.09,1.9,5.32,5.32,0,0,1-2.77.76,5.19,5.19,0,0,1-3.75-1.25,4.64,4.64,0,0,1-1.29-3.48,4.07,4.07,0,0,1,1.83-3.53,8.58,8.58,0,0,1,5-1.27h3.12v-1.56a2.87,2.87,0,0,0-.85-2.19A3.28,3.28,0,0,0,39,97.94a3.51,3.51,0,0,0-2.26.7,2.12,2.12,0,0,0-.86,1.68l-2.72,0,0-.09a3.78,3.78,0,0,1,1.61-3.15,6.66,6.66,0,0,1,4.42-1.42,6.51,6.51,0,0,1,4.31,1.36A4.84,4.84,0,0,1,45.06,101v7.59a14.47,14.47,0,0,0,.08,1.63,9.16,9.16,0,0,0,.32,1.54Zm-4.76-2.1a5.06,5.06,0,0,0,2.81-.8A3.79,3.79,0,0,0,42.19,107v-2.56H39a4.18,4.18,0,0,0-2.77.87,2.59,2.59,0,0,0-1,2,2.18,2.18,0,0,0,.65,1.66A2.75,2.75,0,0,0,37.75,109.63Z" fill="#fff"/>
          <path d="M55.48,109.79a3.35,3.35,0,0,0,2.31-.88,2.79,2.79,0,0,0,1-2.16h2.59l.05.09a4.55,4.55,0,0,1-1.75,3.62,6.7,6.7,0,0,1-9.32-.68,8.74,8.74,0,0,1-1.8-5.62v-.61A8.67,8.67,0,0,1,50.36,98a6.19,6.19,0,0,1,5.12-2.26,5.92,5.92,0,0,1,4.31,1.63,5.14,5.14,0,0,1,1.63,4l0,.09H58.78A3.45,3.45,0,0,0,57.84,99a3.06,3.06,0,0,0-2.36-1,3.31,3.31,0,0,0-3.08,1.64,7.64,7.64,0,0,0-1,4v.61a7.74,7.74,0,0,0,1,4A3.29,3.29,0,0,0,55.48,109.79Z" fill="#fff"/>
          <path d="M67.69,98.09a5.74,5.74,0,0,1,2-1.77,5.52,5.52,0,0,1,2.63-.63,5.06,5.06,0,0,1,3.92,1.51,6.64,6.64,0,0,1,1.41,4.66v9.87H74.78v-9.9A4.2,4.2,0,0,0,73.94,99,3.19,3.19,0,0,0,71.45,98a4.62,4.62,0,0,0-2.23.5,4,4,0,0,0-1.53,1.4v11.81H64.82V89h2.87Z" fill="#fff"/>
          <path d="M84.87,92H82V89h2.87Zm0,19.78H82V96h2.87Z" fill="#fff"/>
          <path d="M91.84,96l.2,2.34a5.79,5.79,0,0,1,2-1.94,5.32,5.32,0,0,1,2.7-.69,5.16,5.16,0,0,1,4,1.49,6.57,6.57,0,0,1,1.4,4.61v9.94H99.19v-9.88a4.26,4.26,0,0,0-.82-3A3.31,3.31,0,0,0,95.86,98a4.36,4.36,0,0,0-2.25.53A3.83,3.83,0,0,0,92.14,100v11.69H89.28V96Z" fill="#fff"/>
          <path d="M105.71,104.15A10.51,10.51,0,0,1,107.33,98a5.22,5.22,0,0,1,4.54-2.33,5.52,5.52,0,0,1,2.63.6A5.37,5.37,0,0,1,116.41,98l.35-2H119v15.84a6,6,0,0,1-1.76,4.65,7.24,7.24,0,0,1-5.08,1.62,10.6,10.6,0,0,1-2.45-.31,10,10,0,0,1-2.32-.85l.43-2.23a8.41,8.41,0,0,0,2,.7,10.23,10.23,0,0,0,2.3.27,4.15,4.15,0,0,0,3-1,3.93,3.93,0,0,0,1-2.9V110a5.12,5.12,0,0,1-1.85,1.5,5.92,5.92,0,0,1-2.49.5,5.41,5.41,0,0,1-4.51-2.08,8.75,8.75,0,0,1-1.62-5.5Zm2.87.3a6.68,6.68,0,0,0,1,3.81,3.38,3.38,0,0,0,3,1.45,3.79,3.79,0,0,0,2.16-.59,4.49,4.49,0,0,0,1.45-1.67V100.2a4.37,4.37,0,0,0-1.45-1.59A3.7,3.7,0,0,0,112.6,98a3.27,3.27,0,0,0-3,1.7,8.86,8.86,0,0,0-1,4.43Z" fill="#fff"/>
        </g>
        <g>
          <path d="M5.09,183.09v3.29H7.51v2.25H5.09v7.47a1.63,1.63,0,0,0,.36,1.19,1.3,1.3,0,0,0,1,.36,3.89,3.89,0,0,0,.49,0,3,3,0,0,0,.45-.12l.32,2.22a3.46,3.46,0,0,1-.91.33,5.1,5.1,0,0,1-1.11.12,3.52,3.52,0,0,1-2.63-1,4.26,4.26,0,0,1-1-3.08v-7.47H0v-2.25H2.06v-3.29Z" fill="#fff"/>
          <path d="M13.09,188.13a4.81,4.81,0,0,1,1.64-1.48,4.44,4.44,0,0,1,2.15-.52,4.25,4.25,0,0,1,3.35,1.35,6.14,6.14,0,0,1,1.21,4.18v8.24h-3v-8.26a3.53,3.53,0,0,0-.62-2.31,2.3,2.3,0,0,0-1.84-.72,3.86,3.86,0,0,0-1.69.35,3.08,3.08,0,0,0-1.16.95v10h-3V180.4h3Z" fill="#fff"/>
          <path d="M30.45,200.16a5.88,5.88,0,0,1-4.63-1.87,7,7,0,0,1-1.67-4.84V193A7.27,7.27,0,0,1,25.82,188a5.4,5.4,0,0,1,4.31-1.91,5.06,5.06,0,0,1,4.12,1.68,6.8,6.8,0,0,1,1.4,4.49v1.64H27.29l0,.06a4.47,4.47,0,0,0,.88,2.7,3,3,0,0,0,2.49,1,6.82,6.82,0,0,0,2.14-.3,6.1,6.1,0,0,0,1.68-.87l1,2a6.51,6.51,0,0,1-2,1.14A8.56,8.56,0,0,1,30.45,200.16Zm-.32-11.6a2.33,2.33,0,0,0-1.9.86,4.21,4.21,0,0,0-.89,2.23l0,.06h5.29v-.24a3.38,3.38,0,0,0-.61-2.1A2.22,2.22,0,0,0,30.13,188.56Z" fill="#fff"/>
        </g>
        <g>
          <path d="M103.52,155v-18.2h6A7.86,7.86,0,0,1,114.2,138a4.32,4.32,0,0,1,1.7,3.72,3.67,3.67,0,0,1-.68,2.16,4.25,4.25,0,0,1-1.9,1.46,4.11,4.11,0,0,1,2.7,1.51,4.59,4.59,0,0,1,.94,2.88,4.66,4.66,0,0,1-1.68,3.89,7.2,7.2,0,0,1-4.62,1.33Zm3-10.53h3.25a3.45,3.45,0,0,0,2.23-.67,2.31,2.31,0,0,0,.82-1.9,2.36,2.36,0,0,0-.86-2,4.08,4.08,0,0,0-2.51-.66h-2.93Zm0,2.26v5.85h4.1a3.62,3.62,0,0,0,2.42-.72,2.57,2.57,0,0,0,.86-2.08,2.9,2.9,0,0,0-.84-2.19,3.4,3.4,0,0,0-2.35-.86h-4.19Z" fill="#fff"/>
          <path d="M133.72,136.75v12a6,6,0,0,1-2,4.76,7.64,7.64,0,0,1-5.15,1.71,7.39,7.39,0,0,1-5-1.71,6,6,0,0,1-2-4.76v-12h3v12a3.71,3.71,0,0,0,4,4,4.15,4.15,0,0,0,3-1.06,3.89,3.89,0,0,0,1.12-3v-12Z" fill="#fff"/>
          <path d="M150,139.19h-5.62V155h-3V139.19h-5.54v-2.44H150Z" fill="#fff"/>
        </g>
        <g>
          <path d="M174,155h-3v-7.76h-8.14V155h-3v-18.2h3v8H171v-8h3Z" fill="#fff"/>
          <path d="M188.4,150.7H182l-1.4,4.25h-3.13l6.35-18.2h2.88l6.28,18.2h-3.14Zm-5.61-2.53h4.79L185.24,141h-.07Z" fill="#fff"/>
          <path d="M207.67,139.19h-5.62V155h-3V139.19h-5.54v-2.44h14.2Z" fill="#fff"/>
          <path d="M221,146.77h-7.12v5.76h8.39V155H210.88v-18.2h11.35v2.44h-8.31v5.14H221Z" fill="#fff"/>
        </g>
        <g>
          <path d="M134.1,121.12V83.35h13a15.61,15.61,0,0,1,11.42,4.43A15.22,15.22,0,0,1,163,99.12v6.26a15.22,15.22,0,0,1-4.48,11.35,15.66,15.66,0,0,1-11.42,4.39Zm7.58-31.93v26.1h5a7.88,7.88,0,0,0,6.38-2.75,10.79,10.79,0,0,0,2.31-7.18v-6.3a10.68,10.68,0,0,0-2.31-7.12,7.85,7.85,0,0,0-6.38-2.75Z" fill="#fff"/>
          <path d="M193.33,113H180.08l-2.57,8.14h-7.65l13-37.77h7.76l12.95,37.77H195.9ZM182,107h9.52L186.8,92.2h-.16Z" fill="#fff"/>
          <path d="M242.4,121.12h-7.55L219.6,95.31l-.16,0v25.78h-7.58V83.35h7.58l15.25,25.79.16,0V83.35h7.55Z" fill="#fff"/>
          <path d="M282.77,108.26l.05.15q.1,6.11-3.72,9.68t-10.62,3.58a14.73,14.73,0,0,1-11.08-4.39A15.49,15.49,0,0,1,253.15,106V98.5a15.79,15.79,0,0,1,4.15-11.28,14.13,14.13,0,0,1,10.79-4.41q7,0,10.94,3.59t3.84,9.79l-.05.16h-7.36a8.27,8.27,0,0,0-1.79-5.72c-1.2-1.32-3.06-2-5.58-2a6.32,6.32,0,0,0-5.4,2.76,11.73,11.73,0,0,0-2,7V106a11.38,11.38,0,0,0,2.11,7.09,6.76,6.76,0,0,0,5.68,2.76c2.37,0,4.12-.63,5.25-1.91a8.29,8.29,0,0,0,1.7-5.66Z" fill="#fff"/>
          <path d="M316.22,104.52H300.57v10.77h18.29v5.83H293V83.35h25.81v5.84H300.57v9.49h15.65Z" fill="#fff"/>
        </g>
        <path d="M286.61,206q.06-8.29,2.46-12.15t9.57-9.36a31.13,31.13,0,0,0,6.73-7.41,16.23,16.23,0,0,0,2.52-8.89c0-3.63-1-6.48-2.88-8.53s-4.65-3.08-8.2-3.08a11,11,0,0,0-7.44,2.61c-2,1.73-3.07,4.28-3.11,7.64H269.43l-.12-.35q-.18-11.38,7.49-17.43t20-6q13.26,0,20.83,6.72T325.19,168A24,24,0,0,1,320.78,182a39.54,39.54,0,0,1-11.06,10.73,14.1,14.1,0,0,0-4.74,5.6,21.42,21.42,0,0,0-1.12,7.73ZM304,230.56H286.55V215.74H304Z" fill="#fff"/>
      </g>
    </g>
  </g>
</svg>
