<svg xmlns="http://www.w3.org/2000/svg" xmlns:xlink="http://www.w3.org/1999/xlink" viewBox="0 0 77.54 85.56"><defs><linearGradient id="linear-gradient" x1="39.13" y1="-2.91" x2="39.13" y2="72.73" gradientUnits="userSpaceOnUse"><stop offset="0.01" stop-color="#e7cee1"/><stop offset="1" stop-color="#ab1380"/></linearGradient><linearGradient id="linear-gradient-2" x1="61.54" y1="65.68" x2="26.34" y2="30.47" gradientUnits="userSpaceOnUse"><stop offset="0" stop-color="#bc1a8c"/><stop offset="0.12" stop-color="#c23798"/><stop offset="0.3" stop-color="#ca5ca6"/><stop offset="0.48" stop-color="#d179b2"/><stop offset="0.66" stop-color="#d58dba"/><stop offset="0.83" stop-color="#d89abf"/><stop offset="1" stop-color="#d99ec1"/></linearGradient><radialGradient id="radial-gradient" cx="-0.9" cy="29.92" r="72.73" gradientTransform="translate(0 -1.73)" gradientUnits="userSpaceOnUse"><stop offset="0" stop-color="#fff"/><stop offset="1" stop-color="#b62489"/></radialGradient><radialGradient id="radial-gradient-2" cx="19.59" cy="37.18" r="42.79" gradientTransform="translate(0 -1.73)" gradientUnits="userSpaceOnUse"><stop offset="0.42" stop-color="#fff"/><stop offset="1" stop-color="#bc1a8c"/></radialGradient><linearGradient id="linear-gradient-3" x1="53.72" y1="48.53" x2="77.34" y2="72.15" gradientUnits="userSpaceOnUse"><stop offset="0.01" stop-color="#bc1a8c"/><stop offset="1" stop-color="#f7bdd6"/></linearGradient><linearGradient id="linear-gradient-4" x1="16.44" y1="32.16" x2="2.31" y2="21.6" gradientUnits="userSpaceOnUse"><stop offset="0" stop-color="#d365a5"/><stop offset="0.16" stop-color="#df8fbe"/><stop offset="0.34" stop-color="#eab7d5"/><stop offset="0.52" stop-color="#f3d6e7"/><stop offset="0.69" stop-color="#faedf4"/><stop offset="0.85" stop-color="#fefafc"/><stop offset="1" stop-color="#fff"/></linearGradient></defs><title>dancebizicon</title><g id="Layer_2" data-name="Layer 2"><g id="Layer_1-2" data-name="Layer 1"><path d="M8.85,1.47A7.66,7.66,0,0,0,1.4,9.32v67.9a7.66,7.66,0,0,0,7.45,7.85H69.42a7.66,7.66,0,0,0,7.45-7.85V9.32a7.66,7.66,0,0,0-7.45-7.85Z" fill="url(#linear-gradient)"/><path d="M74.46,77.22a5.25,5.25,0,0,1-5,5.43H8.85a5.25,5.25,0,0,1-5-5.43V9.32A5.25,5.25,0,0,1,8.85,3.89H69.42a5.25,5.25,0,0,1,5,5.43Z" fill="url(#linear-gradient-2)"/><path d="M69.42,3.89H8.85a5.25,5.25,0,0,0-5,5.43V19c7.52,13.23,21.94,24,40,28.22a66.47,66.47,0,0,0,30.64,0V9.32A5.25,5.25,0,0,0,69.42,3.89Z" fill="url(#radial-gradient)"/><ellipse cx="39.66" cy="44.83" rx="29.56" ry="29.63" opacity="0.24" fill="url(#radial-gradient-2)"/><path d="M70.83,7.21v66a5.29,5.29,0,0,1-5.12,5.44H25.43a4.62,4.62,0,0,0,3.71,1.91H67.78a5,5,0,0,0,4.77-5.14V11.16A5.29,5.29,0,0,0,70.83,7.21Z" opacity="0.25" fill="url(#linear-gradient-3)"/><path d="M7.06,79.09v-66a5.28,5.28,0,0,1,5.13-5.43H55.57a4.63,4.63,0,0,0-3.71-1.92H10.12a5,5,0,0,0-4.78,5.14V75.14A5.3,5.3,0,0,0,7.06,79.09Z" opacity="0.25" fill="url(#linear-gradient-4)"/><path d="M1.17,67.39S.94,54.58,10.88,49.46C23.8,42.79,44.76,45,56.94,29.19,66.42,16.84,59.87,1.5,59.87,1.5a3.33,3.33,0,0,0-4.24,0s4.28,6.71,3.57,17.67c-.45,7-6.85,20-28.91,22.83C10.42,44.56,2.75,49.22.94,55.28.94,55.28-1.32,59.71,1.17,67.39Z" fill="#fff"/><path d="M19.89,44.17c.16,0,.17,1,.36,1.08-2.87,3.94-1.08,6.09-4.7,16.91C13.75,67.53,9.8,78.71,8.07,85a2,2,0,0,0,2.82-.08s2.47-4.67,3.54-5.57c2.87-2.42.58-5.66,1.12-7.13a43.59,43.59,0,0,1,5-10.28,29.59,29.59,0,0,0,3.66-9.4,29.7,29.7,0,0,1,1.71-5.31,5.14,5.14,0,0,0,.55-.06C24.45,46.24,22.71,43.83,19.89,44.17Z" fill="#fff"/><path d="M49.84,8A.49.49,0,0,1,50,7.82Zm-.5.64a.48.48,0,0,1,.08-.16A1,1,0,0,0,49.34,8.59ZM69.89,60a34.56,34.56,0,0,1-4.15-.88c-4.17-1.39-7.34-4.84-11.08-7s-4.17-1.71-6-3.06c-1-.74-2.92-2.56-3.79-3.4a2.25,2.25,0,0,1,1.88-.18S41.4,39.93,39,37.73a21.77,21.77,0,0,0-6.92-4.12c-1.43-.71-.54-2.61.61-4.2l.42-.28a17.08,17.08,0,0,0,4.21-3.71c.76-.6,1.47-1.38,2.54-2.17a6,6,0,0,1,.56-.37c.13,2.38,4,3.8,4,3.8-3.17-2.39-2-4-2-4,2.83,6.6,11.29,4.84,11.29,4.84-8,1-9.38-3.17-8.52-4.91a11.18,11.18,0,0,1,.7-1.16l.32,0a2.5,2.5,0,0,0,.09,3.19c-1.09-1.56.52-3,.52-3A3.51,3.51,0,0,0,50,26.42c-3.89-1.05-2.52-3.93-2.13-4.61a.81.81,0,0,0,0,.15,1.89,1.89,0,0,0,.36,1.48c1,2.11,4.37,2.51,4.37,2.51-2.73-.53-3.48-2-3.68-2.8a4.38,4.38,0,0,1,1.85-2.54A28.84,28.84,0,0,1,56,19.27,32.61,32.61,0,0,0,65.4,17a34.72,34.72,0,0,1,6.42-2.24c1-.12.72.11,1,1.18s1.22,1.45,2,2.75c.61.94,1.64,1.09,1.29.63s-1.05-1.87-.58-2.13,1.37,1.29,1.31,2.84c1.08-1.37.81-4.14-.18-5-2-1.74-3.77-2.82-5.23-2.43s-8.84,1.34-12.39,1.8c-3.06.39-4.34,1.3-6.53,1.4a5.82,5.82,0,0,0,0-3.44,4.23,4.23,0,0,0-1.73-2.54c-.42-.35-1.37-1.21-1-1.82a1.27,1.27,0,0,0-.28,1.17.36.36,0,0,1,0,.09l-.2-.07a.67.67,0,0,1-.06-.55,1.51,1.51,0,0,0-.16.47l-.12,0a1.85,1.85,0,0,1-1.32-.13c-.44-.34-1.24-.6-1.64-1.09s-.51.2-.77.24A2.86,2.86,0,0,1,44.64,8s-.37-.29-.53,0-.11.15-.28-.1-.32.11-.58.15a1,1,0,0,1-.69-.12c-.35-.15-.77.24-.87,1a2.89,2.89,0,0,1-1.57,2c-.35.14-.73.32-1.14.53h0c-1.09.57-2.31,1.31-3.18,1.86a18.11,18.11,0,0,0-3.83-1.79,18,18,0,0,1-6.38-3.69,29.35,29.35,0,0,0-6.19-4.51c-1.74-1-2.87-1.76-3.58-2.23C13.93.06,11.11-1,7.41,1.66a44.62,44.62,0,0,1,4.81-.1c.79,0,1.35.33,4,2.8s5.46,5.81,9.91,8.44A18.9,18.9,0,0,1,30.27,16c-.83.58-2.5.58-3.56.86-1.45.39-2.89.87-3,2.49A12.1,12.1,0,0,1,22.65,25a25.82,25.82,0,0,0-1.77,7c-.08.34-.17.71-.28,1.12-.66,2.46-.57,6.74-2.54,9.7a24.79,24.79,0,0,0-3.19,6.37c1.6-1,2.81-.38,5.13-.46,3.3-.1,6.4,2.6,9.75,3.11a18.43,18.43,0,0,0,5,.14c.87-.11,4.26-1.73,4.75-1.54,1.83.71,5.12,3,6.82,3.62,3.22,1.08,6.07,2.72,9.24,3.81a86.43,86.43,0,0,1,13.19,5.62,38.05,38.05,0,0,0,8.13,3.43,4.39,4.39,0,0,0,0-4.51A25.91,25.91,0,0,0,69.89,60Z" fill="#fff"/></g></g></svg>