<svg id="artboard_original" data-name="artboard original" xmlns="http://www.w3.org/2000/svg" viewBox="0 0 50 50">
  <title>signup-headset</title>
  <path id="curve28" d="M42.54,19.46H40.69a.92.92,0,0,0-.92.92V37a.92.92,0,0,0,.92.92h1.85a4.6,4.6,0,0,0,4.61-4.61V24.08A4.61,4.61,0,0,0,42.54,19.46Zm-1,20.31c-.37,3.65-2.81,5.54-6.42,5.54H32.27a4.57,4.57,0,0,1-1.58,2.41,6.4,6.4,0,0,1-7.68,0,4.12,4.12,0,0,1,0-6.67,6.4,6.4,0,0,1,7.68,0,4.57,4.57,0,0,1,1.58,2.41h2.88c2.64,0,4.31-1.17,4.58-3.87A2.76,2.76,0,0,1,37.92,37V20.38a2.77,2.77,0,0,1,2.77-2.76h1.85A6.45,6.45,0,0,1,49,24.08v9.23a6.46,6.46,0,0,1-6.46,6.46ZM6.76,15.8C8.22,7,16.24,1,25,1S41.78,7,43.24,15.8c-.23,0-.47,0-.7,0H41.36C39.9,8,32.74,2.85,25,2.85S10.1,8,8.64,15.77H7.46C7.23,15.77,7,15.78,6.76,15.8Zm.7,1.82H9.31a2.77,2.77,0,0,1,2.77,2.76V37a2.78,2.78,0,0,1-2.77,2.77H7.46A6.46,6.46,0,0,1,1,33.31V24.08A6.45,6.45,0,0,1,7.46,17.62Zm1.85,1.84H7.46a4.61,4.61,0,0,0-4.61,4.62v9.23a4.6,4.6,0,0,0,4.61,4.61H9.31a.92.92,0,0,0,.92-.92V20.38A.92.92,0,0,0,9.31,19.46Zm20.22,23a4.58,4.58,0,0,0-5.37,0,2.28,2.28,0,0,0,0,3.79,4.58,4.58,0,0,0,5.37,0,2.28,2.28,0,0,0,0-3.79Z" fill="#eb66bd"/>
</svg>
