<svg id="artboard_original" data-name="artboard original" xmlns="http://www.w3.org/2000/svg" viewBox="0 0 50 50">
  <title>signup-install</title>
  <path id="curve28" d="M6.5,11V2.24H45V28.5H26.64V32h7.88v1.75H17V32h7.88V28.5H6.5V19.75H8.25v7h35V4h-35v7Zm4.38,31.52h4.38v1.75H10.88Zm25.39,0h4.37v1.75H36.27ZM12.63,39h3.5v1.75h-3.5Zm5.25,0h1.75v1.75H17.88Zm3.5,0h1.76v1.75H21.38Zm3.51,0h1.75v1.75H24.89Zm3.5,0h1.75v1.75H28.39Zm3.5,0h1.75v1.75H31.89Zm3.5,0h3.5v1.75h-3.5ZM17,42.51H34.52v1.75H17ZM45.25,46,40.4,37.69a.83.83,0,0,0-.76-.43H11.89a.84.84,0,0,0-.77.43L6.27,46Zm0,1.75h-39a1.76,1.76,0,0,1-1.51-2.63l4.86-8.32a2.6,2.6,0,0,1,2.27-1.3H39.64a2.6,2.6,0,0,1,2.26,1.3l4.86,8.32a1.76,1.76,0,0,1-1.51,2.63ZM3,14.49H17.52L12,9l1.24-1.25,7,7,.61.62-.61.62-7,7L12,21.75l5.51-5.5H3Z" fill="#eb66bd"/>
</svg>
