<svg xmlns="http://www.w3.org/2000/svg" viewBox="0 0 362.61 239.14">
  <title>classbiz-main-headline</title>
  <g id="Layer_2" data-name="Layer 2">
    <g id="outlined">
      <g>
        <g>
          <path d="M87.33,51.35h26.58v9.23H75.35V.86h12Z" fill="#fff"/>
          <path d="M171.28,36.09q0,11-6.95,18.17t-18.07,7.18q-11,0-17.92-7.18t-6.89-18.17V25.35q0-11,6.87-18.15T146.22,0q11.11,0,18.09,7.2t7,18.15Zm-12-10.79q0-7-3.49-11.47a11.49,11.49,0,0,0-9.6-4.48,11.18,11.18,0,0,0-9.47,4.46q-3.37,4.46-3.37,11.49V36.14q0,7.11,3.41,11.59a11.22,11.22,0,0,0,9.47,4.48,11.42,11.42,0,0,0,9.6-4.48q3.45-4.47,3.45-11.59Z" fill="#fff"/>
          <path d="M204.74,44.71l.74,3.24h.25l.69-3.16,13-43.93h12.63l-20.3,59.72H199.45L179.19.86h12.63Z" fill="#fff"/>
          <path d="M279.5,34.33H254.77v17h28.92v9.23H242.8V.86h40.81v9.23H254.77v15H279.5Z" fill="#fff"/>
        </g>
        <g>
          <path d="M86.56,215.86h-17L66.3,226.29H56.51l16.63-48.35h9.93l16.57,48.35h-9.8ZM72,208.26H84.17l-6-19H78Z" fill="#fff"/>
          <path d="M107.28,226.29V177.94h16.6a20,20,0,0,1,14.61,5.66,19.53,19.53,0,0,1,5.75,14.53v8q0,8.91-5.75,14.53a20,20,0,0,1-14.61,5.63Zm9.7-40.88v33.41h6.41a10.1,10.1,0,0,0,8.16-3.52,13.8,13.8,0,0,0,3-9.19v-8.06a13.68,13.68,0,0,0-3-9.12,10.1,10.1,0,0,0-8.16-3.52Z" fill="#fff"/>
          <path d="M167.62,177.94l12.32,35.63h.2l12.42-35.63h12.68v48.35h-9.7V211.88l.93-21.35-.2,0-13,35.8h-6.5l-12.89-35.66-.2,0,.93,21.22v14.41H155V177.94Z" fill="#fff"/>
          <path d="M227.72,226.29H218V177.94h9.69Z" fill="#fff"/>
          <path d="M279.59,226.29h-9.66l-19.52-33-.2,0v33h-9.7V177.94h9.7l19.52,33,.2,0v-33h9.66Z" fill="#fff"/>
        </g>
        <g>
          <path d="M5.37,88.93v3.8h3v2.12h-3v9.57A2.14,2.14,0,0,0,5.83,106a1.66,1.66,0,0,0,1.21.45,3.05,3.05,0,0,0,.56-.07,3.63,3.63,0,0,0,.51-.14l.39,2a2.73,2.73,0,0,1-1,.43,4.78,4.78,0,0,1-1.23.16,3.72,3.72,0,0,1-2.78-1,4.58,4.58,0,0,1-1-3.31V94.85H0V92.73H2.5v-3.8Z" fill="#fff"/>
          <path d="M18.1,108.78a6.65,6.65,0,0,1-5.29-2.16,8.34,8.34,0,0,1-1.9-5.71v-.64a8.19,8.19,0,0,1,1.95-5.61,6.15,6.15,0,0,1,4.79-2.22,5.7,5.7,0,0,1,4.73,2A8.07,8.07,0,0,1,24,99.63v1.51H13.89l0,.08a6.59,6.59,0,0,0,1,3.85,3.68,3.68,0,0,0,3.21,1.47,7.33,7.33,0,0,0,2.55-.41A6,6,0,0,0,22.54,105l1.12,1.86a7,7,0,0,1-2.23,1.37A8.72,8.72,0,0,1,18.1,108.78Zm-.45-14.09a3.15,3.15,0,0,0-2.49,1.16,5.55,5.55,0,0,0-1.2,3l0,.08h7.1v-.24a4.57,4.57,0,0,0-.84-2.83A3,3,0,0,0,17.65,94.69Z" fill="#fff"/>
          <path d="M37,108.48c-.1-.48-.17-.9-.23-1.26a10,10,0,0,1-.09-1.1A6.72,6.72,0,0,1,34.6,108a5.32,5.32,0,0,1-2.77.76,5.15,5.15,0,0,1-3.75-1.25,4.64,4.64,0,0,1-1.29-3.48,4.07,4.07,0,0,1,1.83-3.53,8.5,8.5,0,0,1,4.95-1.27h3.12V97.69a2.87,2.87,0,0,0-.85-2.19,3.3,3.3,0,0,0-2.38-.81,3.49,3.49,0,0,0-2.26.7,2.12,2.12,0,0,0-.86,1.68l-2.72,0,0-.09a3.78,3.78,0,0,1,1.61-3.15,6.66,6.66,0,0,1,4.42-1.42,6.51,6.51,0,0,1,4.31,1.36,4.84,4.84,0,0,1,1.63,3.92v7.59a14.47,14.47,0,0,0,.08,1.63,9.16,9.16,0,0,0,.32,1.54Zm-4.76-2.1a5.06,5.06,0,0,0,2.81-.8,3.79,3.79,0,0,0,1.63-1.83v-2.56H33.47a4.18,4.18,0,0,0-2.77.87,2.59,2.59,0,0,0-1,2,2.18,2.18,0,0,0,.65,1.66A2.74,2.74,0,0,0,32.25,106.38Z" fill="#fff"/>
          <path d="M50.13,106.54a3.35,3.35,0,0,0,2.31-.88,2.77,2.77,0,0,0,1-2.16H56l0,.09a4.53,4.53,0,0,1-1.74,3.62,6.7,6.7,0,0,1-9.32-.68,8.74,8.74,0,0,1-1.8-5.62v-.61A8.67,8.67,0,0,1,45,94.7a6.17,6.17,0,0,1,5.12-2.26,5.92,5.92,0,0,1,4.31,1.63,5.17,5.17,0,0,1,1.62,4l0,.09H53.43a3.45,3.45,0,0,0-.94-2.45,3.06,3.06,0,0,0-2.36-1,3.31,3.31,0,0,0-3.08,1.64,7.64,7.64,0,0,0-1,4v.61a7.84,7.84,0,0,0,1,4A3.31,3.31,0,0,0,50.13,106.54Z" fill="#fff"/>
          <path d="M62.49,94.84a5.74,5.74,0,0,1,2-1.77,5.52,5.52,0,0,1,2.63-.63A5.09,5.09,0,0,1,71,94a6.64,6.64,0,0,1,1.4,4.66v9.87H69.58v-9.9a4.2,4.2,0,0,0-.84-2.88,3.19,3.19,0,0,0-2.5-.93,4.6,4.6,0,0,0-2.22.5,4,4,0,0,0-1.53,1.4v11.81H59.62V85.77h2.87Z" fill="#fff"/>
          <path d="M79.81,88.7H77V85.77h2.86Zm0,19.78H77V92.73h2.86Z" fill="#fff"/>
          <path d="M86.93,92.73l.21,2.34a5.71,5.71,0,0,1,2-1.94,5.27,5.27,0,0,1,2.7-.69,5.18,5.18,0,0,1,4,1.49,6.55,6.55,0,0,1,1.39,4.61v9.94H94.29V98.6a4.26,4.26,0,0,0-.83-3A3.3,3.3,0,0,0,91,94.77a4.41,4.41,0,0,0-2.25.53,3.87,3.87,0,0,0-1.46,1.49v11.69H84.37V92.73Z" fill="#fff"/>
          <path d="M101,100.9a10.51,10.51,0,0,1,1.62-6.13,5.19,5.19,0,0,1,4.53-2.33,5.59,5.59,0,0,1,2.64.6,5.34,5.34,0,0,1,1.9,1.74l.35-2h2.29v15.84a6,6,0,0,1-1.76,4.65,7.26,7.26,0,0,1-5.08,1.62,10.61,10.61,0,0,1-2.46-.31,9.73,9.73,0,0,1-2.32-.85l.44-2.23a8.32,8.32,0,0,0,2,.7,10.25,10.25,0,0,0,2.31.27,4.18,4.18,0,0,0,3-1,4,4,0,0,0,1-2.9v-1.79a5,5,0,0,1-1.85,1.5,5.92,5.92,0,0,1-2.49.5,5.37,5.37,0,0,1-4.5-2.08,8.75,8.75,0,0,1-1.62-5.5Zm2.86.3a6.68,6.68,0,0,0,1,3.81,3.36,3.36,0,0,0,3,1.45,3.82,3.82,0,0,0,2.17-.59,4.56,4.56,0,0,0,1.44-1.67V97A4.43,4.43,0,0,0,110,95.36a3.73,3.73,0,0,0-2.14-.59,3.27,3.27,0,0,0-3,1.7,8.86,8.86,0,0,0-1,4.43Z" fill="#fff"/>
        </g>
        <g>
          <path d="M22,191.67V195h2.42v2.25H22v7.47a1.66,1.66,0,0,0,.36,1.2,1.29,1.29,0,0,0,1,.35,2.63,2.63,0,0,0,.49,0,3,3,0,0,0,.45-.12l.32,2.23a3.53,3.53,0,0,1-.92.33,4.94,4.94,0,0,1-1.1.12,3.47,3.47,0,0,1-2.63-1,4.26,4.26,0,0,1-1-3.08v-7.47H16.88V195h2.06v-3.29Z" fill="#fff"/>
          <path d="M30,196.71a4.69,4.69,0,0,1,1.64-1.47,4.44,4.44,0,0,1,2.14-.53,4.23,4.23,0,0,1,3.36,1.36,6.15,6.15,0,0,1,1.21,4.18v8.23h-3v-8.26a3.5,3.5,0,0,0-.62-2.3,2.3,2.3,0,0,0-1.84-.72,3.83,3.83,0,0,0-1.69.34,3,3,0,0,0-1.16,1v10h-3V189h3Z" fill="#fff"/>
          <path d="M47.33,208.75a5.91,5.91,0,0,1-4.63-1.87A7,7,0,0,1,41,202v-.5a7.24,7.24,0,0,1,1.67-4.9,5.38,5.38,0,0,1,4.3-1.92,5.06,5.06,0,0,1,4.13,1.68,6.81,6.81,0,0,1,1.4,4.49v1.64H44.17l0,.06a4.47,4.47,0,0,0,.88,2.7,3,3,0,0,0,2.48,1,6.89,6.89,0,0,0,2.15-.3,6.36,6.36,0,0,0,1.68-.86l1,2a6.31,6.31,0,0,1-2,1.13A8.55,8.55,0,0,1,47.33,208.75ZM47,197.15a2.32,2.32,0,0,0-1.89.85,4.17,4.17,0,0,0-.89,2.23l0,.07h5.29v-.24a3.39,3.39,0,0,0-.61-2.11A2.25,2.25,0,0,0,47,197.15Z" fill="#fff"/>
        </g>
        <g>
          <path d="M110.81,156.24V135.1h6.92a9.08,9.08,0,0,1,5.48,1.45,5,5,0,0,1,2,4.32,4.25,4.25,0,0,1-.79,2.51,5,5,0,0,1-2.2,1.7,4.75,4.75,0,0,1,3.13,1.75,5.34,5.34,0,0,1,1.1,3.34,5.43,5.43,0,0,1-2,4.53,8.43,8.43,0,0,1-5.37,1.54ZM114.33,144h3.78a4,4,0,0,0,2.59-.77,2.68,2.68,0,0,0,1-2.2,2.72,2.72,0,0,0-1-2.33,4.75,4.75,0,0,0-2.92-.77h-3.4Zm0,2.63v6.8h4.77a4.19,4.19,0,0,0,2.81-.84,3,3,0,0,0,1-2.42,3.38,3.38,0,0,0-1-2.54,4,4,0,0,0-2.73-1h-4.87Z" fill="#fff"/>
          <path d="M146,135.1V149a6.91,6.91,0,0,1-2.32,5.52,8.81,8.81,0,0,1-6,2,8.54,8.54,0,0,1-5.87-2,7,7,0,0,1-2.27-5.52V135.1h3.53V149a4.32,4.32,0,0,0,4.61,4.7,4.82,4.82,0,0,0,3.45-1.23,4.52,4.52,0,0,0,1.31-3.47V135.1Z" fill="#fff"/>
          <path d="M165.08,137.93h-6.54v18.31H155V137.93h-6.43V135.1h16.5Z" fill="#fff"/>
        </g>
        <g>
          <path d="M192.67,156.24h-3.53v-9h-9.45v9h-3.53V135.1h3.53v9.29h9.45V135.1h3.53Z" fill="#fff"/>
          <path d="M209.87,151.31h-7.5l-1.62,4.93H197.1l7.38-21.14h3.35l7.29,21.14h-3.64Zm-6.52-2.95h5.56L206.19,140h-.08Z" fill="#fff"/>
          <path d="M232.7,137.93h-6.54v18.31h-3.52V137.93H216.2V135.1h16.5Z" fill="#fff"/>
          <path d="M248.68,146.73H240.4v6.7h9.76v2.81H236.87V135.1h13.19v2.83H240.4v6h8.28Z" fill="#fff"/>
        </g>
        <g>
          <path d="M156.81,105.5l.05.16q.1,6.09-3.72,9.67t-10.62,3.58a14.76,14.76,0,0,1-11.08-4.38,15.49,15.49,0,0,1-4.25-11.28v-7.5a15.81,15.81,0,0,1,4.15-11.29,14.13,14.13,0,0,1,10.79-4.41q7,0,11,3.6c2.63,2.39,3.9,5.66,3.84,9.79l-.06.15H149.5a8.25,8.25,0,0,0-1.79-5.71q-1.8-2-5.58-2a6.32,6.32,0,0,0-5.4,2.76,11.72,11.72,0,0,0-2,7v7.54a11.4,11.4,0,0,0,2.1,7.09,6.76,6.76,0,0,0,5.68,2.76q3.55,0,5.25-1.91a8.3,8.3,0,0,0,1.7-5.67Z" fill="#fff"/>
          <path d="M171.69,112.53H188.5v5.84H164.12V80.6h7.57Z" fill="#fff"/>
          <path d="M215.55,110.22H202.3l-2.57,8.15h-7.65l13-37.77h7.76l12.94,37.77h-7.65Zm-11.38-5.94h9.52L209,89.44h-.16Z" fill="#fff"/>
          <path d="M251.55,108.51A4.38,4.38,0,0,0,250,105a15.67,15.67,0,0,0-5.41-2.49,30.88,30.88,0,0,1-10.2-4.62A8.74,8.74,0,0,1,231,90.59a9.05,9.05,0,0,1,4-7.59,16.5,16.5,0,0,1,10.1-3,15.23,15.23,0,0,1,10.15,3.31,9.9,9.9,0,0,1,3.78,8.16l-.05.15h-7.34a5.51,5.51,0,0,0-1.75-4.24,7,7,0,0,0-4.92-1.62,7.26,7.26,0,0,0-4.69,1.35,4.24,4.24,0,0,0-1.66,3.45,3.69,3.69,0,0,0,1.78,3.15,24.7,24.7,0,0,0,6.13,2.61q6.26,1.74,9.47,4.59a9.57,9.57,0,0,1,3.22,7.5,9,9,0,0,1-3.83,7.65q-3.83,2.81-10.1,2.8a18.5,18.5,0,0,1-10.77-3.17,9.92,9.92,0,0,1-4.46-8.91l.05-.16h7.37a5.78,5.78,0,0,0,2.06,4.94,9.27,9.27,0,0,0,5.75,1.57,7.56,7.56,0,0,0,4.72-1.27A4.09,4.09,0,0,0,251.55,108.51Z" fill="#fff"/>
          <path d="M287.11,108.51a4.41,4.41,0,0,0-1.54-3.5,15.77,15.77,0,0,0-5.41-2.49A30.88,30.88,0,0,1,270,97.9a8.74,8.74,0,0,1-3.45-7.31,9.05,9.05,0,0,1,4-7.59,16.46,16.46,0,0,1,10.1-3,15.2,15.2,0,0,1,10.14,3.31,9.88,9.88,0,0,1,3.79,8.16l-.05.15h-7.34a5.54,5.54,0,0,0-1.75-4.24,7,7,0,0,0-4.92-1.62,7.24,7.24,0,0,0-4.69,1.35,4.24,4.24,0,0,0-1.66,3.45,3.7,3.7,0,0,0,1.77,3.15A24.81,24.81,0,0,0,282,96.37q6.25,1.74,9.47,4.59a9.56,9.56,0,0,1,3.21,7.5,9,9,0,0,1-3.82,7.65q-3.83,2.81-10.11,2.8A18.5,18.5,0,0,1,270,115.74a9.92,9.92,0,0,1-4.46-8.91l.05-.16h7.36a5.79,5.79,0,0,0,2.07,4.94,9.26,9.26,0,0,0,5.74,1.57,7.57,7.57,0,0,0,4.73-1.27A4.11,4.11,0,0,0,287.11,108.51Z" fill="#fff"/>
          <path d="M325.49,101.77H309.85v10.76h18.29v5.84H302.28V80.6h25.81v5.83H309.85v9.5h15.64Z" fill="#fff"/>
          <path d="M355,108.51a4.38,4.38,0,0,0-1.54-3.5,15.67,15.67,0,0,0-5.41-2.49,30.82,30.82,0,0,1-10.19-4.62,8.74,8.74,0,0,1-3.45-7.31A9,9,0,0,1,338.39,83a16.51,16.51,0,0,1,10.11-3,15.2,15.2,0,0,1,10.14,3.31,9.94,9.94,0,0,1,3.79,8.16l-.06.15H355a5.51,5.51,0,0,0-1.75-4.24,7,7,0,0,0-4.91-1.62,7.27,7.27,0,0,0-4.7,1.35A4.24,4.24,0,0,0,342,90.61a3.69,3.69,0,0,0,1.78,3.15,24.7,24.7,0,0,0,6.13,2.61q6.25,1.74,9.47,4.59a9.54,9.54,0,0,1,3.22,7.5,9,9,0,0,1-3.83,7.65q-3.82,2.81-10.1,2.8a18.5,18.5,0,0,1-10.77-3.17,9.92,9.92,0,0,1-4.46-8.91l.05-.16h7.37a5.81,5.81,0,0,0,2.06,4.94,9.29,9.29,0,0,0,5.75,1.57,7.56,7.56,0,0,0,4.72-1.27A4.09,4.09,0,0,0,355,108.51Z" fill="#fff"/>
        </g>
        <path d="M303.49,214.61q.06-8.3,2.46-12.15t9.57-9.37a31.5,31.5,0,0,0,6.73-7.4,16.25,16.25,0,0,0,2.52-8.89c0-3.64-1-6.48-2.88-8.54s-4.65-3.08-8.21-3.08a11,11,0,0,0-7.43,2.61q-3.06,2.61-3.12,7.65H286.3l-.11-.36q-.18-11.39,7.49-17.42t20-6q13.27,0,20.83,6.73t7.56,18.28a24,24,0,0,1-4.42,13.93,39.34,39.34,0,0,1-11,10.72,14.17,14.17,0,0,0-4.74,5.6,21.45,21.45,0,0,0-1.13,7.74Zm17.36,24.53H303.43V224.33h17.42Z" fill="#fff"/>
      </g>
    </g>
  </g>
</svg>
