<svg id="Layer_1" data-name="Layer 1" xmlns="http://www.w3.org/2000/svg" viewBox="0 0 50 50">
  <title>bank_building</title>
  <path id="curve29" d="M43.21,18.67v1.82a2.34,2.34,0,0,1-1.7,2.61,143.87,143.87,0,0,1,.79,17.42h4.55v1.82h1.82V47.8H1.33V42.34H3.15V40.52H7.7c0-2.49,0-5.31.12-8.34s.3-6.15.68-9.1a2.39,2.39,0,0,1-1.71-2.59V18.67H5V15.94H2.59L1,12.76,25,2.2,49,12.76l-1.59,3.18H45v2.73ZM5,42.34v1.82H3.15V46h43.7V44.16H45V42.34Zm28.22-1.82c0-2.49,0-5.31.12-8.34s.3-6.15.69-9.1a2.4,2.4,0,0,1-1.72-2.59V18.67H17.72v1.82A2.34,2.34,0,0,1,16,23.1a142,142,0,0,1,.8,17.42Zm10-23.67V14.12H46.3l.22-.47L25,4.18,3.48,13.65l.22.47H6.79v2.73ZM25,8.26,13.76,13.2H36.24Zm0-2,16.39,7.21V15H8.61V13.49ZM29.55,26a2.73,2.73,0,0,0-2.73-2.73h-.91v5.46h.91a4.56,4.56,0,0,1,0,9.11h-.91v1.82H24.09V37.79h-.91a4.55,4.55,0,0,1-4.55-4.55h1.82A2.73,2.73,0,0,0,23.18,36h.91V30.5h-.91a4.55,4.55,0,0,1,0-9.1h.91V19.58h1.82V21.4h.91A4.55,4.55,0,0,1,31.37,26Zm-5.46-2.73h-.91a2.73,2.73,0,1,0,0,5.46h.91ZM25.91,36h.91a2.74,2.74,0,0,0,0-5.47h-.91Zm-10-15.48V18.67H8.61v1.82c0,.71.16.91.91.91h1.05l-.15,1a92.72,92.72,0,0,0-.79,9.8c-.1,2.85-.11,5.73-.11,8.28H15a132,132,0,0,0-.9-18.08l-.14-1h1C15.9,21.4,15.9,20.73,15.9,20.49Zm25.49,0V18.67H34.1v1.82c0,.71.16.91.92.91h1l-.14,1a90.14,90.14,0,0,0-.8,9.8C35,35.09,35,38,35,40.52h5.46a133.57,133.57,0,0,0-.9-18.08l-.15-1h1A.8.8,0,0,0,41.39,20.49Z" fill="#eb66bd"/>
</svg>
