<svg id="Layer_1" data-name="Layer 1" xmlns="http://www.w3.org/2000/svg" viewBox="0 0 50 50">
  <title>chart_line</title>
  <path id="curve28" d="M48.89,5.44,42,19.27l-5.2-9.34L31.41,20.65l-5.57-5.59L20.25,26.23,14.4,20.38,8.55,26.23,5.1,19.35V14.93l4,8,5.31-5.32,5.32,5.32,5.57-11.17,5.58,5.58L36.68,5.68,41.87,15l7-14Zm0,18-6.6,6.23L37,24.37,31.41,35.53,25.84,30,20.25,41.12,14.4,35.27,8.85,40.82,5.1,37.34v-2.7l3.69,3.42,5.61-5.61,5.32,5.31L25.29,26.6l5.58,5.58L36.46,21l5.87,5.88,6.56-6.18ZM3.1,1.23V47H48.89v2H1.11V1.23Z" fill="#eb66bd"/>
</svg>
