<svg id="Layer_1" data-name="Layer 1" xmlns="http://www.w3.org/2000/svg" viewBox="0 0 50 50">
  <title>ocr-desktop</title>
  <g>
    <path d="M46.28,2.5H3.68A1.4,1.4,0,0,0,2.3,3.92V38.43a1.4,1.4,0,0,0,1.42,1.38H19.33v3.43a3.05,3.05,0,0,1-2.84,2.84H13.65V47.5h22.7V46.08H33.51a3.05,3.05,0,0,1-2.84-2.84V39.81H46.32A1.4,1.4,0,0,0,47.7,38.4V3.88A1.4,1.4,0,0,0,46.28,2.5ZM44.86,37H5.14V5.34H44.86Z" fill="#eb66bd"/>
    <path d="M32.71,28.91a10.9,10.9,0,1,0-15.42,0A10.91,10.91,0,0,0,32.71,28.91Zm-1.95-7.24-3.16,1,2.24,3.07-2.17,1.57-2.24-3.07-1.92,2.7L20.76,15.56Z" fill="#eb66bd"/>
  </g>
</svg>
