<svg id="Layer_1" data-name="Layer 1" xmlns="http://www.w3.org/2000/svg" viewBox="0 0 50 50">
  <title>payment-gateways</title>
  <path d="M45.39,22.56a1,1,0,0,1-.24,0,1.1,1.1,0,0,1-.82-1.31c1.5-6.46.19-12-3.59-15.25C35.18,1.21,25.3,2.79,17.24,9.74a1.09,1.09,0,0,1-1.53-.15,1.1,1.1,0,0,1,.11-1.51c9-7.77,19.85-9.32,26.33-3.77,4.35,3.72,6,10.23,4.3,17.4A1.1,1.1,0,0,1,45.39,22.56Z" fill="#eb66bd"/>
  <path d="M17.35,49a14.89,14.89,0,0,1-9.84-3.43A14.43,14.43,0,0,1,3,38a1.09,1.09,0,1,1,2.1-.58h0a.09.09,0,0,0,0,.05,12.26,12.26,0,0,0,3.86,6.45c5.1,4.36,13.81,3.67,21.68-1.73A1.09,1.09,0,1,1,31.86,44l0,0C27,47.31,21.91,49,17.35,49Z" fill="#eb66bd"/>
  <g>
    <path d="M37.45,29.55l-.21.19a3.3,3.3,0,0,1-2.21.85h-9.3v2.54H37.45Z" fill="#eb66bd"/>
    <path d="M38.47,22.57V24a1,1,0,0,1,1,1V38.74a1,1,0,0,1-1,1H16.69a1,1,0,0,1-1-1V30.59h-1.4v8.15a2.42,2.42,0,0,0,2.42,2.41H38.47a2.41,2.41,0,0,0,2.41-2.41V25A2.41,2.41,0,0,0,38.47,22.57Z" fill="#eb66bd"/>
    <path d="M37.45,34.6H25.73v4.26H37.45ZM27.13,37.47V36h8.92v1.47Z" fill="#eb66bd"/>
  </g>
  <g>
    <path d="M26,23.16a5,5,0,0,1,1.35-3.42l.1-.12-.13-.07a4.14,4.14,0,1,0,0,7.23l.14-.08-.11-.12A5,5,0,0,1,26,23.16Z" fill="#eb66bd"/>
    <path d="M31,19a4.14,4.14,0,1,0,4.13,4.13A4.14,4.14,0,0,0,31,19Zm2.74,4.13A2.74,2.74,0,1,1,31,20.42,2.74,2.74,0,0,1,33.76,23.16Z" fill="#eb66bd"/>
    <path d="M35,11H13.25a2.42,2.42,0,0,0-2.41,2.42V27.17a2.41,2.41,0,0,0,2.41,2.42H35a2.42,2.42,0,0,0,2.42-2.42V13.42A2.43,2.43,0,0,0,35,11Zm1,16.17a1,1,0,0,1-.3.72,1,1,0,0,1-.72.3H13.25a1,1,0,0,1-1-1V13.42a1,1,0,0,1,1-1H35a1,1,0,0,1,1,1Z" fill="#eb66bd"/>
  </g>
</svg>
