<svg id="Layer_1" data-name="Layer 1" xmlns="http://www.w3.org/2000/svg" viewBox="0 0 50 50">
  <title>printer</title>
  <g>
    <circle cx="8.38" cy="27.77" r="1.85" fill="#eb66bd"/>
    <path d="M13.92,29.62a1.85,1.85,0,1,0-1.84-1.85A1.86,1.86,0,0,0,13.92,29.62Z" fill="#eb66bd"/>
    <path d="M38.85,35.15H11.15a2.78,2.78,0,0,0-2.77,2.77v1.85a2.78,2.78,0,0,0,2.77,2.77h27.7a2.78,2.78,0,0,0,2.77-2.77V37.92A2.78,2.78,0,0,0,38.85,35.15Zm.92,4.62a.92.92,0,0,1-.92.92H11.15a.92.92,0,0,1-.92-.92v-.92H39.77Z" fill="#eb66bd"/>
    <path d="M44.38,22.23H5.62A4.63,4.63,0,0,0,1,26.85V41.62a4.63,4.63,0,0,0,4.62,4.61H44.38A4.63,4.63,0,0,0,49,41.62V26.85A4.63,4.63,0,0,0,44.38,22.23Zm2.77,19.39a2.77,2.77,0,0,1-2.77,2.76H5.62a2.77,2.77,0,0,1-2.77-2.76V26.85a2.77,2.77,0,0,1,2.77-2.77H44.38a2.77,2.77,0,0,1,2.77,2.77Z" fill="#eb66bd"/>
    <rect x="15.77" y="13" width="18.46" height="1.85" fill="#eb66bd"/>
    <path d="M12.08,5.62H37.92V20.38c.58,0,1.29,0,1.85,0V3.77H10.23V20.38h1.85Z" fill="#eb66bd"/>
    <rect x="15.77" y="16.69" width="18.46" height="1.85" fill="#eb66bd"/>
    <rect x="15.77" y="9.31" width="18.46" height="1.85" fill="#eb66bd"/>
  </g>
</svg>
