<svg id="Layer_1" data-name="Layer 1" xmlns="http://www.w3.org/2000/svg" viewBox="0 0 50 50">
  <title>recurring-charges</title>
  <g>
    <path d="M46.31,8.73a1.43,1.43,0,0,1,1.43,1.42V39.89a1.39,1.39,0,0,1-1.39,1.38H3.69a1.43,1.43,0,0,1-1.43-1.42V10.11A1.38,1.38,0,0,1,3.65,8.73H46.31m0-1.27H3.65A2.65,2.65,0,0,0,1,10.11V39.85a2.69,2.69,0,0,0,2.69,2.69H46.35A2.65,2.65,0,0,0,49,39.89V10.15a2.69,2.69,0,0,0-2.69-2.69Z" fill="#eb66bd"/>
    <path id="curve6" d="M6.14,22.25h4.67a1.54,1.54,0,0,1,1.56,1.51v4.71A1.55,1.55,0,0,1,10.85,30H6.14a1.53,1.53,0,0,1-1.55-1.52V23.8A1.52,1.52,0,0,1,6.1,22.25Z" fill="#eb66bd"/>
    <rect x="1" y="12.91" width="48" height="4.87" fill="#eb66bd"/>
    <path d="M20.42,26.26c-2.82,1.58-3.31,6.33-.24,9.23a10.45,10.45,0,0,0,7.06,2.89c.42,0-.11,2,.51,1.68A22.65,22.65,0,0,0,32,36.35a1.13,1.13,0,0,0,.24-.5c0-.56-3.78-3.5-4.57-3.86s.1,1.82-.43,1.75c-.79-.11-4.25-.21-6.21-3.25C19.58,28.31,20.81,26,20.42,26.26Z" fill="#eb66bd"/>
    <path d="M33.17,33.06c2.78-1.66,3.14-6.42,0-9.24A10.51,10.51,0,0,0,26,21.11c-.42,0,0-2-.56-1.66a22.56,22.56,0,0,0-4.1,3.83,1,1,0,0,0-.23.5c0,.56,3.87,3.4,4.67,3.73s-.16-1.81.38-1.75c.79.09,4.25.09,6.29,3.08C34,31,32.79,33.28,33.17,33.06Z" fill="#eb66bd"/>
  </g>
</svg>
