<svg id="Layer_1" data-name="Layer 1" xmlns="http://www.w3.org/2000/svg" viewBox="0 0 50 50">
  <title>refunds</title>
  <path d="M48.49,31v0a3.74,3.74,0,0,0-5.15-1.25l-6.89,4.13-2.72.42a.4.4,0,0,0,.1-.24,3.69,3.69,0,0,0-2.39-4.68L21.21,26.05a3.74,3.74,0,0,0-2.11-.23l-6,1.08H10.58v-.37a0,0,0,0,0,0-.05,2.07,2.07,0,0,0-2.08-2H6.89a1.51,1.51,0,0,0-1.39-.92H1v21H5.54a1.49,1.49,0,0,0,1.35-.92H8.55a2.06,2.06,0,0,0,2-2.08V39.28h1.2l11.49,3.23a3.27,3.27,0,0,0,1,.14h4.5a5.27,5.27,0,0,0,.89-.09l8.73-1.46a3.84,3.84,0,0,0,1.5-.61l7.3-4.4A3.74,3.74,0,0,0,48.49,31ZM9.42,28.07V41.53a.9.9,0,0,1-.89.91H7V25.61H8.51a.87.87,0,0,1,.64.25.93.93,0,0,1,.27.64v1.57Zm37.17,7h0L39.26,39.5h0l0,0a2.69,2.69,0,0,1-1,.42l-8.72,1.46h0a3.83,3.83,0,0,1-.68.08H24.26a2.53,2.53,0,0,1-.67-.1h0L12.1,38.15l-.16,0H10.58v-10h2.67l.1,0,6-1.08h0a2.3,2.3,0,0,1,.45,0,2.48,2.48,0,0,1,1,.2l.05,0,.06,0,10.21,3.28a2.58,2.58,0,0,1,1.52,1.3,2.47,2.47,0,0,1,.14,1.87l-2.18,2.31,3.36-.52L36.62,35l.22,0,.2-.12,6.89-4.13h0a2.57,2.57,0,0,1,3.54.86h0A2.57,2.57,0,0,1,46.59,35.08Z" fill="#eb66bd"/>
  <path d="M34.7,4A11.62,11.62,0,1,0,46.31,15.59,11.63,11.63,0,0,0,34.7,4Zm0,22.23A10.62,10.62,0,1,1,45.31,15.59,10.63,10.63,0,0,1,34.7,26.21Z" fill="#eb66bd"/>
  <path d="M9.39,20.63a.62.62,0,0,0,.87-.1.63.63,0,0,0,.14-.4V17.71h8.69a.64.64,0,0,0,.62-.63v-3a.62.62,0,0,0-.62-.62h-8.7V11.06a.63.63,0,0,0-1-.5L3.54,15.11a.58.58,0,0,0,0,1Z" fill="#eb66bd"/>
  <path d="M36.54,18.84a1.69,1.69,0,0,0-.43-1.21,3.91,3.91,0,0,0-1.46-.87,9.37,9.37,0,0,1-3-1.65,3.36,3.36,0,0,1-1-2.57,3.45,3.45,0,0,1,1-2.53,4.24,4.24,0,0,1,2.66-1.15v-2h1.45v2a3.87,3.87,0,0,1,2.53,1.35,4.22,4.22,0,0,1,.9,2.88l0,0H36.54a2.67,2.67,0,0,0-.45-1.66,1.41,1.41,0,0,0-1.21-.59,1.45,1.45,0,0,0-1.17.45,1.8,1.8,0,0,0-.39,1.21,1.63,1.63,0,0,0,.41,1.15,4.11,4.11,0,0,0,1.5.88,9.69,9.69,0,0,1,3,1.7,3.3,3.3,0,0,1,1,2.54,3.34,3.34,0,0,1-1,2.54,4.31,4.31,0,0,1-2.66,1.13V24.3H34.1V22.5a4.73,4.73,0,0,1-2.83-1.22,3.89,3.89,0,0,1-1.08-3.05l0,0h2.61a2.34,2.34,0,0,0,.56,1.75,2,2,0,0,0,1.44.53A1.69,1.69,0,0,0,36.09,20,1.58,1.58,0,0,0,36.54,18.84Z" fill="#eb66bd"/>
</svg>
