<svg id="Layer_1" data-name="Layer 1" xmlns="http://www.w3.org/2000/svg" viewBox="0 0 50 50">
  <title>sms</title>
  <path d="M24.45,2.69A25.75,25.75,0,0,1,39.62,7.53a21.12,21.12,0,0,1,5.3,5.59,19.37,19.37,0,0,1,2.83,7.33,22.38,22.38,0,0,1-.35,9.27,22.64,22.64,0,0,1-3.78,7.89,26.05,26.05,0,0,1-6.4,6.06,27.56,27.56,0,0,1-5.64,2.89c.21-3.08-.42-6.51-2.79-8.62l-.69-.61-.89.25a14.45,14.45,0,0,1-2.38.51h-.08a21.12,21.12,0,0,1-3,.21A20.13,20.13,0,0,1,10,34.61a15.18,15.18,0,0,1-6.31-10A17.58,17.58,0,0,1,4,17.45,18.38,18.38,0,0,1,7,10.9,20.21,20.21,0,0,1,20.73,3a27.25,27.25,0,0,1,3.72-.26h0m0-1.69a27.86,27.86,0,0,0-4,.28C7.6,3.11.24,14.26,2,24.91,3.58,34.32,12.51,40,21.77,40A23.25,23.25,0,0,0,25,39.77a16.1,16.1,0,0,0,2.68-.57c2.57,2.3,2.57,6.8,1.82,9.8,12.38-3.33,22.27-14.77,19.93-28.83C47.43,8.4,36.27,1,24.45,1Z" fill="#eb66bd"/>
  <path id="curve0" d="M14.6,24.21a1.2,1.2,0,0,0-.47-1,5.25,5.25,0,0,0-1.56-.75,15.71,15.71,0,0,1-1.88-.74c-1.56-.78-2.34-1.79-2.34-3.16a2.8,2.8,0,0,1,.58-1.76,4.07,4.07,0,0,1,1.64-1.21A7,7,0,0,1,13,15.19a6.08,6.08,0,0,1,2.3.43A3.6,3.6,0,0,1,16.9,17a3.38,3.38,0,0,1,.59,1.95H14.6a1.44,1.44,0,0,0-.47-1.13,1.65,1.65,0,0,0-1.21-.43,1.82,1.82,0,0,0-1.21.35,1.08,1.08,0,0,0-.47.9,1,1,0,0,0,.51.82,5.42,5.42,0,0,0,1.71.78,10.81,10.81,0,0,1,2.08.86,3.54,3.54,0,0,1,1.95,3.12,2.82,2.82,0,0,1-1.21,2.46,5.05,5.05,0,0,1-3.24.9A6.32,6.32,0,0,1,10.38,27a4.2,4.2,0,0,1-1.8-1.44A3.73,3.73,0,0,1,8,23.47h2.89a1.93,1.93,0,0,0,.5,1.45,2.46,2.46,0,0,0,1.65.46,1.68,1.68,0,0,0,1.13-.31A1,1,0,0,0,14.6,24.21Zm8.44-9,2.73,8.59,2.77-8.59h3.91V27.53h-3V24.64l.27-5.9-3,8.79h-2l-3-8.79.31,5.9v2.89h-3V15.19Zm17.07,9a1.2,1.2,0,0,0-.47-1,5.33,5.33,0,0,0-1.57-.75,18.7,18.7,0,0,1-1.87-.74c-1.56-.78-2.34-1.79-2.34-3.16a2.8,2.8,0,0,1,.58-1.76,4,4,0,0,1,1.68-1.21,6.57,6.57,0,0,1,2.38-.39,6.17,6.17,0,0,1,2.31.43A3.6,3.6,0,0,1,42.41,17,3.38,3.38,0,0,1,43,18.9H40.11a1.44,1.44,0,0,0-.47-1.13,1.69,1.69,0,0,0-1.21-.43,1.87,1.87,0,0,0-1.22.35,1.09,1.09,0,0,0-.46.9,1,1,0,0,0,.5.82,5.48,5.48,0,0,0,1.76.78,11,11,0,0,1,2,.86,3.53,3.53,0,0,1,2,3.12,2.87,2.87,0,0,1-1.18,2.46,5.23,5.23,0,0,1-3.28.9A6.3,6.3,0,0,1,35.89,27a4.2,4.2,0,0,1-1.8-1.44,3.73,3.73,0,0,1-.59-2.11h2.93a1.93,1.93,0,0,0,.47,1.45,2.43,2.43,0,0,0,1.64.46,1.7,1.7,0,0,0,1.14-.31A1,1,0,0,0,40.11,24.21Z" fill="#eb66bd"/>
</svg>
