<svg id="Layer_1" data-name="Layer 1" xmlns="http://www.w3.org/2000/svg" viewBox="0 0 50 50">
  <title>speech_balloon_answer</title>
  <g>
    <path d="M23.69,2.69A25.75,25.75,0,0,1,38.86,7.53a21.12,21.12,0,0,1,5.3,5.59A19.37,19.37,0,0,1,47,20.45a22.38,22.38,0,0,1-.35,9.27,22.64,22.64,0,0,1-3.78,7.89,26.05,26.05,0,0,1-6.4,6.06,27.56,27.56,0,0,1-5.64,2.89c.21-3.08-.42-6.51-2.79-8.62l-.69-.61-.89.25a14.56,14.56,0,0,1-2.39.51H24a21.12,21.12,0,0,1-3,.21,20.13,20.13,0,0,1-11.77-3.7,15.18,15.18,0,0,1-6.31-10,17.58,17.58,0,0,1,.28-7.18A18.53,18.53,0,0,1,6.27,10.9,20.25,20.25,0,0,1,20,3a27.25,27.25,0,0,1,3.72-.26h0m0-1.69a27.86,27.86,0,0,0-4,.28C6.84,3.11-.52,14.26,1.26,24.91,2.82,34.32,11.75,40,21,40a23.25,23.25,0,0,0,3.22-.23,15.77,15.77,0,0,0,2.67-.57c2.58,2.3,2.58,6.8,1.83,9.8C41.11,45.67,51,34.23,48.65,20.17,46.67,8.4,35.51,1,23.69,1Z" fill="#eb66bd"/>
    <path d="M27.51,25.05h-5L21.79,7h6.47Zm-5.9,5.62a2.92,2.92,0,0,1,.93-2.2A3.42,3.42,0,0,1,25,27.58a3.4,3.4,0,0,1,2.44.89,2.89,2.89,0,0,1,.94,2.2,3,3,0,0,1-.94,2.2,3.56,3.56,0,0,1-2.44.85,3.58,3.58,0,0,1-2.44-.85A3,3,0,0,1,21.61,30.67Z" fill="#eb66bd"/>
  </g>
</svg>
