<svg id="Layer_1" data-name="Layer 1" xmlns="http://www.w3.org/2000/svg" viewBox="0 0 50 50">
  <title>staff-qualifications</title>
  <path d="M44.5.75H16A6.24,6.24,0,0,0,9.75,7V41.25h-9V44.5A4.75,4.75,0,0,0,5.5,49.25h30a4.75,4.75,0,0,0,4.75-4.75V8.75h9V5.5A4.75,4.75,0,0,0,44.5.75ZM47.81,5.5V7.31H40.25V5.5a4.21,4.21,0,0,1,1.59-3.31H44.5A3.31,3.31,0,0,1,47.81,5.5ZM35.5,47.81H32.84a4.21,4.21,0,0,1-1.59-3.31V41.25H11.19V7A4.78,4.78,0,0,1,16,2.19H39.88a5.74,5.74,0,0,0-.68,1.24,5.64,5.64,0,0,0-.39,2.07v39A3.31,3.31,0,0,1,35.5,47.81Zm-4.62,0H5.5A3.31,3.31,0,0,1,2.19,44.5V42.69H29.81V44.5A5.68,5.68,0,0,0,30.88,47.81Z" fill="#eb66bd"/>
  <path d="M24.74,25.09a5.65,5.65,0,1,0-5.65-5.64A5.64,5.64,0,0,0,24.74,25.09Zm0-10.21a4.57,4.57,0,1,1-4.57,4.57A4.58,4.58,0,0,1,24.74,14.88Z" fill="#eb66bd"/>
  <path d="M21.75,30.78c-.08,1.57-.17,3.35-.31,4.81a10.92,10.92,0,0,0-1.53-1.23,3.81,3.81,0,0,0-1.76-.66,5,5,0,0,0-1.77.15c-.46.11-1,.27-1.72.49.3-.77.68-1.61,1.08-2.47.6-1.27,1.26-2.54,1.84-3.58a6.41,6.41,0,0,1-.79-.77c-.63,1.11-1.37,2.51-2,3.89A32.86,32.86,0,0,0,13.28,35L13,36l1-.33c1.2-.39,2-.65,2.67-.79A4.15,4.15,0,0,1,18,34.76a2.85,2.85,0,0,1,1.29.5,14.29,14.29,0,0,1,2.14,1.85l.77.77.14-1.08c.22-1.62.34-4,.44-6,0-.43.05-.83.07-1.22a9.77,9.77,0,0,1-1.08.06C21.79,30,21.77,30.4,21.75,30.78Z" fill="#eb66bd"/>
  <path d="M15.71,21.9c.13.18.27.35.4.52a5.13,5.13,0,0,1,.83,1.25,12.18,12.18,0,0,0,1.38,2.8A5.15,5.15,0,0,0,21,28.35a5.88,5.88,0,0,0,1.77.26A11.47,11.47,0,0,0,26.09,28c1.25-.36,2.53-.61,3.78-1a7.51,7.51,0,0,0,1.78-.7,5.32,5.32,0,0,0,1.48-1.3,5.48,5.48,0,0,0,1.13-2.86A9.87,9.87,0,0,0,34,18.55a10.49,10.49,0,0,1-.25-1.91,17.07,17.07,0,0,0-.21-1.89,3.49,3.49,0,0,0-.55-1.4c-.79-1-2.74-1.39-4.36-1.67-.6-.11-1.14-.2-1.53-.31s-.8-.27-1.23-.44c-1.5-.57-3.14-1.19-4.71-.5a6.38,6.38,0,0,0-2.57,2.21,18,18,0,0,0-1.6,2.83,5.49,5.49,0,0,1-.78,1.08,4.8,4.8,0,0,0-.88,1.24,4,4,0,0,0-.36,2.11A4.22,4.22,0,0,0,15.71,21.9Zm.54-3.66a4.8,4.8,0,0,1,.71-1,5.48,5.48,0,0,0,.94-1.32,17.46,17.46,0,0,1,1.51-2.66,5.52,5.52,0,0,1,2.12-1.86c1.18-.51,2.6,0,3.92.52.44.18.88.34,1.3.47a14.51,14.51,0,0,0,1.65.33c1.43.26,3.15.55,3.68,1.26a2.46,2.46,0,0,1,.35,1,12.84,12.84,0,0,1,.2,1.75,12.31,12.31,0,0,0,.28,2.11,8.88,8.88,0,0,1,.29,3.27,4.44,4.44,0,0,1-.9,2.31,4.36,4.36,0,0,1-1.19,1.05,5.8,5.8,0,0,1-1.52.6c-1.26.34-2.54.6-3.79,1a10.56,10.56,0,0,1-3.05.53,4.65,4.65,0,0,1-1.44-.21,4,4,0,0,1-2.13-1.5,11,11,0,0,1-1.24-2.55,6.25,6.25,0,0,0-1-1.54c-.13-.15-.25-.31-.37-.47a2.94,2.94,0,0,1-.33-3Z" fill="#eb66bd"/>
  <path d="M34.61,30.39c-.54-1.05-1.1-2.08-1.62-3a8.35,8.35,0,0,1-1,.43c.54.88,1.11,1.94,1.67,3s1.1,2.19,1.54,3.17l-.11,0c-2-.83-2.84-1.18-3.88-.84a4.53,4.53,0,0,0-1.54,1,13.54,13.54,0,0,0-1.22,1.3c-.19-.88-.39-1.86-.59-2.85-.24-1.22-.46-2.43-.64-3.46-.33.09-.67.19-1,.27.18,1,.4,2.23.63,3.39.29,1.46.59,2.9.85,4l.26,1.12.69-.92a15.19,15.19,0,0,1,1.77-2,3.44,3.44,0,0,1,1.17-.73c.66-.21,1.4.09,3.14.81l1.33.54L37.2,36l-.49-1.18C36.21,33.63,35.43,32,34.61,30.39Z" fill="#eb66bd"/>
</svg>
