<svg id="Layer_1" data-name="Layer 1" xmlns="http://www.w3.org/2000/svg" viewBox="0 0 50 50">
  <title>taking-payments</title>
  <g>
    <path d="M35.7,29.17a.86.86,0,0,0,1.41,0l6.67-8.57a.9.9,0,0,0-.73-1.47H39.5V6.39a1,1,0,0,0-.92-.92H34.24a.94.94,0,0,0-.92.92V19.13H29.76A.93.93,0,0,0,29,20.6Z" fill="#eb66bd"/>
    <path d="M48.49,31v0a3.74,3.74,0,0,0-5.15-1.25l-6.89,4.13-2.72.42a.4.4,0,0,0,.1-.24,3.69,3.69,0,0,0-2.39-4.68L21.21,26.05a3.74,3.74,0,0,0-2.11-.23l-6,1.08H10.58v-.37a0,0,0,0,0,0-.05,2.07,2.07,0,0,0-2.08-2H6.89a1.51,1.51,0,0,0-1.39-.92H1v21H5.54a1.49,1.49,0,0,0,1.35-.92H8.55a2.06,2.06,0,0,0,2-2.08V39.28h1.2l11.49,3.23a3.27,3.27,0,0,0,1,.14h4.5a5.27,5.27,0,0,0,.89-.09l8.73-1.46a3.84,3.84,0,0,0,1.5-.61l7.3-4.4A3.74,3.74,0,0,0,48.49,31ZM9.42,28.07V41.53a.9.9,0,0,1-.89.91H7V25.61H8.51a.87.87,0,0,1,.64.25.93.93,0,0,1,.27.64v1.57Zm37.17,7h0L39.26,39.5h0l0,0a2.69,2.69,0,0,1-1,.42l-8.72,1.46h0a3.83,3.83,0,0,1-.68.08H24.26a2.53,2.53,0,0,1-.67-.1h0L12.1,38.15l-.16,0H10.58v-10h2.67l.1,0,6-1.08h0a2.3,2.3,0,0,1,.45,0,2.48,2.48,0,0,1,1,.2l.05,0,.06,0,10.21,3.28a2.58,2.58,0,0,1,1.52,1.3,2.47,2.47,0,0,1,.14,1.87l-2.18,2.31,3.36-.52L36.62,35l.22,0,.2-.12,6.89-4.13h0a2.57,2.57,0,0,1,3.54.86h0A2.57,2.57,0,0,1,46.59,35.08Z" fill="#eb66bd"/>
  </g>
</svg>
