<svg xmlns="http://www.w3.org/2000/svg" xmlns:xlink="http://www.w3.org/1999/xlink" viewBox="0 0 76.99 89">
  <defs>
    <linearGradient id="linear-gradient" x1="38.5" y1="-2.61" x2="38.5" y2="74.38" gradientUnits="userSpaceOnUse">
      <stop offset="0" stop-color="#dccfdd"/>
      <stop offset="1" stop-color="#773079"/>
    </linearGradient>
    <linearGradient id="linear-gradient-2" x1="61.33" y1="67.24" x2="25.46" y2="31.36" gradientUnits="userSpaceOnUse">
      <stop offset="0" stop-color="#662861"/>
      <stop offset="0.24" stop-color="#793f7c"/>
      <stop offset="0.5" stop-color="#875090"/>
      <stop offset="0.75" stop-color="#905a9d"/>
      <stop offset="1" stop-color="#935ea1"/>
    </linearGradient>
    <radialGradient id="radial-gradient" cx="-2.34" cy="29.33" r="74.24" gradientUnits="userSpaceOnUse">
      <stop offset="0" stop-color="#fff"/>
      <stop offset="1" stop-color="#773079"/>
    </radialGradient>
    <radialGradient id="radial-gradient-2" cx="18.56" cy="36.53" r="43.65" gradientUnits="userSpaceOnUse">
      <stop offset="0.42" stop-color="#fff"/>
      <stop offset="1" stop-color="#773079"/>
    </radialGradient>
    <linearGradient id="linear-gradient-3" x1="53.39" y1="49.78" x2="77.43" y2="73.82" gradientUnits="userSpaceOnUse">
      <stop offset="0" stop-color="#67296a"/>
      <stop offset="0.17" stop-color="#793f7c"/>
      <stop offset="0.51" stop-color="#a677a9"/>
      <stop offset="1" stop-color="#edd0f1"/>
    </linearGradient>
    <linearGradient id="linear-gradient-4" x1="15.35" y1="33.06" x2="0.96" y2="22.32" gradientUnits="userSpaceOnUse">
      <stop offset="0" stop-color="#ae78b7"/>
      <stop offset="0.04" stop-color="#b17dba"/>
      <stop offset="0.7" stop-color="#e9daeb"/>
      <stop offset="1" stop-color="#fff"/>
    </linearGradient>
  </defs>
  <title>classbizheadline-db</title>
  <g id="Layer_2" data-name="Layer 2">
    <g id="Layer_1-2" data-name="Layer 1">
      <g>
        <g>
          <path d="M7.6,1.86a7.81,7.81,0,0,0-7.6,8V79a7.82,7.82,0,0,0,7.6,8H69.39A7.82,7.82,0,0,0,77,79V9.84a7.81,7.81,0,0,0-7.6-8Z" fill="url(#linear-gradient)"/>
          <path d="M74.54,79a5.36,5.36,0,0,1-5.15,5.53H7.6A5.35,5.35,0,0,1,2.46,79V9.84A5.35,5.35,0,0,1,7.6,4.31H69.39a5.36,5.36,0,0,1,5.15,5.53Z" fill="url(#linear-gradient-2)"/>
          <path d="M69.39,4.31H7.6A5.35,5.35,0,0,0,2.46,9.84V19C12,37.63,33.29,50.61,58.05,50.61a69.08,69.08,0,0,0,16.49-2V9.84A5.36,5.36,0,0,0,69.39,4.31Z" opacity="0.55" fill="url(#radial-gradient)"/>
          <path d="M8.88,46A30.16,30.16,0,1,1,39,76.15,30.16,30.16,0,0,1,8.88,46Z" opacity="0.24" fill="url(#radial-gradient-2)"/>
          <path d="M70.84,7.69V74.84a5.4,5.4,0,0,1-5.24,5.53H24.52a4.72,4.72,0,0,0,3.78,1.95H67.72a5.06,5.06,0,0,0,4.87-5.23V11.71A5.39,5.39,0,0,0,70.84,7.69Z" opacity="0.25" fill="url(#linear-gradient-3)"/>
          <path d="M5.78,80.86V13.71A5.39,5.39,0,0,1,11,8.18H55.27a4.75,4.75,0,0,0-3.79-1.95H8.89A5.06,5.06,0,0,0,4,11.46V76.84A5.39,5.39,0,0,0,5.78,80.86Z" opacity="0.25" fill="url(#linear-gradient-4)"/>
        </g>
        <path d="M63.46,35.53c-.3-.71-.53-1.89-1-3.28l.23-.24s-.58-1.5-1.14-2.71a15.56,15.56,0,0,0-1.77-3.51,8,8,0,0,0-2.19-1.11L56,24l-.56-.86a1.07,1.07,0,0,0-.79-.5.87.87,0,0,1-.25-.52c0-.29.18-.06.28-.59s.16-.94.26-1.46-.07-.7-.08-1.11,0-1,0-1a1.61,1.61,0,0,0-.26-.81c-.25-.34.11-.53.16-.88l.05-.35-.6-.28S54,15,52.9,15s-3.64.53-4,1.88A3.53,3.53,0,0,0,49,19.74s.14,1,.74,1.15a3.75,3.75,0,0,1,.39,1.21c0,.47,0,1.4,0,1.4a.71.71,0,0,0-.71.49c0,.14-.06.22-.07.27a15.2,15.2,0,0,0-2.73,1.8c-.55.53-1,.8-1,1.27-1.62-2.72-1.54-3.66-3.45-3.83-.14,0-3-.51-3.82-.51-1,0-1.28-.6-1.37-1.63l-.09-1s.45.09.64-.77.18-1.37-.28-1.28c0,0,.18-2.11-.37-2.88a2.57,2.57,0,0,0-1.35-1s-1.18-1-3.49.07c-1.59.75-1.85,3.06-1.49,3.41A15.91,15.91,0,0,1,31.06,20,5.23,5.23,0,0,0,32,22.13c.63.69,1,1,1.45,1s.46,1.37.46,1.37a6.51,6.51,0,0,1-2.1,1.63c-1.05.49-1.67.76-1.9,1.79a2.13,2.13,0,0,0-.78-.43,20.8,20.8,0,0,1-2.45-1c-.09-.13-.27-.41-.49-.81-.33-.58-.05-1,.46-2.29s.13-2.34.23-3.6-1.62-3.38-3.41-2.34c0,0-1.75-.59-2.63,1.84a20.41,20.41,0,0,0-1.2,4.82c-.23,1.48-.17,1.16-.77,1.93s-1.09.68-1.48,1.66a1.46,1.46,0,0,0-.18.38,16.7,16.7,0,0,0-.61,3.63A13.82,13.82,0,0,1,16,35c-.34,1.54-1.57,3.07-2.22,5.8s-1.57,3.36-1.88,5.58.22,2.64.79,4.35c0,0,.17.34.44,1s.52,1.27,1.22,1,.78-.56.78-.56l2.41-.75A36.51,36.51,0,0,0,18,56.61a18.13,18.13,0,0,1,2.11.42,2.24,2.24,0,0,1,.23,1.29A5.49,5.49,0,0,0,21,61.6a18.37,18.37,0,0,1,.86,3.84c.29,1.13.58,1.22.58,1.88s-.2.46-.2,1.12a2.28,2.28,0,0,0,.29,1.12s-1.34,1.22-2.4,2.25.1,1.5,1.54,1.22,2.3-1.69,2.88-1.69a3.2,3.2,0,0,0,.86-.09,8.29,8.29,0,0,0,.1-1.78,11.3,11.3,0,0,1-.1-2.15,46.13,46.13,0,0,0-.77-5.06,35.65,35.65,0,0,0,1.06,3.84c.57,1.59.29,1.78.29,3.09s.19,2.06.19,2.62-.39,1.31-1.44,2.62.09,1.69,1.05,1.69a3.62,3.62,0,0,0,2.69-1.5c.77-.93.86-.56.86-1a9,9,0,0,0-.48-1.78l.39-.19s0-2,.09-3.65a11.27,11.27,0,0,0-.57-3.75,41.76,41.76,0,0,0-1.83-6.37,4.88,4.88,0,0,1-.28-1s1.53-.68,2.36-.92c0,0-1-4.48-.53-6.57l.36-1.7s.66-.26,1.38-1.73c.23-.47-.39-1,.14-2,.31-.59.77-1.41,1.11-2.2a26.4,26.4,0,0,0-.19,2.73,12.58,12.58,0,0,1,.09,2.83,14.79,14.79,0,0,0,.54,5.31,19.22,19.22,0,0,1,.44,2.12c.16.49.29,1,.4,1.47a7.54,7.54,0,0,0,.29.94l0,.14h0c.31.76.69,1.34,1.08,2.2.55,1.22-.22,2.06.55,4.21s.65,4.22,1.2,5.06-.55.94-.55,1.41.44.65.11.84a18.47,18.47,0,0,1-2.52,1.59c-.55.21-1.71.49-1.75,1.24s1,.65,1.64.73c1.43.19,2.85-.65,4.17-.84s2.41.09,2.63-.19.55-2,.11-2.06-.22-.56.11-.84.43-.47,0-1.41-.22-.84-.22-2.34a21.09,21.09,0,0,0-.44-3.56,9.23,9.23,0,0,1,1.09,4.22,13.31,13.31,0,0,0,.88,4,2.15,2.15,0,0,1,.11,1.41,2.55,2.55,0,0,0,.11.64c.11.37-1.7,2-2.68,3-.62.61,2,1.19,3.08.4,2-1.49,3.89-1.47,4.22-2.22s.24-.82-.08-1.29-.44-.37-.12-.84.33-.84-.21-1.31-.11-.47-.22-.94,0,.5-.15-2.59a22.29,22.29,0,0,0-1.54-7.4c-.55-1.13,0-1.13-.33-1.6a1.15,1.15,0,0,1-.11-1.31,1.27,1.27,0,0,0,.08-.23h0a.44.44,0,0,1,0-.1A4.45,4.45,0,0,0,43,55.49a8.39,8.39,0,0,1-.29-1.9c.11-.82.46-1.89.46-2.58a26.59,26.59,0,0,1,2.56-3.65c1,3.66.79,3.71.73,5.46l0,5.18a9.37,9.37,0,0,0-.17,1.34,41.87,41.87,0,0,0,.15,6.86c.25,1.51.52,2.56.07,2.72s0,1.32,0,1.32.63.5.18,2.54,1.3,2.33,3.07,2.14,1-2.57.52-3.26a2.15,2.15,0,0,1-.48-1.28l.49-.47a1,1,0,0,0,.32-.87c-.07-.57-.47-.76-.32-1.41a28.79,28.79,0,0,1,.45-4,19.85,19.85,0,0,0,.48-4.48c.08-1.4.8-4.36.8-6.33a13.43,13.43,0,0,1,.3-2.42,11.05,11.05,0,0,1,.83,2.55c0,.65.52,3.15.68,4.28C53.92,59,54,61,54,62.37c0,2.06.24,4.87-.1,5.55a1.36,1.36,0,0,0,.2,1.49,4.16,4.16,0,0,1,.44.72c-.13,1-.14,2.07.72,2a2.06,2.06,0,0,1,1.88.81c.42.53,1.49.65,2.73.57a1,1,0,0,0,.45-1.91c-.79-.32-1-1-1.63-1.3s-1.21-.76-1.21-.76l0-.29.33-.11a2.8,2.8,0,0,0,0-1.41,3.5,3.5,0,0,1-.61-1.84A28.68,28.68,0,0,1,58,62c.23-.86-.3-1.58-.13-4.59,0-.07,0-.14,0-.2h0s0-.07,0-.11c0-.73.09-1.58.13-2.45l0,0a5.85,5.85,0,0,0,.11-1.75c-.15-1.46-.26-3.32-.27-3.84a7.62,7.62,0,0,1,.26-1.58S59.6,46.08,60,45.78a1.38,1.38,0,0,0,.51-1.41c-.14-.7-.15-1.16,1.5-4.18S63.58,35.84,63.46,35.53ZM29.11,42.17c-.18,1.33-.53,1.37-.53,1.37a11.94,11.94,0,0,0-1.22-5.2,6.18,6.18,0,0,1,.44-3.45,8.07,8.07,0,0,0,.52-1.54c0,.73.79,3.16,1,4a14.54,14.54,0,0,1,.22,2A13.32,13.32,0,0,0,29.11,42.17Zm2.77-3.94,0-.32h0Zm10.85-2A15.12,15.12,0,0,1,43,33.44a4.5,4.5,0,0,0-.09-2.23c1.74,2.58,1.64,2.4,1.37,2.83S42.73,36.27,42.73,36.27Zm1.57,4.8c-.25-.56-.49-1.09-.66-1.54l-.18-.43s.77-.52,1.61-1.18a8.47,8.47,0,0,0,0,1.07C45.2,40,44.71,40.33,44.3,41.07Zm15.43-3.23c-.26,1.09-.3,3.58-.7,4.64s-.86,1-.86,1a9.4,9.4,0,0,0-.08-3,24.67,24.67,0,0,1-.45-3.54,9.71,9.71,0,0,1,.14-3.68A6.44,6.44,0,0,0,58,31a22.41,22.41,0,0,0,1.13,2.27l.3.2a13.2,13.2,0,0,0,1,2C60.78,35.85,60.2,35.9,59.73,37.84Z" fill="#fff"/>
        <path d="M59.62,41.38s14.05,6.11,11.13,21.94-19,23.7-19,23.7a13.44,13.44,0,0,1-14,0s20.62-5.67,28.66-17.36,2.44-21.93-7.54-25.29Z" fill="#fff"/>
        <path d="M16.58,47.62s-14-6.11-11.12-21.94S24.46,2,24.46,2a13.44,13.44,0,0,1,14,0S17.88,7.65,9.84,19.34,7.41,41.27,17.38,44.63Z" fill="#fff"/>
      </g>
    </g>
  </g>
</svg>
